<?xml version="1.0" encoding="UTF-8" standalone="no"?><svg xmlns="http://www.w3.org/2000/svg" xmlns:xlink="http://www.w3.org/1999/xlink" contentScriptType="application/ecmascript" contentStyleType="text/css" height="448.75px" preserveAspectRatio="none" style="width:697px;height:448px;background:#FFFFFF;" version="1.1" viewBox="0 0 697 448" width="697.5px" zoomAndPan="magnify"><defs><filter height="300%" id="fhialjckkjdxg" width="300%" x="-1" y="-1"><feGaussianBlur result="blurOut" stdDeviation="2.5"/><feColorMatrix in="blurOut" result="blurOut2" type="matrix" values="0 0 0 0 0 0 0 0 0 0 0 0 0 0 0 0 0 0 .4 0"/><feOffset dx="5.0" dy="5.0" in="blurOut2" result="blurOut3"/><feBlend in="SourceGraphic" in2="blurOut3" mode="normal"/></filter></defs><g><!--MD5=[71bbd9a8484934f326c7671f66ba9d0c]
class KnowPortsUI--><rect codeLine="3" fill="#FEFECE" filter="url(#fhialjckkjdxg)" height="60" id="KnowPortsUI" style="stroke:#A80036;stroke-width:1.875;" width="130" x="200.625" y="8.75"/><ellipse cx="219.375" cy="28.75" fill="#ADD1B2" rx="13.75" ry="13.75" style="stroke:#A80036;stroke-width:1.25;"/><path d="M221.875,24.375 Q222.1289,23.75 222.4219,23.4375 Q222.7148,23.125 223.0469,23.125 Q223.6328,23.125 224.0039,23.4766 Q224.375,23.8281 224.375,24.6484 L224.375,26.6016 Q224.375,27.4219 224.0234,27.7734 Q223.6719,28.125 223.125,28.125 Q222.6367,28.125 222.3242,27.9102 Q222.0117,27.6953 221.875,27.1289 Q221.8164,26.7383 221.6016,26.5234 Q221.2109,26.1133 220.5078,25.8789 Q219.8047,25.625 219.1016,25.625 Q218.2227,25.625 217.4805,25.9766 Q216.7578,26.3281 216.1914,27.1094 Q215.625,27.8906 215.625,28.9648 L215.625,30.1172 Q215.625,31.4063 216.6797,32.2656 Q217.7344,33.125 219.6094,33.125 Q220.7227,33.125 221.5039,32.8711 Q221.9531,32.7344 222.4609,32.2852 Q222.793,32.0313 222.9688,31.9531 Q223.1445,31.875 223.3594,31.875 Q223.7695,31.875 224.0625,32.207 Q224.375,32.5195 224.375,32.9688 Q224.375,33.3984 223.9453,33.9063 Q223.3203,34.6484 222.3242,35.0586 Q221.0156,35.625 219.4141,35.625 Q217.5391,35.625 216.0352,34.8828 Q214.8242,34.2969 213.9648,33.0273 Q213.125,31.7578 213.125,30.2539 L213.125,28.8867 Q213.125,27.3242 213.8672,25.957 Q214.6289,24.5898 215.9375,23.8672 Q217.2656,23.125 218.75,23.125 Q219.6484,23.125 220.4297,23.4375 Q221.2109,23.75 221.875,24.375 Z " fill="#000000"/><text fill="#000000" font-family="sans-serif" font-size="15" lengthAdjust="spacing" textLength="90" x="236.875" y="34.8877">KnowPortsUI</text><line style="stroke:#A80036;stroke-width:1.875;" x1="201.875" x2="329.375" y1="48.75" y2="48.75"/><line style="stroke:#A80036;stroke-width:1.875;" x1="201.875" x2="329.375" y1="58.75" y2="58.75"/><!--MD5=[18128de1fe664899f0e69258e7bde033]
class CountryController--><rect codeLine="6" fill="#FEFECE" filter="url(#fhialjckkjdxg)" height="77.2949" id="CountryController" style="stroke:#A80036;stroke-width:1.875;" width="216.25" x="157.5" y="145"/><ellipse cx="201.5625" cy="165" fill="#ADD1B2" rx="13.75" ry="13.75" style="stroke:#A80036;stroke-width:1.25;"/><path d="M204.0625,160.625 Q204.3164,160 204.6094,159.6875 Q204.9023,159.375 205.2344,159.375 Q205.8203,159.375 206.1914,159.7266 Q206.5625,160.0781 206.5625,160.8984 L206.5625,162.8516 Q206.5625,163.6719 206.2109,164.0234 Q205.8594,164.375 205.3125,164.375 Q204.8242,164.375 204.5117,164.1602 Q204.1992,163.9453 204.0625,163.3789 Q204.0039,162.9883 203.7891,162.7734 Q203.3984,162.3633 202.6953,162.1289 Q201.9922,161.875 201.2891,161.875 Q200.4102,161.875 199.668,162.2266 Q198.9453,162.5781 198.3789,163.3594 Q197.8125,164.1406 197.8125,165.2148 L197.8125,166.3672 Q197.8125,167.6563 198.8672,168.5156 Q199.9219,169.375 201.7969,169.375 Q202.9102,169.375 203.6914,169.1211 Q204.1406,168.9844 204.6484,168.5352 Q204.9805,168.2813 205.1563,168.2031 Q205.332,168.125 205.5469,168.125 Q205.957,168.125 206.25,168.457 Q206.5625,168.7695 206.5625,169.2188 Q206.5625,169.6484 206.1328,170.1563 Q205.5078,170.8984 204.5117,171.3086 Q203.2031,171.875 201.6016,171.875 Q199.7266,171.875 198.2227,171.1328 Q197.0117,170.5469 196.1523,169.2773 Q195.3125,168.0078 195.3125,166.5039 L195.3125,165.1367 Q195.3125,163.5742 196.0547,162.207 Q196.8164,160.8398 198.125,160.1172 Q199.4531,159.375 200.9375,159.375 Q201.8359,159.375 202.6172,159.6875 Q203.3984,160 204.0625,160.625 Z " fill="#000000"/><text fill="#000000" font-family="sans-serif" font-size="15" lengthAdjust="spacing" textLength="120" x="224.6875" y="171.1377">CountryController</text><line style="stroke:#A80036;stroke-width:1.875;" x1="158.75" x2="372.5" y1="185" y2="185"/><line style="stroke:#A80036;stroke-width:1.875;" x1="158.75" x2="372.5" y1="195" y2="195"/><text fill="#000000" font-family="sans-serif" font-size="13.75" lengthAdjust="spacing" textLength="201.25" x="165" y="214.2737">+getCentrality(int numberOfPorts)</text><!--MD5=[b7b072196a724e538165319251b4d539]
class MatrixGraph--><rect codeLine="10" fill="#FEFECE" filter="url(#fhialjckkjdxg)" height="111.8848" id="MatrixGraph" style="stroke:#A80036;stroke-width:1.875;" width="156.25" x="8.75" y="320"/><ellipse cx="43.25" cy="340" fill="#ADD1B2" rx="13.75" ry="13.75" style="stroke:#A80036;stroke-width:1.25;"/><path d="M45.75,335.625 Q46.0039,335 46.2969,334.6875 Q46.5898,334.375 46.9219,334.375 Q47.5078,334.375 47.8789,334.7266 Q48.25,335.0781 48.25,335.8984 L48.25,337.8516 Q48.25,338.6719 47.8984,339.0234 Q47.5469,339.375 47,339.375 Q46.5117,339.375 46.1992,339.1602 Q45.8867,338.9453 45.75,338.3789 Q45.6914,337.9883 45.4766,337.7734 Q45.0859,337.3633 44.3828,337.1289 Q43.6797,336.875 42.9766,336.875 Q42.0977,336.875 41.3555,337.2266 Q40.6328,337.5781 40.0664,338.3594 Q39.5,339.1406 39.5,340.2148 L39.5,341.3672 Q39.5,342.6563 40.5547,343.5156 Q41.6094,344.375 43.4844,344.375 Q44.5977,344.375 45.3789,344.1211 Q45.8281,343.9844 46.3359,343.5352 Q46.668,343.2813 46.8438,343.2031 Q47.0195,343.125 47.2344,343.125 Q47.6445,343.125 47.9375,343.457 Q48.25,343.7695 48.25,344.2188 Q48.25,344.6484 47.8203,345.1563 Q47.1953,345.8984 46.1992,346.3086 Q44.8906,346.875 43.2891,346.875 Q41.4141,346.875 39.9102,346.1328 Q38.6992,345.5469 37.8398,344.2773 Q37,343.0078 37,341.5039 L37,340.1367 Q37,338.5742 37.7422,337.207 Q38.5039,335.8398 39.8125,335.1172 Q41.1406,334.375 42.625,334.375 Q43.5234,334.375 44.3047,334.6875 Q45.0859,335 45.75,335.625 Z " fill="#000000"/><text fill="#000000" font-family="sans-serif" font-size="15" lengthAdjust="spacing" textLength="81.25" x="64.25" y="346.1377">MatrixGraph</text><line style="stroke:#A80036;stroke-width:1.875;" x1="10" x2="163.75" y1="360" y2="360"/><line style="stroke:#A80036;stroke-width:1.875;" x1="10" x2="163.75" y1="370" y2="370"/><text fill="#000000" font-family="sans-serif" font-size="13.75" lengthAdjust="spacing" textLength="50" x="16.25" y="389.2737">+clone()</text><text fill="#000000" font-family="sans-serif" font-size="13.75" lengthAdjust="spacing" textLength="141.25" x="16.25" y="406.5686">+removeVertex(V vert)</text><text fill="#000000" font-family="sans-serif" font-size="13.75" lengthAdjust="spacing" textLength="123.75" x="16.25" y="423.8635">+adjVertices(V vert)</text><!--MD5=[4533588fb66c6fa31a6e04bf29ae6161]
class Algorithms--><rect codeLine="16" fill="#FEFECE" filter="url(#fhialjckkjdxg)" height="77.2949" id="Algorithms" style="stroke:#A80036;stroke-width:1.875;" width="471.25" x="208.75" y="337.5"/><ellipse cx="402.1875" cy="357.5" fill="#ADD1B2" rx="13.75" ry="13.75" style="stroke:#A80036;stroke-width:1.25;"/><path d="M404.6875,353.125 Q404.9414,352.5 405.2344,352.1875 Q405.5273,351.875 405.8594,351.875 Q406.4453,351.875 406.8164,352.2266 Q407.1875,352.5781 407.1875,353.3984 L407.1875,355.3516 Q407.1875,356.1719 406.8359,356.5234 Q406.4844,356.875 405.9375,356.875 Q405.4492,356.875 405.1367,356.6602 Q404.8242,356.4453 404.6875,355.8789 Q404.6289,355.4883 404.4141,355.2734 Q404.0234,354.8633 403.3203,354.6289 Q402.6172,354.375 401.9141,354.375 Q401.0352,354.375 400.293,354.7266 Q399.5703,355.0781 399.0039,355.8594 Q398.4375,356.6406 398.4375,357.7148 L398.4375,358.8672 Q398.4375,360.1563 399.4922,361.0156 Q400.5469,361.875 402.4219,361.875 Q403.5352,361.875 404.3164,361.6211 Q404.7656,361.4844 405.2734,361.0352 Q405.6055,360.7813 405.7813,360.7031 Q405.957,360.625 406.1719,360.625 Q406.582,360.625 406.875,360.957 Q407.1875,361.2695 407.1875,361.7188 Q407.1875,362.1484 406.7578,362.6563 Q406.1328,363.3984 405.1367,363.8086 Q403.8281,364.375 402.2266,364.375 Q400.3516,364.375 398.8477,363.6328 Q397.6367,363.0469 396.7773,361.7773 Q395.9375,360.5078 395.9375,359.0039 L395.9375,357.6367 Q395.9375,356.0742 396.6797,354.707 Q397.4414,353.3398 398.75,352.6172 Q400.0781,351.875 401.5625,351.875 Q402.4609,351.875 403.2422,352.1875 Q404.0234,352.5 404.6875,353.125 Z " fill="#000000"/><text fill="#000000" font-family="sans-serif" font-size="15" lengthAdjust="spacing" textLength="73.75" x="427.8125" y="363.6377">Algorithms</text><line style="stroke:#A80036;stroke-width:1.875;" x1="210" x2="678.75" y1="377.5" y2="377.5"/><line style="stroke:#A80036;stroke-width:1.875;" x1="210" x2="678.75" y1="387.5" y2="387.5"/><text fill="#000000" font-family="sans-serif" font-size="13.75" lengthAdjust="spacing" textLength="456.25" x="216.25" y="406.7737">+minDistGraph(Graph &lt;V,E&gt; g, Comparator&lt;E&gt; ce, BinaryOperator&lt;E&gt; sum)</text><!--MD5=[fef173e6ac9c9fa532be7661e74639b5]
link KnowPortsUI to CountryController--><path codeLine="21" d="M265.625,68.8375 C265.625,88.7625 265.625,115.6375 265.625,138.25 " fill="none" id="KnowPortsUI-to-CountryController" style="stroke:#A80036;stroke-width:1.25;stroke-dasharray:7.0,7.0;"/><polygon fill="#A80036" points="265.625,144.5125,270.625,133.2625,265.625,138.2625,260.625,133.2625,265.625,144.5125" style="stroke:#A80036;stroke-width:1.25;"/><!--MD5=[c7ad7d43e3e2ae0f7dacaa78710acd86]
link CountryController to MatrixGraph--><path codeLine="22" d="M230.3125,222.5375 C205.4875,248.925 171.7625,284.775 143.2375,315.0875 " fill="none" id="CountryController-to-MatrixGraph" style="stroke:#A80036;stroke-width:1.25;"/><polygon fill="#A80036" points="138.7125,319.9,150.0639,315.1346,142.996,315.3488,142.7819,308.2809,138.7125,319.9" style="stroke:#A80036;stroke-width:1.25;"/><text fill="#000000" font-family="sans-serif" font-size="16.25" lengthAdjust="spacing" textLength="35" x="194.375" y="278.1189">uses</text><text fill="#000000" font-family="sans-serif" font-size="16.25" lengthAdjust="spacing" textLength="8.75" x="213.749" y="249.0749">1</text><text fill="#000000" font-family="sans-serif" font-size="16.25" lengthAdjust="spacing" textLength="25" x="119.9819" y="306.2784">1..*</text><!--MD5=[4e8c91b2f548ff8cdf9513825b59f611]
link CountryController to Algorithms--><path codeLine="23" d="M300.9375,222.5375 C330.7125,254.1875 373.3,299.45 404.3375,332.4375 " fill="none" id="CountryController-to-Algorithms" style="stroke:#A80036;stroke-width:1.25;"/><polygon fill="#A80036" points="408.825,337.2125,404.7556,325.5934,404.5415,332.6613,397.4736,332.4471,408.825,337.2125" style="stroke:#A80036;stroke-width:1.25;"/><text fill="#000000" font-family="sans-serif" font-size="16.25" lengthAdjust="spacing" textLength="35" x="356.875" y="278.1189">uses</text><text fill="#000000" font-family="sans-serif" font-size="16.25" lengthAdjust="spacing" textLength="8.75" x="298.2783" y="249.0749">1</text><text fill="#000000" font-family="sans-serif" font-size="16.25" lengthAdjust="spacing" textLength="8.75" x="391.8405" y="324.0339">1</text><!--MD5=[a64d02023193e907b90c5467c93379f9]
@startuml
skinparam classAttributeIconSize 0

class KnowPortsUI{
}

class CountryController {
+ getCentrality(int numberOfPorts)
}

class MatrixGraph {
+ clone()
+ removeVertex(V vert)
+ adjVertices(V vert)
}

class Algorithms {
+ minDistGraph(Graph <V,E> g, Comparator<E> ce, BinaryOperator<E> sum)
}


CountryController <.up. KnowPortsUI
CountryController "1" - -> "1..*" MatrixGraph : uses
CountryController "1" - -> "1" Algorithms : uses



@enduml

PlantUML version 1.2021.7(Sun May 23 13:40:07 BST 2021)
(GPL source distribution)
Java Runtime: OpenJDK Runtime Environment
JVM: OpenJDK 64-Bit Server VM
Default Encoding: Cp1252
Language: pt
Country: PT
--></g></svg>