<?xml version="1.0" encoding="UTF-8" standalone="no"?><svg xmlns="http://www.w3.org/2000/svg" xmlns:xlink="http://www.w3.org/1999/xlink" contentScriptType="application/ecmascript" contentStyleType="text/css" height="256.25px" preserveAspectRatio="none" style="width:2346px;height:256px;background:#FFFFFF;" version="1.1" viewBox="0 0 2346 256" width="2346.25px" zoomAndPan="magnify"><defs><filter height="300%" id="fxsda67210huf" width="300%" x="-1" y="-1"><feGaussianBlur result="blurOut" stdDeviation="2.5"/><feColorMatrix in="blurOut" result="blurOut2" type="matrix" values="0 0 0 0 0 0 0 0 0 0 0 0 0 0 0 0 0 0 .4 0"/><feOffset dx="5.0" dy="5.0" in="blurOut2" result="blurOut3"/><feBlend in="SourceGraphic" in2="blurOut3" mode="normal"/></filter></defs><g><!--MD5=[bce8401af9072f2b56d0cb541f08e41a]
class GetTopNShipsByMostKmFastShipsUI--><rect codeLine="3" fill="#FEFECE" filter="url(#fxsda67210huf)" height="60" id="GetTopNShipsByMostKmFastShipsUI" style="stroke:#A80036;stroke-width:1.875;" width="298.75" x="436.875" y="8.75"/><ellipse cx="455.625" cy="28.75" fill="#ADD1B2" rx="13.75" ry="13.75" style="stroke:#A80036;stroke-width:1.25;"/><path d="M458.125,24.375 Q458.3789,23.75 458.6719,23.4375 Q458.9648,23.125 459.2969,23.125 Q459.8828,23.125 460.2539,23.4766 Q460.625,23.8281 460.625,24.6484 L460.625,26.6016 Q460.625,27.4219 460.2734,27.7734 Q459.9219,28.125 459.375,28.125 Q458.8867,28.125 458.5742,27.9102 Q458.2617,27.6953 458.125,27.1289 Q458.0664,26.7383 457.8516,26.5234 Q457.4609,26.1133 456.7578,25.8789 Q456.0547,25.625 455.3516,25.625 Q454.4727,25.625 453.7305,25.9766 Q453.0078,26.3281 452.4414,27.1094 Q451.875,27.8906 451.875,28.9648 L451.875,30.1172 Q451.875,31.4063 452.9297,32.2656 Q453.9844,33.125 455.8594,33.125 Q456.9727,33.125 457.7539,32.8711 Q458.2031,32.7344 458.7109,32.2852 Q459.043,32.0313 459.2188,31.9531 Q459.3945,31.875 459.6094,31.875 Q460.0195,31.875 460.3125,32.207 Q460.625,32.5195 460.625,32.9688 Q460.625,33.3984 460.1953,33.9063 Q459.5703,34.6484 458.5742,35.0586 Q457.2656,35.625 455.6641,35.625 Q453.7891,35.625 452.2852,34.8828 Q451.0742,34.2969 450.2148,33.0273 Q449.375,31.7578 449.375,30.2539 L449.375,28.8867 Q449.375,27.3242 450.1172,25.957 Q450.8789,24.5898 452.1875,23.8672 Q453.5156,23.125 455,23.125 Q455.8984,23.125 456.6797,23.4375 Q457.4609,23.75 458.125,24.375 Z " fill="#000000"/><text fill="#000000" font-family="sans-serif" font-size="15" lengthAdjust="spacing" textLength="258.75" x="473.125" y="34.8877">GetTopNShipsByMostKmFastShipsUI</text><line style="stroke:#A80036;stroke-width:1.875;" x1="438.125" x2="734.375" y1="48.75" y2="48.75"/><line style="stroke:#A80036;stroke-width:1.875;" x1="438.125" x2="734.375" y1="58.75" y2="58.75"/><!--MD5=[3f1cb4dd8ebfe3438cbc60657ade16a6]
class ShipDistanceController--><rect codeLine="6" fill="#FEFECE" filter="url(#fxsda67210huf)" height="77.2949" id="ShipDistanceController" style="stroke:#A80036;stroke-width:1.875;" width="1155" x="8.75" y="153.75"/><ellipse cx="500.9375" cy="173.75" fill="#ADD1B2" rx="13.75" ry="13.75" style="stroke:#A80036;stroke-width:1.25;"/><path d="M503.4375,169.375 Q503.6914,168.75 503.9844,168.4375 Q504.2773,168.125 504.6094,168.125 Q505.1953,168.125 505.5664,168.4766 Q505.9375,168.8281 505.9375,169.6484 L505.9375,171.6016 Q505.9375,172.4219 505.5859,172.7734 Q505.2344,173.125 504.6875,173.125 Q504.1992,173.125 503.8867,172.9102 Q503.5742,172.6953 503.4375,172.1289 Q503.3789,171.7383 503.1641,171.5234 Q502.7734,171.1133 502.0703,170.8789 Q501.3672,170.625 500.6641,170.625 Q499.7852,170.625 499.043,170.9766 Q498.3203,171.3281 497.7539,172.1094 Q497.1875,172.8906 497.1875,173.9648 L497.1875,175.1172 Q497.1875,176.4063 498.2422,177.2656 Q499.2969,178.125 501.1719,178.125 Q502.2852,178.125 503.0664,177.8711 Q503.5156,177.7344 504.0234,177.2852 Q504.3555,177.0313 504.5313,176.9531 Q504.707,176.875 504.9219,176.875 Q505.332,176.875 505.625,177.207 Q505.9375,177.5195 505.9375,177.9688 Q505.9375,178.3984 505.5078,178.9063 Q504.8828,179.6484 503.8867,180.0586 Q502.5781,180.625 500.9766,180.625 Q499.1016,180.625 497.5977,179.8828 Q496.3867,179.2969 495.5273,178.0273 Q494.6875,176.7578 494.6875,175.2539 L494.6875,173.8867 Q494.6875,172.3242 495.4297,170.957 Q496.1914,169.5898 497.5,168.8672 Q498.8281,168.125 500.3125,168.125 Q501.2109,168.125 501.9922,168.4375 Q502.7734,168.75 503.4375,169.375 Z " fill="#000000"/><text fill="#000000" font-family="sans-serif" font-size="15" lengthAdjust="spacing" textLength="160" x="526.5625" y="179.8877">ShipDistanceController</text><line style="stroke:#A80036;stroke-width:1.875;" x1="10" x2="1162.5" y1="193.75" y2="193.75"/><line style="stroke:#A80036;stroke-width:1.875;" x1="10" x2="1162.5" y1="203.75" y2="203.75"/><ellipse cx="22.5" cy="217.5" fill="#84BE84" rx="3.75" ry="3.75" style="stroke:#038048;stroke-width:1.25;"/><text fill="#000000" font-family="sans-serif" font-size="13.75" lengthAdjust="spacing" textLength="1122.5" x="33.75" y="223.0237">shipsOrderByMostKmFastShips (String dateOfCheck, String hourCheck,String dateOfCheck2, String hourCheck2, int numberOfResults, HashMap&lt;Ship,List&lt;ShipDynamicFields&gt;&gt; shipMap)</text><!--MD5=[ac7de62ce9384a92b5e95b1a406bc87c]
class ShipDistance--><rect codeLine="10" fill="#FEFECE" filter="url(#fxsda67210huf)" height="94.5898" id="ShipDistance" style="stroke:#A80036;stroke-width:1.875;" width="1067.5" x="1261.25" y="145"/><ellipse cx="1743.4375" cy="165" fill="#ADD1B2" rx="13.75" ry="13.75" style="stroke:#A80036;stroke-width:1.25;"/><path d="M1745.9375,160.625 Q1746.1914,160 1746.4844,159.6875 Q1746.7773,159.375 1747.1094,159.375 Q1747.6953,159.375 1748.0664,159.7266 Q1748.4375,160.0781 1748.4375,160.8984 L1748.4375,162.8516 Q1748.4375,163.6719 1748.0859,164.0234 Q1747.7344,164.375 1747.1875,164.375 Q1746.6992,164.375 1746.3867,164.1602 Q1746.0742,163.9453 1745.9375,163.3789 Q1745.8789,162.9883 1745.6641,162.7734 Q1745.2734,162.3633 1744.5703,162.1289 Q1743.8672,161.875 1743.1641,161.875 Q1742.2852,161.875 1741.543,162.2266 Q1740.8203,162.5781 1740.2539,163.3594 Q1739.6875,164.1406 1739.6875,165.2148 L1739.6875,166.3672 Q1739.6875,167.6563 1740.7422,168.5156 Q1741.7969,169.375 1743.6719,169.375 Q1744.7852,169.375 1745.5664,169.1211 Q1746.0156,168.9844 1746.5234,168.5352 Q1746.8555,168.2813 1747.0313,168.2031 Q1747.207,168.125 1747.4219,168.125 Q1747.832,168.125 1748.125,168.457 Q1748.4375,168.7695 1748.4375,169.2188 Q1748.4375,169.6484 1748.0078,170.1563 Q1747.3828,170.8984 1746.3867,171.3086 Q1745.0781,171.875 1743.4766,171.875 Q1741.6016,171.875 1740.0977,171.1328 Q1738.8867,170.5469 1738.0273,169.2773 Q1737.1875,168.0078 1737.1875,166.5039 L1737.1875,165.1367 Q1737.1875,163.5742 1737.9297,162.207 Q1738.6914,160.8398 1740,160.1172 Q1741.3281,159.375 1742.8125,159.375 Q1743.7109,159.375 1744.4922,159.6875 Q1745.2734,160 1745.9375,160.625 Z " fill="#000000"/><text fill="#000000" font-family="sans-serif" font-size="15" lengthAdjust="spacing" textLength="92.5" x="1769.0625" y="171.1377">ShipDistance</text><line style="stroke:#A80036;stroke-width:1.875;" x1="1262.5" x2="2327.5" y1="185" y2="185"/><line style="stroke:#A80036;stroke-width:1.875;" x1="1262.5" x2="2327.5" y1="195" y2="195"/><ellipse cx="1275" cy="208.75" fill="#84BE84" rx="3.75" ry="3.75" style="stroke:#038048;stroke-width:1.25;"/><text fill="#000000" font-family="sans-serif" font-size="13.75" lengthAdjust="spacing" textLength="1035" x="1286.25" y="214.2737">mostKmFastShips(String dateOfCheck, String hourCheck,String dateOfCheck2, String hourCheck2, int numberOfResults, HashMap&lt;Ship,List&lt;ShipDynamicFields&gt;&gt; shipMap)</text><ellipse cx="1275" cy="226.0449" fill="#84BE84" rx="3.75" ry="3.75" style="stroke:#038048;stroke-width:1.25;"/><text fill="#000000" font-family="sans-serif" font-size="13.75" lengthAdjust="spacing" textLength="265" x="1286.25" y="231.5686">compare(ShipDistance p1, ShipDistance p2)</text><!--MD5=[61dc1a5a2e279f2a02f331ea22280564]
link GetTopNShipsByMostKmFastShipsUI to ShipDistanceController--><path codeLine="15" d="M586.25,68.8 C586.25,90.925 586.25,121.8625 586.25,147.1125 " fill="none" id="GetTopNShipsByMostKmFastShipsUI-to-ShipDistanceController" style="stroke:#A80036;stroke-width:1.25;stroke-dasharray:7.0,7.0;"/><polygon fill="#A80036" points="586.25,153.4,591.25,142.15,586.25,147.15,581.25,142.15,586.25,153.4" style="stroke:#A80036;stroke-width:1.25;"/><!--MD5=[10b4a9574b603e086d31abf134959c8f]
link ShipDistanceController to ShipDistance--><path codeLine="16" d="M1164.075,192.5 C1194.25,192.5 1224.5125,192.5 1254.5625,192.5 " fill="none" id="ShipDistanceController-to-ShipDistance" style="stroke:#A80036;stroke-width:1.25;"/><polygon fill="#A80036" points="1260.975,192.5,1249.725,187.5,1254.725,192.5,1249.725,197.5,1260.975,192.5" style="stroke:#A80036;stroke-width:1.25;"/><polygon fill="#000000" points="1198.125,177.7197,1186.8186,174.0461,1186.8186,181.3934,1198.125,177.7197" style="stroke:#000000;stroke-width:1.25;"/><text fill="#000000" font-family="sans-serif" font-size="16.25" lengthAdjust="spacing" textLength="35" x="1203.125" y="184.3689">uses</text><!--MD5=[ff44513dd87660fad17c53ba4b3cf5aa]
@startuml
'https://plantuml.com/use-case-diagram

class GetTopNShipsByMostKmFastShipsUI {
}

class ShipDistanceController {
+ shipsOrderByMostKmFastShips (String dateOfCheck, String hourCheck,String dateOfCheck2, String hourCheck2, int numberOfResults, HashMap<Ship,List<ShipDynamicFields>> shipMap)
}

class ShipDistance {
+ mostKmFastShips(String dateOfCheck, String hourCheck,String dateOfCheck2, String hourCheck2, int numberOfResults, HashMap<Ship,List<ShipDynamicFields>> shipMap)
+ compare(ShipDistance p1, ShipDistance p2)
}

GetTopNShipsByMostKmFastShipsUI ..> ShipDistanceController
ShipDistanceController -> ShipDistance :> uses
@enduml

@startuml

class GetTopNShipsByMostKmFastShipsUI {
}

class ShipDistanceController {
+ shipsOrderByMostKmFastShips (String dateOfCheck, String hourCheck,String dateOfCheck2, String hourCheck2, int numberOfResults, HashMap<Ship,List<ShipDynamicFields>> shipMap)
}

class ShipDistance {
+ mostKmFastShips(String dateOfCheck, String hourCheck,String dateOfCheck2, String hourCheck2, int numberOfResults, HashMap<Ship,List<ShipDynamicFields>> shipMap)
+ compare(ShipDistance p1, ShipDistance p2)
}

GetTopNShipsByMostKmFastShipsUI ..> ShipDistanceController
ShipDistanceController -> ShipDistance :> uses
@enduml

PlantUML version 1.2021.7(Sun May 23 13:40:07 BST 2021)
(GPL source distribution)
Java Runtime: OpenJDK Runtime Environment
JVM: OpenJDK 64-Bit Server VM
Default Encoding: Cp1252
Language: pt
Country: PT
--></g></svg>