<?xml version="1.0" encoding="UTF-8" standalone="no"?><svg xmlns="http://www.w3.org/2000/svg" xmlns:xlink="http://www.w3.org/1999/xlink" contentScriptType="application/ecmascript" contentStyleType="text/css" height="258.75px" preserveAspectRatio="none" style="width:893px;height:258px;background:#FFFFFF;" version="1.1" viewBox="0 0 893 258" width="893.75px" zoomAndPan="magnify"><defs><filter height="300%" id="fm69ge7966s2q" width="300%" x="-1" y="-1"><feGaussianBlur result="blurOut" stdDeviation="2.5"/><feColorMatrix in="blurOut" result="blurOut2" type="matrix" values="0 0 0 0 0 0 0 0 0 0 0 0 0 0 0 0 0 0 .4 0"/><feOffset dx="5.0" dy="5.0" in="blurOut2" result="blurOut3"/><feBlend in="SourceGraphic" in2="blurOut3" mode="normal"/></filter></defs><g><!--MD5=[99d8f1361a72f685c413d1fd21efef1c]
class PortManager--><rect codeLine="2" fill="#FEFECE" filter="url(#fm69ge7966s2q)" height="60" id="PortManager" style="stroke:#A80036;stroke-width:1.875;" width="127.5" x="8.75" y="95"/><ellipse cx="27.5" cy="115" fill="#ADD1B2" rx="13.75" ry="13.75" style="stroke:#A80036;stroke-width:1.25;"/><path d="M30,110.625 Q30.2539,110 30.5469,109.6875 Q30.8398,109.375 31.1719,109.375 Q31.7578,109.375 32.1289,109.7266 Q32.5,110.0781 32.5,110.8984 L32.5,112.8516 Q32.5,113.6719 32.1484,114.0234 Q31.7969,114.375 31.25,114.375 Q30.7617,114.375 30.4492,114.1602 Q30.1367,113.9453 30,113.3789 Q29.9414,112.9883 29.7266,112.7734 Q29.3359,112.3633 28.6328,112.1289 Q27.9297,111.875 27.2266,111.875 Q26.3477,111.875 25.6055,112.2266 Q24.8828,112.5781 24.3164,113.3594 Q23.75,114.1406 23.75,115.2148 L23.75,116.3672 Q23.75,117.6563 24.8047,118.5156 Q25.8594,119.375 27.7344,119.375 Q28.8477,119.375 29.6289,119.1211 Q30.0781,118.9844 30.5859,118.5352 Q30.918,118.2813 31.0938,118.2031 Q31.2695,118.125 31.4844,118.125 Q31.8945,118.125 32.1875,118.457 Q32.5,118.7695 32.5,119.2188 Q32.5,119.6484 32.0703,120.1563 Q31.4453,120.8984 30.4492,121.3086 Q29.1406,121.875 27.5391,121.875 Q25.6641,121.875 24.1602,121.1328 Q22.9492,120.5469 22.0898,119.2773 Q21.25,118.0078 21.25,116.5039 L21.25,115.1367 Q21.25,113.5742 21.9922,112.207 Q22.7539,110.8398 24.0625,110.1172 Q25.3906,109.375 26.875,109.375 Q27.7734,109.375 28.5547,109.6875 Q29.3359,110 30,110.625 Z " fill="#000000"/><text fill="#000000" font-family="sans-serif" font-size="15" lengthAdjust="spacing" textLength="87.5" x="45" y="121.1377">PortManager</text><line style="stroke:#A80036;stroke-width:1.875;" x1="10" x2="135" y1="135" y2="135"/><line style="stroke:#A80036;stroke-width:1.875;" x1="10" x2="135" y1="145" y2="145"/><!--MD5=[a0bfe97ac0a38e6e74cc1c7c7b744b71]
class Port--><rect codeLine="5" fill="#FEFECE" filter="url(#fm69ge7966s2q)" height="163.7695" id="Port" style="stroke:#A80036;stroke-width:1.875;" width="87.5" x="265" y="43.125"/><ellipse cx="292.75" cy="63.125" fill="#ADD1B2" rx="13.75" ry="13.75" style="stroke:#A80036;stroke-width:1.25;"/><path d="M295.25,58.75 Q295.5039,58.125 295.7969,57.8125 Q296.0898,57.5 296.4219,57.5 Q297.0078,57.5 297.3789,57.8516 Q297.75,58.2031 297.75,59.0234 L297.75,60.9766 Q297.75,61.7969 297.3984,62.1484 Q297.0469,62.5 296.5,62.5 Q296.0117,62.5 295.6992,62.2852 Q295.3867,62.0703 295.25,61.5039 Q295.1914,61.1133 294.9766,60.8984 Q294.5859,60.4883 293.8828,60.2539 Q293.1797,60 292.4766,60 Q291.5977,60 290.8555,60.3516 Q290.1328,60.7031 289.5664,61.4844 Q289,62.2656 289,63.3398 L289,64.4922 Q289,65.7813 290.0547,66.6406 Q291.1094,67.5 292.9844,67.5 Q294.0977,67.5 294.8789,67.2461 Q295.3281,67.1094 295.8359,66.6602 Q296.168,66.4063 296.3438,66.3281 Q296.5195,66.25 296.7344,66.25 Q297.1445,66.25 297.4375,66.582 Q297.75,66.8945 297.75,67.3438 Q297.75,67.7734 297.3203,68.2813 Q296.6953,69.0234 295.6992,69.4336 Q294.3906,70 292.7891,70 Q290.9141,70 289.4102,69.2578 Q288.1992,68.6719 287.3398,67.4023 Q286.5,66.1328 286.5,64.6289 L286.5,63.2617 Q286.5,61.6992 287.2422,60.332 Q288.0039,58.9648 289.3125,58.2422 Q290.6406,57.5 292.125,57.5 Q293.0234,57.5 293.8047,57.8125 Q294.5859,58.125 295.25,58.75 Z " fill="#000000"/><text fill="#000000" font-family="sans-serif" font-size="15" lengthAdjust="spacing" textLength="27.5" x="312.25" y="69.2627">Port</text><line style="stroke:#A80036;stroke-width:1.875;" x1="266.25" x2="351.25" y1="83.125" y2="83.125"/><rect fill="none" height="7.5" style="stroke:#C82930;stroke-width:1.25;" width="7.5" x="275" y="93.125"/><text fill="#000000" font-family="sans-serif" font-size="13.75" lengthAdjust="spacing" textLength="30" x="290" y="102.3987">code</text><rect fill="none" height="7.5" style="stroke:#C82930;stroke-width:1.25;" width="7.5" x="275" y="110.4199"/><text fill="#000000" font-family="sans-serif" font-size="13.75" lengthAdjust="spacing" textLength="23.75" x="290" y="119.6936">port</text><rect fill="none" height="7.5" style="stroke:#C82930;stroke-width:1.25;" width="7.5" x="275" y="127.7148"/><text fill="#000000" font-family="sans-serif" font-size="13.75" lengthAdjust="spacing" textLength="55" x="290" y="136.9885">continent</text><rect fill="none" height="7.5" style="stroke:#C82930;stroke-width:1.25;" width="7.5" x="275" y="145.0098"/><text fill="#000000" font-family="sans-serif" font-size="13.75" lengthAdjust="spacing" textLength="46.25" x="290" y="154.2834">country</text><rect fill="none" height="7.5" style="stroke:#C82930;stroke-width:1.25;" width="7.5" x="275" y="162.3047"/><text fill="#000000" font-family="sans-serif" font-size="13.75" lengthAdjust="spacing" textLength="13.75" x="290" y="171.5784">lat</text><rect fill="none" height="7.5" style="stroke:#C82930;stroke-width:1.25;" width="7.5" x="275" y="179.5996"/><text fill="#000000" font-family="sans-serif" font-size="13.75" lengthAdjust="spacing" textLength="25" x="290" y="188.8733">long</text><line style="stroke:#A80036;stroke-width:1.875;" x1="266.25" x2="351.25" y1="196.8945" y2="196.8945"/><!--MD5=[76562047389981627aea27c31a97aff5]
class CargoManifest--><rect codeLine="15" fill="#FEFECE" filter="url(#fm69ge7966s2q)" height="111.8848" id="CargoManifest" style="stroke:#A80036;stroke-width:1.875;" width="167.5" x="473.75" y="68.75"/><ellipse cx="504.875" cy="88.75" fill="#ADD1B2" rx="13.75" ry="13.75" style="stroke:#A80036;stroke-width:1.25;"/><path d="M507.375,84.375 Q507.6289,83.75 507.9219,83.4375 Q508.2148,83.125 508.5469,83.125 Q509.1328,83.125 509.5039,83.4766 Q509.875,83.8281 509.875,84.6484 L509.875,86.6016 Q509.875,87.4219 509.5234,87.7734 Q509.1719,88.125 508.625,88.125 Q508.1367,88.125 507.8242,87.9102 Q507.5117,87.6953 507.375,87.1289 Q507.3164,86.7383 507.1016,86.5234 Q506.7109,86.1133 506.0078,85.8789 Q505.3047,85.625 504.6016,85.625 Q503.7227,85.625 502.9805,85.9766 Q502.2578,86.3281 501.6914,87.1094 Q501.125,87.8906 501.125,88.9648 L501.125,90.1172 Q501.125,91.4063 502.1797,92.2656 Q503.2344,93.125 505.1094,93.125 Q506.2227,93.125 507.0039,92.8711 Q507.4531,92.7344 507.9609,92.2852 Q508.293,92.0313 508.4688,91.9531 Q508.6445,91.875 508.8594,91.875 Q509.2695,91.875 509.5625,92.207 Q509.875,92.5195 509.875,92.9688 Q509.875,93.3984 509.4453,93.9063 Q508.8203,94.6484 507.8242,95.0586 Q506.5156,95.625 504.9141,95.625 Q503.0391,95.625 501.5352,94.8828 Q500.3242,94.2969 499.4648,93.0273 Q498.625,91.7578 498.625,90.2539 L498.625,88.8867 Q498.625,87.3242 499.3672,85.957 Q500.1289,84.5898 501.4375,83.8672 Q502.7656,83.125 504.25,83.125 Q505.1484,83.125 505.9297,83.4375 Q506.7109,83.75 507.375,84.375 Z " fill="#000000"/><text fill="#000000" font-family="sans-serif" font-size="15" lengthAdjust="spacing" textLength="100" x="525.125" y="94.8877">CargoManifest</text><line style="stroke:#A80036;stroke-width:1.875;" x1="475" x2="640" y1="108.75" y2="108.75"/><rect fill="none" height="7.5" style="stroke:#C82930;stroke-width:1.25;" width="7.5" x="483.75" y="118.75"/><text fill="#000000" font-family="sans-serif" font-size="13.75" lengthAdjust="spacing" textLength="66.25" x="498.75" y="128.0237">containerId</text><rect fill="none" height="7.5" style="stroke:#C82930;stroke-width:1.25;" width="7.5" x="483.75" y="136.0449"/><text fill="#000000" font-family="sans-serif" font-size="13.75" lengthAdjust="spacing" textLength="78.75" x="498.75" y="145.3186">containerPos</text><rect fill="none" height="7.5" style="stroke:#C82930;stroke-width:1.25;" width="7.5" x="483.75" y="153.3398"/><text fill="#000000" font-family="sans-serif" font-size="13.75" lengthAdjust="spacing" textLength="135" x="498.75" y="162.6135">containerGrossWeight</text><line style="stroke:#A80036;stroke-width:1.875;" x1="475" x2="640" y1="170.6348" y2="170.6348"/><!--MD5=[a3093aa9f96b7df9aab31d8715601ff6]
class Containers--><rect codeLine="21" fill="#FEFECE" filter="url(#fm69ge7966s2q)" height="232.9492" id="Containers" style="stroke:#A80036;stroke-width:1.875;" width="116.25" x="760.625" y="8.75"/><ellipse cx="779.375" cy="28.75" fill="#ADD1B2" rx="13.75" ry="13.75" style="stroke:#A80036;stroke-width:1.25;"/><path d="M781.875,24.375 Q782.1289,23.75 782.4219,23.4375 Q782.7148,23.125 783.0469,23.125 Q783.6328,23.125 784.0039,23.4766 Q784.375,23.8281 784.375,24.6484 L784.375,26.6016 Q784.375,27.4219 784.0234,27.7734 Q783.6719,28.125 783.125,28.125 Q782.6367,28.125 782.3242,27.9102 Q782.0117,27.6953 781.875,27.1289 Q781.8164,26.7383 781.6016,26.5234 Q781.2109,26.1133 780.5078,25.8789 Q779.8047,25.625 779.1016,25.625 Q778.2227,25.625 777.4805,25.9766 Q776.7578,26.3281 776.1914,27.1094 Q775.625,27.8906 775.625,28.9648 L775.625,30.1172 Q775.625,31.4063 776.6797,32.2656 Q777.7344,33.125 779.6094,33.125 Q780.7227,33.125 781.5039,32.8711 Q781.9531,32.7344 782.4609,32.2852 Q782.793,32.0313 782.9688,31.9531 Q783.1445,31.875 783.3594,31.875 Q783.7695,31.875 784.0625,32.207 Q784.375,32.5195 784.375,32.9688 Q784.375,33.3984 783.9453,33.9063 Q783.3203,34.6484 782.3242,35.0586 Q781.0156,35.625 779.4141,35.625 Q777.5391,35.625 776.0352,34.8828 Q774.8242,34.2969 773.9648,33.0273 Q773.125,31.7578 773.125,30.2539 L773.125,28.8867 Q773.125,27.3242 773.8672,25.957 Q774.6289,24.5898 775.9375,23.8672 Q777.2656,23.125 778.75,23.125 Q779.6484,23.125 780.4297,23.4375 Q781.2109,23.75 781.875,24.375 Z " fill="#000000"/><text fill="#000000" font-family="sans-serif" font-size="15" lengthAdjust="spacing" textLength="76.25" x="796.875" y="34.8877">Containers</text><line style="stroke:#A80036;stroke-width:1.875;" x1="761.875" x2="875.625" y1="48.75" y2="48.75"/><rect fill="none" height="7.5" style="stroke:#C82930;stroke-width:1.25;" width="7.5" x="770.625" y="58.75"/><text fill="#000000" font-family="sans-serif" font-size="13.75" lengthAdjust="spacing" textLength="75" x="785.625" y="68.0237">identification</text><rect fill="none" height="7.5" style="stroke:#C82930;stroke-width:1.25;" width="7.5" x="770.625" y="76.0449"/><text fill="#000000" font-family="sans-serif" font-size="13.75" lengthAdjust="spacing" textLength="47.5" x="785.625" y="85.3186">payload</text><rect fill="none" height="7.5" style="stroke:#C82930;stroke-width:1.25;" width="7.5" x="770.625" y="93.3398"/><text fill="#000000" font-family="sans-serif" font-size="13.75" lengthAdjust="spacing" textLength="23.75" x="785.625" y="102.6135">tare</text><rect fill="none" height="7.5" style="stroke:#C82930;stroke-width:1.25;" width="7.5" x="770.625" y="110.6348"/><text fill="#000000" font-family="sans-serif" font-size="13.75" lengthAdjust="spacing" textLength="35" x="785.625" y="119.9084">gross</text><rect fill="none" height="7.5" style="stroke:#C82930;stroke-width:1.25;" width="7.5" x="770.625" y="127.9297"/><text fill="#000000" font-family="sans-serif" font-size="13.75" lengthAdjust="spacing" textLength="48.75" x="785.625" y="137.2034">isoCode</text><rect fill="none" height="7.5" style="stroke:#C82930;stroke-width:1.25;" width="7.5" x="770.625" y="145.2246"/><text fill="#000000" font-family="sans-serif" font-size="13.75" lengthAdjust="spacing" textLength="36.25" x="785.625" y="154.4983">lenght</text><rect fill="none" height="7.5" style="stroke:#C82930;stroke-width:1.25;" width="7.5" x="770.625" y="162.5195"/><text fill="#000000" font-family="sans-serif" font-size="13.75" lengthAdjust="spacing" textLength="33.75" x="785.625" y="171.7932">width</text><rect fill="none" height="7.5" style="stroke:#C82930;stroke-width:1.25;" width="7.5" x="770.625" y="179.8145"/><text fill="#000000" font-family="sans-serif" font-size="13.75" lengthAdjust="spacing" textLength="36.25" x="785.625" y="189.0881">height</text><rect fill="none" height="7.5" style="stroke:#C82930;stroke-width:1.25;" width="7.5" x="770.625" y="197.1094"/><text fill="#000000" font-family="sans-serif" font-size="13.75" lengthAdjust="spacing" textLength="72.5" x="785.625" y="206.3831">temperature</text><rect fill="none" height="7.5" style="stroke:#C82930;stroke-width:1.25;" width="7.5" x="770.625" y="214.4043"/><text fill="#000000" font-family="sans-serif" font-size="13.75" lengthAdjust="spacing" textLength="71.25" x="785.625" y="223.678">coordinates</text><line style="stroke:#A80036;stroke-width:1.875;" x1="761.875" x2="875.625" y1="231.6992" y2="231.6992"/><!--MD5=[9eb8cece74e91f217f5849e8308bf70d]
link PortManager to Port--><path codeLine="34" d="M136.4375,125 C177.15,125 228.85,125 264.95,125 " fill="none" id="PortManager-Port" style="stroke:#A80036;stroke-width:1.25;"/><polygon fill="#000000" points="170.625,110.2197,159.3186,106.5461,159.3186,113.8934,170.625,110.2197" style="stroke:#000000;stroke-width:1.25;"/><text fill="#000000" font-family="sans-serif" font-size="16.25" lengthAdjust="spacing" textLength="66.25" x="175.625" y="116.8689">manages</text><text fill="#000000" font-family="sans-serif" font-size="16.25" lengthAdjust="spacing" textLength="8.75" x="146.0439" y="120.4935">1</text><text fill="#000000" font-family="sans-serif" font-size="16.25" lengthAdjust="spacing" textLength="25" x="229.9216" y="143.6875">1..*</text><!--MD5=[fd8b74c1f3dd7303e4ad16f6f5ecfde7]
link Port to CargoManifest--><path codeLine="35" d="M352.65,125 C385.9875,125 432.8375,125 473.3125,125 " fill="none" id="Port-CargoManifest" style="stroke:#A80036;stroke-width:1.25;"/><polygon fill="#000000" points="386.875,110.2197,375.5686,106.5461,375.5686,113.8934,386.875,110.2197" style="stroke:#000000;stroke-width:1.25;"/><text fill="#000000" font-family="sans-serif" font-size="16.25" lengthAdjust="spacing" textLength="58.75" x="391.875" y="116.8689">receives</text><text fill="#000000" font-family="sans-serif" font-size="16.25" lengthAdjust="spacing" textLength="8.75" x="362.6067" y="119.8497">1</text><text fill="#000000" font-family="sans-serif" font-size="16.25" lengthAdjust="spacing" textLength="25" x="438.7948" y="142.9052">1..*</text><!--MD5=[9f5a09a616509cd3e7b114149642c3c0]
link CargoManifest to Containers--><path codeLine="36" d="M641.6,125 C680.3875,125 725.4625,125 760.4375,125 " fill="none" id="CargoManifest-Containers" style="stroke:#A80036;stroke-width:1.25;"/><polygon fill="#000000" points="675.3125,110.2197,664.0061,106.5461,664.0061,113.8934,675.3125,110.2197" style="stroke:#000000;stroke-width:1.25;"/><text fill="#000000" font-family="sans-serif" font-size="16.25" lengthAdjust="spacing" textLength="57.5" x="680.3125" y="116.8689">controls</text><text fill="#000000" font-family="sans-serif" font-size="16.25" lengthAdjust="spacing" textLength="8.75" x="651.277" y="120.8328">1</text><text fill="#000000" font-family="sans-serif" font-size="16.25" lengthAdjust="spacing" textLength="25" x="725.4795" y="143.2745">1..*</text><!--MD5=[fcb341ecf7e59e2badb4e1e0c171f762]
@startuml

class PortManager {
}

class Port {
 - code
 - port
 - continent
 - country
 - lat
 - long

}

class CargoManifest {
- containerId
- containerPos
- containerGrossWeight
}

class Containers {
- identification
- payload
- tare
- gross
- isoCode
- lenght
- width
- height
- temperature
- coordinates
}

PortManager "1" -right- "1..*"Port : > manages
Port"1" -right- "1..*"CargoManifest : > receives
CargoManifest "1" -right- "1..*"Containers : > controls




@enduml

PlantUML version 1.2021.7(Sun May 23 13:40:07 BST 2021)
(GPL source distribution)
Java Runtime: OpenJDK Runtime Environment
JVM: OpenJDK 64-Bit Server VM
Default Encoding: Cp1252
Language: pt
Country: PT
--></g></svg>