<?xml version="1.0" encoding="UTF-8" standalone="no"?><svg xmlns="http://www.w3.org/2000/svg" xmlns:xlink="http://www.w3.org/1999/xlink" contentScriptType="application/ecmascript" contentStyleType="text/css" height="623.75px" preserveAspectRatio="none" style="width:720px;height:623px;background:#FFFFFF;" version="1.1" viewBox="0 0 720 623" width="720px" zoomAndPan="magnify"><defs><filter height="300%" id="fhumoid2ievbi" width="300%" x="-1" y="-1"><feGaussianBlur result="blurOut" stdDeviation="2.5"/><feColorMatrix in="blurOut" result="blurOut2" type="matrix" values="0 0 0 0 0 0 0 0 0 0 0 0 0 0 0 0 0 0 .4 0"/><feOffset dx="5.0" dy="5.0" in="blurOut2" result="blurOut3"/><feBlend in="SourceGraphic" in2="blurOut3" mode="normal"/></filter></defs><g><!--MD5=[97bce4bfbfec19f12d82207de57a2835]
class WareHouseUI--><rect codeLine="3" fill="#FEFECE" filter="url(#fhumoid2ievbi)" height="60" id="WareHouseUI" style="stroke:#A80036;stroke-width:1.875;" width="137.5" x="141.875" y="8.75"/><ellipse cx="160.625" cy="28.75" fill="#ADD1B2" rx="13.75" ry="13.75" style="stroke:#A80036;stroke-width:1.25;"/><path d="M163.125,24.375 Q163.3789,23.75 163.6719,23.4375 Q163.9648,23.125 164.2969,23.125 Q164.8828,23.125 165.2539,23.4766 Q165.625,23.8281 165.625,24.6484 L165.625,26.6016 Q165.625,27.4219 165.2734,27.7734 Q164.9219,28.125 164.375,28.125 Q163.8867,28.125 163.5742,27.9102 Q163.2617,27.6953 163.125,27.1289 Q163.0664,26.7383 162.8516,26.5234 Q162.4609,26.1133 161.7578,25.8789 Q161.0547,25.625 160.3516,25.625 Q159.4727,25.625 158.7305,25.9766 Q158.0078,26.3281 157.4414,27.1094 Q156.875,27.8906 156.875,28.9648 L156.875,30.1172 Q156.875,31.4063 157.9297,32.2656 Q158.9844,33.125 160.8594,33.125 Q161.9727,33.125 162.7539,32.8711 Q163.2031,32.7344 163.7109,32.2852 Q164.043,32.0313 164.2188,31.9531 Q164.3945,31.875 164.6094,31.875 Q165.0195,31.875 165.3125,32.207 Q165.625,32.5195 165.625,32.9688 Q165.625,33.3984 165.1953,33.9063 Q164.5703,34.6484 163.5742,35.0586 Q162.2656,35.625 160.6641,35.625 Q158.7891,35.625 157.2852,34.8828 Q156.0742,34.2969 155.2148,33.0273 Q154.375,31.7578 154.375,30.2539 L154.375,28.8867 Q154.375,27.3242 155.1172,25.957 Q155.8789,24.5898 157.1875,23.8672 Q158.5156,23.125 160,23.125 Q160.8984,23.125 161.6797,23.4375 Q162.4609,23.75 163.125,24.375 Z " fill="#000000"/><text fill="#000000" font-family="sans-serif" font-size="15" lengthAdjust="spacing" textLength="97.5" x="178.125" y="34.8877">WareHouseUI</text><line style="stroke:#A80036;stroke-width:1.875;" x1="143.125" x2="278.125" y1="48.75" y2="48.75"/><line style="stroke:#A80036;stroke-width:1.875;" x1="143.125" x2="278.125" y1="58.75" y2="58.75"/><!--MD5=[ff819031fef7535416fa9fe4c21efb3a]
class WareHouseController--><rect codeLine="6" fill="#FEFECE" filter="url(#fhumoid2ievbi)" height="94.5898" id="WareHouseController" style="stroke:#A80036;stroke-width:1.875;" width="190" x="115.625" y="145"/><ellipse cx="134.375" cy="165" fill="#ADD1B2" rx="13.75" ry="13.75" style="stroke:#A80036;stroke-width:1.25;"/><path d="M136.875,160.625 Q137.1289,160 137.4219,159.6875 Q137.7148,159.375 138.0469,159.375 Q138.6328,159.375 139.0039,159.7266 Q139.375,160.0781 139.375,160.8984 L139.375,162.8516 Q139.375,163.6719 139.0234,164.0234 Q138.6719,164.375 138.125,164.375 Q137.6367,164.375 137.3242,164.1602 Q137.0117,163.9453 136.875,163.3789 Q136.8164,162.9883 136.6016,162.7734 Q136.2109,162.3633 135.5078,162.1289 Q134.8047,161.875 134.1016,161.875 Q133.2227,161.875 132.4805,162.2266 Q131.7578,162.5781 131.1914,163.3594 Q130.625,164.1406 130.625,165.2148 L130.625,166.3672 Q130.625,167.6563 131.6797,168.5156 Q132.7344,169.375 134.6094,169.375 Q135.7227,169.375 136.5039,169.1211 Q136.9531,168.9844 137.4609,168.5352 Q137.793,168.2813 137.9688,168.2031 Q138.1445,168.125 138.3594,168.125 Q138.7695,168.125 139.0625,168.457 Q139.375,168.7695 139.375,169.2188 Q139.375,169.6484 138.9453,170.1563 Q138.3203,170.8984 137.3242,171.3086 Q136.0156,171.875 134.4141,171.875 Q132.5391,171.875 131.0352,171.1328 Q129.8242,170.5469 128.9648,169.2773 Q128.125,168.0078 128.125,166.5039 L128.125,165.1367 Q128.125,163.5742 128.8672,162.207 Q129.6289,160.8398 130.9375,160.1172 Q132.2656,159.375 133.75,159.375 Q134.6484,159.375 135.4297,159.6875 Q136.2109,160 136.875,160.625 Z " fill="#000000"/><text fill="#000000" font-family="sans-serif" font-size="15" lengthAdjust="spacing" textLength="150" x="151.875" y="171.1377">WareHouseController</text><line style="stroke:#A80036;stroke-width:1.875;" x1="116.875" x2="304.375" y1="185" y2="185"/><line style="stroke:#A80036;stroke-width:1.875;" x1="116.875" x2="304.375" y1="195" y2="195"/><text fill="#000000" font-family="sans-serif" font-size="13.75" lengthAdjust="spacing" textLength="168.75" x="123.125" y="214.2737">+getWareHouseAvailabilty()</text><text fill="#000000" font-family="sans-serif" font-size="13.75" lengthAdjust="spacing" textLength="167.5" x="123.125" y="231.5686">+getWareHouseEstimation()</text><!--MD5=[0b8a0869bb17c5d05015d74abb8e1141]
class ConnectionFactory--><rect codeLine="11" fill="#FEFECE" filter="url(#fhumoid2ievbi)" height="94.5898" id="ConnectionFactory" style="stroke:#A80036;stroke-width:1.875;" width="176.25" x="8.75" y="337.5"/><ellipse cx="31.4375" cy="357.5" fill="#ADD1B2" rx="13.75" ry="13.75" style="stroke:#A80036;stroke-width:1.25;"/><path d="M33.9375,353.125 Q34.1914,352.5 34.4844,352.1875 Q34.7773,351.875 35.1094,351.875 Q35.6953,351.875 36.0664,352.2266 Q36.4375,352.5781 36.4375,353.3984 L36.4375,355.3516 Q36.4375,356.1719 36.0859,356.5234 Q35.7344,356.875 35.1875,356.875 Q34.6992,356.875 34.3867,356.6602 Q34.0742,356.4453 33.9375,355.8789 Q33.8789,355.4883 33.6641,355.2734 Q33.2734,354.8633 32.5703,354.6289 Q31.8672,354.375 31.1641,354.375 Q30.2852,354.375 29.543,354.7266 Q28.8203,355.0781 28.2539,355.8594 Q27.6875,356.6406 27.6875,357.7148 L27.6875,358.8672 Q27.6875,360.1563 28.7422,361.0156 Q29.7969,361.875 31.6719,361.875 Q32.7852,361.875 33.5664,361.6211 Q34.0156,361.4844 34.5234,361.0352 Q34.8555,360.7813 35.0313,360.7031 Q35.207,360.625 35.4219,360.625 Q35.832,360.625 36.125,360.957 Q36.4375,361.2695 36.4375,361.7188 Q36.4375,362.1484 36.0078,362.6563 Q35.3828,363.3984 34.3867,363.8086 Q33.0781,364.375 31.4766,364.375 Q29.6016,364.375 28.0977,363.6328 Q26.8867,363.0469 26.0273,361.7773 Q25.1875,360.5078 25.1875,359.0039 L25.1875,357.6367 Q25.1875,356.0742 25.9297,354.707 Q26.6914,353.3398 28,352.6172 Q29.3281,351.875 30.8125,351.875 Q31.7109,351.875 32.4922,352.1875 Q33.2734,352.5 33.9375,353.125 Z " fill="#000000"/><text fill="#000000" font-family="sans-serif" font-size="15" lengthAdjust="spacing" textLength="127.5" x="49.8125" y="363.6377">ConnectionFactory</text><line style="stroke:#A80036;stroke-width:1.875;" x1="10" x2="183.75" y1="377.5" y2="377.5"/><line style="stroke:#A80036;stroke-width:1.875;" x1="10" x2="183.75" y1="387.5" y2="387.5"/><text fill="#000000" font-family="sans-serif" font-size="13.75" lengthAdjust="spacing" textLength="87.5" x="16.25" y="406.7737">+getInstance()</text><text fill="#000000" font-family="sans-serif" font-size="13.75" lengthAdjust="spacing" textLength="161.25" x="16.25" y="424.0686">+getDatabaseConnection()</text><!--MD5=[4ebfed50a2843d6810d5f28a3ed1348c]
class CargoManifestStore--><rect codeLine="16" fill="#FEFECE" filter="url(#fhumoid2ievbi)" height="94.5898" id="CargoManifestStore" style="stroke:#A80036;stroke-width:1.875;" width="473.75" x="228.75" y="337.5"/><ellipse cx="392.1875" cy="357.5" fill="#ADD1B2" rx="13.75" ry="13.75" style="stroke:#A80036;stroke-width:1.25;"/><path d="M394.6875,353.125 Q394.9414,352.5 395.2344,352.1875 Q395.5273,351.875 395.8594,351.875 Q396.4453,351.875 396.8164,352.2266 Q397.1875,352.5781 397.1875,353.3984 L397.1875,355.3516 Q397.1875,356.1719 396.8359,356.5234 Q396.4844,356.875 395.9375,356.875 Q395.4492,356.875 395.1367,356.6602 Q394.8242,356.4453 394.6875,355.8789 Q394.6289,355.4883 394.4141,355.2734 Q394.0234,354.8633 393.3203,354.6289 Q392.6172,354.375 391.9141,354.375 Q391.0352,354.375 390.293,354.7266 Q389.5703,355.0781 389.0039,355.8594 Q388.4375,356.6406 388.4375,357.7148 L388.4375,358.8672 Q388.4375,360.1563 389.4922,361.0156 Q390.5469,361.875 392.4219,361.875 Q393.5352,361.875 394.3164,361.6211 Q394.7656,361.4844 395.2734,361.0352 Q395.6055,360.7813 395.7813,360.7031 Q395.957,360.625 396.1719,360.625 Q396.582,360.625 396.875,360.957 Q397.1875,361.2695 397.1875,361.7188 Q397.1875,362.1484 396.7578,362.6563 Q396.1328,363.3984 395.1367,363.8086 Q393.8281,364.375 392.2266,364.375 Q390.3516,364.375 388.8477,363.6328 Q387.6367,363.0469 386.7773,361.7773 Q385.9375,360.5078 385.9375,359.0039 L385.9375,357.6367 Q385.9375,356.0742 386.6797,354.707 Q387.4414,353.3398 388.75,352.6172 Q390.0781,351.875 391.5625,351.875 Q392.4609,351.875 393.2422,352.1875 Q394.0234,352.5 394.6875,353.125 Z " fill="#000000"/><text fill="#000000" font-family="sans-serif" font-size="15" lengthAdjust="spacing" textLength="136.25" x="417.8125" y="363.6377">CargoManifestStore</text><line style="stroke:#A80036;stroke-width:1.875;" x1="230" x2="701.25" y1="377.5" y2="377.5"/><line style="stroke:#A80036;stroke-width:1.875;" x1="230" x2="701.25" y1="387.5" y2="387.5"/><text fill="#000000" font-family="sans-serif" font-size="13.75" lengthAdjust="spacing" textLength="458.75" x="236.25" y="406.7737">+wareHouseOccupancyByDate (DatabaseConnection databaseConnection)</text><text fill="#000000" font-family="sans-serif" font-size="13.75" lengthAdjust="spacing" textLength="401.25" x="236.25" y="424.0686">+wareHouseEstimation(DatabaseConnection databaseConnection)</text><!--MD5=[8aa441cdd93a4e2944eff58bc06cd78a]
class DatabaseConnection--><rect codeLine="21" fill="#FEFECE" filter="url(#fhumoid2ievbi)" height="77.2949" id="DatabaseConnection" style="stroke:#A80036;stroke-width:1.875;" width="186.25" x="372.5" y="530"/><ellipse cx="391.25" cy="550" fill="#ADD1B2" rx="13.75" ry="13.75" style="stroke:#A80036;stroke-width:1.25;"/><path d="M393.75,545.625 Q394.0039,545 394.2969,544.6875 Q394.5898,544.375 394.9219,544.375 Q395.5078,544.375 395.8789,544.7266 Q396.25,545.0781 396.25,545.8984 L396.25,547.8516 Q396.25,548.6719 395.8984,549.0234 Q395.5469,549.375 395,549.375 Q394.5117,549.375 394.1992,549.1602 Q393.8867,548.9453 393.75,548.3789 Q393.6914,547.9883 393.4766,547.7734 Q393.0859,547.3633 392.3828,547.1289 Q391.6797,546.875 390.9766,546.875 Q390.0977,546.875 389.3555,547.2266 Q388.6328,547.5781 388.0664,548.3594 Q387.5,549.1406 387.5,550.2148 L387.5,551.3672 Q387.5,552.6563 388.5547,553.5156 Q389.6094,554.375 391.4844,554.375 Q392.5977,554.375 393.3789,554.1211 Q393.8281,553.9844 394.3359,553.5352 Q394.668,553.2813 394.8438,553.2031 Q395.0195,553.125 395.2344,553.125 Q395.6445,553.125 395.9375,553.457 Q396.25,553.7695 396.25,554.2188 Q396.25,554.6484 395.8203,555.1563 Q395.1953,555.8984 394.1992,556.3086 Q392.8906,556.875 391.2891,556.875 Q389.4141,556.875 387.9102,556.1328 Q386.6992,555.5469 385.8398,554.2773 Q385,553.0078 385,551.5039 L385,550.1367 Q385,548.5742 385.7422,547.207 Q386.5039,545.8398 387.8125,545.1172 Q389.1406,544.375 390.625,544.375 Q391.5234,544.375 392.3047,544.6875 Q393.0859,545 393.75,545.625 Z " fill="#000000"/><text fill="#000000" font-family="sans-serif" font-size="15" lengthAdjust="spacing" textLength="146.25" x="408.75" y="556.1377">DatabaseConnection</text><line style="stroke:#A80036;stroke-width:1.875;" x1="373.75" x2="557.5" y1="570" y2="570"/><line style="stroke:#A80036;stroke-width:1.875;" x1="373.75" x2="557.5" y1="580" y2="580"/><text fill="#000000" font-family="sans-serif" font-size="13.75" lengthAdjust="spacing" textLength="103.75" x="380" y="599.2737">+getConnection()</text><!--MD5=[08db2ceb8dd68bc0c2a1c1898a318e9d]
link WareHouseUI to WareHouseController--><path codeLine="25" d="M210.625,68.8 C210.625,88.3875 210.625,114.8875 210.625,138.225 " fill="none" id="WareHouseUI-to-WareHouseController" style="stroke:#A80036;stroke-width:1.25;stroke-dasharray:7.0,7.0;"/><polygon fill="#A80036" points="210.625,144.7125,215.625,133.4625,210.625,138.4625,205.625,133.4625,210.625,144.7125" style="stroke:#A80036;stroke-width:1.25;"/><!--MD5=[e4341816d8bebe575d23d31b5a417abb]
link WareHouseController to ConnectionFactory--><path codeLine="26" d="M182.8,240.225 C166.2125,267.9375 145.1125,303.1625 127.9875,331.7875 " fill="none" id="WareHouseController-to-ConnectionFactory" style="stroke:#A80036;stroke-width:1.25;"/><polygon fill="#A80036" points="124.6125,337.425,134.688,330.3507,127.8281,332.0657,126.1131,325.2057,124.6125,337.425" style="stroke:#A80036;stroke-width:1.25;"/><text fill="#000000" font-family="sans-serif" font-size="16.25" lengthAdjust="spacing" textLength="35" x="158.125" y="295.6189">uses</text><text fill="#000000" font-family="sans-serif" font-size="16.25" lengthAdjust="spacing" textLength="8.75" x="168.9181" y="266.3615">1</text><text fill="#000000" font-family="sans-serif" font-size="16.25" lengthAdjust="spacing" textLength="25" x="102.4219" y="323.7568">1..*</text><!--MD5=[b6ac15e4a945fc199be0d6302bd0dc5a]
link WareHouseController to CargoManifestStore--><path codeLine="27" d="M273,240.225 C310.9625,268.5125 359.45,304.6375 398.275,333.575 " fill="none" id="WareHouseController-to-CargoManifestStore" style="stroke:#A80036;stroke-width:1.25;"/><polygon fill="#A80036" points="403.45,337.425,397.4254,326.6888,398.4414,333.6865,391.4437,334.7025,403.45,337.425" style="stroke:#A80036;stroke-width:1.25;"/><text fill="#000000" font-family="sans-serif" font-size="16.25" lengthAdjust="spacing" textLength="35" x="346.875" y="295.6189">uses</text><text fill="#000000" font-family="sans-serif" font-size="16.25" lengthAdjust="spacing" textLength="8.75" x="273.4938" y="266.3615">1</text><text fill="#000000" font-family="sans-serif" font-size="16.25" lengthAdjust="spacing" textLength="8.75" x="382.4298" y="323.7568">1</text><!--MD5=[2116ab72117c1937cd431dde115995d9]
link CargoManifestStore to DatabaseConnection--><path codeLine="28" d="M465.625,432.925 C465.625,460.7 465.625,495.7375 465.625,523.1 " fill="none" id="CargoManifestStore-to-DatabaseConnection" style="stroke:#A80036;stroke-width:1.25;"/><polygon fill="#A80036" points="465.625,529.525,470.625,518.275,465.625,523.275,460.625,518.275,465.625,529.525" style="stroke:#A80036;stroke-width:1.25;"/><text fill="#000000" font-family="sans-serif" font-size="16.25" lengthAdjust="spacing" textLength="35" x="466.875" y="488.1189">uses</text><text fill="#000000" font-family="sans-serif" font-size="16.25" lengthAdjust="spacing" textLength="8.75" x="456.1777" y="459.0934">1</text><text fill="#000000" font-family="sans-serif" font-size="16.25" lengthAdjust="spacing" textLength="25" x="438.0469" y="516.3077">1..*</text><!--MD5=[01c0ec288cf6adedc467d23a34d0572e]
@startuml
skinparam classAttributeIconSize 0

class WareHouseUI{
}

class WareHouseController {
+ getWareHouseAvailabilty()
+ getWareHouseEstimation()
}

class ConnectionFactory {
+ getInstance()
+ getDatabaseConnection()
}

class CargoManifestStore {
+ wareHouseOccupancyByDate (DatabaseConnection databaseConnection)
+ wareHouseEstimation(DatabaseConnection databaseConnection)
}

class DatabaseConnection {
+ getConnection()
}

WareHouseController <.up. WareHouseUI
WareHouseController "1" - -> "1..*" ConnectionFactory : uses
WareHouseController "1" - -> "1" CargoManifestStore : uses
CargoManifestStore "1" - -> "1..*" DatabaseConnection : uses



@enduml

PlantUML version 1.2021.7(Sun May 23 13:40:07 BST 2021)
(GPL source distribution)
Java Runtime: OpenJDK Runtime Environment
JVM: OpenJDK 64-Bit Server VM
Default Encoding: Cp1252
Language: pt
Country: PT
--></g></svg>