<?xml version="1.0" encoding="UTF-8" standalone="no"?><svg xmlns="http://www.w3.org/2000/svg" xmlns:xlink="http://www.w3.org/1999/xlink" contentScriptType="application/ecmascript" contentStyleType="text/css" height="692.5px" preserveAspectRatio="none" style="width:1996px;height:692px;background:#FFFFFF;" version="1.1" viewBox="0 0 1996 692" width="1996.25px" zoomAndPan="magnify"><defs><filter height="300%" id="f12fkwhvn0j7ea" width="300%" x="-1" y="-1"><feGaussianBlur result="blurOut" stdDeviation="2.5"/><feColorMatrix in="blurOut" result="blurOut2" type="matrix" values="0 0 0 0 0 0 0 0 0 0 0 0 0 0 0 0 0 0 .4 0"/><feOffset dx="5.0" dy="5.0" in="blurOut2" result="blurOut3"/><feBlend in="SourceGraphic" in2="blurOut3" mode="normal"/></filter></defs><g><!--MD5=[71bbd9a8484934f326c7671f66ba9d0c]
class KnowPortsUI--><rect codeLine="3" fill="#FEFECE" filter="url(#f12fkwhvn0j7ea)" height="60" id="KnowPortsUI" style="stroke:#A80036;stroke-width:1.875;" width="130" x="1506.25" y="8.75"/><ellipse cx="1525" cy="28.75" fill="#ADD1B2" rx="13.75" ry="13.75" style="stroke:#A80036;stroke-width:1.25;"/><path d="M1527.5,24.375 Q1527.7539,23.75 1528.0469,23.4375 Q1528.3398,23.125 1528.6719,23.125 Q1529.2578,23.125 1529.6289,23.4766 Q1530,23.8281 1530,24.6484 L1530,26.6016 Q1530,27.4219 1529.6484,27.7734 Q1529.2969,28.125 1528.75,28.125 Q1528.2617,28.125 1527.9492,27.9102 Q1527.6367,27.6953 1527.5,27.1289 Q1527.4414,26.7383 1527.2266,26.5234 Q1526.8359,26.1133 1526.1328,25.8789 Q1525.4297,25.625 1524.7266,25.625 Q1523.8477,25.625 1523.1055,25.9766 Q1522.3828,26.3281 1521.8164,27.1094 Q1521.25,27.8906 1521.25,28.9648 L1521.25,30.1172 Q1521.25,31.4063 1522.3047,32.2656 Q1523.3594,33.125 1525.2344,33.125 Q1526.3477,33.125 1527.1289,32.8711 Q1527.5781,32.7344 1528.0859,32.2852 Q1528.418,32.0313 1528.5938,31.9531 Q1528.7695,31.875 1528.9844,31.875 Q1529.3945,31.875 1529.6875,32.207 Q1530,32.5195 1530,32.9688 Q1530,33.3984 1529.5703,33.9063 Q1528.9453,34.6484 1527.9492,35.0586 Q1526.6406,35.625 1525.0391,35.625 Q1523.1641,35.625 1521.6602,34.8828 Q1520.4492,34.2969 1519.5898,33.0273 Q1518.75,31.7578 1518.75,30.2539 L1518.75,28.8867 Q1518.75,27.3242 1519.4922,25.957 Q1520.2539,24.5898 1521.5625,23.8672 Q1522.8906,23.125 1524.375,23.125 Q1525.2734,23.125 1526.0547,23.4375 Q1526.8359,23.75 1527.5,24.375 Z " fill="#000000"/><text fill="#000000" font-family="sans-serif" font-size="15" lengthAdjust="spacing" textLength="90" x="1542.5" y="34.8877">KnowPortsUI</text><line style="stroke:#A80036;stroke-width:1.875;" x1="1507.5" x2="1635" y1="48.75" y2="48.75"/><line style="stroke:#A80036;stroke-width:1.875;" x1="1507.5" x2="1635" y1="58.75" y2="58.75"/><!--MD5=[2007e9c623b991874af46d35cf09aaa4]
class KnowShortestPathUI--><rect codeLine="6" fill="#FEFECE" filter="url(#f12fkwhvn0j7ea)" height="60" id="KnowShortestPathUI" style="stroke:#A80036;stroke-width:1.875;" width="182.5" x="1280" y="8.75"/><ellipse cx="1298.75" cy="28.75" fill="#ADD1B2" rx="13.75" ry="13.75" style="stroke:#A80036;stroke-width:1.25;"/><path d="M1301.25,24.375 Q1301.5039,23.75 1301.7969,23.4375 Q1302.0898,23.125 1302.4219,23.125 Q1303.0078,23.125 1303.3789,23.4766 Q1303.75,23.8281 1303.75,24.6484 L1303.75,26.6016 Q1303.75,27.4219 1303.3984,27.7734 Q1303.0469,28.125 1302.5,28.125 Q1302.0117,28.125 1301.6992,27.9102 Q1301.3867,27.6953 1301.25,27.1289 Q1301.1914,26.7383 1300.9766,26.5234 Q1300.5859,26.1133 1299.8828,25.8789 Q1299.1797,25.625 1298.4766,25.625 Q1297.5977,25.625 1296.8555,25.9766 Q1296.1328,26.3281 1295.5664,27.1094 Q1295,27.8906 1295,28.9648 L1295,30.1172 Q1295,31.4063 1296.0547,32.2656 Q1297.1094,33.125 1298.9844,33.125 Q1300.0977,33.125 1300.8789,32.8711 Q1301.3281,32.7344 1301.8359,32.2852 Q1302.168,32.0313 1302.3438,31.9531 Q1302.5195,31.875 1302.7344,31.875 Q1303.1445,31.875 1303.4375,32.207 Q1303.75,32.5195 1303.75,32.9688 Q1303.75,33.3984 1303.3203,33.9063 Q1302.6953,34.6484 1301.6992,35.0586 Q1300.3906,35.625 1298.7891,35.625 Q1296.9141,35.625 1295.4102,34.8828 Q1294.1992,34.2969 1293.3398,33.0273 Q1292.5,31.7578 1292.5,30.2539 L1292.5,28.8867 Q1292.5,27.3242 1293.2422,25.957 Q1294.0039,24.5898 1295.3125,23.8672 Q1296.6406,23.125 1298.125,23.125 Q1299.0234,23.125 1299.8047,23.4375 Q1300.5859,23.75 1301.25,24.375 Z " fill="#000000"/><text fill="#000000" font-family="sans-serif" font-size="15" lengthAdjust="spacing" textLength="142.5" x="1316.25" y="34.8877">KnowShortestPathUI</text><line style="stroke:#A80036;stroke-width:1.875;" x1="1281.25" x2="1461.25" y1="48.75" y2="48.75"/><line style="stroke:#A80036;stroke-width:1.875;" x1="1281.25" x2="1461.25" y1="58.75" y2="58.75"/><!--MD5=[18128de1fe664899f0e69258e7bde033]
class CountryController--><rect codeLine="9" fill="#FEFECE" filter="url(#f12fkwhvn0j7ea)" height="146.4746" id="CountryController" style="stroke:#A80036;stroke-width:1.875;" width="453.75" x="1244.375" y="145"/><ellipse cx="1405.9375" cy="165" fill="#ADD1B2" rx="13.75" ry="13.75" style="stroke:#A80036;stroke-width:1.25;"/><path d="M1408.4375,160.625 Q1408.6914,160 1408.9844,159.6875 Q1409.2773,159.375 1409.6094,159.375 Q1410.1953,159.375 1410.5664,159.7266 Q1410.9375,160.0781 1410.9375,160.8984 L1410.9375,162.8516 Q1410.9375,163.6719 1410.5859,164.0234 Q1410.2344,164.375 1409.6875,164.375 Q1409.1992,164.375 1408.8867,164.1602 Q1408.5742,163.9453 1408.4375,163.3789 Q1408.3789,162.9883 1408.1641,162.7734 Q1407.7734,162.3633 1407.0703,162.1289 Q1406.3672,161.875 1405.6641,161.875 Q1404.7852,161.875 1404.043,162.2266 Q1403.3203,162.5781 1402.7539,163.3594 Q1402.1875,164.1406 1402.1875,165.2148 L1402.1875,166.3672 Q1402.1875,167.6563 1403.2422,168.5156 Q1404.2969,169.375 1406.1719,169.375 Q1407.2852,169.375 1408.0664,169.1211 Q1408.5156,168.9844 1409.0234,168.5352 Q1409.3555,168.2813 1409.5313,168.2031 Q1409.707,168.125 1409.9219,168.125 Q1410.332,168.125 1410.625,168.457 Q1410.9375,168.7695 1410.9375,169.2188 Q1410.9375,169.6484 1410.5078,170.1563 Q1409.8828,170.8984 1408.8867,171.3086 Q1407.5781,171.875 1405.9766,171.875 Q1404.1016,171.875 1402.5977,171.1328 Q1401.3867,170.5469 1400.5273,169.2773 Q1399.6875,168.0078 1399.6875,166.5039 L1399.6875,165.1367 Q1399.6875,163.5742 1400.4297,162.207 Q1401.1914,160.8398 1402.5,160.1172 Q1403.8281,159.375 1405.3125,159.375 Q1406.2109,159.375 1406.9922,159.6875 Q1407.7734,160 1408.4375,160.625 Z " fill="#000000"/><text fill="#000000" font-family="sans-serif" font-size="15" lengthAdjust="spacing" textLength="120" x="1431.5625" y="171.1377">CountryController</text><line style="stroke:#A80036;stroke-width:1.875;" x1="1245.625" x2="1696.875" y1="185" y2="185"/><line style="stroke:#A80036;stroke-width:1.875;" x1="1245.625" x2="1696.875" y1="195" y2="195"/><text fill="#000000" font-family="sans-serif" font-size="13.75" lengthAdjust="spacing" textLength="201.25" x="1251.875" y="214.2737">+getCentrality(int numberOfPorts)</text><text fill="#000000" font-family="sans-serif" font-size="13.75" lengthAdjust="spacing" textLength="216.25" x="1251.875" y="231.5686">+landPath(String origem,String dest)</text><text fill="#000000" font-family="sans-serif" font-size="13.75" lengthAdjust="spacing" textLength="217.5" x="1251.875" y="248.8635">+seaPath(String origem, String dest)</text><text fill="#000000" font-family="sans-serif" font-size="13.75" lengthAdjust="spacing" textLength="247.5" x="1251.875" y="266.1584">+seaLandPath(String origem, String dest)</text><text fill="#000000" font-family="sans-serif" font-size="13.75" lengthAdjust="spacing" textLength="438.75" x="1251.875" y="283.4534">+throughDestination(String origem, String dest, ArrayList&lt;String&gt; paises)</text><!--MD5=[b7b072196a724e538165319251b4d539]
class MatrixGraph--><rect codeLine="18" fill="#FEFECE" filter="url(#f12fkwhvn0j7ea)" height="111.8848" id="MatrixGraph" style="stroke:#A80036;stroke-width:1.875;" width="156.25" x="881.875" y="388.75"/><ellipse cx="916.375" cy="408.75" fill="#ADD1B2" rx="13.75" ry="13.75" style="stroke:#A80036;stroke-width:1.25;"/><path d="M918.875,404.375 Q919.1289,403.75 919.4219,403.4375 Q919.7148,403.125 920.0469,403.125 Q920.6328,403.125 921.0039,403.4766 Q921.375,403.8281 921.375,404.6484 L921.375,406.6016 Q921.375,407.4219 921.0234,407.7734 Q920.6719,408.125 920.125,408.125 Q919.6367,408.125 919.3242,407.9102 Q919.0117,407.6953 918.875,407.1289 Q918.8164,406.7383 918.6016,406.5234 Q918.2109,406.1133 917.5078,405.8789 Q916.8047,405.625 916.1016,405.625 Q915.2227,405.625 914.4805,405.9766 Q913.7578,406.3281 913.1914,407.1094 Q912.625,407.8906 912.625,408.9648 L912.625,410.1172 Q912.625,411.4063 913.6797,412.2656 Q914.7344,413.125 916.6094,413.125 Q917.7227,413.125 918.5039,412.8711 Q918.9531,412.7344 919.4609,412.2852 Q919.793,412.0313 919.9688,411.9531 Q920.1445,411.875 920.3594,411.875 Q920.7695,411.875 921.0625,412.207 Q921.375,412.5195 921.375,412.9688 Q921.375,413.3984 920.9453,413.9063 Q920.3203,414.6484 919.3242,415.0586 Q918.0156,415.625 916.4141,415.625 Q914.5391,415.625 913.0352,414.8828 Q911.8242,414.2969 910.9648,413.0273 Q910.125,411.7578 910.125,410.2539 L910.125,408.8867 Q910.125,407.3242 910.8672,405.957 Q911.6289,404.5898 912.9375,403.8672 Q914.2656,403.125 915.75,403.125 Q916.6484,403.125 917.4297,403.4375 Q918.2109,403.75 918.875,404.375 Z " fill="#000000"/><text fill="#000000" font-family="sans-serif" font-size="15" lengthAdjust="spacing" textLength="81.25" x="937.375" y="414.8877">MatrixGraph</text><line style="stroke:#A80036;stroke-width:1.875;" x1="883.125" x2="1036.875" y1="428.75" y2="428.75"/><line style="stroke:#A80036;stroke-width:1.875;" x1="883.125" x2="1036.875" y1="438.75" y2="438.75"/><text fill="#000000" font-family="sans-serif" font-size="13.75" lengthAdjust="spacing" textLength="50" x="889.375" y="458.0237">+clone()</text><text fill="#000000" font-family="sans-serif" font-size="13.75" lengthAdjust="spacing" textLength="141.25" x="889.375" y="475.3186">+removeVertex(V vert)</text><text fill="#000000" font-family="sans-serif" font-size="13.75" lengthAdjust="spacing" textLength="123.75" x="889.375" y="492.6135">+adjVertices(V vert)</text><!--MD5=[4533588fb66c6fa31a6e04bf29ae6161]
class Algorithms--><rect codeLine="24" fill="#FEFECE" filter="url(#f12fkwhvn0j7ea)" height="94.5898" id="Algorithms" style="stroke:#A80036;stroke-width:1.875;" width="777.5" x="1082.5" y="397.5"/><ellipse cx="1429.0625" cy="417.5" fill="#ADD1B2" rx="13.75" ry="13.75" style="stroke:#A80036;stroke-width:1.25;"/><path d="M1431.5625,413.125 Q1431.8164,412.5 1432.1094,412.1875 Q1432.4023,411.875 1432.7344,411.875 Q1433.3203,411.875 1433.6914,412.2266 Q1434.0625,412.5781 1434.0625,413.3984 L1434.0625,415.3516 Q1434.0625,416.1719 1433.7109,416.5234 Q1433.3594,416.875 1432.8125,416.875 Q1432.3242,416.875 1432.0117,416.6602 Q1431.6992,416.4453 1431.5625,415.8789 Q1431.5039,415.4883 1431.2891,415.2734 Q1430.8984,414.8633 1430.1953,414.6289 Q1429.4922,414.375 1428.7891,414.375 Q1427.9102,414.375 1427.168,414.7266 Q1426.4453,415.0781 1425.8789,415.8594 Q1425.3125,416.6406 1425.3125,417.7148 L1425.3125,418.8672 Q1425.3125,420.1563 1426.3672,421.0156 Q1427.4219,421.875 1429.2969,421.875 Q1430.4102,421.875 1431.1914,421.6211 Q1431.6406,421.4844 1432.1484,421.0352 Q1432.4805,420.7813 1432.6563,420.7031 Q1432.832,420.625 1433.0469,420.625 Q1433.457,420.625 1433.75,420.957 Q1434.0625,421.2695 1434.0625,421.7188 Q1434.0625,422.1484 1433.6328,422.6563 Q1433.0078,423.3984 1432.0117,423.8086 Q1430.7031,424.375 1429.1016,424.375 Q1427.2266,424.375 1425.7227,423.6328 Q1424.5117,423.0469 1423.6523,421.7773 Q1422.8125,420.5078 1422.8125,419.0039 L1422.8125,417.6367 Q1422.8125,416.0742 1423.5547,414.707 Q1424.3164,413.3398 1425.625,412.6172 Q1426.9531,411.875 1428.4375,411.875 Q1429.3359,411.875 1430.1172,412.1875 Q1430.8984,412.5 1431.5625,413.125 Z " fill="#000000"/><text fill="#000000" font-family="sans-serif" font-size="15" lengthAdjust="spacing" textLength="73.75" x="1454.6875" y="423.6377">Algorithms</text><line style="stroke:#A80036;stroke-width:1.875;" x1="1083.75" x2="1858.75" y1="437.5" y2="437.5"/><line style="stroke:#A80036;stroke-width:1.875;" x1="1083.75" x2="1858.75" y1="447.5" y2="447.5"/><text fill="#000000" font-family="sans-serif" font-size="13.75" lengthAdjust="spacing" textLength="456.25" x="1090" y="466.7737">+minDistGraph(Graph &lt;V,E&gt; g, Comparator&lt;E&gt; ce, BinaryOperator&lt;E&gt; sum)</text><text fill="#000000" font-family="sans-serif" font-size="13.75" lengthAdjust="spacing" textLength="762.5" x="1090" y="484.0686">+shortestPath(Graph&lt;V, E&gt; g, V vOrig, V vDest, Comparator&lt;E&gt; ce, BinaryOperator&lt;E&gt; sum, E zero, LinkedList&lt;V&gt; shortPath)</text><!--MD5=[a0bfe97ac0a38e6e74cc1c7c7b744b71]
class Port--><rect codeLine="29" fill="#FEFECE" filter="url(#f12fkwhvn0j7ea)" height="77.2949" id="Port" style="stroke:#A80036;stroke-width:1.875;" width="75" x="1903.75" y="406.25"/><ellipse cx="1925.875" cy="426.25" fill="#ADD1B2" rx="13.75" ry="13.75" style="stroke:#A80036;stroke-width:1.25;"/><path d="M1928.375,421.875 Q1928.6289,421.25 1928.9219,420.9375 Q1929.2148,420.625 1929.5469,420.625 Q1930.1328,420.625 1930.5039,420.9766 Q1930.875,421.3281 1930.875,422.1484 L1930.875,424.1016 Q1930.875,424.9219 1930.5234,425.2734 Q1930.1719,425.625 1929.625,425.625 Q1929.1367,425.625 1928.8242,425.4102 Q1928.5117,425.1953 1928.375,424.6289 Q1928.3164,424.2383 1928.1016,424.0234 Q1927.7109,423.6133 1927.0078,423.3789 Q1926.3047,423.125 1925.6016,423.125 Q1924.7227,423.125 1923.9805,423.4766 Q1923.2578,423.8281 1922.6914,424.6094 Q1922.125,425.3906 1922.125,426.4648 L1922.125,427.6172 Q1922.125,428.9063 1923.1797,429.7656 Q1924.2344,430.625 1926.1094,430.625 Q1927.2227,430.625 1928.0039,430.3711 Q1928.4531,430.2344 1928.9609,429.7852 Q1929.293,429.5313 1929.4688,429.4531 Q1929.6445,429.375 1929.8594,429.375 Q1930.2695,429.375 1930.5625,429.707 Q1930.875,430.0195 1930.875,430.4688 Q1930.875,430.8984 1930.4453,431.4063 Q1929.8203,432.1484 1928.8242,432.5586 Q1927.5156,433.125 1925.9141,433.125 Q1924.0391,433.125 1922.5352,432.3828 Q1921.3242,431.7969 1920.4648,430.5273 Q1919.625,429.2578 1919.625,427.7539 L1919.625,426.3867 Q1919.625,424.8242 1920.3672,423.457 Q1921.1289,422.0898 1922.4375,421.3672 Q1923.7656,420.625 1925.25,420.625 Q1926.1484,420.625 1926.9297,420.9375 Q1927.7109,421.25 1928.375,421.875 Z " fill="#000000"/><text fill="#000000" font-family="sans-serif" font-size="15" lengthAdjust="spacing" textLength="27.5" x="1944.125" y="432.3877">Port</text><line style="stroke:#A80036;stroke-width:1.875;" x1="1905" x2="1977.5" y1="446.25" y2="446.25"/><line style="stroke:#A80036;stroke-width:1.875;" x1="1905" x2="1977.5" y1="456.25" y2="456.25"/><text fill="#000000" font-family="sans-serif" font-size="13.75" lengthAdjust="spacing" textLength="60" x="1911.25" y="475.5237">+getPort()</text><!--MD5=[d98db85936e75bfba2672cc8c2e3781c]
class ShipOccupancyUI--><rect codeLine="41" fill="#FEFECE" filter="url(#f12fkwhvn0j7ea)" height="60" id="ShipOccupancyUI" style="stroke:#A80036;stroke-width:1.875;" width="161.25" x="165.625" y="8.75"/><ellipse cx="184.375" cy="28.75" fill="#ADD1B2" rx="13.75" ry="13.75" style="stroke:#A80036;stroke-width:1.25;"/><path d="M186.875,24.375 Q187.1289,23.75 187.4219,23.4375 Q187.7148,23.125 188.0469,23.125 Q188.6328,23.125 189.0039,23.4766 Q189.375,23.8281 189.375,24.6484 L189.375,26.6016 Q189.375,27.4219 189.0234,27.7734 Q188.6719,28.125 188.125,28.125 Q187.6367,28.125 187.3242,27.9102 Q187.0117,27.6953 186.875,27.1289 Q186.8164,26.7383 186.6016,26.5234 Q186.2109,26.1133 185.5078,25.8789 Q184.8047,25.625 184.1016,25.625 Q183.2227,25.625 182.4805,25.9766 Q181.7578,26.3281 181.1914,27.1094 Q180.625,27.8906 180.625,28.9648 L180.625,30.1172 Q180.625,31.4063 181.6797,32.2656 Q182.7344,33.125 184.6094,33.125 Q185.7227,33.125 186.5039,32.8711 Q186.9531,32.7344 187.4609,32.2852 Q187.793,32.0313 187.9688,31.9531 Q188.1445,31.875 188.3594,31.875 Q188.7695,31.875 189.0625,32.207 Q189.375,32.5195 189.375,32.9688 Q189.375,33.3984 188.9453,33.9063 Q188.3203,34.6484 187.3242,35.0586 Q186.0156,35.625 184.4141,35.625 Q182.5391,35.625 181.0352,34.8828 Q179.8242,34.2969 178.9648,33.0273 Q178.125,31.7578 178.125,30.2539 L178.125,28.8867 Q178.125,27.3242 178.8672,25.957 Q179.6289,24.5898 180.9375,23.8672 Q182.2656,23.125 183.75,23.125 Q184.6484,23.125 185.4297,23.4375 Q186.2109,23.75 186.875,24.375 Z " fill="#000000"/><text fill="#000000" font-family="sans-serif" font-size="15" lengthAdjust="spacing" textLength="121.25" x="201.875" y="34.8877">ShipOccupancyUI</text><line style="stroke:#A80036;stroke-width:1.875;" x1="166.875" x2="325.625" y1="48.75" y2="48.75"/><line style="stroke:#A80036;stroke-width:1.875;" x1="166.875" x2="325.625" y1="58.75" y2="58.75"/><!--MD5=[b876ef1f37e0d8b9b6a40127fe5975bb]
class ShipOccupancyController--><rect codeLine="44" fill="#FEFECE" filter="url(#f12fkwhvn0j7ea)" height="111.8848" id="ShipOccupancyController" style="stroke:#A80036;stroke-width:1.875;" width="227.5" x="132.5" y="161.875"/><ellipse cx="157.4375" cy="181.875" fill="#ADD1B2" rx="13.75" ry="13.75" style="stroke:#A80036;stroke-width:1.25;"/><path d="M159.9375,177.5 Q160.1914,176.875 160.4844,176.5625 Q160.7773,176.25 161.1094,176.25 Q161.6953,176.25 162.0664,176.6016 Q162.4375,176.9531 162.4375,177.7734 L162.4375,179.7266 Q162.4375,180.5469 162.0859,180.8984 Q161.7344,181.25 161.1875,181.25 Q160.6992,181.25 160.3867,181.0352 Q160.0742,180.8203 159.9375,180.2539 Q159.8789,179.8633 159.6641,179.6484 Q159.2734,179.2383 158.5703,179.0039 Q157.8672,178.75 157.1641,178.75 Q156.2852,178.75 155.543,179.1016 Q154.8203,179.4531 154.2539,180.2344 Q153.6875,181.0156 153.6875,182.0898 L153.6875,183.2422 Q153.6875,184.5313 154.7422,185.3906 Q155.7969,186.25 157.6719,186.25 Q158.7852,186.25 159.5664,185.9961 Q160.0156,185.8594 160.5234,185.4102 Q160.8555,185.1563 161.0313,185.0781 Q161.207,185 161.4219,185 Q161.832,185 162.125,185.332 Q162.4375,185.6445 162.4375,186.0938 Q162.4375,186.5234 162.0078,187.0313 Q161.3828,187.7734 160.3867,188.1836 Q159.0781,188.75 157.4766,188.75 Q155.6016,188.75 154.0977,188.0078 Q152.8867,187.4219 152.0273,186.1523 Q151.1875,184.8828 151.1875,183.3789 L151.1875,182.0117 Q151.1875,180.4492 151.9297,179.082 Q152.6914,177.7148 154,176.9922 Q155.3281,176.25 156.8125,176.25 Q157.7109,176.25 158.4922,176.5625 Q159.2734,176.875 159.9375,177.5 Z " fill="#000000"/><text fill="#000000" font-family="sans-serif" font-size="15" lengthAdjust="spacing" textLength="173.75" x="176.3125" y="188.0127">ShipOccupancyController</text><line style="stroke:#A80036;stroke-width:1.875;" x1="133.75" x2="358.75" y1="201.875" y2="201.875"/><line style="stroke:#A80036;stroke-width:1.875;" x1="133.75" x2="358.75" y1="211.875" y2="211.875"/><text fill="#000000" font-family="sans-serif" font-size="13.75" lengthAdjust="spacing" textLength="212.5" x="140" y="231.1487">+averageOccupancyRate(int mmsi)</text><text fill="#000000" font-family="sans-serif" font-size="13.75" lengthAdjust="spacing" textLength="198.75" x="140" y="248.4436">+tripsBelowThreshHold(int mmsi)</text><text fill="#000000" font-family="sans-serif" font-size="13.75" lengthAdjust="spacing" textLength="108.75" x="140" y="265.7385">+getLoadingMap()</text><!--MD5=[0b8a0869bb17c5d05015d74abb8e1141]
class ConnectionFactory--><rect codeLine="50" fill="#FEFECE" filter="url(#f12fkwhvn0j7ea)" height="94.5898" id="ConnectionFactory" style="stroke:#A80036;stroke-width:1.875;" width="176.25" x="29.375" y="397.5"/><ellipse cx="52.0625" cy="417.5" fill="#ADD1B2" rx="13.75" ry="13.75" style="stroke:#A80036;stroke-width:1.25;"/><path d="M54.5625,413.125 Q54.8164,412.5 55.1094,412.1875 Q55.4023,411.875 55.7344,411.875 Q56.3203,411.875 56.6914,412.2266 Q57.0625,412.5781 57.0625,413.3984 L57.0625,415.3516 Q57.0625,416.1719 56.7109,416.5234 Q56.3594,416.875 55.8125,416.875 Q55.3242,416.875 55.0117,416.6602 Q54.6992,416.4453 54.5625,415.8789 Q54.5039,415.4883 54.2891,415.2734 Q53.8984,414.8633 53.1953,414.6289 Q52.4922,414.375 51.7891,414.375 Q50.9102,414.375 50.168,414.7266 Q49.4453,415.0781 48.8789,415.8594 Q48.3125,416.6406 48.3125,417.7148 L48.3125,418.8672 Q48.3125,420.1563 49.3672,421.0156 Q50.4219,421.875 52.2969,421.875 Q53.4102,421.875 54.1914,421.6211 Q54.6406,421.4844 55.1484,421.0352 Q55.4805,420.7813 55.6563,420.7031 Q55.832,420.625 56.0469,420.625 Q56.457,420.625 56.75,420.957 Q57.0625,421.2695 57.0625,421.7188 Q57.0625,422.1484 56.6328,422.6563 Q56.0078,423.3984 55.0117,423.8086 Q53.7031,424.375 52.1016,424.375 Q50.2266,424.375 48.7227,423.6328 Q47.5117,423.0469 46.6523,421.7773 Q45.8125,420.5078 45.8125,419.0039 L45.8125,417.6367 Q45.8125,416.0742 46.5547,414.707 Q47.3164,413.3398 48.625,412.6172 Q49.9531,411.875 51.4375,411.875 Q52.3359,411.875 53.1172,412.1875 Q53.8984,412.5 54.5625,413.125 Z " fill="#000000"/><text fill="#000000" font-family="sans-serif" font-size="15" lengthAdjust="spacing" textLength="127.5" x="70.4375" y="423.6377">ConnectionFactory</text><line style="stroke:#A80036;stroke-width:1.875;" x1="30.625" x2="204.375" y1="437.5" y2="437.5"/><line style="stroke:#A80036;stroke-width:1.875;" x1="30.625" x2="204.375" y1="447.5" y2="447.5"/><text fill="#000000" font-family="sans-serif" font-size="13.75" lengthAdjust="spacing" textLength="87.5" x="36.875" y="466.7737">+getInstance()</text><text fill="#000000" font-family="sans-serif" font-size="13.75" lengthAdjust="spacing" textLength="161.25" x="36.875" y="484.0686">+getDatabaseConnection()</text><!--MD5=[4ebfed50a2843d6810d5f28a3ed1348c]
class CargoManifestStore--><rect codeLine="55" fill="#FEFECE" filter="url(#f12fkwhvn0j7ea)" height="111.8848" id="CargoManifestStore" style="stroke:#A80036;stroke-width:1.875;" width="588.75" x="249.375" y="388.75"/><ellipse cx="470.3125" cy="408.75" fill="#ADD1B2" rx="13.75" ry="13.75" style="stroke:#A80036;stroke-width:1.25;"/><path d="M472.8125,404.375 Q473.0664,403.75 473.3594,403.4375 Q473.6523,403.125 473.9844,403.125 Q474.5703,403.125 474.9414,403.4766 Q475.3125,403.8281 475.3125,404.6484 L475.3125,406.6016 Q475.3125,407.4219 474.9609,407.7734 Q474.6094,408.125 474.0625,408.125 Q473.5742,408.125 473.2617,407.9102 Q472.9492,407.6953 472.8125,407.1289 Q472.7539,406.7383 472.5391,406.5234 Q472.1484,406.1133 471.4453,405.8789 Q470.7422,405.625 470.0391,405.625 Q469.1602,405.625 468.418,405.9766 Q467.6953,406.3281 467.1289,407.1094 Q466.5625,407.8906 466.5625,408.9648 L466.5625,410.1172 Q466.5625,411.4063 467.6172,412.2656 Q468.6719,413.125 470.5469,413.125 Q471.6602,413.125 472.4414,412.8711 Q472.8906,412.7344 473.3984,412.2852 Q473.7305,412.0313 473.9063,411.9531 Q474.082,411.875 474.2969,411.875 Q474.707,411.875 475,412.207 Q475.3125,412.5195 475.3125,412.9688 Q475.3125,413.3984 474.8828,413.9063 Q474.2578,414.6484 473.2617,415.0586 Q471.9531,415.625 470.3516,415.625 Q468.4766,415.625 466.9727,414.8828 Q465.7617,414.2969 464.9023,413.0273 Q464.0625,411.7578 464.0625,410.2539 L464.0625,408.8867 Q464.0625,407.3242 464.8047,405.957 Q465.5664,404.5898 466.875,403.8672 Q468.2031,403.125 469.6875,403.125 Q470.5859,403.125 471.3672,403.4375 Q472.1484,403.75 472.8125,404.375 Z " fill="#000000"/><text fill="#000000" font-family="sans-serif" font-size="15" lengthAdjust="spacing" textLength="136.25" x="495.9375" y="414.8877">CargoManifestStore</text><line style="stroke:#A80036;stroke-width:1.875;" x1="250.625" x2="836.875" y1="428.75" y2="428.75"/><line style="stroke:#A80036;stroke-width:1.875;" x1="250.625" x2="836.875" y1="438.75" y2="438.75"/><text fill="#000000" font-family="sans-serif" font-size="13.75" lengthAdjust="spacing" textLength="573.75" x="256.875" y="458.0237">+averageOccupancyRate(DatabaseConnection databaseConnection, int mmsi, String startDate)</text><text fill="#000000" font-family="sans-serif" font-size="13.75" lengthAdjust="spacing" textLength="547.5" x="256.875" y="475.3186">+getTripsThreshHold(DatabaseConnection databaseConnection, int mmsi, String startDate )</text><text fill="#000000" font-family="sans-serif" font-size="13.75" lengthAdjust="spacing" textLength="361.25" x="256.875" y="492.6135">+getLoadingMap(DatabaseConnection databaseConnection)</text><!--MD5=[8aa441cdd93a4e2944eff58bc06cd78a]
class DatabaseConnection--><rect codeLine="61" fill="#FEFECE" filter="url(#f12fkwhvn0j7ea)" height="77.2949" id="DatabaseConnection" style="stroke:#A80036;stroke-width:1.875;" width="186.25" x="450.625" y="598.75"/><ellipse cx="469.375" cy="618.75" fill="#ADD1B2" rx="13.75" ry="13.75" style="stroke:#A80036;stroke-width:1.25;"/><path d="M471.875,614.375 Q472.1289,613.75 472.4219,613.4375 Q472.7148,613.125 473.0469,613.125 Q473.6328,613.125 474.0039,613.4766 Q474.375,613.8281 474.375,614.6484 L474.375,616.6016 Q474.375,617.4219 474.0234,617.7734 Q473.6719,618.125 473.125,618.125 Q472.6367,618.125 472.3242,617.9102 Q472.0117,617.6953 471.875,617.1289 Q471.8164,616.7383 471.6016,616.5234 Q471.2109,616.1133 470.5078,615.8789 Q469.8047,615.625 469.1016,615.625 Q468.2227,615.625 467.4805,615.9766 Q466.7578,616.3281 466.1914,617.1094 Q465.625,617.8906 465.625,618.9648 L465.625,620.1172 Q465.625,621.4063 466.6797,622.2656 Q467.7344,623.125 469.6094,623.125 Q470.7227,623.125 471.5039,622.8711 Q471.9531,622.7344 472.4609,622.2852 Q472.793,622.0313 472.9688,621.9531 Q473.1445,621.875 473.3594,621.875 Q473.7695,621.875 474.0625,622.207 Q474.375,622.5195 474.375,622.9688 Q474.375,623.3984 473.9453,623.9063 Q473.3203,624.6484 472.3242,625.0586 Q471.0156,625.625 469.4141,625.625 Q467.5391,625.625 466.0352,624.8828 Q464.8242,624.2969 463.9648,623.0273 Q463.125,621.7578 463.125,620.2539 L463.125,618.8867 Q463.125,617.3242 463.8672,615.957 Q464.6289,614.5898 465.9375,613.8672 Q467.2656,613.125 468.75,613.125 Q469.6484,613.125 470.4297,613.4375 Q471.2109,613.75 471.875,614.375 Z " fill="#000000"/><text fill="#000000" font-family="sans-serif" font-size="15" lengthAdjust="spacing" textLength="146.25" x="486.875" y="624.8877">DatabaseConnection</text><line style="stroke:#A80036;stroke-width:1.875;" x1="451.875" x2="635.625" y1="638.75" y2="638.75"/><line style="stroke:#A80036;stroke-width:1.875;" x1="451.875" x2="635.625" y1="648.75" y2="648.75"/><text fill="#000000" font-family="sans-serif" font-size="13.75" lengthAdjust="spacing" textLength="103.75" x="458.125" y="668.0237">+getConnection()</text><!--MD5=[b837fc1f3d2e7c758ab40503c3013e99]
class ShipTripUI--><rect codeLine="65" fill="#FEFECE" filter="url(#f12fkwhvn0j7ea)" height="60" id="ShipTripUI" style="stroke:#A80036;stroke-width:1.875;" width="112.5" x="8.75" y="8.75"/><ellipse cx="27.5" cy="28.75" fill="#ADD1B2" rx="13.75" ry="13.75" style="stroke:#A80036;stroke-width:1.25;"/><path d="M30,24.375 Q30.2539,23.75 30.5469,23.4375 Q30.8398,23.125 31.1719,23.125 Q31.7578,23.125 32.1289,23.4766 Q32.5,23.8281 32.5,24.6484 L32.5,26.6016 Q32.5,27.4219 32.1484,27.7734 Q31.7969,28.125 31.25,28.125 Q30.7617,28.125 30.4492,27.9102 Q30.1367,27.6953 30,27.1289 Q29.9414,26.7383 29.7266,26.5234 Q29.3359,26.1133 28.6328,25.8789 Q27.9297,25.625 27.2266,25.625 Q26.3477,25.625 25.6055,25.9766 Q24.8828,26.3281 24.3164,27.1094 Q23.75,27.8906 23.75,28.9648 L23.75,30.1172 Q23.75,31.4063 24.8047,32.2656 Q25.8594,33.125 27.7344,33.125 Q28.8477,33.125 29.6289,32.8711 Q30.0781,32.7344 30.5859,32.2852 Q30.918,32.0313 31.0938,31.9531 Q31.2695,31.875 31.4844,31.875 Q31.8945,31.875 32.1875,32.207 Q32.5,32.5195 32.5,32.9688 Q32.5,33.3984 32.0703,33.9063 Q31.4453,34.6484 30.4492,35.0586 Q29.1406,35.625 27.5391,35.625 Q25.6641,35.625 24.1602,34.8828 Q22.9492,34.2969 22.0898,33.0273 Q21.25,31.7578 21.25,30.2539 L21.25,28.8867 Q21.25,27.3242 21.9922,25.957 Q22.7539,24.5898 24.0625,23.8672 Q25.3906,23.125 26.875,23.125 Q27.7734,23.125 28.5547,23.4375 Q29.3359,23.75 30,24.375 Z " fill="#000000"/><text fill="#000000" font-family="sans-serif" font-size="15" lengthAdjust="spacing" textLength="72.5" x="45" y="34.8877">ShipTripUI</text><line style="stroke:#A80036;stroke-width:1.875;" x1="10" x2="120" y1="48.75" y2="48.75"/><line style="stroke:#A80036;stroke-width:1.875;" x1="10" x2="120" y1="58.75" y2="58.75"/><!--MD5=[f748433f298c3d9b4fad2a10ff48a2c0]
class LoadingMapUI--><rect codeLine="68" fill="#FEFECE" filter="url(#f12fkwhvn0j7ea)" height="60" id="LoadingMapUI" style="stroke:#A80036;stroke-width:1.875;" width="140" x="371.25" y="8.75"/><ellipse cx="390" cy="28.75" fill="#ADD1B2" rx="13.75" ry="13.75" style="stroke:#A80036;stroke-width:1.25;"/><path d="M392.5,24.375 Q392.7539,23.75 393.0469,23.4375 Q393.3398,23.125 393.6719,23.125 Q394.2578,23.125 394.6289,23.4766 Q395,23.8281 395,24.6484 L395,26.6016 Q395,27.4219 394.6484,27.7734 Q394.2969,28.125 393.75,28.125 Q393.2617,28.125 392.9492,27.9102 Q392.6367,27.6953 392.5,27.1289 Q392.4414,26.7383 392.2266,26.5234 Q391.8359,26.1133 391.1328,25.8789 Q390.4297,25.625 389.7266,25.625 Q388.8477,25.625 388.1055,25.9766 Q387.3828,26.3281 386.8164,27.1094 Q386.25,27.8906 386.25,28.9648 L386.25,30.1172 Q386.25,31.4063 387.3047,32.2656 Q388.3594,33.125 390.2344,33.125 Q391.3477,33.125 392.1289,32.8711 Q392.5781,32.7344 393.0859,32.2852 Q393.418,32.0313 393.5938,31.9531 Q393.7695,31.875 393.9844,31.875 Q394.3945,31.875 394.6875,32.207 Q395,32.5195 395,32.9688 Q395,33.3984 394.5703,33.9063 Q393.9453,34.6484 392.9492,35.0586 Q391.6406,35.625 390.0391,35.625 Q388.1641,35.625 386.6602,34.8828 Q385.4492,34.2969 384.5898,33.0273 Q383.75,31.7578 383.75,30.2539 L383.75,28.8867 Q383.75,27.3242 384.4922,25.957 Q385.2539,24.5898 386.5625,23.8672 Q387.8906,23.125 389.375,23.125 Q390.2734,23.125 391.0547,23.4375 Q391.8359,23.75 392.5,24.375 Z " fill="#000000"/><text fill="#000000" font-family="sans-serif" font-size="15" lengthAdjust="spacing" textLength="100" x="407.5" y="34.8877">LoadingMapUI</text><line style="stroke:#A80036;stroke-width:1.875;" x1="372.5" x2="510" y1="48.75" y2="48.75"/><line style="stroke:#A80036;stroke-width:1.875;" x1="372.5" x2="510" y1="58.75" y2="58.75"/><!--MD5=[fef173e6ac9c9fa532be7661e74639b5]
link KnowPortsUI to CountryController--><path codeLine="35" d="M1554.9625,68.8125 C1544.1,88.0125 1529.275,114.2375 1515.125,139.2875 " fill="none" id="KnowPortsUI-to-CountryController" style="stroke:#A80036;stroke-width:1.25;stroke-dasharray:7.0,7.0;"/><polygon fill="#A80036" points="1511.925,144.9375,1521.8063,137.5943,1514.9951,139.4935,1513.0959,132.6822,1511.925,144.9375" style="stroke:#A80036;stroke-width:1.25;"/><!--MD5=[2c3e09873e158f11d4ff475714bf9ab3]
link KnowShortestPathUI to CountryController--><path codeLine="36" d="M1387.5375,68.8125 C1398.4,88.0125 1413.225,114.2375 1427.375,139.2875 " fill="none" id="KnowShortestPathUI-to-CountryController" style="stroke:#A80036;stroke-width:1.25;stroke-dasharray:7.0,7.0;"/><polygon fill="#A80036" points="1430.575,144.9375,1429.4041,132.6822,1427.5049,139.4935,1420.6937,137.5943,1430.575,144.9375" style="stroke:#A80036;stroke-width:1.25;"/><!--MD5=[c7ad7d43e3e2ae0f7dacaa78710acd86]
link CountryController to MatrixGraph--><path codeLine="37" d="M1284.0375,291.325 C1213.0875,319.925 1132.075,354.225 1060,388.75 C1054.75,391.2625 1049.3875,393.925 1044.0125,396.6625 " fill="none" id="CountryController-to-MatrixGraph" style="stroke:#A80036;stroke-width:1.25;"/><polygon fill="#A80036" points="1038.175,399.675,1050.4653,398.9594,1043.7291,396.8089,1045.8796,390.0728,1038.175,399.675" style="stroke:#A80036;stroke-width:1.25;"/><text fill="#000000" font-family="sans-serif" font-size="16.25" lengthAdjust="spacing" textLength="35" x="1185" y="346.8689">uses</text><text fill="#000000" font-family="sans-serif" font-size="16.25" lengthAdjust="spacing" textLength="8.75" x="1251.9378" y="318.347">1</text><text fill="#000000" font-family="sans-serif" font-size="16.25" lengthAdjust="spacing" textLength="25" x="1047.4509" y="390.4553">1..*</text><!--MD5=[4e8c91b2f548ff8cdf9513825b59f611]
link CountryController to Algorithms--><path codeLine="38" d="M1471.25,291.6 C1471.25,323.875 1471.25,361.2375 1471.25,390.85 " fill="none" id="CountryController-to-Algorithms" style="stroke:#A80036;stroke-width:1.25;"/><polygon fill="#A80036" points="1471.25,397.4375,1476.25,386.1875,1471.25,391.1875,1466.25,386.1875,1471.25,397.4375" style="stroke:#A80036;stroke-width:1.25;"/><text fill="#000000" font-family="sans-serif" font-size="16.25" lengthAdjust="spacing" textLength="35" x="1472.5" y="346.8689">uses</text><text fill="#000000" font-family="sans-serif" font-size="16.25" lengthAdjust="spacing" textLength="8.75" x="1461.9941" y="318.1331">1</text><text fill="#000000" font-family="sans-serif" font-size="16.25" lengthAdjust="spacing" textLength="25" x="1443.9453" y="383.7716">1..*</text><!--MD5=[68ea603bdb99991d3fc27bbc4b1e53cb]
link CountryController to Port--><path codeLine="39" d="M1687.25,291.325 C1752.45,317.4625 1822.5875,350.2125 1882.5,388.75 C1888.4375,392.575 1894.325,397.025 1899.9375,401.7125 " fill="none" id="CountryController-to-Port" style="stroke:#A80036;stroke-width:1.25;"/><polygon fill="#A80036" points="1905.0125,406.075,1899.7455,394.9475,1900.2747,401.9987,1893.2235,402.5279,1905.0125,406.075" style="stroke:#A80036;stroke-width:1.25;"/><text fill="#000000" font-family="sans-serif" font-size="16.25" lengthAdjust="spacing" textLength="35" x="1810" y="346.8689">uses</text><text fill="#000000" font-family="sans-serif" font-size="16.25" lengthAdjust="spacing" textLength="8.75" x="1704.2918" y="318.347">1</text><text fill="#000000" font-family="sans-serif" font-size="16.25" lengthAdjust="spacing" textLength="8.75" x="1887.8862" y="392.9196">1</text><!--MD5=[975da80f5e3bea619e71d6fc366f372c]
link LoadingMapUI to ShipOccupancyController--><path codeLine="73" d="M409.4875,68.8125 C383.15,92.7 344.85,127.4375 311.9625,157.275 " fill="none" id="LoadingMapUI-to-ShipOccupancyController" style="stroke:#A80036;stroke-width:1.25;stroke-dasharray:7.0,7.0;"/><polygon fill="#A80036" points="307.15,161.6375,318.8414,157.7809,311.7787,157.4377,312.1218,150.375,307.15,161.6375" style="stroke:#A80036;stroke-width:1.25;"/><!--MD5=[f6622b0ce1eb3495e1c7745950037a18]
link ShipOccupancyUI to ShipOccupancyController--><path codeLine="74" d="M246.25,68.8125 C246.25,92.1125 246.25,125.7375 246.25,155.0625 " fill="none" id="ShipOccupancyUI-to-ShipOccupancyController" style="stroke:#A80036;stroke-width:1.25;stroke-dasharray:7.0,7.0;"/><polygon fill="#A80036" points="246.25,161.6375,251.25,150.3875,246.25,155.3875,241.25,150.3875,246.25,161.6375" style="stroke:#A80036;stroke-width:1.25;"/><!--MD5=[2d3ef6b906c9dca116c2950b9376e324]
link ShipTripUI to ShipOccupancyController--><path codeLine="75" d="M94.525,68.8125 C118.9,92.6 154.3125,127.1625 184.8,156.9125 " fill="none" id="ShipTripUI-to-ShipOccupancyController" style="stroke:#A80036;stroke-width:1.25;stroke-dasharray:7.0,7.0;"/><polygon fill="#A80036" points="189.65,161.6375,185.0914,150.2015,185.1772,157.2721,178.1067,157.358,189.65,161.6375" style="stroke:#A80036;stroke-width:1.25;"/><!--MD5=[db3ede84a5da24a8a10015c57a5e0170]
link ShipOccupancyController to ConnectionFactory--><path codeLine="76" d="M214.425,274.8375 C193.925,310.5625 167.45,356.7 147.35,391.725 " fill="none" id="ShipOccupancyController-to-ConnectionFactory" style="stroke:#A80036;stroke-width:1.25;"/><polygon fill="#A80036" points="144.1875,397.25,154.1258,389.9841,147.2999,391.8301,145.4539,385.0042,144.1875,397.25" style="stroke:#A80036;stroke-width:1.25;"/><text fill="#000000" font-family="sans-serif" font-size="16.25" lengthAdjust="spacing" textLength="35" x="183.75" y="346.8689">uses</text><text fill="#000000" font-family="sans-serif" font-size="16.25" lengthAdjust="spacing" textLength="8.75" x="200.8106" y="300.7418">1</text><text fill="#000000" font-family="sans-serif" font-size="16.25" lengthAdjust="spacing" textLength="25" x="121.7146" y="383.9078">1..*</text><!--MD5=[4ce7c33a460dca2f82d701c7d6ea0b75]
link ShipOccupancyController to CargoManifestStore--><path codeLine="77" d="M319.4125,274.55 C363.55,307.8375 419.7875,350.2625 464.9125,384.2875 " fill="none" id="ShipOccupancyController-to-CargoManifestStore" style="stroke:#A80036;stroke-width:1.25;"/><polygon fill="#A80036" points="470.3625,388.4,464.387,377.6363,465.3711,384.6386,458.3688,385.6226,470.3625,388.4" style="stroke:#A80036;stroke-width:1.25;"/><text fill="#000000" font-family="sans-serif" font-size="16.25" lengthAdjust="spacing" textLength="35" x="415" y="346.8689">uses</text><text fill="#000000" font-family="sans-serif" font-size="16.25" lengthAdjust="spacing" textLength="8.75" x="320.3357" y="300.8341">1</text><text fill="#000000" font-family="sans-serif" font-size="16.25" lengthAdjust="spacing" textLength="8.75" x="449.7051" y="375.1515">1</text><!--MD5=[2116ab72117c1937cd431dde115995d9]
link CargoManifestStore to DatabaseConnection--><path codeLine="78" d="M543.75,501.7125 C543.75,530.5125 543.75,565.2125 543.75,592.1625 " fill="none" id="CargoManifestStore-to-DatabaseConnection" style="stroke:#A80036;stroke-width:1.25;"/><polygon fill="#A80036" points="543.75,598.4875,548.75,587.2375,543.75,592.2375,538.75,587.2375,543.75,598.4875" style="stroke:#A80036;stroke-width:1.25;"/><text fill="#000000" font-family="sans-serif" font-size="16.25" lengthAdjust="spacing" textLength="35" x="545" y="556.8689">uses</text><text fill="#000000" font-family="sans-serif" font-size="16.25" lengthAdjust="spacing" textLength="8.75" x="534.4121" y="527.6168">1</text><text fill="#000000" font-family="sans-serif" font-size="16.25" lengthAdjust="spacing" textLength="25" x="516.1719" y="585.314">1..*</text><!--MD5=[7c48484d34990c2c29e7b57429b48d11]
@startuml
skinparam classAttributeIconSize 0

class KnowPortsUI{
}

class KnowShortestPathUI {
}

class CountryController {
+ getCentrality(int numberOfPorts)
+landPath(String origem,String dest)
+seaPath(String origem, String dest)
+seaLandPath(String origem, String dest)
+throughDestination(String origem, String dest, ArrayList<String> paises)

}

class MatrixGraph {
+ clone()
+ removeVertex(V vert)
+ adjVertices(V vert)
}

class Algorithms {
+ minDistGraph(Graph <V,E> g, Comparator<E> ce, BinaryOperator<E> sum)
+ shortestPath(Graph<V, E> g, V vOrig, V vDest, Comparator<E> ce, BinaryOperator<E> sum, E zero, LinkedList<V> shortPath)
}

class Port {
+getPort()
}



CountryController <.up. KnowPortsUI
CountryController <.up. KnowShortestPathUI
CountryController "1" - -> "1..*" MatrixGraph : uses
CountryController "1" - -> "1..*" Algorithms : uses
CountryController "1" - -> "1" Port : uses

class ShipOccupancyUI{
}

class ShipOccupancyController {
+ averageOccupancyRate(int mmsi)
+ tripsBelowThreshHold(int mmsi)
+ getLoadingMap()
}

class ConnectionFactory {
+ getInstance()
+ getDatabaseConnection()
}

class CargoManifestStore {
+ averageOccupancyRate(DatabaseConnection databaseConnection, int mmsi, String startDate)
+ getTripsThreshHold(DatabaseConnection databaseConnection, int mmsi, String startDate )
+ getLoadingMap(DatabaseConnection databaseConnection)
}

class DatabaseConnection {
+ getConnection()
}

class ShipTripUI{
}

class LoadingMapUI{
}



ShipOccupancyController <.up. LoadingMapUI
ShipOccupancyController <.up. ShipOccupancyUI
ShipOccupancyController <.up. ShipTripUI
ShipOccupancyController "1" - -> "1..*" ConnectionFactory : uses
ShipOccupancyController "1" - -> "1" CargoManifestStore : uses
CargoManifestStore "1" - -> "1..*" DatabaseConnection : uses








@enduml

PlantUML version 1.2021.7(Sun May 23 13:40:07 BST 2021)
(GPL source distribution)
Java Runtime: OpenJDK Runtime Environment
JVM: OpenJDK 64-Bit Server VM
Default Encoding: Cp1252
Language: pt
Country: PT
--></g></svg>