<?xml version="1.0" encoding="UTF-8" standalone="no"?><svg xmlns="http://www.w3.org/2000/svg" xmlns:xlink="http://www.w3.org/1999/xlink" contentScriptType="application/ecmascript" contentStyleType="text/css" height="1685px" preserveAspectRatio="none" style="width:1182px;height:1685px;background:#FFFFFF;" version="1.1" viewBox="0 0 1182 1685" width="1182.5px" zoomAndPan="magnify"><defs><filter height="300%" id="f1nhbzypmnbnee" width="300%" x="-1" y="-1"><feGaussianBlur result="blurOut" stdDeviation="2.5"/><feColorMatrix in="blurOut" result="blurOut2" type="matrix" values="0 0 0 0 0 0 0 0 0 0 0 0 0 0 0 0 0 0 .4 0"/><feOffset dx="5.0" dy="5.0" in="blurOut2" result="blurOut3"/><feBlend in="SourceGraphic" in2="blurOut3" mode="normal"/></filter></defs><g><!--MD5=[ddaf6f62b0bc30921877ec9fb9463c9f]
class TrafficManager--><rect codeLine="4" fill="#FEFECE" filter="url(#f1nhbzypmnbnee)" height="50" id="TrafficManager" style="stroke:#A80036;stroke-width:1.875;" width="141.25" x="28.75" y="1098.75"/><ellipse cx="47.5" cy="1118.75" fill="#ADD1B2" rx="13.75" ry="13.75" style="stroke:#A80036;stroke-width:1.25;"/><path d="M50,1114.375 Q50.2539,1113.75 50.5469,1113.4375 Q50.8398,1113.125 51.1719,1113.125 Q51.7578,1113.125 52.1289,1113.4766 Q52.5,1113.8281 52.5,1114.6484 L52.5,1116.6016 Q52.5,1117.4219 52.1484,1117.7734 Q51.7969,1118.125 51.25,1118.125 Q50.7617,1118.125 50.4492,1117.9102 Q50.1367,1117.6953 50,1117.1289 Q49.9414,1116.7383 49.7266,1116.5234 Q49.3359,1116.1133 48.6328,1115.8789 Q47.9297,1115.625 47.2266,1115.625 Q46.3477,1115.625 45.6055,1115.9766 Q44.8828,1116.3281 44.3164,1117.1094 Q43.75,1117.8906 43.75,1118.9648 L43.75,1120.1172 Q43.75,1121.4063 44.8047,1122.2656 Q45.8594,1123.125 47.7344,1123.125 Q48.8477,1123.125 49.6289,1122.8711 Q50.0781,1122.7344 50.5859,1122.2852 Q50.918,1122.0313 51.0938,1121.9531 Q51.2695,1121.875 51.4844,1121.875 Q51.8945,1121.875 52.1875,1122.207 Q52.5,1122.5195 52.5,1122.9688 Q52.5,1123.3984 52.0703,1123.9063 Q51.4453,1124.6484 50.4492,1125.0586 Q49.1406,1125.625 47.5391,1125.625 Q45.6641,1125.625 44.1602,1124.8828 Q42.9492,1124.2969 42.0898,1123.0273 Q41.25,1121.7578 41.25,1120.2539 L41.25,1118.8867 Q41.25,1117.3242 41.9922,1115.957 Q42.7539,1114.5898 44.0625,1113.8672 Q45.3906,1113.125 46.875,1113.125 Q47.7734,1113.125 48.5547,1113.4375 Q49.3359,1113.75 50,1114.375 Z " fill="#000000"/><text fill="#000000" font-family="sans-serif" font-size="15" lengthAdjust="spacing" textLength="101.25" x="65" y="1124.8877">TrafficManager</text><line style="stroke:#A80036;stroke-width:1.875;" x1="30" x2="168.75" y1="1138.75" y2="1138.75"/><!--MD5=[0dc7f2ddb409b58bcf52b12238c25399]
class Ship--><rect codeLine="7" fill="#FEFECE" filter="url(#f1nhbzypmnbnee)" height="240.2441" id="Ship" style="stroke:#A80036;stroke-width:1.875;" width="203.75" x="551.25" y="1003.75"/><ellipse cx="632.1875" cy="1023.75" fill="#ADD1B2" rx="13.75" ry="13.75" style="stroke:#A80036;stroke-width:1.25;"/><path d="M634.6875,1019.375 Q634.9414,1018.75 635.2344,1018.4375 Q635.5273,1018.125 635.8594,1018.125 Q636.4453,1018.125 636.8164,1018.4766 Q637.1875,1018.8281 637.1875,1019.6484 L637.1875,1021.6016 Q637.1875,1022.4219 636.8359,1022.7734 Q636.4844,1023.125 635.9375,1023.125 Q635.4492,1023.125 635.1367,1022.9102 Q634.8242,1022.6953 634.6875,1022.1289 Q634.6289,1021.7383 634.4141,1021.5234 Q634.0234,1021.1133 633.3203,1020.8789 Q632.6172,1020.625 631.9141,1020.625 Q631.0352,1020.625 630.293,1020.9766 Q629.5703,1021.3281 629.0039,1022.1094 Q628.4375,1022.8906 628.4375,1023.9648 L628.4375,1025.1172 Q628.4375,1026.4063 629.4922,1027.2656 Q630.5469,1028.125 632.4219,1028.125 Q633.5352,1028.125 634.3164,1027.8711 Q634.7656,1027.7344 635.2734,1027.2852 Q635.6055,1027.0313 635.7813,1026.9531 Q635.957,1026.875 636.1719,1026.875 Q636.582,1026.875 636.875,1027.207 Q637.1875,1027.5195 637.1875,1027.9688 Q637.1875,1028.3984 636.7578,1028.9063 Q636.1328,1029.6484 635.1367,1030.0586 Q633.8281,1030.625 632.2266,1030.625 Q630.3516,1030.625 628.8477,1029.8828 Q627.6367,1029.2969 626.7773,1028.0273 Q625.9375,1026.7578 625.9375,1025.2539 L625.9375,1023.8867 Q625.9375,1022.3242 626.6797,1020.957 Q627.4414,1019.5898 628.75,1018.8672 Q630.0781,1018.125 631.5625,1018.125 Q632.4609,1018.125 633.2422,1018.4375 Q634.0234,1018.75 634.6875,1019.375 Z " fill="#000000"/><text fill="#000000" font-family="sans-serif" font-size="15" lengthAdjust="spacing" textLength="31.25" x="657.8125" y="1029.8877">Ship</text><line style="stroke:#A80036;stroke-width:1.875;" x1="552.5" x2="753.75" y1="1043.75" y2="1043.75"/><rect fill="none" height="7.5" style="stroke:#C82930;stroke-width:1.25;" width="7.5" x="561.25" y="1053.75"/><text fill="#000000" font-family="sans-serif" font-size="13.75" lengthAdjust="spacing" textLength="30" x="576.25" y="1063.0237">mmsi</text><rect fill="none" height="7.5" style="stroke:#C82930;stroke-width:1.25;" width="7.5" x="561.25" y="1071.0449"/><text fill="#000000" font-family="sans-serif" font-size="13.75" lengthAdjust="spacing" textLength="58.75" x="576.25" y="1080.3186">shipName</text><rect fill="none" height="7.5" style="stroke:#C82930;stroke-width:1.25;" width="7.5" x="561.25" y="1088.3398"/><text fill="#000000" font-family="sans-serif" font-size="13.75" lengthAdjust="spacing" textLength="30" x="576.25" y="1097.6135">imoId</text><rect fill="none" height="7.5" style="stroke:#C82930;stroke-width:1.25;" width="7.5" x="561.25" y="1105.6348"/><text fill="#000000" font-family="sans-serif" font-size="13.75" lengthAdjust="spacing" textLength="171.25" x="576.25" y="1114.9084">numberOfEnergyGenerators</text><rect fill="none" height="7.5" style="stroke:#C82930;stroke-width:1.25;" width="7.5" x="561.25" y="1122.9297"/><text fill="#000000" font-family="sans-serif" font-size="13.75" lengthAdjust="spacing" textLength="146.25" x="576.25" y="1132.2034">generatorsPowerOutput</text><rect fill="none" height="7.5" style="stroke:#C82930;stroke-width:1.25;" width="7.5" x="561.25" y="1140.2246"/><text fill="#000000" font-family="sans-serif" font-size="13.75" lengthAdjust="spacing" textLength="46.25" x="576.25" y="1149.4983">callSign</text><rect fill="none" height="7.5" style="stroke:#C82930;stroke-width:1.25;" width="7.5" x="561.25" y="1157.5195"/><text fill="#000000" font-family="sans-serif" font-size="13.75" lengthAdjust="spacing" textLength="70" x="576.25" y="1166.7932">vesselType</text><rect fill="none" height="7.5" style="stroke:#C82930;stroke-width:1.25;" width="7.5" x="561.25" y="1174.8145"/><text fill="#000000" font-family="sans-serif" font-size="13.75" lengthAdjust="spacing" textLength="36.25" x="576.25" y="1184.0881">lenght</text><rect fill="none" height="7.5" style="stroke:#C82930;stroke-width:1.25;" width="7.5" x="561.25" y="1192.1094"/><text fill="#000000" font-family="sans-serif" font-size="13.75" lengthAdjust="spacing" textLength="33.75" x="576.25" y="1201.3831">width</text><rect fill="none" height="7.5" style="stroke:#C82930;stroke-width:1.25;" width="7.5" x="561.25" y="1209.4043"/><text fill="#000000" font-family="sans-serif" font-size="13.75" lengthAdjust="spacing" textLength="51.25" x="576.25" y="1218.678">capacity</text><rect fill="none" height="7.5" style="stroke:#C82930;stroke-width:1.25;" width="7.5" x="561.25" y="1226.6992"/><text fill="#000000" font-family="sans-serif" font-size="13.75" lengthAdjust="spacing" textLength="28.75" x="576.25" y="1235.9729">draft</text><!--MD5=[a8ffbd38daa8a369450c487507013c0d]
class ShipDynamicFields--><rect codeLine="21" fill="#FEFECE" filter="url(#f1nhbzypmnbnee)" height="188.3594" id="ShipDynamicFields" style="stroke:#A80036;stroke-width:1.875;" width="173.75" x="372.5" y="1410"/><ellipse cx="391.25" cy="1430" fill="#ADD1B2" rx="13.75" ry="13.75" style="stroke:#A80036;stroke-width:1.25;"/><path d="M393.75,1425.625 Q394.0039,1425 394.2969,1424.6875 Q394.5898,1424.375 394.9219,1424.375 Q395.5078,1424.375 395.8789,1424.7266 Q396.25,1425.0781 396.25,1425.8984 L396.25,1427.8516 Q396.25,1428.6719 395.8984,1429.0234 Q395.5469,1429.375 395,1429.375 Q394.5117,1429.375 394.1992,1429.1602 Q393.8867,1428.9453 393.75,1428.3789 Q393.6914,1427.9883 393.4766,1427.7734 Q393.0859,1427.3633 392.3828,1427.1289 Q391.6797,1426.875 390.9766,1426.875 Q390.0977,1426.875 389.3555,1427.2266 Q388.6328,1427.5781 388.0664,1428.3594 Q387.5,1429.1406 387.5,1430.2148 L387.5,1431.3672 Q387.5,1432.6563 388.5547,1433.5156 Q389.6094,1434.375 391.4844,1434.375 Q392.5977,1434.375 393.3789,1434.1211 Q393.8281,1433.9844 394.3359,1433.5352 Q394.668,1433.2813 394.8438,1433.2031 Q395.0195,1433.125 395.2344,1433.125 Q395.6445,1433.125 395.9375,1433.457 Q396.25,1433.7695 396.25,1434.2188 Q396.25,1434.6484 395.8203,1435.1563 Q395.1953,1435.8984 394.1992,1436.3086 Q392.8906,1436.875 391.2891,1436.875 Q389.4141,1436.875 387.9102,1436.1328 Q386.6992,1435.5469 385.8398,1434.2773 Q385,1433.0078 385,1431.5039 L385,1430.1367 Q385,1428.5742 385.7422,1427.207 Q386.5039,1425.8398 387.8125,1425.1172 Q389.1406,1424.375 390.625,1424.375 Q391.5234,1424.375 392.3047,1424.6875 Q393.0859,1425 393.75,1425.625 Z " fill="#000000"/><text fill="#000000" font-family="sans-serif" font-size="15" lengthAdjust="spacing" textLength="133.75" x="408.75" y="1436.1377">ShipDynamicFields</text><line style="stroke:#A80036;stroke-width:1.875;" x1="373.75" x2="545" y1="1450" y2="1450"/><rect fill="none" height="7.5" style="stroke:#C82930;stroke-width:1.25;" width="7.5" x="382.5" y="1460"/><text fill="#000000" font-family="sans-serif" font-size="13.75" lengthAdjust="spacing" textLength="53.75" x="397.5" y="1469.2737">dateTime</text><rect fill="none" height="7.5" style="stroke:#C82930;stroke-width:1.25;" width="7.5" x="382.5" y="1477.2949"/><text fill="#000000" font-family="sans-serif" font-size="13.75" lengthAdjust="spacing" textLength="25" x="397.5" y="1486.5686">long</text><rect fill="none" height="7.5" style="stroke:#C82930;stroke-width:1.25;" width="7.5" x="382.5" y="1494.5898"/><text fill="#000000" font-family="sans-serif" font-size="13.75" lengthAdjust="spacing" textLength="13.75" x="397.5" y="1503.8635">lat</text><rect fill="none" height="7.5" style="stroke:#C82930;stroke-width:1.25;" width="7.5" x="382.5" y="1511.8848"/><text fill="#000000" font-family="sans-serif" font-size="13.75" lengthAdjust="spacing" textLength="22.5" x="397.5" y="1521.1584">sog</text><rect fill="none" height="7.5" style="stroke:#C82930;stroke-width:1.25;" width="7.5" x="382.5" y="1529.1797"/><text fill="#000000" font-family="sans-serif" font-size="13.75" lengthAdjust="spacing" textLength="22.5" x="397.5" y="1538.4534">cog</text><rect fill="none" height="7.5" style="stroke:#C82930;stroke-width:1.25;" width="7.5" x="382.5" y="1546.4746"/><text fill="#000000" font-family="sans-serif" font-size="13.75" lengthAdjust="spacing" textLength="47.5" x="397.5" y="1555.7483">heading</text><rect fill="none" height="7.5" style="stroke:#C82930;stroke-width:1.25;" width="7.5" x="382.5" y="1563.7695"/><text fill="#000000" font-family="sans-serif" font-size="13.75" lengthAdjust="spacing" textLength="46.25" x="397.5" y="1573.0432">position</text><rect fill="none" height="7.5" style="stroke:#C82930;stroke-width:1.25;" width="7.5" x="382.5" y="1581.0645"/><text fill="#000000" font-family="sans-serif" font-size="13.75" lengthAdjust="spacing" textLength="102.5" x="397.5" y="1590.3381">transceiverClass</text><!--MD5=[a0bfe97ac0a38e6e74cc1c7c7b744b71]
class Port--><rect codeLine="32" fill="#FEFECE" filter="url(#f1nhbzypmnbnee)" height="153.7695" id="Port" style="stroke:#A80036;stroke-width:1.875;" width="87.5" x="615.625" y="666.25"/><ellipse cx="643.375" cy="686.25" fill="#ADD1B2" rx="13.75" ry="13.75" style="stroke:#A80036;stroke-width:1.25;"/><path d="M645.875,681.875 Q646.1289,681.25 646.4219,680.9375 Q646.7148,680.625 647.0469,680.625 Q647.6328,680.625 648.0039,680.9766 Q648.375,681.3281 648.375,682.1484 L648.375,684.1016 Q648.375,684.9219 648.0234,685.2734 Q647.6719,685.625 647.125,685.625 Q646.6367,685.625 646.3242,685.4102 Q646.0117,685.1953 645.875,684.6289 Q645.8164,684.2383 645.6016,684.0234 Q645.2109,683.6133 644.5078,683.3789 Q643.8047,683.125 643.1016,683.125 Q642.2227,683.125 641.4805,683.4766 Q640.7578,683.8281 640.1914,684.6094 Q639.625,685.3906 639.625,686.4648 L639.625,687.6172 Q639.625,688.9063 640.6797,689.7656 Q641.7344,690.625 643.6094,690.625 Q644.7227,690.625 645.5039,690.3711 Q645.9531,690.2344 646.4609,689.7852 Q646.793,689.5313 646.9688,689.4531 Q647.1445,689.375 647.3594,689.375 Q647.7695,689.375 648.0625,689.707 Q648.375,690.0195 648.375,690.4688 Q648.375,690.8984 647.9453,691.4063 Q647.3203,692.1484 646.3242,692.5586 Q645.0156,693.125 643.4141,693.125 Q641.5391,693.125 640.0352,692.3828 Q638.8242,691.7969 637.9648,690.5273 Q637.125,689.2578 637.125,687.7539 L637.125,686.3867 Q637.125,684.8242 637.8672,683.457 Q638.6289,682.0898 639.9375,681.3672 Q641.2656,680.625 642.75,680.625 Q643.6484,680.625 644.4297,680.9375 Q645.2109,681.25 645.875,681.875 Z " fill="#000000"/><text fill="#000000" font-family="sans-serif" font-size="15" lengthAdjust="spacing" textLength="27.5" x="662.875" y="692.3877">Port</text><line style="stroke:#A80036;stroke-width:1.875;" x1="616.875" x2="701.875" y1="706.25" y2="706.25"/><rect fill="none" height="7.5" style="stroke:#C82930;stroke-width:1.25;" width="7.5" x="625.625" y="716.25"/><text fill="#000000" font-family="sans-serif" font-size="13.75" lengthAdjust="spacing" textLength="30" x="640.625" y="725.5237">code</text><rect fill="none" height="7.5" style="stroke:#C82930;stroke-width:1.25;" width="7.5" x="625.625" y="733.5449"/><text fill="#000000" font-family="sans-serif" font-size="13.75" lengthAdjust="spacing" textLength="23.75" x="640.625" y="742.8186">port</text><rect fill="none" height="7.5" style="stroke:#C82930;stroke-width:1.25;" width="7.5" x="625.625" y="750.8398"/><text fill="#000000" font-family="sans-serif" font-size="13.75" lengthAdjust="spacing" textLength="55" x="640.625" y="760.1135">continent</text><rect fill="none" height="7.5" style="stroke:#C82930;stroke-width:1.25;" width="7.5" x="625.625" y="768.1348"/><text fill="#000000" font-family="sans-serif" font-size="13.75" lengthAdjust="spacing" textLength="46.25" x="640.625" y="777.4084">country</text><rect fill="none" height="7.5" style="stroke:#C82930;stroke-width:1.25;" width="7.5" x="625.625" y="785.4297"/><text fill="#000000" font-family="sans-serif" font-size="13.75" lengthAdjust="spacing" textLength="13.75" x="640.625" y="794.7034">lat</text><rect fill="none" height="7.5" style="stroke:#C82930;stroke-width:1.25;" width="7.5" x="625.625" y="802.7246"/><text fill="#000000" font-family="sans-serif" font-size="13.75" lengthAdjust="spacing" textLength="25" x="640.625" y="811.9983">long</text><!--MD5=[c5149b4909ffd2688ff51a939867f774]
class Warehouse--><rect codeLine="41" fill="#FEFECE" filter="url(#f1nhbzypmnbnee)" height="153.7695" id="Warehouse" style="stroke:#A80036;stroke-width:1.875;" width="120" x="361.875" y="8.75"/><ellipse cx="380.625" cy="28.75" fill="#ADD1B2" rx="13.75" ry="13.75" style="stroke:#A80036;stroke-width:1.25;"/><path d="M383.125,24.375 Q383.3789,23.75 383.6719,23.4375 Q383.9648,23.125 384.2969,23.125 Q384.8828,23.125 385.2539,23.4766 Q385.625,23.8281 385.625,24.6484 L385.625,26.6016 Q385.625,27.4219 385.2734,27.7734 Q384.9219,28.125 384.375,28.125 Q383.8867,28.125 383.5742,27.9102 Q383.2617,27.6953 383.125,27.1289 Q383.0664,26.7383 382.8516,26.5234 Q382.4609,26.1133 381.7578,25.8789 Q381.0547,25.625 380.3516,25.625 Q379.4727,25.625 378.7305,25.9766 Q378.0078,26.3281 377.4414,27.1094 Q376.875,27.8906 376.875,28.9648 L376.875,30.1172 Q376.875,31.4063 377.9297,32.2656 Q378.9844,33.125 380.8594,33.125 Q381.9727,33.125 382.7539,32.8711 Q383.2031,32.7344 383.7109,32.2852 Q384.043,32.0313 384.2188,31.9531 Q384.3945,31.875 384.6094,31.875 Q385.0195,31.875 385.3125,32.207 Q385.625,32.5195 385.625,32.9688 Q385.625,33.3984 385.1953,33.9063 Q384.5703,34.6484 383.5742,35.0586 Q382.2656,35.625 380.6641,35.625 Q378.7891,35.625 377.2852,34.8828 Q376.0742,34.2969 375.2148,33.0273 Q374.375,31.7578 374.375,30.2539 L374.375,28.8867 Q374.375,27.3242 375.1172,25.957 Q375.8789,24.5898 377.1875,23.8672 Q378.5156,23.125 380,23.125 Q380.8984,23.125 381.6797,23.4375 Q382.4609,23.75 383.125,24.375 Z " fill="#000000"/><text fill="#000000" font-family="sans-serif" font-size="15" lengthAdjust="spacing" textLength="80" x="398.125" y="34.8877">Warehouse</text><line style="stroke:#A80036;stroke-width:1.875;" x1="363.125" x2="480.625" y1="48.75" y2="48.75"/><rect fill="none" height="7.5" style="stroke:#C82930;stroke-width:1.25;" width="7.5" x="371.875" y="58.75"/><text fill="#000000" font-family="sans-serif" font-size="13.75" lengthAdjust="spacing" textLength="75" x="386.875" y="68.0237">identification</text><rect fill="none" height="7.5" style="stroke:#C82930;stroke-width:1.25;" width="7.5" x="371.875" y="76.0449"/><text fill="#000000" font-family="sans-serif" font-size="13.75" lengthAdjust="spacing" textLength="32.5" x="386.875" y="85.3186">name</text><rect fill="none" height="7.5" style="stroke:#C82930;stroke-width:1.25;" width="7.5" x="371.875" y="93.3398"/><text fill="#000000" font-family="sans-serif" font-size="13.75" lengthAdjust="spacing" textLength="55" x="386.875" y="102.6135">continent</text><rect fill="none" height="7.5" style="stroke:#C82930;stroke-width:1.25;" width="7.5" x="371.875" y="110.6348"/><text fill="#000000" font-family="sans-serif" font-size="13.75" lengthAdjust="spacing" textLength="46.25" x="386.875" y="119.9084">country</text><rect fill="none" height="7.5" style="stroke:#C82930;stroke-width:1.25;" width="7.5" x="371.875" y="127.9297"/><text fill="#000000" font-family="sans-serif" font-size="13.75" lengthAdjust="spacing" textLength="13.75" x="386.875" y="137.2034">lat</text><rect fill="none" height="7.5" style="stroke:#C82930;stroke-width:1.25;" width="7.5" x="371.875" y="145.2246"/><text fill="#000000" font-family="sans-serif" font-size="13.75" lengthAdjust="spacing" textLength="25" x="386.875" y="154.4983">long</text><!--MD5=[a3093aa9f96b7df9aab31d8715601ff6]
class Containers--><rect codeLine="50" fill="#FEFECE" filter="url(#f1nhbzypmnbnee)" height="222.9492" id="Containers" style="stroke:#A80036;stroke-width:1.875;" width="116.25" x="862.5" y="260"/><ellipse cx="881.25" cy="280" fill="#ADD1B2" rx="13.75" ry="13.75" style="stroke:#A80036;stroke-width:1.25;"/><path d="M883.75,275.625 Q884.0039,275 884.2969,274.6875 Q884.5898,274.375 884.9219,274.375 Q885.5078,274.375 885.8789,274.7266 Q886.25,275.0781 886.25,275.8984 L886.25,277.8516 Q886.25,278.6719 885.8984,279.0234 Q885.5469,279.375 885,279.375 Q884.5117,279.375 884.1992,279.1602 Q883.8867,278.9453 883.75,278.3789 Q883.6914,277.9883 883.4766,277.7734 Q883.0859,277.3633 882.3828,277.1289 Q881.6797,276.875 880.9766,276.875 Q880.0977,276.875 879.3555,277.2266 Q878.6328,277.5781 878.0664,278.3594 Q877.5,279.1406 877.5,280.2148 L877.5,281.3672 Q877.5,282.6563 878.5547,283.5156 Q879.6094,284.375 881.4844,284.375 Q882.5977,284.375 883.3789,284.1211 Q883.8281,283.9844 884.3359,283.5352 Q884.668,283.2813 884.8438,283.2031 Q885.0195,283.125 885.2344,283.125 Q885.6445,283.125 885.9375,283.457 Q886.25,283.7695 886.25,284.2188 Q886.25,284.6484 885.8203,285.1563 Q885.1953,285.8984 884.1992,286.3086 Q882.8906,286.875 881.2891,286.875 Q879.4141,286.875 877.9102,286.1328 Q876.6992,285.5469 875.8398,284.2773 Q875,283.0078 875,281.5039 L875,280.1367 Q875,278.5742 875.7422,277.207 Q876.5039,275.8398 877.8125,275.1172 Q879.1406,274.375 880.625,274.375 Q881.5234,274.375 882.3047,274.6875 Q883.0859,275 883.75,275.625 Z " fill="#000000"/><text fill="#000000" font-family="sans-serif" font-size="15" lengthAdjust="spacing" textLength="76.25" x="898.75" y="286.1377">Containers</text><line style="stroke:#A80036;stroke-width:1.875;" x1="863.75" x2="977.5" y1="300" y2="300"/><rect fill="none" height="7.5" style="stroke:#C82930;stroke-width:1.25;" width="7.5" x="872.5" y="310"/><text fill="#000000" font-family="sans-serif" font-size="13.75" lengthAdjust="spacing" textLength="75" x="887.5" y="319.2737">identification</text><rect fill="none" height="7.5" style="stroke:#C82930;stroke-width:1.25;" width="7.5" x="872.5" y="327.2949"/><text fill="#000000" font-family="sans-serif" font-size="13.75" lengthAdjust="spacing" textLength="47.5" x="887.5" y="336.5686">payload</text><rect fill="none" height="7.5" style="stroke:#C82930;stroke-width:1.25;" width="7.5" x="872.5" y="344.5898"/><text fill="#000000" font-family="sans-serif" font-size="13.75" lengthAdjust="spacing" textLength="23.75" x="887.5" y="353.8635">tare</text><rect fill="none" height="7.5" style="stroke:#C82930;stroke-width:1.25;" width="7.5" x="872.5" y="361.8848"/><text fill="#000000" font-family="sans-serif" font-size="13.75" lengthAdjust="spacing" textLength="35" x="887.5" y="371.1584">gross</text><rect fill="none" height="7.5" style="stroke:#C82930;stroke-width:1.25;" width="7.5" x="872.5" y="379.1797"/><text fill="#000000" font-family="sans-serif" font-size="13.75" lengthAdjust="spacing" textLength="48.75" x="887.5" y="388.4534">isoCode</text><rect fill="none" height="7.5" style="stroke:#C82930;stroke-width:1.25;" width="7.5" x="872.5" y="396.4746"/><text fill="#000000" font-family="sans-serif" font-size="13.75" lengthAdjust="spacing" textLength="36.25" x="887.5" y="405.7483">lenght</text><rect fill="none" height="7.5" style="stroke:#C82930;stroke-width:1.25;" width="7.5" x="872.5" y="413.7695"/><text fill="#000000" font-family="sans-serif" font-size="13.75" lengthAdjust="spacing" textLength="33.75" x="887.5" y="423.0432">width</text><rect fill="none" height="7.5" style="stroke:#C82930;stroke-width:1.25;" width="7.5" x="872.5" y="431.0645"/><text fill="#000000" font-family="sans-serif" font-size="13.75" lengthAdjust="spacing" textLength="36.25" x="887.5" y="440.3381">height</text><rect fill="none" height="7.5" style="stroke:#C82930;stroke-width:1.25;" width="7.5" x="872.5" y="448.3594"/><text fill="#000000" font-family="sans-serif" font-size="13.75" lengthAdjust="spacing" textLength="72.5" x="887.5" y="457.6331">temperature</text><rect fill="none" height="7.5" style="stroke:#C82930;stroke-width:1.25;" width="7.5" x="872.5" y="465.6543"/><text fill="#000000" font-family="sans-serif" font-size="13.75" lengthAdjust="spacing" textLength="71.25" x="887.5" y="474.928">coordinates</text><!--MD5=[ed6624c6556d5e7b1bd23032162d20b7]
class Client--><rect codeLine="63" fill="#FEFECE" filter="url(#f1nhbzypmnbnee)" height="50" id="Client" style="stroke:#A80036;stroke-width:1.875;" width="80" x="879.375" y="718.125"/><ellipse cx="898.125" cy="738.125" fill="#ADD1B2" rx="13.75" ry="13.75" style="stroke:#A80036;stroke-width:1.25;"/><path d="M900.625,733.75 Q900.8789,733.125 901.1719,732.8125 Q901.4648,732.5 901.7969,732.5 Q902.3828,732.5 902.7539,732.8516 Q903.125,733.2031 903.125,734.0234 L903.125,735.9766 Q903.125,736.7969 902.7734,737.1484 Q902.4219,737.5 901.875,737.5 Q901.3867,737.5 901.0742,737.2852 Q900.7617,737.0703 900.625,736.5039 Q900.5664,736.1133 900.3516,735.8984 Q899.9609,735.4883 899.2578,735.2539 Q898.5547,735 897.8516,735 Q896.9727,735 896.2305,735.3516 Q895.5078,735.7031 894.9414,736.4844 Q894.375,737.2656 894.375,738.3398 L894.375,739.4922 Q894.375,740.7813 895.4297,741.6406 Q896.4844,742.5 898.3594,742.5 Q899.4727,742.5 900.2539,742.2461 Q900.7031,742.1094 901.2109,741.6602 Q901.543,741.4063 901.7188,741.3281 Q901.8945,741.25 902.1094,741.25 Q902.5195,741.25 902.8125,741.582 Q903.125,741.8945 903.125,742.3438 Q903.125,742.7734 902.6953,743.2813 Q902.0703,744.0234 901.0742,744.4336 Q899.7656,745 898.1641,745 Q896.2891,745 894.7852,744.2578 Q893.5742,743.6719 892.7148,742.4023 Q891.875,741.1328 891.875,739.6289 L891.875,738.2617 Q891.875,736.6992 892.6172,735.332 Q893.3789,733.9648 894.6875,733.2422 Q896.0156,732.5 897.5,732.5 Q898.3984,732.5 899.1797,732.8125 Q899.9609,733.125 900.625,733.75 Z " fill="#000000"/><text fill="#000000" font-family="sans-serif" font-size="15" lengthAdjust="spacing" textLength="40" x="915.625" y="744.2627">Client</text><line style="stroke:#A80036;stroke-width:1.875;" x1="880.625" x2="958.125" y1="758.125" y2="758.125"/><!--MD5=[76562047389981627aea27c31a97aff5]
class CargoManifest--><rect codeLine="67" fill="#FEFECE" filter="url(#f1nhbzypmnbnee)" height="101.8848" id="CargoManifest" style="stroke:#A80036;stroke-width:1.875;" width="167.5" x="575.625" y="320"/><ellipse cx="606.75" cy="340" fill="#ADD1B2" rx="13.75" ry="13.75" style="stroke:#A80036;stroke-width:1.25;"/><path d="M609.25,335.625 Q609.5039,335 609.7969,334.6875 Q610.0898,334.375 610.4219,334.375 Q611.0078,334.375 611.3789,334.7266 Q611.75,335.0781 611.75,335.8984 L611.75,337.8516 Q611.75,338.6719 611.3984,339.0234 Q611.0469,339.375 610.5,339.375 Q610.0117,339.375 609.6992,339.1602 Q609.3867,338.9453 609.25,338.3789 Q609.1914,337.9883 608.9766,337.7734 Q608.5859,337.3633 607.8828,337.1289 Q607.1797,336.875 606.4766,336.875 Q605.5977,336.875 604.8555,337.2266 Q604.1328,337.5781 603.5664,338.3594 Q603,339.1406 603,340.2148 L603,341.3672 Q603,342.6563 604.0547,343.5156 Q605.1094,344.375 606.9844,344.375 Q608.0977,344.375 608.8789,344.1211 Q609.3281,343.9844 609.8359,343.5352 Q610.168,343.2813 610.3438,343.2031 Q610.5195,343.125 610.7344,343.125 Q611.1445,343.125 611.4375,343.457 Q611.75,343.7695 611.75,344.2188 Q611.75,344.6484 611.3203,345.1563 Q610.6953,345.8984 609.6992,346.3086 Q608.3906,346.875 606.7891,346.875 Q604.9141,346.875 603.4102,346.1328 Q602.1992,345.5469 601.3398,344.2773 Q600.5,343.0078 600.5,341.5039 L600.5,340.1367 Q600.5,338.5742 601.2422,337.207 Q602.0039,335.8398 603.3125,335.1172 Q604.6406,334.375 606.125,334.375 Q607.0234,334.375 607.8047,334.6875 Q608.5859,335 609.25,335.625 Z " fill="#000000"/><text fill="#000000" font-family="sans-serif" font-size="15" lengthAdjust="spacing" textLength="100" x="627" y="346.1377">CargoManifest</text><line style="stroke:#A80036;stroke-width:1.875;" x1="576.875" x2="741.875" y1="360" y2="360"/><rect fill="none" height="7.5" style="stroke:#C82930;stroke-width:1.25;" width="7.5" x="585.625" y="370"/><text fill="#000000" font-family="sans-serif" font-size="13.75" lengthAdjust="spacing" textLength="66.25" x="600.625" y="379.2737">containerId</text><rect fill="none" height="7.5" style="stroke:#C82930;stroke-width:1.25;" width="7.5" x="585.625" y="387.2949"/><text fill="#000000" font-family="sans-serif" font-size="13.75" lengthAdjust="spacing" textLength="78.75" x="600.625" y="396.5686">containerPos</text><rect fill="none" height="7.5" style="stroke:#C82930;stroke-width:1.25;" width="7.5" x="585.625" y="404.5898"/><text fill="#000000" font-family="sans-serif" font-size="13.75" lengthAdjust="spacing" textLength="135" x="600.625" y="413.8635">containerGrossWeight</text><!--MD5=[f2ba7f6ab60af8dd0d3e354f91729b14]
class Truck--><rect codeLine="73" fill="#FEFECE" filter="url(#f1nhbzypmnbnee)" height="50" id="Truck" style="stroke:#A80036;stroke-width:1.875;" width="77.5" x="1024.375" y="60.625"/><ellipse cx="1043.125" cy="80.625" fill="#ADD1B2" rx="13.75" ry="13.75" style="stroke:#A80036;stroke-width:1.25;"/><path d="M1045.625,76.25 Q1045.8789,75.625 1046.1719,75.3125 Q1046.4648,75 1046.7969,75 Q1047.3828,75 1047.7539,75.3516 Q1048.125,75.7031 1048.125,76.5234 L1048.125,78.4766 Q1048.125,79.2969 1047.7734,79.6484 Q1047.4219,80 1046.875,80 Q1046.3867,80 1046.0742,79.7852 Q1045.7617,79.5703 1045.625,79.0039 Q1045.5664,78.6133 1045.3516,78.3984 Q1044.9609,77.9883 1044.2578,77.7539 Q1043.5547,77.5 1042.8516,77.5 Q1041.9727,77.5 1041.2305,77.8516 Q1040.5078,78.2031 1039.9414,78.9844 Q1039.375,79.7656 1039.375,80.8398 L1039.375,81.9922 Q1039.375,83.2813 1040.4297,84.1406 Q1041.4844,85 1043.3594,85 Q1044.4727,85 1045.2539,84.7461 Q1045.7031,84.6094 1046.2109,84.1602 Q1046.543,83.9063 1046.7188,83.8281 Q1046.8945,83.75 1047.1094,83.75 Q1047.5195,83.75 1047.8125,84.082 Q1048.125,84.3945 1048.125,84.8438 Q1048.125,85.2734 1047.6953,85.7813 Q1047.0703,86.5234 1046.0742,86.9336 Q1044.7656,87.5 1043.1641,87.5 Q1041.2891,87.5 1039.7852,86.7578 Q1038.5742,86.1719 1037.7148,84.9023 Q1036.875,83.6328 1036.875,82.1289 L1036.875,80.7617 Q1036.875,79.1992 1037.6172,77.832 Q1038.3789,76.4648 1039.6875,75.7422 Q1041.0156,75 1042.5,75 Q1043.3984,75 1044.1797,75.3125 Q1044.9609,75.625 1045.625,76.25 Z " fill="#000000"/><text fill="#000000" font-family="sans-serif" font-size="15" lengthAdjust="spacing" textLength="37.5" x="1060.625" y="86.7627">Truck</text><line style="stroke:#A80036;stroke-width:1.875;" x1="1025.625" x2="1100.625" y1="100.625" y2="100.625"/><!--MD5=[019a73386217e12d5bb8e34bf0b46b9e]
class FleetManager--><rect codeLine="76" fill="#FEFECE" filter="url(#f1nhbzypmnbnee)" height="50" id="FleetManager" style="stroke:#A80036;stroke-width:1.875;" width="133.75" x="1031.25" y="1098.75"/><ellipse cx="1050" cy="1118.75" fill="#ADD1B2" rx="13.75" ry="13.75" style="stroke:#A80036;stroke-width:1.25;"/><path d="M1052.5,1114.375 Q1052.7539,1113.75 1053.0469,1113.4375 Q1053.3398,1113.125 1053.6719,1113.125 Q1054.2578,1113.125 1054.6289,1113.4766 Q1055,1113.8281 1055,1114.6484 L1055,1116.6016 Q1055,1117.4219 1054.6484,1117.7734 Q1054.2969,1118.125 1053.75,1118.125 Q1053.2617,1118.125 1052.9492,1117.9102 Q1052.6367,1117.6953 1052.5,1117.1289 Q1052.4414,1116.7383 1052.2266,1116.5234 Q1051.8359,1116.1133 1051.1328,1115.8789 Q1050.4297,1115.625 1049.7266,1115.625 Q1048.8477,1115.625 1048.1055,1115.9766 Q1047.3828,1116.3281 1046.8164,1117.1094 Q1046.25,1117.8906 1046.25,1118.9648 L1046.25,1120.1172 Q1046.25,1121.4063 1047.3047,1122.2656 Q1048.3594,1123.125 1050.2344,1123.125 Q1051.3477,1123.125 1052.1289,1122.8711 Q1052.5781,1122.7344 1053.0859,1122.2852 Q1053.418,1122.0313 1053.5938,1121.9531 Q1053.7695,1121.875 1053.9844,1121.875 Q1054.3945,1121.875 1054.6875,1122.207 Q1055,1122.5195 1055,1122.9688 Q1055,1123.3984 1054.5703,1123.9063 Q1053.9453,1124.6484 1052.9492,1125.0586 Q1051.6406,1125.625 1050.0391,1125.625 Q1048.1641,1125.625 1046.6602,1124.8828 Q1045.4492,1124.2969 1044.5898,1123.0273 Q1043.75,1121.7578 1043.75,1120.2539 L1043.75,1118.8867 Q1043.75,1117.3242 1044.4922,1115.957 Q1045.2539,1114.5898 1046.5625,1113.8672 Q1047.8906,1113.125 1049.375,1113.125 Q1050.2734,1113.125 1051.0547,1113.4375 Q1051.8359,1113.75 1052.5,1114.375 Z " fill="#000000"/><text fill="#000000" font-family="sans-serif" font-size="15" lengthAdjust="spacing" textLength="93.75" x="1067.5" y="1124.8877">FleetManager</text><line style="stroke:#A80036;stroke-width:1.875;" x1="1032.5" x2="1163.75" y1="1138.75" y2="1138.75"/><!--MD5=[7fcbedb88579745280c367cebf31fce2]
class WarehouseStaff--><rect codeLine="79" fill="#FEFECE" filter="url(#f1nhbzypmnbnee)" height="50" id="WarehouseStaff" style="stroke:#A80036;stroke-width:1.875;" width="150" x="586.875" y="60.625"/><ellipse cx="605.625" cy="80.625" fill="#ADD1B2" rx="13.75" ry="13.75" style="stroke:#A80036;stroke-width:1.25;"/><path d="M608.125,76.25 Q608.3789,75.625 608.6719,75.3125 Q608.9648,75 609.2969,75 Q609.8828,75 610.2539,75.3516 Q610.625,75.7031 610.625,76.5234 L610.625,78.4766 Q610.625,79.2969 610.2734,79.6484 Q609.9219,80 609.375,80 Q608.8867,80 608.5742,79.7852 Q608.2617,79.5703 608.125,79.0039 Q608.0664,78.6133 607.8516,78.3984 Q607.4609,77.9883 606.7578,77.7539 Q606.0547,77.5 605.3516,77.5 Q604.4727,77.5 603.7305,77.8516 Q603.0078,78.2031 602.4414,78.9844 Q601.875,79.7656 601.875,80.8398 L601.875,81.9922 Q601.875,83.2813 602.9297,84.1406 Q603.9844,85 605.8594,85 Q606.9727,85 607.7539,84.7461 Q608.2031,84.6094 608.7109,84.1602 Q609.043,83.9063 609.2188,83.8281 Q609.3945,83.75 609.6094,83.75 Q610.0195,83.75 610.3125,84.082 Q610.625,84.3945 610.625,84.8438 Q610.625,85.2734 610.1953,85.7813 Q609.5703,86.5234 608.5742,86.9336 Q607.2656,87.5 605.6641,87.5 Q603.7891,87.5 602.2852,86.7578 Q601.0742,86.1719 600.2148,84.9023 Q599.375,83.6328 599.375,82.1289 L599.375,80.7617 Q599.375,79.1992 600.1172,77.832 Q600.8789,76.4648 602.1875,75.7422 Q603.5156,75 605,75 Q605.8984,75 606.6797,75.3125 Q607.4609,75.625 608.125,76.25 Z " fill="#000000"/><text fill="#000000" font-family="sans-serif" font-size="15" lengthAdjust="spacing" textLength="110" x="623.125" y="86.7627">WarehouseStaff</text><line style="stroke:#A80036;stroke-width:1.875;" x1="588.125" x2="735.625" y1="100.625" y2="100.625"/><!--MD5=[5e1deb958606d83ef5f4988eb2b8f966]
class WarehouseManager--><rect codeLine="82" fill="#FEFECE" filter="url(#f1nhbzypmnbnee)" height="50" id="WarehouseManager" style="stroke:#A80036;stroke-width:1.875;" width="180" x="53.125" y="60.625"/><ellipse cx="71.875" cy="80.625" fill="#ADD1B2" rx="13.75" ry="13.75" style="stroke:#A80036;stroke-width:1.25;"/><path d="M74.375,76.25 Q74.6289,75.625 74.9219,75.3125 Q75.2148,75 75.5469,75 Q76.1328,75 76.5039,75.3516 Q76.875,75.7031 76.875,76.5234 L76.875,78.4766 Q76.875,79.2969 76.5234,79.6484 Q76.1719,80 75.625,80 Q75.1367,80 74.8242,79.7852 Q74.5117,79.5703 74.375,79.0039 Q74.3164,78.6133 74.1016,78.3984 Q73.7109,77.9883 73.0078,77.7539 Q72.3047,77.5 71.6016,77.5 Q70.7227,77.5 69.9805,77.8516 Q69.2578,78.2031 68.6914,78.9844 Q68.125,79.7656 68.125,80.8398 L68.125,81.9922 Q68.125,83.2813 69.1797,84.1406 Q70.2344,85 72.1094,85 Q73.2227,85 74.0039,84.7461 Q74.4531,84.6094 74.9609,84.1602 Q75.293,83.9063 75.4688,83.8281 Q75.6445,83.75 75.8594,83.75 Q76.2695,83.75 76.5625,84.082 Q76.875,84.3945 76.875,84.8438 Q76.875,85.2734 76.4453,85.7813 Q75.8203,86.5234 74.8242,86.9336 Q73.5156,87.5 71.9141,87.5 Q70.0391,87.5 68.5352,86.7578 Q67.3242,86.1719 66.4648,84.9023 Q65.625,83.6328 65.625,82.1289 L65.625,80.7617 Q65.625,79.1992 66.3672,77.832 Q67.1289,76.4648 68.4375,75.7422 Q69.7656,75 71.25,75 Q72.1484,75 72.9297,75.3125 Q73.7109,75.625 74.375,76.25 Z " fill="#000000"/><text fill="#000000" font-family="sans-serif" font-size="15" lengthAdjust="spacing" textLength="140" x="89.375" y="86.7627">WarehouseManager</text><line style="stroke:#A80036;stroke-width:1.875;" x1="54.375" x2="231.875" y1="100.625" y2="100.625"/><!--MD5=[a0e14dc1c5f22798a4d68a7546a0e1d4]
class PortStaff--><rect codeLine="85" fill="#FEFECE" filter="url(#f1nhbzypmnbnee)" height="50" id="PortStaff" style="stroke:#A80036;stroke-width:1.875;" width="97.5" x="1003.125" y="718.125"/><ellipse cx="1021.875" cy="738.125" fill="#ADD1B2" rx="13.75" ry="13.75" style="stroke:#A80036;stroke-width:1.25;"/><path d="M1024.375,733.75 Q1024.6289,733.125 1024.9219,732.8125 Q1025.2148,732.5 1025.5469,732.5 Q1026.1328,732.5 1026.5039,732.8516 Q1026.875,733.2031 1026.875,734.0234 L1026.875,735.9766 Q1026.875,736.7969 1026.5234,737.1484 Q1026.1719,737.5 1025.625,737.5 Q1025.1367,737.5 1024.8242,737.2852 Q1024.5117,737.0703 1024.375,736.5039 Q1024.3164,736.1133 1024.1016,735.8984 Q1023.7109,735.4883 1023.0078,735.2539 Q1022.3047,735 1021.6016,735 Q1020.7227,735 1019.9805,735.3516 Q1019.2578,735.7031 1018.6914,736.4844 Q1018.125,737.2656 1018.125,738.3398 L1018.125,739.4922 Q1018.125,740.7813 1019.1797,741.6406 Q1020.2344,742.5 1022.1094,742.5 Q1023.2227,742.5 1024.0039,742.2461 Q1024.4531,742.1094 1024.9609,741.6602 Q1025.293,741.4063 1025.4688,741.3281 Q1025.6445,741.25 1025.8594,741.25 Q1026.2695,741.25 1026.5625,741.582 Q1026.875,741.8945 1026.875,742.3438 Q1026.875,742.7734 1026.4453,743.2813 Q1025.8203,744.0234 1024.8242,744.4336 Q1023.5156,745 1021.9141,745 Q1020.0391,745 1018.5352,744.2578 Q1017.3242,743.6719 1016.4648,742.4023 Q1015.625,741.1328 1015.625,739.6289 L1015.625,738.2617 Q1015.625,736.6992 1016.3672,735.332 Q1017.1289,733.9648 1018.4375,733.2422 Q1019.7656,732.5 1021.25,732.5 Q1022.1484,732.5 1022.9297,732.8125 Q1023.7109,733.125 1024.375,733.75 Z " fill="#000000"/><text fill="#000000" font-family="sans-serif" font-size="15" lengthAdjust="spacing" textLength="57.5" x="1039.375" y="744.2627">PortStaff</text><line style="stroke:#A80036;stroke-width:1.875;" x1="1004.375" x2="1099.375" y1="758.125" y2="758.125"/><!--MD5=[99d8f1361a72f685c413d1fd21efef1c]
class PortManager--><rect codeLine="88" fill="#FEFECE" filter="url(#f1nhbzypmnbnee)" height="50" id="PortManager" style="stroke:#A80036;stroke-width:1.875;" width="127.5" x="359.375" y="718.125"/><ellipse cx="378.125" cy="738.125" fill="#ADD1B2" rx="13.75" ry="13.75" style="stroke:#A80036;stroke-width:1.25;"/><path d="M380.625,733.75 Q380.8789,733.125 381.1719,732.8125 Q381.4648,732.5 381.7969,732.5 Q382.3828,732.5 382.7539,732.8516 Q383.125,733.2031 383.125,734.0234 L383.125,735.9766 Q383.125,736.7969 382.7734,737.1484 Q382.4219,737.5 381.875,737.5 Q381.3867,737.5 381.0742,737.2852 Q380.7617,737.0703 380.625,736.5039 Q380.5664,736.1133 380.3516,735.8984 Q379.9609,735.4883 379.2578,735.2539 Q378.5547,735 377.8516,735 Q376.9727,735 376.2305,735.3516 Q375.5078,735.7031 374.9414,736.4844 Q374.375,737.2656 374.375,738.3398 L374.375,739.4922 Q374.375,740.7813 375.4297,741.6406 Q376.4844,742.5 378.3594,742.5 Q379.4727,742.5 380.2539,742.2461 Q380.7031,742.1094 381.2109,741.6602 Q381.543,741.4063 381.7188,741.3281 Q381.8945,741.25 382.1094,741.25 Q382.5195,741.25 382.8125,741.582 Q383.125,741.8945 383.125,742.3438 Q383.125,742.7734 382.6953,743.2813 Q382.0703,744.0234 381.0742,744.4336 Q379.7656,745 378.1641,745 Q376.2891,745 374.7852,744.2578 Q373.5742,743.6719 372.7148,742.4023 Q371.875,741.1328 371.875,739.6289 L371.875,738.2617 Q371.875,736.6992 372.6172,735.332 Q373.3789,733.9648 374.6875,733.2422 Q376.0156,732.5 377.5,732.5 Q378.3984,732.5 379.1797,732.8125 Q379.9609,733.125 380.625,733.75 Z " fill="#000000"/><text fill="#000000" font-family="sans-serif" font-size="15" lengthAdjust="spacing" textLength="87.5" x="395.625" y="744.2627">PortManager</text><line style="stroke:#A80036;stroke-width:1.875;" x1="360.625" x2="485.625" y1="758.125" y2="758.125"/><!--MD5=[e6b394b930674b2255938b8afe6bb7b4]
class ShipCaptain--><rect codeLine="91" fill="#FEFECE" filter="url(#f1nhbzypmnbnee)" height="50" id="ShipCaptain" style="stroke:#A80036;stroke-width:1.875;" width="125" x="590.625" y="1479.375"/><ellipse cx="609.375" cy="1499.375" fill="#ADD1B2" rx="13.75" ry="13.75" style="stroke:#A80036;stroke-width:1.25;"/><path d="M611.875,1495 Q612.1289,1494.375 612.4219,1494.0625 Q612.7148,1493.75 613.0469,1493.75 Q613.6328,1493.75 614.0039,1494.1016 Q614.375,1494.4531 614.375,1495.2734 L614.375,1497.2266 Q614.375,1498.0469 614.0234,1498.3984 Q613.6719,1498.75 613.125,1498.75 Q612.6367,1498.75 612.3242,1498.5352 Q612.0117,1498.3203 611.875,1497.7539 Q611.8164,1497.3633 611.6016,1497.1484 Q611.2109,1496.7383 610.5078,1496.5039 Q609.8047,1496.25 609.1016,1496.25 Q608.2227,1496.25 607.4805,1496.6016 Q606.7578,1496.9531 606.1914,1497.7344 Q605.625,1498.5156 605.625,1499.5898 L605.625,1500.7422 Q605.625,1502.0313 606.6797,1502.8906 Q607.7344,1503.75 609.6094,1503.75 Q610.7227,1503.75 611.5039,1503.4961 Q611.9531,1503.3594 612.4609,1502.9102 Q612.793,1502.6563 612.9688,1502.5781 Q613.1445,1502.5 613.3594,1502.5 Q613.7695,1502.5 614.0625,1502.832 Q614.375,1503.1445 614.375,1503.5938 Q614.375,1504.0234 613.9453,1504.5313 Q613.3203,1505.2734 612.3242,1505.6836 Q611.0156,1506.25 609.4141,1506.25 Q607.5391,1506.25 606.0352,1505.5078 Q604.8242,1504.9219 603.9648,1503.6523 Q603.125,1502.3828 603.125,1500.8789 L603.125,1499.5117 Q603.125,1497.9492 603.8672,1496.582 Q604.6289,1495.2148 605.9375,1494.4922 Q607.2656,1493.75 608.75,1493.75 Q609.6484,1493.75 610.4297,1494.0625 Q611.2109,1494.375 611.875,1495 Z " fill="#000000"/><text fill="#000000" font-family="sans-serif" font-size="15" lengthAdjust="spacing" textLength="85" x="626.875" y="1505.5127">ShipCaptain</text><line style="stroke:#A80036;stroke-width:1.875;" x1="591.875" x2="714.375" y1="1519.375" y2="1519.375"/><!--MD5=[d14076b1fa5ff6fc34e7abc31c5e1daa]
class ShipChiefElectricalEngineer--><rect codeLine="94" fill="#FEFECE" filter="url(#f1nhbzypmnbnee)" height="50" id="ShipChiefElectricalEngineer" style="stroke:#A80036;stroke-width:1.875;" width="232.5" x="214.375" y="1098.75"/><ellipse cx="233.125" cy="1118.75" fill="#ADD1B2" rx="13.75" ry="13.75" style="stroke:#A80036;stroke-width:1.25;"/><path d="M235.625,1114.375 Q235.8789,1113.75 236.1719,1113.4375 Q236.4648,1113.125 236.7969,1113.125 Q237.3828,1113.125 237.7539,1113.4766 Q238.125,1113.8281 238.125,1114.6484 L238.125,1116.6016 Q238.125,1117.4219 237.7734,1117.7734 Q237.4219,1118.125 236.875,1118.125 Q236.3867,1118.125 236.0742,1117.9102 Q235.7617,1117.6953 235.625,1117.1289 Q235.5664,1116.7383 235.3516,1116.5234 Q234.9609,1116.1133 234.2578,1115.8789 Q233.5547,1115.625 232.8516,1115.625 Q231.9727,1115.625 231.2305,1115.9766 Q230.5078,1116.3281 229.9414,1117.1094 Q229.375,1117.8906 229.375,1118.9648 L229.375,1120.1172 Q229.375,1121.4063 230.4297,1122.2656 Q231.4844,1123.125 233.3594,1123.125 Q234.4727,1123.125 235.2539,1122.8711 Q235.7031,1122.7344 236.2109,1122.2852 Q236.543,1122.0313 236.7188,1121.9531 Q236.8945,1121.875 237.1094,1121.875 Q237.5195,1121.875 237.8125,1122.207 Q238.125,1122.5195 238.125,1122.9688 Q238.125,1123.3984 237.6953,1123.9063 Q237.0703,1124.6484 236.0742,1125.0586 Q234.7656,1125.625 233.1641,1125.625 Q231.2891,1125.625 229.7852,1124.8828 Q228.5742,1124.2969 227.7148,1123.0273 Q226.875,1121.7578 226.875,1120.2539 L226.875,1118.8867 Q226.875,1117.3242 227.6172,1115.957 Q228.3789,1114.5898 229.6875,1113.8672 Q231.0156,1113.125 232.5,1113.125 Q233.3984,1113.125 234.1797,1113.4375 Q234.9609,1113.75 235.625,1114.375 Z " fill="#000000"/><text fill="#000000" font-family="sans-serif" font-size="15" lengthAdjust="spacing" textLength="192.5" x="250.625" y="1124.8877">ShipChiefElectricalEngineer</text><line style="stroke:#A80036;stroke-width:1.875;" x1="215.625" x2="445.625" y1="1138.75" y2="1138.75"/><!--MD5=[a93a86a91abc8796b23cdcc7cc3b17ff]
class TruckDriver--><rect codeLine="97" fill="#FEFECE" filter="url(#f1nhbzypmnbnee)" height="50" id="TruckDriver" style="stroke:#A80036;stroke-width:1.875;" width="117.5" x="780.625" y="60.625"/><ellipse cx="799.375" cy="80.625" fill="#ADD1B2" rx="13.75" ry="13.75" style="stroke:#A80036;stroke-width:1.25;"/><path d="M801.875,76.25 Q802.1289,75.625 802.4219,75.3125 Q802.7148,75 803.0469,75 Q803.6328,75 804.0039,75.3516 Q804.375,75.7031 804.375,76.5234 L804.375,78.4766 Q804.375,79.2969 804.0234,79.6484 Q803.6719,80 803.125,80 Q802.6367,80 802.3242,79.7852 Q802.0117,79.5703 801.875,79.0039 Q801.8164,78.6133 801.6016,78.3984 Q801.2109,77.9883 800.5078,77.7539 Q799.8047,77.5 799.1016,77.5 Q798.2227,77.5 797.4805,77.8516 Q796.7578,78.2031 796.1914,78.9844 Q795.625,79.7656 795.625,80.8398 L795.625,81.9922 Q795.625,83.2813 796.6797,84.1406 Q797.7344,85 799.6094,85 Q800.7227,85 801.5039,84.7461 Q801.9531,84.6094 802.4609,84.1602 Q802.793,83.9063 802.9688,83.8281 Q803.1445,83.75 803.3594,83.75 Q803.7695,83.75 804.0625,84.082 Q804.375,84.3945 804.375,84.8438 Q804.375,85.2734 803.9453,85.7813 Q803.3203,86.5234 802.3242,86.9336 Q801.0156,87.5 799.4141,87.5 Q797.5391,87.5 796.0352,86.7578 Q794.8242,86.1719 793.9648,84.9023 Q793.125,83.6328 793.125,82.1289 L793.125,80.7617 Q793.125,79.1992 793.8672,77.832 Q794.6289,76.4648 795.9375,75.7422 Q797.2656,75 798.75,75 Q799.6484,75 800.4297,75.3125 Q801.2109,75.625 801.875,76.25 Z " fill="#000000"/><text fill="#000000" font-family="sans-serif" font-size="15" lengthAdjust="spacing" textLength="77.5" x="816.875" y="86.7627">TruckDriver</text><line style="stroke:#A80036;stroke-width:1.875;" x1="781.875" x2="896.875" y1="100.625" y2="100.625"/><!--MD5=[ac7de62ce9384a92b5e95b1a406bc87c]
class ShipDistance--><rect codeLine="100" fill="#FEFECE" filter="url(#f1nhbzypmnbnee)" height="326.7188" id="ShipDistance" style="stroke:#A80036;stroke-width:1.875;" width="132.5" x="759.375" y="1341.25"/><ellipse cx="778.125" cy="1361.25" fill="#ADD1B2" rx="13.75" ry="13.75" style="stroke:#A80036;stroke-width:1.25;"/><path d="M780.625,1356.875 Q780.8789,1356.25 781.1719,1355.9375 Q781.4648,1355.625 781.7969,1355.625 Q782.3828,1355.625 782.7539,1355.9766 Q783.125,1356.3281 783.125,1357.1484 L783.125,1359.1016 Q783.125,1359.9219 782.7734,1360.2734 Q782.4219,1360.625 781.875,1360.625 Q781.3867,1360.625 781.0742,1360.4102 Q780.7617,1360.1953 780.625,1359.6289 Q780.5664,1359.2383 780.3516,1359.0234 Q779.9609,1358.6133 779.2578,1358.3789 Q778.5547,1358.125 777.8516,1358.125 Q776.9727,1358.125 776.2305,1358.4766 Q775.5078,1358.8281 774.9414,1359.6094 Q774.375,1360.3906 774.375,1361.4648 L774.375,1362.6172 Q774.375,1363.9063 775.4297,1364.7656 Q776.4844,1365.625 778.3594,1365.625 Q779.4727,1365.625 780.2539,1365.3711 Q780.7031,1365.2344 781.2109,1364.7852 Q781.543,1364.5313 781.7188,1364.4531 Q781.8945,1364.375 782.1094,1364.375 Q782.5195,1364.375 782.8125,1364.707 Q783.125,1365.0195 783.125,1365.4688 Q783.125,1365.8984 782.6953,1366.4063 Q782.0703,1367.1484 781.0742,1367.5586 Q779.7656,1368.125 778.1641,1368.125 Q776.2891,1368.125 774.7852,1367.3828 Q773.5742,1366.7969 772.7148,1365.5273 Q771.875,1364.2578 771.875,1362.7539 L771.875,1361.3867 Q771.875,1359.8242 772.6172,1358.457 Q773.3789,1357.0898 774.6875,1356.3672 Q776.0156,1355.625 777.5,1355.625 Q778.3984,1355.625 779.1797,1355.9375 Q779.9609,1356.25 780.625,1356.875 Z " fill="#000000"/><text fill="#000000" font-family="sans-serif" font-size="15" lengthAdjust="spacing" textLength="92.5" x="795.625" y="1367.3877">ShipDistance</text><line style="stroke:#A80036;stroke-width:1.875;" x1="760.625" x2="890.625" y1="1381.25" y2="1381.25"/><rect fill="none" height="7.5" style="stroke:#C82930;stroke-width:1.25;" width="7.5" x="769.375" y="1391.25"/><text fill="#000000" font-family="sans-serif" font-size="13.75" lengthAdjust="spacing" textLength="30" x="784.375" y="1400.5237">mmsi</text><rect fill="none" height="7.5" style="stroke:#C82930;stroke-width:1.25;" width="7.5" x="769.375" y="1408.5449"/><text fill="#000000" font-family="sans-serif" font-size="13.75" lengthAdjust="spacing" textLength="73.75" x="784.375" y="1417.8186">vesselName</text><rect fill="none" height="7.5" style="stroke:#C82930;stroke-width:1.25;" width="7.5" x="769.375" y="1425.8398"/><text fill="#000000" font-family="sans-serif" font-size="13.75" lengthAdjust="spacing" textLength="55" x="784.375" y="1435.1135">startTime</text><rect fill="none" height="7.5" style="stroke:#C82930;stroke-width:1.25;" width="7.5" x="769.375" y="1443.1348"/><text fill="#000000" font-family="sans-serif" font-size="13.75" lengthAdjust="spacing" textLength="50" x="784.375" y="1452.4084">endTime</text><rect fill="none" height="7.5" style="stroke:#C82930;stroke-width:1.25;" width="7.5" x="769.375" y="1460.4297"/><text fill="#000000" font-family="sans-serif" font-size="13.75" lengthAdjust="spacing" textLength="93.75" x="784.375" y="1469.7034">totalMovements</text><rect fill="none" height="7.5" style="stroke:#C82930;stroke-width:1.25;" width="7.5" x="769.375" y="1477.7246"/><text fill="#000000" font-family="sans-serif" font-size="13.75" lengthAdjust="spacing" textLength="52.5" x="784.375" y="1486.9983">totalTime</text><rect fill="none" height="7.5" style="stroke:#C82930;stroke-width:1.25;" width="7.5" x="769.375" y="1495.0195"/><text fill="#000000" font-family="sans-serif" font-size="13.75" lengthAdjust="spacing" textLength="48.75" x="784.375" y="1504.2932">maxSog</text><rect fill="none" height="7.5" style="stroke:#C82930;stroke-width:1.25;" width="7.5" x="769.375" y="1512.3145"/><text fill="#000000" font-family="sans-serif" font-size="13.75" lengthAdjust="spacing" textLength="56.25" x="784.375" y="1521.5881">meanSog</text><rect fill="none" height="7.5" style="stroke:#C82930;stroke-width:1.25;" width="7.5" x="769.375" y="1529.6094"/><text fill="#000000" font-family="sans-serif" font-size="13.75" lengthAdjust="spacing" textLength="48.75" x="784.375" y="1538.8831">maxCog</text><rect fill="none" height="7.5" style="stroke:#C82930;stroke-width:1.25;" width="7.5" x="769.375" y="1546.9043"/><text fill="#000000" font-family="sans-serif" font-size="13.75" lengthAdjust="spacing" textLength="56.25" x="784.375" y="1556.178">meanCog</text><rect fill="none" height="7.5" style="stroke:#C82930;stroke-width:1.25;" width="7.5" x="769.375" y="1564.1992"/><text fill="#000000" font-family="sans-serif" font-size="13.75" lengthAdjust="spacing" textLength="70" x="784.375" y="1573.4729">depLatitude</text><rect fill="none" height="7.5" style="stroke:#C82930;stroke-width:1.25;" width="7.5" x="769.375" y="1581.4941"/><text fill="#000000" font-family="sans-serif" font-size="13.75" lengthAdjust="spacing" textLength="65" x="784.375" y="1590.7678">arrLatitude</text><rect fill="none" height="7.5" style="stroke:#C82930;stroke-width:1.25;" width="7.5" x="769.375" y="1598.7891"/><text fill="#000000" font-family="sans-serif" font-size="13.75" lengthAdjust="spacing" textLength="52.5" x="784.375" y="1608.0627">depLong</text><rect fill="none" height="7.5" style="stroke:#C82930;stroke-width:1.25;" width="7.5" x="769.375" y="1616.084"/><text fill="#000000" font-family="sans-serif" font-size="13.75" lengthAdjust="spacing" textLength="47.5" x="784.375" y="1625.3577">arrLong</text><rect fill="none" height="7.5" style="stroke:#C82930;stroke-width:1.25;" width="7.5" x="769.375" y="1633.3789"/><text fill="#000000" font-family="sans-serif" font-size="13.75" lengthAdjust="spacing" textLength="46.25" x="784.375" y="1642.6526">travDist</text><rect fill="none" height="7.5" style="stroke:#C82930;stroke-width:1.25;" width="7.5" x="769.375" y="1650.6738"/><text fill="#000000" font-family="sans-serif" font-size="13.75" lengthAdjust="spacing" textLength="43.75" x="784.375" y="1659.9475">deltDist</text><!--MD5=[f6b3929c0540a43527d6df01ce8c04ff]
class ShipMovement--><rect codeLine="120" fill="#FEFECE" filter="url(#f1nhbzypmnbnee)" height="326.7188" id="ShipMovement" style="stroke:#A80036;stroke-width:1.875;" width="141.25" x="173.75" y="580"/><ellipse cx="192.5" cy="600" fill="#ADD1B2" rx="13.75" ry="13.75" style="stroke:#A80036;stroke-width:1.25;"/><path d="M195,595.625 Q195.2539,595 195.5469,594.6875 Q195.8398,594.375 196.1719,594.375 Q196.7578,594.375 197.1289,594.7266 Q197.5,595.0781 197.5,595.8984 L197.5,597.8516 Q197.5,598.6719 197.1484,599.0234 Q196.7969,599.375 196.25,599.375 Q195.7617,599.375 195.4492,599.1602 Q195.1367,598.9453 195,598.3789 Q194.9414,597.9883 194.7266,597.7734 Q194.3359,597.3633 193.6328,597.1289 Q192.9297,596.875 192.2266,596.875 Q191.3477,596.875 190.6055,597.2266 Q189.8828,597.5781 189.3164,598.3594 Q188.75,599.1406 188.75,600.2148 L188.75,601.3672 Q188.75,602.6563 189.8047,603.5156 Q190.8594,604.375 192.7344,604.375 Q193.8477,604.375 194.6289,604.1211 Q195.0781,603.9844 195.5859,603.5352 Q195.918,603.2813 196.0938,603.2031 Q196.2695,603.125 196.4844,603.125 Q196.8945,603.125 197.1875,603.457 Q197.5,603.7695 197.5,604.2188 Q197.5,604.6484 197.0703,605.1563 Q196.4453,605.8984 195.4492,606.3086 Q194.1406,606.875 192.5391,606.875 Q190.6641,606.875 189.1602,606.1328 Q187.9492,605.5469 187.0898,604.2773 Q186.25,603.0078 186.25,601.5039 L186.25,600.1367 Q186.25,598.5742 186.9922,597.207 Q187.7539,595.8398 189.0625,595.1172 Q190.3906,594.375 191.875,594.375 Q192.7734,594.375 193.5547,594.6875 Q194.3359,595 195,595.625 Z " fill="#000000"/><text fill="#000000" font-family="sans-serif" font-size="15" lengthAdjust="spacing" textLength="101.25" x="210" y="606.1377">ShipMovement</text><line style="stroke:#A80036;stroke-width:1.875;" x1="175" x2="313.75" y1="620" y2="620"/><rect fill="none" height="7.5" style="stroke:#C82930;stroke-width:1.25;" width="7.5" x="183.75" y="630"/><text fill="#000000" font-family="sans-serif" font-size="13.75" lengthAdjust="spacing" textLength="30" x="198.75" y="639.2737">mmsi</text><rect fill="none" height="7.5" style="stroke:#C82930;stroke-width:1.25;" width="7.5" x="183.75" y="647.2949"/><text fill="#000000" font-family="sans-serif" font-size="13.75" lengthAdjust="spacing" textLength="85" x="198.75" y="656.5686">baseDateTime</text><rect fill="none" height="7.5" style="stroke:#C82930;stroke-width:1.25;" width="7.5" x="183.75" y="664.5898"/><text fill="#000000" font-family="sans-serif" font-size="13.75" lengthAdjust="spacing" textLength="13.75" x="198.75" y="673.8635">lat</text><rect fill="none" height="7.5" style="stroke:#C82930;stroke-width:1.25;" width="7.5" x="183.75" y="681.8848"/><text fill="#000000" font-family="sans-serif" font-size="13.75" lengthAdjust="spacing" textLength="17.5" x="198.75" y="691.1584">lon</text><rect fill="none" height="7.5" style="stroke:#C82930;stroke-width:1.25;" width="7.5" x="183.75" y="699.1797"/><text fill="#000000" font-family="sans-serif" font-size="13.75" lengthAdjust="spacing" textLength="22.5" x="198.75" y="708.4534">sog</text><rect fill="none" height="7.5" style="stroke:#C82930;stroke-width:1.25;" width="7.5" x="183.75" y="716.4746"/><text fill="#000000" font-family="sans-serif" font-size="13.75" lengthAdjust="spacing" textLength="22.5" x="198.75" y="725.7483">cog</text><rect fill="none" height="7.5" style="stroke:#C82930;stroke-width:1.25;" width="7.5" x="183.75" y="733.7695"/><text fill="#000000" font-family="sans-serif" font-size="13.75" lengthAdjust="spacing" textLength="47.5" x="198.75" y="743.0432">heading</text><rect fill="none" height="7.5" style="stroke:#C82930;stroke-width:1.25;" width="7.5" x="183.75" y="751.0645"/><text fill="#000000" font-family="sans-serif" font-size="13.75" lengthAdjust="spacing" textLength="73.75" x="198.75" y="760.3381">vesselName</text><rect fill="none" height="7.5" style="stroke:#C82930;stroke-width:1.25;" width="7.5" x="183.75" y="768.3594"/><text fill="#000000" font-family="sans-serif" font-size="13.75" lengthAdjust="spacing" textLength="20" x="198.75" y="777.6331">imo</text><rect fill="none" height="7.5" style="stroke:#C82930;stroke-width:1.25;" width="7.5" x="183.75" y="785.6543"/><text fill="#000000" font-family="sans-serif" font-size="13.75" lengthAdjust="spacing" textLength="46.25" x="198.75" y="794.928">callSign</text><rect fill="none" height="7.5" style="stroke:#C82930;stroke-width:1.25;" width="7.5" x="183.75" y="802.9492"/><text fill="#000000" font-family="sans-serif" font-size="13.75" lengthAdjust="spacing" textLength="70" x="198.75" y="812.2229">vesselType</text><rect fill="none" height="7.5" style="stroke:#C82930;stroke-width:1.25;" width="7.5" x="183.75" y="820.2441"/><text fill="#000000" font-family="sans-serif" font-size="13.75" lengthAdjust="spacing" textLength="36.25" x="198.75" y="829.5178">lenght</text><rect fill="none" height="7.5" style="stroke:#C82930;stroke-width:1.25;" width="7.5" x="183.75" y="837.5391"/><text fill="#000000" font-family="sans-serif" font-size="13.75" lengthAdjust="spacing" textLength="33.75" x="198.75" y="846.8127">width</text><rect fill="none" height="7.5" style="stroke:#C82930;stroke-width:1.25;" width="7.5" x="183.75" y="854.834"/><text fill="#000000" font-family="sans-serif" font-size="13.75" lengthAdjust="spacing" textLength="28.75" x="198.75" y="864.1077">draft</text><rect fill="none" height="7.5" style="stroke:#C82930;stroke-width:1.25;" width="7.5" x="183.75" y="872.1289"/><text fill="#000000" font-family="sans-serif" font-size="13.75" lengthAdjust="spacing" textLength="35" x="198.75" y="881.4026">cargo</text><rect fill="none" height="7.5" style="stroke:#C82930;stroke-width:1.25;" width="7.5" x="183.75" y="889.4238"/><text fill="#000000" font-family="sans-serif" font-size="13.75" lengthAdjust="spacing" textLength="102.5" x="198.75" y="898.6975">transceiverClass</text><!--MD5=[e7ad894f8331fa852791ac292f7e8a32]
class ShipPair--><rect codeLine="139" fill="#FEFECE" filter="url(#f1nhbzypmnbnee)" height="136.4746" id="ShipPair" style="stroke:#A80036;stroke-width:1.875;" width="143.75" x="843.75" y="1055.625"/><ellipse cx="882.75" cy="1075.625" fill="#ADD1B2" rx="13.75" ry="13.75" style="stroke:#A80036;stroke-width:1.25;"/><path d="M885.25,1071.25 Q885.5039,1070.625 885.7969,1070.3125 Q886.0898,1070 886.4219,1070 Q887.0078,1070 887.3789,1070.3516 Q887.75,1070.7031 887.75,1071.5234 L887.75,1073.4766 Q887.75,1074.2969 887.3984,1074.6484 Q887.0469,1075 886.5,1075 Q886.0117,1075 885.6992,1074.7852 Q885.3867,1074.5703 885.25,1074.0039 Q885.1914,1073.6133 884.9766,1073.3984 Q884.5859,1072.9883 883.8828,1072.7539 Q883.1797,1072.5 882.4766,1072.5 Q881.5977,1072.5 880.8555,1072.8516 Q880.1328,1073.2031 879.5664,1073.9844 Q879,1074.7656 879,1075.8398 L879,1076.9922 Q879,1078.2813 880.0547,1079.1406 Q881.1094,1080 882.9844,1080 Q884.0977,1080 884.8789,1079.7461 Q885.3281,1079.6094 885.8359,1079.1602 Q886.168,1078.9063 886.3438,1078.8281 Q886.5195,1078.75 886.7344,1078.75 Q887.1445,1078.75 887.4375,1079.082 Q887.75,1079.3945 887.75,1079.8438 Q887.75,1080.2734 887.3203,1080.7813 Q886.6953,1081.5234 885.6992,1081.9336 Q884.3906,1082.5 882.7891,1082.5 Q880.9141,1082.5 879.4102,1081.7578 Q878.1992,1081.1719 877.3398,1079.9023 Q876.5,1078.6328 876.5,1077.1289 L876.5,1075.7617 Q876.5,1074.1992 877.2422,1072.832 Q878.0039,1071.4648 879.3125,1070.7422 Q880.6406,1070 882.125,1070 Q883.0234,1070 883.8047,1070.3125 Q884.5859,1070.625 885.25,1071.25 Z " fill="#000000"/><text fill="#000000" font-family="sans-serif" font-size="15" lengthAdjust="spacing" textLength="58.75" x="904.75" y="1081.7627">ShipPair</text><line style="stroke:#A80036;stroke-width:1.875;" x1="845" x2="986.25" y1="1095.625" y2="1095.625"/><rect fill="none" height="7.5" style="stroke:#C82930;stroke-width:1.25;" width="7.5" x="853.75" y="1105.625"/><text fill="#000000" font-family="sans-serif" font-size="13.75" lengthAdjust="spacing" textLength="37.5" x="868.75" y="1114.8987">mmsi1</text><rect fill="none" height="7.5" style="stroke:#C82930;stroke-width:1.25;" width="7.5" x="853.75" y="1122.9199"/><text fill="#000000" font-family="sans-serif" font-size="13.75" lengthAdjust="spacing" textLength="37.5" x="868.75" y="1132.1936">mmsi2</text><rect fill="none" height="7.5" style="stroke:#C82930;stroke-width:1.25;" width="7.5" x="853.75" y="1140.2148"/><text fill="#000000" font-family="sans-serif" font-size="13.75" lengthAdjust="spacing" textLength="111.25" x="868.75" y="1149.4885">departureDistance</text><rect fill="none" height="7.5" style="stroke:#C82930;stroke-width:1.25;" width="7.5" x="853.75" y="1157.5098"/><text fill="#000000" font-family="sans-serif" font-size="13.75" lengthAdjust="spacing" textLength="90" x="868.75" y="1166.7834">arrivalDistance</text><rect fill="none" height="7.5" style="stroke:#C82930;stroke-width:1.25;" width="7.5" x="853.75" y="1174.8047"/><text fill="#000000" font-family="sans-serif" font-size="13.75" lengthAdjust="spacing" textLength="93.75" x="868.75" y="1184.0784">travelDistance1</text><!--MD5=[a44ad20d45cac02e8c33cdd4602627cf]
class ShipRoute--><rect codeLine="147" fill="#FEFECE" filter="url(#f1nhbzypmnbnee)" height="153.7695" id="ShipRoute" style="stroke:#A80036;stroke-width:1.875;" width="121.25" x="8.75" y="666.25"/><ellipse cx="31.4375" cy="686.25" fill="#ADD1B2" rx="13.75" ry="13.75" style="stroke:#A80036;stroke-width:1.25;"/><path d="M33.9375,681.875 Q34.1914,681.25 34.4844,680.9375 Q34.7773,680.625 35.1094,680.625 Q35.6953,680.625 36.0664,680.9766 Q36.4375,681.3281 36.4375,682.1484 L36.4375,684.1016 Q36.4375,684.9219 36.0859,685.2734 Q35.7344,685.625 35.1875,685.625 Q34.6992,685.625 34.3867,685.4102 Q34.0742,685.1953 33.9375,684.6289 Q33.8789,684.2383 33.6641,684.0234 Q33.2734,683.6133 32.5703,683.3789 Q31.8672,683.125 31.1641,683.125 Q30.2852,683.125 29.543,683.4766 Q28.8203,683.8281 28.2539,684.6094 Q27.6875,685.3906 27.6875,686.4648 L27.6875,687.6172 Q27.6875,688.9063 28.7422,689.7656 Q29.7969,690.625 31.6719,690.625 Q32.7852,690.625 33.5664,690.3711 Q34.0156,690.2344 34.5234,689.7852 Q34.8555,689.5313 35.0313,689.4531 Q35.207,689.375 35.4219,689.375 Q35.832,689.375 36.125,689.707 Q36.4375,690.0195 36.4375,690.4688 Q36.4375,690.8984 36.0078,691.4063 Q35.3828,692.1484 34.3867,692.5586 Q33.0781,693.125 31.4766,693.125 Q29.6016,693.125 28.0977,692.3828 Q26.8867,691.7969 26.0273,690.5273 Q25.1875,689.2578 25.1875,687.7539 L25.1875,686.3867 Q25.1875,684.8242 25.9297,683.457 Q26.6914,682.0898 28,681.3672 Q29.3281,680.625 30.8125,680.625 Q31.7109,680.625 32.4922,680.9375 Q33.2734,681.25 33.9375,681.875 Z " fill="#000000"/><text fill="#000000" font-family="sans-serif" font-size="15" lengthAdjust="spacing" textLength="72.5" x="49.8125" y="692.3877">ShipRoute</text><line style="stroke:#A80036;stroke-width:1.875;" x1="10" x2="128.75" y1="706.25" y2="706.25"/><rect fill="none" height="7.5" style="stroke:#C82930;stroke-width:1.25;" width="7.5" x="18.75" y="716.25"/><text fill="#000000" font-family="sans-serif" font-size="13.75" lengthAdjust="spacing" textLength="30" x="33.75" y="725.5237">mmsi</text><rect fill="none" height="7.5" style="stroke:#C82930;stroke-width:1.25;" width="7.5" x="18.75" y="733.5449"/><text fill="#000000" font-family="sans-serif" font-size="13.75" lengthAdjust="spacing" textLength="77.5" x="33.75" y="742.8186">departureLat</text><rect fill="none" height="7.5" style="stroke:#C82930;stroke-width:1.25;" width="7.5" x="18.75" y="750.8398"/><text fill="#000000" font-family="sans-serif" font-size="13.75" lengthAdjust="spacing" textLength="56.25" x="33.75" y="760.1135">arrivalLat</text><rect fill="none" height="7.5" style="stroke:#C82930;stroke-width:1.25;" width="7.5" x="18.75" y="768.1348"/><text fill="#000000" font-family="sans-serif" font-size="13.75" lengthAdjust="spacing" textLength="88.75" x="33.75" y="777.4084">departureLong</text><rect fill="none" height="7.5" style="stroke:#C82930;stroke-width:1.25;" width="7.5" x="18.75" y="785.4297"/><text fill="#000000" font-family="sans-serif" font-size="13.75" lengthAdjust="spacing" textLength="67.5" x="33.75" y="794.7034">arrivalLong</text><rect fill="none" height="7.5" style="stroke:#C82930;stroke-width:1.25;" width="7.5" x="18.75" y="802.7246"/><text fill="#000000" font-family="sans-serif" font-size="13.75" lengthAdjust="spacing" textLength="86.25" x="33.75" y="811.9983">travelDistance</text><!--MD5=[deb4e1f6eb1e3c1256fdb830f96abfbb]
class Country--><rect codeLine="156" fill="#FEFECE" filter="url(#f1nhbzypmnbnee)" height="188.3594" id="Country" style="stroke:#A80036;stroke-width:1.875;" width="92.5" x="255.625" y="276.875"/><ellipse cx="274.375" cy="296.875" fill="#ADD1B2" rx="13.75" ry="13.75" style="stroke:#A80036;stroke-width:1.25;"/><path d="M276.875,292.5 Q277.1289,291.875 277.4219,291.5625 Q277.7148,291.25 278.0469,291.25 Q278.6328,291.25 279.0039,291.6016 Q279.375,291.9531 279.375,292.7734 L279.375,294.7266 Q279.375,295.5469 279.0234,295.8984 Q278.6719,296.25 278.125,296.25 Q277.6367,296.25 277.3242,296.0352 Q277.0117,295.8203 276.875,295.2539 Q276.8164,294.8633 276.6016,294.6484 Q276.2109,294.2383 275.5078,294.0039 Q274.8047,293.75 274.1016,293.75 Q273.2227,293.75 272.4805,294.1016 Q271.7578,294.4531 271.1914,295.2344 Q270.625,296.0156 270.625,297.0898 L270.625,298.2422 Q270.625,299.5313 271.6797,300.3906 Q272.7344,301.25 274.6094,301.25 Q275.7227,301.25 276.5039,300.9961 Q276.9531,300.8594 277.4609,300.4102 Q277.793,300.1563 277.9688,300.0781 Q278.1445,300 278.3594,300 Q278.7695,300 279.0625,300.332 Q279.375,300.6445 279.375,301.0938 Q279.375,301.5234 278.9453,302.0313 Q278.3203,302.7734 277.3242,303.1836 Q276.0156,303.75 274.4141,303.75 Q272.5391,303.75 271.0352,303.0078 Q269.8242,302.4219 268.9648,301.1523 Q268.125,299.8828 268.125,298.3789 L268.125,297.0117 Q268.125,295.4492 268.8672,294.082 Q269.6289,292.7148 270.9375,291.9922 Q272.2656,291.25 273.75,291.25 Q274.6484,291.25 275.4297,291.5625 Q276.2109,291.875 276.875,292.5 Z " fill="#000000"/><text fill="#000000" font-family="sans-serif" font-size="15" lengthAdjust="spacing" textLength="52.5" x="291.875" y="303.0127">Country</text><line style="stroke:#A80036;stroke-width:1.875;" x1="256.875" x2="346.875" y1="316.875" y2="316.875"/><rect fill="none" height="7.5" style="stroke:#C82930;stroke-width:1.25;" width="7.5" x="265.625" y="326.875"/><text fill="#000000" font-family="sans-serif" font-size="13.75" lengthAdjust="spacing" textLength="55" x="280.625" y="336.1487">continent</text><rect fill="none" height="7.5" style="stroke:#C82930;stroke-width:1.25;" width="7.5" x="265.625" y="344.1699"/><text fill="#000000" font-family="sans-serif" font-size="13.75" lengthAdjust="spacing" textLength="15" x="280.625" y="353.4436">a2</text><rect fill="none" height="7.5" style="stroke:#C82930;stroke-width:1.25;" width="7.5" x="265.625" y="361.4648"/><text fill="#000000" font-family="sans-serif" font-size="13.75" lengthAdjust="spacing" textLength="15" x="280.625" y="370.7385">a3</text><rect fill="none" height="7.5" style="stroke:#C82930;stroke-width:1.25;" width="7.5" x="265.625" y="378.7598"/><text fill="#000000" font-family="sans-serif" font-size="13.75" lengthAdjust="spacing" textLength="32.5" x="280.625" y="388.0334">name</text><rect fill="none" height="7.5" style="stroke:#C82930;stroke-width:1.25;" width="7.5" x="265.625" y="396.0547"/><text fill="#000000" font-family="sans-serif" font-size="13.75" lengthAdjust="spacing" textLength="22.5" x="280.625" y="405.3284">pop</text><rect fill="none" height="7.5" style="stroke:#C82930;stroke-width:1.25;" width="7.5" x="265.625" y="413.3496"/><text fill="#000000" font-family="sans-serif" font-size="13.75" lengthAdjust="spacing" textLength="22.5" x="280.625" y="422.6233">cap</text><rect fill="none" height="7.5" style="stroke:#C82930;stroke-width:1.25;" width="7.5" x="265.625" y="430.6445"/><text fill="#000000" font-family="sans-serif" font-size="13.75" lengthAdjust="spacing" textLength="13.75" x="280.625" y="439.9182">lat</text><rect fill="none" height="7.5" style="stroke:#C82930;stroke-width:1.25;" width="7.5" x="265.625" y="447.9395"/><text fill="#000000" font-family="sans-serif" font-size="13.75" lengthAdjust="spacing" textLength="27.5" x="280.625" y="457.2131">longi</text><!--MD5=[dfbe5b5b3f161c49668938220e8b8432]
class SeaDist--><rect codeLine="167" fill="#FEFECE" filter="url(#f1nhbzypmnbnee)" height="171.0645" id="SeaDist" style="stroke:#A80036;stroke-width:1.875;" width="95" x="436.875" y="285.625"/><ellipse cx="455.625" cy="305.625" fill="#ADD1B2" rx="13.75" ry="13.75" style="stroke:#A80036;stroke-width:1.25;"/><path d="M458.125,301.25 Q458.3789,300.625 458.6719,300.3125 Q458.9648,300 459.2969,300 Q459.8828,300 460.2539,300.3516 Q460.625,300.7031 460.625,301.5234 L460.625,303.4766 Q460.625,304.2969 460.2734,304.6484 Q459.9219,305 459.375,305 Q458.8867,305 458.5742,304.7852 Q458.2617,304.5703 458.125,304.0039 Q458.0664,303.6133 457.8516,303.3984 Q457.4609,302.9883 456.7578,302.7539 Q456.0547,302.5 455.3516,302.5 Q454.4727,302.5 453.7305,302.8516 Q453.0078,303.2031 452.4414,303.9844 Q451.875,304.7656 451.875,305.8398 L451.875,306.9922 Q451.875,308.2813 452.9297,309.1406 Q453.9844,310 455.8594,310 Q456.9727,310 457.7539,309.7461 Q458.2031,309.6094 458.7109,309.1602 Q459.043,308.9063 459.2188,308.8281 Q459.3945,308.75 459.6094,308.75 Q460.0195,308.75 460.3125,309.082 Q460.625,309.3945 460.625,309.8438 Q460.625,310.2734 460.1953,310.7813 Q459.5703,311.5234 458.5742,311.9336 Q457.2656,312.5 455.6641,312.5 Q453.7891,312.5 452.2852,311.7578 Q451.0742,311.1719 450.2148,309.9023 Q449.375,308.6328 449.375,307.1289 L449.375,305.7617 Q449.375,304.1992 450.1172,302.832 Q450.8789,301.4648 452.1875,300.7422 Q453.5156,300 455,300 Q455.8984,300 456.6797,300.3125 Q457.4609,300.625 458.125,301.25 Z " fill="#000000"/><text fill="#000000" font-family="sans-serif" font-size="15" lengthAdjust="spacing" textLength="55" x="473.125" y="311.7627">SeaDist</text><line style="stroke:#A80036;stroke-width:1.875;" x1="438.125" x2="530.625" y1="325.625" y2="325.625"/><rect fill="none" height="7.5" style="stroke:#C82930;stroke-width:1.25;" width="7.5" x="446.875" y="335.625"/><text fill="#000000" font-family="sans-serif" font-size="13.75" lengthAdjust="spacing" textLength="52.5" x="461.875" y="344.8987">fCountry</text><rect fill="none" height="7.5" style="stroke:#C82930;stroke-width:1.25;" width="7.5" x="446.875" y="352.9199"/><text fill="#000000" font-family="sans-serif" font-size="13.75" lengthAdjust="spacing" textLength="38.75" x="461.875" y="362.1936">fPortId</text><rect fill="none" height="7.5" style="stroke:#C82930;stroke-width:1.25;" width="7.5" x="446.875" y="370.2148"/><text fill="#000000" font-family="sans-serif" font-size="13.75" lengthAdjust="spacing" textLength="28.75" x="461.875" y="379.4885">fPort</text><rect fill="none" height="7.5" style="stroke:#C82930;stroke-width:1.25;" width="7.5" x="446.875" y="387.5098"/><text fill="#000000" font-family="sans-serif" font-size="13.75" lengthAdjust="spacing" textLength="51.25" x="461.875" y="396.7834">tCountry</text><rect fill="none" height="7.5" style="stroke:#C82930;stroke-width:1.25;" width="7.5" x="446.875" y="404.8047"/><text fill="#000000" font-family="sans-serif" font-size="13.75" lengthAdjust="spacing" textLength="37.5" x="461.875" y="414.0784">tPortId</text><rect fill="none" height="7.5" style="stroke:#C82930;stroke-width:1.25;" width="7.5" x="446.875" y="422.0996"/><text fill="#000000" font-family="sans-serif" font-size="13.75" lengthAdjust="spacing" textLength="27.5" x="461.875" y="431.3733">tPort</text><rect fill="none" height="7.5" style="stroke:#C82930;stroke-width:1.25;" width="7.5" x="446.875" y="439.3945"/><text fill="#000000" font-family="sans-serif" font-size="13.75" lengthAdjust="spacing" textLength="21.25" x="461.875" y="448.6682">dist</text><!--MD5=[066037a53202b7407297f1cd0d8196d4]
class Borders--><rect codeLine="177" fill="#FEFECE" filter="url(#f1nhbzypmnbnee)" height="50" id="Borders" style="stroke:#A80036;stroke-width:1.875;" width="95" x="71.875" y="346.25"/><ellipse cx="90.625" cy="366.25" fill="#ADD1B2" rx="13.75" ry="13.75" style="stroke:#A80036;stroke-width:1.25;"/><path d="M93.125,361.875 Q93.3789,361.25 93.6719,360.9375 Q93.9648,360.625 94.2969,360.625 Q94.8828,360.625 95.2539,360.9766 Q95.625,361.3281 95.625,362.1484 L95.625,364.1016 Q95.625,364.9219 95.2734,365.2734 Q94.9219,365.625 94.375,365.625 Q93.8867,365.625 93.5742,365.4102 Q93.2617,365.1953 93.125,364.6289 Q93.0664,364.2383 92.8516,364.0234 Q92.4609,363.6133 91.7578,363.3789 Q91.0547,363.125 90.3516,363.125 Q89.4727,363.125 88.7305,363.4766 Q88.0078,363.8281 87.4414,364.6094 Q86.875,365.3906 86.875,366.4648 L86.875,367.6172 Q86.875,368.9063 87.9297,369.7656 Q88.9844,370.625 90.8594,370.625 Q91.9727,370.625 92.7539,370.3711 Q93.2031,370.2344 93.7109,369.7852 Q94.043,369.5313 94.2188,369.4531 Q94.3945,369.375 94.6094,369.375 Q95.0195,369.375 95.3125,369.707 Q95.625,370.0195 95.625,370.4688 Q95.625,370.8984 95.1953,371.4063 Q94.5703,372.1484 93.5742,372.5586 Q92.2656,373.125 90.6641,373.125 Q88.7891,373.125 87.2852,372.3828 Q86.0742,371.7969 85.2148,370.5273 Q84.375,369.2578 84.375,367.7539 L84.375,366.3867 Q84.375,364.8242 85.1172,363.457 Q85.8789,362.0898 87.1875,361.3672 Q88.5156,360.625 90,360.625 Q90.8984,360.625 91.6797,360.9375 Q92.4609,361.25 93.125,361.875 Z " fill="#000000"/><text fill="#000000" font-family="sans-serif" font-size="15" lengthAdjust="spacing" textLength="55" x="108.125" y="372.3877">Borders</text><line style="stroke:#A80036;stroke-width:1.875;" x1="73.125" x2="165.625" y1="386.25" y2="386.25"/><!--MD5=[40e2b5717560220ad35e84810a8f1b44]
link TrafficManager to Ship--><path codeLine="181" d="M102.75,1098.2875 C109,1062.725 125.9875,999.375 170,971.25 C198.5625,953 212.45,968.7875 246.25,971.25 C345.65,978.4875 374.8625,968.6 468.125,1003.75 C496.6,1014.4875 525.2375,1030.125 551.175,1046.5875 " fill="none" id="TrafficManager-Ship" style="stroke:#A80036;stroke-width:1.25;"/><polygon fill="#000000" points="182.4589,954.5039,170.8062,952.1494,171.6477,959.4483,182.4589,954.5039" style="stroke:#000000;stroke-width:1.25;"/><text fill="#000000" font-family="sans-serif" font-size="16.25" lengthAdjust="spacing" textLength="57.5" x="187.5" y="961.8689">controls</text><text fill="#000000" font-family="sans-serif" font-size="16.25" lengthAdjust="spacing" textLength="8.75" x="93.7188" y="1085.2444">1</text><text fill="#000000" font-family="sans-serif" font-size="16.25" lengthAdjust="spacing" textLength="25" x="516.3395" y="1057.693">1..*</text><!--MD5=[8304bc5289f627c52f3048b7211fb80c]
link Ship to FleetManager--><path codeLine="182" d="M755.375,1042.55 C776.55,1028.2125 799.3,1014.4625 821.875,1003.75 C871.0625,980.4 886.0375,978.5375 940,971.25 C973.5875,966.7125 987.1625,953.85 1016.25,971.25 C1062.675,999.0125 1084.2875,1063.125 1093.0375,1098.75 " fill="none" id="Ship-FleetManager" style="stroke:#A80036;stroke-width:1.25;"/><polygon fill="#000000" points="940.0848,954.1936,950.6346,959.6737,951.8409,952.4261,940.0848,954.1936" style="stroke:#000000;stroke-width:1.25;"/><text fill="#000000" font-family="sans-serif" font-size="16.25" lengthAdjust="spacing" textLength="57.5" x="957.5" y="961.8689">controls</text><text fill="#000000" font-family="sans-serif" font-size="16.25" lengthAdjust="spacing" textLength="25" x="764.8777" y="1031.8745">1..*</text><text fill="#000000" font-family="sans-serif" font-size="16.25" lengthAdjust="spacing" textLength="8.75" x="1081.3896" y="1084.9674">1</text><!--MD5=[641af49703b38e745c9a3976df66996b]
link WarehouseManager to Warehouse--><path codeLine="183" d="M233.2375,85.625 C275.2375,85.625 324.075,85.625 361.5375,85.625 " fill="none" id="WarehouseManager-Warehouse" style="stroke:#A80036;stroke-width:1.25;"/><polygon fill="#000000" points="267.5,70.8447,256.1936,67.1711,256.1936,74.5184,267.5,70.8447" style="stroke:#000000;stroke-width:1.25;"/><text fill="#000000" font-family="sans-serif" font-size="16.25" lengthAdjust="spacing" textLength="66.25" x="272.5" y="77.4939">manages</text><text fill="#000000" font-family="sans-serif" font-size="16.25" lengthAdjust="spacing" textLength="8.75" x="242.9815" y="81.4853">1</text><text fill="#000000" font-family="sans-serif" font-size="16.25" lengthAdjust="spacing" textLength="25" x="326.75" y="103.8659">1..*</text><!--MD5=[0190973f8c5de701e926b865ec575606]
link Warehouse to WarehouseStaff--><path codeLine="184" d="M482.4375,85.625 C514.1,85.625 553.15,85.625 586.725,85.625 " fill="none" id="Warehouse-WarehouseStaff" style="stroke:#A80036;stroke-width:1.25;"/><polygon fill="#000000" points="503.75,70.8447,515.0564,74.5184,515.0564,67.1711,503.75,70.8447" style="stroke:#000000;stroke-width:1.25;"/><text fill="#000000" font-family="sans-serif" font-size="16.25" lengthAdjust="spacing" textLength="42.5" x="521.25" y="77.4939">works</text><text fill="#000000" font-family="sans-serif" font-size="16.25" lengthAdjust="spacing" textLength="25" x="491.7986" y="103.802">1..*</text><text fill="#000000" font-family="sans-serif" font-size="16.25" lengthAdjust="spacing" textLength="8.75" x="568.2829" y="81.3019">1</text><!--MD5=[48d901b645b583b24981c41ea2f4fedc]
link PortStaff to Ship--><path codeLine="185" d="M1047.6875,768.275 C1040.3125,803.4 1021.7,868.8125 980.625,906.25 C941.6625,941.75 914.1875,918.125 868.125,943.75 C828.4625,965.8125 789.0875,995.6 755.0875,1024.5375 " fill="none" id="PortStaff-Ship" style="stroke:#A80036;stroke-width:1.25;"/><polygon fill="#000000" points="869.6733,959.3375,880.5992,954.6519,875.7584,949.1247,869.6733,959.3375" style="stroke:#000000;stroke-width:1.25;"/><text fill="#000000" font-family="sans-serif" font-size="16.25" lengthAdjust="spacing" textLength="42.5" x="885.625" y="961.8689">works</text><text fill="#000000" font-family="sans-serif" font-size="16.25" lengthAdjust="spacing" textLength="8.75" x="1036.5293" y="795.0916">1</text><text fill="#000000" font-family="sans-serif" font-size="16.25" lengthAdjust="spacing" textLength="25" x="764.9241" y="1012.0293">1..*</text><!--MD5=[9eb8cece74e91f217f5849e8308bf70d]
link PortManager to Port--><path codeLine="186" d="M487.0625,743.125 C527.775,743.125 579.475,743.125 615.575,743.125 " fill="none" id="PortManager-Port" style="stroke:#A80036;stroke-width:1.25;"/><polygon fill="#000000" points="521.25,728.3447,509.9436,724.6711,509.9436,732.0184,521.25,728.3447" style="stroke:#000000;stroke-width:1.25;"/><text fill="#000000" font-family="sans-serif" font-size="16.25" lengthAdjust="spacing" textLength="66.25" x="526.25" y="734.9939">manages</text><text fill="#000000" font-family="sans-serif" font-size="16.25" lengthAdjust="spacing" textLength="8.75" x="496.6689" y="738.6185">1</text><text fill="#000000" font-family="sans-serif" font-size="16.25" lengthAdjust="spacing" textLength="25" x="580.5466" y="761.8125">1..*</text><!--MD5=[a5b2d7054789f86100b09c2b7a7f0a67]
link Ship to ShipCaptain--><path codeLine="187" d="M653.125,1244.125 C653.125,1327.9 653.125,1433 653.125,1479.325 " fill="none" id="Ship-ShipCaptain" style="stroke:#A80036;stroke-width:1.25;"/><polygon fill="#000000" points="659.375,1286.4697,655.7013,1297.7761,663.0487,1297.7761,659.375,1286.4697" style="stroke:#000000;stroke-width:1.25;"/><text fill="#000000" font-family="sans-serif" font-size="16.25" lengthAdjust="spacing" textLength="66.25" x="670.625" y="1299.3689">manages</text><text fill="#000000" font-family="sans-serif" font-size="16.25" lengthAdjust="spacing" textLength="25" x="627.168" y="1270.9832">1..*</text><text fill="#000000" font-family="sans-serif" font-size="16.25" lengthAdjust="spacing" textLength="8.75" x="643.0898" y="1465.9625">1</text><!--MD5=[c5ef8141e8a198f4a84e54199c61ab67]
link ShipChiefElectricalEngineer to Ship--><path codeLine="188" d="M447.05,1123.75 C480.975,1123.75 517.7625,1123.75 550.75,1123.75 " fill="none" id="ShipChiefElectricalEngineer-Ship" style="stroke:#A80036;stroke-width:1.25;"/><polygon fill="#000000" points="480.9375,1108.9697,469.6311,1105.2961,469.6311,1112.6434,480.9375,1108.9697" style="stroke:#000000;stroke-width:1.25;"/><text fill="#000000" font-family="sans-serif" font-size="16.25" lengthAdjust="spacing" textLength="42.5" x="485.9375" y="1115.6189">works</text><text fill="#000000" font-family="sans-serif" font-size="16.25" lengthAdjust="spacing" textLength="8.75" x="457.0538" y="1119.809">1</text><text fill="#000000" font-family="sans-serif" font-size="16.25" lengthAdjust="spacing" textLength="25" x="516.2369" y="1141.4551">1..*</text><!--MD5=[6254345fd9dacb1857d22b54f9e53236]
link TruckDriver to Truck--><path codeLine="189" d="M898.1625,85.625 C937.9125,85.625 989.3,85.625 1024.0875,85.625 " fill="none" id="TruckDriver-Truck" style="stroke:#A80036;stroke-width:1.25;"/><polygon fill="#000000" points="932.5,70.8447,921.1936,67.1711,921.1936,74.5184,932.5,70.8447" style="stroke:#000000;stroke-width:1.25;"/><text fill="#000000" font-family="sans-serif" font-size="16.25" lengthAdjust="spacing" textLength="63.75" x="937.5" y="77.4939">oversees</text><text fill="#000000" font-family="sans-serif" font-size="16.25" lengthAdjust="spacing" textLength="8.75" x="908.229" y="80.9352">1</text><text fill="#000000" font-family="sans-serif" font-size="16.25" lengthAdjust="spacing" textLength="8.75" x="1005.841" y="80.3545">1</text><!--MD5=[f91b227e93aeebda0e6138e5b2e7fc8a]
link Ship to ShipDynamicFields--><path codeLine="190" d="M592.0875,1244.125 C564.6875,1297.5875 532.8375,1359.75 507.2125,1409.7625 " fill="none" id="Ship-ShipDynamicFields" style="stroke:#A80036;stroke-width:1.25;"/><polygon fill="#000000" points="571.5248,1298.282,579.9503,1289.895,573.4114,1286.5445,571.5248,1298.282" style="stroke:#000000;stroke-width:1.25;"/><text fill="#000000" font-family="sans-serif" font-size="16.25" lengthAdjust="spacing" textLength="26.25" x="585.625" y="1299.3689">has</text><text fill="#000000" font-family="sans-serif" font-size="16.25" lengthAdjust="spacing" textLength="8.75" x="578.3294" y="1270.9832">1</text><text fill="#000000" font-family="sans-serif" font-size="16.25" lengthAdjust="spacing" textLength="8.75" x="502.7408" y="1396.3745">1</text><!--MD5=[50fc424ec4382fd1ba2dc7184d539476]
link Containers to Ship--><path codeLine="191" d="M862.3,468.3625 C843.7,502.5625 824.6625,542.0375 811.875,580 C756.3375,744.9875 807.15,802.9375 746.875,966.25 C742.275,978.7125 736.6625,991.3 730.4875,1003.6125 " fill="none" id="Containers-Ship" style="stroke:#A80036;stroke-width:1.25;"/><polygon fill="#000000" points="819.6195,737.276,813.3488,747.376,820.483,749.1328,819.6195,737.276" style="stroke:#000000;stroke-width:1.25;"/><text fill="#000000" font-family="sans-serif" font-size="16.25" lengthAdjust="spacing" textLength="26.25" x="829.375" y="749.9939">has</text><text fill="#000000" font-family="sans-serif" font-size="16.25" lengthAdjust="spacing" textLength="25" x="827.3402" y="477.4809">1..*</text><text fill="#000000" font-family="sans-serif" font-size="16.25" lengthAdjust="spacing" textLength="8.75" x="727.5537" y="990.1188">1</text><!--MD5=[9f5a09a616509cd3e7b114149642c3c0]
link CargoManifest to Containers--><path codeLine="192" d="M743.475,371.25 C782.2625,371.25 827.3375,371.25 862.3125,371.25 " fill="none" id="CargoManifest-Containers" style="stroke:#A80036;stroke-width:1.25;"/><polygon fill="#000000" points="777.1875,356.4697,765.8811,352.7961,765.8811,360.1434,777.1875,356.4697" style="stroke:#000000;stroke-width:1.25;"/><text fill="#000000" font-family="sans-serif" font-size="16.25" lengthAdjust="spacing" textLength="57.5" x="782.1875" y="363.1189">controls</text><text fill="#000000" font-family="sans-serif" font-size="16.25" lengthAdjust="spacing" textLength="8.75" x="753.152" y="367.0828">1</text><text fill="#000000" font-family="sans-serif" font-size="16.25" lengthAdjust="spacing" textLength="25" x="827.3545" y="389.5245">1..*</text><!--MD5=[8cef3b8bb432fdc493768abc58cade76]
link Truck to Containers--><path codeLine="193" d="M1050.975,111.0125 C1034.3875,143.975 1003.55,205.225 976.0375,259.8875 " fill="none" id="Truck-Containers" style="stroke:#A80036;stroke-width:1.25;"/><polygon fill="#000000" points="1009.0649,217.0524,1017.4298,208.605,1010.867,205.3015,1009.0649,217.0524" style="stroke:#000000;stroke-width:1.25;"/><text fill="#000000" font-family="sans-serif" font-size="16.25" lengthAdjust="spacing" textLength="26.25" x="1023.125" y="218.1189">has</text><text fill="#000000" font-family="sans-serif" font-size="16.25" lengthAdjust="spacing" textLength="8.75" x="1037.7839" y="137.4508">1</text><text fill="#000000" font-family="sans-serif" font-size="16.25" lengthAdjust="spacing" textLength="25" x="954.7253" y="246.3264">1..*</text><!--MD5=[47296211a5450e6030aae792427ae68d]
link CargoManifest to Port--><path codeLine="194" d="M659.375,422.7 C659.375,485.425 659.375,593.3625 659.375,666.15 " fill="none" id="CargoManifest-Port" style="stroke:#A80036;stroke-width:1.25;"/><polygon fill="#000000" points="665.625,525.2197,661.9513,536.5261,669.2987,536.5261,665.625,525.2197" style="stroke:#000000;stroke-width:1.25;"/><text fill="#000000" font-family="sans-serif" font-size="16.25" lengthAdjust="spacing" textLength="58.75" x="676.875" y="538.1189">receives</text><text fill="#000000" font-family="sans-serif" font-size="16.25" lengthAdjust="spacing" textLength="25" x="632.5391" y="448.6718">1..*</text><text fill="#000000" font-family="sans-serif" font-size="16.25" lengthAdjust="spacing" textLength="8.75" x="650.0918" y="652.4444">1</text><!--MD5=[02d60c65ef718087735e668531e1ff2c]
link Warehouse to CargoManifest--><path codeLine="195" d="M482.1125,158.6875 C524.3,208.975 579.625,274.9375 617.175,319.6875 " fill="none" id="Warehouse-CargoManifest" style="stroke:#A80036;stroke-width:1.25;"/><polygon fill="#000000" points="544.6419,216.258,540.1898,205.2349,534.5608,209.957,544.6419,216.258" style="stroke:#000000;stroke-width:1.25;"/><text fill="#000000" font-family="sans-serif" font-size="16.25" lengthAdjust="spacing" textLength="58.75" x="551.875" y="218.1189">receives</text><text fill="#000000" font-family="sans-serif" font-size="16.25" lengthAdjust="spacing" textLength="8.75" x="492.0063" y="165.245">1</text><text fill="#000000" font-family="sans-serif" font-size="16.25" lengthAdjust="spacing" textLength="25" x="583.1153" y="306.4474">1..*</text><!--MD5=[df7146deb5cdd8fd100e886f9e413029]
link Ship to ShipDistance--><path codeLine="196" d="M728.875,1243.875 C735.75,1256.3 742.3,1268.9 748.125,1281.25 C757.1,1300.25 765.6,1320.5875 773.45,1340.95 " fill="none" id="Ship-ShipDistance" style="stroke:#A80036;stroke-width:1.25;"/><polygon fill="#000000" points="765.7331,1298.3996,764.3535,1286.5917,757.6765,1289.6576,765.7331,1298.3996" style="stroke:#000000;stroke-width:1.25;"/><text fill="#000000" font-family="sans-serif" font-size="16.25" lengthAdjust="spacing" textLength="26.25" x="774.375" y="1299.3689">has</text><text fill="#000000" font-family="sans-serif" font-size="16.25" lengthAdjust="spacing" textLength="8.75" x="725.5896" y="1270.7141">1</text><text fill="#000000" font-family="sans-serif" font-size="16.25" lengthAdjust="spacing" textLength="25" x="744.711" y="1327.7919">1..*</text><!--MD5=[605362cf8b5a21fe6106423976ae528f]
link ShipMovement to Ship--><path codeLine="197" d="M315.2875,879.7875 C322.0875,889.1125 329.3,898.0375 336.875,906.25 C354.2625,925.1 465.5125,999.75 551.2,1056.1 " fill="none" id="ShipMovement-Ship" style="stroke:#A80036;stroke-width:1.25;"/><polygon fill="#000000" points="411.8687,951.4782,418.726,961.1893,423.1244,955.3041,411.8687,951.4782" style="stroke:#000000;stroke-width:1.25;"/><text fill="#000000" font-family="sans-serif" font-size="16.25" lengthAdjust="spacing" textLength="26.25" x="428.125" y="961.8689">has</text><text fill="#000000" font-family="sans-serif" font-size="16.25" lengthAdjust="spacing" textLength="25" x="324.9321" y="891.3001">1..*</text><text fill="#000000" font-family="sans-serif" font-size="16.25" lengthAdjust="spacing" textLength="8.75" x="532.6505" y="1067.6633">1</text><!--MD5=[2d872f8942380604ce9fd7ae4b6eccb1]
link Ship to ShipPair--><path codeLine="198" d="M755.3625,1123.75 C784.875,1123.75 816.45,1123.75 843.7,1123.75 " fill="none" id="Ship-ShipPair" style="stroke:#A80036;stroke-width:1.25;"/><polygon fill="#000000" points="789.375,1108.9697,778.0686,1105.2961,778.0686,1112.6434,789.375,1108.9697" style="stroke:#000000;stroke-width:1.25;"/><text fill="#000000" font-family="sans-serif" font-size="16.25" lengthAdjust="spacing" textLength="26.25" x="794.375" y="1115.6189">has</text><text fill="#000000" font-family="sans-serif" font-size="16.25" lengthAdjust="spacing" textLength="8.75" x="764.8577" y="1119.737">1</text><text fill="#000000" font-family="sans-serif" font-size="16.25" lengthAdjust="spacing" textLength="25" x="808.9384" y="1141.7876">1..*</text><!--MD5=[1398f0e8a62f3b3a5b114dcac4794fca]
link ShipRoute to Ship--><path codeLine="199" d="M63.6875,820.1375 C64.4625,869.025 74.55,930.0125 114.375,966.25 C172.85,1019.45 393.55,977.525 468.125,1003.75 C496.5625,1013.75 525.075,1028.8875 550.9,1045.0375 " fill="none" id="ShipRoute-Ship" style="stroke:#A80036;stroke-width:1.25;"/><polygon fill="#000000" points="114.9504,952.6003,123.6762,960.6743,126.7555,954.0034,114.9504,952.6003" style="stroke:#000000;stroke-width:1.25;"/><text fill="#000000" font-family="sans-serif" font-size="16.25" lengthAdjust="spacing" textLength="26.25" x="131.875" y="961.8689">has</text><text fill="#000000" font-family="sans-serif" font-size="16.25" lengthAdjust="spacing" textLength="25" x="36.5846" y="847.0915">1..*</text><text fill="#000000" font-family="sans-serif" font-size="16.25" lengthAdjust="spacing" textLength="8.75" x="532.6559" y="1034.0141">1</text><!--MD5=[81746cb93c90cbb95bfeb7ee7cddfbe5]
link Port to Ship--><path codeLine="200" d="M658.1125,820.4375 C657.25,872.95 656.075,943.8375 655.0875,1003.7375 " fill="none" id="Port-Ship" style="stroke:#A80036;stroke-width:1.25;"/><polygon fill="#000000" points="663.0219,961.4689,666.8816,950.2247,659.5353,950.1034,663.0219,961.4689" style="stroke:#000000;stroke-width:1.25;"/><text fill="#000000" font-family="sans-serif" font-size="16.25" lengthAdjust="spacing" textLength="61.25" x="674.375" y="961.8689">contains</text><text fill="#000000" font-family="sans-serif" font-size="16.25" lengthAdjust="spacing" textLength="8.75" x="648.7459" y="846.8792">1</text><text fill="#000000" font-family="sans-serif" font-size="16.25" lengthAdjust="spacing" textLength="25" x="629.2478" y="990.2538">1..*</text><!--MD5=[d967950c33cf1af15de2cff3a34fc50c]
link Containers to Client--><path codeLine="201" d="M920.25,482.825 C919.975,565.1 919.6125,671 919.4625,717.8 " fill="none" id="Containers-Client" style="stroke:#A80036;stroke-width:1.25;"/><polygon fill="#000000" points="926.8959,525.2198,923.1844,536.5137,930.5317,536.5384,926.8959,525.2198" style="stroke:#000000;stroke-width:1.25;"/><text fill="#000000" font-family="sans-serif" font-size="16.25" lengthAdjust="spacing" textLength="37.5" x="938.125" y="538.1189">owns</text><text fill="#000000" font-family="sans-serif" font-size="16.25" lengthAdjust="spacing" textLength="25" x="894.1838" y="509.7614">1..*</text><text fill="#000000" font-family="sans-serif" font-size="16.25" lengthAdjust="spacing" textLength="8.75" x="909.453" y="704.3567">1</text><!--MD5=[1c49245d7a7e90fcfb9bb62e49d927d2]
link Country to Port--><path codeLine="202" d="M348.1625,418.25 C390.2375,460.025 453.85,523.675 508.125,580 C544.6875,617.9375 585.4375,661.6375 615.4125,694.05 " fill="none" id="Country-Port" style="stroke:#A80036;stroke-width:1.25;"/><polygon fill="#000000" points="471.2757,526.9813,476.5054,537.6574,481.7819,532.5445,471.2757,526.9813" style="stroke:#000000;stroke-width:1.25;"/><text fill="#000000" font-family="sans-serif" font-size="16.25" lengthAdjust="spacing" textLength="26.25" x="486.875" y="538.1189">has</text><text fill="#000000" font-family="sans-serif" font-size="16.25" lengthAdjust="spacing" textLength="25" x="358.2666" y="421.5496">1..*</text><text fill="#000000" font-family="sans-serif" font-size="16.25" lengthAdjust="spacing" textLength="8.75" x="596.6929" y="678.778">1</text><!--MD5=[77af34214d877ef99f13fad4964590e9]
link Borders to Country--><path codeLine="203" d="M167.325,371.25 C194.575,371.25 228.525,371.25 255.5,371.25 " fill="none" id="Borders-Country" style="stroke:#A80036;stroke-width:1.25;"/><polygon fill="#000000" points="188.75,356.4697,200.0564,360.1434,200.0564,352.7961,188.75,356.4697" style="stroke:#000000;stroke-width:1.25;"/><text fill="#000000" font-family="sans-serif" font-size="16.25" lengthAdjust="spacing" textLength="26.25" x="206.25" y="363.1189">has</text><text fill="#000000" font-family="sans-serif" font-size="16.25" lengthAdjust="spacing" textLength="25" x="176.9592" y="389.7477">1..*</text><text fill="#000000" font-family="sans-serif" font-size="16.25" lengthAdjust="spacing" textLength="8.75" x="236.7586" y="366.2319">1</text><!--MD5=[6e00bc214f0f2ea1746544669627ee08]
link Country to SeaDist--><path codeLine="204" d="M348.4,371.25 C375.4375,371.25 409.425,371.25 436.6625,371.25 " fill="none" id="Country-SeaDist" style="stroke:#A80036;stroke-width:1.25;"/><polygon fill="#000000" points="382.5,356.4697,371.1936,352.7961,371.1936,360.1434,382.5,356.4697" style="stroke:#000000;stroke-width:1.25;"/><text fill="#000000" font-family="sans-serif" font-size="16.25" lengthAdjust="spacing" textLength="26.25" x="387.5" y="363.1189">has</text><text fill="#000000" font-family="sans-serif" font-size="16.25" lengthAdjust="spacing" textLength="8.75" x="358.1028" y="366.2918">1</text><text fill="#000000" font-family="sans-serif" font-size="16.25" lengthAdjust="spacing" textLength="25" x="401.6898" y="389.8269">1..*</text><!--MD5=[af77745486ecd619b0abe2b33cc53f3d]
link Containers to PortStaff--><path codeLine="205" d="M972.025,482.5625 C977.2875,495.0875 982.35,507.75 986.875,520 C1012.9375,590.6 1035.6875,676.8125 1046,717.8875 " fill="none" id="Containers-PortStaff" style="stroke:#A80036;stroke-width:1.25;"/><polygon fill="#000000" points="998.7507,525.5074,998.6367,537.395,1005.6459,535.1917,998.7507,525.5074" style="stroke:#000000;stroke-width:1.25;"/><text fill="#000000" font-family="sans-serif" font-size="16.25" lengthAdjust="spacing" textLength="46.25" x="1011.875" y="538.1189">knows</text><text fill="#000000" font-family="sans-serif" font-size="16.25" lengthAdjust="spacing" textLength="25" x="950.368" y="509.8563">1..*</text><text fill="#000000" font-family="sans-serif" font-size="16.25" lengthAdjust="spacing" textLength="8.75" x="1034.2391" y="704.4699">1</text><!--MD5=[7c6c432092731d9d07f92461f0379d07]
@startuml

hide methods

class TrafficManager{
}

class Ship {
 - mmsi
 - shipName
 - imoId
 - numberOfEnergyGenerators
 - generatorsPowerOutput
 - callSign
 - vesselType
 - lenght
 - width
 - capacity
 - draft
}

class ShipDynamicFields {
 - dateTime
 - long
 -lat
 -sog
 -cog
 -heading
 -position
 -transceiverClass
}

class Port {
 - code
 - port
 - continent
 - country
 - lat
 - long
}

class Warehouse {
 - identification
 - name
 - continent
 - country
 - lat
 - long
}

class Containers {
- identification
- payload
- tare
- gross
- isoCode
- lenght
- width
- height
- temperature
- coordinates
}

class Client {
}


class CargoManifest {
- containerId
- containerPos
- containerGrossWeight
}

class Truck {
}

class FleetManager {
}

class WarehouseStaff {
}

class WarehouseManager {
}

class PortStaff {
}

class PortManager {
}

class ShipCaptain {
}

class ShipChiefElectricalEngineer {
}

class TruckDriver {
}

class ShipDistance {
- mmsi
- vesselName
- startTime
- endTime
- totalMovements
- totalTime
- maxSog
- meanSog
- maxCog
- meanCog
- depLatitude
- arrLatitude
- depLong
- arrLong
- travDist
- deltDist
}


class ShipMovement {
- mmsi
- baseDateTime
- lat
- lon
- sog
- cog
- heading
- vesselName
- imo
- callSign
- vesselType
- lenght
- width
- draft
- cargo
- transceiverClass
}

class ShipPair {
- mmsi1
- mmsi2
- departureDistance
- arrivalDistance
- travelDistance1
}

class ShipRoute {
- mmsi
- departureLat
- arrivalLat
- departureLong
- arrivalLong
- travelDistance
}

class Country {
- continent
- a2
- a3
- name
- pop
- cap
- lat
- longi
}

class SeaDist {
- fCountry
- fPortId
- fPort
- tCountry
- tPortId
- tPort
- dist
}

class Borders {
}


TrafficManager"1" -right- "1..*"Ship : > controls
FleetManager"1" -left- "1..*"Ship : > controls
WarehouseManager"1" -right- "1..*"Warehouse : > manages
WarehouseStaff"1" -left- "1..*"Warehouse : > works
PortStaff"1" -down- "1..*"Ship : > works
PortManager "1" -right- "1..*"Port : > manages
ShipCaptain "1" -up- "1..*"Ship : > manages
ShipChiefElectricalEngineer "1" -right- "1..*"Ship : > works
TruckDriver "1" -right- "1"Truck : > oversees
Ship "1" -down- "1"ShipDynamicFields : > has
Ship "1" -up- "1..*"Containers  : > has
CargoManifest "1" -right- "1..*"Containers : > controls
Truck "1" -down- "1..*"Containers : > has
Port"1" -up- "1..*"CargoManifest : > receives
Warehouse"1" -down- "1..*"CargoManifest :> receives
Ship "1" -down- "1..*"ShipDistance :> has
Ship "1" -up- "1..*"ShipMovement :> has
Ship "1" -right- "1..*"ShipPair :> has
Ship "1" -up- "1..*"ShipRoute :> has
Port "1" -down- "1..*"Ship :> contains
Client "1" -up- "1..*"Containers :> owns
Port "1" -up- "1..*"Country :> has
Country "1" -left- "1..*" Borders:> has
Country "1" -right- "1..*" SeaDist :> has
PortStaff"1" -up- "1..*" Containers :> knows



@enduml

PlantUML version 1.2021.7(Sun May 23 13:40:07 BST 2021)
(GPL source distribution)
Java Runtime: OpenJDK Runtime Environment
JVM: OpenJDK 64-Bit Server VM
Default Encoding: Cp1252
Language: pt
Country: PT
--></g></svg>