<?xml version="1.0" encoding="UTF-8" standalone="no"?><svg xmlns="http://www.w3.org/2000/svg" xmlns:xlink="http://www.w3.org/1999/xlink" contentScriptType="application/ecmascript" contentStyleType="text/css" height="606.25px" preserveAspectRatio="none" style="width:606px;height:606px;background:#FFFFFF;" version="1.1" viewBox="0 0 606 606" width="606.25px" zoomAndPan="magnify"><defs><filter height="300%" id="f1xn4psognykh6" width="300%" x="-1" y="-1"><feGaussianBlur result="blurOut" stdDeviation="2.5"/><feColorMatrix in="blurOut" result="blurOut2" type="matrix" values="0 0 0 0 0 0 0 0 0 0 0 0 0 0 0 0 0 0 .4 0"/><feOffset dx="5.0" dy="5.0" in="blurOut2" result="blurOut3"/><feBlend in="SourceGraphic" in2="blurOut3" mode="normal"/></filter></defs><g><!--MD5=[a786cbaf3b7bb76deab6d319a31c30ee]
class AuditTrailUI--><rect codeLine="3" fill="#FEFECE" filter="url(#f1xn4psognykh6)" height="60" id="AuditTrailUI" style="stroke:#A80036;stroke-width:1.875;" width="118.75" x="81.25" y="8.75"/><ellipse cx="100" cy="28.75" fill="#ADD1B2" rx="13.75" ry="13.75" style="stroke:#A80036;stroke-width:1.25;"/><path d="M102.5,24.375 Q102.7539,23.75 103.0469,23.4375 Q103.3398,23.125 103.6719,23.125 Q104.2578,23.125 104.6289,23.4766 Q105,23.8281 105,24.6484 L105,26.6016 Q105,27.4219 104.6484,27.7734 Q104.2969,28.125 103.75,28.125 Q103.2617,28.125 102.9492,27.9102 Q102.6367,27.6953 102.5,27.1289 Q102.4414,26.7383 102.2266,26.5234 Q101.8359,26.1133 101.1328,25.8789 Q100.4297,25.625 99.7266,25.625 Q98.8477,25.625 98.1055,25.9766 Q97.3828,26.3281 96.8164,27.1094 Q96.25,27.8906 96.25,28.9648 L96.25,30.1172 Q96.25,31.4063 97.3047,32.2656 Q98.3594,33.125 100.2344,33.125 Q101.3477,33.125 102.1289,32.8711 Q102.5781,32.7344 103.0859,32.2852 Q103.418,32.0313 103.5938,31.9531 Q103.7695,31.875 103.9844,31.875 Q104.3945,31.875 104.6875,32.207 Q105,32.5195 105,32.9688 Q105,33.3984 104.5703,33.9063 Q103.9453,34.6484 102.9492,35.0586 Q101.6406,35.625 100.0391,35.625 Q98.1641,35.625 96.6602,34.8828 Q95.4492,34.2969 94.5898,33.0273 Q93.75,31.7578 93.75,30.2539 L93.75,28.8867 Q93.75,27.3242 94.4922,25.957 Q95.2539,24.5898 96.5625,23.8672 Q97.8906,23.125 99.375,23.125 Q100.2734,23.125 101.0547,23.4375 Q101.8359,23.75 102.5,24.375 Z " fill="#000000"/><text fill="#000000" font-family="sans-serif" font-size="15" lengthAdjust="spacing" textLength="78.75" x="117.5" y="34.8877">AuditTrailUI</text><line style="stroke:#A80036;stroke-width:1.875;" x1="82.5" x2="198.75" y1="48.75" y2="48.75"/><line style="stroke:#A80036;stroke-width:1.875;" x1="82.5" x2="198.75" y1="58.75" y2="58.75"/><!--MD5=[db5a2dc7bd09e145a88cbebb0a532daa]
class AuditTrailController--><rect codeLine="6" fill="#FEFECE" filter="url(#f1xn4psognykh6)" height="77.2949" id="AuditTrailController" style="stroke:#A80036;stroke-width:1.875;" width="171.25" x="55" y="145"/><ellipse cx="73.75" cy="165" fill="#ADD1B2" rx="13.75" ry="13.75" style="stroke:#A80036;stroke-width:1.25;"/><path d="M76.25,160.625 Q76.5039,160 76.7969,159.6875 Q77.0898,159.375 77.4219,159.375 Q78.0078,159.375 78.3789,159.7266 Q78.75,160.0781 78.75,160.8984 L78.75,162.8516 Q78.75,163.6719 78.3984,164.0234 Q78.0469,164.375 77.5,164.375 Q77.0117,164.375 76.6992,164.1602 Q76.3867,163.9453 76.25,163.3789 Q76.1914,162.9883 75.9766,162.7734 Q75.5859,162.3633 74.8828,162.1289 Q74.1797,161.875 73.4766,161.875 Q72.5977,161.875 71.8555,162.2266 Q71.1328,162.5781 70.5664,163.3594 Q70,164.1406 70,165.2148 L70,166.3672 Q70,167.6563 71.0547,168.5156 Q72.1094,169.375 73.9844,169.375 Q75.0977,169.375 75.8789,169.1211 Q76.3281,168.9844 76.8359,168.5352 Q77.168,168.2813 77.3438,168.2031 Q77.5195,168.125 77.7344,168.125 Q78.1445,168.125 78.4375,168.457 Q78.75,168.7695 78.75,169.2188 Q78.75,169.6484 78.3203,170.1563 Q77.6953,170.8984 76.6992,171.3086 Q75.3906,171.875 73.7891,171.875 Q71.9141,171.875 70.4102,171.1328 Q69.1992,170.5469 68.3398,169.2773 Q67.5,168.0078 67.5,166.5039 L67.5,165.1367 Q67.5,163.5742 68.2422,162.207 Q69.0039,160.8398 70.3125,160.1172 Q71.6406,159.375 73.125,159.375 Q74.0234,159.375 74.8047,159.6875 Q75.5859,160 76.25,160.625 Z " fill="#000000"/><text fill="#000000" font-family="sans-serif" font-size="15" lengthAdjust="spacing" textLength="131.25" x="91.25" y="171.1377">AuditTrailController</text><line style="stroke:#A80036;stroke-width:1.875;" x1="56.25" x2="225" y1="185" y2="185"/><line style="stroke:#A80036;stroke-width:1.875;" x1="56.25" x2="225" y1="195" y2="195"/><text fill="#000000" font-family="sans-serif" font-size="13.75" lengthAdjust="spacing" textLength="92.5" x="62.5" y="214.2737">+getAuditTrail()</text><!--MD5=[0b8a0869bb17c5d05015d74abb8e1141]
class ConnectionFactory--><rect codeLine="10" fill="#FEFECE" filter="url(#f1xn4psognykh6)" height="94.5898" id="ConnectionFactory" style="stroke:#A80036;stroke-width:1.875;" width="176.25" x="8.75" y="320"/><ellipse cx="31.4375" cy="340" fill="#ADD1B2" rx="13.75" ry="13.75" style="stroke:#A80036;stroke-width:1.25;"/><path d="M33.9375,335.625 Q34.1914,335 34.4844,334.6875 Q34.7773,334.375 35.1094,334.375 Q35.6953,334.375 36.0664,334.7266 Q36.4375,335.0781 36.4375,335.8984 L36.4375,337.8516 Q36.4375,338.6719 36.0859,339.0234 Q35.7344,339.375 35.1875,339.375 Q34.6992,339.375 34.3867,339.1602 Q34.0742,338.9453 33.9375,338.3789 Q33.8789,337.9883 33.6641,337.7734 Q33.2734,337.3633 32.5703,337.1289 Q31.8672,336.875 31.1641,336.875 Q30.2852,336.875 29.543,337.2266 Q28.8203,337.5781 28.2539,338.3594 Q27.6875,339.1406 27.6875,340.2148 L27.6875,341.3672 Q27.6875,342.6563 28.7422,343.5156 Q29.7969,344.375 31.6719,344.375 Q32.7852,344.375 33.5664,344.1211 Q34.0156,343.9844 34.5234,343.5352 Q34.8555,343.2813 35.0313,343.2031 Q35.207,343.125 35.4219,343.125 Q35.832,343.125 36.125,343.457 Q36.4375,343.7695 36.4375,344.2188 Q36.4375,344.6484 36.0078,345.1563 Q35.3828,345.8984 34.3867,346.3086 Q33.0781,346.875 31.4766,346.875 Q29.6016,346.875 28.0977,346.1328 Q26.8867,345.5469 26.0273,344.2773 Q25.1875,343.0078 25.1875,341.5039 L25.1875,340.1367 Q25.1875,338.5742 25.9297,337.207 Q26.6914,335.8398 28,335.1172 Q29.3281,334.375 30.8125,334.375 Q31.7109,334.375 32.4922,334.6875 Q33.2734,335 33.9375,335.625 Z " fill="#000000"/><text fill="#000000" font-family="sans-serif" font-size="15" lengthAdjust="spacing" textLength="127.5" x="49.8125" y="346.1377">ConnectionFactory</text><line style="stroke:#A80036;stroke-width:1.875;" x1="10" x2="183.75" y1="360" y2="360"/><line style="stroke:#A80036;stroke-width:1.875;" x1="10" x2="183.75" y1="370" y2="370"/><text fill="#000000" font-family="sans-serif" font-size="13.75" lengthAdjust="spacing" textLength="87.5" x="16.25" y="389.2737">+getInstance()</text><text fill="#000000" font-family="sans-serif" font-size="13.75" lengthAdjust="spacing" textLength="161.25" x="16.25" y="406.5686">+getDatabaseConnection()</text><!--MD5=[4ebfed50a2843d6810d5f28a3ed1348c]
class CargoManifestStore--><rect codeLine="15" fill="#FEFECE" filter="url(#f1xn4psognykh6)" height="77.2949" id="CargoManifestStore" style="stroke:#A80036;stroke-width:1.875;" width="360" x="229.375" y="328.75"/><ellipse cx="335.9375" cy="348.75" fill="#ADD1B2" rx="13.75" ry="13.75" style="stroke:#A80036;stroke-width:1.25;"/><path d="M338.4375,344.375 Q338.6914,343.75 338.9844,343.4375 Q339.2773,343.125 339.6094,343.125 Q340.1953,343.125 340.5664,343.4766 Q340.9375,343.8281 340.9375,344.6484 L340.9375,346.6016 Q340.9375,347.4219 340.5859,347.7734 Q340.2344,348.125 339.6875,348.125 Q339.1992,348.125 338.8867,347.9102 Q338.5742,347.6953 338.4375,347.1289 Q338.3789,346.7383 338.1641,346.5234 Q337.7734,346.1133 337.0703,345.8789 Q336.3672,345.625 335.6641,345.625 Q334.7852,345.625 334.043,345.9766 Q333.3203,346.3281 332.7539,347.1094 Q332.1875,347.8906 332.1875,348.9648 L332.1875,350.1172 Q332.1875,351.4063 333.2422,352.2656 Q334.2969,353.125 336.1719,353.125 Q337.2852,353.125 338.0664,352.8711 Q338.5156,352.7344 339.0234,352.2852 Q339.3555,352.0313 339.5313,351.9531 Q339.707,351.875 339.9219,351.875 Q340.332,351.875 340.625,352.207 Q340.9375,352.5195 340.9375,352.9688 Q340.9375,353.3984 340.5078,353.9063 Q339.8828,354.6484 338.8867,355.0586 Q337.5781,355.625 335.9766,355.625 Q334.1016,355.625 332.5977,354.8828 Q331.3867,354.2969 330.5273,353.0273 Q329.6875,351.7578 329.6875,350.2539 L329.6875,348.8867 Q329.6875,347.3242 330.4297,345.957 Q331.1914,344.5898 332.5,343.8672 Q333.8281,343.125 335.3125,343.125 Q336.2109,343.125 336.9922,343.4375 Q337.7734,343.75 338.4375,344.375 Z " fill="#000000"/><text fill="#000000" font-family="sans-serif" font-size="15" lengthAdjust="spacing" textLength="136.25" x="361.5625" y="354.8877">CargoManifestStore</text><line style="stroke:#A80036;stroke-width:1.875;" x1="230.625" x2="588.125" y1="368.75" y2="368.75"/><line style="stroke:#A80036;stroke-width:1.875;" x1="230.625" x2="588.125" y1="378.75" y2="378.75"/><text fill="#000000" font-family="sans-serif" font-size="13.75" lengthAdjust="spacing" textLength="345" x="236.875" y="398.0237">+getAuditTrail(DatabaseConnection databaseConnection)</text><!--MD5=[8aa441cdd93a4e2944eff58bc06cd78a]
class DatabaseConnection--><rect codeLine="19" fill="#FEFECE" filter="url(#f1xn4psognykh6)" height="77.2949" id="DatabaseConnection" style="stroke:#A80036;stroke-width:1.875;" width="186.25" x="316.25" y="512.5"/><ellipse cx="335" cy="532.5" fill="#ADD1B2" rx="13.75" ry="13.75" style="stroke:#A80036;stroke-width:1.25;"/><path d="M337.5,528.125 Q337.7539,527.5 338.0469,527.1875 Q338.3398,526.875 338.6719,526.875 Q339.2578,526.875 339.6289,527.2266 Q340,527.5781 340,528.3984 L340,530.3516 Q340,531.1719 339.6484,531.5234 Q339.2969,531.875 338.75,531.875 Q338.2617,531.875 337.9492,531.6602 Q337.6367,531.4453 337.5,530.8789 Q337.4414,530.4883 337.2266,530.2734 Q336.8359,529.8633 336.1328,529.6289 Q335.4297,529.375 334.7266,529.375 Q333.8477,529.375 333.1055,529.7266 Q332.3828,530.0781 331.8164,530.8594 Q331.25,531.6406 331.25,532.7148 L331.25,533.8672 Q331.25,535.1563 332.3047,536.0156 Q333.3594,536.875 335.2344,536.875 Q336.3477,536.875 337.1289,536.6211 Q337.5781,536.4844 338.0859,536.0352 Q338.418,535.7813 338.5938,535.7031 Q338.7695,535.625 338.9844,535.625 Q339.3945,535.625 339.6875,535.957 Q340,536.2695 340,536.7188 Q340,537.1484 339.5703,537.6563 Q338.9453,538.3984 337.9492,538.8086 Q336.6406,539.375 335.0391,539.375 Q333.1641,539.375 331.6602,538.6328 Q330.4492,538.0469 329.5898,536.7773 Q328.75,535.5078 328.75,534.0039 L328.75,532.6367 Q328.75,531.0742 329.4922,529.707 Q330.2539,528.3398 331.5625,527.6172 Q332.8906,526.875 334.375,526.875 Q335.2734,526.875 336.0547,527.1875 Q336.8359,527.5 337.5,528.125 Z " fill="#000000"/><text fill="#000000" font-family="sans-serif" font-size="15" lengthAdjust="spacing" textLength="146.25" x="352.5" y="538.6377">DatabaseConnection</text><line style="stroke:#A80036;stroke-width:1.875;" x1="317.5" x2="501.25" y1="552.5" y2="552.5"/><line style="stroke:#A80036;stroke-width:1.875;" x1="317.5" x2="501.25" y1="562.5" y2="562.5"/><text fill="#000000" font-family="sans-serif" font-size="13.75" lengthAdjust="spacing" textLength="103.75" x="323.75" y="581.7737">+getConnection()</text><!--MD5=[46779b83c033d628b4e34270394c7b51]
link AuditTrailUI to AuditTrailController--><path codeLine="23" d="M140.625,68.8375 C140.625,88.7625 140.625,115.6375 140.625,138.25 " fill="none" id="AuditTrailUI-to-AuditTrailController" style="stroke:#A80036;stroke-width:1.25;stroke-dasharray:7.0,7.0;"/><polygon fill="#A80036" points="140.625,144.5125,145.625,133.2625,140.625,138.2625,135.625,133.2625,140.625,144.5125" style="stroke:#A80036;stroke-width:1.25;"/><!--MD5=[72ae223eec9683774975e989072b2ed6]
link AuditTrailController to ConnectionFactory--><path codeLine="24" d="M131.5625,222.55 C125.2,248.8875 116.625,284.45 109.5875,313.6 " fill="none" id="AuditTrailController-to-ConnectionFactory" style="stroke:#A80036;stroke-width:1.25;"/><polygon fill="#A80036" points="108.1,319.725,115.5982,309.9608,109.5653,313.6492,105.877,307.6163,108.1,319.725" style="stroke:#A80036;stroke-width:1.25;"/><text fill="#000000" font-family="sans-serif" font-size="16.25" lengthAdjust="spacing" textLength="35" x="123.125" y="278.1189">uses</text><text fill="#000000" font-family="sans-serif" font-size="16.25" lengthAdjust="spacing" textLength="8.75" x="120.167" y="249.0898">1</text><text fill="#000000" font-family="sans-serif" font-size="16.25" lengthAdjust="spacing" textLength="25" x="82.8729" y="306.3784">1..*</text><!--MD5=[8fdf31403e877d680a3bed4ab03a281b]
link AuditTrailController to CargoManifestStore--><path codeLine="25" d="M196.3125,222.55 C240.6375,252.45 302.5875,294.2375 348.275,325.0375 " fill="none" id="AuditTrailController-to-CargoManifestStore" style="stroke:#A80036;stroke-width:1.25;"/><polygon fill="#A80036" points="353.7625,328.7375,347.2168,318.3108,348.576,325.25,341.6368,326.6092,353.7625,328.7375" style="stroke:#A80036;stroke-width:1.25;"/><text fill="#000000" font-family="sans-serif" font-size="16.25" lengthAdjust="spacing" textLength="35" x="283.125" y="278.1189">uses</text><text fill="#000000" font-family="sans-serif" font-size="16.25" lengthAdjust="spacing" textLength="8.75" x="197.6646" y="249.0898">1</text><text fill="#000000" font-family="sans-serif" font-size="16.25" lengthAdjust="spacing" textLength="8.75" x="331.8902" y="315.0101">1</text><!--MD5=[2116ab72117c1937cd431dde115995d9]
link CargoManifestStore to DatabaseConnection--><path codeLine="26" d="M409.375,406.3 C409.375,435.35 409.375,475.6125 409.375,506.1375 " fill="none" id="CargoManifestStore-to-DatabaseConnection" style="stroke:#A80036;stroke-width:1.25;"/><polygon fill="#A80036" points="409.375,512.4875,414.375,501.2375,409.375,506.2375,404.375,501.2375,409.375,512.4875" style="stroke:#A80036;stroke-width:1.25;"/><text fill="#000000" font-family="sans-serif" font-size="16.25" lengthAdjust="spacing" textLength="35" x="410.625" y="470.6189">uses</text><text fill="#000000" font-family="sans-serif" font-size="16.25" lengthAdjust="spacing" textLength="8.75" x="399.7637" y="432.8398">1</text><text fill="#000000" font-family="sans-serif" font-size="16.25" lengthAdjust="spacing" textLength="25" x="381.6406" y="498.7601">1..*</text><!--MD5=[fb7bbd6243dc139ce206c8b396d47f01]
@startuml
skinparam classAttributeIconSize 0

class AuditTrailUI{
}

class AuditTrailController {
+ getAuditTrail()
}

class ConnectionFactory {
+ getInstance()
+ getDatabaseConnection()
}

class CargoManifestStore {
+ getAuditTrail(DatabaseConnection databaseConnection)
}

class DatabaseConnection {
+ getConnection()
}

AuditTrailController <.up. AuditTrailUI
AuditTrailController "1" - -> "1..*" ConnectionFactory : uses
AuditTrailController "1" - -> "1" CargoManifestStore : uses
CargoManifestStore "1" - -> "1..*" DatabaseConnection : uses



@enduml

PlantUML version 1.2021.7(Sun May 23 13:40:07 BST 2021)
(GPL source distribution)
Java Runtime: OpenJDK Runtime Environment
JVM: OpenJDK 64-Bit Server VM
Default Encoding: Cp1252
Language: pt
Country: PT
--></g></svg>