<?xml version="1.0" encoding="UTF-8" standalone="no"?><svg xmlns="http://www.w3.org/2000/svg" xmlns:xlink="http://www.w3.org/1999/xlink" contentScriptType="application/ecmascript" contentStyleType="text/css" height="677.5px" preserveAspectRatio="none" style="width:160px;height:677px;background:#FFFFFF;" version="1.1" viewBox="0 0 160 677" width="160px" zoomAndPan="magnify"><defs><filter height="300%" id="f1ky1qmockf83u" width="300%" x="-1" y="-1"><feGaussianBlur result="blurOut" stdDeviation="2.5"/><feColorMatrix in="blurOut" result="blurOut2" type="matrix" values="0 0 0 0 0 0 0 0 0 0 0 0 0 0 0 0 0 0 .4 0"/><feOffset dx="5.0" dy="5.0" in="blurOut2" result="blurOut3"/><feBlend in="SourceGraphic" in2="blurOut3" mode="normal"/></filter></defs><g><!--MD5=[019a73386217e12d5bb8e34bf0b46b9e]
class FleetManager--><rect codeLine="1" fill="#FEFECE" filter="url(#f1ky1qmockf83u)" height="60" id="FleetManager" style="stroke:#A80036;stroke-width:1.875;" width="133.75" x="8.75" y="8.75"/><ellipse cx="27.5" cy="28.75" fill="#ADD1B2" rx="13.75" ry="13.75" style="stroke:#A80036;stroke-width:1.25;"/><path d="M30,24.375 Q30.2539,23.75 30.5469,23.4375 Q30.8398,23.125 31.1719,23.125 Q31.7578,23.125 32.1289,23.4766 Q32.5,23.8281 32.5,24.6484 L32.5,26.6016 Q32.5,27.4219 32.1484,27.7734 Q31.7969,28.125 31.25,28.125 Q30.7617,28.125 30.4492,27.9102 Q30.1367,27.6953 30,27.1289 Q29.9414,26.7383 29.7266,26.5234 Q29.3359,26.1133 28.6328,25.8789 Q27.9297,25.625 27.2266,25.625 Q26.3477,25.625 25.6055,25.9766 Q24.8828,26.3281 24.3164,27.1094 Q23.75,27.8906 23.75,28.9648 L23.75,30.1172 Q23.75,31.4063 24.8047,32.2656 Q25.8594,33.125 27.7344,33.125 Q28.8477,33.125 29.6289,32.8711 Q30.0781,32.7344 30.5859,32.2852 Q30.918,32.0313 31.0938,31.9531 Q31.2695,31.875 31.4844,31.875 Q31.8945,31.875 32.1875,32.207 Q32.5,32.5195 32.5,32.9688 Q32.5,33.3984 32.0703,33.9063 Q31.4453,34.6484 30.4492,35.0586 Q29.1406,35.625 27.5391,35.625 Q25.6641,35.625 24.1602,34.8828 Q22.9492,34.2969 22.0898,33.0273 Q21.25,31.7578 21.25,30.2539 L21.25,28.8867 Q21.25,27.3242 21.9922,25.957 Q22.7539,24.5898 24.0625,23.8672 Q25.3906,23.125 26.875,23.125 Q27.7734,23.125 28.5547,23.4375 Q29.3359,23.75 30,24.375 Z " fill="#000000"/><text fill="#000000" font-family="sans-serif" font-size="15" lengthAdjust="spacing" textLength="93.75" x="45" y="34.8877">FleetManager</text><line style="stroke:#A80036;stroke-width:1.875;" x1="10" x2="141.25" y1="48.75" y2="48.75"/><line style="stroke:#A80036;stroke-width:1.875;" x1="10" x2="141.25" y1="58.75" y2="58.75"/><!--MD5=[0dc7f2ddb409b58bcf52b12238c25399]
class Ship--><rect codeLine="4" fill="#FEFECE" filter="url(#f1ky1qmockf83u)" height="232.9492" id="Ship" style="stroke:#A80036;stroke-width:1.875;" width="107.5" x="21.875" y="166.25"/><ellipse cx="56.9375" cy="186.25" fill="#ADD1B2" rx="13.75" ry="13.75" style="stroke:#A80036;stroke-width:1.25;"/><path d="M59.4375,181.875 Q59.6914,181.25 59.9844,180.9375 Q60.2773,180.625 60.6094,180.625 Q61.1953,180.625 61.5664,180.9766 Q61.9375,181.3281 61.9375,182.1484 L61.9375,184.1016 Q61.9375,184.9219 61.5859,185.2734 Q61.2344,185.625 60.6875,185.625 Q60.1992,185.625 59.8867,185.4102 Q59.5742,185.1953 59.4375,184.6289 Q59.3789,184.2383 59.1641,184.0234 Q58.7734,183.6133 58.0703,183.3789 Q57.3672,183.125 56.6641,183.125 Q55.7852,183.125 55.043,183.4766 Q54.3203,183.8281 53.7539,184.6094 Q53.1875,185.3906 53.1875,186.4648 L53.1875,187.6172 Q53.1875,188.9063 54.2422,189.7656 Q55.2969,190.625 57.1719,190.625 Q58.2852,190.625 59.0664,190.3711 Q59.5156,190.2344 60.0234,189.7852 Q60.3555,189.5313 60.5313,189.4531 Q60.707,189.375 60.9219,189.375 Q61.332,189.375 61.625,189.707 Q61.9375,190.0195 61.9375,190.4688 Q61.9375,190.8984 61.5078,191.4063 Q60.8828,192.1484 59.8867,192.5586 Q58.5781,193.125 56.9766,193.125 Q55.1016,193.125 53.5977,192.3828 Q52.3867,191.7969 51.5273,190.5273 Q50.6875,189.2578 50.6875,187.7539 L50.6875,186.3867 Q50.6875,184.8242 51.4297,183.457 Q52.1914,182.0898 53.5,181.3672 Q54.8281,180.625 56.3125,180.625 Q57.2109,180.625 57.9922,180.9375 Q58.7734,181.25 59.4375,181.875 Z " fill="#000000"/><text fill="#000000" font-family="sans-serif" font-size="15" lengthAdjust="spacing" textLength="31.25" x="78.0625" y="192.3877">Ship</text><line style="stroke:#A80036;stroke-width:1.875;" x1="23.125" x2="128.125" y1="206.25" y2="206.25"/><rect fill="none" height="7.5" style="stroke:#C82930;stroke-width:1.25;" width="7.5" x="31.875" y="216.25"/><text fill="#000000" font-family="sans-serif" font-size="13.75" lengthAdjust="spacing" textLength="75" x="46.875" y="225.5237">identification</text><rect fill="none" height="7.5" style="stroke:#C82930;stroke-width:1.25;" width="7.5" x="31.875" y="233.5449"/><text fill="#000000" font-family="sans-serif" font-size="13.75" lengthAdjust="spacing" textLength="47.5" x="46.875" y="242.8186">payload</text><rect fill="none" height="7.5" style="stroke:#C82930;stroke-width:1.25;" width="7.5" x="31.875" y="250.8398"/><text fill="#000000" font-family="sans-serif" font-size="13.75" lengthAdjust="spacing" textLength="23.75" x="46.875" y="260.1135">tare</text><rect fill="none" height="7.5" style="stroke:#C82930;stroke-width:1.25;" width="7.5" x="31.875" y="268.1348"/><text fill="#000000" font-family="sans-serif" font-size="13.75" lengthAdjust="spacing" textLength="35" x="46.875" y="277.4084">gross</text><rect fill="none" height="7.5" style="stroke:#C82930;stroke-width:1.25;" width="7.5" x="31.875" y="285.4297"/><text fill="#000000" font-family="sans-serif" font-size="13.75" lengthAdjust="spacing" textLength="48.75" x="46.875" y="294.7034">isoCode</text><rect fill="none" height="7.5" style="stroke:#C82930;stroke-width:1.25;" width="7.5" x="31.875" y="302.7246"/><text fill="#000000" font-family="sans-serif" font-size="13.75" lengthAdjust="spacing" textLength="36.25" x="46.875" y="311.9983">lenght</text><rect fill="none" height="7.5" style="stroke:#C82930;stroke-width:1.25;" width="7.5" x="31.875" y="320.0195"/><text fill="#000000" font-family="sans-serif" font-size="13.75" lengthAdjust="spacing" textLength="33.75" x="46.875" y="329.2932">width</text><rect fill="none" height="7.5" style="stroke:#C82930;stroke-width:1.25;" width="7.5" x="31.875" y="337.3145"/><text fill="#000000" font-family="sans-serif" font-size="13.75" lengthAdjust="spacing" textLength="36.25" x="46.875" y="346.5881">height</text><rect fill="none" height="7.5" style="stroke:#C82930;stroke-width:1.25;" width="7.5" x="31.875" y="354.6094"/><text fill="#000000" font-family="sans-serif" font-size="13.75" lengthAdjust="spacing" textLength="72.5" x="46.875" y="363.8831">temperature</text><rect fill="none" height="7.5" style="stroke:#C82930;stroke-width:1.25;" width="7.5" x="31.875" y="371.9043"/><text fill="#000000" font-family="sans-serif" font-size="13.75" lengthAdjust="spacing" textLength="71.25" x="46.875" y="381.178">coordinates</text><line style="stroke:#A80036;stroke-width:1.875;" x1="23.125" x2="128.125" y1="389.1992" y2="389.1992"/><!--MD5=[a44ad20d45cac02e8c33cdd4602627cf]
class ShipRoute--><rect codeLine="17" fill="#FEFECE" filter="url(#f1ky1qmockf83u)" height="163.7695" id="ShipRoute" style="stroke:#A80036;stroke-width:1.875;" width="121.25" x="15" y="496.25"/><ellipse cx="37.6875" cy="516.25" fill="#ADD1B2" rx="13.75" ry="13.75" style="stroke:#A80036;stroke-width:1.25;"/><path d="M40.1875,511.875 Q40.4414,511.25 40.7344,510.9375 Q41.0273,510.625 41.3594,510.625 Q41.9453,510.625 42.3164,510.9766 Q42.6875,511.3281 42.6875,512.1484 L42.6875,514.1016 Q42.6875,514.9219 42.3359,515.2734 Q41.9844,515.625 41.4375,515.625 Q40.9492,515.625 40.6367,515.4102 Q40.3242,515.1953 40.1875,514.6289 Q40.1289,514.2383 39.9141,514.0234 Q39.5234,513.6133 38.8203,513.3789 Q38.1172,513.125 37.4141,513.125 Q36.5352,513.125 35.793,513.4766 Q35.0703,513.8281 34.5039,514.6094 Q33.9375,515.3906 33.9375,516.4648 L33.9375,517.6172 Q33.9375,518.9063 34.9922,519.7656 Q36.0469,520.625 37.9219,520.625 Q39.0352,520.625 39.8164,520.3711 Q40.2656,520.2344 40.7734,519.7852 Q41.1055,519.5313 41.2813,519.4531 Q41.457,519.375 41.6719,519.375 Q42.082,519.375 42.375,519.707 Q42.6875,520.0195 42.6875,520.4688 Q42.6875,520.8984 42.2578,521.4063 Q41.6328,522.1484 40.6367,522.5586 Q39.3281,523.125 37.7266,523.125 Q35.8516,523.125 34.3477,522.3828 Q33.1367,521.7969 32.2773,520.5273 Q31.4375,519.2578 31.4375,517.7539 L31.4375,516.3867 Q31.4375,514.8242 32.1797,513.457 Q32.9414,512.0898 34.25,511.3672 Q35.5781,510.625 37.0625,510.625 Q37.9609,510.625 38.7422,510.9375 Q39.5234,511.25 40.1875,511.875 Z " fill="#000000"/><text fill="#000000" font-family="sans-serif" font-size="15" lengthAdjust="spacing" textLength="72.5" x="56.0625" y="522.3877">ShipRoute</text><line style="stroke:#A80036;stroke-width:1.875;" x1="16.25" x2="135" y1="536.25" y2="536.25"/><rect fill="none" height="7.5" style="stroke:#C82930;stroke-width:1.25;" width="7.5" x="25" y="546.25"/><text fill="#000000" font-family="sans-serif" font-size="13.75" lengthAdjust="spacing" textLength="30" x="40" y="555.5237">mmsi</text><rect fill="none" height="7.5" style="stroke:#C82930;stroke-width:1.25;" width="7.5" x="25" y="563.5449"/><text fill="#000000" font-family="sans-serif" font-size="13.75" lengthAdjust="spacing" textLength="77.5" x="40" y="572.8186">departureLat</text><rect fill="none" height="7.5" style="stroke:#C82930;stroke-width:1.25;" width="7.5" x="25" y="580.8398"/><text fill="#000000" font-family="sans-serif" font-size="13.75" lengthAdjust="spacing" textLength="56.25" x="40" y="590.1135">arrivalLat</text><rect fill="none" height="7.5" style="stroke:#C82930;stroke-width:1.25;" width="7.5" x="25" y="598.1348"/><text fill="#000000" font-family="sans-serif" font-size="13.75" lengthAdjust="spacing" textLength="88.75" x="40" y="607.4084">departureLong</text><rect fill="none" height="7.5" style="stroke:#C82930;stroke-width:1.25;" width="7.5" x="25" y="615.4297"/><text fill="#000000" font-family="sans-serif" font-size="13.75" lengthAdjust="spacing" textLength="67.5" x="40" y="624.7034">arrivalLong</text><rect fill="none" height="7.5" style="stroke:#C82930;stroke-width:1.25;" width="7.5" x="25" y="632.7246"/><text fill="#000000" font-family="sans-serif" font-size="13.75" lengthAdjust="spacing" textLength="86.25" x="40" y="641.9983">travelDistance</text><line style="stroke:#A80036;stroke-width:1.875;" x1="16.25" x2="135" y1="650.0195" y2="650.0195"/><!--MD5=[468ddd4b70c80a28a8ccd89867b6518f]
link FleetManager to Ship--><path codeLine="26" d="M75.625,69.1 C75.625,93.5375 75.625,130.1375 75.625,166.0875 " fill="none" id="FleetManager-Ship" style="stroke:#A80036;stroke-width:1.25;"/><polygon fill="#000000" points="81.875,123.9697,85.5487,112.6634,78.2013,112.6634,81.875,123.9697" style="stroke:#000000;stroke-width:1.25;"/><text fill="#000000" font-family="sans-serif" font-size="16.25" lengthAdjust="spacing" textLength="57.5" x="93.125" y="124.3689">controls</text><text fill="#000000" font-family="sans-serif" font-size="16.25" lengthAdjust="spacing" textLength="8.75" x="65.8086" y="95.8578">1</text><text fill="#000000" font-family="sans-serif" font-size="16.25" lengthAdjust="spacing" textLength="25" x="49.5898" y="152.4875">1..*</text><!--MD5=[d091a39e185f55d1d64035dc9b810591]
link Ship to ShipRoute--><path codeLine="27" d="M75.625,398.7625 C75.625,431.325 75.625,466.0625 75.625,496.1375 " fill="none" id="Ship-ShipRoute" style="stroke:#A80036;stroke-width:1.25;"/><polygon fill="#000000" points="81.875,453.9697,85.5487,442.6634,78.2013,442.6634,81.875,453.9697" style="stroke:#000000;stroke-width:1.25;"/><text fill="#000000" font-family="sans-serif" font-size="16.25" lengthAdjust="spacing" textLength="26.25" x="93.125" y="454.3689">has</text><text fill="#000000" font-family="sans-serif" font-size="16.25" lengthAdjust="spacing" textLength="8.75" x="66.5127" y="426.0871">1</text><text fill="#000000" font-family="sans-serif" font-size="16.25" lengthAdjust="spacing" textLength="25" x="49.1797" y="482.3946">1..*</text><!--MD5=[137fe88c559e34e9cc4ce58ae242e128]
@startuml
class FleetManager {
}

class Ship {
- identification
- payload
- tare
- gross
- isoCode
- lenght
- width
- height
- temperature
- coordinates
}

class ShipRoute {
- mmsi
- departureLat
- arrivalLat
- departureLong
- arrivalLong
- travelDistance
}

FleetManager"1" -down- "1..*"Ship : > controls
Ship "1" -down- "1..*"ShipRoute :> has




@enduml

PlantUML version 1.2021.7(Sun May 23 13:40:07 BST 2021)
(GPL source distribution)
Java Runtime: OpenJDK Runtime Environment
JVM: OpenJDK 64-Bit Server VM
Default Encoding: Cp1252
Language: pt
Country: PT
--></g></svg>