<?xml version="1.0" encoding="UTF-8" standalone="no"?><svg xmlns="http://www.w3.org/2000/svg" xmlns:xlink="http://www.w3.org/1999/xlink" contentScriptType="application/ecmascript" contentStyleType="text/css" height="606.25px" preserveAspectRatio="none" style="width:835px;height:606px;background:#FFFFFF;" version="1.1" viewBox="0 0 835 606" width="835px" zoomAndPan="magnify"><defs><filter height="300%" id="fclotbiad5cj1" width="300%" x="-1" y="-1"><feGaussianBlur result="blurOut" stdDeviation="2.5"/><feColorMatrix in="blurOut" result="blurOut2" type="matrix" values="0 0 0 0 0 0 0 0 0 0 0 0 0 0 0 0 0 0 .4 0"/><feOffset dx="5.0" dy="5.0" in="blurOut2" result="blurOut3"/><feBlend in="SourceGraphic" in2="blurOut3" mode="normal"/></filter></defs><g><!--MD5=[d98db85936e75bfba2672cc8c2e3781c]
class ShipOccupancyUI--><rect codeLine="3" fill="#FEFECE" filter="url(#fclotbiad5cj1)" height="60" id="ShipOccupancyUI" style="stroke:#A80036;stroke-width:1.875;" width="161.25" x="143.75" y="8.75"/><ellipse cx="162.5" cy="28.75" fill="#ADD1B2" rx="13.75" ry="13.75" style="stroke:#A80036;stroke-width:1.25;"/><path d="M165,24.375 Q165.2539,23.75 165.5469,23.4375 Q165.8398,23.125 166.1719,23.125 Q166.7578,23.125 167.1289,23.4766 Q167.5,23.8281 167.5,24.6484 L167.5,26.6016 Q167.5,27.4219 167.1484,27.7734 Q166.7969,28.125 166.25,28.125 Q165.7617,28.125 165.4492,27.9102 Q165.1367,27.6953 165,27.1289 Q164.9414,26.7383 164.7266,26.5234 Q164.3359,26.1133 163.6328,25.8789 Q162.9297,25.625 162.2266,25.625 Q161.3477,25.625 160.6055,25.9766 Q159.8828,26.3281 159.3164,27.1094 Q158.75,27.8906 158.75,28.9648 L158.75,30.1172 Q158.75,31.4063 159.8047,32.2656 Q160.8594,33.125 162.7344,33.125 Q163.8477,33.125 164.6289,32.8711 Q165.0781,32.7344 165.5859,32.2852 Q165.918,32.0313 166.0938,31.9531 Q166.2695,31.875 166.4844,31.875 Q166.8945,31.875 167.1875,32.207 Q167.5,32.5195 167.5,32.9688 Q167.5,33.3984 167.0703,33.9063 Q166.4453,34.6484 165.4492,35.0586 Q164.1406,35.625 162.5391,35.625 Q160.6641,35.625 159.1602,34.8828 Q157.9492,34.2969 157.0898,33.0273 Q156.25,31.7578 156.25,30.2539 L156.25,28.8867 Q156.25,27.3242 156.9922,25.957 Q157.7539,24.5898 159.0625,23.8672 Q160.3906,23.125 161.875,23.125 Q162.7734,23.125 163.5547,23.4375 Q164.3359,23.75 165,24.375 Z " fill="#000000"/><text fill="#000000" font-family="sans-serif" font-size="15" lengthAdjust="spacing" textLength="121.25" x="180" y="34.8877">ShipOccupancyUI</text><line style="stroke:#A80036;stroke-width:1.875;" x1="145" x2="303.75" y1="48.75" y2="48.75"/><line style="stroke:#A80036;stroke-width:1.875;" x1="145" x2="303.75" y1="58.75" y2="58.75"/><!--MD5=[b876ef1f37e0d8b9b6a40127fe5975bb]
class ShipOccupancyController--><rect codeLine="6" fill="#FEFECE" filter="url(#fclotbiad5cj1)" height="77.2949" id="ShipOccupancyController" style="stroke:#A80036;stroke-width:1.875;" width="227.5" x="110.625" y="145"/><ellipse cx="135.5625" cy="165" fill="#ADD1B2" rx="13.75" ry="13.75" style="stroke:#A80036;stroke-width:1.25;"/><path d="M138.0625,160.625 Q138.3164,160 138.6094,159.6875 Q138.9023,159.375 139.2344,159.375 Q139.8203,159.375 140.1914,159.7266 Q140.5625,160.0781 140.5625,160.8984 L140.5625,162.8516 Q140.5625,163.6719 140.2109,164.0234 Q139.8594,164.375 139.3125,164.375 Q138.8242,164.375 138.5117,164.1602 Q138.1992,163.9453 138.0625,163.3789 Q138.0039,162.9883 137.7891,162.7734 Q137.3984,162.3633 136.6953,162.1289 Q135.9922,161.875 135.2891,161.875 Q134.4102,161.875 133.668,162.2266 Q132.9453,162.5781 132.3789,163.3594 Q131.8125,164.1406 131.8125,165.2148 L131.8125,166.3672 Q131.8125,167.6563 132.8672,168.5156 Q133.9219,169.375 135.7969,169.375 Q136.9102,169.375 137.6914,169.1211 Q138.1406,168.9844 138.6484,168.5352 Q138.9805,168.2813 139.1563,168.2031 Q139.332,168.125 139.5469,168.125 Q139.957,168.125 140.25,168.457 Q140.5625,168.7695 140.5625,169.2188 Q140.5625,169.6484 140.1328,170.1563 Q139.5078,170.8984 138.5117,171.3086 Q137.2031,171.875 135.6016,171.875 Q133.7266,171.875 132.2227,171.1328 Q131.0117,170.5469 130.1523,169.2773 Q129.3125,168.0078 129.3125,166.5039 L129.3125,165.1367 Q129.3125,163.5742 130.0547,162.207 Q130.8164,160.8398 132.125,160.1172 Q133.4531,159.375 134.9375,159.375 Q135.8359,159.375 136.6172,159.6875 Q137.3984,160 138.0625,160.625 Z " fill="#000000"/><text fill="#000000" font-family="sans-serif" font-size="15" lengthAdjust="spacing" textLength="173.75" x="154.4375" y="171.1377">ShipOccupancyController</text><line style="stroke:#A80036;stroke-width:1.875;" x1="111.875" x2="336.875" y1="185" y2="185"/><line style="stroke:#A80036;stroke-width:1.875;" x1="111.875" x2="336.875" y1="195" y2="195"/><text fill="#000000" font-family="sans-serif" font-size="13.75" lengthAdjust="spacing" textLength="212.5" x="118.125" y="214.2737">+averageOccupancyRate(int mmsi)</text><!--MD5=[0b8a0869bb17c5d05015d74abb8e1141]
class ConnectionFactory--><rect codeLine="10" fill="#FEFECE" filter="url(#fclotbiad5cj1)" height="94.5898" id="ConnectionFactory" style="stroke:#A80036;stroke-width:1.875;" width="176.25" x="8.75" y="320"/><ellipse cx="31.4375" cy="340" fill="#ADD1B2" rx="13.75" ry="13.75" style="stroke:#A80036;stroke-width:1.25;"/><path d="M33.9375,335.625 Q34.1914,335 34.4844,334.6875 Q34.7773,334.375 35.1094,334.375 Q35.6953,334.375 36.0664,334.7266 Q36.4375,335.0781 36.4375,335.8984 L36.4375,337.8516 Q36.4375,338.6719 36.0859,339.0234 Q35.7344,339.375 35.1875,339.375 Q34.6992,339.375 34.3867,339.1602 Q34.0742,338.9453 33.9375,338.3789 Q33.8789,337.9883 33.6641,337.7734 Q33.2734,337.3633 32.5703,337.1289 Q31.8672,336.875 31.1641,336.875 Q30.2852,336.875 29.543,337.2266 Q28.8203,337.5781 28.2539,338.3594 Q27.6875,339.1406 27.6875,340.2148 L27.6875,341.3672 Q27.6875,342.6563 28.7422,343.5156 Q29.7969,344.375 31.6719,344.375 Q32.7852,344.375 33.5664,344.1211 Q34.0156,343.9844 34.5234,343.5352 Q34.8555,343.2813 35.0313,343.2031 Q35.207,343.125 35.4219,343.125 Q35.832,343.125 36.125,343.457 Q36.4375,343.7695 36.4375,344.2188 Q36.4375,344.6484 36.0078,345.1563 Q35.3828,345.8984 34.3867,346.3086 Q33.0781,346.875 31.4766,346.875 Q29.6016,346.875 28.0977,346.1328 Q26.8867,345.5469 26.0273,344.2773 Q25.1875,343.0078 25.1875,341.5039 L25.1875,340.1367 Q25.1875,338.5742 25.9297,337.207 Q26.6914,335.8398 28,335.1172 Q29.3281,334.375 30.8125,334.375 Q31.7109,334.375 32.4922,334.6875 Q33.2734,335 33.9375,335.625 Z " fill="#000000"/><text fill="#000000" font-family="sans-serif" font-size="15" lengthAdjust="spacing" textLength="127.5" x="49.8125" y="346.1377">ConnectionFactory</text><line style="stroke:#A80036;stroke-width:1.875;" x1="10" x2="183.75" y1="360" y2="360"/><line style="stroke:#A80036;stroke-width:1.875;" x1="10" x2="183.75" y1="370" y2="370"/><text fill="#000000" font-family="sans-serif" font-size="13.75" lengthAdjust="spacing" textLength="87.5" x="16.25" y="389.2737">+getInstance()</text><text fill="#000000" font-family="sans-serif" font-size="13.75" lengthAdjust="spacing" textLength="161.25" x="16.25" y="406.5686">+getDatabaseConnection()</text><!--MD5=[4ebfed50a2843d6810d5f28a3ed1348c]
class CargoManifestStore--><rect codeLine="15" fill="#FEFECE" filter="url(#fclotbiad5cj1)" height="77.2949" id="CargoManifestStore" style="stroke:#A80036;stroke-width:1.875;" width="588.75" x="228.75" y="328.75"/><ellipse cx="449.6875" cy="348.75" fill="#ADD1B2" rx="13.75" ry="13.75" style="stroke:#A80036;stroke-width:1.25;"/><path d="M452.1875,344.375 Q452.4414,343.75 452.7344,343.4375 Q453.0273,343.125 453.3594,343.125 Q453.9453,343.125 454.3164,343.4766 Q454.6875,343.8281 454.6875,344.6484 L454.6875,346.6016 Q454.6875,347.4219 454.3359,347.7734 Q453.9844,348.125 453.4375,348.125 Q452.9492,348.125 452.6367,347.9102 Q452.3242,347.6953 452.1875,347.1289 Q452.1289,346.7383 451.9141,346.5234 Q451.5234,346.1133 450.8203,345.8789 Q450.1172,345.625 449.4141,345.625 Q448.5352,345.625 447.793,345.9766 Q447.0703,346.3281 446.5039,347.1094 Q445.9375,347.8906 445.9375,348.9648 L445.9375,350.1172 Q445.9375,351.4063 446.9922,352.2656 Q448.0469,353.125 449.9219,353.125 Q451.0352,353.125 451.8164,352.8711 Q452.2656,352.7344 452.7734,352.2852 Q453.1055,352.0313 453.2813,351.9531 Q453.457,351.875 453.6719,351.875 Q454.082,351.875 454.375,352.207 Q454.6875,352.5195 454.6875,352.9688 Q454.6875,353.3984 454.2578,353.9063 Q453.6328,354.6484 452.6367,355.0586 Q451.3281,355.625 449.7266,355.625 Q447.8516,355.625 446.3477,354.8828 Q445.1367,354.2969 444.2773,353.0273 Q443.4375,351.7578 443.4375,350.2539 L443.4375,348.8867 Q443.4375,347.3242 444.1797,345.957 Q444.9414,344.5898 446.25,343.8672 Q447.5781,343.125 449.0625,343.125 Q449.9609,343.125 450.7422,343.4375 Q451.5234,343.75 452.1875,344.375 Z " fill="#000000"/><text fill="#000000" font-family="sans-serif" font-size="15" lengthAdjust="spacing" textLength="136.25" x="475.3125" y="354.8877">CargoManifestStore</text><line style="stroke:#A80036;stroke-width:1.875;" x1="230" x2="816.25" y1="368.75" y2="368.75"/><line style="stroke:#A80036;stroke-width:1.875;" x1="230" x2="816.25" y1="378.75" y2="378.75"/><text fill="#000000" font-family="sans-serif" font-size="13.75" lengthAdjust="spacing" textLength="573.75" x="236.25" y="398.0237">+averageOccupancyRate(DatabaseConnection databaseConnection, int mmsi, String startDate)</text><!--MD5=[8aa441cdd93a4e2944eff58bc06cd78a]
class DatabaseConnection--><rect codeLine="19" fill="#FEFECE" filter="url(#fclotbiad5cj1)" height="77.2949" id="DatabaseConnection" style="stroke:#A80036;stroke-width:1.875;" width="186.25" x="430" y="512.5"/><ellipse cx="448.75" cy="532.5" fill="#ADD1B2" rx="13.75" ry="13.75" style="stroke:#A80036;stroke-width:1.25;"/><path d="M451.25,528.125 Q451.5039,527.5 451.7969,527.1875 Q452.0898,526.875 452.4219,526.875 Q453.0078,526.875 453.3789,527.2266 Q453.75,527.5781 453.75,528.3984 L453.75,530.3516 Q453.75,531.1719 453.3984,531.5234 Q453.0469,531.875 452.5,531.875 Q452.0117,531.875 451.6992,531.6602 Q451.3867,531.4453 451.25,530.8789 Q451.1914,530.4883 450.9766,530.2734 Q450.5859,529.8633 449.8828,529.6289 Q449.1797,529.375 448.4766,529.375 Q447.5977,529.375 446.8555,529.7266 Q446.1328,530.0781 445.5664,530.8594 Q445,531.6406 445,532.7148 L445,533.8672 Q445,535.1563 446.0547,536.0156 Q447.1094,536.875 448.9844,536.875 Q450.0977,536.875 450.8789,536.6211 Q451.3281,536.4844 451.8359,536.0352 Q452.168,535.7813 452.3438,535.7031 Q452.5195,535.625 452.7344,535.625 Q453.1445,535.625 453.4375,535.957 Q453.75,536.2695 453.75,536.7188 Q453.75,537.1484 453.3203,537.6563 Q452.6953,538.3984 451.6992,538.8086 Q450.3906,539.375 448.7891,539.375 Q446.9141,539.375 445.4102,538.6328 Q444.1992,538.0469 443.3398,536.7773 Q442.5,535.5078 442.5,534.0039 L442.5,532.6367 Q442.5,531.0742 443.2422,529.707 Q444.0039,528.3398 445.3125,527.6172 Q446.6406,526.875 448.125,526.875 Q449.0234,526.875 449.8047,527.1875 Q450.5859,527.5 451.25,528.125 Z " fill="#000000"/><text fill="#000000" font-family="sans-serif" font-size="15" lengthAdjust="spacing" textLength="146.25" x="466.25" y="538.6377">DatabaseConnection</text><line style="stroke:#A80036;stroke-width:1.875;" x1="431.25" x2="615" y1="552.5" y2="552.5"/><line style="stroke:#A80036;stroke-width:1.875;" x1="431.25" x2="615" y1="562.5" y2="562.5"/><text fill="#000000" font-family="sans-serif" font-size="13.75" lengthAdjust="spacing" textLength="103.75" x="437.5" y="581.7737">+getConnection()</text><!--MD5=[f6622b0ce1eb3495e1c7745950037a18]
link ShipOccupancyUI to ShipOccupancyController--><path codeLine="23" d="M224.375,68.8375 C224.375,88.7625 224.375,115.6375 224.375,138.25 " fill="none" id="ShipOccupancyUI-to-ShipOccupancyController" style="stroke:#A80036;stroke-width:1.25;stroke-dasharray:7.0,7.0;"/><polygon fill="#A80036" points="224.375,144.5125,229.375,133.2625,224.375,138.2625,219.375,133.2625,224.375,144.5125" style="stroke:#A80036;stroke-width:1.25;"/><!--MD5=[db3ede84a5da24a8a10015c57a5e0170]
link ShipOccupancyController to ConnectionFactory--><path codeLine="24" d="M197.9625,222.55 C179.275,249.1 154,285.0375 133.4,314.3375 " fill="none" id="ShipOccupancyController-to-ConnectionFactory" style="stroke:#A80036;stroke-width:1.25;"/><polygon fill="#A80036" points="129.6,319.725,140.1595,313.3957,133.1937,314.6115,131.9779,307.6458,129.6,319.725" style="stroke:#A80036;stroke-width:1.25;"/><text fill="#000000" font-family="sans-serif" font-size="16.25" lengthAdjust="spacing" textLength="35" x="169.375" y="278.1189">uses</text><text fill="#000000" font-family="sans-serif" font-size="16.25" lengthAdjust="spacing" textLength="8.75" x="183.1512" y="249.0898">1</text><text fill="#000000" font-family="sans-serif" font-size="16.25" lengthAdjust="spacing" textLength="25" x="108.2026" y="306.3784">1..*</text><!--MD5=[4ce7c33a460dca2f82d701c7d6ea0b75]
link ShipOccupancyController to CargoManifestStore--><path codeLine="25" d="M286.275,222.55 C335.75,252.5625 404.975,294.575 455.825,325.4125 " fill="none" id="ShipOccupancyController-to-CargoManifestStore" style="stroke:#A80036;stroke-width:1.25;"/><polygon fill="#A80036" points="461.3,328.7375,454.275,318.6275,455.9564,325.4957,449.0882,327.1772,461.3,328.7375" style="stroke:#A80036;stroke-width:1.25;"/><text fill="#000000" font-family="sans-serif" font-size="16.25" lengthAdjust="spacing" textLength="35" x="383.125" y="278.1189">uses</text><text fill="#000000" font-family="sans-serif" font-size="16.25" lengthAdjust="spacing" textLength="8.75" x="288.8502" y="249.0898">1</text><text fill="#000000" font-family="sans-serif" font-size="16.25" lengthAdjust="spacing" textLength="8.75" x="438.0688" y="315.0101">1</text><!--MD5=[2116ab72117c1937cd431dde115995d9]
link CargoManifestStore to DatabaseConnection--><path codeLine="26" d="M523.125,406.3 C523.125,435.35 523.125,475.6125 523.125,506.1375 " fill="none" id="CargoManifestStore-to-DatabaseConnection" style="stroke:#A80036;stroke-width:1.25;"/><polygon fill="#A80036" points="523.125,512.4875,528.125,501.2375,523.125,506.2375,518.125,501.2375,523.125,512.4875" style="stroke:#A80036;stroke-width:1.25;"/><text fill="#000000" font-family="sans-serif" font-size="16.25" lengthAdjust="spacing" textLength="35" x="524.375" y="470.6189">uses</text><text fill="#000000" font-family="sans-serif" font-size="16.25" lengthAdjust="spacing" textLength="8.75" x="513.5137" y="432.8398">1</text><text fill="#000000" font-family="sans-serif" font-size="16.25" lengthAdjust="spacing" textLength="25" x="495.3906" y="498.7601">1..*</text><!--MD5=[86ffc89ac280a15edf73ebd6d78dfbcc]
@startuml
skinparam classAttributeIconSize 0

class ShipOccupancyUI{
}

class ShipOccupancyController {
+ averageOccupancyRate(int mmsi)
}

class ConnectionFactory {
+ getInstance()
+ getDatabaseConnection()
}

class CargoManifestStore {
+ averageOccupancyRate(DatabaseConnection databaseConnection, int mmsi, String startDate)
}

class DatabaseConnection {
+ getConnection()
}

ShipOccupancyController <.up. ShipOccupancyUI
ShipOccupancyController "1" - -> "1..*" ConnectionFactory : uses
ShipOccupancyController "1" - -> "1" CargoManifestStore : uses
CargoManifestStore "1" - -> "1..*" DatabaseConnection : uses



@enduml

PlantUML version 1.2021.7(Sun May 23 13:40:07 BST 2021)
(GPL source distribution)
Java Runtime: OpenJDK Runtime Environment
JVM: OpenJDK 64-Bit Server VM
Default Encoding: Cp1252
Language: pt
Country: PT
--></g></svg>