<?xml version="1.0" encoding="UTF-8" standalone="no"?><svg xmlns="http://www.w3.org/2000/svg" xmlns:xlink="http://www.w3.org/1999/xlink" contentScriptType="application/ecmascript" contentStyleType="text/css" height="971.25px" preserveAspectRatio="none" style="width:723px;height:971px;background:#FFFFFF;" version="1.1" viewBox="0 0 723 971" width="723.75px" zoomAndPan="magnify"><defs><filter height="300%" id="f1siuqe1x6w7uw" width="300%" x="-1" y="-1"><feGaussianBlur result="blurOut" stdDeviation="2.5"/><feColorMatrix in="blurOut" result="blurOut2" type="matrix" values="0 0 0 0 0 0 0 0 0 0 0 0 0 0 0 0 0 0 .4 0"/><feOffset dx="5.0" dy="5.0" in="blurOut2" result="blurOut3"/><feBlend in="SourceGraphic" in2="blurOut3" mode="normal"/></filter></defs><g><!--MD5=[a44ad20d45cac02e8c33cdd4602627cf]
class ShipRoute--><rect codeLine="4" fill="#FEFECE" filter="url(#f1siuqe1x6w7uw)" height="163.7695" id="ShipRoute" style="stroke:#A80036;stroke-width:1.875;" width="121.25" x="311.25" y="790"/><ellipse cx="333.9375" cy="810" fill="#ADD1B2" rx="13.75" ry="13.75" style="stroke:#A80036;stroke-width:1.25;"/><path d="M336.4375,805.625 Q336.6914,805 336.9844,804.6875 Q337.2773,804.375 337.6094,804.375 Q338.1953,804.375 338.5664,804.7266 Q338.9375,805.0781 338.9375,805.8984 L338.9375,807.8516 Q338.9375,808.6719 338.5859,809.0234 Q338.2344,809.375 337.6875,809.375 Q337.1992,809.375 336.8867,809.1602 Q336.5742,808.9453 336.4375,808.3789 Q336.3789,807.9883 336.1641,807.7734 Q335.7734,807.3633 335.0703,807.1289 Q334.3672,806.875 333.6641,806.875 Q332.7852,806.875 332.043,807.2266 Q331.3203,807.5781 330.7539,808.3594 Q330.1875,809.1406 330.1875,810.2148 L330.1875,811.3672 Q330.1875,812.6563 331.2422,813.5156 Q332.2969,814.375 334.1719,814.375 Q335.2852,814.375 336.0664,814.1211 Q336.5156,813.9844 337.0234,813.5352 Q337.3555,813.2813 337.5313,813.2031 Q337.707,813.125 337.9219,813.125 Q338.332,813.125 338.625,813.457 Q338.9375,813.7695 338.9375,814.2188 Q338.9375,814.6484 338.5078,815.1563 Q337.8828,815.8984 336.8867,816.3086 Q335.5781,816.875 333.9766,816.875 Q332.1016,816.875 330.5977,816.1328 Q329.3867,815.5469 328.5273,814.2773 Q327.6875,813.0078 327.6875,811.5039 L327.6875,810.1367 Q327.6875,808.5742 328.4297,807.207 Q329.1914,805.8398 330.5,805.1172 Q331.8281,804.375 333.3125,804.375 Q334.2109,804.375 334.9922,804.6875 Q335.7734,805 336.4375,805.625 Z " fill="#000000"/><text fill="#000000" font-family="sans-serif" font-size="15" lengthAdjust="spacing" textLength="72.5" x="352.3125" y="816.1377">ShipRoute</text><line style="stroke:#A80036;stroke-width:1.875;" x1="312.5" x2="431.25" y1="830" y2="830"/><rect fill="none" height="7.5" style="stroke:#C82930;stroke-width:1.25;" width="7.5" x="321.25" y="840"/><text fill="#000000" font-family="sans-serif" font-size="13.75" lengthAdjust="spacing" textLength="30" x="336.25" y="849.2737">mmsi</text><rect fill="none" height="7.5" style="stroke:#C82930;stroke-width:1.25;" width="7.5" x="321.25" y="857.2949"/><text fill="#000000" font-family="sans-serif" font-size="13.75" lengthAdjust="spacing" textLength="77.5" x="336.25" y="866.5686">departureLat</text><rect fill="none" height="7.5" style="stroke:#C82930;stroke-width:1.25;" width="7.5" x="321.25" y="874.5898"/><text fill="#000000" font-family="sans-serif" font-size="13.75" lengthAdjust="spacing" textLength="56.25" x="336.25" y="883.8635">arrivalLat</text><rect fill="none" height="7.5" style="stroke:#C82930;stroke-width:1.25;" width="7.5" x="321.25" y="891.8848"/><text fill="#000000" font-family="sans-serif" font-size="13.75" lengthAdjust="spacing" textLength="88.75" x="336.25" y="901.1584">departureLong</text><rect fill="none" height="7.5" style="stroke:#C82930;stroke-width:1.25;" width="7.5" x="321.25" y="909.1797"/><text fill="#000000" font-family="sans-serif" font-size="13.75" lengthAdjust="spacing" textLength="67.5" x="336.25" y="918.4534">arrivalLong</text><rect fill="none" height="7.5" style="stroke:#C82930;stroke-width:1.25;" width="7.5" x="321.25" y="926.4746"/><text fill="#000000" font-family="sans-serif" font-size="13.75" lengthAdjust="spacing" textLength="86.25" x="336.25" y="935.7483">travelDistance</text><line style="stroke:#A80036;stroke-width:1.875;" x1="312.5" x2="431.25" y1="943.7695" y2="943.7695"/><!--MD5=[e7ad894f8331fa852791ac292f7e8a32]
class ShipPair--><rect codeLine="13" fill="#FEFECE" filter="url(#f1siuqe1x6w7uw)" height="146.4746" id="ShipPair" style="stroke:#A80036;stroke-width:1.875;" width="143.75" x="562.5" y="494.375"/><ellipse cx="601.5" cy="514.375" fill="#ADD1B2" rx="13.75" ry="13.75" style="stroke:#A80036;stroke-width:1.25;"/><path d="M604,510 Q604.2539,509.375 604.5469,509.0625 Q604.8398,508.75 605.1719,508.75 Q605.7578,508.75 606.1289,509.1016 Q606.5,509.4531 606.5,510.2734 L606.5,512.2266 Q606.5,513.0469 606.1484,513.3984 Q605.7969,513.75 605.25,513.75 Q604.7617,513.75 604.4492,513.5352 Q604.1367,513.3203 604,512.7539 Q603.9414,512.3633 603.7266,512.1484 Q603.3359,511.7383 602.6328,511.5039 Q601.9297,511.25 601.2266,511.25 Q600.3477,511.25 599.6055,511.6016 Q598.8828,511.9531 598.3164,512.7344 Q597.75,513.5156 597.75,514.5898 L597.75,515.7422 Q597.75,517.0313 598.8047,517.8906 Q599.8594,518.75 601.7344,518.75 Q602.8477,518.75 603.6289,518.4961 Q604.0781,518.3594 604.5859,517.9102 Q604.918,517.6563 605.0938,517.5781 Q605.2695,517.5 605.4844,517.5 Q605.8945,517.5 606.1875,517.832 Q606.5,518.1445 606.5,518.5938 Q606.5,519.0234 606.0703,519.5313 Q605.4453,520.2734 604.4492,520.6836 Q603.1406,521.25 601.5391,521.25 Q599.6641,521.25 598.1602,520.5078 Q596.9492,519.9219 596.0898,518.6523 Q595.25,517.3828 595.25,515.8789 L595.25,514.5117 Q595.25,512.9492 595.9922,511.582 Q596.7539,510.2148 598.0625,509.4922 Q599.3906,508.75 600.875,508.75 Q601.7734,508.75 602.5547,509.0625 Q603.3359,509.375 604,510 Z " fill="#000000"/><text fill="#000000" font-family="sans-serif" font-size="15" lengthAdjust="spacing" textLength="58.75" x="623.5" y="520.5127">ShipPair</text><line style="stroke:#A80036;stroke-width:1.875;" x1="563.75" x2="705" y1="534.375" y2="534.375"/><rect fill="none" height="7.5" style="stroke:#C82930;stroke-width:1.25;" width="7.5" x="572.5" y="544.375"/><text fill="#000000" font-family="sans-serif" font-size="13.75" lengthAdjust="spacing" textLength="37.5" x="587.5" y="553.6487">mmsi1</text><rect fill="none" height="7.5" style="stroke:#C82930;stroke-width:1.25;" width="7.5" x="572.5" y="561.6699"/><text fill="#000000" font-family="sans-serif" font-size="13.75" lengthAdjust="spacing" textLength="37.5" x="587.5" y="570.9436">mmsi2</text><rect fill="none" height="7.5" style="stroke:#C82930;stroke-width:1.25;" width="7.5" x="572.5" y="578.9648"/><text fill="#000000" font-family="sans-serif" font-size="13.75" lengthAdjust="spacing" textLength="111.25" x="587.5" y="588.2385">departureDistance</text><rect fill="none" height="7.5" style="stroke:#C82930;stroke-width:1.25;" width="7.5" x="572.5" y="596.2598"/><text fill="#000000" font-family="sans-serif" font-size="13.75" lengthAdjust="spacing" textLength="90" x="587.5" y="605.5334">arrivalDistance</text><rect fill="none" height="7.5" style="stroke:#C82930;stroke-width:1.25;" width="7.5" x="572.5" y="613.5547"/><text fill="#000000" font-family="sans-serif" font-size="13.75" lengthAdjust="spacing" textLength="93.75" x="587.5" y="622.8284">travelDistance1</text><line style="stroke:#A80036;stroke-width:1.875;" x1="563.75" x2="705" y1="630.8496" y2="630.8496"/><!--MD5=[f6b3929c0540a43527d6df01ce8c04ff]
class ShipMovement--><rect codeLine="21" fill="#FEFECE" filter="url(#f1siuqe1x6w7uw)" height="336.7188" id="ShipMovement" style="stroke:#A80036;stroke-width:1.875;" width="141.25" x="301.25" y="8.75"/><ellipse cx="320" cy="28.75" fill="#ADD1B2" rx="13.75" ry="13.75" style="stroke:#A80036;stroke-width:1.25;"/><path d="M322.5,24.375 Q322.7539,23.75 323.0469,23.4375 Q323.3398,23.125 323.6719,23.125 Q324.2578,23.125 324.6289,23.4766 Q325,23.8281 325,24.6484 L325,26.6016 Q325,27.4219 324.6484,27.7734 Q324.2969,28.125 323.75,28.125 Q323.2617,28.125 322.9492,27.9102 Q322.6367,27.6953 322.5,27.1289 Q322.4414,26.7383 322.2266,26.5234 Q321.8359,26.1133 321.1328,25.8789 Q320.4297,25.625 319.7266,25.625 Q318.8477,25.625 318.1055,25.9766 Q317.3828,26.3281 316.8164,27.1094 Q316.25,27.8906 316.25,28.9648 L316.25,30.1172 Q316.25,31.4063 317.3047,32.2656 Q318.3594,33.125 320.2344,33.125 Q321.3477,33.125 322.1289,32.8711 Q322.5781,32.7344 323.0859,32.2852 Q323.418,32.0313 323.5938,31.9531 Q323.7695,31.875 323.9844,31.875 Q324.3945,31.875 324.6875,32.207 Q325,32.5195 325,32.9688 Q325,33.3984 324.5703,33.9063 Q323.9453,34.6484 322.9492,35.0586 Q321.6406,35.625 320.0391,35.625 Q318.1641,35.625 316.6602,34.8828 Q315.4492,34.2969 314.5898,33.0273 Q313.75,31.7578 313.75,30.2539 L313.75,28.8867 Q313.75,27.3242 314.4922,25.957 Q315.2539,24.5898 316.5625,23.8672 Q317.8906,23.125 319.375,23.125 Q320.2734,23.125 321.0547,23.4375 Q321.8359,23.75 322.5,24.375 Z " fill="#000000"/><text fill="#000000" font-family="sans-serif" font-size="15" lengthAdjust="spacing" textLength="101.25" x="337.5" y="34.8877">ShipMovement</text><line style="stroke:#A80036;stroke-width:1.875;" x1="302.5" x2="441.25" y1="48.75" y2="48.75"/><rect fill="none" height="7.5" style="stroke:#C82930;stroke-width:1.25;" width="7.5" x="311.25" y="58.75"/><text fill="#000000" font-family="sans-serif" font-size="13.75" lengthAdjust="spacing" textLength="30" x="326.25" y="68.0237">mmsi</text><rect fill="none" height="7.5" style="stroke:#C82930;stroke-width:1.25;" width="7.5" x="311.25" y="76.0449"/><text fill="#000000" font-family="sans-serif" font-size="13.75" lengthAdjust="spacing" textLength="85" x="326.25" y="85.3186">baseDateTime</text><rect fill="none" height="7.5" style="stroke:#C82930;stroke-width:1.25;" width="7.5" x="311.25" y="93.3398"/><text fill="#000000" font-family="sans-serif" font-size="13.75" lengthAdjust="spacing" textLength="13.75" x="326.25" y="102.6135">lat</text><rect fill="none" height="7.5" style="stroke:#C82930;stroke-width:1.25;" width="7.5" x="311.25" y="110.6348"/><text fill="#000000" font-family="sans-serif" font-size="13.75" lengthAdjust="spacing" textLength="17.5" x="326.25" y="119.9084">lon</text><rect fill="none" height="7.5" style="stroke:#C82930;stroke-width:1.25;" width="7.5" x="311.25" y="127.9297"/><text fill="#000000" font-family="sans-serif" font-size="13.75" lengthAdjust="spacing" textLength="22.5" x="326.25" y="137.2034">sog</text><rect fill="none" height="7.5" style="stroke:#C82930;stroke-width:1.25;" width="7.5" x="311.25" y="145.2246"/><text fill="#000000" font-family="sans-serif" font-size="13.75" lengthAdjust="spacing" textLength="22.5" x="326.25" y="154.4983">cog</text><rect fill="none" height="7.5" style="stroke:#C82930;stroke-width:1.25;" width="7.5" x="311.25" y="162.5195"/><text fill="#000000" font-family="sans-serif" font-size="13.75" lengthAdjust="spacing" textLength="47.5" x="326.25" y="171.7932">heading</text><rect fill="none" height="7.5" style="stroke:#C82930;stroke-width:1.25;" width="7.5" x="311.25" y="179.8145"/><text fill="#000000" font-family="sans-serif" font-size="13.75" lengthAdjust="spacing" textLength="73.75" x="326.25" y="189.0881">vesselName</text><rect fill="none" height="7.5" style="stroke:#C82930;stroke-width:1.25;" width="7.5" x="311.25" y="197.1094"/><text fill="#000000" font-family="sans-serif" font-size="13.75" lengthAdjust="spacing" textLength="20" x="326.25" y="206.3831">imo</text><rect fill="none" height="7.5" style="stroke:#C82930;stroke-width:1.25;" width="7.5" x="311.25" y="214.4043"/><text fill="#000000" font-family="sans-serif" font-size="13.75" lengthAdjust="spacing" textLength="46.25" x="326.25" y="223.678">callSign</text><rect fill="none" height="7.5" style="stroke:#C82930;stroke-width:1.25;" width="7.5" x="311.25" y="231.6992"/><text fill="#000000" font-family="sans-serif" font-size="13.75" lengthAdjust="spacing" textLength="70" x="326.25" y="240.9729">vesselType</text><rect fill="none" height="7.5" style="stroke:#C82930;stroke-width:1.25;" width="7.5" x="311.25" y="248.9941"/><text fill="#000000" font-family="sans-serif" font-size="13.75" lengthAdjust="spacing" textLength="36.25" x="326.25" y="258.2678">lenght</text><rect fill="none" height="7.5" style="stroke:#C82930;stroke-width:1.25;" width="7.5" x="311.25" y="266.2891"/><text fill="#000000" font-family="sans-serif" font-size="13.75" lengthAdjust="spacing" textLength="33.75" x="326.25" y="275.5627">width</text><rect fill="none" height="7.5" style="stroke:#C82930;stroke-width:1.25;" width="7.5" x="311.25" y="283.584"/><text fill="#000000" font-family="sans-serif" font-size="13.75" lengthAdjust="spacing" textLength="28.75" x="326.25" y="292.8577">draft</text><rect fill="none" height="7.5" style="stroke:#C82930;stroke-width:1.25;" width="7.5" x="311.25" y="300.8789"/><text fill="#000000" font-family="sans-serif" font-size="13.75" lengthAdjust="spacing" textLength="35" x="326.25" y="310.1526">cargo</text><rect fill="none" height="7.5" style="stroke:#C82930;stroke-width:1.25;" width="7.5" x="311.25" y="318.1738"/><text fill="#000000" font-family="sans-serif" font-size="13.75" lengthAdjust="spacing" textLength="102.5" x="326.25" y="327.4475">transceiverClass</text><line style="stroke:#A80036;stroke-width:1.875;" x1="302.5" x2="441.25" y1="335.4688" y2="335.4688"/><!--MD5=[0dc7f2ddb409b58bcf52b12238c25399]
class Ship--><rect codeLine="40" fill="#FEFECE" filter="url(#f1siuqe1x6w7uw)" height="250.2441" id="Ship" style="stroke:#A80036;stroke-width:1.875;" width="203.75" x="270" y="442.5"/><ellipse cx="350.9375" cy="462.5" fill="#ADD1B2" rx="13.75" ry="13.75" style="stroke:#A80036;stroke-width:1.25;"/><path d="M353.4375,458.125 Q353.6914,457.5 353.9844,457.1875 Q354.2773,456.875 354.6094,456.875 Q355.1953,456.875 355.5664,457.2266 Q355.9375,457.5781 355.9375,458.3984 L355.9375,460.3516 Q355.9375,461.1719 355.5859,461.5234 Q355.2344,461.875 354.6875,461.875 Q354.1992,461.875 353.8867,461.6602 Q353.5742,461.4453 353.4375,460.8789 Q353.3789,460.4883 353.1641,460.2734 Q352.7734,459.8633 352.0703,459.6289 Q351.3672,459.375 350.6641,459.375 Q349.7852,459.375 349.043,459.7266 Q348.3203,460.0781 347.7539,460.8594 Q347.1875,461.6406 347.1875,462.7148 L347.1875,463.8672 Q347.1875,465.1563 348.2422,466.0156 Q349.2969,466.875 351.1719,466.875 Q352.2852,466.875 353.0664,466.6211 Q353.5156,466.4844 354.0234,466.0352 Q354.3555,465.7813 354.5313,465.7031 Q354.707,465.625 354.9219,465.625 Q355.332,465.625 355.625,465.957 Q355.9375,466.2695 355.9375,466.7188 Q355.9375,467.1484 355.5078,467.6563 Q354.8828,468.3984 353.8867,468.8086 Q352.5781,469.375 350.9766,469.375 Q349.1016,469.375 347.5977,468.6328 Q346.3867,468.0469 345.5273,466.7773 Q344.6875,465.5078 344.6875,464.0039 L344.6875,462.6367 Q344.6875,461.0742 345.4297,459.707 Q346.1914,458.3398 347.5,457.6172 Q348.8281,456.875 350.3125,456.875 Q351.2109,456.875 351.9922,457.1875 Q352.7734,457.5 353.4375,458.125 Z " fill="#000000"/><text fill="#000000" font-family="sans-serif" font-size="15" lengthAdjust="spacing" textLength="31.25" x="376.5625" y="468.6377">Ship</text><line style="stroke:#A80036;stroke-width:1.875;" x1="271.25" x2="472.5" y1="482.5" y2="482.5"/><rect fill="none" height="7.5" style="stroke:#C82930;stroke-width:1.25;" width="7.5" x="280" y="492.5"/><text fill="#000000" font-family="sans-serif" font-size="13.75" lengthAdjust="spacing" textLength="30" x="295" y="501.7737">mmsi</text><rect fill="none" height="7.5" style="stroke:#C82930;stroke-width:1.25;" width="7.5" x="280" y="509.7949"/><text fill="#000000" font-family="sans-serif" font-size="13.75" lengthAdjust="spacing" textLength="58.75" x="295" y="519.0686">shipName</text><rect fill="none" height="7.5" style="stroke:#C82930;stroke-width:1.25;" width="7.5" x="280" y="527.0898"/><text fill="#000000" font-family="sans-serif" font-size="13.75" lengthAdjust="spacing" textLength="30" x="295" y="536.3635">imoId</text><rect fill="none" height="7.5" style="stroke:#C82930;stroke-width:1.25;" width="7.5" x="280" y="544.3848"/><text fill="#000000" font-family="sans-serif" font-size="13.75" lengthAdjust="spacing" textLength="171.25" x="295" y="553.6584">numberOfEnergyGenerators</text><rect fill="none" height="7.5" style="stroke:#C82930;stroke-width:1.25;" width="7.5" x="280" y="561.6797"/><text fill="#000000" font-family="sans-serif" font-size="13.75" lengthAdjust="spacing" textLength="146.25" x="295" y="570.9534">generatorsPowerOutput</text><rect fill="none" height="7.5" style="stroke:#C82930;stroke-width:1.25;" width="7.5" x="280" y="578.9746"/><text fill="#000000" font-family="sans-serif" font-size="13.75" lengthAdjust="spacing" textLength="46.25" x="295" y="588.2483">callSign</text><rect fill="none" height="7.5" style="stroke:#C82930;stroke-width:1.25;" width="7.5" x="280" y="596.2695"/><text fill="#000000" font-family="sans-serif" font-size="13.75" lengthAdjust="spacing" textLength="70" x="295" y="605.5432">vesselType</text><rect fill="none" height="7.5" style="stroke:#C82930;stroke-width:1.25;" width="7.5" x="280" y="613.5645"/><text fill="#000000" font-family="sans-serif" font-size="13.75" lengthAdjust="spacing" textLength="36.25" x="295" y="622.8381">lenght</text><rect fill="none" height="7.5" style="stroke:#C82930;stroke-width:1.25;" width="7.5" x="280" y="630.8594"/><text fill="#000000" font-family="sans-serif" font-size="13.75" lengthAdjust="spacing" textLength="33.75" x="295" y="640.1331">width</text><rect fill="none" height="7.5" style="stroke:#C82930;stroke-width:1.25;" width="7.5" x="280" y="648.1543"/><text fill="#000000" font-family="sans-serif" font-size="13.75" lengthAdjust="spacing" textLength="51.25" x="295" y="657.428">capacity</text><rect fill="none" height="7.5" style="stroke:#C82930;stroke-width:1.25;" width="7.5" x="280" y="665.4492"/><text fill="#000000" font-family="sans-serif" font-size="13.75" lengthAdjust="spacing" textLength="28.75" x="295" y="674.7229">draft</text><line style="stroke:#A80036;stroke-width:1.875;" x1="271.25" x2="472.5" y1="682.7441" y2="682.7441"/><!--MD5=[ddaf6f62b0bc30921877ec9fb9463c9f]
class TrafficManager--><rect codeLine="54" fill="#FEFECE" filter="url(#f1siuqe1x6w7uw)" height="60" id="TrafficManager" style="stroke:#A80036;stroke-width:1.875;" width="141.25" x="8.75" y="537.5"/><ellipse cx="27.5" cy="557.5" fill="#ADD1B2" rx="13.75" ry="13.75" style="stroke:#A80036;stroke-width:1.25;"/><path d="M30,553.125 Q30.2539,552.5 30.5469,552.1875 Q30.8398,551.875 31.1719,551.875 Q31.7578,551.875 32.1289,552.2266 Q32.5,552.5781 32.5,553.3984 L32.5,555.3516 Q32.5,556.1719 32.1484,556.5234 Q31.7969,556.875 31.25,556.875 Q30.7617,556.875 30.4492,556.6602 Q30.1367,556.4453 30,555.8789 Q29.9414,555.4883 29.7266,555.2734 Q29.3359,554.8633 28.6328,554.6289 Q27.9297,554.375 27.2266,554.375 Q26.3477,554.375 25.6055,554.7266 Q24.8828,555.0781 24.3164,555.8594 Q23.75,556.6406 23.75,557.7148 L23.75,558.8672 Q23.75,560.1563 24.8047,561.0156 Q25.8594,561.875 27.7344,561.875 Q28.8477,561.875 29.6289,561.6211 Q30.0781,561.4844 30.5859,561.0352 Q30.918,560.7813 31.0938,560.7031 Q31.2695,560.625 31.4844,560.625 Q31.8945,560.625 32.1875,560.957 Q32.5,561.2695 32.5,561.7188 Q32.5,562.1484 32.0703,562.6563 Q31.4453,563.3984 30.4492,563.8086 Q29.1406,564.375 27.5391,564.375 Q25.6641,564.375 24.1602,563.6328 Q22.9492,563.0469 22.0898,561.7773 Q21.25,560.5078 21.25,559.0039 L21.25,557.6367 Q21.25,556.0742 21.9922,554.707 Q22.7539,553.3398 24.0625,552.6172 Q25.3906,551.875 26.875,551.875 Q27.7734,551.875 28.5547,552.1875 Q29.3359,552.5 30,553.125 Z " fill="#000000"/><text fill="#000000" font-family="sans-serif" font-size="15" lengthAdjust="spacing" textLength="101.25" x="45" y="563.6377">TrafficManager</text><line style="stroke:#A80036;stroke-width:1.875;" x1="10" x2="148.75" y1="577.5" y2="577.5"/><line style="stroke:#A80036;stroke-width:1.875;" x1="10" x2="148.75" y1="587.5" y2="587.5"/><!--MD5=[40e2b5717560220ad35e84810a8f1b44]
link TrafficManager to Ship--><path codeLine="57" d="M150.175,567.5 C184.0625,567.5 225.3875,567.5 263.1375,567.5 " fill="none" id="TrafficManager-to-Ship" style="stroke:#A80036;stroke-width:1.25;"/><polygon fill="#A80036" points="269.65,567.5,258.4,562.5,263.4,567.5,258.4,572.5,269.65,567.5" style="stroke:#A80036;stroke-width:1.25;"/><polygon fill="#000000" points="184.375,552.7197,173.0686,549.0461,173.0686,556.3934,184.375,552.7197" style="stroke:#000000;stroke-width:1.25;"/><text fill="#000000" font-family="sans-serif" font-size="16.25" lengthAdjust="spacing" textLength="57.5" x="189.375" y="559.3689">controls</text><text fill="#000000" font-family="sans-serif" font-size="16.25" lengthAdjust="spacing" textLength="8.75" x="159.8068" y="563.1158">1</text><text fill="#000000" font-family="sans-serif" font-size="16.25" lengthAdjust="spacing" textLength="25" x="235.1493" y="585.2051">1..*</text><!--MD5=[d091a39e185f55d1d64035dc9b810591]
link Ship to ShipRoute--><path codeLine="58" d="M371.875,692.8375 C371.875,725.525 371.875,759.95 371.875,789.7125 " fill="none" id="Ship-ShipRoute" style="stroke:#A80036;stroke-width:1.25;"/><polygon fill="#000000" points="378.125,747.7197,381.7987,736.4134,374.4513,736.4134,378.125,747.7197" style="stroke:#000000;stroke-width:1.25;"/><text fill="#000000" font-family="sans-serif" font-size="16.25" lengthAdjust="spacing" textLength="26.25" x="389.375" y="748.1189">has</text><text fill="#000000" font-family="sans-serif" font-size="16.25" lengthAdjust="spacing" textLength="8.75" x="362.8037" y="719.6524">1</text><text fill="#000000" font-family="sans-serif" font-size="16.25" lengthAdjust="spacing" textLength="25" x="345.5078" y="776.5241">1..*</text><!--MD5=[605362cf8b5a21fe6106423976ae528f]
link ShipMovement to Ship--><path codeLine="59" d="M371.875,345.5375 C371.875,377.9625 371.875,411.3875 371.875,442.1125 " fill="none" id="ShipMovement-Ship" style="stroke:#A80036;stroke-width:1.25;"/><polygon fill="#000000" points="378.125,387.7197,374.4513,399.0261,381.7987,399.0261,378.125,387.7197" style="stroke:#000000;stroke-width:1.25;"/><text fill="#000000" font-family="sans-serif" font-size="16.25" lengthAdjust="spacing" textLength="26.25" x="389.375" y="400.6189">has</text><text fill="#000000" font-family="sans-serif" font-size="16.25" lengthAdjust="spacing" textLength="25" x="346.1914" y="372.1762">1..*</text><text fill="#000000" font-family="sans-serif" font-size="16.25" lengthAdjust="spacing" textLength="8.75" x="362.8037" y="429.046">1</text><!--MD5=[2d872f8942380604ce9fd7ae4b6eccb1]
link Ship to ShipPair--><path codeLine="60" d="M474.1125,567.5 C501.325,567.5 530.275,567.5 555.9875,567.5 " fill="none" id="Ship-to-ShipPair" style="stroke:#A80036;stroke-width:1.25;"/><polygon fill="#A80036" points="562.45,567.5,551.2,562.5,556.2,567.5,551.2,572.5,562.45,567.5" style="stroke:#A80036;stroke-width:1.25;"/><polygon fill="#000000" points="508.125,552.7197,496.8186,549.0461,496.8186,556.3934,508.125,552.7197" style="stroke:#000000;stroke-width:1.25;"/><text fill="#000000" font-family="sans-serif" font-size="16.25" lengthAdjust="spacing" textLength="26.25" x="513.125" y="559.3689">has</text><text fill="#000000" font-family="sans-serif" font-size="16.25" lengthAdjust="spacing" textLength="8.75" x="483.6077" y="563.487">1</text><text fill="#000000" font-family="sans-serif" font-size="16.25" lengthAdjust="spacing" textLength="25" x="527.6884" y="585.5376">1..*</text><!--MD5=[9319b9092f0d1b4b3841db422eb68bae]
@startuml
'https://plantuml.com/use-case-diagram


class ShipRoute {
- mmsi
- departureLat
- arrivalLat
- departureLong
- arrivalLong
- travelDistance
}

class ShipPair {
- mmsi1
- mmsi2
- departureDistance
- arrivalDistance
- travelDistance1
}

class ShipMovement {
- mmsi
- baseDateTime
- lat
- lon
- sog
- cog
- heading
- vesselName
- imo
- callSign
- vesselType
- lenght
- width
- draft
- cargo
- transceiverClass
}

class Ship {
 - mmsi
 - shipName
 - imoId
 - numberOfEnergyGenerators
 - generatorsPowerOutput
 - callSign
 - vesselType
 - lenght
 - width
 - capacity
 - draft
}

class TrafficManager{
}

TrafficManager"1" -> "1..*"Ship :> controls
Ship"1" -down- "1..*" ShipRoute :> has
Ship"1" -up- "1..*" ShipMovement :> has
Ship"1" -> "1..*" ShipPair  :> has
@enduml

@startuml


class ShipRoute {
- mmsi
- departureLat
- arrivalLat
- departureLong
- arrivalLong
- travelDistance
}

class ShipPair {
- mmsi1
- mmsi2
- departureDistance
- arrivalDistance
- travelDistance1
}

class ShipMovement {
- mmsi
- baseDateTime
- lat
- lon
- sog
- cog
- heading
- vesselName
- imo
- callSign
- vesselType
- lenght
- width
- draft
- cargo
- transceiverClass
}

class Ship {
 - mmsi
 - shipName
 - imoId
 - numberOfEnergyGenerators
 - generatorsPowerOutput
 - callSign
 - vesselType
 - lenght
 - width
 - capacity
 - draft
}

class TrafficManager{
}

TrafficManager"1" -> "1..*"Ship :> controls
Ship"1" -down- "1..*" ShipRoute :> has
Ship"1" -up- "1..*" ShipMovement :> has
Ship"1" -> "1..*" ShipPair  :> has
@enduml

PlantUML version 1.2021.7(Sun May 23 13:40:07 BST 2021)
(GPL source distribution)
Java Runtime: OpenJDK Runtime Environment
JVM: OpenJDK 64-Bit Server VM
Default Encoding: Cp1252
Language: pt
Country: PT
--></g></svg>