<?xml version="1.0" encoding="UTF-8" standalone="no"?><svg xmlns="http://www.w3.org/2000/svg" xmlns:xlink="http://www.w3.org/1999/xlink" contentScriptType="application/ecmascript" contentStyleType="text/css" height="606.25px" preserveAspectRatio="none" style="width:808px;height:606px;background:#FFFFFF;" version="1.1" viewBox="0 0 808 606" width="808.75px" zoomAndPan="magnify"><defs><filter height="300%" id="fpxuh95d67cx6" width="300%" x="-1" y="-1"><feGaussianBlur result="blurOut" stdDeviation="2.5"/><feColorMatrix in="blurOut" result="blurOut2" type="matrix" values="0 0 0 0 0 0 0 0 0 0 0 0 0 0 0 0 0 0 .4 0"/><feOffset dx="5.0" dy="5.0" in="blurOut2" result="blurOut3"/><feBlend in="SourceGraphic" in2="blurOut3" mode="normal"/></filter></defs><g><!--MD5=[b837fc1f3d2e7c758ab40503c3013e99]
class ShipTripUI--><rect codeLine="3" fill="#FEFECE" filter="url(#fpxuh95d67cx6)" height="60" id="ShipTripUI" style="stroke:#A80036;stroke-width:1.875;" width="112.5" x="84.375" y="8.75"/><ellipse cx="103.125" cy="28.75" fill="#ADD1B2" rx="13.75" ry="13.75" style="stroke:#A80036;stroke-width:1.25;"/><path d="M105.625,24.375 Q105.8789,23.75 106.1719,23.4375 Q106.4648,23.125 106.7969,23.125 Q107.3828,23.125 107.7539,23.4766 Q108.125,23.8281 108.125,24.6484 L108.125,26.6016 Q108.125,27.4219 107.7734,27.7734 Q107.4219,28.125 106.875,28.125 Q106.3867,28.125 106.0742,27.9102 Q105.7617,27.6953 105.625,27.1289 Q105.5664,26.7383 105.3516,26.5234 Q104.9609,26.1133 104.2578,25.8789 Q103.5547,25.625 102.8516,25.625 Q101.9727,25.625 101.2305,25.9766 Q100.5078,26.3281 99.9414,27.1094 Q99.375,27.8906 99.375,28.9648 L99.375,30.1172 Q99.375,31.4063 100.4297,32.2656 Q101.4844,33.125 103.3594,33.125 Q104.4727,33.125 105.2539,32.8711 Q105.7031,32.7344 106.2109,32.2852 Q106.543,32.0313 106.7188,31.9531 Q106.8945,31.875 107.1094,31.875 Q107.5195,31.875 107.8125,32.207 Q108.125,32.5195 108.125,32.9688 Q108.125,33.3984 107.6953,33.9063 Q107.0703,34.6484 106.0742,35.0586 Q104.7656,35.625 103.1641,35.625 Q101.2891,35.625 99.7852,34.8828 Q98.5742,34.2969 97.7148,33.0273 Q96.875,31.7578 96.875,30.2539 L96.875,28.8867 Q96.875,27.3242 97.6172,25.957 Q98.3789,24.5898 99.6875,23.8672 Q101.0156,23.125 102.5,23.125 Q103.3984,23.125 104.1797,23.4375 Q104.9609,23.75 105.625,24.375 Z " fill="#000000"/><text fill="#000000" font-family="sans-serif" font-size="15" lengthAdjust="spacing" textLength="72.5" x="120.625" y="34.8877">ShipTripUI</text><line style="stroke:#A80036;stroke-width:1.875;" x1="85.625" x2="195.625" y1="48.75" y2="48.75"/><line style="stroke:#A80036;stroke-width:1.875;" x1="85.625" x2="195.625" y1="58.75" y2="58.75"/><!--MD5=[b876ef1f37e0d8b9b6a40127fe5975bb]
class ShipOccupancyController--><rect codeLine="6" fill="#FEFECE" filter="url(#fpxuh95d67cx6)" height="77.2949" id="ShipOccupancyController" style="stroke:#A80036;stroke-width:1.875;" width="213.75" x="33.75" y="145"/><ellipse cx="52.5" cy="165" fill="#ADD1B2" rx="13.75" ry="13.75" style="stroke:#A80036;stroke-width:1.25;"/><path d="M55,160.625 Q55.2539,160 55.5469,159.6875 Q55.8398,159.375 56.1719,159.375 Q56.7578,159.375 57.1289,159.7266 Q57.5,160.0781 57.5,160.8984 L57.5,162.8516 Q57.5,163.6719 57.1484,164.0234 Q56.7969,164.375 56.25,164.375 Q55.7617,164.375 55.4492,164.1602 Q55.1367,163.9453 55,163.3789 Q54.9414,162.9883 54.7266,162.7734 Q54.3359,162.3633 53.6328,162.1289 Q52.9297,161.875 52.2266,161.875 Q51.3477,161.875 50.6055,162.2266 Q49.8828,162.5781 49.3164,163.3594 Q48.75,164.1406 48.75,165.2148 L48.75,166.3672 Q48.75,167.6563 49.8047,168.5156 Q50.8594,169.375 52.7344,169.375 Q53.8477,169.375 54.6289,169.1211 Q55.0781,168.9844 55.5859,168.5352 Q55.918,168.2813 56.0938,168.2031 Q56.2695,168.125 56.4844,168.125 Q56.8945,168.125 57.1875,168.457 Q57.5,168.7695 57.5,169.2188 Q57.5,169.6484 57.0703,170.1563 Q56.4453,170.8984 55.4492,171.3086 Q54.1406,171.875 52.5391,171.875 Q50.6641,171.875 49.1602,171.1328 Q47.9492,170.5469 47.0898,169.2773 Q46.25,168.0078 46.25,166.5039 L46.25,165.1367 Q46.25,163.5742 46.9922,162.207 Q47.7539,160.8398 49.0625,160.1172 Q50.3906,159.375 51.875,159.375 Q52.7734,159.375 53.5547,159.6875 Q54.3359,160 55,160.625 Z " fill="#000000"/><text fill="#000000" font-family="sans-serif" font-size="15" lengthAdjust="spacing" textLength="173.75" x="70" y="171.1377">ShipOccupancyController</text><line style="stroke:#A80036;stroke-width:1.875;" x1="35" x2="246.25" y1="185" y2="185"/><line style="stroke:#A80036;stroke-width:1.875;" x1="35" x2="246.25" y1="195" y2="195"/><text fill="#000000" font-family="sans-serif" font-size="13.75" lengthAdjust="spacing" textLength="198.75" x="41.25" y="214.2737">+tripsBelowThreshHold(int mmsi)</text><!--MD5=[0b8a0869bb17c5d05015d74abb8e1141]
class ConnectionFactory--><rect codeLine="10" fill="#FEFECE" filter="url(#fpxuh95d67cx6)" height="94.5898" id="ConnectionFactory" style="stroke:#A80036;stroke-width:1.875;" width="176.25" x="8.75" y="320"/><ellipse cx="31.4375" cy="340" fill="#ADD1B2" rx="13.75" ry="13.75" style="stroke:#A80036;stroke-width:1.25;"/><path d="M33.9375,335.625 Q34.1914,335 34.4844,334.6875 Q34.7773,334.375 35.1094,334.375 Q35.6953,334.375 36.0664,334.7266 Q36.4375,335.0781 36.4375,335.8984 L36.4375,337.8516 Q36.4375,338.6719 36.0859,339.0234 Q35.7344,339.375 35.1875,339.375 Q34.6992,339.375 34.3867,339.1602 Q34.0742,338.9453 33.9375,338.3789 Q33.8789,337.9883 33.6641,337.7734 Q33.2734,337.3633 32.5703,337.1289 Q31.8672,336.875 31.1641,336.875 Q30.2852,336.875 29.543,337.2266 Q28.8203,337.5781 28.2539,338.3594 Q27.6875,339.1406 27.6875,340.2148 L27.6875,341.3672 Q27.6875,342.6563 28.7422,343.5156 Q29.7969,344.375 31.6719,344.375 Q32.7852,344.375 33.5664,344.1211 Q34.0156,343.9844 34.5234,343.5352 Q34.8555,343.2813 35.0313,343.2031 Q35.207,343.125 35.4219,343.125 Q35.832,343.125 36.125,343.457 Q36.4375,343.7695 36.4375,344.2188 Q36.4375,344.6484 36.0078,345.1563 Q35.3828,345.8984 34.3867,346.3086 Q33.0781,346.875 31.4766,346.875 Q29.6016,346.875 28.0977,346.1328 Q26.8867,345.5469 26.0273,344.2773 Q25.1875,343.0078 25.1875,341.5039 L25.1875,340.1367 Q25.1875,338.5742 25.9297,337.207 Q26.6914,335.8398 28,335.1172 Q29.3281,334.375 30.8125,334.375 Q31.7109,334.375 32.4922,334.6875 Q33.2734,335 33.9375,335.625 Z " fill="#000000"/><text fill="#000000" font-family="sans-serif" font-size="15" lengthAdjust="spacing" textLength="127.5" x="49.8125" y="346.1377">ConnectionFactory</text><line style="stroke:#A80036;stroke-width:1.875;" x1="10" x2="183.75" y1="360" y2="360"/><line style="stroke:#A80036;stroke-width:1.875;" x1="10" x2="183.75" y1="370" y2="370"/><text fill="#000000" font-family="sans-serif" font-size="13.75" lengthAdjust="spacing" textLength="87.5" x="16.25" y="389.2737">+getInstance()</text><text fill="#000000" font-family="sans-serif" font-size="13.75" lengthAdjust="spacing" textLength="161.25" x="16.25" y="406.5686">+getDatabaseConnection()</text><!--MD5=[4ebfed50a2843d6810d5f28a3ed1348c]
class CargoManifestStore--><rect codeLine="15" fill="#FEFECE" filter="url(#fpxuh95d67cx6)" height="77.2949" id="CargoManifestStore" style="stroke:#A80036;stroke-width:1.875;" width="562.5" x="229.375" y="328.75"/><ellipse cx="437.1875" cy="348.75" fill="#ADD1B2" rx="13.75" ry="13.75" style="stroke:#A80036;stroke-width:1.25;"/><path d="M439.6875,344.375 Q439.9414,343.75 440.2344,343.4375 Q440.5273,343.125 440.8594,343.125 Q441.4453,343.125 441.8164,343.4766 Q442.1875,343.8281 442.1875,344.6484 L442.1875,346.6016 Q442.1875,347.4219 441.8359,347.7734 Q441.4844,348.125 440.9375,348.125 Q440.4492,348.125 440.1367,347.9102 Q439.8242,347.6953 439.6875,347.1289 Q439.6289,346.7383 439.4141,346.5234 Q439.0234,346.1133 438.3203,345.8789 Q437.6172,345.625 436.9141,345.625 Q436.0352,345.625 435.293,345.9766 Q434.5703,346.3281 434.0039,347.1094 Q433.4375,347.8906 433.4375,348.9648 L433.4375,350.1172 Q433.4375,351.4063 434.4922,352.2656 Q435.5469,353.125 437.4219,353.125 Q438.5352,353.125 439.3164,352.8711 Q439.7656,352.7344 440.2734,352.2852 Q440.6055,352.0313 440.7813,351.9531 Q440.957,351.875 441.1719,351.875 Q441.582,351.875 441.875,352.207 Q442.1875,352.5195 442.1875,352.9688 Q442.1875,353.3984 441.7578,353.9063 Q441.1328,354.6484 440.1367,355.0586 Q438.8281,355.625 437.2266,355.625 Q435.3516,355.625 433.8477,354.8828 Q432.6367,354.2969 431.7773,353.0273 Q430.9375,351.7578 430.9375,350.2539 L430.9375,348.8867 Q430.9375,347.3242 431.6797,345.957 Q432.4414,344.5898 433.75,343.8672 Q435.0781,343.125 436.5625,343.125 Q437.4609,343.125 438.2422,343.4375 Q439.0234,343.75 439.6875,344.375 Z " fill="#000000"/><text fill="#000000" font-family="sans-serif" font-size="15" lengthAdjust="spacing" textLength="136.25" x="462.8125" y="354.8877">CargoManifestStore</text><line style="stroke:#A80036;stroke-width:1.875;" x1="230.625" x2="790.625" y1="368.75" y2="368.75"/><line style="stroke:#A80036;stroke-width:1.875;" x1="230.625" x2="790.625" y1="378.75" y2="378.75"/><text fill="#000000" font-family="sans-serif" font-size="13.75" lengthAdjust="spacing" textLength="547.5" x="236.875" y="398.0237">+getTripsThreshHold(DatabaseConnection databaseConnection, int mmsi, String startDate )</text><!--MD5=[8aa441cdd93a4e2944eff58bc06cd78a]
class DatabaseConnection--><rect codeLine="19" fill="#FEFECE" filter="url(#fpxuh95d67cx6)" height="77.2949" id="DatabaseConnection" style="stroke:#A80036;stroke-width:1.875;" width="186.25" x="417.5" y="512.5"/><ellipse cx="436.25" cy="532.5" fill="#ADD1B2" rx="13.75" ry="13.75" style="stroke:#A80036;stroke-width:1.25;"/><path d="M438.75,528.125 Q439.0039,527.5 439.2969,527.1875 Q439.5898,526.875 439.9219,526.875 Q440.5078,526.875 440.8789,527.2266 Q441.25,527.5781 441.25,528.3984 L441.25,530.3516 Q441.25,531.1719 440.8984,531.5234 Q440.5469,531.875 440,531.875 Q439.5117,531.875 439.1992,531.6602 Q438.8867,531.4453 438.75,530.8789 Q438.6914,530.4883 438.4766,530.2734 Q438.0859,529.8633 437.3828,529.6289 Q436.6797,529.375 435.9766,529.375 Q435.0977,529.375 434.3555,529.7266 Q433.6328,530.0781 433.0664,530.8594 Q432.5,531.6406 432.5,532.7148 L432.5,533.8672 Q432.5,535.1563 433.5547,536.0156 Q434.6094,536.875 436.4844,536.875 Q437.5977,536.875 438.3789,536.6211 Q438.8281,536.4844 439.3359,536.0352 Q439.668,535.7813 439.8438,535.7031 Q440.0195,535.625 440.2344,535.625 Q440.6445,535.625 440.9375,535.957 Q441.25,536.2695 441.25,536.7188 Q441.25,537.1484 440.8203,537.6563 Q440.1953,538.3984 439.1992,538.8086 Q437.8906,539.375 436.2891,539.375 Q434.4141,539.375 432.9102,538.6328 Q431.6992,538.0469 430.8398,536.7773 Q430,535.5078 430,534.0039 L430,532.6367 Q430,531.0742 430.7422,529.707 Q431.5039,528.3398 432.8125,527.6172 Q434.1406,526.875 435.625,526.875 Q436.5234,526.875 437.3047,527.1875 Q438.0859,527.5 438.75,528.125 Z " fill="#000000"/><text fill="#000000" font-family="sans-serif" font-size="15" lengthAdjust="spacing" textLength="146.25" x="453.75" y="538.6377">DatabaseConnection</text><line style="stroke:#A80036;stroke-width:1.875;" x1="418.75" x2="602.5" y1="552.5" y2="552.5"/><line style="stroke:#A80036;stroke-width:1.875;" x1="418.75" x2="602.5" y1="562.5" y2="562.5"/><text fill="#000000" font-family="sans-serif" font-size="13.75" lengthAdjust="spacing" textLength="103.75" x="425" y="581.7737">+getConnection()</text><!--MD5=[2d3ef6b906c9dca116c2950b9376e324]
link ShipTripUI to ShipOccupancyController--><path codeLine="23" d="M140.625,68.8375 C140.625,88.7625 140.625,115.6375 140.625,138.25 " fill="none" id="ShipTripUI-to-ShipOccupancyController" style="stroke:#A80036;stroke-width:1.25;stroke-dasharray:7.0,7.0;"/><polygon fill="#A80036" points="140.625,144.5125,145.625,133.2625,140.625,138.2625,135.625,133.2625,140.625,144.5125" style="stroke:#A80036;stroke-width:1.25;"/><!--MD5=[db3ede84a5da24a8a10015c57a5e0170]
link ShipOccupancyController to ConnectionFactory--><path codeLine="24" d="M131.5625,222.55 C125.2,248.8875 116.625,284.45 109.5875,313.6 " fill="none" id="ShipOccupancyController-to-ConnectionFactory" style="stroke:#A80036;stroke-width:1.25;"/><polygon fill="#A80036" points="108.1,319.725,115.5982,309.9608,109.5653,313.6492,105.877,307.6163,108.1,319.725" style="stroke:#A80036;stroke-width:1.25;"/><text fill="#000000" font-family="sans-serif" font-size="16.25" lengthAdjust="spacing" textLength="35" x="123.125" y="278.1189">uses</text><text fill="#000000" font-family="sans-serif" font-size="16.25" lengthAdjust="spacing" textLength="8.75" x="120.167" y="249.0898">1</text><text fill="#000000" font-family="sans-serif" font-size="16.25" lengthAdjust="spacing" textLength="25" x="82.8729" y="306.3784">1..*</text><!--MD5=[4ce7c33a460dca2f82d701c7d6ea0b75]
link ShipOccupancyController to CargoManifestStore--><path codeLine="25" d="M217.2875,222.55 C278.925,252.75 365.35,295.0875 428.4125,325.975 " fill="none" id="ShipOccupancyController-to-CargoManifestStore" style="stroke:#A80036;stroke-width:1.25;"/><polygon fill="#A80036" points="434.0625,328.7375,426.1517,319.3045,428.4476,325.9924,421.7596,328.2883,434.0625,328.7375" style="stroke:#A80036;stroke-width:1.25;"/><text fill="#000000" font-family="sans-serif" font-size="16.25" lengthAdjust="spacing" textLength="35" x="336.875" y="278.1189">uses</text><text fill="#000000" font-family="sans-serif" font-size="16.25" lengthAdjust="spacing" textLength="8.75" x="222.7691" y="249.0898">1</text><text fill="#000000" font-family="sans-serif" font-size="16.25" lengthAdjust="spacing" textLength="8.75" x="407.6074" y="315.0101">1</text><!--MD5=[2116ab72117c1937cd431dde115995d9]
link CargoManifestStore to DatabaseConnection--><path codeLine="26" d="M510.625,406.3 C510.625,435.35 510.625,475.6125 510.625,506.1375 " fill="none" id="CargoManifestStore-to-DatabaseConnection" style="stroke:#A80036;stroke-width:1.25;"/><polygon fill="#A80036" points="510.625,512.4875,515.625,501.2375,510.625,506.2375,505.625,501.2375,510.625,512.4875" style="stroke:#A80036;stroke-width:1.25;"/><text fill="#000000" font-family="sans-serif" font-size="16.25" lengthAdjust="spacing" textLength="35" x="511.875" y="470.6189">uses</text><text fill="#000000" font-family="sans-serif" font-size="16.25" lengthAdjust="spacing" textLength="8.75" x="501.0137" y="432.8398">1</text><text fill="#000000" font-family="sans-serif" font-size="16.25" lengthAdjust="spacing" textLength="25" x="482.8906" y="498.7601">1..*</text><!--MD5=[1b637e9974842def78ed6f5b2968c343]
@startuml
skinparam classAttributeIconSize 0

class ShipTripUI{
}

class ShipOccupancyController {
+ tripsBelowThreshHold(int mmsi)
}

class ConnectionFactory {
+ getInstance()
+ getDatabaseConnection()
}

class CargoManifestStore {
+ getTripsThreshHold(DatabaseConnection databaseConnection, int mmsi, String startDate )
}

class DatabaseConnection {
+ getConnection()
}

ShipOccupancyController <.up. ShipTripUI
ShipOccupancyController "1" - -> "1..*" ConnectionFactory : uses
ShipOccupancyController "1" - -> "1" CargoManifestStore : uses
CargoManifestStore "1" - -> "1..*" DatabaseConnection : uses



@enduml

PlantUML version 1.2021.7(Sun May 23 13:40:07 BST 2021)
(GPL source distribution)
Java Runtime: OpenJDK Runtime Environment
JVM: OpenJDK 64-Bit Server VM
Default Encoding: Cp1252
Language: pt
Country: PT
--></g></svg>