<?xml version="1.0" encoding="UTF-8" standalone="no"?><svg xmlns="http://www.w3.org/2000/svg" xmlns:xlink="http://www.w3.org/1999/xlink" contentScriptType="application/ecmascript" contentStyleType="text/css" height="971.25px" preserveAspectRatio="none" style="width:716px;height:971px;background:#FFFFFF;" version="1.1" viewBox="0 0 716 971" width="716.25px" zoomAndPan="magnify"><defs><filter height="300%" id="fkh6p3dtmalqn" width="300%" x="-1" y="-1"><feGaussianBlur result="blurOut" stdDeviation="2.5"/><feColorMatrix in="blurOut" result="blurOut2" type="matrix" values="0 0 0 0 0 0 0 0 0 0 0 0 0 0 0 0 0 0 .4 0"/><feOffset dx="5.0" dy="5.0" in="blurOut2" result="blurOut3"/><feBlend in="SourceGraphic" in2="blurOut3" mode="normal"/></filter></defs><g><!--MD5=[0dc7f2ddb409b58bcf52b12238c25399]
class Ship--><rect codeLine="6" fill="#FEFECE" filter="url(#fkh6p3dtmalqn)" height="250.2441" id="Ship" style="stroke:#A80036;stroke-width:1.875;" width="203.75" x="262.5" y="270"/><ellipse cx="343.4375" cy="290" fill="#ADD1B2" rx="13.75" ry="13.75" style="stroke:#A80036;stroke-width:1.25;"/><path d="M345.9375,285.625 Q346.1914,285 346.4844,284.6875 Q346.7773,284.375 347.1094,284.375 Q347.6953,284.375 348.0664,284.7266 Q348.4375,285.0781 348.4375,285.8984 L348.4375,287.8516 Q348.4375,288.6719 348.0859,289.0234 Q347.7344,289.375 347.1875,289.375 Q346.6992,289.375 346.3867,289.1602 Q346.0742,288.9453 345.9375,288.3789 Q345.8789,287.9883 345.6641,287.7734 Q345.2734,287.3633 344.5703,287.1289 Q343.8672,286.875 343.1641,286.875 Q342.2852,286.875 341.543,287.2266 Q340.8203,287.5781 340.2539,288.3594 Q339.6875,289.1406 339.6875,290.2148 L339.6875,291.3672 Q339.6875,292.6563 340.7422,293.5156 Q341.7969,294.375 343.6719,294.375 Q344.7852,294.375 345.5664,294.1211 Q346.0156,293.9844 346.5234,293.5352 Q346.8555,293.2813 347.0313,293.2031 Q347.207,293.125 347.4219,293.125 Q347.832,293.125 348.125,293.457 Q348.4375,293.7695 348.4375,294.2188 Q348.4375,294.6484 348.0078,295.1563 Q347.3828,295.8984 346.3867,296.3086 Q345.0781,296.875 343.4766,296.875 Q341.6016,296.875 340.0977,296.1328 Q338.8867,295.5469 338.0273,294.2773 Q337.1875,293.0078 337.1875,291.5039 L337.1875,290.1367 Q337.1875,288.5742 337.9297,287.207 Q338.6914,285.8398 340,285.1172 Q341.3281,284.375 342.8125,284.375 Q343.7109,284.375 344.4922,284.6875 Q345.2734,285 345.9375,285.625 Z " fill="#000000"/><text fill="#000000" font-family="sans-serif" font-size="15" lengthAdjust="spacing" textLength="31.25" x="369.0625" y="296.1377">Ship</text><line style="stroke:#A80036;stroke-width:1.875;" x1="263.75" x2="465" y1="310" y2="310"/><rect fill="none" height="7.5" style="stroke:#C82930;stroke-width:1.25;" width="7.5" x="272.5" y="320"/><text fill="#000000" font-family="sans-serif" font-size="13.75" lengthAdjust="spacing" textLength="30" x="287.5" y="329.2737">mmsi</text><rect fill="none" height="7.5" style="stroke:#C82930;stroke-width:1.25;" width="7.5" x="272.5" y="337.2949"/><text fill="#000000" font-family="sans-serif" font-size="13.75" lengthAdjust="spacing" textLength="58.75" x="287.5" y="346.5686">shipName</text><rect fill="none" height="7.5" style="stroke:#C82930;stroke-width:1.25;" width="7.5" x="272.5" y="354.5898"/><text fill="#000000" font-family="sans-serif" font-size="13.75" lengthAdjust="spacing" textLength="30" x="287.5" y="363.8635">imoId</text><rect fill="none" height="7.5" style="stroke:#C82930;stroke-width:1.25;" width="7.5" x="272.5" y="371.8848"/><text fill="#000000" font-family="sans-serif" font-size="13.75" lengthAdjust="spacing" textLength="171.25" x="287.5" y="381.1584">numberOfEnergyGenerators</text><rect fill="none" height="7.5" style="stroke:#C82930;stroke-width:1.25;" width="7.5" x="272.5" y="389.1797"/><text fill="#000000" font-family="sans-serif" font-size="13.75" lengthAdjust="spacing" textLength="146.25" x="287.5" y="398.4534">generatorsPowerOutput</text><rect fill="none" height="7.5" style="stroke:#C82930;stroke-width:1.25;" width="7.5" x="272.5" y="406.4746"/><text fill="#000000" font-family="sans-serif" font-size="13.75" lengthAdjust="spacing" textLength="46.25" x="287.5" y="415.7483">callSign</text><rect fill="none" height="7.5" style="stroke:#C82930;stroke-width:1.25;" width="7.5" x="272.5" y="423.7695"/><text fill="#000000" font-family="sans-serif" font-size="13.75" lengthAdjust="spacing" textLength="70" x="287.5" y="433.0432">vesselType</text><rect fill="none" height="7.5" style="stroke:#C82930;stroke-width:1.25;" width="7.5" x="272.5" y="441.0645"/><text fill="#000000" font-family="sans-serif" font-size="13.75" lengthAdjust="spacing" textLength="36.25" x="287.5" y="450.3381">lenght</text><rect fill="none" height="7.5" style="stroke:#C82930;stroke-width:1.25;" width="7.5" x="272.5" y="458.3594"/><text fill="#000000" font-family="sans-serif" font-size="13.75" lengthAdjust="spacing" textLength="33.75" x="287.5" y="467.6331">width</text><rect fill="none" height="7.5" style="stroke:#C82930;stroke-width:1.25;" width="7.5" x="272.5" y="475.6543"/><text fill="#000000" font-family="sans-serif" font-size="13.75" lengthAdjust="spacing" textLength="51.25" x="287.5" y="484.928">capacity</text><rect fill="none" height="7.5" style="stroke:#C82930;stroke-width:1.25;" width="7.5" x="272.5" y="492.9492"/><text fill="#000000" font-family="sans-serif" font-size="13.75" lengthAdjust="spacing" textLength="28.75" x="287.5" y="502.2229">draft</text><line style="stroke:#A80036;stroke-width:1.875;" x1="263.75" x2="465" y1="510.2441" y2="510.2441"/><!--MD5=[a44ad20d45cac02e8c33cdd4602627cf]
class ShipRoute--><rect codeLine="20" fill="#FEFECE" filter="url(#fkh6p3dtmalqn)" height="163.7695" id="ShipRoute" style="stroke:#A80036;stroke-width:1.875;" width="121.25" x="303.75" y="8.75"/><ellipse cx="326.4375" cy="28.75" fill="#ADD1B2" rx="13.75" ry="13.75" style="stroke:#A80036;stroke-width:1.25;"/><path d="M328.9375,24.375 Q329.1914,23.75 329.4844,23.4375 Q329.7773,23.125 330.1094,23.125 Q330.6953,23.125 331.0664,23.4766 Q331.4375,23.8281 331.4375,24.6484 L331.4375,26.6016 Q331.4375,27.4219 331.0859,27.7734 Q330.7344,28.125 330.1875,28.125 Q329.6992,28.125 329.3867,27.9102 Q329.0742,27.6953 328.9375,27.1289 Q328.8789,26.7383 328.6641,26.5234 Q328.2734,26.1133 327.5703,25.8789 Q326.8672,25.625 326.1641,25.625 Q325.2852,25.625 324.543,25.9766 Q323.8203,26.3281 323.2539,27.1094 Q322.6875,27.8906 322.6875,28.9648 L322.6875,30.1172 Q322.6875,31.4063 323.7422,32.2656 Q324.7969,33.125 326.6719,33.125 Q327.7852,33.125 328.5664,32.8711 Q329.0156,32.7344 329.5234,32.2852 Q329.8555,32.0313 330.0313,31.9531 Q330.207,31.875 330.4219,31.875 Q330.832,31.875 331.125,32.207 Q331.4375,32.5195 331.4375,32.9688 Q331.4375,33.3984 331.0078,33.9063 Q330.3828,34.6484 329.3867,35.0586 Q328.0781,35.625 326.4766,35.625 Q324.6016,35.625 323.0977,34.8828 Q321.8867,34.2969 321.0273,33.0273 Q320.1875,31.7578 320.1875,30.2539 L320.1875,28.8867 Q320.1875,27.3242 320.9297,25.957 Q321.6914,24.5898 323,23.8672 Q324.3281,23.125 325.8125,23.125 Q326.7109,23.125 327.4922,23.4375 Q328.2734,23.75 328.9375,24.375 Z " fill="#000000"/><text fill="#000000" font-family="sans-serif" font-size="15" lengthAdjust="spacing" textLength="72.5" x="344.8125" y="34.8877">ShipRoute</text><line style="stroke:#A80036;stroke-width:1.875;" x1="305" x2="423.75" y1="48.75" y2="48.75"/><rect fill="none" height="7.5" style="stroke:#C82930;stroke-width:1.25;" width="7.5" x="313.75" y="58.75"/><text fill="#000000" font-family="sans-serif" font-size="13.75" lengthAdjust="spacing" textLength="30" x="328.75" y="68.0237">mmsi</text><rect fill="none" height="7.5" style="stroke:#C82930;stroke-width:1.25;" width="7.5" x="313.75" y="76.0449"/><text fill="#000000" font-family="sans-serif" font-size="13.75" lengthAdjust="spacing" textLength="77.5" x="328.75" y="85.3186">departureLat</text><rect fill="none" height="7.5" style="stroke:#C82930;stroke-width:1.25;" width="7.5" x="313.75" y="93.3398"/><text fill="#000000" font-family="sans-serif" font-size="13.75" lengthAdjust="spacing" textLength="56.25" x="328.75" y="102.6135">arrivalLat</text><rect fill="none" height="7.5" style="stroke:#C82930;stroke-width:1.25;" width="7.5" x="313.75" y="110.6348"/><text fill="#000000" font-family="sans-serif" font-size="13.75" lengthAdjust="spacing" textLength="88.75" x="328.75" y="119.9084">departureLong</text><rect fill="none" height="7.5" style="stroke:#C82930;stroke-width:1.25;" width="7.5" x="313.75" y="127.9297"/><text fill="#000000" font-family="sans-serif" font-size="13.75" lengthAdjust="spacing" textLength="67.5" x="328.75" y="137.2034">arrivalLong</text><rect fill="none" height="7.5" style="stroke:#C82930;stroke-width:1.25;" width="7.5" x="313.75" y="145.2246"/><text fill="#000000" font-family="sans-serif" font-size="13.75" lengthAdjust="spacing" textLength="86.25" x="328.75" y="154.4983">travelDistance</text><line style="stroke:#A80036;stroke-width:1.875;" x1="305" x2="423.75" y1="162.5195" y2="162.5195"/><!--MD5=[e7ad894f8331fa852791ac292f7e8a32]
class ShipPair--><rect codeLine="29" fill="#FEFECE" filter="url(#fkh6p3dtmalqn)" height="146.4746" id="ShipPair" style="stroke:#A80036;stroke-width:1.875;" width="143.75" x="555" y="321.875"/><ellipse cx="594" cy="341.875" fill="#ADD1B2" rx="13.75" ry="13.75" style="stroke:#A80036;stroke-width:1.25;"/><path d="M596.5,337.5 Q596.7539,336.875 597.0469,336.5625 Q597.3398,336.25 597.6719,336.25 Q598.2578,336.25 598.6289,336.6016 Q599,336.9531 599,337.7734 L599,339.7266 Q599,340.5469 598.6484,340.8984 Q598.2969,341.25 597.75,341.25 Q597.2617,341.25 596.9492,341.0352 Q596.6367,340.8203 596.5,340.2539 Q596.4414,339.8633 596.2266,339.6484 Q595.8359,339.2383 595.1328,339.0039 Q594.4297,338.75 593.7266,338.75 Q592.8477,338.75 592.1055,339.1016 Q591.3828,339.4531 590.8164,340.2344 Q590.25,341.0156 590.25,342.0898 L590.25,343.2422 Q590.25,344.5313 591.3047,345.3906 Q592.3594,346.25 594.2344,346.25 Q595.3477,346.25 596.1289,345.9961 Q596.5781,345.8594 597.0859,345.4102 Q597.418,345.1563 597.5938,345.0781 Q597.7695,345 597.9844,345 Q598.3945,345 598.6875,345.332 Q599,345.6445 599,346.0938 Q599,346.5234 598.5703,347.0313 Q597.9453,347.7734 596.9492,348.1836 Q595.6406,348.75 594.0391,348.75 Q592.1641,348.75 590.6602,348.0078 Q589.4492,347.4219 588.5898,346.1523 Q587.75,344.8828 587.75,343.3789 L587.75,342.0117 Q587.75,340.4492 588.4922,339.082 Q589.2539,337.7148 590.5625,336.9922 Q591.8906,336.25 593.375,336.25 Q594.2734,336.25 595.0547,336.5625 Q595.8359,336.875 596.5,337.5 Z " fill="#000000"/><text fill="#000000" font-family="sans-serif" font-size="15" lengthAdjust="spacing" textLength="58.75" x="616" y="348.0127">ShipPair</text><line style="stroke:#A80036;stroke-width:1.875;" x1="556.25" x2="697.5" y1="361.875" y2="361.875"/><rect fill="none" height="7.5" style="stroke:#C82930;stroke-width:1.25;" width="7.5" x="565" y="371.875"/><text fill="#000000" font-family="sans-serif" font-size="13.75" lengthAdjust="spacing" textLength="37.5" x="580" y="381.1487">mmsi1</text><rect fill="none" height="7.5" style="stroke:#C82930;stroke-width:1.25;" width="7.5" x="565" y="389.1699"/><text fill="#000000" font-family="sans-serif" font-size="13.75" lengthAdjust="spacing" textLength="37.5" x="580" y="398.4436">mmsi2</text><rect fill="none" height="7.5" style="stroke:#C82930;stroke-width:1.25;" width="7.5" x="565" y="406.4648"/><text fill="#000000" font-family="sans-serif" font-size="13.75" lengthAdjust="spacing" textLength="111.25" x="580" y="415.7385">departureDistance</text><rect fill="none" height="7.5" style="stroke:#C82930;stroke-width:1.25;" width="7.5" x="565" y="423.7598"/><text fill="#000000" font-family="sans-serif" font-size="13.75" lengthAdjust="spacing" textLength="90" x="580" y="433.0334">arrivalDistance</text><rect fill="none" height="7.5" style="stroke:#C82930;stroke-width:1.25;" width="7.5" x="565" y="441.0547"/><text fill="#000000" font-family="sans-serif" font-size="13.75" lengthAdjust="spacing" textLength="93.75" x="580" y="450.3284">travelDistance1</text><line style="stroke:#A80036;stroke-width:1.875;" x1="556.25" x2="697.5" y1="458.3496" y2="458.3496"/><!--MD5=[ac7de62ce9384a92b5e95b1a406bc87c]
class ShipDistance--><rect codeLine="37" fill="#FEFECE" filter="url(#fkh6p3dtmalqn)" height="336.7188" id="ShipDistance" style="stroke:#A80036;stroke-width:1.875;" width="132.5" x="298.125" y="617.5"/><ellipse cx="316.875" cy="637.5" fill="#ADD1B2" rx="13.75" ry="13.75" style="stroke:#A80036;stroke-width:1.25;"/><path d="M319.375,633.125 Q319.6289,632.5 319.9219,632.1875 Q320.2148,631.875 320.5469,631.875 Q321.1328,631.875 321.5039,632.2266 Q321.875,632.5781 321.875,633.3984 L321.875,635.3516 Q321.875,636.1719 321.5234,636.5234 Q321.1719,636.875 320.625,636.875 Q320.1367,636.875 319.8242,636.6602 Q319.5117,636.4453 319.375,635.8789 Q319.3164,635.4883 319.1016,635.2734 Q318.7109,634.8633 318.0078,634.6289 Q317.3047,634.375 316.6016,634.375 Q315.7227,634.375 314.9805,634.7266 Q314.2578,635.0781 313.6914,635.8594 Q313.125,636.6406 313.125,637.7148 L313.125,638.8672 Q313.125,640.1563 314.1797,641.0156 Q315.2344,641.875 317.1094,641.875 Q318.2227,641.875 319.0039,641.6211 Q319.4531,641.4844 319.9609,641.0352 Q320.293,640.7813 320.4688,640.7031 Q320.6445,640.625 320.8594,640.625 Q321.2695,640.625 321.5625,640.957 Q321.875,641.2695 321.875,641.7188 Q321.875,642.1484 321.4453,642.6563 Q320.8203,643.3984 319.8242,643.8086 Q318.5156,644.375 316.9141,644.375 Q315.0391,644.375 313.5352,643.6328 Q312.3242,643.0469 311.4648,641.7773 Q310.625,640.5078 310.625,639.0039 L310.625,637.6367 Q310.625,636.0742 311.3672,634.707 Q312.1289,633.3398 313.4375,632.6172 Q314.7656,631.875 316.25,631.875 Q317.1484,631.875 317.9297,632.1875 Q318.7109,632.5 319.375,633.125 Z " fill="#000000"/><text fill="#000000" font-family="sans-serif" font-size="15" lengthAdjust="spacing" textLength="92.5" x="334.375" y="643.6377">ShipDistance</text><line style="stroke:#A80036;stroke-width:1.875;" x1="299.375" x2="429.375" y1="657.5" y2="657.5"/><rect fill="none" height="7.5" style="stroke:#C82930;stroke-width:1.25;" width="7.5" x="308.125" y="667.5"/><text fill="#000000" font-family="sans-serif" font-size="13.75" lengthAdjust="spacing" textLength="30" x="323.125" y="676.7737">mmsi</text><rect fill="none" height="7.5" style="stroke:#C82930;stroke-width:1.25;" width="7.5" x="308.125" y="684.7949"/><text fill="#000000" font-family="sans-serif" font-size="13.75" lengthAdjust="spacing" textLength="73.75" x="323.125" y="694.0686">vesselName</text><rect fill="none" height="7.5" style="stroke:#C82930;stroke-width:1.25;" width="7.5" x="308.125" y="702.0898"/><text fill="#000000" font-family="sans-serif" font-size="13.75" lengthAdjust="spacing" textLength="55" x="323.125" y="711.3635">startTime</text><rect fill="none" height="7.5" style="stroke:#C82930;stroke-width:1.25;" width="7.5" x="308.125" y="719.3848"/><text fill="#000000" font-family="sans-serif" font-size="13.75" lengthAdjust="spacing" textLength="50" x="323.125" y="728.6584">endTime</text><rect fill="none" height="7.5" style="stroke:#C82930;stroke-width:1.25;" width="7.5" x="308.125" y="736.6797"/><text fill="#000000" font-family="sans-serif" font-size="13.75" lengthAdjust="spacing" textLength="93.75" x="323.125" y="745.9534">totalMovements</text><rect fill="none" height="7.5" style="stroke:#C82930;stroke-width:1.25;" width="7.5" x="308.125" y="753.9746"/><text fill="#000000" font-family="sans-serif" font-size="13.75" lengthAdjust="spacing" textLength="52.5" x="323.125" y="763.2483">totalTime</text><rect fill="none" height="7.5" style="stroke:#C82930;stroke-width:1.25;" width="7.5" x="308.125" y="771.2695"/><text fill="#000000" font-family="sans-serif" font-size="13.75" lengthAdjust="spacing" textLength="48.75" x="323.125" y="780.5432">maxSog</text><rect fill="none" height="7.5" style="stroke:#C82930;stroke-width:1.25;" width="7.5" x="308.125" y="788.5645"/><text fill="#000000" font-family="sans-serif" font-size="13.75" lengthAdjust="spacing" textLength="56.25" x="323.125" y="797.8381">meanSog</text><rect fill="none" height="7.5" style="stroke:#C82930;stroke-width:1.25;" width="7.5" x="308.125" y="805.8594"/><text fill="#000000" font-family="sans-serif" font-size="13.75" lengthAdjust="spacing" textLength="48.75" x="323.125" y="815.1331">maxCog</text><rect fill="none" height="7.5" style="stroke:#C82930;stroke-width:1.25;" width="7.5" x="308.125" y="823.1543"/><text fill="#000000" font-family="sans-serif" font-size="13.75" lengthAdjust="spacing" textLength="56.25" x="323.125" y="832.428">meanCog</text><rect fill="none" height="7.5" style="stroke:#C82930;stroke-width:1.25;" width="7.5" x="308.125" y="840.4492"/><text fill="#000000" font-family="sans-serif" font-size="13.75" lengthAdjust="spacing" textLength="70" x="323.125" y="849.7229">depLatitude</text><rect fill="none" height="7.5" style="stroke:#C82930;stroke-width:1.25;" width="7.5" x="308.125" y="857.7441"/><text fill="#000000" font-family="sans-serif" font-size="13.75" lengthAdjust="spacing" textLength="65" x="323.125" y="867.0178">arrLatitude</text><rect fill="none" height="7.5" style="stroke:#C82930;stroke-width:1.25;" width="7.5" x="308.125" y="875.0391"/><text fill="#000000" font-family="sans-serif" font-size="13.75" lengthAdjust="spacing" textLength="52.5" x="323.125" y="884.3127">depLong</text><rect fill="none" height="7.5" style="stroke:#C82930;stroke-width:1.25;" width="7.5" x="308.125" y="892.334"/><text fill="#000000" font-family="sans-serif" font-size="13.75" lengthAdjust="spacing" textLength="47.5" x="323.125" y="901.6077">arrLong</text><rect fill="none" height="7.5" style="stroke:#C82930;stroke-width:1.25;" width="7.5" x="308.125" y="909.6289"/><text fill="#000000" font-family="sans-serif" font-size="13.75" lengthAdjust="spacing" textLength="46.25" x="323.125" y="918.9026">travDist</text><rect fill="none" height="7.5" style="stroke:#C82930;stroke-width:1.25;" width="7.5" x="308.125" y="926.9238"/><text fill="#000000" font-family="sans-serif" font-size="13.75" lengthAdjust="spacing" textLength="43.75" x="323.125" y="936.1975">deltDist</text><line style="stroke:#A80036;stroke-width:1.875;" x1="299.375" x2="429.375" y1="944.2188" y2="944.2188"/><!--MD5=[019a73386217e12d5bb8e34bf0b46b9e]
class FleetManager--><rect fill="#FEFECE" filter="url(#fkh6p3dtmalqn)" height="60" id="FleetManager" style="stroke:#A80036;stroke-width:1.875;" width="133.75" x="8.75" y="365"/><ellipse cx="27.5" cy="385" fill="#ADD1B2" rx="13.75" ry="13.75" style="stroke:#A80036;stroke-width:1.25;"/><path d="M30,380.625 Q30.2539,380 30.5469,379.6875 Q30.8398,379.375 31.1719,379.375 Q31.7578,379.375 32.1289,379.7266 Q32.5,380.0781 32.5,380.8984 L32.5,382.8516 Q32.5,383.6719 32.1484,384.0234 Q31.7969,384.375 31.25,384.375 Q30.7617,384.375 30.4492,384.1602 Q30.1367,383.9453 30,383.3789 Q29.9414,382.9883 29.7266,382.7734 Q29.3359,382.3633 28.6328,382.1289 Q27.9297,381.875 27.2266,381.875 Q26.3477,381.875 25.6055,382.2266 Q24.8828,382.5781 24.3164,383.3594 Q23.75,384.1406 23.75,385.2148 L23.75,386.3672 Q23.75,387.6563 24.8047,388.5156 Q25.8594,389.375 27.7344,389.375 Q28.8477,389.375 29.6289,389.1211 Q30.0781,388.9844 30.5859,388.5352 Q30.918,388.2813 31.0938,388.2031 Q31.2695,388.125 31.4844,388.125 Q31.8945,388.125 32.1875,388.457 Q32.5,388.7695 32.5,389.2188 Q32.5,389.6484 32.0703,390.1563 Q31.4453,390.8984 30.4492,391.3086 Q29.1406,391.875 27.5391,391.875 Q25.6641,391.875 24.1602,391.1328 Q22.9492,390.5469 22.0898,389.2773 Q21.25,388.0078 21.25,386.5039 L21.25,385.1367 Q21.25,383.5742 21.9922,382.207 Q22.7539,380.8398 24.0625,380.1172 Q25.3906,379.375 26.875,379.375 Q27.7734,379.375 28.5547,379.6875 Q29.3359,380 30,380.625 Z " fill="#000000"/><text fill="#000000" font-family="sans-serif" font-size="15" lengthAdjust="spacing" textLength="93.75" x="45" y="391.1377">FleetManager</text><line style="stroke:#A80036;stroke-width:1.875;" x1="10" x2="141.25" y1="405" y2="405"/><line style="stroke:#A80036;stroke-width:1.875;" x1="10" x2="141.25" y1="415" y2="415"/><!--MD5=[468ddd4b70c80a28a8ccd89867b6518f]
link FleetManager to Ship--><path codeLine="60" d="M142.6,395 C178.0875,395 222.425,395 262.1125,395 " fill="none" id="FleetManager-Ship" style="stroke:#A80036;stroke-width:1.25;"/><polygon fill="#000000" points="176.875,380.2197,165.5686,376.5461,165.5686,383.8934,176.875,380.2197" style="stroke:#000000;stroke-width:1.25;"/><text fill="#000000" font-family="sans-serif" font-size="16.25" lengthAdjust="spacing" textLength="57.5" x="181.875" y="386.8689">controls</text><text fill="#000000" font-family="sans-serif" font-size="16.25" lengthAdjust="spacing" textLength="8.75" x="152.6336" y="390.4935">1</text><text fill="#000000" font-family="sans-serif" font-size="16.25" lengthAdjust="spacing" textLength="25" x="227.6087" y="412.7051">1..*</text><!--MD5=[df7146deb5cdd8fd100e886f9e413029]
link Ship to ShipDistance--><path codeLine="61" d="M364.375,520.125 C364.375,551.075 364.375,584.775 364.375,617.425 " fill="none" id="Ship-ShipDistance" style="stroke:#A80036;stroke-width:1.25;"/><polygon fill="#000000" points="370.625,575.2197,374.2987,563.9134,366.9513,563.9134,370.625,575.2197" style="stroke:#000000;stroke-width:1.25;"/><text fill="#000000" font-family="sans-serif" font-size="16.25" lengthAdjust="spacing" textLength="26.25" x="381.875" y="575.6189">has</text><text fill="#000000" font-family="sans-serif" font-size="16.25" lengthAdjust="spacing" textLength="8.75" x="355.3037" y="546.9243">1</text><text fill="#000000" font-family="sans-serif" font-size="16.25" lengthAdjust="spacing" textLength="25" x="338.6523" y="603.9909">1..*</text><!--MD5=[1398f0e8a62f3b3a5b114dcac4794fca]
link ShipRoute to Ship--><path codeLine="62" d="M364.375,172.775 C364.375,202.6375 364.375,237.2 364.375,270 " fill="none" id="ShipRoute-Ship" style="stroke:#A80036;stroke-width:1.25;"/><polygon fill="#000000" points="370.625,215.2197,366.9513,226.5261,374.2987,226.5261,370.625,215.2197" style="stroke:#000000;stroke-width:1.25;"/><text fill="#000000" font-family="sans-serif" font-size="16.25" lengthAdjust="spacing" textLength="26.25" x="381.875" y="228.1189">has</text><text fill="#000000" font-family="sans-serif" font-size="16.25" lengthAdjust="spacing" textLength="25" x="338.0859" y="199.1685">1..*</text><text fill="#000000" font-family="sans-serif" font-size="16.25" lengthAdjust="spacing" textLength="8.75" x="355.29" y="256.5404">1</text><!--MD5=[2d872f8942380604ce9fd7ae4b6eccb1]
link Ship to ShipPair--><path codeLine="63" d="M466.6125,395 C496.125,395 527.7,395 554.95,395 " fill="none" id="Ship-ShipPair" style="stroke:#A80036;stroke-width:1.25;"/><polygon fill="#000000" points="500.625,380.2197,489.3186,376.5461,489.3186,383.8934,500.625,380.2197" style="stroke:#000000;stroke-width:1.25;"/><text fill="#000000" font-family="sans-serif" font-size="16.25" lengthAdjust="spacing" textLength="26.25" x="505.625" y="386.8689">has</text><text fill="#000000" font-family="sans-serif" font-size="16.25" lengthAdjust="spacing" textLength="8.75" x="476.1077" y="390.987">1</text><text fill="#000000" font-family="sans-serif" font-size="16.25" lengthAdjust="spacing" textLength="25" x="520.1884" y="413.0376">1..*</text><!--MD5=[42c7eb634fdce0a26ebdcca1c3dc287a]
@startuml
'https://plantuml.com/sequence-diagram




class Ship {
 - mmsi
 - shipName
 - imoId
 - numberOfEnergyGenerators
 - generatorsPowerOutput
 - callSign
 - vesselType
 - lenght
 - width
 - capacity
 - draft
}

class ShipRoute {
- mmsi
- departureLat
- arrivalLat
- departureLong
- arrivalLong
- travelDistance
}

class ShipPair {
- mmsi1
- mmsi2
- departureDistance
- arrivalDistance
- travelDistance1
}

class ShipDistance {
- mmsi
- vesselName
- startTime
- endTime
- totalMovements
- totalTime
- maxSog
- meanSog
- maxCog
- meanCog
- depLatitude
- arrLatitude
- depLong
- arrLong
- travDist
- deltDist
}





FleetManager"1" -right- "1..*"Ship : > controls
Ship "1" -down- "1..*"ShipDistance :> has
Ship "1" -up- "1..*"ShipRoute :> has
Ship "1" -right- "1..*"ShipPair :> has


@enduml

@startuml




class Ship {
 - mmsi
 - shipName
 - imoId
 - numberOfEnergyGenerators
 - generatorsPowerOutput
 - callSign
 - vesselType
 - lenght
 - width
 - capacity
 - draft
}

class ShipRoute {
- mmsi
- departureLat
- arrivalLat
- departureLong
- arrivalLong
- travelDistance
}

class ShipPair {
- mmsi1
- mmsi2
- departureDistance
- arrivalDistance
- travelDistance1
}

class ShipDistance {
- mmsi
- vesselName
- startTime
- endTime
- totalMovements
- totalTime
- maxSog
- meanSog
- maxCog
- meanCog
- depLatitude
- arrLatitude
- depLong
- arrLong
- travDist
- deltDist
}





FleetManager"1" -right- "1..*"Ship : > controls
Ship "1" -down- "1..*"ShipDistance :> has
Ship "1" -up- "1..*"ShipRoute :> has
Ship "1" -right- "1..*"ShipPair :> has


@enduml

PlantUML version 1.2021.7(Sun May 23 13:40:07 BST 2021)
(GPL source distribution)
Java Runtime: OpenJDK Runtime Environment
JVM: OpenJDK 64-Bit Server VM
Default Encoding: Cp1252
Language: pt
Country: PT
--></g></svg>