<?xml version="1.0" encoding="UTF-8" standalone="no"?><svg xmlns="http://www.w3.org/2000/svg" xmlns:xlink="http://www.w3.org/1999/xlink" contentScriptType="application/ecmascript" contentStyleType="text/css" height="293.75px" preserveAspectRatio="none" style="width:441px;height:293px;background:#FFFFFF;" version="1.1" viewBox="0 0 441 293" width="441.25px" zoomAndPan="magnify"><defs><filter height="300%" id="f8vhruzhmf5n0" width="300%" x="-1" y="-1"><feGaussianBlur result="blurOut" stdDeviation="2.5"/><feColorMatrix in="blurOut" result="blurOut2" type="matrix" values="0 0 0 0 0 0 0 0 0 0 0 0 0 0 0 0 0 0 .4 0"/><feOffset dx="5.0" dy="5.0" in="blurOut2" result="blurOut3"/><feBlend in="SourceGraphic" in2="blurOut3" mode="normal"/></filter></defs><g><!--MD5=[a2eef0b84d3b6c891bdcb3ede2b90dab]
cluster position--><polygon fill="#FFFFFF" filter="url(#f8vhruzhmf5n0)" points="20,7.5,98.75,7.5,107.5,37.0117,420,37.0117,420,285,20,285,20,7.5" style="stroke:#000000;stroke-width:1.875;"/><line style="stroke:#000000;stroke-width:1.875;" x1="20" x2="107.5" y1="37.0117" y2="37.0117"/><text fill="#000000" font-family="sans-serif" font-size="17.5" font-weight="bold" lengthAdjust="spacing" textLength="71.25" x="25" y="28.1665">position</text><!--MD5=[e5ee713e4f9d24c2536c36ee547ac3ea]
class position.c--><rect codeLine="3" fill="#FEFECE" filter="url(#f8vhruzhmf5n0)" height="60" id="position.c" style="stroke:#A80036;stroke-width:1.875;" width="47.5" x="196.25" y="52.5"/><ellipse cx="215" cy="72.5" fill="#ADD1B2" rx="13.75" ry="13.75" style="stroke:#A80036;stroke-width:1.25;"/><path d="M217.5,68.125 Q217.7539,67.5 218.0469,67.1875 Q218.3398,66.875 218.6719,66.875 Q219.2578,66.875 219.6289,67.2266 Q220,67.5781 220,68.3984 L220,70.3516 Q220,71.1719 219.6484,71.5234 Q219.2969,71.875 218.75,71.875 Q218.2617,71.875 217.9492,71.6602 Q217.6367,71.4453 217.5,70.8789 Q217.4414,70.4883 217.2266,70.2734 Q216.8359,69.8633 216.1328,69.6289 Q215.4297,69.375 214.7266,69.375 Q213.8477,69.375 213.1055,69.7266 Q212.3828,70.0781 211.8164,70.8594 Q211.25,71.6406 211.25,72.7148 L211.25,73.8672 Q211.25,75.1563 212.3047,76.0156 Q213.3594,76.875 215.2344,76.875 Q216.3477,76.875 217.1289,76.6211 Q217.5781,76.4844 218.0859,76.0352 Q218.418,75.7813 218.5938,75.7031 Q218.7695,75.625 218.9844,75.625 Q219.3945,75.625 219.6875,75.957 Q220,76.2695 220,76.7188 Q220,77.1484 219.5703,77.6563 Q218.9453,78.3984 217.9492,78.8086 Q216.6406,79.375 215.0391,79.375 Q213.1641,79.375 211.6602,78.6328 Q210.4492,78.0469 209.5898,76.7773 Q208.75,75.5078 208.75,74.0039 L208.75,72.6367 Q208.75,71.0742 209.4922,69.707 Q210.2539,68.3398 211.5625,67.6172 Q212.8906,66.875 214.375,66.875 Q215.2734,66.875 216.0547,67.1875 Q216.8359,67.5 217.5,68.125 Z " fill="#000000"/><text fill="#000000" font-family="sans-serif" font-size="15" lengthAdjust="spacing" textLength="7.5" x="232.5" y="78.6377">c</text><line style="stroke:#A80036;stroke-width:1.875;" x1="197.5" x2="242.5" y1="92.5" y2="92.5"/><line style="stroke:#A80036;stroke-width:1.875;" x1="197.5" x2="242.5" y1="102.5" y2="102.5"/><!--MD5=[ada9787215c8b0250ab7f7b65981001d]
class position.s--><rect codeLine="6" fill="#FEFECE" filter="url(#f8vhruzhmf5n0)" height="77.2949" id="position.s" style="stroke:#A80036;stroke-width:1.875;" width="360" x="40" y="187.5"/><ellipse cx="210.3125" cy="207.5" fill="#ADD1B2" rx="13.75" ry="13.75" style="stroke:#A80036;stroke-width:1.25;"/><path d="M212.8125,203.125 Q213.0664,202.5 213.3594,202.1875 Q213.6523,201.875 213.9844,201.875 Q214.5703,201.875 214.9414,202.2266 Q215.3125,202.5781 215.3125,203.3984 L215.3125,205.3516 Q215.3125,206.1719 214.9609,206.5234 Q214.6094,206.875 214.0625,206.875 Q213.5742,206.875 213.2617,206.6602 Q212.9492,206.4453 212.8125,205.8789 Q212.7539,205.4883 212.5391,205.2734 Q212.1484,204.8633 211.4453,204.6289 Q210.7422,204.375 210.0391,204.375 Q209.1602,204.375 208.418,204.7266 Q207.6953,205.0781 207.1289,205.8594 Q206.5625,206.6406 206.5625,207.7148 L206.5625,208.8672 Q206.5625,210.1563 207.6172,211.0156 Q208.6719,211.875 210.5469,211.875 Q211.6602,211.875 212.4414,211.6211 Q212.8906,211.4844 213.3984,211.0352 Q213.7305,210.7813 213.9063,210.7031 Q214.082,210.625 214.2969,210.625 Q214.707,210.625 215,210.957 Q215.3125,211.2695 215.3125,211.7188 Q215.3125,212.1484 214.8828,212.6563 Q214.2578,213.3984 213.2617,213.8086 Q211.9531,214.375 210.3516,214.375 Q208.4766,214.375 206.9727,213.6328 Q205.7617,213.0469 204.9023,211.7773 Q204.0625,210.5078 204.0625,209.0039 L204.0625,207.6367 Q204.0625,206.0742 204.8047,204.707 Q205.5664,203.3398 206.875,202.6172 Q208.2031,201.875 209.6875,201.875 Q210.5859,201.875 211.3672,202.1875 Q212.1484,202.5 212.8125,203.125 Z " fill="#000000"/><text fill="#000000" font-family="sans-serif" font-size="15" lengthAdjust="spacing" textLength="8.75" x="235.9375" y="213.6377">s</text><line style="stroke:#A80036;stroke-width:1.875;" x1="41.25" x2="398.75" y1="227.5" y2="227.5"/><line style="stroke:#A80036;stroke-width:1.875;" x1="41.25" x2="398.75" y1="237.5" y2="237.5"/><text fill="#000000" font-family="sans-serif" font-size="13.75" lengthAdjust="spacing" textLength="345" x="47.5" y="256.7737">+checkSlots(short x,short y,short z, int containers[][y][z])</text><!--MD5=[9be3749695574738042d06ed6e7637ea]
link position.c to position.s--><path codeLine="10" d="M220,112.675 C220,132.1375 220,158.1625 220,180.275 " fill="none" id="position.c-to-position.s" style="stroke:#A80036;stroke-width:1.25;stroke-dasharray:7.0,7.0;"/><polygon fill="#A80036" points="220,187,225,175.75,220,180.75,215,175.75,220,187" style="stroke:#A80036;stroke-width:1.25;"/><!--MD5=[f950f2d31d3439f3e930df8ae4964e32]
@startuml
skinparam classAttributeIconSize 0

class position.c{
}

class position.s {
+ checkSlots(short x,short y,short z, int containers[][y][z])
}

position.s <.up. position.c

@enduml

PlantUML version 1.2021.7(Sun May 23 13:40:07 BST 2021)
(GPL source distribution)
Java Runtime: OpenJDK Runtime Environment
JVM: OpenJDK 64-Bit Server VM
Default Encoding: Cp1252
Language: pt
Country: PT
--></g></svg>