<?xml version="1.0" encoding="UTF-8" standalone="no"?><svg xmlns="http://www.w3.org/2000/svg" xmlns:xlink="http://www.w3.org/1999/xlink" contentScriptType="application/ecmascript" contentStyleType="text/css" height="606.25px" preserveAspectRatio="none" style="width:622px;height:606px;background:#FFFFFF;" version="1.1" viewBox="0 0 622 606" width="622.5px" zoomAndPan="magnify"><defs><filter height="300%" id="f3yvs0l6z19ro" width="300%" x="-1" y="-1"><feGaussianBlur result="blurOut" stdDeviation="2.5"/><feColorMatrix in="blurOut" result="blurOut2" type="matrix" values="0 0 0 0 0 0 0 0 0 0 0 0 0 0 0 0 0 0 .4 0"/><feOffset dx="5.0" dy="5.0" in="blurOut2" result="blurOut3"/><feBlend in="SourceGraphic" in2="blurOut3" mode="normal"/></filter></defs><g><!--MD5=[f748433f298c3d9b4fad2a10ff48a2c0]
class LoadingMapUI--><rect codeLine="3" fill="#FEFECE" filter="url(#f3yvs0l6z19ro)" height="60" id="LoadingMapUI" style="stroke:#A80036;stroke-width:1.875;" width="140" x="128.125" y="8.75"/><ellipse cx="146.875" cy="28.75" fill="#ADD1B2" rx="13.75" ry="13.75" style="stroke:#A80036;stroke-width:1.25;"/><path d="M149.375,24.375 Q149.6289,23.75 149.9219,23.4375 Q150.2148,23.125 150.5469,23.125 Q151.1328,23.125 151.5039,23.4766 Q151.875,23.8281 151.875,24.6484 L151.875,26.6016 Q151.875,27.4219 151.5234,27.7734 Q151.1719,28.125 150.625,28.125 Q150.1367,28.125 149.8242,27.9102 Q149.5117,27.6953 149.375,27.1289 Q149.3164,26.7383 149.1016,26.5234 Q148.7109,26.1133 148.0078,25.8789 Q147.3047,25.625 146.6016,25.625 Q145.7227,25.625 144.9805,25.9766 Q144.2578,26.3281 143.6914,27.1094 Q143.125,27.8906 143.125,28.9648 L143.125,30.1172 Q143.125,31.4063 144.1797,32.2656 Q145.2344,33.125 147.1094,33.125 Q148.2227,33.125 149.0039,32.8711 Q149.4531,32.7344 149.9609,32.2852 Q150.293,32.0313 150.4688,31.9531 Q150.6445,31.875 150.8594,31.875 Q151.2695,31.875 151.5625,32.207 Q151.875,32.5195 151.875,32.9688 Q151.875,33.3984 151.4453,33.9063 Q150.8203,34.6484 149.8242,35.0586 Q148.5156,35.625 146.9141,35.625 Q145.0391,35.625 143.5352,34.8828 Q142.3242,34.2969 141.4648,33.0273 Q140.625,31.7578 140.625,30.2539 L140.625,28.8867 Q140.625,27.3242 141.3672,25.957 Q142.1289,24.5898 143.4375,23.8672 Q144.7656,23.125 146.25,23.125 Q147.1484,23.125 147.9297,23.4375 Q148.7109,23.75 149.375,24.375 Z " fill="#000000"/><text fill="#000000" font-family="sans-serif" font-size="15" lengthAdjust="spacing" textLength="100" x="164.375" y="34.8877">LoadingMapUI</text><line style="stroke:#A80036;stroke-width:1.875;" x1="129.375" x2="266.875" y1="48.75" y2="48.75"/><line style="stroke:#A80036;stroke-width:1.875;" x1="129.375" x2="266.875" y1="58.75" y2="58.75"/><!--MD5=[b876ef1f37e0d8b9b6a40127fe5975bb]
class ShipOccupancyController--><rect codeLine="6" fill="#FEFECE" filter="url(#f3yvs0l6z19ro)" height="77.2949" id="ShipOccupancyController" style="stroke:#A80036;stroke-width:1.875;" width="213.75" x="91.25" y="145"/><ellipse cx="110" cy="165" fill="#ADD1B2" rx="13.75" ry="13.75" style="stroke:#A80036;stroke-width:1.25;"/><path d="M112.5,160.625 Q112.7539,160 113.0469,159.6875 Q113.3398,159.375 113.6719,159.375 Q114.2578,159.375 114.6289,159.7266 Q115,160.0781 115,160.8984 L115,162.8516 Q115,163.6719 114.6484,164.0234 Q114.2969,164.375 113.75,164.375 Q113.2617,164.375 112.9492,164.1602 Q112.6367,163.9453 112.5,163.3789 Q112.4414,162.9883 112.2266,162.7734 Q111.8359,162.3633 111.1328,162.1289 Q110.4297,161.875 109.7266,161.875 Q108.8477,161.875 108.1055,162.2266 Q107.3828,162.5781 106.8164,163.3594 Q106.25,164.1406 106.25,165.2148 L106.25,166.3672 Q106.25,167.6563 107.3047,168.5156 Q108.3594,169.375 110.2344,169.375 Q111.3477,169.375 112.1289,169.1211 Q112.5781,168.9844 113.0859,168.5352 Q113.418,168.2813 113.5938,168.2031 Q113.7695,168.125 113.9844,168.125 Q114.3945,168.125 114.6875,168.457 Q115,168.7695 115,169.2188 Q115,169.6484 114.5703,170.1563 Q113.9453,170.8984 112.9492,171.3086 Q111.6406,171.875 110.0391,171.875 Q108.1641,171.875 106.6602,171.1328 Q105.4492,170.5469 104.5898,169.2773 Q103.75,168.0078 103.75,166.5039 L103.75,165.1367 Q103.75,163.5742 104.4922,162.207 Q105.2539,160.8398 106.5625,160.1172 Q107.8906,159.375 109.375,159.375 Q110.2734,159.375 111.0547,159.6875 Q111.8359,160 112.5,160.625 Z " fill="#000000"/><text fill="#000000" font-family="sans-serif" font-size="15" lengthAdjust="spacing" textLength="173.75" x="127.5" y="171.1377">ShipOccupancyController</text><line style="stroke:#A80036;stroke-width:1.875;" x1="92.5" x2="303.75" y1="185" y2="185"/><line style="stroke:#A80036;stroke-width:1.875;" x1="92.5" x2="303.75" y1="195" y2="195"/><text fill="#000000" font-family="sans-serif" font-size="13.75" lengthAdjust="spacing" textLength="108.75" x="98.75" y="214.2737">+getLoadingMap()</text><!--MD5=[0b8a0869bb17c5d05015d74abb8e1141]
class ConnectionFactory--><rect codeLine="10" fill="#FEFECE" filter="url(#f3yvs0l6z19ro)" height="94.5898" id="ConnectionFactory" style="stroke:#A80036;stroke-width:1.875;" width="176.25" x="8.75" y="320"/><ellipse cx="31.4375" cy="340" fill="#ADD1B2" rx="13.75" ry="13.75" style="stroke:#A80036;stroke-width:1.25;"/><path d="M33.9375,335.625 Q34.1914,335 34.4844,334.6875 Q34.7773,334.375 35.1094,334.375 Q35.6953,334.375 36.0664,334.7266 Q36.4375,335.0781 36.4375,335.8984 L36.4375,337.8516 Q36.4375,338.6719 36.0859,339.0234 Q35.7344,339.375 35.1875,339.375 Q34.6992,339.375 34.3867,339.1602 Q34.0742,338.9453 33.9375,338.3789 Q33.8789,337.9883 33.6641,337.7734 Q33.2734,337.3633 32.5703,337.1289 Q31.8672,336.875 31.1641,336.875 Q30.2852,336.875 29.543,337.2266 Q28.8203,337.5781 28.2539,338.3594 Q27.6875,339.1406 27.6875,340.2148 L27.6875,341.3672 Q27.6875,342.6563 28.7422,343.5156 Q29.7969,344.375 31.6719,344.375 Q32.7852,344.375 33.5664,344.1211 Q34.0156,343.9844 34.5234,343.5352 Q34.8555,343.2813 35.0313,343.2031 Q35.207,343.125 35.4219,343.125 Q35.832,343.125 36.125,343.457 Q36.4375,343.7695 36.4375,344.2188 Q36.4375,344.6484 36.0078,345.1563 Q35.3828,345.8984 34.3867,346.3086 Q33.0781,346.875 31.4766,346.875 Q29.6016,346.875 28.0977,346.1328 Q26.8867,345.5469 26.0273,344.2773 Q25.1875,343.0078 25.1875,341.5039 L25.1875,340.1367 Q25.1875,338.5742 25.9297,337.207 Q26.6914,335.8398 28,335.1172 Q29.3281,334.375 30.8125,334.375 Q31.7109,334.375 32.4922,334.6875 Q33.2734,335 33.9375,335.625 Z " fill="#000000"/><text fill="#000000" font-family="sans-serif" font-size="15" lengthAdjust="spacing" textLength="127.5" x="49.8125" y="346.1377">ConnectionFactory</text><line style="stroke:#A80036;stroke-width:1.875;" x1="10" x2="183.75" y1="360" y2="360"/><line style="stroke:#A80036;stroke-width:1.875;" x1="10" x2="183.75" y1="370" y2="370"/><text fill="#000000" font-family="sans-serif" font-size="13.75" lengthAdjust="spacing" textLength="87.5" x="16.25" y="389.2737">+getInstance()</text><text fill="#000000" font-family="sans-serif" font-size="13.75" lengthAdjust="spacing" textLength="161.25" x="16.25" y="406.5686">+getDatabaseConnection()</text><!--MD5=[4ebfed50a2843d6810d5f28a3ed1348c]
class CargoManifestStore--><rect codeLine="15" fill="#FEFECE" filter="url(#f3yvs0l6z19ro)" height="77.2949" id="CargoManifestStore" style="stroke:#A80036;stroke-width:1.875;" width="376.25" x="228.75" y="328.75"/><ellipse cx="343.4375" cy="348.75" fill="#ADD1B2" rx="13.75" ry="13.75" style="stroke:#A80036;stroke-width:1.25;"/><path d="M345.9375,344.375 Q346.1914,343.75 346.4844,343.4375 Q346.7773,343.125 347.1094,343.125 Q347.6953,343.125 348.0664,343.4766 Q348.4375,343.8281 348.4375,344.6484 L348.4375,346.6016 Q348.4375,347.4219 348.0859,347.7734 Q347.7344,348.125 347.1875,348.125 Q346.6992,348.125 346.3867,347.9102 Q346.0742,347.6953 345.9375,347.1289 Q345.8789,346.7383 345.6641,346.5234 Q345.2734,346.1133 344.5703,345.8789 Q343.8672,345.625 343.1641,345.625 Q342.2852,345.625 341.543,345.9766 Q340.8203,346.3281 340.2539,347.1094 Q339.6875,347.8906 339.6875,348.9648 L339.6875,350.1172 Q339.6875,351.4063 340.7422,352.2656 Q341.7969,353.125 343.6719,353.125 Q344.7852,353.125 345.5664,352.8711 Q346.0156,352.7344 346.5234,352.2852 Q346.8555,352.0313 347.0313,351.9531 Q347.207,351.875 347.4219,351.875 Q347.832,351.875 348.125,352.207 Q348.4375,352.5195 348.4375,352.9688 Q348.4375,353.3984 348.0078,353.9063 Q347.3828,354.6484 346.3867,355.0586 Q345.0781,355.625 343.4766,355.625 Q341.6016,355.625 340.0977,354.8828 Q338.8867,354.2969 338.0273,353.0273 Q337.1875,351.7578 337.1875,350.2539 L337.1875,348.8867 Q337.1875,347.3242 337.9297,345.957 Q338.6914,344.5898 340,343.8672 Q341.3281,343.125 342.8125,343.125 Q343.7109,343.125 344.4922,343.4375 Q345.2734,343.75 345.9375,344.375 Z " fill="#000000"/><text fill="#000000" font-family="sans-serif" font-size="15" lengthAdjust="spacing" textLength="136.25" x="369.0625" y="354.8877">CargoManifestStore</text><line style="stroke:#A80036;stroke-width:1.875;" x1="230" x2="603.75" y1="368.75" y2="368.75"/><line style="stroke:#A80036;stroke-width:1.875;" x1="230" x2="603.75" y1="378.75" y2="378.75"/><text fill="#000000" font-family="sans-serif" font-size="13.75" lengthAdjust="spacing" textLength="361.25" x="236.25" y="398.0237">+getLoadingMap(DatabaseConnection databaseConnection)</text><!--MD5=[8aa441cdd93a4e2944eff58bc06cd78a]
class DatabaseConnection--><rect codeLine="19" fill="#FEFECE" filter="url(#f3yvs0l6z19ro)" height="77.2949" id="DatabaseConnection" style="stroke:#A80036;stroke-width:1.875;" width="186.25" x="323.75" y="512.5"/><ellipse cx="342.5" cy="532.5" fill="#ADD1B2" rx="13.75" ry="13.75" style="stroke:#A80036;stroke-width:1.25;"/><path d="M345,528.125 Q345.2539,527.5 345.5469,527.1875 Q345.8398,526.875 346.1719,526.875 Q346.7578,526.875 347.1289,527.2266 Q347.5,527.5781 347.5,528.3984 L347.5,530.3516 Q347.5,531.1719 347.1484,531.5234 Q346.7969,531.875 346.25,531.875 Q345.7617,531.875 345.4492,531.6602 Q345.1367,531.4453 345,530.8789 Q344.9414,530.4883 344.7266,530.2734 Q344.3359,529.8633 343.6328,529.6289 Q342.9297,529.375 342.2266,529.375 Q341.3477,529.375 340.6055,529.7266 Q339.8828,530.0781 339.3164,530.8594 Q338.75,531.6406 338.75,532.7148 L338.75,533.8672 Q338.75,535.1563 339.8047,536.0156 Q340.8594,536.875 342.7344,536.875 Q343.8477,536.875 344.6289,536.6211 Q345.0781,536.4844 345.5859,536.0352 Q345.918,535.7813 346.0938,535.7031 Q346.2695,535.625 346.4844,535.625 Q346.8945,535.625 347.1875,535.957 Q347.5,536.2695 347.5,536.7188 Q347.5,537.1484 347.0703,537.6563 Q346.4453,538.3984 345.4492,538.8086 Q344.1406,539.375 342.5391,539.375 Q340.6641,539.375 339.1602,538.6328 Q337.9492,538.0469 337.0898,536.7773 Q336.25,535.5078 336.25,534.0039 L336.25,532.6367 Q336.25,531.0742 336.9922,529.707 Q337.7539,528.3398 339.0625,527.6172 Q340.3906,526.875 341.875,526.875 Q342.7734,526.875 343.5547,527.1875 Q344.3359,527.5 345,528.125 Z " fill="#000000"/><text fill="#000000" font-family="sans-serif" font-size="15" lengthAdjust="spacing" textLength="146.25" x="360" y="538.6377">DatabaseConnection</text><line style="stroke:#A80036;stroke-width:1.875;" x1="325" x2="508.75" y1="552.5" y2="552.5"/><line style="stroke:#A80036;stroke-width:1.875;" x1="325" x2="508.75" y1="562.5" y2="562.5"/><text fill="#000000" font-family="sans-serif" font-size="13.75" lengthAdjust="spacing" textLength="103.75" x="331.25" y="581.7737">+getConnection()</text><!--MD5=[975da80f5e3bea619e71d6fc366f372c]
link LoadingMapUI to ShipOccupancyController--><path codeLine="23" d="M198.125,68.8375 C198.125,88.7625 198.125,115.6375 198.125,138.25 " fill="none" id="LoadingMapUI-to-ShipOccupancyController" style="stroke:#A80036;stroke-width:1.25;stroke-dasharray:7.0,7.0;"/><polygon fill="#A80036" points="198.125,144.5125,203.125,133.2625,198.125,138.2625,193.125,133.2625,198.125,144.5125" style="stroke:#A80036;stroke-width:1.25;"/><!--MD5=[db3ede84a5da24a8a10015c57a5e0170]
link ShipOccupancyController to ConnectionFactory--><path codeLine="24" d="M177.15,222.55 C162.375,249 142.4125,284.7375 126.075,313.9625 " fill="none" id="ShipOccupancyController-to-ConnectionFactory" style="stroke:#A80036;stroke-width:1.25;"/><polygon fill="#A80036" points="122.8625,319.725,132.6968,312.3189,125.8978,314.2615,123.9552,307.4625,122.8625,319.725" style="stroke:#A80036;stroke-width:1.25;"/><text fill="#000000" font-family="sans-serif" font-size="16.25" lengthAdjust="spacing" textLength="35" x="154.375" y="278.1189">uses</text><text fill="#000000" font-family="sans-serif" font-size="16.25" lengthAdjust="spacing" textLength="8.75" x="163.4092" y="249.0898">1</text><text fill="#000000" font-family="sans-serif" font-size="16.25" lengthAdjust="spacing" textLength="25" x="100.265" y="306.3784">1..*</text><!--MD5=[4ce7c33a460dca2f82d701c7d6ea0b75]
link ShipOccupancyController to CargoManifestStore--><path codeLine="25" d="M243.45,222.55 C279.375,252.325 329.55,293.8875 366.6875,324.6625 " fill="none" id="ShipOccupancyController-to-CargoManifestStore" style="stroke:#A80036;stroke-width:1.25;"/><polygon fill="#A80036" points="371.6125,328.7375,366.1426,317.7083,366.8009,324.7487,359.7605,325.4069,371.6125,328.7375" style="stroke:#A80036;stroke-width:1.25;"/><text fill="#000000" font-family="sans-serif" font-size="16.25" lengthAdjust="spacing" textLength="35" x="314.375" y="278.1189">uses</text><text fill="#000000" font-family="sans-serif" font-size="16.25" lengthAdjust="spacing" textLength="8.75" x="242.762" y="249.0898">1</text><text fill="#000000" font-family="sans-serif" font-size="16.25" lengthAdjust="spacing" textLength="8.75" x="352.0043" y="315.0101">1</text><!--MD5=[2116ab72117c1937cd431dde115995d9]
link CargoManifestStore to DatabaseConnection--><path codeLine="26" d="M416.875,406.3 C416.875,435.35 416.875,475.6125 416.875,506.1375 " fill="none" id="CargoManifestStore-to-DatabaseConnection" style="stroke:#A80036;stroke-width:1.25;"/><polygon fill="#A80036" points="416.875,512.4875,421.875,501.2375,416.875,506.2375,411.875,501.2375,416.875,512.4875" style="stroke:#A80036;stroke-width:1.25;"/><text fill="#000000" font-family="sans-serif" font-size="16.25" lengthAdjust="spacing" textLength="35" x="418.125" y="470.6189">uses</text><text fill="#000000" font-family="sans-serif" font-size="16.25" lengthAdjust="spacing" textLength="8.75" x="407.2637" y="432.8398">1</text><text fill="#000000" font-family="sans-serif" font-size="16.25" lengthAdjust="spacing" textLength="25" x="389.1406" y="498.7601">1..*</text><!--MD5=[330b3f2a29da366b8af2e371faa9fce7]
@startuml
skinparam classAttributeIconSize 0

class LoadingMapUI{
}

class ShipOccupancyController {
+ getLoadingMap()
}

class ConnectionFactory {
+ getInstance()
+ getDatabaseConnection()
}

class CargoManifestStore {
+ getLoadingMap(DatabaseConnection databaseConnection)
}

class DatabaseConnection {
+ getConnection()
}

ShipOccupancyController <.up. LoadingMapUI
ShipOccupancyController "1" - -> "1..*" ConnectionFactory : uses
ShipOccupancyController "1" - -> "1" CargoManifestStore : uses
CargoManifestStore "1" - -> "1..*" DatabaseConnection : uses



@enduml

PlantUML version 1.2021.7(Sun May 23 13:40:07 BST 2021)
(GPL source distribution)
Java Runtime: OpenJDK Runtime Environment
JVM: OpenJDK 64-Bit Server VM
Default Encoding: Cp1252
Language: pt
Country: PT
--></g></svg>