<?xml version="1.0" encoding="UTF-8" standalone="no"?><svg xmlns="http://www.w3.org/2000/svg" xmlns:xlink="http://www.w3.org/1999/xlink" contentScriptType="application/ecmascript" contentStyleType="text/css" height="606.25px" preserveAspectRatio="none" style="width:757px;height:606px;background:#FFFFFF;" version="1.1" viewBox="0 0 757 606" width="757.5px" zoomAndPan="magnify"><defs><filter height="300%" id="f1j5ody1l191uc" width="300%" x="-1" y="-1"><feGaussianBlur result="blurOut" stdDeviation="2.5"/><feColorMatrix in="blurOut" result="blurOut2" type="matrix" values="0 0 0 0 0 0 0 0 0 0 0 0 0 0 0 0 0 0 .4 0"/><feOffset dx="5.0" dy="5.0" in="blurOut2" result="blurOut3"/><feBlend in="SourceGraphic" in2="blurOut3" mode="normal"/></filter></defs><g><!--MD5=[97bce4bfbfec19f12d82207de57a2835]
class WareHouseUI--><rect codeLine="3" fill="#FEFECE" filter="url(#f1j5ody1l191uc)" height="60" id="WareHouseUI" style="stroke:#A80036;stroke-width:1.875;" width="137.5" x="146.875" y="8.75"/><ellipse cx="165.625" cy="28.75" fill="#ADD1B2" rx="13.75" ry="13.75" style="stroke:#A80036;stroke-width:1.25;"/><path d="M168.125,24.375 Q168.3789,23.75 168.6719,23.4375 Q168.9648,23.125 169.2969,23.125 Q169.8828,23.125 170.2539,23.4766 Q170.625,23.8281 170.625,24.6484 L170.625,26.6016 Q170.625,27.4219 170.2734,27.7734 Q169.9219,28.125 169.375,28.125 Q168.8867,28.125 168.5742,27.9102 Q168.2617,27.6953 168.125,27.1289 Q168.0664,26.7383 167.8516,26.5234 Q167.4609,26.1133 166.7578,25.8789 Q166.0547,25.625 165.3516,25.625 Q164.4727,25.625 163.7305,25.9766 Q163.0078,26.3281 162.4414,27.1094 Q161.875,27.8906 161.875,28.9648 L161.875,30.1172 Q161.875,31.4063 162.9297,32.2656 Q163.9844,33.125 165.8594,33.125 Q166.9727,33.125 167.7539,32.8711 Q168.2031,32.7344 168.7109,32.2852 Q169.043,32.0313 169.2188,31.9531 Q169.3945,31.875 169.6094,31.875 Q170.0195,31.875 170.3125,32.207 Q170.625,32.5195 170.625,32.9688 Q170.625,33.3984 170.1953,33.9063 Q169.5703,34.6484 168.5742,35.0586 Q167.2656,35.625 165.6641,35.625 Q163.7891,35.625 162.2852,34.8828 Q161.0742,34.2969 160.2148,33.0273 Q159.375,31.7578 159.375,30.2539 L159.375,28.8867 Q159.375,27.3242 160.1172,25.957 Q160.8789,24.5898 162.1875,23.8672 Q163.5156,23.125 165,23.125 Q165.8984,23.125 166.6797,23.4375 Q167.4609,23.75 168.125,24.375 Z " fill="#000000"/><text fill="#000000" font-family="sans-serif" font-size="15" lengthAdjust="spacing" textLength="97.5" x="183.125" y="34.8877">WareHouseUI</text><line style="stroke:#A80036;stroke-width:1.875;" x1="148.125" x2="283.125" y1="48.75" y2="48.75"/><line style="stroke:#A80036;stroke-width:1.875;" x1="148.125" x2="283.125" y1="58.75" y2="58.75"/><!--MD5=[ff819031fef7535416fa9fe4c21efb3a]
class WareHouseController--><rect codeLine="6" fill="#FEFECE" filter="url(#f1j5ody1l191uc)" height="77.2949" id="WareHouseController" style="stroke:#A80036;stroke-width:1.875;" width="251.25" x="90" y="145"/><ellipse cx="136.3125" cy="165" fill="#ADD1B2" rx="13.75" ry="13.75" style="stroke:#A80036;stroke-width:1.25;"/><path d="M138.8125,160.625 Q139.0664,160 139.3594,159.6875 Q139.6523,159.375 139.9844,159.375 Q140.5703,159.375 140.9414,159.7266 Q141.3125,160.0781 141.3125,160.8984 L141.3125,162.8516 Q141.3125,163.6719 140.9609,164.0234 Q140.6094,164.375 140.0625,164.375 Q139.5742,164.375 139.2617,164.1602 Q138.9492,163.9453 138.8125,163.3789 Q138.7539,162.9883 138.5391,162.7734 Q138.1484,162.3633 137.4453,162.1289 Q136.7422,161.875 136.0391,161.875 Q135.1602,161.875 134.418,162.2266 Q133.6953,162.5781 133.1289,163.3594 Q132.5625,164.1406 132.5625,165.2148 L132.5625,166.3672 Q132.5625,167.6563 133.6172,168.5156 Q134.6719,169.375 136.5469,169.375 Q137.6602,169.375 138.4414,169.1211 Q138.8906,168.9844 139.3984,168.5352 Q139.7305,168.2813 139.9063,168.2031 Q140.082,168.125 140.2969,168.125 Q140.707,168.125 141,168.457 Q141.3125,168.7695 141.3125,169.2188 Q141.3125,169.6484 140.8828,170.1563 Q140.2578,170.8984 139.2617,171.3086 Q137.9531,171.875 136.3516,171.875 Q134.4766,171.875 132.9727,171.1328 Q131.7617,170.5469 130.9023,169.2773 Q130.0625,168.0078 130.0625,166.5039 L130.0625,165.1367 Q130.0625,163.5742 130.8047,162.207 Q131.5664,160.8398 132.875,160.1172 Q134.2031,159.375 135.6875,159.375 Q136.5859,159.375 137.3672,159.6875 Q138.1484,160 138.8125,160.625 Z " fill="#000000"/><text fill="#000000" font-family="sans-serif" font-size="15" lengthAdjust="spacing" textLength="150" x="159.9375" y="171.1377">WareHouseController</text><line style="stroke:#A80036;stroke-width:1.875;" x1="91.25" x2="340" y1="185" y2="185"/><line style="stroke:#A80036;stroke-width:1.875;" x1="91.25" x2="340" y1="195" y2="195"/><text fill="#000000" font-family="sans-serif" font-size="13.75" lengthAdjust="spacing" textLength="236.25" x="97.5" y="214.2737">+getResourceList(int portId, String day)</text><!--MD5=[0b8a0869bb17c5d05015d74abb8e1141]
class ConnectionFactory--><rect codeLine="10" fill="#FEFECE" filter="url(#f1j5ody1l191uc)" height="94.5898" id="ConnectionFactory" style="stroke:#A80036;stroke-width:1.875;" width="176.25" x="8.75" y="320"/><ellipse cx="31.4375" cy="340" fill="#ADD1B2" rx="13.75" ry="13.75" style="stroke:#A80036;stroke-width:1.25;"/><path d="M33.9375,335.625 Q34.1914,335 34.4844,334.6875 Q34.7773,334.375 35.1094,334.375 Q35.6953,334.375 36.0664,334.7266 Q36.4375,335.0781 36.4375,335.8984 L36.4375,337.8516 Q36.4375,338.6719 36.0859,339.0234 Q35.7344,339.375 35.1875,339.375 Q34.6992,339.375 34.3867,339.1602 Q34.0742,338.9453 33.9375,338.3789 Q33.8789,337.9883 33.6641,337.7734 Q33.2734,337.3633 32.5703,337.1289 Q31.8672,336.875 31.1641,336.875 Q30.2852,336.875 29.543,337.2266 Q28.8203,337.5781 28.2539,338.3594 Q27.6875,339.1406 27.6875,340.2148 L27.6875,341.3672 Q27.6875,342.6563 28.7422,343.5156 Q29.7969,344.375 31.6719,344.375 Q32.7852,344.375 33.5664,344.1211 Q34.0156,343.9844 34.5234,343.5352 Q34.8555,343.2813 35.0313,343.2031 Q35.207,343.125 35.4219,343.125 Q35.832,343.125 36.125,343.457 Q36.4375,343.7695 36.4375,344.2188 Q36.4375,344.6484 36.0078,345.1563 Q35.3828,345.8984 34.3867,346.3086 Q33.0781,346.875 31.4766,346.875 Q29.6016,346.875 28.0977,346.1328 Q26.8867,345.5469 26.0273,344.2773 Q25.1875,343.0078 25.1875,341.5039 L25.1875,340.1367 Q25.1875,338.5742 25.9297,337.207 Q26.6914,335.8398 28,335.1172 Q29.3281,334.375 30.8125,334.375 Q31.7109,334.375 32.4922,334.6875 Q33.2734,335 33.9375,335.625 Z " fill="#000000"/><text fill="#000000" font-family="sans-serif" font-size="15" lengthAdjust="spacing" textLength="127.5" x="49.8125" y="346.1377">ConnectionFactory</text><line style="stroke:#A80036;stroke-width:1.875;" x1="10" x2="183.75" y1="360" y2="360"/><line style="stroke:#A80036;stroke-width:1.875;" x1="10" x2="183.75" y1="370" y2="370"/><text fill="#000000" font-family="sans-serif" font-size="13.75" lengthAdjust="spacing" textLength="87.5" x="16.25" y="389.2737">+getInstance()</text><text fill="#000000" font-family="sans-serif" font-size="13.75" lengthAdjust="spacing" textLength="161.25" x="16.25" y="406.5686">+getDatabaseConnection()</text><!--MD5=[4ebfed50a2843d6810d5f28a3ed1348c]
class CargoManifestStore--><rect codeLine="15" fill="#FEFECE" filter="url(#f1j5ody1l191uc)" height="77.2949" id="CargoManifestStore" style="stroke:#A80036;stroke-width:1.875;" width="511.25" x="228.75" y="328.75"/><ellipse cx="410.9375" cy="348.75" fill="#ADD1B2" rx="13.75" ry="13.75" style="stroke:#A80036;stroke-width:1.25;"/><path d="M413.4375,344.375 Q413.6914,343.75 413.9844,343.4375 Q414.2773,343.125 414.6094,343.125 Q415.1953,343.125 415.5664,343.4766 Q415.9375,343.8281 415.9375,344.6484 L415.9375,346.6016 Q415.9375,347.4219 415.5859,347.7734 Q415.2344,348.125 414.6875,348.125 Q414.1992,348.125 413.8867,347.9102 Q413.5742,347.6953 413.4375,347.1289 Q413.3789,346.7383 413.1641,346.5234 Q412.7734,346.1133 412.0703,345.8789 Q411.3672,345.625 410.6641,345.625 Q409.7852,345.625 409.043,345.9766 Q408.3203,346.3281 407.7539,347.1094 Q407.1875,347.8906 407.1875,348.9648 L407.1875,350.1172 Q407.1875,351.4063 408.2422,352.2656 Q409.2969,353.125 411.1719,353.125 Q412.2852,353.125 413.0664,352.8711 Q413.5156,352.7344 414.0234,352.2852 Q414.3555,352.0313 414.5313,351.9531 Q414.707,351.875 414.9219,351.875 Q415.332,351.875 415.625,352.207 Q415.9375,352.5195 415.9375,352.9688 Q415.9375,353.3984 415.5078,353.9063 Q414.8828,354.6484 413.8867,355.0586 Q412.5781,355.625 410.9766,355.625 Q409.1016,355.625 407.5977,354.8828 Q406.3867,354.2969 405.5273,353.0273 Q404.6875,351.7578 404.6875,350.2539 L404.6875,348.8867 Q404.6875,347.3242 405.4297,345.957 Q406.1914,344.5898 407.5,343.8672 Q408.8281,343.125 410.3125,343.125 Q411.2109,343.125 411.9922,343.4375 Q412.7734,343.75 413.4375,344.375 Z " fill="#000000"/><text fill="#000000" font-family="sans-serif" font-size="15" lengthAdjust="spacing" textLength="136.25" x="436.5625" y="354.8877">CargoManifestStore</text><line style="stroke:#A80036;stroke-width:1.875;" x1="230" x2="738.75" y1="368.75" y2="368.75"/><line style="stroke:#A80036;stroke-width:1.875;" x1="230" x2="738.75" y1="378.75" y2="378.75"/><text fill="#000000" font-family="sans-serif" font-size="13.75" lengthAdjust="spacing" textLength="496.25" x="236.25" y="398.0237">+getResourceList(DatabaseConnection databaseConnection, int portId, String day)</text><!--MD5=[8aa441cdd93a4e2944eff58bc06cd78a]
class DatabaseConnection--><rect codeLine="19" fill="#FEFECE" filter="url(#f1j5ody1l191uc)" height="77.2949" id="DatabaseConnection" style="stroke:#A80036;stroke-width:1.875;" width="186.25" x="391.25" y="512.5"/><ellipse cx="410" cy="532.5" fill="#ADD1B2" rx="13.75" ry="13.75" style="stroke:#A80036;stroke-width:1.25;"/><path d="M412.5,528.125 Q412.7539,527.5 413.0469,527.1875 Q413.3398,526.875 413.6719,526.875 Q414.2578,526.875 414.6289,527.2266 Q415,527.5781 415,528.3984 L415,530.3516 Q415,531.1719 414.6484,531.5234 Q414.2969,531.875 413.75,531.875 Q413.2617,531.875 412.9492,531.6602 Q412.6367,531.4453 412.5,530.8789 Q412.4414,530.4883 412.2266,530.2734 Q411.8359,529.8633 411.1328,529.6289 Q410.4297,529.375 409.7266,529.375 Q408.8477,529.375 408.1055,529.7266 Q407.3828,530.0781 406.8164,530.8594 Q406.25,531.6406 406.25,532.7148 L406.25,533.8672 Q406.25,535.1563 407.3047,536.0156 Q408.3594,536.875 410.2344,536.875 Q411.3477,536.875 412.1289,536.6211 Q412.5781,536.4844 413.0859,536.0352 Q413.418,535.7813 413.5938,535.7031 Q413.7695,535.625 413.9844,535.625 Q414.3945,535.625 414.6875,535.957 Q415,536.2695 415,536.7188 Q415,537.1484 414.5703,537.6563 Q413.9453,538.3984 412.9492,538.8086 Q411.6406,539.375 410.0391,539.375 Q408.1641,539.375 406.6602,538.6328 Q405.4492,538.0469 404.5898,536.7773 Q403.75,535.5078 403.75,534.0039 L403.75,532.6367 Q403.75,531.0742 404.4922,529.707 Q405.2539,528.3398 406.5625,527.6172 Q407.8906,526.875 409.375,526.875 Q410.2734,526.875 411.0547,527.1875 Q411.8359,527.5 412.5,528.125 Z " fill="#000000"/><text fill="#000000" font-family="sans-serif" font-size="15" lengthAdjust="spacing" textLength="146.25" x="427.5" y="538.6377">DatabaseConnection</text><line style="stroke:#A80036;stroke-width:1.875;" x1="392.5" x2="576.25" y1="552.5" y2="552.5"/><line style="stroke:#A80036;stroke-width:1.875;" x1="392.5" x2="576.25" y1="562.5" y2="562.5"/><text fill="#000000" font-family="sans-serif" font-size="13.75" lengthAdjust="spacing" textLength="103.75" x="398.75" y="581.7737">+getConnection()</text><!--MD5=[08db2ceb8dd68bc0c2a1c1898a318e9d]
link WareHouseUI to WareHouseController--><path codeLine="23" d="M215.625,68.8375 C215.625,88.7625 215.625,115.6375 215.625,138.25 " fill="none" id="WareHouseUI-to-WareHouseController" style="stroke:#A80036;stroke-width:1.25;stroke-dasharray:7.0,7.0;"/><polygon fill="#A80036" points="215.625,144.5125,220.625,133.2625,215.625,138.2625,210.625,133.2625,215.625,144.5125" style="stroke:#A80036;stroke-width:1.25;"/><!--MD5=[e4341816d8bebe575d23d31b5a417abb]
link WareHouseController to ConnectionFactory--><path codeLine="24" d="M191.025,222.55 C173.625,249.1 150.075,285.0375 130.8875,314.3375 " fill="none" id="WareHouseController-to-ConnectionFactory" style="stroke:#A80036;stroke-width:1.25;"/><polygon fill="#A80036" points="127.3625,319.725,137.6947,313.0311,130.7756,314.4892,129.3174,307.5701,127.3625,319.725" style="stroke:#A80036;stroke-width:1.25;"/><text fill="#000000" font-family="sans-serif" font-size="16.25" lengthAdjust="spacing" textLength="35" x="164.375" y="278.1189">uses</text><text fill="#000000" font-family="sans-serif" font-size="16.25" lengthAdjust="spacing" textLength="8.75" x="176.5705" y="249.0898">1</text><text fill="#000000" font-family="sans-serif" font-size="16.25" lengthAdjust="spacing" textLength="25" x="105.5665" y="306.3784">1..*</text><!--MD5=[b6ac15e4a945fc199be0d6302bd0dc5a]
link WareHouseController to CargoManifestStore--><path codeLine="25" d="M271.3125,222.55 C315.6375,252.45 377.5875,294.2375 423.275,325.0375 " fill="none" id="WareHouseController-to-CargoManifestStore" style="stroke:#A80036;stroke-width:1.25;"/><polygon fill="#A80036" points="428.7625,328.7375,422.2168,318.3108,423.576,325.25,416.6368,326.6092,428.7625,328.7375" style="stroke:#A80036;stroke-width:1.25;"/><text fill="#000000" font-family="sans-serif" font-size="16.25" lengthAdjust="spacing" textLength="35" x="358.125" y="278.1189">uses</text><text fill="#000000" font-family="sans-serif" font-size="16.25" lengthAdjust="spacing" textLength="8.75" x="272.6646" y="249.0898">1</text><text fill="#000000" font-family="sans-serif" font-size="16.25" lengthAdjust="spacing" textLength="8.75" x="406.8902" y="315.0101">1</text><!--MD5=[2116ab72117c1937cd431dde115995d9]
link CargoManifestStore to DatabaseConnection--><path codeLine="26" d="M484.375,406.3 C484.375,435.35 484.375,475.6125 484.375,506.1375 " fill="none" id="CargoManifestStore-to-DatabaseConnection" style="stroke:#A80036;stroke-width:1.25;"/><polygon fill="#A80036" points="484.375,512.4875,489.375,501.2375,484.375,506.2375,479.375,501.2375,484.375,512.4875" style="stroke:#A80036;stroke-width:1.25;"/><text fill="#000000" font-family="sans-serif" font-size="16.25" lengthAdjust="spacing" textLength="35" x="485.625" y="470.6189">uses</text><text fill="#000000" font-family="sans-serif" font-size="16.25" lengthAdjust="spacing" textLength="8.75" x="474.7637" y="432.8398">1</text><text fill="#000000" font-family="sans-serif" font-size="16.25" lengthAdjust="spacing" textLength="25" x="456.6406" y="498.7601">1..*</text><!--MD5=[b0c70484bbd47a37e7477573ee5c4c30]
@startuml
skinparam classAttributeIconSize 0

class WareHouseUI{
}

class WareHouseController {
+ getResourceList(int portId, String day)
}

class ConnectionFactory {
+ getInstance()
+ getDatabaseConnection()
}

class CargoManifestStore {
+ getResourceList(DatabaseConnection databaseConnection, int portId, String day)
}

class DatabaseConnection {
+ getConnection()
}

WareHouseController <.up. WareHouseUI
WareHouseController "1" - -> "1..*" ConnectionFactory : uses
WareHouseController "1" - -> "1" CargoManifestStore : uses
CargoManifestStore "1" - -> "1..*" DatabaseConnection : uses



@enduml

PlantUML version 1.2021.7(Sun May 23 13:40:07 BST 2021)
(GPL source distribution)
Java Runtime: OpenJDK Runtime Environment
JVM: OpenJDK 64-Bit Server VM
Default Encoding: Cp1252
Language: pt
Country: PT
--></g></svg>