<?xml version="1.0" encoding="UTF-8" standalone="no"?><svg xmlns="http://www.w3.org/2000/svg" xmlns:xlink="http://www.w3.org/1999/xlink" contentScriptType="application/ecmascript" contentStyleType="text/css" height="416.25px" preserveAspectRatio="none" style="width:142px;height:416px;background:#FFFFFF;" version="1.1" viewBox="0 0 142 416" width="142.5px" zoomAndPan="magnify"><defs><filter height="300%" id="f1e7cxx8hbqbb9" width="300%" x="-1" y="-1"><feGaussianBlur result="blurOut" stdDeviation="2.5"/><feColorMatrix in="blurOut" result="blurOut2" type="matrix" values="0 0 0 0 0 0 0 0 0 0 0 0 0 0 0 0 0 0 .4 0"/><feOffset dx="5.0" dy="5.0" in="blurOut2" result="blurOut3"/><feBlend in="SourceGraphic" in2="blurOut3" mode="normal"/></filter></defs><g><!--MD5=[ed6624c6556d5e7b1bd23032162d20b7]
class Client--><rect codeLine="1" fill="#FEFECE" filter="url(#f1e7cxx8hbqbb9)" height="60" id="Client" style="stroke:#A80036;stroke-width:1.875;" width="80" x="26.875" y="8.75"/><ellipse cx="45.625" cy="28.75" fill="#ADD1B2" rx="13.75" ry="13.75" style="stroke:#A80036;stroke-width:1.25;"/><path d="M48.125,24.375 Q48.3789,23.75 48.6719,23.4375 Q48.9648,23.125 49.2969,23.125 Q49.8828,23.125 50.2539,23.4766 Q50.625,23.8281 50.625,24.6484 L50.625,26.6016 Q50.625,27.4219 50.2734,27.7734 Q49.9219,28.125 49.375,28.125 Q48.8867,28.125 48.5742,27.9102 Q48.2617,27.6953 48.125,27.1289 Q48.0664,26.7383 47.8516,26.5234 Q47.4609,26.1133 46.7578,25.8789 Q46.0547,25.625 45.3516,25.625 Q44.4727,25.625 43.7305,25.9766 Q43.0078,26.3281 42.4414,27.1094 Q41.875,27.8906 41.875,28.9648 L41.875,30.1172 Q41.875,31.4063 42.9297,32.2656 Q43.9844,33.125 45.8594,33.125 Q46.9727,33.125 47.7539,32.8711 Q48.2031,32.7344 48.7109,32.2852 Q49.043,32.0313 49.2188,31.9531 Q49.3945,31.875 49.6094,31.875 Q50.0195,31.875 50.3125,32.207 Q50.625,32.5195 50.625,32.9688 Q50.625,33.3984 50.1953,33.9063 Q49.5703,34.6484 48.5742,35.0586 Q47.2656,35.625 45.6641,35.625 Q43.7891,35.625 42.2852,34.8828 Q41.0742,34.2969 40.2148,33.0273 Q39.375,31.7578 39.375,30.2539 L39.375,28.8867 Q39.375,27.3242 40.1172,25.957 Q40.8789,24.5898 42.1875,23.8672 Q43.5156,23.125 45,23.125 Q45.8984,23.125 46.6797,23.4375 Q47.4609,23.75 48.125,24.375 Z " fill="#000000"/><text fill="#000000" font-family="sans-serif" font-size="15" lengthAdjust="spacing" textLength="40" x="63.125" y="34.8877">Client</text><line style="stroke:#A80036;stroke-width:1.875;" x1="28.125" x2="105.625" y1="48.75" y2="48.75"/><line style="stroke:#A80036;stroke-width:1.875;" x1="28.125" x2="105.625" y1="58.75" y2="58.75"/><!--MD5=[a3093aa9f96b7df9aab31d8715601ff6]
class Containers--><rect codeLine="4" fill="#FEFECE" filter="url(#f1e7cxx8hbqbb9)" height="232.9492" id="Containers" style="stroke:#A80036;stroke-width:1.875;" width="116.25" x="8.75" y="166.25"/><ellipse cx="27.5" cy="186.25" fill="#ADD1B2" rx="13.75" ry="13.75" style="stroke:#A80036;stroke-width:1.25;"/><path d="M30,181.875 Q30.2539,181.25 30.5469,180.9375 Q30.8398,180.625 31.1719,180.625 Q31.7578,180.625 32.1289,180.9766 Q32.5,181.3281 32.5,182.1484 L32.5,184.1016 Q32.5,184.9219 32.1484,185.2734 Q31.7969,185.625 31.25,185.625 Q30.7617,185.625 30.4492,185.4102 Q30.1367,185.1953 30,184.6289 Q29.9414,184.2383 29.7266,184.0234 Q29.3359,183.6133 28.6328,183.3789 Q27.9297,183.125 27.2266,183.125 Q26.3477,183.125 25.6055,183.4766 Q24.8828,183.8281 24.3164,184.6094 Q23.75,185.3906 23.75,186.4648 L23.75,187.6172 Q23.75,188.9063 24.8047,189.7656 Q25.8594,190.625 27.7344,190.625 Q28.8477,190.625 29.6289,190.3711 Q30.0781,190.2344 30.5859,189.7852 Q30.918,189.5313 31.0938,189.4531 Q31.2695,189.375 31.4844,189.375 Q31.8945,189.375 32.1875,189.707 Q32.5,190.0195 32.5,190.4688 Q32.5,190.8984 32.0703,191.4063 Q31.4453,192.1484 30.4492,192.5586 Q29.1406,193.125 27.5391,193.125 Q25.6641,193.125 24.1602,192.3828 Q22.9492,191.7969 22.0898,190.5273 Q21.25,189.2578 21.25,187.7539 L21.25,186.3867 Q21.25,184.8242 21.9922,183.457 Q22.7539,182.0898 24.0625,181.3672 Q25.3906,180.625 26.875,180.625 Q27.7734,180.625 28.5547,180.9375 Q29.3359,181.25 30,181.875 Z " fill="#000000"/><text fill="#000000" font-family="sans-serif" font-size="15" lengthAdjust="spacing" textLength="76.25" x="45" y="192.3877">Containers</text><line style="stroke:#A80036;stroke-width:1.875;" x1="10" x2="123.75" y1="206.25" y2="206.25"/><rect fill="none" height="7.5" style="stroke:#C82930;stroke-width:1.25;" width="7.5" x="18.75" y="216.25"/><text fill="#000000" font-family="sans-serif" font-size="13.75" lengthAdjust="spacing" textLength="75" x="33.75" y="225.5237">identification</text><rect fill="none" height="7.5" style="stroke:#C82930;stroke-width:1.25;" width="7.5" x="18.75" y="233.5449"/><text fill="#000000" font-family="sans-serif" font-size="13.75" lengthAdjust="spacing" textLength="47.5" x="33.75" y="242.8186">payload</text><rect fill="none" height="7.5" style="stroke:#C82930;stroke-width:1.25;" width="7.5" x="18.75" y="250.8398"/><text fill="#000000" font-family="sans-serif" font-size="13.75" lengthAdjust="spacing" textLength="23.75" x="33.75" y="260.1135">tare</text><rect fill="none" height="7.5" style="stroke:#C82930;stroke-width:1.25;" width="7.5" x="18.75" y="268.1348"/><text fill="#000000" font-family="sans-serif" font-size="13.75" lengthAdjust="spacing" textLength="35" x="33.75" y="277.4084">gross</text><rect fill="none" height="7.5" style="stroke:#C82930;stroke-width:1.25;" width="7.5" x="18.75" y="285.4297"/><text fill="#000000" font-family="sans-serif" font-size="13.75" lengthAdjust="spacing" textLength="48.75" x="33.75" y="294.7034">isoCode</text><rect fill="none" height="7.5" style="stroke:#C82930;stroke-width:1.25;" width="7.5" x="18.75" y="302.7246"/><text fill="#000000" font-family="sans-serif" font-size="13.75" lengthAdjust="spacing" textLength="36.25" x="33.75" y="311.9983">lenght</text><rect fill="none" height="7.5" style="stroke:#C82930;stroke-width:1.25;" width="7.5" x="18.75" y="320.0195"/><text fill="#000000" font-family="sans-serif" font-size="13.75" lengthAdjust="spacing" textLength="33.75" x="33.75" y="329.2932">width</text><rect fill="none" height="7.5" style="stroke:#C82930;stroke-width:1.25;" width="7.5" x="18.75" y="337.3145"/><text fill="#000000" font-family="sans-serif" font-size="13.75" lengthAdjust="spacing" textLength="36.25" x="33.75" y="346.5881">height</text><rect fill="none" height="7.5" style="stroke:#C82930;stroke-width:1.25;" width="7.5" x="18.75" y="354.6094"/><text fill="#000000" font-family="sans-serif" font-size="13.75" lengthAdjust="spacing" textLength="72.5" x="33.75" y="363.8831">temperature</text><rect fill="none" height="7.5" style="stroke:#C82930;stroke-width:1.25;" width="7.5" x="18.75" y="371.9043"/><text fill="#000000" font-family="sans-serif" font-size="13.75" lengthAdjust="spacing" textLength="71.25" x="33.75" y="381.178">coordinates</text><line style="stroke:#A80036;stroke-width:1.875;" x1="10" x2="123.75" y1="389.1992" y2="389.1992"/><!--MD5=[2a654a65145d4d768472c66eea17ac36]
link Client to Containers--><path codeLine="18" d="M66.875,69.1 C66.875,93.5375 66.875,130.1375 66.875,166.0875 " fill="none" id="Client-Containers" style="stroke:#A80036;stroke-width:1.25;"/><polygon fill="#000000" points="73.125,123.9697,76.7987,112.6634,69.4513,112.6634,73.125,123.9697" style="stroke:#000000;stroke-width:1.25;"/><text fill="#000000" font-family="sans-serif" font-size="16.25" lengthAdjust="spacing" textLength="37.5" x="84.375" y="124.3689">owns</text><text fill="#000000" font-family="sans-serif" font-size="16.25" lengthAdjust="spacing" textLength="8.75" x="57.0586" y="95.8578">1</text><text fill="#000000" font-family="sans-serif" font-size="16.25" lengthAdjust="spacing" textLength="25" x="40.8398" y="152.4875">1..*</text><!--MD5=[693d31bd0de32167daf7f346b9b5504f]
@startuml
class Client {
}

class Containers {
- identification
- payload
- tare
- gross
- isoCode
- lenght
- width
- height
- temperature
- coordinates
}


Client "1" -down- "1..*"Containers :> owns


@enduml

PlantUML version 1.2021.7(Sun May 23 13:40:07 BST 2021)
(GPL source distribution)
Java Runtime: OpenJDK Runtime Environment
JVM: OpenJDK 64-Bit Server VM
Default Encoding: Cp1252
Language: pt
Country: PT
--></g></svg>