<?xml version="1.0" encoding="UTF-8" standalone="no"?><svg xmlns="http://www.w3.org/2000/svg" xmlns:xlink="http://www.w3.org/1999/xlink" contentScriptType="application/ecmascript" contentStyleType="text/css" height="641.25px" preserveAspectRatio="none" style="width:687px;height:641px;background:#FFFFFF;" version="1.1" viewBox="0 0 687 641" width="687.5px" zoomAndPan="magnify"><defs><filter height="300%" id="f5bmd3zqyj7i" width="300%" x="-1" y="-1"><feGaussianBlur result="blurOut" stdDeviation="2.5"/><feColorMatrix in="blurOut" result="blurOut2" type="matrix" values="0 0 0 0 0 0 0 0 0 0 0 0 0 0 0 0 0 0 .4 0"/><feOffset dx="5.0" dy="5.0" in="blurOut2" result="blurOut3"/><feBlend in="SourceGraphic" in2="blurOut3" mode="normal"/></filter></defs><g><!--MD5=[66ec0a6823552082a6a71000bb1e12e0]
class ImportPortUI--><rect codeLine="3" fill="#FEFECE" filter="url(#f5bmd3zqyj7i)" height="60" id="ImportPortUI" style="stroke:#A80036;stroke-width:1.875;" width="126.25" x="252.5" y="8.75"/><ellipse cx="271.25" cy="28.75" fill="#ADD1B2" rx="13.75" ry="13.75" style="stroke:#A80036;stroke-width:1.25;"/><path d="M273.75,24.375 Q274.0039,23.75 274.2969,23.4375 Q274.5898,23.125 274.9219,23.125 Q275.5078,23.125 275.8789,23.4766 Q276.25,23.8281 276.25,24.6484 L276.25,26.6016 Q276.25,27.4219 275.8984,27.7734 Q275.5469,28.125 275,28.125 Q274.5117,28.125 274.1992,27.9102 Q273.8867,27.6953 273.75,27.1289 Q273.6914,26.7383 273.4766,26.5234 Q273.0859,26.1133 272.3828,25.8789 Q271.6797,25.625 270.9766,25.625 Q270.0977,25.625 269.3555,25.9766 Q268.6328,26.3281 268.0664,27.1094 Q267.5,27.8906 267.5,28.9648 L267.5,30.1172 Q267.5,31.4063 268.5547,32.2656 Q269.6094,33.125 271.4844,33.125 Q272.5977,33.125 273.3789,32.8711 Q273.8281,32.7344 274.3359,32.2852 Q274.668,32.0313 274.8438,31.9531 Q275.0195,31.875 275.2344,31.875 Q275.6445,31.875 275.9375,32.207 Q276.25,32.5195 276.25,32.9688 Q276.25,33.3984 275.8203,33.9063 Q275.1953,34.6484 274.1992,35.0586 Q272.8906,35.625 271.2891,35.625 Q269.4141,35.625 267.9102,34.8828 Q266.6992,34.2969 265.8398,33.0273 Q265,31.7578 265,30.2539 L265,28.8867 Q265,27.3242 265.7422,25.957 Q266.5039,24.5898 267.8125,23.8672 Q269.1406,23.125 270.625,23.125 Q271.5234,23.125 272.3047,23.4375 Q273.0859,23.75 273.75,24.375 Z " fill="#000000"/><text fill="#000000" font-family="sans-serif" font-size="15" lengthAdjust="spacing" textLength="86.25" x="288.75" y="34.8877">ImportPortUI</text><line style="stroke:#A80036;stroke-width:1.875;" x1="253.75" x2="377.5" y1="48.75" y2="48.75"/><line style="stroke:#A80036;stroke-width:1.875;" x1="253.75" x2="377.5" y1="58.75" y2="58.75"/><!--MD5=[18836893423980a014ccfe5d6fd84c3b]
class LoaderController--><rect codeLine="6" fill="#FEFECE" filter="url(#f5bmd3zqyj7i)" height="77.2949" id="LoaderController" style="stroke:#A80036;stroke-width:1.875;" width="242.5" x="194.375" y="145"/><ellipse cx="252.1875" cy="165" fill="#ADD1B2" rx="13.75" ry="13.75" style="stroke:#A80036;stroke-width:1.25;"/><path d="M254.6875,160.625 Q254.9414,160 255.2344,159.6875 Q255.5273,159.375 255.8594,159.375 Q256.4453,159.375 256.8164,159.7266 Q257.1875,160.0781 257.1875,160.8984 L257.1875,162.8516 Q257.1875,163.6719 256.8359,164.0234 Q256.4844,164.375 255.9375,164.375 Q255.4492,164.375 255.1367,164.1602 Q254.8242,163.9453 254.6875,163.3789 Q254.6289,162.9883 254.4141,162.7734 Q254.0234,162.3633 253.3203,162.1289 Q252.6172,161.875 251.9141,161.875 Q251.0352,161.875 250.293,162.2266 Q249.5703,162.5781 249.0039,163.3594 Q248.4375,164.1406 248.4375,165.2148 L248.4375,166.3672 Q248.4375,167.6563 249.4922,168.5156 Q250.5469,169.375 252.4219,169.375 Q253.5352,169.375 254.3164,169.1211 Q254.7656,168.9844 255.2734,168.5352 Q255.6055,168.2813 255.7813,168.2031 Q255.957,168.125 256.1719,168.125 Q256.582,168.125 256.875,168.457 Q257.1875,168.7695 257.1875,169.2188 Q257.1875,169.6484 256.7578,170.1563 Q256.1328,170.8984 255.1367,171.3086 Q253.8281,171.875 252.2266,171.875 Q250.3516,171.875 248.8477,171.1328 Q247.6367,170.5469 246.7773,169.2773 Q245.9375,168.0078 245.9375,166.5039 L245.9375,165.1367 Q245.9375,163.5742 246.6797,162.207 Q247.4414,160.8398 248.75,160.1172 Q250.0781,159.375 251.5625,159.375 Q252.4609,159.375 253.2422,159.6875 Q254.0234,160 254.6875,160.625 Z " fill="#000000"/><text fill="#000000" font-family="sans-serif" font-size="15" lengthAdjust="spacing" textLength="116.25" x="277.8125" y="171.1377">LoaderController</text><line style="stroke:#A80036;stroke-width:1.875;" x1="195.625" x2="435.625" y1="185" y2="185"/><line style="stroke:#A80036;stroke-width:1.875;" x1="195.625" x2="435.625" y1="195" y2="195"/><text fill="#000000" font-family="sans-serif" font-size="13.75" lengthAdjust="spacing" textLength="227.5" x="201.875" y="214.2737">+loadPortsTwoDTree(String fileName)</text><!--MD5=[a0bfe97ac0a38e6e74cc1c7c7b744b71]
class Port--><rect codeLine="10" fill="#FEFECE" filter="url(#f5bmd3zqyj7i)" height="111.8848" id="Port" style="stroke:#A80036;stroke-width:1.875;" width="503.75" x="8.75" y="503.125"/><ellipse cx="241.5625" cy="523.125" fill="#ADD1B2" rx="13.75" ry="13.75" style="stroke:#A80036;stroke-width:1.25;"/><path d="M244.0625,518.75 Q244.3164,518.125 244.6094,517.8125 Q244.9023,517.5 245.2344,517.5 Q245.8203,517.5 246.1914,517.8516 Q246.5625,518.2031 246.5625,519.0234 L246.5625,520.9766 Q246.5625,521.7969 246.2109,522.1484 Q245.8594,522.5 245.3125,522.5 Q244.8242,522.5 244.5117,522.2852 Q244.1992,522.0703 244.0625,521.5039 Q244.0039,521.1133 243.7891,520.8984 Q243.3984,520.4883 242.6953,520.2539 Q241.9922,520 241.2891,520 Q240.4102,520 239.668,520.3516 Q238.9453,520.7031 238.3789,521.4844 Q237.8125,522.2656 237.8125,523.3398 L237.8125,524.4922 Q237.8125,525.7813 238.8672,526.6406 Q239.9219,527.5 241.7969,527.5 Q242.9102,527.5 243.6914,527.2461 Q244.1406,527.1094 244.6484,526.6602 Q244.9805,526.4063 245.1563,526.3281 Q245.332,526.25 245.5469,526.25 Q245.957,526.25 246.25,526.582 Q246.5625,526.8945 246.5625,527.3438 Q246.5625,527.7734 246.1328,528.2813 Q245.5078,529.0234 244.5117,529.4336 Q243.2031,530 241.6016,530 Q239.7266,530 238.2227,529.2578 Q237.0117,528.6719 236.1523,527.4023 Q235.3125,526.1328 235.3125,524.6289 L235.3125,523.2617 Q235.3125,521.6992 236.0547,520.332 Q236.8164,518.9648 238.125,518.2422 Q239.4531,517.5 240.9375,517.5 Q241.8359,517.5 242.6172,517.8125 Q243.3984,518.125 244.0625,518.75 Z " fill="#000000"/><text fill="#000000" font-family="sans-serif" font-size="15" lengthAdjust="spacing" textLength="27.5" x="267.1875" y="529.2627">Port</text><line style="stroke:#A80036;stroke-width:1.875;" x1="10" x2="511.25" y1="543.125" y2="543.125"/><line style="stroke:#A80036;stroke-width:1.875;" x1="10" x2="511.25" y1="553.125" y2="553.125"/><text fill="#000000" font-family="sans-serif" font-size="13.75" lengthAdjust="spacing" textLength="488.75" x="16.25" y="572.3987">+Port(String continent, String country, int code, String port, Double lat, Double lon)</text><text fill="#000000" font-family="sans-serif" font-size="13.75" lengthAdjust="spacing" textLength="58.75" x="16.25" y="589.6936">+getLon()</text><text fill="#000000" font-family="sans-serif" font-size="13.75" lengthAdjust="spacing" textLength="55" x="16.25" y="606.9885">+getLat()</text><!--MD5=[8ea21eb34d8c2cb9ca2346ccb811dfc2]
class TwoDTree--><rect codeLine="16" fill="#FEFECE" filter="url(#f5bmd3zqyj7i)" height="77.2949" id="TwoDTree" style="stroke:#A80036;stroke-width:1.875;" width="140" x="341.875" y="320"/><ellipse cx="373.5625" cy="340" fill="#ADD1B2" rx="13.75" ry="13.75" style="stroke:#A80036;stroke-width:1.25;"/><path d="M376.0625,335.625 Q376.3164,335 376.6094,334.6875 Q376.9023,334.375 377.2344,334.375 Q377.8203,334.375 378.1914,334.7266 Q378.5625,335.0781 378.5625,335.8984 L378.5625,337.8516 Q378.5625,338.6719 378.2109,339.0234 Q377.8594,339.375 377.3125,339.375 Q376.8242,339.375 376.5117,339.1602 Q376.1992,338.9453 376.0625,338.3789 Q376.0039,337.9883 375.7891,337.7734 Q375.3984,337.3633 374.6953,337.1289 Q373.9922,336.875 373.2891,336.875 Q372.4102,336.875 371.668,337.2266 Q370.9453,337.5781 370.3789,338.3594 Q369.8125,339.1406 369.8125,340.2148 L369.8125,341.3672 Q369.8125,342.6563 370.8672,343.5156 Q371.9219,344.375 373.7969,344.375 Q374.9102,344.375 375.6914,344.1211 Q376.1406,343.9844 376.6484,343.5352 Q376.9805,343.2813 377.1563,343.2031 Q377.332,343.125 377.5469,343.125 Q377.957,343.125 378.25,343.457 Q378.5625,343.7695 378.5625,344.2188 Q378.5625,344.6484 378.1328,345.1563 Q377.5078,345.8984 376.5117,346.3086 Q375.2031,346.875 373.6016,346.875 Q371.7266,346.875 370.2227,346.1328 Q369.0117,345.5469 368.1523,344.2773 Q367.3125,343.0078 367.3125,341.5039 L367.3125,340.1367 Q367.3125,338.5742 368.0547,337.207 Q368.8164,335.8398 370.125,335.1172 Q371.4531,334.375 372.9375,334.375 Q373.8359,334.375 374.6172,334.6875 Q375.3984,335 376.0625,335.625 Z " fill="#000000"/><text fill="#000000" font-family="sans-serif" font-size="15" lengthAdjust="spacing" textLength="71.25" x="393.9375" y="346.1377">TwoDTree</text><line style="stroke:#A80036;stroke-width:1.875;" x1="343.125" x2="480.625" y1="360" y2="360"/><line style="stroke:#A80036;stroke-width:1.875;" x1="343.125" x2="480.625" y1="370" y2="370"/><text fill="#000000" font-family="sans-serif" font-size="13.75" lengthAdjust="spacing" textLength="125" x="349.375" y="389.2737">+insert(Port element)</text><!--MD5=[3fee75583bb7a64f68d843a3c9534ab3]
class Node--><rect codeLine="20" fill="#FEFECE" filter="url(#f5bmd3zqyj7i)" height="129.1797" id="Node" style="stroke:#A80036;stroke-width:1.875;" width="113.75" x="556.25" y="495"/><ellipse cx="591.3125" cy="515" fill="#ADD1B2" rx="13.75" ry="13.75" style="stroke:#A80036;stroke-width:1.25;"/><path d="M593.8125,510.625 Q594.0664,510 594.3594,509.6875 Q594.6523,509.375 594.9844,509.375 Q595.5703,509.375 595.9414,509.7266 Q596.3125,510.0781 596.3125,510.8984 L596.3125,512.8516 Q596.3125,513.6719 595.9609,514.0234 Q595.6094,514.375 595.0625,514.375 Q594.5742,514.375 594.2617,514.1602 Q593.9492,513.9453 593.8125,513.3789 Q593.7539,512.9883 593.5391,512.7734 Q593.1484,512.3633 592.4453,512.1289 Q591.7422,511.875 591.0391,511.875 Q590.1602,511.875 589.418,512.2266 Q588.6953,512.5781 588.1289,513.3594 Q587.5625,514.1406 587.5625,515.2148 L587.5625,516.3672 Q587.5625,517.6563 588.6172,518.5156 Q589.6719,519.375 591.5469,519.375 Q592.6602,519.375 593.4414,519.1211 Q593.8906,518.9844 594.3984,518.5352 Q594.7305,518.2813 594.9063,518.2031 Q595.082,518.125 595.2969,518.125 Q595.707,518.125 596,518.457 Q596.3125,518.7695 596.3125,519.2188 Q596.3125,519.6484 595.8828,520.1563 Q595.2578,520.8984 594.2617,521.3086 Q592.9531,521.875 591.3516,521.875 Q589.4766,521.875 587.9727,521.1328 Q586.7617,520.5469 585.9023,519.2773 Q585.0625,518.0078 585.0625,516.5039 L585.0625,515.1367 Q585.0625,513.5742 585.8047,512.207 Q586.5664,510.8398 587.875,510.1172 Q589.2031,509.375 590.6875,509.375 Q591.5859,509.375 592.3672,509.6875 Q593.1484,510 593.8125,510.625 Z " fill="#000000"/><text fill="#000000" font-family="sans-serif" font-size="15" lengthAdjust="spacing" textLength="37.5" x="612.4375" y="521.1377">Node</text><line style="stroke:#A80036;stroke-width:1.875;" x1="557.5" x2="668.75" y1="535" y2="535"/><line style="stroke:#A80036;stroke-width:1.875;" x1="557.5" x2="668.75" y1="545" y2="545"/><text fill="#000000" font-family="sans-serif" font-size="13.75" lengthAdjust="spacing" textLength="98.75" x="563.75" y="564.2737">+Node(Port info)</text><text fill="#000000" font-family="sans-serif" font-size="13.75" lengthAdjust="spacing" textLength="58.75" x="563.75" y="581.5686">+getInfo()</text><text fill="#000000" font-family="sans-serif" font-size="13.75" lengthAdjust="spacing" textLength="60" x="563.75" y="598.8635">+setLeft()</text><text fill="#000000" font-family="sans-serif" font-size="13.75" lengthAdjust="spacing" textLength="66.25" x="563.75" y="616.1584">+setRight()</text><!--MD5=[fca1d200728eca7cb8bb59fd468e3ece]
link ImportPortUI to LoaderController--><path codeLine="30" d="M315.625,68.8375 C315.625,88.7625 315.625,115.6375 315.625,138.25 " fill="none" id="ImportPortUI-to-LoaderController" style="stroke:#A80036;stroke-width:1.25;stroke-dasharray:7.0,7.0;"/><polygon fill="#A80036" points="315.625,144.5125,320.625,133.2625,315.625,138.2625,310.625,133.2625,315.625,144.5125" style="stroke:#A80036;stroke-width:1.25;"/><!--MD5=[690a2e87ada1afeb95b2a1bf7185c7c5]
link LoaderController to Port--><path codeLine="31" d="M305.075,222.525 C297.875,249.45 288.675,286.7125 283.125,320 C273.1875,379.5875 267.275,448.3375 264.025,496.6125 " fill="none" id="LoaderController-to-Port" style="stroke:#A80036;stroke-width:1.25;"/><polygon fill="#A80036" points="263.6125,502.9875,269.3415,492.0907,264.0235,496.751,259.3631,491.4331,263.6125,502.9875" style="stroke:#A80036;stroke-width:1.25;"/><text fill="#000000" font-family="sans-serif" font-size="16.25" lengthAdjust="spacing" textLength="35" x="284.375" y="365.6189">uses</text><text fill="#000000" font-family="sans-serif" font-size="16.25" lengthAdjust="spacing" textLength="8.75" x="293.3866" y="249.0599">1</text><text fill="#000000" font-family="sans-serif" font-size="16.25" lengthAdjust="spacing" textLength="25" x="237.0964" y="489.3599">1..*</text><!--MD5=[aa6994dde589487fb39db9f928a9f897]
link LoaderController to TwoDTree--><path codeLine="32" d="M336.75,222.85 C351.7875,249.825 372.0375,286.1125 387.725,314.225 " fill="none" id="LoaderController-to-TwoDTree" style="stroke:#A80036;stroke-width:1.25;"/><polygon fill="#A80036" points="390.8,319.7375,389.6902,307.4765,387.7571,314.2782,380.9554,312.3451,390.8,319.7375" style="stroke:#A80036;stroke-width:1.25;"/><text fill="#000000" font-family="sans-serif" font-size="16.25" lengthAdjust="spacing" textLength="35" x="370.625" y="278.1189">uses</text><text fill="#000000" font-family="sans-serif" font-size="16.25" lengthAdjust="spacing" textLength="8.75" x="331.193" y="249.14">1</text><text fill="#000000" font-family="sans-serif" font-size="16.25" lengthAdjust="spacing" textLength="8.75" x="376.8009" y="306.564">1</text><!--MD5=[893b5a392b6da15e10af10b7f4f80701]
link TwoDTree to Port--><path codeLine="33" d="M383.075,397.7375 C361.5125,425.975 331.575,465.175 306.7125,497.7625 " fill="none" id="TwoDTree-to-Port" style="stroke:#A80036;stroke-width:1.25;"/><polygon fill="#A80036" points="302.7625,502.925,313.5602,497.0113,306.5524,497.9552,305.6085,490.9474,302.7625,502.925" style="stroke:#A80036;stroke-width:1.25;"/><text fill="#000000" font-family="sans-serif" font-size="16.25" lengthAdjust="spacing" textLength="35" x="354.375" y="453.1189">uses</text><text fill="#000000" font-family="sans-serif" font-size="16.25" lengthAdjust="spacing" textLength="8.75" x="367.7937" y="424.3143">1</text><text fill="#000000" font-family="sans-serif" font-size="16.25" lengthAdjust="spacing" textLength="25" x="282.3007" y="489.6995">1..*</text><!--MD5=[42d39431c5714514a1ca9f24fa3c12a3]
link TwoDTree to Node--><path codeLine="34" d="M450.2,397.7375 C478.6875,425.775 518.1375,464.6125 551.0875,497.05 " fill="none" id="TwoDTree-to-Node" style="stroke:#A80036;stroke-width:1.25;"/><polygon fill="#A80036" points="555.9,501.7875,551.3647,490.3422,551.4362,497.4129,544.3655,497.4844,555.9,501.7875" style="stroke:#A80036;stroke-width:1.25;"/><text fill="#000000" font-family="sans-serif" font-size="16.25" lengthAdjust="spacing" textLength="35" x="506.875" y="453.1189">uses</text><text fill="#000000" font-family="sans-serif" font-size="16.25" lengthAdjust="spacing" textLength="8.75" x="448.1339" y="424.3143">1</text><text fill="#000000" font-family="sans-serif" font-size="16.25" lengthAdjust="spacing" textLength="25" x="521.0949" y="489.1526">1..*</text><!--MD5=[004590d76be7fe4b1dd61243c34f2970]
@startuml
skinparam classAttributeIconSize 0

class ImportPortUI{
}

class LoaderController{
+ loadPortsTwoDTree(String fileName)
}

class Port{
+ Port(String continent, String country, int code, String port, Double lat, Double lon)
+ getLon()
+ getLat()
}

class TwoDTree{
+ insert(Port element)
}

class Node {
+ Node(Port info)
+getInfo()
+setLeft()
+setRight()
}




LoaderController <.up. ImportPortUI
LoaderController "1" - -> "1..*" Port : uses
LoaderController "1" - -> "1" TwoDTree : uses
TwoDTree "1" - -> "1..*" Port : uses
TwoDTree "1" - -> "1..*" Node : uses

@enduml

PlantUML version 1.2021.7(Sun May 23 13:40:07 BST 2021)
(GPL source distribution)
Java Runtime: OpenJDK Runtime Environment
JVM: OpenJDK 64-Bit Server VM
Default Encoding: Cp1252
Language: pt
Country: PT
--></g></svg>