<?xml version="1.0" encoding="UTF-8" standalone="no"?><svg xmlns="http://www.w3.org/2000/svg" xmlns:xlink="http://www.w3.org/1999/xlink" contentScriptType="application/ecmascript" contentStyleType="text/css" height="347.5px" preserveAspectRatio="none" style="width:157px;height:347px;background:#FFFFFF;" version="1.1" viewBox="0 0 157 347" width="157.5px" zoomAndPan="magnify"><defs><filter height="300%" id="f1xhmqbgm8k0s0" width="300%" x="-1" y="-1"><feGaussianBlur result="blurOut" stdDeviation="2.5"/><feColorMatrix in="blurOut" result="blurOut2" type="matrix" values="0 0 0 0 0 0 0 0 0 0 0 0 0 0 0 0 0 0 .4 0"/><feOffset dx="5.0" dy="5.0" in="blurOut2" result="blurOut3"/><feBlend in="SourceGraphic" in2="blurOut3" mode="normal"/></filter></defs><g><!--MD5=[99d8f1361a72f685c413d1fd21efef1c]
class PortManager--><rect codeLine="3" fill="#FEFECE" filter="url(#f1xhmqbgm8k0s0)" height="60" id="PortManager" style="stroke:#A80036;stroke-width:1.875;" width="127.5" x="8.75" y="8.75"/><ellipse cx="27.5" cy="28.75" fill="#ADD1B2" rx="13.75" ry="13.75" style="stroke:#A80036;stroke-width:1.25;"/><path d="M30,24.375 Q30.2539,23.75 30.5469,23.4375 Q30.8398,23.125 31.1719,23.125 Q31.7578,23.125 32.1289,23.4766 Q32.5,23.8281 32.5,24.6484 L32.5,26.6016 Q32.5,27.4219 32.1484,27.7734 Q31.7969,28.125 31.25,28.125 Q30.7617,28.125 30.4492,27.9102 Q30.1367,27.6953 30,27.1289 Q29.9414,26.7383 29.7266,26.5234 Q29.3359,26.1133 28.6328,25.8789 Q27.9297,25.625 27.2266,25.625 Q26.3477,25.625 25.6055,25.9766 Q24.8828,26.3281 24.3164,27.1094 Q23.75,27.8906 23.75,28.9648 L23.75,30.1172 Q23.75,31.4063 24.8047,32.2656 Q25.8594,33.125 27.7344,33.125 Q28.8477,33.125 29.6289,32.8711 Q30.0781,32.7344 30.5859,32.2852 Q30.918,32.0313 31.0938,31.9531 Q31.2695,31.875 31.4844,31.875 Q31.8945,31.875 32.1875,32.207 Q32.5,32.5195 32.5,32.9688 Q32.5,33.3984 32.0703,33.9063 Q31.4453,34.6484 30.4492,35.0586 Q29.1406,35.625 27.5391,35.625 Q25.6641,35.625 24.1602,34.8828 Q22.9492,34.2969 22.0898,33.0273 Q21.25,31.7578 21.25,30.2539 L21.25,28.8867 Q21.25,27.3242 21.9922,25.957 Q22.7539,24.5898 24.0625,23.8672 Q25.3906,23.125 26.875,23.125 Q27.7734,23.125 28.5547,23.4375 Q29.3359,23.75 30,24.375 Z " fill="#000000"/><text fill="#000000" font-family="sans-serif" font-size="15" lengthAdjust="spacing" textLength="87.5" x="45" y="34.8877">PortManager</text><line style="stroke:#A80036;stroke-width:1.875;" x1="10" x2="135" y1="48.75" y2="48.75"/><line style="stroke:#A80036;stroke-width:1.875;" x1="10" x2="135" y1="58.75" y2="58.75"/><!--MD5=[a0bfe97ac0a38e6e74cc1c7c7b744b71]
class Port--><rect codeLine="6" fill="#FEFECE" filter="url(#f1xhmqbgm8k0s0)" height="163.7695" id="Port" style="stroke:#A80036;stroke-width:1.875;" width="87.5" x="28.75" y="166.25"/><ellipse cx="56.5" cy="186.25" fill="#ADD1B2" rx="13.75" ry="13.75" style="stroke:#A80036;stroke-width:1.25;"/><path d="M59,181.875 Q59.2539,181.25 59.5469,180.9375 Q59.8398,180.625 60.1719,180.625 Q60.7578,180.625 61.1289,180.9766 Q61.5,181.3281 61.5,182.1484 L61.5,184.1016 Q61.5,184.9219 61.1484,185.2734 Q60.7969,185.625 60.25,185.625 Q59.7617,185.625 59.4492,185.4102 Q59.1367,185.1953 59,184.6289 Q58.9414,184.2383 58.7266,184.0234 Q58.3359,183.6133 57.6328,183.3789 Q56.9297,183.125 56.2266,183.125 Q55.3477,183.125 54.6055,183.4766 Q53.8828,183.8281 53.3164,184.6094 Q52.75,185.3906 52.75,186.4648 L52.75,187.6172 Q52.75,188.9063 53.8047,189.7656 Q54.8594,190.625 56.7344,190.625 Q57.8477,190.625 58.6289,190.3711 Q59.0781,190.2344 59.5859,189.7852 Q59.918,189.5313 60.0938,189.4531 Q60.2695,189.375 60.4844,189.375 Q60.8945,189.375 61.1875,189.707 Q61.5,190.0195 61.5,190.4688 Q61.5,190.8984 61.0703,191.4063 Q60.4453,192.1484 59.4492,192.5586 Q58.1406,193.125 56.5391,193.125 Q54.6641,193.125 53.1602,192.3828 Q51.9492,191.7969 51.0898,190.5273 Q50.25,189.2578 50.25,187.7539 L50.25,186.3867 Q50.25,184.8242 50.9922,183.457 Q51.7539,182.0898 53.0625,181.3672 Q54.3906,180.625 55.875,180.625 Q56.7734,180.625 57.5547,180.9375 Q58.3359,181.25 59,181.875 Z " fill="#000000"/><text fill="#000000" font-family="sans-serif" font-size="15" lengthAdjust="spacing" textLength="27.5" x="76" y="192.3877">Port</text><line style="stroke:#A80036;stroke-width:1.875;" x1="30" x2="115" y1="206.25" y2="206.25"/><rect fill="none" height="7.5" style="stroke:#C82930;stroke-width:1.25;" width="7.5" x="38.75" y="216.25"/><text fill="#000000" font-family="sans-serif" font-size="13.75" lengthAdjust="spacing" textLength="30" x="53.75" y="225.5237">code</text><rect fill="none" height="7.5" style="stroke:#C82930;stroke-width:1.25;" width="7.5" x="38.75" y="233.5449"/><text fill="#000000" font-family="sans-serif" font-size="13.75" lengthAdjust="spacing" textLength="23.75" x="53.75" y="242.8186">port</text><rect fill="none" height="7.5" style="stroke:#C82930;stroke-width:1.25;" width="7.5" x="38.75" y="250.8398"/><text fill="#000000" font-family="sans-serif" font-size="13.75" lengthAdjust="spacing" textLength="55" x="53.75" y="260.1135">continent</text><rect fill="none" height="7.5" style="stroke:#C82930;stroke-width:1.25;" width="7.5" x="38.75" y="268.1348"/><text fill="#000000" font-family="sans-serif" font-size="13.75" lengthAdjust="spacing" textLength="46.25" x="53.75" y="277.4084">country</text><rect fill="none" height="7.5" style="stroke:#C82930;stroke-width:1.25;" width="7.5" x="38.75" y="285.4297"/><text fill="#000000" font-family="sans-serif" font-size="13.75" lengthAdjust="spacing" textLength="13.75" x="53.75" y="294.7034">lat</text><rect fill="none" height="7.5" style="stroke:#C82930;stroke-width:1.25;" width="7.5" x="38.75" y="302.7246"/><text fill="#000000" font-family="sans-serif" font-size="13.75" lengthAdjust="spacing" textLength="17.5" x="53.75" y="311.9983">lon</text><line style="stroke:#A80036;stroke-width:1.875;" x1="30" x2="115" y1="320.0195" y2="320.0195"/><!--MD5=[9eb8cece74e91f217f5849e8308bf70d]
link PortManager to Port--><path codeLine="15" d="M72.5,68.7625 C72.5,92.3875 72.5,127.15 72.5,159.7 " fill="none" id="PortManager-to-Port" style="stroke:#A80036;stroke-width:1.25;"/><polygon fill="#A80036" points="72.5,166.175,77.5,154.925,72.5,159.925,67.5,154.925,72.5,166.175" style="stroke:#A80036;stroke-width:1.25;"/><polygon fill="#000000" points="78.75,123.9697,82.4237,112.6634,75.0763,112.6634,78.75,123.9697" style="stroke:#000000;stroke-width:1.25;"/><text fill="#000000" font-family="sans-serif" font-size="16.25" lengthAdjust="spacing" textLength="57.5" x="90" y="124.3689">controls</text><text fill="#000000" font-family="sans-serif" font-size="16.25" lengthAdjust="spacing" textLength="8.75" x="62.6836" y="95.438">1</text><text fill="#000000" font-family="sans-serif" font-size="16.25" lengthAdjust="spacing" textLength="25" x="46.0547" y="152.4365">1..*</text><!--MD5=[a0356d59ec9713cd983f9db932bc2f6c]
@startuml
'https://plantuml.com/use-case-diagram

class PortManager {
}

class Port {
-code
-port
-continent
-country
-lat
-lon
}

PortManager "1" - -> "1..*"Port :> controls
@enduml

@startuml

class PortManager {
}

class Port {
-code
-port
-continent
-country
-lat
-lon
}

PortManager "1" - -> "1..*"Port :> controls
@enduml

PlantUML version 1.2021.7(Sun May 23 13:40:07 BST 2021)
(GPL source distribution)
Java Runtime: OpenJDK Runtime Environment
JVM: OpenJDK 64-Bit Server VM
Default Encoding: Cp1252
Language: pt
Country: PT
--></g></svg>