<?xml version="1.0" encoding="UTF-8" standalone="no"?><svg xmlns="http://www.w3.org/2000/svg" xmlns:xlink="http://www.w3.org/1999/xlink" contentScriptType="application/ecmascript" contentStyleType="text/css" height="433.75px" preserveAspectRatio="none" style="width:230px;height:433px;background:#FFFFFF;" version="1.1" viewBox="0 0 230 433" width="230px" zoomAndPan="magnify"><defs><filter height="300%" id="fpj7mdmwalsm1" width="300%" x="-1" y="-1"><feGaussianBlur result="blurOut" stdDeviation="2.5"/><feColorMatrix in="blurOut" result="blurOut2" type="matrix" values="0 0 0 0 0 0 0 0 0 0 0 0 0 0 0 0 0 0 .4 0"/><feOffset dx="5.0" dy="5.0" in="blurOut2" result="blurOut3"/><feBlend in="SourceGraphic" in2="blurOut3" mode="normal"/></filter></defs><g><!--MD5=[ddaf6f62b0bc30921877ec9fb9463c9f]
class TrafficManager--><rect codeLine="2" fill="#FEFECE" filter="url(#fpj7mdmwalsm1)" height="60" id="TrafficManager" style="stroke:#A80036;stroke-width:1.875;" width="141.25" x="40" y="8.75"/><ellipse cx="58.75" cy="28.75" fill="#ADD1B2" rx="13.75" ry="13.75" style="stroke:#A80036;stroke-width:1.25;"/><path d="M61.25,24.375 Q61.5039,23.75 61.7969,23.4375 Q62.0898,23.125 62.4219,23.125 Q63.0078,23.125 63.3789,23.4766 Q63.75,23.8281 63.75,24.6484 L63.75,26.6016 Q63.75,27.4219 63.3984,27.7734 Q63.0469,28.125 62.5,28.125 Q62.0117,28.125 61.6992,27.9102 Q61.3867,27.6953 61.25,27.1289 Q61.1914,26.7383 60.9766,26.5234 Q60.5859,26.1133 59.8828,25.8789 Q59.1797,25.625 58.4766,25.625 Q57.5977,25.625 56.8555,25.9766 Q56.1328,26.3281 55.5664,27.1094 Q55,27.8906 55,28.9648 L55,30.1172 Q55,31.4063 56.0547,32.2656 Q57.1094,33.125 58.9844,33.125 Q60.0977,33.125 60.8789,32.8711 Q61.3281,32.7344 61.8359,32.2852 Q62.168,32.0313 62.3438,31.9531 Q62.5195,31.875 62.7344,31.875 Q63.1445,31.875 63.4375,32.207 Q63.75,32.5195 63.75,32.9688 Q63.75,33.3984 63.3203,33.9063 Q62.6953,34.6484 61.6992,35.0586 Q60.3906,35.625 58.7891,35.625 Q56.9141,35.625 55.4102,34.8828 Q54.1992,34.2969 53.3398,33.0273 Q52.5,31.7578 52.5,30.2539 L52.5,28.8867 Q52.5,27.3242 53.2422,25.957 Q54.0039,24.5898 55.3125,23.8672 Q56.6406,23.125 58.125,23.125 Q59.0234,23.125 59.8047,23.4375 Q60.5859,23.75 61.25,24.375 Z " fill="#000000"/><text fill="#000000" font-family="sans-serif" font-size="15" lengthAdjust="spacing" textLength="101.25" x="76.25" y="34.8877">TrafficManager</text><line style="stroke:#A80036;stroke-width:1.875;" x1="41.25" x2="180" y1="48.75" y2="48.75"/><line style="stroke:#A80036;stroke-width:1.875;" x1="41.25" x2="180" y1="58.75" y2="58.75"/><!--MD5=[0dc7f2ddb409b58bcf52b12238c25399]
class Ship--><rect codeLine="5" fill="#FEFECE" filter="url(#fpj7mdmwalsm1)" height="250.2441" id="Ship" style="stroke:#A80036;stroke-width:1.875;" width="203.75" x="8.75" y="166.25"/><ellipse cx="89.6875" cy="186.25" fill="#ADD1B2" rx="13.75" ry="13.75" style="stroke:#A80036;stroke-width:1.25;"/><path d="M92.1875,181.875 Q92.4414,181.25 92.7344,180.9375 Q93.0273,180.625 93.3594,180.625 Q93.9453,180.625 94.3164,180.9766 Q94.6875,181.3281 94.6875,182.1484 L94.6875,184.1016 Q94.6875,184.9219 94.3359,185.2734 Q93.9844,185.625 93.4375,185.625 Q92.9492,185.625 92.6367,185.4102 Q92.3242,185.1953 92.1875,184.6289 Q92.1289,184.2383 91.9141,184.0234 Q91.5234,183.6133 90.8203,183.3789 Q90.1172,183.125 89.4141,183.125 Q88.5352,183.125 87.793,183.4766 Q87.0703,183.8281 86.5039,184.6094 Q85.9375,185.3906 85.9375,186.4648 L85.9375,187.6172 Q85.9375,188.9063 86.9922,189.7656 Q88.0469,190.625 89.9219,190.625 Q91.0352,190.625 91.8164,190.3711 Q92.2656,190.2344 92.7734,189.7852 Q93.1055,189.5313 93.2813,189.4531 Q93.457,189.375 93.6719,189.375 Q94.082,189.375 94.375,189.707 Q94.6875,190.0195 94.6875,190.4688 Q94.6875,190.8984 94.2578,191.4063 Q93.6328,192.1484 92.6367,192.5586 Q91.3281,193.125 89.7266,193.125 Q87.8516,193.125 86.3477,192.3828 Q85.1367,191.7969 84.2773,190.5273 Q83.4375,189.2578 83.4375,187.7539 L83.4375,186.3867 Q83.4375,184.8242 84.1797,183.457 Q84.9414,182.0898 86.25,181.3672 Q87.5781,180.625 89.0625,180.625 Q89.9609,180.625 90.7422,180.9375 Q91.5234,181.25 92.1875,181.875 Z " fill="#000000"/><text fill="#000000" font-family="sans-serif" font-size="15" lengthAdjust="spacing" textLength="31.25" x="115.3125" y="192.3877">Ship</text><line style="stroke:#A80036;stroke-width:1.875;" x1="10" x2="211.25" y1="206.25" y2="206.25"/><rect fill="none" height="7.5" style="stroke:#C82930;stroke-width:1.25;" width="7.5" x="18.75" y="216.25"/><text fill="#000000" font-family="sans-serif" font-size="13.75" lengthAdjust="spacing" textLength="30" x="33.75" y="225.5237">mmsi</text><rect fill="none" height="7.5" style="stroke:#C82930;stroke-width:1.25;" width="7.5" x="18.75" y="233.5449"/><text fill="#000000" font-family="sans-serif" font-size="13.75" lengthAdjust="spacing" textLength="58.75" x="33.75" y="242.8186">shipName</text><rect fill="none" height="7.5" style="stroke:#C82930;stroke-width:1.25;" width="7.5" x="18.75" y="250.8398"/><text fill="#000000" font-family="sans-serif" font-size="13.75" lengthAdjust="spacing" textLength="30" x="33.75" y="260.1135">imoId</text><rect fill="none" height="7.5" style="stroke:#C82930;stroke-width:1.25;" width="7.5" x="18.75" y="268.1348"/><text fill="#000000" font-family="sans-serif" font-size="13.75" lengthAdjust="spacing" textLength="171.25" x="33.75" y="277.4084">numberOfEnergyGenerators</text><rect fill="none" height="7.5" style="stroke:#C82930;stroke-width:1.25;" width="7.5" x="18.75" y="285.4297"/><text fill="#000000" font-family="sans-serif" font-size="13.75" lengthAdjust="spacing" textLength="146.25" x="33.75" y="294.7034">generatorsPowerOutput</text><rect fill="none" height="7.5" style="stroke:#C82930;stroke-width:1.25;" width="7.5" x="18.75" y="302.7246"/><text fill="#000000" font-family="sans-serif" font-size="13.75" lengthAdjust="spacing" textLength="46.25" x="33.75" y="311.9983">callSign</text><rect fill="none" height="7.5" style="stroke:#C82930;stroke-width:1.25;" width="7.5" x="18.75" y="320.0195"/><text fill="#000000" font-family="sans-serif" font-size="13.75" lengthAdjust="spacing" textLength="70" x="33.75" y="329.2932">vesselType</text><rect fill="none" height="7.5" style="stroke:#C82930;stroke-width:1.25;" width="7.5" x="18.75" y="337.3145"/><text fill="#000000" font-family="sans-serif" font-size="13.75" lengthAdjust="spacing" textLength="36.25" x="33.75" y="346.5881">lenght</text><rect fill="none" height="7.5" style="stroke:#C82930;stroke-width:1.25;" width="7.5" x="18.75" y="354.6094"/><text fill="#000000" font-family="sans-serif" font-size="13.75" lengthAdjust="spacing" textLength="33.75" x="33.75" y="363.8831">width</text><rect fill="none" height="7.5" style="stroke:#C82930;stroke-width:1.25;" width="7.5" x="18.75" y="371.9043"/><text fill="#000000" font-family="sans-serif" font-size="13.75" lengthAdjust="spacing" textLength="51.25" x="33.75" y="381.178">capacity</text><rect fill="none" height="7.5" style="stroke:#C82930;stroke-width:1.25;" width="7.5" x="18.75" y="389.1992"/><text fill="#000000" font-family="sans-serif" font-size="13.75" lengthAdjust="spacing" textLength="28.75" x="33.75" y="398.4729">draft</text><line style="stroke:#A80036;stroke-width:1.875;" x1="10" x2="211.25" y1="406.4941" y2="406.4941"/><!--MD5=[40e2b5717560220ad35e84810a8f1b44]
link TrafficManager to Ship--><path codeLine="20" d="M110.625,69.1625 C110.625,93.3875 110.625,129.5875 110.625,165.7125 " fill="none" id="TrafficManager-Ship" style="stroke:#A80036;stroke-width:1.25;"/><polygon fill="#000000" points="116.875,123.9697,120.5487,112.6634,113.2013,112.6634,116.875,123.9697" style="stroke:#000000;stroke-width:1.25;"/><text fill="#000000" font-family="sans-serif" font-size="16.25" lengthAdjust="spacing" textLength="57.5" x="128.125" y="124.3689">controls</text><text fill="#000000" font-family="sans-serif" font-size="16.25" lengthAdjust="spacing" textLength="8.75" x="100.8633" y="95.4276">1</text><text fill="#000000" font-family="sans-serif" font-size="16.25" lengthAdjust="spacing" textLength="25" x="84.707" y="152.635">1..*</text><!--MD5=[743ad69b7c2d3399a1f58b18e86f0027]
@startuml
'https://plantuml.com/use-case-diagram
class TrafficManager {
}

class Ship {
 - mmsi
 - shipName
 - imoId
 - numberOfEnergyGenerators
 - generatorsPowerOutput
 - callSign
 - vesselType
 - lenght
 - width
 - capacity
 - draft
}


TrafficManager"1" - - "1..*"Ship : > controls
@enduml

@startuml
class TrafficManager {
}

class Ship {
 - mmsi
 - shipName
 - imoId
 - numberOfEnergyGenerators
 - generatorsPowerOutput
 - callSign
 - vesselType
 - lenght
 - width
 - capacity
 - draft
}


TrafficManager"1" - - "1..*"Ship : > controls
@enduml

PlantUML version 1.2021.7(Sun May 23 13:40:07 BST 2021)
(GPL source distribution)
Java Runtime: OpenJDK Runtime Environment
JVM: OpenJDK 64-Bit Server VM
Default Encoding: Cp1252
Language: pt
Country: PT
--></g></svg>