<?xml version="1.0" encoding="UTF-8" standalone="no"?><svg xmlns="http://www.w3.org/2000/svg" xmlns:xlink="http://www.w3.org/1999/xlink" contentScriptType="application/ecmascript" contentStyleType="text/css" height="448.75px" preserveAspectRatio="none" style="width:2821px;height:448px;background:#FFFFFF;" version="1.1" viewBox="0 0 2821 448" width="2821.25px" zoomAndPan="magnify"><defs><filter height="300%" id="f1um0ypxm6zkp9" width="300%" x="-1" y="-1"><feGaussianBlur result="blurOut" stdDeviation="2.5"/><feColorMatrix in="blurOut" result="blurOut2" type="matrix" values="0 0 0 0 0 0 0 0 0 0 0 0 0 0 0 0 0 0 .4 0"/><feOffset dx="5.0" dy="5.0" in="blurOut2" result="blurOut3"/><feBlend in="SourceGraphic" in2="blurOut3" mode="normal"/></filter></defs><g><!--MD5=[96d6729f41b54a4fedeb3b1c9a8daab8]
class LoadShipUI--><rect codeLine="3" fill="#FEFECE" filter="url(#f1um0ypxm6zkp9)" height="60" id="LoadShipUI" style="stroke:#A80036;stroke-width:1.875;" width="121.25" x="1134.375" y="8.75"/><ellipse cx="1153.125" cy="28.75" fill="#ADD1B2" rx="13.75" ry="13.75" style="stroke:#A80036;stroke-width:1.25;"/><path d="M1155.625,24.375 Q1155.8789,23.75 1156.1719,23.4375 Q1156.4648,23.125 1156.7969,23.125 Q1157.3828,23.125 1157.7539,23.4766 Q1158.125,23.8281 1158.125,24.6484 L1158.125,26.6016 Q1158.125,27.4219 1157.7734,27.7734 Q1157.4219,28.125 1156.875,28.125 Q1156.3867,28.125 1156.0742,27.9102 Q1155.7617,27.6953 1155.625,27.1289 Q1155.5664,26.7383 1155.3516,26.5234 Q1154.9609,26.1133 1154.2578,25.8789 Q1153.5547,25.625 1152.8516,25.625 Q1151.9727,25.625 1151.2305,25.9766 Q1150.5078,26.3281 1149.9414,27.1094 Q1149.375,27.8906 1149.375,28.9648 L1149.375,30.1172 Q1149.375,31.4063 1150.4297,32.2656 Q1151.4844,33.125 1153.3594,33.125 Q1154.4727,33.125 1155.2539,32.8711 Q1155.7031,32.7344 1156.2109,32.2852 Q1156.543,32.0313 1156.7188,31.9531 Q1156.8945,31.875 1157.1094,31.875 Q1157.5195,31.875 1157.8125,32.207 Q1158.125,32.5195 1158.125,32.9688 Q1158.125,33.3984 1157.6953,33.9063 Q1157.0703,34.6484 1156.0742,35.0586 Q1154.7656,35.625 1153.1641,35.625 Q1151.2891,35.625 1149.7852,34.8828 Q1148.5742,34.2969 1147.7148,33.0273 Q1146.875,31.7578 1146.875,30.2539 L1146.875,28.8867 Q1146.875,27.3242 1147.6172,25.957 Q1148.3789,24.5898 1149.6875,23.8672 Q1151.0156,23.125 1152.5,23.125 Q1153.3984,23.125 1154.1797,23.4375 Q1154.9609,23.75 1155.625,24.375 Z " fill="#000000"/><text fill="#000000" font-family="sans-serif" font-size="15" lengthAdjust="spacing" textLength="81.25" x="1170.625" y="34.8877">LoadShipUI</text><line style="stroke:#A80036;stroke-width:1.875;" x1="1135.625" x2="1254.375" y1="48.75" y2="48.75"/><line style="stroke:#A80036;stroke-width:1.875;" x1="1135.625" x2="1254.375" y1="58.75" y2="58.75"/><!--MD5=[18836893423980a014ccfe5d6fd84c3b]
class LoaderController--><rect codeLine="6" fill="#FEFECE" filter="url(#f1um0ypxm6zkp9)" height="111.8848" id="LoaderController" style="stroke:#A80036;stroke-width:1.875;" width="245" x="1072.5" y="145"/><ellipse cx="1131.5625" cy="165" fill="#ADD1B2" rx="13.75" ry="13.75" style="stroke:#A80036;stroke-width:1.25;"/><path d="M1134.0625,160.625 Q1134.3164,160 1134.6094,159.6875 Q1134.9023,159.375 1135.2344,159.375 Q1135.8203,159.375 1136.1914,159.7266 Q1136.5625,160.0781 1136.5625,160.8984 L1136.5625,162.8516 Q1136.5625,163.6719 1136.2109,164.0234 Q1135.8594,164.375 1135.3125,164.375 Q1134.8242,164.375 1134.5117,164.1602 Q1134.1992,163.9453 1134.0625,163.3789 Q1134.0039,162.9883 1133.7891,162.7734 Q1133.3984,162.3633 1132.6953,162.1289 Q1131.9922,161.875 1131.2891,161.875 Q1130.4102,161.875 1129.668,162.2266 Q1128.9453,162.5781 1128.3789,163.3594 Q1127.8125,164.1406 1127.8125,165.2148 L1127.8125,166.3672 Q1127.8125,167.6563 1128.8672,168.5156 Q1129.9219,169.375 1131.7969,169.375 Q1132.9102,169.375 1133.6914,169.1211 Q1134.1406,168.9844 1134.6484,168.5352 Q1134.9805,168.2813 1135.1563,168.2031 Q1135.332,168.125 1135.5469,168.125 Q1135.957,168.125 1136.25,168.457 Q1136.5625,168.7695 1136.5625,169.2188 Q1136.5625,169.6484 1136.1328,170.1563 Q1135.5078,170.8984 1134.5117,171.3086 Q1133.2031,171.875 1131.6016,171.875 Q1129.7266,171.875 1128.2227,171.1328 Q1127.0117,170.5469 1126.1523,169.2773 Q1125.3125,168.0078 1125.3125,166.5039 L1125.3125,165.1367 Q1125.3125,163.5742 1126.0547,162.207 Q1126.8164,160.8398 1128.125,160.1172 Q1129.4531,159.375 1130.9375,159.375 Q1131.8359,159.375 1132.6172,159.6875 Q1133.3984,160 1134.0625,160.625 Z " fill="#000000"/><text fill="#000000" font-family="sans-serif" font-size="15" lengthAdjust="spacing" textLength="116.25" x="1157.1875" y="171.1377">LoaderController</text><line style="stroke:#A80036;stroke-width:1.875;" x1="1073.75" x2="1316.25" y1="185" y2="185"/><line style="stroke:#A80036;stroke-width:1.875;" x1="1073.75" x2="1316.25" y1="195" y2="195"/><text fill="#000000" font-family="sans-serif" font-size="13.75" lengthAdjust="spacing" textLength="212.5" x="1080" y="214.2737">+loadShipsByMmsi(String fileName)</text><text fill="#000000" font-family="sans-serif" font-size="13.75" lengthAdjust="spacing" textLength="205" x="1080" y="231.5686">+loadShipsByIMO(String fileName)</text><text fill="#000000" font-family="sans-serif" font-size="13.75" lengthAdjust="spacing" textLength="230" x="1080" y="248.8635">+loadShipsByCallSign(String fileName)</text><!--MD5=[0dc7f2ddb409b58bcf52b12238c25399]
class Ship--><rect codeLine="12" fill="#FEFECE" filter="url(#f1um0ypxm6zkp9)" height="77.2949" id="Ship" style="stroke:#A80036;stroke-width:1.875;" width="747.5" x="8.75" y="355"/><ellipse cx="361.5625" cy="375" fill="#ADD1B2" rx="13.75" ry="13.75" style="stroke:#A80036;stroke-width:1.25;"/><path d="M364.0625,370.625 Q364.3164,370 364.6094,369.6875 Q364.9023,369.375 365.2344,369.375 Q365.8203,369.375 366.1914,369.7266 Q366.5625,370.0781 366.5625,370.8984 L366.5625,372.8516 Q366.5625,373.6719 366.2109,374.0234 Q365.8594,374.375 365.3125,374.375 Q364.8242,374.375 364.5117,374.1602 Q364.1992,373.9453 364.0625,373.3789 Q364.0039,372.9883 363.7891,372.7734 Q363.3984,372.3633 362.6953,372.1289 Q361.9922,371.875 361.2891,371.875 Q360.4102,371.875 359.668,372.2266 Q358.9453,372.5781 358.3789,373.3594 Q357.8125,374.1406 357.8125,375.2148 L357.8125,376.3672 Q357.8125,377.6563 358.8672,378.5156 Q359.9219,379.375 361.7969,379.375 Q362.9102,379.375 363.6914,379.1211 Q364.1406,378.9844 364.6484,378.5352 Q364.9805,378.2813 365.1563,378.2031 Q365.332,378.125 365.5469,378.125 Q365.957,378.125 366.25,378.457 Q366.5625,378.7695 366.5625,379.2188 Q366.5625,379.6484 366.1328,380.1563 Q365.5078,380.8984 364.5117,381.3086 Q363.2031,381.875 361.6016,381.875 Q359.7266,381.875 358.2227,381.1328 Q357.0117,380.5469 356.1523,379.2773 Q355.3125,378.0078 355.3125,376.5039 L355.3125,375.1367 Q355.3125,373.5742 356.0547,372.207 Q356.8164,370.8398 358.125,370.1172 Q359.4531,369.375 360.9375,369.375 Q361.8359,369.375 362.6172,369.6875 Q363.3984,370 364.0625,370.625 Z " fill="#000000"/><text fill="#000000" font-family="sans-serif" font-size="15" lengthAdjust="spacing" textLength="31.25" x="387.1875" y="381.1377">Ship</text><line style="stroke:#A80036;stroke-width:1.875;" x1="10" x2="755" y1="395" y2="395"/><line style="stroke:#A80036;stroke-width:1.875;" x1="10" x2="755" y1="405" y2="405"/><text fill="#000000" font-family="sans-serif" font-size="13.75" lengthAdjust="spacing" textLength="732.5" x="16.25" y="424.2737">+Ship(int mmsi, String vesselName, String imo, String callSign, int vesselType, int length, int width, float draft, String cargo)</text><!--MD5=[76c64cf519b79fd01de2fb03066f8d81]
class AVL--><rect codeLine="16" fill="#FEFECE" filter="url(#f1um0ypxm6zkp9)" height="77.2949" id="AVL" style="stroke:#A80036;stroke-width:1.875;" width="218.75" x="800.625" y="355"/><ellipse cx="891.5625" cy="375" fill="#ADD1B2" rx="13.75" ry="13.75" style="stroke:#A80036;stroke-width:1.25;"/><path d="M894.0625,370.625 Q894.3164,370 894.6094,369.6875 Q894.9023,369.375 895.2344,369.375 Q895.8203,369.375 896.1914,369.7266 Q896.5625,370.0781 896.5625,370.8984 L896.5625,372.8516 Q896.5625,373.6719 896.2109,374.0234 Q895.8594,374.375 895.3125,374.375 Q894.8242,374.375 894.5117,374.1602 Q894.1992,373.9453 894.0625,373.3789 Q894.0039,372.9883 893.7891,372.7734 Q893.3984,372.3633 892.6953,372.1289 Q891.9922,371.875 891.2891,371.875 Q890.4102,371.875 889.668,372.2266 Q888.9453,372.5781 888.3789,373.3594 Q887.8125,374.1406 887.8125,375.2148 L887.8125,376.3672 Q887.8125,377.6563 888.8672,378.5156 Q889.9219,379.375 891.7969,379.375 Q892.9102,379.375 893.6914,379.1211 Q894.1406,378.9844 894.6484,378.5352 Q894.9805,378.2813 895.1563,378.2031 Q895.332,378.125 895.5469,378.125 Q895.957,378.125 896.25,378.457 Q896.5625,378.7695 896.5625,379.2188 Q896.5625,379.6484 896.1328,380.1563 Q895.5078,380.8984 894.5117,381.3086 Q893.2031,381.875 891.6016,381.875 Q889.7266,381.875 888.2227,381.1328 Q887.0117,380.5469 886.1523,379.2773 Q885.3125,378.0078 885.3125,376.5039 L885.3125,375.1367 Q885.3125,373.5742 886.0547,372.207 Q886.8164,370.8398 888.125,370.1172 Q889.4531,369.375 890.9375,369.375 Q891.8359,369.375 892.6172,369.6875 Q893.3984,370 894.0625,370.625 Z " fill="#000000"/><text fill="#000000" font-family="sans-serif" font-size="15" lengthAdjust="spacing" textLength="26.25" x="917.1875" y="381.1377">AVL</text><line style="stroke:#A80036;stroke-width:1.875;" x1="801.875" x2="1018.125" y1="395" y2="395"/><line style="stroke:#A80036;stroke-width:1.875;" x1="801.875" x2="1018.125" y1="405" y2="405"/><text fill="#000000" font-family="sans-serif" font-size="13.75" lengthAdjust="spacing" textLength="203.75" x="808.125" y="424.2737">+insert(E element, Node&lt;E&gt; node)</text><!--MD5=[ddb21f07467a5cf6167a2813fcce3334]
class ShipOrderedByIMO--><rect codeLine="20" fill="#FEFECE" filter="url(#f1um0ypxm6zkp9)" height="77.2949" id="ShipOrderedByIMO" style="stroke:#A80036;stroke-width:1.875;" width="836.25" x="1063.125" y="355"/><ellipse cx="1410.9375" cy="375" fill="#ADD1B2" rx="13.75" ry="13.75" style="stroke:#A80036;stroke-width:1.25;"/><path d="M1413.4375,370.625 Q1413.6914,370 1413.9844,369.6875 Q1414.2773,369.375 1414.6094,369.375 Q1415.1953,369.375 1415.5664,369.7266 Q1415.9375,370.0781 1415.9375,370.8984 L1415.9375,372.8516 Q1415.9375,373.6719 1415.5859,374.0234 Q1415.2344,374.375 1414.6875,374.375 Q1414.1992,374.375 1413.8867,374.1602 Q1413.5742,373.9453 1413.4375,373.3789 Q1413.3789,372.9883 1413.1641,372.7734 Q1412.7734,372.3633 1412.0703,372.1289 Q1411.3672,371.875 1410.6641,371.875 Q1409.7852,371.875 1409.043,372.2266 Q1408.3203,372.5781 1407.7539,373.3594 Q1407.1875,374.1406 1407.1875,375.2148 L1407.1875,376.3672 Q1407.1875,377.6563 1408.2422,378.5156 Q1409.2969,379.375 1411.1719,379.375 Q1412.2852,379.375 1413.0664,379.1211 Q1413.5156,378.9844 1414.0234,378.5352 Q1414.3555,378.2813 1414.5313,378.2031 Q1414.707,378.125 1414.9219,378.125 Q1415.332,378.125 1415.625,378.457 Q1415.9375,378.7695 1415.9375,379.2188 Q1415.9375,379.6484 1415.5078,380.1563 Q1414.8828,380.8984 1413.8867,381.3086 Q1412.5781,381.875 1410.9766,381.875 Q1409.1016,381.875 1407.5977,381.1328 Q1406.3867,380.5469 1405.5273,379.2773 Q1404.6875,378.0078 1404.6875,376.5039 L1404.6875,375.1367 Q1404.6875,373.5742 1405.4297,372.207 Q1406.1914,370.8398 1407.5,370.1172 Q1408.8281,369.375 1410.3125,369.375 Q1411.2109,369.375 1411.9922,369.6875 Q1412.7734,370 1413.4375,370.625 Z " fill="#000000"/><text fill="#000000" font-family="sans-serif" font-size="15" lengthAdjust="spacing" textLength="130" x="1436.5625" y="381.1377">ShipOrderedByIMO</text><line style="stroke:#A80036;stroke-width:1.875;" x1="1064.375" x2="1898.125" y1="395" y2="395"/><line style="stroke:#A80036;stroke-width:1.875;" x1="1064.375" x2="1898.125" y1="405" y2="405"/><text fill="#000000" font-family="sans-serif" font-size="13.75" lengthAdjust="spacing" textLength="821.25" x="1070.625" y="424.2737">+ShipOrderedByIMO(int mmsi, String vesselName, String imo, String callSign, int vesselType, int length, int width, float draft, String cargo)</text><!--MD5=[64839cff583bef17601c839798f5d0e2]
class ShipOrderedByCallSign--><rect codeLine="24" fill="#FEFECE" filter="url(#f1um0ypxm6zkp9)" height="77.2949" id="ShipOrderedByCallSign" style="stroke:#A80036;stroke-width:1.875;" width="861.25" x="1943.125" y="355"/><ellipse cx="2287.1875" cy="375" fill="#ADD1B2" rx="13.75" ry="13.75" style="stroke:#A80036;stroke-width:1.25;"/><path d="M2289.6875,370.625 Q2289.9414,370 2290.2344,369.6875 Q2290.5273,369.375 2290.8594,369.375 Q2291.4453,369.375 2291.8164,369.7266 Q2292.1875,370.0781 2292.1875,370.8984 L2292.1875,372.8516 Q2292.1875,373.6719 2291.8359,374.0234 Q2291.4844,374.375 2290.9375,374.375 Q2290.4492,374.375 2290.1367,374.1602 Q2289.8242,373.9453 2289.6875,373.3789 Q2289.6289,372.9883 2289.4141,372.7734 Q2289.0234,372.3633 2288.3203,372.1289 Q2287.6172,371.875 2286.9141,371.875 Q2286.0352,371.875 2285.293,372.2266 Q2284.5703,372.5781 2284.0039,373.3594 Q2283.4375,374.1406 2283.4375,375.2148 L2283.4375,376.3672 Q2283.4375,377.6563 2284.4922,378.5156 Q2285.5469,379.375 2287.4219,379.375 Q2288.5352,379.375 2289.3164,379.1211 Q2289.7656,378.9844 2290.2734,378.5352 Q2290.6055,378.2813 2290.7813,378.2031 Q2290.957,378.125 2291.1719,378.125 Q2291.582,378.125 2291.875,378.457 Q2292.1875,378.7695 2292.1875,379.2188 Q2292.1875,379.6484 2291.7578,380.1563 Q2291.1328,380.8984 2290.1367,381.3086 Q2288.8281,381.875 2287.2266,381.875 Q2285.3516,381.875 2283.8477,381.1328 Q2282.6367,380.5469 2281.7773,379.2773 Q2280.9375,378.0078 2280.9375,376.5039 L2280.9375,375.1367 Q2280.9375,373.5742 2281.6797,372.207 Q2282.4414,370.8398 2283.75,370.1172 Q2285.0781,369.375 2286.5625,369.375 Q2287.4609,369.375 2288.2422,369.6875 Q2289.0234,370 2289.6875,370.625 Z " fill="#000000"/><text fill="#000000" font-family="sans-serif" font-size="15" lengthAdjust="spacing" textLength="162.5" x="2312.8125" y="381.1377">ShipOrderedByCallSign</text><line style="stroke:#A80036;stroke-width:1.875;" x1="1944.375" x2="2803.125" y1="395" y2="395"/><line style="stroke:#A80036;stroke-width:1.875;" x1="1944.375" x2="2803.125" y1="405" y2="405"/><text fill="#000000" font-family="sans-serif" font-size="13.75" lengthAdjust="spacing" textLength="846.25" x="1950.625" y="424.2737">+ShipOrderedByCallSign(int mmsi, String vesselName, String imo, String callSign, int vesselType, int length, int width, float draft, String cargo)</text><!--MD5=[f2cdb1321c71a84e3b1c799534f1bd01]
link LoadShipUI to LoaderController--><path codeLine="29" d="M1195,68.975 C1195,88.2375 1195,114.275 1195,138.0625 " fill="none" id="LoadShipUI-to-LoaderController" style="stroke:#A80036;stroke-width:1.25;stroke-dasharray:7.0,7.0;"/><polygon fill="#A80036" points="1195,144.7,1200,133.45,1195,138.45,1190,133.45,1195,144.7" style="stroke:#A80036;stroke-width:1.25;"/><!--MD5=[b6ab3f1c0d9977b0dbf0c724aa7107ec]
link LoaderController to Ship--><path codeLine="30" d="M1072.475,231.15 C933.2125,263.7125 705.1,317.0625 549.5875,353.425 " fill="none" id="LoaderController-to-Ship" style="stroke:#A80036;stroke-width:1.25;"/><polygon fill="#A80036" points="543.1625,354.925,555.2507,357.2569,549.2512,353.5144,552.9938,347.515,543.1625,354.925" style="stroke:#A80036;stroke-width:1.25;"/><text fill="#000000" font-family="sans-serif" font-size="16.25" lengthAdjust="spacing" textLength="35" x="790" y="313.1189">uses</text><text fill="#000000" font-family="sans-serif" font-size="16.25" lengthAdjust="spacing" textLength="8.75" x="1053.6127" y="229.6467">1</text><text fill="#000000" font-family="sans-serif" font-size="16.25" lengthAdjust="spacing" textLength="25" x="550.573" y="341.1839">1..*</text><!--MD5=[2796f3206bdec97f00435bd0885ff3bb]
link LoaderController to AVL--><path codeLine="31" d="M1112.1875,257.7125 C1067.3625,287.6 1012.9125,323.8875 971.8125,351.2875 " fill="none" id="LoaderController-to-AVL" style="stroke:#A80036;stroke-width:1.25;"/><polygon fill="#A80036" points="966.3625,354.925,978.4966,352.8449,971.5628,351.4581,972.9496,344.5244,966.3625,354.925" style="stroke:#A80036;stroke-width:1.25;"/><text fill="#000000" font-family="sans-serif" font-size="16.25" lengthAdjust="spacing" textLength="35" x="1053.75" y="313.1189">uses</text><text fill="#000000" font-family="sans-serif" font-size="16.25" lengthAdjust="spacing" textLength="8.75" x="1091.7217" y="283.5832">1</text><text fill="#000000" font-family="sans-serif" font-size="16.25" lengthAdjust="spacing" textLength="8.75" x="968.9848" y="341.1839">1</text><!--MD5=[678e471b45e49465b5d5c2f9450f4843]
link LoaderController to ShipOrderedByIMO--><path codeLine="32" d="M1278.175,257.7125 C1323.2,287.6 1377.8875,323.8875 1419.1625,351.2875 " fill="none" id="LoaderController-to-ShipOrderedByIMO" style="stroke:#A80036;stroke-width:1.25;"/><polygon fill="#A80036" points="1424.6375,354.925,1418.0093,344.5506,1419.4235,351.4788,1412.4953,352.893,1424.6375,354.925" style="stroke:#A80036;stroke-width:1.25;"/><text fill="#000000" font-family="sans-serif" font-size="16.25" lengthAdjust="spacing" textLength="35" x="1366.25" y="313.1189">uses</text><text fill="#000000" font-family="sans-serif" font-size="16.25" lengthAdjust="spacing" textLength="8.75" x="1280.0138" y="283.5832">1</text><text fill="#000000" font-family="sans-serif" font-size="16.25" lengthAdjust="spacing" textLength="8.75" x="1402.5465" y="341.1839">1</text><!--MD5=[b9f18cfb65ccce231bda3c2a03902379]
link LoaderController to ShipOrderedByCallSign--><path codeLine="33" d="M1317.8125,222.3 C1510.4875,253.35 1887.325,314.1 2134.775,353.975 " fill="none" id="LoaderController-to-ShipOrderedByCallSign" style="stroke:#A80036;stroke-width:1.25;"/><polygon fill="#A80036" points="2140.9625,354.975,2130.6589,348.2371,2134.7932,353.9736,2129.0567,358.1079,2140.9625,354.975" style="stroke:#A80036;stroke-width:1.25;"/><text fill="#000000" font-family="sans-serif" font-size="16.25" lengthAdjust="spacing" textLength="35" x="1891.25" y="313.1189">uses</text><text fill="#000000" font-family="sans-serif" font-size="16.25" lengthAdjust="spacing" textLength="8.75" x="1327.5503" y="220.0553">1</text><text fill="#000000" font-family="sans-serif" font-size="16.25" lengthAdjust="spacing" textLength="8.75" x="2080.3332" y="341.2449">1</text><!--MD5=[e56125fdb567c62a19cae1a279eb9a22]
@startuml
skinparam classAttributeIconSize 0

class LoadShipUI{
}

class LoaderController{
+ loadShipsByMmsi(String fileName)
+ loadShipsByIMO(String fileName)
+ loadShipsByCallSign(String fileName)
}

class Ship{
+ Ship(int mmsi, String vesselName, String imo, String callSign, int vesselType, int length, int width, float draft, String cargo)
}

class AVL{
+ insert(E element, Node<E> node)
}

class ShipOrderedByIMO{
+ ShipOrderedByIMO(int mmsi, String vesselName, String imo, String callSign, int vesselType, int length, int width, float draft, String cargo)
}

class ShipOrderedByCallSign{
+ ShipOrderedByCallSign(int mmsi, String vesselName, String imo, String callSign, int vesselType, int length, int width, float draft, String cargo)
}


LoaderController <.up. LoadShipUI
LoaderController "1" - -> "1..*" Ship : uses
LoaderController "1" - -> "1" AVL : uses
LoaderController "1" - -> "1" ShipOrderedByIMO : uses
LoaderController "1" - -> "1" ShipOrderedByCallSign : uses


@enduml

PlantUML version 1.2021.7(Sun May 23 13:40:07 BST 2021)
(GPL source distribution)
Java Runtime: OpenJDK Runtime Environment
JVM: OpenJDK 64-Bit Server VM
Default Encoding: Cp1252
Language: pt
Country: PT
--></g></svg>