<?xml version="1.0" encoding="UTF-8" standalone="no"?><svg xmlns="http://www.w3.org/2000/svg" xmlns:xlink="http://www.w3.org/1999/xlink" contentScriptType="application/ecmascript" contentStyleType="text/css" height="675px" preserveAspectRatio="none" style="width:1786px;height:675px;background:#FFFFFF;" version="1.1" viewBox="0 0 1786 675" width="1786.25px" zoomAndPan="magnify"><defs><filter height="300%" id="fyvnnpprx42yo" width="300%" x="-1" y="-1"><feGaussianBlur result="blurOut" stdDeviation="2.5"/><feColorMatrix in="blurOut" result="blurOut2" type="matrix" values="0 0 0 0 0 0 0 0 0 0 0 0 0 0 0 0 0 0 .4 0"/><feOffset dx="5.0" dy="5.0" in="blurOut2" result="blurOut3"/><feBlend in="SourceGraphic" in2="blurOut3" mode="normal"/></filter></defs><g><!--MD5=[97bce4bfbfec19f12d82207de57a2835]
class WareHouseUI--><rect codeLine="3" fill="#FEFECE" filter="url(#fyvnnpprx42yo)" height="60" id="WareHouseUI" style="stroke:#A80036;stroke-width:1.875;" width="137.5" x="69.375" y="8.75"/><ellipse cx="88.125" cy="28.75" fill="#ADD1B2" rx="13.75" ry="13.75" style="stroke:#A80036;stroke-width:1.25;"/><path d="M90.625,24.375 Q90.8789,23.75 91.1719,23.4375 Q91.4648,23.125 91.7969,23.125 Q92.3828,23.125 92.7539,23.4766 Q93.125,23.8281 93.125,24.6484 L93.125,26.6016 Q93.125,27.4219 92.7734,27.7734 Q92.4219,28.125 91.875,28.125 Q91.3867,28.125 91.0742,27.9102 Q90.7617,27.6953 90.625,27.1289 Q90.5664,26.7383 90.3516,26.5234 Q89.9609,26.1133 89.2578,25.8789 Q88.5547,25.625 87.8516,25.625 Q86.9727,25.625 86.2305,25.9766 Q85.5078,26.3281 84.9414,27.1094 Q84.375,27.8906 84.375,28.9648 L84.375,30.1172 Q84.375,31.4063 85.4297,32.2656 Q86.4844,33.125 88.3594,33.125 Q89.4727,33.125 90.2539,32.8711 Q90.7031,32.7344 91.2109,32.2852 Q91.543,32.0313 91.7188,31.9531 Q91.8945,31.875 92.1094,31.875 Q92.5195,31.875 92.8125,32.207 Q93.125,32.5195 93.125,32.9688 Q93.125,33.3984 92.6953,33.9063 Q92.0703,34.6484 91.0742,35.0586 Q89.7656,35.625 88.1641,35.625 Q86.2891,35.625 84.7852,34.8828 Q83.5742,34.2969 82.7148,33.0273 Q81.875,31.7578 81.875,30.2539 L81.875,28.8867 Q81.875,27.3242 82.6172,25.957 Q83.3789,24.5898 84.6875,23.8672 Q86.0156,23.125 87.5,23.125 Q88.3984,23.125 89.1797,23.4375 Q89.9609,23.75 90.625,24.375 Z " fill="#000000"/><text fill="#000000" font-family="sans-serif" font-size="15" lengthAdjust="spacing" textLength="97.5" x="105.625" y="34.8877">WareHouseUI</text><line style="stroke:#A80036;stroke-width:1.875;" x1="70.625" x2="205.625" y1="48.75" y2="48.75"/><line style="stroke:#A80036;stroke-width:1.875;" x1="70.625" x2="205.625" y1="58.75" y2="58.75"/><!--MD5=[ff819031fef7535416fa9fe4c21efb3a]
class WareHouseController--><rect codeLine="6" fill="#FEFECE" filter="url(#fyvnnpprx42yo)" height="111.8848" id="WareHouseController" style="stroke:#A80036;stroke-width:1.875;" width="251.25" x="12.5" y="145"/><ellipse cx="58.8125" cy="165" fill="#ADD1B2" rx="13.75" ry="13.75" style="stroke:#A80036;stroke-width:1.25;"/><path d="M61.3125,160.625 Q61.5664,160 61.8594,159.6875 Q62.1523,159.375 62.4844,159.375 Q63.0703,159.375 63.4414,159.7266 Q63.8125,160.0781 63.8125,160.8984 L63.8125,162.8516 Q63.8125,163.6719 63.4609,164.0234 Q63.1094,164.375 62.5625,164.375 Q62.0742,164.375 61.7617,164.1602 Q61.4492,163.9453 61.3125,163.3789 Q61.2539,162.9883 61.0391,162.7734 Q60.6484,162.3633 59.9453,162.1289 Q59.2422,161.875 58.5391,161.875 Q57.6602,161.875 56.918,162.2266 Q56.1953,162.5781 55.6289,163.3594 Q55.0625,164.1406 55.0625,165.2148 L55.0625,166.3672 Q55.0625,167.6563 56.1172,168.5156 Q57.1719,169.375 59.0469,169.375 Q60.1602,169.375 60.9414,169.1211 Q61.3906,168.9844 61.8984,168.5352 Q62.2305,168.2813 62.4063,168.2031 Q62.582,168.125 62.7969,168.125 Q63.207,168.125 63.5,168.457 Q63.8125,168.7695 63.8125,169.2188 Q63.8125,169.6484 63.3828,170.1563 Q62.7578,170.8984 61.7617,171.3086 Q60.4531,171.875 58.8516,171.875 Q56.9766,171.875 55.4727,171.1328 Q54.2617,170.5469 53.4023,169.2773 Q52.5625,168.0078 52.5625,166.5039 L52.5625,165.1367 Q52.5625,163.5742 53.3047,162.207 Q54.0664,160.8398 55.375,160.1172 Q56.7031,159.375 58.1875,159.375 Q59.0859,159.375 59.8672,159.6875 Q60.6484,160 61.3125,160.625 Z " fill="#000000"/><text fill="#000000" font-family="sans-serif" font-size="15" lengthAdjust="spacing" textLength="150" x="82.4375" y="171.1377">WareHouseController</text><line style="stroke:#A80036;stroke-width:1.875;" x1="13.75" x2="262.5" y1="185" y2="185"/><line style="stroke:#A80036;stroke-width:1.875;" x1="13.75" x2="262.5" y1="195" y2="195"/><text fill="#000000" font-family="sans-serif" font-size="13.75" lengthAdjust="spacing" textLength="168.75" x="20" y="214.2737">+getWareHouseAvailabilty()</text><text fill="#000000" font-family="sans-serif" font-size="13.75" lengthAdjust="spacing" textLength="167.5" x="20" y="231.5686">+getWareHouseEstimation()</text><text fill="#000000" font-family="sans-serif" font-size="13.75" lengthAdjust="spacing" textLength="236.25" x="20" y="248.8635">+getResourceList(int portId, String day)</text><!--MD5=[0b8a0869bb17c5d05015d74abb8e1141]
class ConnectionFactory--><rect codeLine="12" fill="#FEFECE" filter="url(#fyvnnpprx42yo)" height="94.5898" id="ConnectionFactory" style="stroke:#A80036;stroke-width:1.875;" width="176.25" x="8.75" y="371.875"/><ellipse cx="31.4375" cy="391.875" fill="#ADD1B2" rx="13.75" ry="13.75" style="stroke:#A80036;stroke-width:1.25;"/><path d="M33.9375,387.5 Q34.1914,386.875 34.4844,386.5625 Q34.7773,386.25 35.1094,386.25 Q35.6953,386.25 36.0664,386.6016 Q36.4375,386.9531 36.4375,387.7734 L36.4375,389.7266 Q36.4375,390.5469 36.0859,390.8984 Q35.7344,391.25 35.1875,391.25 Q34.6992,391.25 34.3867,391.0352 Q34.0742,390.8203 33.9375,390.2539 Q33.8789,389.8633 33.6641,389.6484 Q33.2734,389.2383 32.5703,389.0039 Q31.8672,388.75 31.1641,388.75 Q30.2852,388.75 29.543,389.1016 Q28.8203,389.4531 28.2539,390.2344 Q27.6875,391.0156 27.6875,392.0898 L27.6875,393.2422 Q27.6875,394.5313 28.7422,395.3906 Q29.7969,396.25 31.6719,396.25 Q32.7852,396.25 33.5664,395.9961 Q34.0156,395.8594 34.5234,395.4102 Q34.8555,395.1563 35.0313,395.0781 Q35.207,395 35.4219,395 Q35.832,395 36.125,395.332 Q36.4375,395.6445 36.4375,396.0938 Q36.4375,396.5234 36.0078,397.0313 Q35.3828,397.7734 34.3867,398.1836 Q33.0781,398.75 31.4766,398.75 Q29.6016,398.75 28.0977,398.0078 Q26.8867,397.4219 26.0273,396.1523 Q25.1875,394.8828 25.1875,393.3789 L25.1875,392.0117 Q25.1875,390.4492 25.9297,389.082 Q26.6914,387.7148 28,386.9922 Q29.3281,386.25 30.8125,386.25 Q31.7109,386.25 32.4922,386.5625 Q33.2734,386.875 33.9375,387.5 Z " fill="#000000"/><text fill="#000000" font-family="sans-serif" font-size="15" lengthAdjust="spacing" textLength="127.5" x="49.8125" y="398.0127">ConnectionFactory</text><line style="stroke:#A80036;stroke-width:1.875;" x1="10" x2="183.75" y1="411.875" y2="411.875"/><line style="stroke:#A80036;stroke-width:1.875;" x1="10" x2="183.75" y1="421.875" y2="421.875"/><text fill="#000000" font-family="sans-serif" font-size="13.75" lengthAdjust="spacing" textLength="87.5" x="16.25" y="441.1487">+getInstance()</text><text fill="#000000" font-family="sans-serif" font-size="13.75" lengthAdjust="spacing" textLength="161.25" x="16.25" y="458.4436">+getDatabaseConnection()</text><!--MD5=[4ebfed50a2843d6810d5f28a3ed1348c]
class CargoManifestStore--><rect codeLine="17" fill="#FEFECE" filter="url(#fyvnnpprx42yo)" height="129.1797" id="CargoManifestStore" style="stroke:#A80036;stroke-width:1.875;" width="511.25" x="228.75" y="355"/><ellipse cx="410.9375" cy="375" fill="#ADD1B2" rx="13.75" ry="13.75" style="stroke:#A80036;stroke-width:1.25;"/><path d="M413.4375,370.625 Q413.6914,370 413.9844,369.6875 Q414.2773,369.375 414.6094,369.375 Q415.1953,369.375 415.5664,369.7266 Q415.9375,370.0781 415.9375,370.8984 L415.9375,372.8516 Q415.9375,373.6719 415.5859,374.0234 Q415.2344,374.375 414.6875,374.375 Q414.1992,374.375 413.8867,374.1602 Q413.5742,373.9453 413.4375,373.3789 Q413.3789,372.9883 413.1641,372.7734 Q412.7734,372.3633 412.0703,372.1289 Q411.3672,371.875 410.6641,371.875 Q409.7852,371.875 409.043,372.2266 Q408.3203,372.5781 407.7539,373.3594 Q407.1875,374.1406 407.1875,375.2148 L407.1875,376.3672 Q407.1875,377.6563 408.2422,378.5156 Q409.2969,379.375 411.1719,379.375 Q412.2852,379.375 413.0664,379.1211 Q413.5156,378.9844 414.0234,378.5352 Q414.3555,378.2813 414.5313,378.2031 Q414.707,378.125 414.9219,378.125 Q415.332,378.125 415.625,378.457 Q415.9375,378.7695 415.9375,379.2188 Q415.9375,379.6484 415.5078,380.1563 Q414.8828,380.8984 413.8867,381.3086 Q412.5781,381.875 410.9766,381.875 Q409.1016,381.875 407.5977,381.1328 Q406.3867,380.5469 405.5273,379.2773 Q404.6875,378.0078 404.6875,376.5039 L404.6875,375.1367 Q404.6875,373.5742 405.4297,372.207 Q406.1914,370.8398 407.5,370.1172 Q408.8281,369.375 410.3125,369.375 Q411.2109,369.375 411.9922,369.6875 Q412.7734,370 413.4375,370.625 Z " fill="#000000"/><text fill="#000000" font-family="sans-serif" font-size="15" lengthAdjust="spacing" textLength="136.25" x="436.5625" y="381.1377">CargoManifestStore</text><line style="stroke:#A80036;stroke-width:1.875;" x1="230" x2="738.75" y1="395" y2="395"/><line style="stroke:#A80036;stroke-width:1.875;" x1="230" x2="738.75" y1="405" y2="405"/><text fill="#000000" font-family="sans-serif" font-size="13.75" lengthAdjust="spacing" textLength="458.75" x="236.25" y="424.2737">+wareHouseOccupancyByDate (DatabaseConnection databaseConnection)</text><text fill="#000000" font-family="sans-serif" font-size="13.75" lengthAdjust="spacing" textLength="401.25" x="236.25" y="441.5686">+wareHouseEstimation(DatabaseConnection databaseConnection)</text><text fill="#000000" font-family="sans-serif" font-size="13.75" lengthAdjust="spacing" textLength="345" x="236.25" y="458.8635">+getAuditTrail(DatabaseConnection databaseConnection)</text><text fill="#000000" font-family="sans-serif" font-size="13.75" lengthAdjust="spacing" textLength="496.25" x="236.25" y="476.1584">+getResourceList(DatabaseConnection databaseConnection, int portId, String day)</text><!--MD5=[8aa441cdd93a4e2944eff58bc06cd78a]
class DatabaseConnection--><rect codeLine="24" fill="#FEFECE" filter="url(#fyvnnpprx42yo)" height="77.2949" id="DatabaseConnection" style="stroke:#A80036;stroke-width:1.875;" width="186.25" x="391.25" y="581.25"/><ellipse cx="410" cy="601.25" fill="#ADD1B2" rx="13.75" ry="13.75" style="stroke:#A80036;stroke-width:1.25;"/><path d="M412.5,596.875 Q412.7539,596.25 413.0469,595.9375 Q413.3398,595.625 413.6719,595.625 Q414.2578,595.625 414.6289,595.9766 Q415,596.3281 415,597.1484 L415,599.1016 Q415,599.9219 414.6484,600.2734 Q414.2969,600.625 413.75,600.625 Q413.2617,600.625 412.9492,600.4102 Q412.6367,600.1953 412.5,599.6289 Q412.4414,599.2383 412.2266,599.0234 Q411.8359,598.6133 411.1328,598.3789 Q410.4297,598.125 409.7266,598.125 Q408.8477,598.125 408.1055,598.4766 Q407.3828,598.8281 406.8164,599.6094 Q406.25,600.3906 406.25,601.4648 L406.25,602.6172 Q406.25,603.9063 407.3047,604.7656 Q408.3594,605.625 410.2344,605.625 Q411.3477,605.625 412.1289,605.3711 Q412.5781,605.2344 413.0859,604.7852 Q413.418,604.5313 413.5938,604.4531 Q413.7695,604.375 413.9844,604.375 Q414.3945,604.375 414.6875,604.707 Q415,605.0195 415,605.4688 Q415,605.8984 414.5703,606.4063 Q413.9453,607.1484 412.9492,607.5586 Q411.6406,608.125 410.0391,608.125 Q408.1641,608.125 406.6602,607.3828 Q405.4492,606.7969 404.5898,605.5273 Q403.75,604.2578 403.75,602.7539 L403.75,601.3867 Q403.75,599.8242 404.4922,598.457 Q405.2539,597.0898 406.5625,596.3672 Q407.8906,595.625 409.375,595.625 Q410.2734,595.625 411.0547,595.9375 Q411.8359,596.25 412.5,596.875 Z " fill="#000000"/><text fill="#000000" font-family="sans-serif" font-size="15" lengthAdjust="spacing" textLength="146.25" x="427.5" y="607.3877">DatabaseConnection</text><line style="stroke:#A80036;stroke-width:1.875;" x1="392.5" x2="576.25" y1="621.25" y2="621.25"/><line style="stroke:#A80036;stroke-width:1.875;" x1="392.5" x2="576.25" y1="631.25" y2="631.25"/><text fill="#000000" font-family="sans-serif" font-size="13.75" lengthAdjust="spacing" textLength="103.75" x="398.75" y="650.5237">+getConnection()</text><!--MD5=[a786cbaf3b7bb76deab6d319a31c30ee]
class AuditTrailUI--><rect codeLine="28" fill="#FEFECE" filter="url(#fyvnnpprx42yo)" height="60" id="AuditTrailUI" style="stroke:#A80036;stroke-width:1.875;" width="118.75" x="343.75" y="8.75"/><ellipse cx="362.5" cy="28.75" fill="#ADD1B2" rx="13.75" ry="13.75" style="stroke:#A80036;stroke-width:1.25;"/><path d="M365,24.375 Q365.2539,23.75 365.5469,23.4375 Q365.8398,23.125 366.1719,23.125 Q366.7578,23.125 367.1289,23.4766 Q367.5,23.8281 367.5,24.6484 L367.5,26.6016 Q367.5,27.4219 367.1484,27.7734 Q366.7969,28.125 366.25,28.125 Q365.7617,28.125 365.4492,27.9102 Q365.1367,27.6953 365,27.1289 Q364.9414,26.7383 364.7266,26.5234 Q364.3359,26.1133 363.6328,25.8789 Q362.9297,25.625 362.2266,25.625 Q361.3477,25.625 360.6055,25.9766 Q359.8828,26.3281 359.3164,27.1094 Q358.75,27.8906 358.75,28.9648 L358.75,30.1172 Q358.75,31.4063 359.8047,32.2656 Q360.8594,33.125 362.7344,33.125 Q363.8477,33.125 364.6289,32.8711 Q365.0781,32.7344 365.5859,32.2852 Q365.918,32.0313 366.0938,31.9531 Q366.2695,31.875 366.4844,31.875 Q366.8945,31.875 367.1875,32.207 Q367.5,32.5195 367.5,32.9688 Q367.5,33.3984 367.0703,33.9063 Q366.4453,34.6484 365.4492,35.0586 Q364.1406,35.625 362.5391,35.625 Q360.6641,35.625 359.1602,34.8828 Q357.9492,34.2969 357.0898,33.0273 Q356.25,31.7578 356.25,30.2539 L356.25,28.8867 Q356.25,27.3242 356.9922,25.957 Q357.7539,24.5898 359.0625,23.8672 Q360.3906,23.125 361.875,23.125 Q362.7734,23.125 363.5547,23.4375 Q364.3359,23.75 365,24.375 Z " fill="#000000"/><text fill="#000000" font-family="sans-serif" font-size="15" lengthAdjust="spacing" textLength="78.75" x="380" y="34.8877">AuditTrailUI</text><line style="stroke:#A80036;stroke-width:1.875;" x1="345" x2="461.25" y1="48.75" y2="48.75"/><line style="stroke:#A80036;stroke-width:1.875;" x1="345" x2="461.25" y1="58.75" y2="58.75"/><!--MD5=[db5a2dc7bd09e145a88cbebb0a532daa]
class AuditTrailController--><rect codeLine="31" fill="#FEFECE" filter="url(#fyvnnpprx42yo)" height="77.2949" id="AuditTrailController" style="stroke:#A80036;stroke-width:1.875;" width="171.25" x="317.5" y="162.5"/><ellipse cx="336.25" cy="182.5" fill="#ADD1B2" rx="13.75" ry="13.75" style="stroke:#A80036;stroke-width:1.25;"/><path d="M338.75,178.125 Q339.0039,177.5 339.2969,177.1875 Q339.5898,176.875 339.9219,176.875 Q340.5078,176.875 340.8789,177.2266 Q341.25,177.5781 341.25,178.3984 L341.25,180.3516 Q341.25,181.1719 340.8984,181.5234 Q340.5469,181.875 340,181.875 Q339.5117,181.875 339.1992,181.6602 Q338.8867,181.4453 338.75,180.8789 Q338.6914,180.4883 338.4766,180.2734 Q338.0859,179.8633 337.3828,179.6289 Q336.6797,179.375 335.9766,179.375 Q335.0977,179.375 334.3555,179.7266 Q333.6328,180.0781 333.0664,180.8594 Q332.5,181.6406 332.5,182.7148 L332.5,183.8672 Q332.5,185.1563 333.5547,186.0156 Q334.6094,186.875 336.4844,186.875 Q337.5977,186.875 338.3789,186.6211 Q338.8281,186.4844 339.3359,186.0352 Q339.668,185.7813 339.8438,185.7031 Q340.0195,185.625 340.2344,185.625 Q340.6445,185.625 340.9375,185.957 Q341.25,186.2695 341.25,186.7188 Q341.25,187.1484 340.8203,187.6563 Q340.1953,188.3984 339.1992,188.8086 Q337.8906,189.375 336.2891,189.375 Q334.4141,189.375 332.9102,188.6328 Q331.6992,188.0469 330.8398,186.7773 Q330,185.5078 330,184.0039 L330,182.6367 Q330,181.0742 330.7422,179.707 Q331.5039,178.3398 332.8125,177.6172 Q334.1406,176.875 335.625,176.875 Q336.5234,176.875 337.3047,177.1875 Q338.0859,177.5 338.75,178.125 Z " fill="#000000"/><text fill="#000000" font-family="sans-serif" font-size="15" lengthAdjust="spacing" textLength="131.25" x="353.75" y="188.6377">AuditTrailController</text><line style="stroke:#A80036;stroke-width:1.875;" x1="318.75" x2="487.5" y1="202.5" y2="202.5"/><line style="stroke:#A80036;stroke-width:1.875;" x1="318.75" x2="487.5" y1="212.5" y2="212.5"/><text fill="#000000" font-family="sans-serif" font-size="13.75" lengthAdjust="spacing" textLength="92.5" x="325" y="231.7737">+getAuditTrail()</text><!--MD5=[fa5993aaaae4dea17a93af6b58445d04]
class BuildGraphUI--><rect codeLine="35" fill="#FEFECE" filter="url(#fyvnnpprx42yo)" height="60" id="BuildGraphUI" style="stroke:#A80036;stroke-width:1.875;" width="132.5" x="1065.625" y="8.75"/><ellipse cx="1084.375" cy="28.75" fill="#ADD1B2" rx="13.75" ry="13.75" style="stroke:#A80036;stroke-width:1.25;"/><path d="M1086.875,24.375 Q1087.1289,23.75 1087.4219,23.4375 Q1087.7148,23.125 1088.0469,23.125 Q1088.6328,23.125 1089.0039,23.4766 Q1089.375,23.8281 1089.375,24.6484 L1089.375,26.6016 Q1089.375,27.4219 1089.0234,27.7734 Q1088.6719,28.125 1088.125,28.125 Q1087.6367,28.125 1087.3242,27.9102 Q1087.0117,27.6953 1086.875,27.1289 Q1086.8164,26.7383 1086.6016,26.5234 Q1086.2109,26.1133 1085.5078,25.8789 Q1084.8047,25.625 1084.1016,25.625 Q1083.2227,25.625 1082.4805,25.9766 Q1081.7578,26.3281 1081.1914,27.1094 Q1080.625,27.8906 1080.625,28.9648 L1080.625,30.1172 Q1080.625,31.4063 1081.6797,32.2656 Q1082.7344,33.125 1084.6094,33.125 Q1085.7227,33.125 1086.5039,32.8711 Q1086.9531,32.7344 1087.4609,32.2852 Q1087.793,32.0313 1087.9688,31.9531 Q1088.1445,31.875 1088.3594,31.875 Q1088.7695,31.875 1089.0625,32.207 Q1089.375,32.5195 1089.375,32.9688 Q1089.375,33.3984 1088.9453,33.9063 Q1088.3203,34.6484 1087.3242,35.0586 Q1086.0156,35.625 1084.4141,35.625 Q1082.5391,35.625 1081.0352,34.8828 Q1079.8242,34.2969 1078.9648,33.0273 Q1078.125,31.7578 1078.125,30.2539 L1078.125,28.8867 Q1078.125,27.3242 1078.8672,25.957 Q1079.6289,24.5898 1080.9375,23.8672 Q1082.2656,23.125 1083.75,23.125 Q1084.6484,23.125 1085.4297,23.4375 Q1086.2109,23.75 1086.875,24.375 Z " fill="#000000"/><text fill="#000000" font-family="sans-serif" font-size="15" lengthAdjust="spacing" textLength="92.5" x="1101.875" y="34.8877">BuildGraphUI</text><line style="stroke:#A80036;stroke-width:1.875;" x1="1066.875" x2="1196.875" y1="48.75" y2="48.75"/><line style="stroke:#A80036;stroke-width:1.875;" x1="1066.875" x2="1196.875" y1="58.75" y2="58.75"/><!--MD5=[18128de1fe664899f0e69258e7bde033]
class CountryController--><rect codeLine="38" fill="#FEFECE" filter="url(#fyvnnpprx42yo)" height="77.2949" id="CountryController" style="stroke:#A80036;stroke-width:1.875;" width="206.25" x="1028.75" y="162.5"/><ellipse cx="1068.3125" cy="182.5" fill="#ADD1B2" rx="13.75" ry="13.75" style="stroke:#A80036;stroke-width:1.25;"/><path d="M1070.8125,178.125 Q1071.0664,177.5 1071.3594,177.1875 Q1071.6523,176.875 1071.9844,176.875 Q1072.5703,176.875 1072.9414,177.2266 Q1073.3125,177.5781 1073.3125,178.3984 L1073.3125,180.3516 Q1073.3125,181.1719 1072.9609,181.5234 Q1072.6094,181.875 1072.0625,181.875 Q1071.5742,181.875 1071.2617,181.6602 Q1070.9492,181.4453 1070.8125,180.8789 Q1070.7539,180.4883 1070.5391,180.2734 Q1070.1484,179.8633 1069.4453,179.6289 Q1068.7422,179.375 1068.0391,179.375 Q1067.1602,179.375 1066.418,179.7266 Q1065.6953,180.0781 1065.1289,180.8594 Q1064.5625,181.6406 1064.5625,182.7148 L1064.5625,183.8672 Q1064.5625,185.1563 1065.6172,186.0156 Q1066.6719,186.875 1068.5469,186.875 Q1069.6602,186.875 1070.4414,186.6211 Q1070.8906,186.4844 1071.3984,186.0352 Q1071.7305,185.7813 1071.9063,185.7031 Q1072.082,185.625 1072.2969,185.625 Q1072.707,185.625 1073,185.957 Q1073.3125,186.2695 1073.3125,186.7188 Q1073.3125,187.1484 1072.8828,187.6563 Q1072.2578,188.3984 1071.2617,188.8086 Q1069.9531,189.375 1068.3516,189.375 Q1066.4766,189.375 1064.9727,188.6328 Q1063.7617,188.0469 1062.9023,186.7773 Q1062.0625,185.5078 1062.0625,184.0039 L1062.0625,182.6367 Q1062.0625,181.0742 1062.8047,179.707 Q1063.5664,178.3398 1064.875,177.6172 Q1066.2031,176.875 1067.6875,176.875 Q1068.5859,176.875 1069.3672,177.1875 Q1070.1484,177.5 1070.8125,178.125 Z " fill="#000000"/><text fill="#000000" font-family="sans-serif" font-size="15" lengthAdjust="spacing" textLength="120" x="1090.4375" y="188.6377">CountryController</text><line style="stroke:#A80036;stroke-width:1.875;" x1="1030" x2="1233.75" y1="202.5" y2="202.5"/><line style="stroke:#A80036;stroke-width:1.875;" x1="1030" x2="1233.75" y1="212.5" y2="212.5"/><text fill="#000000" font-family="sans-serif" font-size="13.75" lengthAdjust="spacing" textLength="191.25" x="1036.25" y="231.7737">+buildGraph(int numberOfPorts)</text><!--MD5=[b7b072196a724e538165319251b4d539]
class MatrixGraph--><rect codeLine="42" fill="#FEFECE" filter="url(#fyvnnpprx42yo)" height="94.5898" id="MatrixGraph" style="stroke:#A80036;stroke-width:1.875;" width="247.5" x="784.375" y="371.875"/><ellipse cx="862.1875" cy="391.875" fill="#ADD1B2" rx="13.75" ry="13.75" style="stroke:#A80036;stroke-width:1.25;"/><path d="M864.6875,387.5 Q864.9414,386.875 865.2344,386.5625 Q865.5273,386.25 865.8594,386.25 Q866.4453,386.25 866.8164,386.6016 Q867.1875,386.9531 867.1875,387.7734 L867.1875,389.7266 Q867.1875,390.5469 866.8359,390.8984 Q866.4844,391.25 865.9375,391.25 Q865.4492,391.25 865.1367,391.0352 Q864.8242,390.8203 864.6875,390.2539 Q864.6289,389.8633 864.4141,389.6484 Q864.0234,389.2383 863.3203,389.0039 Q862.6172,388.75 861.9141,388.75 Q861.0352,388.75 860.293,389.1016 Q859.5703,389.4531 859.0039,390.2344 Q858.4375,391.0156 858.4375,392.0898 L858.4375,393.2422 Q858.4375,394.5313 859.4922,395.3906 Q860.5469,396.25 862.4219,396.25 Q863.5352,396.25 864.3164,395.9961 Q864.7656,395.8594 865.2734,395.4102 Q865.6055,395.1563 865.7813,395.0781 Q865.957,395 866.1719,395 Q866.582,395 866.875,395.332 Q867.1875,395.6445 867.1875,396.0938 Q867.1875,396.5234 866.7578,397.0313 Q866.1328,397.7734 865.1367,398.1836 Q863.8281,398.75 862.2266,398.75 Q860.3516,398.75 858.8477,398.0078 Q857.6367,397.4219 856.7773,396.1523 Q855.9375,394.8828 855.9375,393.3789 L855.9375,392.0117 Q855.9375,390.4492 856.6797,389.082 Q857.4414,387.7148 858.75,386.9922 Q860.0781,386.25 861.5625,386.25 Q862.4609,386.25 863.2422,386.5625 Q864.0234,386.875 864.6875,387.5 Z " fill="#000000"/><text fill="#000000" font-family="sans-serif" font-size="15" lengthAdjust="spacing" textLength="81.25" x="887.8125" y="398.0127">MatrixGraph</text><line style="stroke:#A80036;stroke-width:1.875;" x1="785.625" x2="1030.625" y1="411.875" y2="411.875"/><line style="stroke:#A80036;stroke-width:1.875;" x1="785.625" x2="1030.625" y1="421.875" y2="421.875"/><text fill="#000000" font-family="sans-serif" font-size="13.75" lengthAdjust="spacing" textLength="118.75" x="791.875" y="441.1487">+addVertex(V vert)</text><text fill="#000000" font-family="sans-serif" font-size="13.75" lengthAdjust="spacing" textLength="232.5" x="791.875" y="458.4436">+addEdge(V vOrig, V vDest, E weight)</text><!--MD5=[deb4e1f6eb1e3c1256fdb830f96abfbb]
class Country--><rect codeLine="47" fill="#FEFECE" filter="url(#fyvnnpprx42yo)" height="77.2949" id="Country" style="stroke:#A80036;stroke-width:1.875;" width="112.5" x="1075.625" y="380.625"/><ellipse cx="1103.375" cy="400.625" fill="#ADD1B2" rx="13.75" ry="13.75" style="stroke:#A80036;stroke-width:1.25;"/><path d="M1105.875,396.25 Q1106.1289,395.625 1106.4219,395.3125 Q1106.7148,395 1107.0469,395 Q1107.6328,395 1108.0039,395.3516 Q1108.375,395.7031 1108.375,396.5234 L1108.375,398.4766 Q1108.375,399.2969 1108.0234,399.6484 Q1107.6719,400 1107.125,400 Q1106.6367,400 1106.3242,399.7852 Q1106.0117,399.5703 1105.875,399.0039 Q1105.8164,398.6133 1105.6016,398.3984 Q1105.2109,397.9883 1104.5078,397.7539 Q1103.8047,397.5 1103.1016,397.5 Q1102.2227,397.5 1101.4805,397.8516 Q1100.7578,398.2031 1100.1914,398.9844 Q1099.625,399.7656 1099.625,400.8398 L1099.625,401.9922 Q1099.625,403.2813 1100.6797,404.1406 Q1101.7344,405 1103.6094,405 Q1104.7227,405 1105.5039,404.7461 Q1105.9531,404.6094 1106.4609,404.1602 Q1106.793,403.9063 1106.9688,403.8281 Q1107.1445,403.75 1107.3594,403.75 Q1107.7695,403.75 1108.0625,404.082 Q1108.375,404.3945 1108.375,404.8438 Q1108.375,405.2734 1107.9453,405.7813 Q1107.3203,406.5234 1106.3242,406.9336 Q1105.0156,407.5 1103.4141,407.5 Q1101.5391,407.5 1100.0352,406.7578 Q1098.8242,406.1719 1097.9648,404.9023 Q1097.125,403.6328 1097.125,402.1289 L1097.125,400.7617 Q1097.125,399.1992 1097.8672,397.832 Q1098.6289,396.4648 1099.9375,395.7422 Q1101.2656,395 1102.75,395 Q1103.6484,395 1104.4297,395.3125 Q1105.2109,395.625 1105.875,396.25 Z " fill="#000000"/><text fill="#000000" font-family="sans-serif" font-size="15" lengthAdjust="spacing" textLength="52.5" x="1122.875" y="406.7627">Country</text><line style="stroke:#A80036;stroke-width:1.875;" x1="1076.875" x2="1186.875" y1="420.625" y2="420.625"/><line style="stroke:#A80036;stroke-width:1.875;" x1="1076.875" x2="1186.875" y1="430.625" y2="430.625"/><text fill="#000000" font-family="sans-serif" font-size="13.75" lengthAdjust="spacing" textLength="97.5" x="1083.125" y="449.8987">+getFronteiras()</text><!--MD5=[d66f0bc35a4401165692cb71d5fbb22a]
class GPS--><rect codeLine="51" fill="#FEFECE" filter="url(#fyvnnpprx42yo)" height="77.2949" id="GPS" style="stroke:#A80036;stroke-width:1.875;" width="537.5" x="1231.875" y="380.625"/><ellipse cx="1479.6875" cy="400.625" fill="#ADD1B2" rx="13.75" ry="13.75" style="stroke:#A80036;stroke-width:1.25;"/><path d="M1482.1875,396.25 Q1482.4414,395.625 1482.7344,395.3125 Q1483.0273,395 1483.3594,395 Q1483.9453,395 1484.3164,395.3516 Q1484.6875,395.7031 1484.6875,396.5234 L1484.6875,398.4766 Q1484.6875,399.2969 1484.3359,399.6484 Q1483.9844,400 1483.4375,400 Q1482.9492,400 1482.6367,399.7852 Q1482.3242,399.5703 1482.1875,399.0039 Q1482.1289,398.6133 1481.9141,398.3984 Q1481.5234,397.9883 1480.8203,397.7539 Q1480.1172,397.5 1479.4141,397.5 Q1478.5352,397.5 1477.793,397.8516 Q1477.0703,398.2031 1476.5039,398.9844 Q1475.9375,399.7656 1475.9375,400.8398 L1475.9375,401.9922 Q1475.9375,403.2813 1476.9922,404.1406 Q1478.0469,405 1479.9219,405 Q1481.0352,405 1481.8164,404.7461 Q1482.2656,404.6094 1482.7734,404.1602 Q1483.1055,403.9063 1483.2813,403.8281 Q1483.457,403.75 1483.6719,403.75 Q1484.082,403.75 1484.375,404.082 Q1484.6875,404.3945 1484.6875,404.8438 Q1484.6875,405.2734 1484.2578,405.7813 Q1483.6328,406.5234 1482.6367,406.9336 Q1481.3281,407.5 1479.7266,407.5 Q1477.8516,407.5 1476.3477,406.7578 Q1475.1367,406.1719 1474.2773,404.9023 Q1473.4375,403.6328 1473.4375,402.1289 L1473.4375,400.7617 Q1473.4375,399.1992 1474.1797,397.832 Q1474.9414,396.4648 1476.25,395.7422 Q1477.5781,395 1479.0625,395 Q1479.9609,395 1480.7422,395.3125 Q1481.5234,395.625 1482.1875,396.25 Z " fill="#000000"/><text fill="#000000" font-family="sans-serif" font-size="15" lengthAdjust="spacing" textLength="31.25" x="1505.3125" y="406.7627">GPS</text><line style="stroke:#A80036;stroke-width:1.875;" x1="1233.125" x2="1768.125" y1="420.625" y2="420.625"/><line style="stroke:#A80036;stroke-width:1.875;" x1="1233.125" x2="1768.125" y1="430.625" y2="430.625"/><text fill="#000000" font-family="sans-serif" font-size="13.75" lengthAdjust="spacing" textLength="522.5" x="1239.375" y="449.8987">+dist = distanceBetweenCoordinates(double lat1, double lon1, double lat2, double lon2)</text><!--MD5=[6b1c9a12fb5bf30ca29060d8abdebcdd]
link BuildGraphUI to CountryController--><path codeLine="57" d="M1131.875,68.975 C1131.875,93.15 1131.875,128 1131.875,155.6875 " fill="none" id="BuildGraphUI-to-CountryController" style="stroke:#A80036;stroke-width:1.25;stroke-dasharray:7.0,7.0;"/><polygon fill="#A80036" points="1131.875,162.1875,1136.875,150.9375,1131.875,155.9375,1126.875,150.9375,1131.875,162.1875" style="stroke:#A80036;stroke-width:1.25;"/><!--MD5=[c7ad7d43e3e2ae0f7dacaa78710acd86]
link CountryController to MatrixGraph--><path codeLine="58" d="M1092.9,240.0625 C1056.45,275.1875 1001.7,327.95 961.25,366.925 " fill="none" id="CountryController-to-MatrixGraph" style="stroke:#A80036;stroke-width:1.25;"/><polygon fill="#A80036" points="956.3875,371.6125,967.9564,367.4027,960.8865,367.2742,961.0151,360.2043,956.3875,371.6125" style="stroke:#A80036;stroke-width:1.25;"/><text fill="#000000" font-family="sans-serif" font-size="16.25" lengthAdjust="spacing" textLength="35" x="1035.625" y="313.1189">uses</text><text fill="#000000" font-family="sans-serif" font-size="16.25" lengthAdjust="spacing" textLength="8.75" x="1075.6155" y="266.6048">1</text><text fill="#000000" font-family="sans-serif" font-size="16.25" lengthAdjust="spacing" textLength="25" x="937.7577" y="358.2681">1..*</text><!--MD5=[d4ec7cb2eb63972c4aacd65f2df80a86]
link CountryController to Country--><path codeLine="59" d="M1131.875,240.0625 C1131.875,277.2375 1131.875,334.175 1131.875,373.6125 " fill="none" id="CountryController-to-Country" style="stroke:#A80036;stroke-width:1.25;"/><polygon fill="#A80036" points="1131.875,380.275,1136.875,369.025,1131.875,374.025,1126.875,369.025,1131.875,380.275" style="stroke:#A80036;stroke-width:1.25;"/><text fill="#000000" font-family="sans-serif" font-size="16.25" lengthAdjust="spacing" textLength="35" x="1133.125" y="313.1189">uses</text><text fill="#000000" font-family="sans-serif" font-size="16.25" lengthAdjust="spacing" textLength="8.75" x="1122.2637" y="266.6048">1</text><text fill="#000000" font-family="sans-serif" font-size="16.25" lengthAdjust="spacing" textLength="25" x="1104.2969" y="367.0835">1..*</text><!--MD5=[21f469cf54b90f8541be05e52dcad45f]
link CountryController to GPS--><path codeLine="60" d="M1196.1125,240.0625 C1261.5375,278.3125 1362.725,337.4875 1430.275,376.9875 " fill="none" id="CountryController-to-GPS" style="stroke:#A80036;stroke-width:1.25;"/><polygon fill="#A80036" points="1435.8875,380.275,1428.6955,370.2831,1430.4908,377.1225,1423.6515,378.9178,1435.8875,380.275" style="stroke:#A80036;stroke-width:1.25;"/><text fill="#000000" font-family="sans-serif" font-size="16.25" lengthAdjust="spacing" textLength="35" x="1329.375" y="313.1189">uses</text><text fill="#000000" font-family="sans-serif" font-size="16.25" lengthAdjust="spacing" textLength="8.75" x="1199.1479" y="266.6048">1</text><text fill="#000000" font-family="sans-serif" font-size="16.25" lengthAdjust="spacing" textLength="25" x="1394.9573" y="367.0835">1..*</text><!--MD5=[08db2ceb8dd68bc0c2a1c1898a318e9d]
link WareHouseUI to WareHouseController--><path codeLine="61" d="M138.125,68.975 C138.125,88.2375 138.125,114.275 138.125,138.0625 " fill="none" id="WareHouseUI-to-WareHouseController" style="stroke:#A80036;stroke-width:1.25;stroke-dasharray:7.0,7.0;"/><polygon fill="#A80036" points="138.125,144.7,143.125,133.45,138.125,138.45,133.125,133.45,138.125,144.7" style="stroke:#A80036;stroke-width:1.25;"/><!--MD5=[e4341816d8bebe575d23d31b5a417abb]
link WareHouseController to ConnectionFactory--><path codeLine="62" d="M127.5,258.025 C121.1875,291.0125 113.2375,332.625 107.0125,365.15 " fill="none" id="WareHouseController-to-ConnectionFactory" style="stroke:#A80036;stroke-width:1.25;"/><polygon fill="#A80036" points="105.7875,371.5375,112.7893,361.4114,106.9479,365.3962,102.9632,359.5548,105.7875,371.5375" style="stroke:#A80036;stroke-width:1.25;"/><text fill="#000000" font-family="sans-serif" font-size="16.25" lengthAdjust="spacing" textLength="35" x="121.875" y="313.1189">uses</text><text fill="#000000" font-family="sans-serif" font-size="16.25" lengthAdjust="spacing" textLength="8.75" x="116.7344" y="283.9376">1</text><text fill="#000000" font-family="sans-serif" font-size="16.25" lengthAdjust="spacing" textLength="25" x="80.1485" y="358.1798">1..*</text><!--MD5=[b6ac15e4a945fc199be0d6302bd0dc5a]
link WareHouseController to CargoManifestStore--><path codeLine="63" d="M170.1375,257.6375 C184.525,278.6375 203.0875,301.375 224.375,317.5 C241.3375,330.35 260.1375,341.75 279.6375,351.825 " fill="none" id="WareHouseController-to-CargoManifestStore" style="stroke:#A80036;stroke-width:1.25;"/><polygon fill="#A80036" points="285.7125,354.9,277.9593,345.337,280.1439,352.0622,273.4188,354.2468,285.7125,354.9" style="stroke:#A80036;stroke-width:1.25;"/><text fill="#000000" font-family="sans-serif" font-size="16.25" lengthAdjust="spacing" textLength="35" x="225.625" y="313.1189">uses</text><text fill="#000000" font-family="sans-serif" font-size="16.25" lengthAdjust="spacing" textLength="8.75" x="165.274" y="283.9163">1</text><text fill="#000000" font-family="sans-serif" font-size="16.25" lengthAdjust="spacing" textLength="8.75" x="248.4104" y="341.2965">1</text><!--MD5=[2116ab72117c1937cd431dde115995d9]
link CargoManifestStore to DatabaseConnection--><path codeLine="64" d="M484.375,483.8625 C484.375,513.425 484.375,547.9125 484.375,574.6125 " fill="none" id="CargoManifestStore-to-DatabaseConnection" style="stroke:#A80036;stroke-width:1.25;"/><polygon fill="#A80036" points="484.375,580.875,489.375,569.625,484.375,574.625,479.375,569.625,484.375,580.875" style="stroke:#A80036;stroke-width:1.25;"/><text fill="#000000" font-family="sans-serif" font-size="16.25" lengthAdjust="spacing" textLength="35" x="485.625" y="539.3689">uses</text><text fill="#000000" font-family="sans-serif" font-size="16.25" lengthAdjust="spacing" textLength="8.75" x="475.0098" y="511.2069">1</text><text fill="#000000" font-family="sans-serif" font-size="16.25" lengthAdjust="spacing" textLength="25" x="456.7969" y="567.6783">1..*</text><!--MD5=[46779b83c033d628b4e34270394c7b51]
link AuditTrailUI to AuditTrailController--><path codeLine="65" d="M403.125,68.975 C403.125,93.15 403.125,128 403.125,155.6875 " fill="none" id="AuditTrailUI-to-AuditTrailController" style="stroke:#A80036;stroke-width:1.25;stroke-dasharray:7.0,7.0;"/><polygon fill="#A80036" points="403.125,162.1875,408.125,150.9375,403.125,155.9375,398.125,150.9375,403.125,162.1875" style="stroke:#A80036;stroke-width:1.25;"/><!--MD5=[72ae223eec9683774975e989072b2ed6]
link AuditTrailController to ConnectionFactory--><path codeLine="66" d="M364.05,240.4 C338.8,263.9375 304.65,294.0625 271.875,317.5 C270.7375,318.3125 227.15,343.375 183.7625,368.2875 " fill="none" id="AuditTrailController-to-ConnectionFactory" style="stroke:#A80036;stroke-width:1.25;"/><polygon fill="#A80036" points="177.925,371.6375,190.1694,370.3582,183.3416,368.5194,185.1804,361.6916,177.925,371.6375" style="stroke:#A80036;stroke-width:1.25;"/><text fill="#000000" font-family="sans-serif" font-size="16.25" lengthAdjust="spacing" textLength="35" x="300.625" y="313.1189">uses</text><text fill="#000000" font-family="sans-serif" font-size="16.25" lengthAdjust="spacing" textLength="8.75" x="347.0173" y="266.6995">1</text><text fill="#000000" font-family="sans-serif" font-size="16.25" lengthAdjust="spacing" textLength="25" x="165.1355" y="358.2976">1..*</text><!--MD5=[8fdf31403e877d680a3bed4ab03a281b]
link AuditTrailController to CargoManifestStore--><path codeLine="67" d="M417.275,240.0625 C428.5375,269.9375 444.6,312.5875 458.2,348.65 " fill="none" id="AuditTrailController-to-CargoManifestStore" style="stroke:#A80036;stroke-width:1.25;"/><polygon fill="#A80036" points="460.525,354.8375,461.2565,342.5482,458.3305,348.9854,451.8932,346.0594,460.525,354.8375" style="stroke:#A80036;stroke-width:1.25;"/><text fill="#000000" font-family="sans-serif" font-size="16.25" lengthAdjust="spacing" textLength="35" x="448.125" y="313.1189">uses</text><text fill="#000000" font-family="sans-serif" font-size="16.25" lengthAdjust="spacing" textLength="8.75" x="410.4495" y="266.6048">1</text><text fill="#000000" font-family="sans-serif" font-size="16.25" lengthAdjust="spacing" textLength="8.75" x="447.8059" y="341.2252">1</text><!--MD5=[5b54b7357245d66232a9270d428039a8]
@startuml
skinparam classAttributeIconSize 0

class WareHouseUI{
}

class WareHouseController {
+ getWareHouseAvailabilty()
+ getWareHouseEstimation()
+ getResourceList(int portId, String day)
}

class ConnectionFactory {
+ getInstance()
+ getDatabaseConnection()
}

class CargoManifestStore {
+ wareHouseOccupancyByDate (DatabaseConnection databaseConnection)
+ wareHouseEstimation(DatabaseConnection databaseConnection)
+ getAuditTrail(DatabaseConnection databaseConnection)
+ getResourceList(DatabaseConnection databaseConnection, int portId, String day)
}

class DatabaseConnection {
+ getConnection()
}

class AuditTrailUI{
}

class AuditTrailController {
+ getAuditTrail()
}

class BuildGraphUI{
}

class CountryController {
+ buildGraph(int numberOfPorts)
}

class MatrixGraph {
+ addVertex(V vert)
+ addEdge(V vOrig, V vDest, E weight)
}

class Country {
+ getFronteiras()
}

class GPS {
+ dist = distanceBetweenCoordinates(double lat1, double lon1, double lat2, double lon2)
}



CountryController <.up. BuildGraphUI
CountryController "1" - -> "1..*" MatrixGraph : uses
CountryController "1" - -> "1..*" Country : uses
CountryController "1" - -> "1..*" GPS : uses
WareHouseController <.up. WareHouseUI
WareHouseController "1" - -> "1..*" ConnectionFactory : uses
WareHouseController "1" - -> "1" CargoManifestStore : uses
CargoManifestStore "1" - -> "1..*" DatabaseConnection : uses
AuditTrailController <.up. AuditTrailUI
AuditTrailController "1" - -> "1..*" ConnectionFactory : uses
AuditTrailController "1" - -> "1" CargoManifestStore : uses



@enduml

PlantUML version 1.2021.7(Sun May 23 13:40:07 BST 2021)
(GPL source distribution)
Java Runtime: OpenJDK Runtime Environment
JVM: OpenJDK 64-Bit Server VM
Default Encoding: Cp1252
Language: pt
Country: PT
--></g></svg>