<?xml version="1.0" encoding="UTF-8" standalone="no"?><svg xmlns="http://www.w3.org/2000/svg" xmlns:xlink="http://www.w3.org/1999/xlink" contentScriptType="application/ecmascript" contentStyleType="text/css" height="3020px" preserveAspectRatio="none" style="width:1607px;height:3020px;background:#FFFFFF;" version="1.1" viewBox="0 0 1607 3020" width="1607.5px" zoomAndPan="magnify"><defs><filter height="300%" id="f2hfnvltiywt7" width="300%" x="-1" y="-1"><feGaussianBlur result="blurOut" stdDeviation="2.5"/><feColorMatrix in="blurOut" result="blurOut2" type="matrix" values="0 0 0 0 0 0 0 0 0 0 0 0 0 0 0 0 0 0 .4 0"/><feOffset dx="5.0" dy="5.0" in="blurOut2" result="blurOut3"/><feBlend in="SourceGraphic" in2="blurOut3" mode="normal"/></filter></defs><g><!--MD5=[5e659b6272380f9df0bb941f285a2aee]
entity Traffic manager--><ellipse cx="124.375" cy="2765.625" fill="#FEFECE" filter="url(#f2hfnvltiywt7)" rx="10" ry="10" style="stroke:#A80036;stroke-width:1.875;"/><path d="M124.375,2775.625 L124.375,2809.375 M108.125,2785.625 L140.625,2785.625 M124.375,2809.375 L108.125,2828.125 M124.375,2809.375 L140.625,2828.125 " fill="none" filter="url(#f2hfnvltiywt7)" style="stroke:#A80036;stroke-width:1.875;"/><text fill="#000000" font-family="sans-serif" font-size="17.5" lengthAdjust="spacing" textLength="125" x="61.875" y="2853.1665">Traffic manager</text><ellipse cx="954.7169" cy="2619.5684" fill="#FEFECE" filter="url(#f2hfnvltiywt7)" rx="442.2169" ry="91.4434" style="stroke:#A80036;stroke-width:1.875;"/><text fill="#000000" font-family="sans-serif" font-size="17.5" lengthAdjust="spacing" textLength="855" x="527.2169" y="2624.229">UC301 - Import data from countries, ports, borders and seadists from the database to build a freight network.</text><ellipse cx="955.1736" cy="2805.9097" fill="#FEFECE" filter="url(#f2hfnvltiywt7)" rx="242.6736" ry="51.5347" style="stroke:#A80036;stroke-width:1.875;"/><text fill="#000000" font-family="sans-serif" font-size="17.5" lengthAdjust="spacing" textLength="450" x="730.1736" y="2810.5704">UC302 - Colour the map using as few colours as possible</text><ellipse cx="955.1235" cy="2953.1497" fill="#FEFECE" filter="url(#f2hfnvltiywt7)" rx="244.4985" ry="51.8997" style="stroke:#A80036;stroke-width:1.875;"/><text fill="#000000" font-family="sans-serif" font-size="17.5" lengthAdjust="spacing" textLength="453.75" x="728.2485" y="2957.8104">UC303 - Know which places are closest to all other places</text><!--MD5=[f4cde1cbd61dee9d06b607becd6d3edc]
entity Ship Captain--><ellipse cx="124.375" cy="2373.125" fill="#FEFECE" filter="url(#f2hfnvltiywt7)" rx="10" ry="10" style="stroke:#A80036;stroke-width:1.875;"/><path d="M124.375,2383.125 L124.375,2416.875 M108.125,2393.125 L140.625,2393.125 M124.375,2416.875 L108.125,2435.625 M124.375,2416.875 L140.625,2435.625 " fill="none" filter="url(#f2hfnvltiywt7)" style="stroke:#A80036;stroke-width:1.875;"/><text fill="#000000" font-family="sans-serif" font-size="17.5" lengthAdjust="spacing" textLength="101.25" x="73.75" y="2460.6665">Ship Captain</text><ellipse cx="955.1648" cy="2413.408" fill="#FEFECE" filter="url(#f2hfnvltiywt7)" rx="339.5398" ry="70.908" style="stroke:#A80036;stroke-width:1.875;"/><text fill="#000000" font-family="sans-serif" font-size="17.5" lengthAdjust="spacing" textLength="647.5" x="631.4148" y="2418.0686">UC304 - Have access to audit trails for a given container of a given cargo manifest</text><!--MD5=[f9c57c0c524dc8b8ac943d4b81f101b1]
entity Port Manager--><ellipse cx="124.375" cy="2046.875" fill="#FEFECE" filter="url(#f2hfnvltiywt7)" rx="10" ry="10" style="stroke:#A80036;stroke-width:1.875;"/><path d="M124.375,2056.875 L124.375,2090.625 M108.125,2066.875 L140.625,2066.875 M124.375,2090.625 L108.125,2109.375 M124.375,2090.625 L140.625,2109.375 " fill="none" filter="url(#f2hfnvltiywt7)" style="stroke:#A80036;stroke-width:1.875;"/><text fill="#000000" font-family="sans-serif" font-size="17.5" lengthAdjust="spacing" textLength="107.5" x="70.625" y="2134.4165">Port Manager</text><ellipse cx="955.2838" cy="1963.4318" fill="#FEFECE" filter="url(#f2hfnvltiywt7)" rx="549.0338" ry="112.8068" style="stroke:#A80036;stroke-width:1.875;"/><text fill="#000000" font-family="sans-serif" font-size="17.5" lengthAdjust="spacing" textLength="1070" x="420.2838" y="1968.0924">UC306 -  Know the occupancy rate of each warehouse and an estimate of the containers leaving the warehouse during the next 30 days</text><ellipse cx="954.8134" cy="2209.0877" fill="#FEFECE" filter="url(#f2hfnvltiywt7)" rx="430.4384" ry="89.0877" style="stroke:#A80036;stroke-width:1.875;"/><text fill="#000000" font-family="sans-serif" font-size="17.5" lengthAdjust="spacing" textLength="831.25" x="539.1884" y="2213.7483">UC310 - Intend to have a map of the occupation of the existing resources in the port during a given month</text><!--MD5=[0ba5ee7700168656dc1b457c6fe9fdac]
entity Client--><ellipse cx="124.375" cy="1688.125" fill="#FEFECE" filter="url(#f2hfnvltiywt7)" rx="10" ry="10" style="stroke:#A80036;stroke-width:1.875;"/><path d="M124.375,1698.125 L124.375,1731.875 M108.125,1708.125 L140.625,1708.125 M124.375,1731.875 L108.125,1750.625 M124.375,1731.875 L140.625,1750.625 " fill="none" filter="url(#f2hfnvltiywt7)" style="stroke:#A80036;stroke-width:1.875;"/><text fill="#000000" font-family="sans-serif" font-size="17.5" lengthAdjust="spacing" textLength="45" x="101.875" y="1775.6665">Client</text><ellipse cx="954.7085" cy="1728.3167" fill="#FEFECE" filter="url(#f2hfnvltiywt7)" rx="376.5835" ry="78.3167" style="stroke:#A80036;stroke-width:1.875;"/><text fill="#000000" font-family="sans-serif" font-size="17.5" lengthAdjust="spacing" textLength="722.5" x="593.4585" y="1732.9773">UC312 - Know the current situation of a specific container being used to transport my goods</text><!--MD5=[52f8e83185875b8269c02eef14c004a2]
entity Port Staff--><ellipse cx="124.375" cy="1315.625" fill="#FEFECE" filter="url(#f2hfnvltiywt7)" rx="10" ry="10" style="stroke:#A80036;stroke-width:1.875;"/><path d="M124.375,1325.625 L124.375,1359.375 M108.125,1335.625 L140.625,1335.625 M124.375,1359.375 L108.125,1378.125 M124.375,1359.375 L140.625,1378.125 " fill="none" filter="url(#f2hfnvltiywt7)" style="stroke:#A80036;stroke-width:1.875;"/><text fill="#000000" font-family="sans-serif" font-size="17.5" lengthAdjust="spacing" textLength="73.75" x="87.5" y="1403.1665">Port Staff</text><ellipse cx="955.1441" cy="1086.9038" fill="#FEFECE" filter="url(#f2hfnvltiywt7)" rx="394.5191" ry="81.9038" style="stroke:#A80036;stroke-width:1.875;"/><text fill="#000000" font-family="sans-serif" font-size="17.5" lengthAdjust="spacing" textLength="758.75" x="575.7691" y="1091.5645">UC313 - Fill a statically reserved matrix in memory with each container's ID in its respective place</text><ellipse cx="954.8463" cy="1279.2193" fill="#FEFECE" filter="url(#f2hfnvltiywt7)" rx="318.5963" ry="66.7193" style="stroke:#A80036;stroke-width:1.875;"/><text fill="#000000" font-family="sans-serif" font-size="17.5" lengthAdjust="spacing" textLength="605" x="652.3463" y="1283.8799">UC314 - Know the total number of free/occupied slots in the transport vehicle</text><ellipse cx="954.6981" cy="1430.4396" fill="#FEFECE" filter="url(#f2hfnvltiywt7)" rx="187.1981" ry="40.4396" style="stroke:#A80036;stroke-width:1.875;"/><text fill="#000000" font-family="sans-serif" font-size="17.5" lengthAdjust="spacing" textLength="335" x="787.1981" y="1435.1003">UC315 - Know if a container is there or not</text><ellipse cx="954.9549" cy="1560.741" fill="#FEFECE" filter="url(#f2hfnvltiywt7)" rx="210.5799" ry="45.116" style="stroke:#A80036;stroke-width:1.875;"/><text fill="#000000" font-family="sans-serif" font-size="17.5" lengthAdjust="spacing" textLength="383.75" x="763.0799" y="1565.4016">UC316 - Know the total number of occupied slots</text><!--MD5=[006ce36b21e61b815577c10d71bfabd0]
entity Ship Chief Electrical Engineer--><ellipse cx="124.375" cy="370.625" fill="#FEFECE" filter="url(#f2hfnvltiywt7)" rx="10" ry="10" style="stroke:#A80036;stroke-width:1.875;"/><path d="M124.375,380.625 L124.375,414.375 M108.125,390.625 L140.625,390.625 M124.375,414.375 L108.125,433.125 M124.375,414.375 L140.625,433.125 " fill="none" filter="url(#f2hfnvltiywt7)" style="stroke:#A80036;stroke-width:1.875;"/><text fill="#000000" font-family="sans-serif" font-size="17.5" lengthAdjust="spacing" textLength="233.75" x="7.5" y="458.1665">Ship Chief Electrical Engineer</text><ellipse cx="954.7153" cy="85.6931" fill="#FEFECE" filter="url(#f2hfnvltiywt7)" rx="375.9653" ry="78.1931" style="stroke:#A80036;stroke-width:1.875;"/><text fill="#000000" font-family="sans-serif" font-size="17.5" lengthAdjust="spacing" textLength="721.25" x="594.0903" y="90.3537">UC317 - Know what set of materials to use in a container, to operate at temperatures of 7°C</text><ellipse cx="955.2794" cy="286.8059" fill="#FEFECE" filter="url(#f2hfnvltiywt7)" rx="381.5294" ry="79.3059" style="stroke:#A80036;stroke-width:1.875;"/><text fill="#000000" font-family="sans-serif" font-size="17.5" lengthAdjust="spacing" textLength="732.5" x="589.0294" y="291.4665">UC318 - Know what set of materials to use in a container, to operate at temperatures of -5 °C</text><ellipse cx="955.0393" cy="533.2579" fill="#FEFECE" filter="url(#f2hfnvltiywt7)" rx="601.2893" ry="123.2579" style="stroke:#A80036;stroke-width:1.875;"/><text fill="#000000" font-family="sans-serif" font-size="17.5" lengthAdjust="spacing" textLength="1175" x="367.5393" y="537.9185">UC319 - Know the thermal resistance, for each operating temperature, of each container that must contain at least three different materials in its walls</text><ellipse cx="954.8893" cy="830.7279" fill="#FEFECE" filter="url(#f2hfnvltiywt7)" rx="638.6393" ry="130.7279" style="stroke:#A80036;stroke-width:1.875;"/><text fill="#000000" font-family="sans-serif" font-size="17.5" lengthAdjust="spacing" textLength="1250" x="329.8893" y="835.3885">UC320 - Intend to present in a summary document, the choice of materials considered for the two types of containers considered, and their thermal resistances</text><!--MD5=[9e5f30f8bd769a2338ed3d99b6bb3c69]
link Traffic manager to UC301 - Import data from countries, ports, borders and seadists from the database to build a freight network.--><path d="M186.8875,2778.975 C223.8,2763.7625 272.0625,2745.35 316.25,2733.125 C402.625,2709.225 497.0125,2689.175 586.05,2672.9 " fill="none" id="Traffic manager-to-UC301 - Import data from countries, ports, borders and seadists from the database to build a freight network." style="stroke:#A80036;stroke-width:1.25;"/><polygon fill="#A80036" points="592.45,2671.7375,580.4848,2668.8398,586.3017,2672.8602,582.2812,2678.6771,592.45,2671.7375" style="stroke:#A80036;stroke-width:1.25;"/><!--MD5=[ff25582aa3e28bedfbbfa4f2c47db0d1]
link Traffic manager to UC302 - Colour the map using as few colours as possible--><path d="M187.1875,2805.625 C295.55,2805.625 525.9,2805.625 705.9625,2805.625 " fill="none" id="Traffic manager-to-UC302 - Colour the map using as few colours as possible" style="stroke:#A80036;stroke-width:1.25;"/><polygon fill="#A80036" points="712.3375,2805.625,701.0875,2800.625,706.0875,2805.625,701.0875,2810.625,712.3375,2805.625" style="stroke:#A80036;stroke-width:1.25;"/><!--MD5=[8cb10829caab8c6be3cf0072798f5aa4]
link Traffic manager to UC303 - Know which places are closest to all other places--><path d="M187.0125,2833.9625 C223.75,2849.7625 271.8125,2868.4 316.25,2879.375 C444.825,2911.1375 591.45,2929.3 711.6375,2939.65 " fill="none" id="Traffic manager-to-UC303 - Know which places are closest to all other places" style="stroke:#A80036;stroke-width:1.25;"/><polygon fill="#A80036" points="718.0625,2940.2,707.2821,2934.2549,711.8355,2939.6647,706.4256,2944.2181,718.0625,2940.2" style="stroke:#A80036;stroke-width:1.25;"/><!--MD5=[c0a070f75d56a084fb0dfd2cd3a534f7]
link Ship Captain to UC304 - Have access to audit trails for a given container of a given cargo manifest--><path d="M175.5625,2413.125 C261.1875,2413.125 442.8875,2413.125 609.1875,2413.125 " fill="none" id="Ship Captain-to-UC304 - Have access to audit trails for a given container of a given cargo manifest" style="stroke:#A80036;stroke-width:1.25;"/><polygon fill="#A80036" points="615.6,2413.125,604.35,2408.125,609.35,2413.125,604.35,2418.125,615.6,2413.125" style="stroke:#A80036;stroke-width:1.25;"/><!--MD5=[d8a9934fa162682e0872a1d213a30c14]
link Port Manager to UC306 -  Know the occupancy rate of each warehouse and an estimate of the containers leaving the warehouse during the next 30 days--><path d="M178.375,2078.9875 C246.9375,2068.75 373.5,2049.8375 504.775,2030.2125 " fill="none" id="Port Manager-to-UC306 -  Know the occupancy rate of each warehouse and an estimate of the containers leaving the warehouse during the next 30 days" style="stroke:#A80036;stroke-width:1.25;"/><polygon fill="#A80036" points="511.0375,2029.2875,499.1707,2026.01,504.8565,2030.2138,500.6527,2035.8995,511.0375,2029.2875" style="stroke:#A80036;stroke-width:1.25;"/><!--MD5=[4d626afd8f30f3902353f0e8c72e54dd]
link Port Manager to UC310 - Intend to have a map of the occupation of the existing resources in the port during a given month--><path d="M178.375,2094.675 C263.05,2107.2 436.225,2132.825 597.4625,2156.675 " fill="none" id="Port Manager-to-UC310 - Intend to have a map of the occupation of the existing resources in the port during a given month" style="stroke:#A80036;stroke-width:1.25;"/><polygon fill="#A80036" points="603.675,2157.5875,593.2744,2151.0004,597.4918,2156.6761,591.8161,2160.8935,603.675,2157.5875" style="stroke:#A80036;stroke-width:1.25;"/><!--MD5=[09180a09c77d733843c0bf73df8ea89e]
link Client to UC312 - Know the current situation of a specific container being used to transport my goods--><path d="M146.925,1728.125 C208.5375,1728.125 393.8625,1728.125 571.375,1728.125 " fill="none" id="Client-to-UC312 - Know the current situation of a specific container being used to transport my goods" style="stroke:#A80036;stroke-width:1.25;"/><polygon fill="#A80036" points="577.6875,1728.125,566.4375,1723.125,571.4375,1728.125,566.4375,1733.125,577.6875,1728.125" style="stroke:#A80036;stroke-width:1.25;"/><!--MD5=[0d75fced4de0ed0af80e1c6e498273aa]
link Port Staff to UC313 - Fill a statically reserved matrix in memory with each container's ID in its respective place--><path d="M161.5125,1313.375 C196.775,1274.85 254.2,1219.6375 316.25,1190.625 C395.85,1153.4 486.4625,1129.25 573.875,1113.65 " fill="none" id="Port Staff-to-UC313 - Fill a statically reserved matrix in memory with each container's ID in its respective place" style="stroke:#A80036;stroke-width:1.25;"/><polygon fill="#A80036" points="580.175,1112.5375,568.2347,1109.539,574.0174,1113.6084,569.9481,1119.3911,580.175,1112.5375" style="stroke:#A80036;stroke-width:1.25;"/><!--MD5=[980eb542ed4aadb8ee2afa16daeef119]
link Port Staff to UC314 - Know the total number of free/occupied slots in the transport vehicle--><path d="M161.7375,1352.3 C247.275,1344.425 469.0625,1324 656.25,1306.7625 " fill="none" id="Port Staff-to-UC314 - Know the total number of free/occupied slots in the transport vehicle" style="stroke:#A80036;stroke-width:1.25;"/><polygon fill="#A80036" points="662.9,1306.15,651.2405,1302.1981,656.6761,1306.7207,652.1535,1312.1563,662.9,1306.15" style="stroke:#A80036;stroke-width:1.25;"/><!--MD5=[35e89d38420c26b2466f5a892a392f75]
link Port Staff to UC315 - Know if a container is there or not--><path d="M161.7375,1358.9 C266.45,1368.375 575.3875,1396.3625 775.025,1414.4375 " fill="none" id="Port Staff-to-UC315 - Know if a container is there or not" style="stroke:#A80036;stroke-width:1.25;"/><polygon fill="#A80036" points="781.5,1415.025,770.738,1409.0465,775.2747,1414.4704,769.8507,1419.0071,781.5,1415.025" style="stroke:#A80036;stroke-width:1.25;"/><!--MD5=[0e96f0b0d06e1272d3e7c1810001314f]
link Port Staff to UC316 - Know the total number of occupied slots--><path d="M161.5625,1390.525 C197.525,1423.125 256.025,1470.1 316.25,1493.125 C450.8125,1544.575 612.275,1561.25 739.0375,1565.1625 " fill="none" id="Port Staff-to-UC316 - Know the total number of occupied slots" style="stroke:#A80036;stroke-width:1.25;"/><polygon fill="#A80036" points="745.425,1565.35,734.3224,1560.0307,739.1775,1565.1715,734.0368,1570.0267,745.425,1565.35" style="stroke:#A80036;stroke-width:1.25;"/><!--MD5=[d48acd35937f4181c70549adb692ad1f]
link Ship Chief Electrical Engineer to UC317 - Know what set of materials to use in a container, to operate at temperatures of 7°C--><path d="M154.6,358.325 C186.8125,305.55 243.9375,226.2375 316.25,185.625 C395.0625,141.3625 487.525,115.0625 577.2125,99.8 " fill="none" id="Ship Chief Electrical Engineer-to-UC317 - Know what set of materials to use in a container, to operate at temperatures of 7°C" style="stroke:#A80036;stroke-width:1.25;"/><polygon fill="#A80036" points="583.6625,98.725,571.7479,95.6257,577.4961,99.7438,573.378,105.492,583.6625,98.725" style="stroke:#A80036;stroke-width:1.25;"/><!--MD5=[403dc41ce7010c709fbca33ed400628e]
link Ship Chief Electrical Engineer to UC318 - Know what set of materials to use in a container, to operate at temperatures of -5 °C--><path d="M241.65,393.2875 C344.3875,377.9375 499.225,354.8 638.3,334.0125 " fill="none" id="Ship Chief Electrical Engineer-to-UC318 - Know what set of materials to use in a container, to operate at temperatures of -5 °C" style="stroke:#A80036;stroke-width:1.25;"/><polygon fill="#A80036" points="644.4875,333.0875,632.6286,329.7815,638.3043,333.9989,634.0869,339.6746,644.4875,333.0875" style="stroke:#A80036;stroke-width:1.25;"/><!--MD5=[1253b57647a3cf181fc18c801221214d]
link Ship Chief Electrical Engineer to UC319 - Know the thermal resistance, for each operating temperature, of each container that must contain at least three different materials in its walls--><path d="M241.65,427.7875 C301.4,436.625 378.7875,448.075 460.4375,460.15 " fill="none" id="Ship Chief Electrical Engineer-to-UC319 - Know the thermal resistance, for each operating temperature, of each container that must contain at least three different materials in its walls" style="stroke:#A80036;stroke-width:1.25;"/><polygon fill="#A80036" points="466.825,461.1,456.4244,454.5129,460.6418,460.1886,454.9661,464.406,466.825,461.1" style="stroke:#A80036;stroke-width:1.25;"/><!--MD5=[e83870157a1e1d7b11f6044c61071b4c]
link Ship Chief Electrical Engineer to UC320 - Intend to present in a summary document, the choice of materials considered for the two types of containers considered, and their thermal resistances--><path d="M148.5,462.5625 C178.1875,523.75 235.875,623.925 316.25,678.125 C357,705.6 402.1375,728.15 449.0375,746.6375 " fill="none" id="Ship Chief Electrical Engineer-to-UC320 - Intend to present in a summary document, the choice of materials considered for the two types of containers considered, and their thermal resistances" style="stroke:#A80036;stroke-width:1.25;"/><polygon fill="#A80036" points="455.3625,749.1125,446.6949,740.3698,449.5388,746.8438,443.0649,749.6877,455.3625,749.1125" style="stroke:#A80036;stroke-width:1.25;"/><!--MD5=[1cdd0cf1332b073cd09d29610928144f]
@startuml
left to right direction
:Traffic manager: - -> (UC301 - Import data from countries, ports, borders and seadists from the database to build a freight network.)
:Traffic manager: - -> (UC302 - Colour the map using as few colours as possible)
:Traffic manager: - -> (UC303 - Know which places are closest to all other places)
:Ship Captain: - -> (UC304 - Have access to audit trails for a given container of a given cargo manifest)
:Port Manager: - -> (UC306 -  Know the occupancy rate of each warehouse and an estimate of the containers leaving the warehouse during the next 30 days)
:Port Manager: - -> (UC310 - Intend to have a map of the occupation of the existing resources in the port during a given month)
:Client: - -> (UC312 - Know the current situation of a specific container being used to transport my goods)
:Port Staff: - -> (UC313 - Fill a statically reserved matrix in memory with each container's ID in its respective place)
:Port Staff: - -> (UC314 - Know the total number of free/occupied slots in the transport vehicle)
:Port Staff: - -> (UC315 - Know if a container is there or not)
:Port Staff: - -> (UC316 - Know the total number of occupied slots)
:Ship Chief Electrical Engineer: - -> (UC317 - Know what set of materials to use in a container, to operate at temperatures of 7°C)
:Ship Chief Electrical Engineer: - -> (UC318 - Know what set of materials to use in a container, to operate at temperatures of -5 °C)
:Ship Chief Electrical Engineer: - -> (UC319 - Know the thermal resistance, for each operating temperature, of each container that must contain at least three different materials in its walls)
:Ship Chief Electrical Engineer: - -> (UC320 - Intend to present in a summary document, the choice of materials considered for the two types of containers considered, and their thermal resistances)
@enduml

PlantUML version 1.2021.7(Sun May 23 13:40:07 BST 2021)
(GPL source distribution)
Java Runtime: OpenJDK Runtime Environment
JVM: OpenJDK 64-Bit Server VM
Default Encoding: Cp1252
Language: pt
Country: PT
--></g></svg>