<?xml version="1.0" encoding="UTF-8" standalone="no"?><svg xmlns="http://www.w3.org/2000/svg" xmlns:xlink="http://www.w3.org/1999/xlink" contentScriptType="application/ecmascript" contentStyleType="text/css" height="606.25px" preserveAspectRatio="none" style="width:757px;height:606px;background:#FFFFFF;" version="1.1" viewBox="0 0 757 606" width="757.5px" zoomAndPan="magnify"><defs><filter height="300%" id="f1sfmnp4xcl1yn" width="300%" x="-1" y="-1"><feGaussianBlur result="blurOut" stdDeviation="2.5"/><feColorMatrix in="blurOut" result="blurOut2" type="matrix" values="0 0 0 0 0 0 0 0 0 0 0 0 0 0 0 0 0 0 .4 0"/><feOffset dx="5.0" dy="5.0" in="blurOut2" result="blurOut3"/><feBlend in="SourceGraphic" in2="blurOut3" mode="normal"/></filter></defs><g><!--MD5=[94ccc9c816465c17c1eade32bff08d8f]
class FindContainerUI--><rect codeLine="3" fill="#FEFECE" filter="url(#f1sfmnp4xcl1yn)" height="60" id="FindContainerUI" style="stroke:#A80036;stroke-width:1.875;" width="152.5" x="139.375" y="8.75"/><ellipse cx="158.125" cy="28.75" fill="#ADD1B2" rx="13.75" ry="13.75" style="stroke:#A80036;stroke-width:1.25;"/><path d="M160.625,24.375 Q160.8789,23.75 161.1719,23.4375 Q161.4648,23.125 161.7969,23.125 Q162.3828,23.125 162.7539,23.4766 Q163.125,23.8281 163.125,24.6484 L163.125,26.6016 Q163.125,27.4219 162.7734,27.7734 Q162.4219,28.125 161.875,28.125 Q161.3867,28.125 161.0742,27.9102 Q160.7617,27.6953 160.625,27.1289 Q160.5664,26.7383 160.3516,26.5234 Q159.9609,26.1133 159.2578,25.8789 Q158.5547,25.625 157.8516,25.625 Q156.9727,25.625 156.2305,25.9766 Q155.5078,26.3281 154.9414,27.1094 Q154.375,27.8906 154.375,28.9648 L154.375,30.1172 Q154.375,31.4063 155.4297,32.2656 Q156.4844,33.125 158.3594,33.125 Q159.4727,33.125 160.2539,32.8711 Q160.7031,32.7344 161.2109,32.2852 Q161.543,32.0313 161.7188,31.9531 Q161.8945,31.875 162.1094,31.875 Q162.5195,31.875 162.8125,32.207 Q163.125,32.5195 163.125,32.9688 Q163.125,33.3984 162.6953,33.9063 Q162.0703,34.6484 161.0742,35.0586 Q159.7656,35.625 158.1641,35.625 Q156.2891,35.625 154.7852,34.8828 Q153.5742,34.2969 152.7148,33.0273 Q151.875,31.7578 151.875,30.2539 L151.875,28.8867 Q151.875,27.3242 152.6172,25.957 Q153.3789,24.5898 154.6875,23.8672 Q156.0156,23.125 157.5,23.125 Q158.3984,23.125 159.1797,23.4375 Q159.9609,23.75 160.625,24.375 Z " fill="#000000"/><text fill="#000000" font-family="sans-serif" font-size="15" lengthAdjust="spacing" textLength="112.5" x="175.625" y="34.8877">FindContainerUI</text><line style="stroke:#A80036;stroke-width:1.875;" x1="140.625" x2="290.625" y1="48.75" y2="48.75"/><line style="stroke:#A80036;stroke-width:1.875;" x1="140.625" x2="290.625" y1="58.75" y2="58.75"/><!--MD5=[46ea7eb899065e4151ae34f01fe04660]
class FindContainerController--><rect codeLine="6" fill="#FEFECE" filter="url(#f1sfmnp4xcl1yn)" height="77.2949" id="FindContainerController" style="stroke:#A80036;stroke-width:1.875;" width="205" x="113.125" y="145"/><ellipse cx="131.875" cy="165" fill="#ADD1B2" rx="13.75" ry="13.75" style="stroke:#A80036;stroke-width:1.25;"/><path d="M134.375,160.625 Q134.6289,160 134.9219,159.6875 Q135.2148,159.375 135.5469,159.375 Q136.1328,159.375 136.5039,159.7266 Q136.875,160.0781 136.875,160.8984 L136.875,162.8516 Q136.875,163.6719 136.5234,164.0234 Q136.1719,164.375 135.625,164.375 Q135.1367,164.375 134.8242,164.1602 Q134.5117,163.9453 134.375,163.3789 Q134.3164,162.9883 134.1016,162.7734 Q133.7109,162.3633 133.0078,162.1289 Q132.3047,161.875 131.6016,161.875 Q130.7227,161.875 129.9805,162.2266 Q129.2578,162.5781 128.6914,163.3594 Q128.125,164.1406 128.125,165.2148 L128.125,166.3672 Q128.125,167.6563 129.1797,168.5156 Q130.2344,169.375 132.1094,169.375 Q133.2227,169.375 134.0039,169.1211 Q134.4531,168.9844 134.9609,168.5352 Q135.293,168.2813 135.4688,168.2031 Q135.6445,168.125 135.8594,168.125 Q136.2695,168.125 136.5625,168.457 Q136.875,168.7695 136.875,169.2188 Q136.875,169.6484 136.4453,170.1563 Q135.8203,170.8984 134.8242,171.3086 Q133.5156,171.875 131.9141,171.875 Q130.0391,171.875 128.5352,171.1328 Q127.3242,170.5469 126.4648,169.2773 Q125.625,168.0078 125.625,166.5039 L125.625,165.1367 Q125.625,163.5742 126.3672,162.207 Q127.1289,160.8398 128.4375,160.1172 Q129.7656,159.375 131.25,159.375 Q132.1484,159.375 132.9297,159.6875 Q133.7109,160 134.375,160.625 Z " fill="#000000"/><text fill="#000000" font-family="sans-serif" font-size="15" lengthAdjust="spacing" textLength="165" x="149.375" y="171.1377">FindContainerController</text><line style="stroke:#A80036;stroke-width:1.875;" x1="114.375" x2="316.875" y1="185" y2="185"/><line style="stroke:#A80036;stroke-width:1.875;" x1="114.375" x2="316.875" y1="195" y2="195"/><text fill="#000000" font-family="sans-serif" font-size="13.75" lengthAdjust="spacing" textLength="181.25" x="120.625" y="214.2737">+findContainer(int containerId)</text><!--MD5=[0b8a0869bb17c5d05015d74abb8e1141]
class ConnectionFactory--><rect codeLine="10" fill="#FEFECE" filter="url(#f1sfmnp4xcl1yn)" height="94.5898" id="ConnectionFactory" style="stroke:#A80036;stroke-width:1.875;" width="176.25" x="8.75" y="320"/><ellipse cx="31.4375" cy="340" fill="#ADD1B2" rx="13.75" ry="13.75" style="stroke:#A80036;stroke-width:1.25;"/><path d="M33.9375,335.625 Q34.1914,335 34.4844,334.6875 Q34.7773,334.375 35.1094,334.375 Q35.6953,334.375 36.0664,334.7266 Q36.4375,335.0781 36.4375,335.8984 L36.4375,337.8516 Q36.4375,338.6719 36.0859,339.0234 Q35.7344,339.375 35.1875,339.375 Q34.6992,339.375 34.3867,339.1602 Q34.0742,338.9453 33.9375,338.3789 Q33.8789,337.9883 33.6641,337.7734 Q33.2734,337.3633 32.5703,337.1289 Q31.8672,336.875 31.1641,336.875 Q30.2852,336.875 29.543,337.2266 Q28.8203,337.5781 28.2539,338.3594 Q27.6875,339.1406 27.6875,340.2148 L27.6875,341.3672 Q27.6875,342.6563 28.7422,343.5156 Q29.7969,344.375 31.6719,344.375 Q32.7852,344.375 33.5664,344.1211 Q34.0156,343.9844 34.5234,343.5352 Q34.8555,343.2813 35.0313,343.2031 Q35.207,343.125 35.4219,343.125 Q35.832,343.125 36.125,343.457 Q36.4375,343.7695 36.4375,344.2188 Q36.4375,344.6484 36.0078,345.1563 Q35.3828,345.8984 34.3867,346.3086 Q33.0781,346.875 31.4766,346.875 Q29.6016,346.875 28.0977,346.1328 Q26.8867,345.5469 26.0273,344.2773 Q25.1875,343.0078 25.1875,341.5039 L25.1875,340.1367 Q25.1875,338.5742 25.9297,337.207 Q26.6914,335.8398 28,335.1172 Q29.3281,334.375 30.8125,334.375 Q31.7109,334.375 32.4922,334.6875 Q33.2734,335 33.9375,335.625 Z " fill="#000000"/><text fill="#000000" font-family="sans-serif" font-size="15" lengthAdjust="spacing" textLength="127.5" x="49.8125" y="346.1377">ConnectionFactory</text><line style="stroke:#A80036;stroke-width:1.875;" x1="10" x2="183.75" y1="360" y2="360"/><line style="stroke:#A80036;stroke-width:1.875;" x1="10" x2="183.75" y1="370" y2="370"/><text fill="#000000" font-family="sans-serif" font-size="13.75" lengthAdjust="spacing" textLength="87.5" x="16.25" y="389.2737">+getInstance()</text><text fill="#000000" font-family="sans-serif" font-size="13.75" lengthAdjust="spacing" textLength="161.25" x="16.25" y="406.5686">+getDatabaseConnection()</text><!--MD5=[421f7538b11410e8370fa0324235b51e]
class ContainerStore--><rect codeLine="15" fill="#FEFECE" filter="url(#f1sfmnp4xcl1yn)" height="77.2949" id="ContainerStore" style="stroke:#A80036;stroke-width:1.875;" width="511.25" x="228.75" y="328.75"/><ellipse cx="427.1875" cy="348.75" fill="#ADD1B2" rx="13.75" ry="13.75" style="stroke:#A80036;stroke-width:1.25;"/><path d="M429.6875,344.375 Q429.9414,343.75 430.2344,343.4375 Q430.5273,343.125 430.8594,343.125 Q431.4453,343.125 431.8164,343.4766 Q432.1875,343.8281 432.1875,344.6484 L432.1875,346.6016 Q432.1875,347.4219 431.8359,347.7734 Q431.4844,348.125 430.9375,348.125 Q430.4492,348.125 430.1367,347.9102 Q429.8242,347.6953 429.6875,347.1289 Q429.6289,346.7383 429.4141,346.5234 Q429.0234,346.1133 428.3203,345.8789 Q427.6172,345.625 426.9141,345.625 Q426.0352,345.625 425.293,345.9766 Q424.5703,346.3281 424.0039,347.1094 Q423.4375,347.8906 423.4375,348.9648 L423.4375,350.1172 Q423.4375,351.4063 424.4922,352.2656 Q425.5469,353.125 427.4219,353.125 Q428.5352,353.125 429.3164,352.8711 Q429.7656,352.7344 430.2734,352.2852 Q430.6055,352.0313 430.7813,351.9531 Q430.957,351.875 431.1719,351.875 Q431.582,351.875 431.875,352.207 Q432.1875,352.5195 432.1875,352.9688 Q432.1875,353.3984 431.7578,353.9063 Q431.1328,354.6484 430.1367,355.0586 Q428.8281,355.625 427.2266,355.625 Q425.3516,355.625 423.8477,354.8828 Q422.6367,354.2969 421.7773,353.0273 Q420.9375,351.7578 420.9375,350.2539 L420.9375,348.8867 Q420.9375,347.3242 421.6797,345.957 Q422.4414,344.5898 423.75,343.8672 Q425.0781,343.125 426.5625,343.125 Q427.4609,343.125 428.2422,343.4375 Q429.0234,343.75 429.6875,344.375 Z " fill="#000000"/><text fill="#000000" font-family="sans-serif" font-size="15" lengthAdjust="spacing" textLength="103.75" x="452.8125" y="354.8877">ContainerStore</text><line style="stroke:#A80036;stroke-width:1.875;" x1="230" x2="738.75" y1="368.75" y2="368.75"/><line style="stroke:#A80036;stroke-width:1.875;" x1="230" x2="738.75" y1="378.75" y2="378.75"/><text fill="#000000" font-family="sans-serif" font-size="13.75" lengthAdjust="spacing" textLength="496.25" x="236.25" y="398.0237">+getContainerInfo(DatabaseConnection databaseConnection, int containerNumber)</text><!--MD5=[8aa441cdd93a4e2944eff58bc06cd78a]
class DatabaseConnection--><rect codeLine="19" fill="#FEFECE" filter="url(#f1sfmnp4xcl1yn)" height="77.2949" id="DatabaseConnection" style="stroke:#A80036;stroke-width:1.875;" width="186.25" x="391.25" y="512.5"/><ellipse cx="410" cy="532.5" fill="#ADD1B2" rx="13.75" ry="13.75" style="stroke:#A80036;stroke-width:1.25;"/><path d="M412.5,528.125 Q412.7539,527.5 413.0469,527.1875 Q413.3398,526.875 413.6719,526.875 Q414.2578,526.875 414.6289,527.2266 Q415,527.5781 415,528.3984 L415,530.3516 Q415,531.1719 414.6484,531.5234 Q414.2969,531.875 413.75,531.875 Q413.2617,531.875 412.9492,531.6602 Q412.6367,531.4453 412.5,530.8789 Q412.4414,530.4883 412.2266,530.2734 Q411.8359,529.8633 411.1328,529.6289 Q410.4297,529.375 409.7266,529.375 Q408.8477,529.375 408.1055,529.7266 Q407.3828,530.0781 406.8164,530.8594 Q406.25,531.6406 406.25,532.7148 L406.25,533.8672 Q406.25,535.1563 407.3047,536.0156 Q408.3594,536.875 410.2344,536.875 Q411.3477,536.875 412.1289,536.6211 Q412.5781,536.4844 413.0859,536.0352 Q413.418,535.7813 413.5938,535.7031 Q413.7695,535.625 413.9844,535.625 Q414.3945,535.625 414.6875,535.957 Q415,536.2695 415,536.7188 Q415,537.1484 414.5703,537.6563 Q413.9453,538.3984 412.9492,538.8086 Q411.6406,539.375 410.0391,539.375 Q408.1641,539.375 406.6602,538.6328 Q405.4492,538.0469 404.5898,536.7773 Q403.75,535.5078 403.75,534.0039 L403.75,532.6367 Q403.75,531.0742 404.4922,529.707 Q405.2539,528.3398 406.5625,527.6172 Q407.8906,526.875 409.375,526.875 Q410.2734,526.875 411.0547,527.1875 Q411.8359,527.5 412.5,528.125 Z " fill="#000000"/><text fill="#000000" font-family="sans-serif" font-size="15" lengthAdjust="spacing" textLength="146.25" x="427.5" y="538.6377">DatabaseConnection</text><line style="stroke:#A80036;stroke-width:1.875;" x1="392.5" x2="576.25" y1="552.5" y2="552.5"/><line style="stroke:#A80036;stroke-width:1.875;" x1="392.5" x2="576.25" y1="562.5" y2="562.5"/><text fill="#000000" font-family="sans-serif" font-size="13.75" lengthAdjust="spacing" textLength="103.75" x="398.75" y="581.7737">+getConnection()</text><!--MD5=[ddb2ddbc2187a8368c2197334ef1a706]
link FindContainerUI to FindContainerController--><path codeLine="23" d="M215.625,68.8375 C215.625,88.7625 215.625,115.6375 215.625,138.25 " fill="none" id="FindContainerUI-to-FindContainerController" style="stroke:#A80036;stroke-width:1.25;stroke-dasharray:7.0,7.0;"/><polygon fill="#A80036" points="215.625,144.5125,220.625,133.2625,215.625,138.2625,210.625,133.2625,215.625,144.5125" style="stroke:#A80036;stroke-width:1.25;"/><!--MD5=[1551577e29aa1f3a2471acd54bf68282]
link FindContainerController to ConnectionFactory--><path codeLine="24" d="M191.025,222.55 C173.625,249.1 150.075,285.0375 130.8875,314.3375 " fill="none" id="FindContainerController-to-ConnectionFactory" style="stroke:#A80036;stroke-width:1.25;"/><polygon fill="#A80036" points="127.3625,319.725,137.6947,313.0311,130.7756,314.4892,129.3174,307.5701,127.3625,319.725" style="stroke:#A80036;stroke-width:1.25;"/><text fill="#000000" font-family="sans-serif" font-size="16.25" lengthAdjust="spacing" textLength="35" x="164.375" y="278.1189">uses</text><text fill="#000000" font-family="sans-serif" font-size="16.25" lengthAdjust="spacing" textLength="8.75" x="176.5705" y="249.0898">1</text><text fill="#000000" font-family="sans-serif" font-size="16.25" lengthAdjust="spacing" textLength="25" x="105.5665" y="306.3784">1..*</text><!--MD5=[9b3eb4a311056dbf15e74a35ecc23592]
link FindContainerController to ContainerStore--><path codeLine="25" d="M271.3125,222.55 C315.6375,252.45 377.5875,294.2375 423.275,325.0375 " fill="none" id="FindContainerController-to-ContainerStore" style="stroke:#A80036;stroke-width:1.25;"/><polygon fill="#A80036" points="428.7625,328.7375,422.2168,318.3108,423.576,325.25,416.6368,326.6092,428.7625,328.7375" style="stroke:#A80036;stroke-width:1.25;"/><text fill="#000000" font-family="sans-serif" font-size="16.25" lengthAdjust="spacing" textLength="35" x="358.125" y="278.1189">uses</text><text fill="#000000" font-family="sans-serif" font-size="16.25" lengthAdjust="spacing" textLength="8.75" x="272.6646" y="249.0898">1</text><text fill="#000000" font-family="sans-serif" font-size="16.25" lengthAdjust="spacing" textLength="8.75" x="406.8902" y="315.0101">1</text><!--MD5=[ae49906f38e2954e03106bcfee84270c]
link ContainerStore to DatabaseConnection--><path codeLine="26" d="M484.375,406.3 C484.375,435.35 484.375,475.6125 484.375,506.1375 " fill="none" id="ContainerStore-to-DatabaseConnection" style="stroke:#A80036;stroke-width:1.25;"/><polygon fill="#A80036" points="484.375,512.4875,489.375,501.2375,484.375,506.2375,479.375,501.2375,484.375,512.4875" style="stroke:#A80036;stroke-width:1.25;"/><text fill="#000000" font-family="sans-serif" font-size="16.25" lengthAdjust="spacing" textLength="35" x="485.625" y="470.6189">uses</text><text fill="#000000" font-family="sans-serif" font-size="16.25" lengthAdjust="spacing" textLength="8.75" x="474.7637" y="432.8398">1</text><text fill="#000000" font-family="sans-serif" font-size="16.25" lengthAdjust="spacing" textLength="25" x="456.6406" y="498.7601">1..*</text><!--MD5=[99bfc6483af0af81e96357da59b5f32b]
@startuml
skinparam classAttributeIconSize 0

class FindContainerUI{
}

class FindContainerController {
+ findContainer(int containerId)
}

class ConnectionFactory {
+ getInstance()
+ getDatabaseConnection()
}

class ContainerStore {
+ getContainerInfo(DatabaseConnection databaseConnection, int containerNumber)
}

class DatabaseConnection {
+ getConnection()
}

FindContainerController <.up. FindContainerUI
FindContainerController "1" - -> "1..*" ConnectionFactory : uses
FindContainerController "1" - -> "1" ContainerStore : uses
ContainerStore "1" - -> "1..*" DatabaseConnection : uses



@enduml

PlantUML version 1.2021.7(Sun May 23 13:40:07 BST 2021)
(GPL source distribution)
Java Runtime: OpenJDK Runtime Environment
JVM: OpenJDK 64-Bit Server VM
Default Encoding: Cp1252
Language: pt
Country: PT
--></g></svg>