<?xml version="1.0" encoding="UTF-8" standalone="no"?><svg xmlns="http://www.w3.org/2000/svg" xmlns:xlink="http://www.w3.org/1999/xlink" contentScriptType="application/ecmascript" contentStyleType="text/css" height="86.25px" preserveAspectRatio="none" style="width:73px;height:86px;background:#FFFFFF;" version="1.1" viewBox="0 0 73 86" width="73.75px" zoomAndPan="magnify"><defs><filter height="300%" id="fvuwcb2xj05mg" width="300%" x="-1" y="-1"><feGaussianBlur result="blurOut" stdDeviation="2.5"/><feColorMatrix in="blurOut" result="blurOut2" type="matrix" values="0 0 0 0 0 0 0 0 0 0 0 0 0 0 0 0 0 0 .4 0"/><feOffset dx="5.0" dy="5.0" in="blurOut2" result="blurOut3"/><feBlend in="SourceGraphic" in2="blurOut3" mode="normal"/></filter></defs><g><!--MD5=[e3471f280e59d1431a9a122c0f31e779]
class c--><rect codeLine="3" fill="#FEFECE" filter="url(#fvuwcb2xj05mg)" height="60" id="c" style="stroke:#A80036;stroke-width:1.875;" width="47.5" x="8.75" y="8.75"/><ellipse cx="27.5" cy="28.75" fill="#ADD1B2" rx="13.75" ry="13.75" style="stroke:#A80036;stroke-width:1.25;"/><path d="M30,24.375 Q30.2539,23.75 30.5469,23.4375 Q30.8398,23.125 31.1719,23.125 Q31.7578,23.125 32.1289,23.4766 Q32.5,23.8281 32.5,24.6484 L32.5,26.6016 Q32.5,27.4219 32.1484,27.7734 Q31.7969,28.125 31.25,28.125 Q30.7617,28.125 30.4492,27.9102 Q30.1367,27.6953 30,27.1289 Q29.9414,26.7383 29.7266,26.5234 Q29.3359,26.1133 28.6328,25.8789 Q27.9297,25.625 27.2266,25.625 Q26.3477,25.625 25.6055,25.9766 Q24.8828,26.3281 24.3164,27.1094 Q23.75,27.8906 23.75,28.9648 L23.75,30.1172 Q23.75,31.4063 24.8047,32.2656 Q25.8594,33.125 27.7344,33.125 Q28.8477,33.125 29.6289,32.8711 Q30.0781,32.7344 30.5859,32.2852 Q30.918,32.0313 31.0938,31.9531 Q31.2695,31.875 31.4844,31.875 Q31.8945,31.875 32.1875,32.207 Q32.5,32.5195 32.5,32.9688 Q32.5,33.3984 32.0703,33.9063 Q31.4453,34.6484 30.4492,35.0586 Q29.1406,35.625 27.5391,35.625 Q25.6641,35.625 24.1602,34.8828 Q22.9492,34.2969 22.0898,33.0273 Q21.25,31.7578 21.25,30.2539 L21.25,28.8867 Q21.25,27.3242 21.9922,25.957 Q22.7539,24.5898 24.0625,23.8672 Q25.3906,23.125 26.875,23.125 Q27.7734,23.125 28.5547,23.4375 Q29.3359,23.75 30,24.375 Z " fill="#000000"/><text fill="#000000" font-family="sans-serif" font-size="15" lengthAdjust="spacing" textLength="7.5" x="45" y="34.8877">c</text><line style="stroke:#A80036;stroke-width:1.875;" x1="10" x2="55" y1="48.75" y2="48.75"/><line style="stroke:#A80036;stroke-width:1.875;" x1="10" x2="55" y1="58.75" y2="58.75"/><!--MD5=[633569ec117a16d6700528b5d0ded2c3]
@startuml
'https://plantuml.com/use-case-diagram

class c {
}
@enduml

@startuml

class c {
}
@enduml

PlantUML version 1.2021.7(Sun May 23 13:40:07 BST 2021)
(GPL source distribution)
Java Runtime: OpenJDK Runtime Environment
JVM: OpenJDK 64-Bit Server VM
Default Encoding: Cp1252
Language: pt
Country: PT
--></g></svg>