<?xml version="1.0" encoding="UTF-8" standalone="no"?><svg xmlns="http://www.w3.org/2000/svg" xmlns:xlink="http://www.w3.org/1999/xlink" contentScriptType="application/ecmascript" contentStyleType="text/css" height="763.75px" preserveAspectRatio="none" style="width:230px;height:763px;background:#FFFFFF;" version="1.1" viewBox="0 0 230 763" width="230px" zoomAndPan="magnify"><defs><filter height="300%" id="f1ifdu91190pfz" width="300%" x="-1" y="-1"><feGaussianBlur result="blurOut" stdDeviation="2.5"/><feColorMatrix in="blurOut" result="blurOut2" type="matrix" values="0 0 0 0 0 0 0 0 0 0 0 0 0 0 0 0 0 0 .4 0"/><feOffset dx="5.0" dy="5.0" in="blurOut2" result="blurOut3"/><feBlend in="SourceGraphic" in2="blurOut3" mode="normal"/></filter></defs><g><!--MD5=[0dc7f2ddb409b58bcf52b12238c25399]
class Ship--><rect codeLine="3" fill="#FEFECE" filter="url(#f1ifdu91190pfz)" height="250.2441" id="Ship" style="stroke:#A80036;stroke-width:1.875;" width="203.75" x="8.75" y="166.25"/><ellipse cx="89.6875" cy="186.25" fill="#ADD1B2" rx="13.75" ry="13.75" style="stroke:#A80036;stroke-width:1.25;"/><path d="M92.1875,181.875 Q92.4414,181.25 92.7344,180.9375 Q93.0273,180.625 93.3594,180.625 Q93.9453,180.625 94.3164,180.9766 Q94.6875,181.3281 94.6875,182.1484 L94.6875,184.1016 Q94.6875,184.9219 94.3359,185.2734 Q93.9844,185.625 93.4375,185.625 Q92.9492,185.625 92.6367,185.4102 Q92.3242,185.1953 92.1875,184.6289 Q92.1289,184.2383 91.9141,184.0234 Q91.5234,183.6133 90.8203,183.3789 Q90.1172,183.125 89.4141,183.125 Q88.5352,183.125 87.793,183.4766 Q87.0703,183.8281 86.5039,184.6094 Q85.9375,185.3906 85.9375,186.4648 L85.9375,187.6172 Q85.9375,188.9063 86.9922,189.7656 Q88.0469,190.625 89.9219,190.625 Q91.0352,190.625 91.8164,190.3711 Q92.2656,190.2344 92.7734,189.7852 Q93.1055,189.5313 93.2813,189.4531 Q93.457,189.375 93.6719,189.375 Q94.082,189.375 94.375,189.707 Q94.6875,190.0195 94.6875,190.4688 Q94.6875,190.8984 94.2578,191.4063 Q93.6328,192.1484 92.6367,192.5586 Q91.3281,193.125 89.7266,193.125 Q87.8516,193.125 86.3477,192.3828 Q85.1367,191.7969 84.2773,190.5273 Q83.4375,189.2578 83.4375,187.7539 L83.4375,186.3867 Q83.4375,184.8242 84.1797,183.457 Q84.9414,182.0898 86.25,181.3672 Q87.5781,180.625 89.0625,180.625 Q89.9609,180.625 90.7422,180.9375 Q91.5234,181.25 92.1875,181.875 Z " fill="#000000"/><text fill="#000000" font-family="sans-serif" font-size="15" lengthAdjust="spacing" textLength="31.25" x="115.3125" y="192.3877">Ship</text><line style="stroke:#A80036;stroke-width:1.875;" x1="10" x2="211.25" y1="206.25" y2="206.25"/><rect fill="none" height="7.5" style="stroke:#C82930;stroke-width:1.25;" width="7.5" x="18.75" y="216.25"/><text fill="#000000" font-family="sans-serif" font-size="13.75" lengthAdjust="spacing" textLength="30" x="33.75" y="225.5237">mmsi</text><rect fill="none" height="7.5" style="stroke:#C82930;stroke-width:1.25;" width="7.5" x="18.75" y="233.5449"/><text fill="#000000" font-family="sans-serif" font-size="13.75" lengthAdjust="spacing" textLength="58.75" x="33.75" y="242.8186">shipName</text><rect fill="none" height="7.5" style="stroke:#C82930;stroke-width:1.25;" width="7.5" x="18.75" y="250.8398"/><text fill="#000000" font-family="sans-serif" font-size="13.75" lengthAdjust="spacing" textLength="30" x="33.75" y="260.1135">imoId</text><rect fill="none" height="7.5" style="stroke:#C82930;stroke-width:1.25;" width="7.5" x="18.75" y="268.1348"/><text fill="#000000" font-family="sans-serif" font-size="13.75" lengthAdjust="spacing" textLength="171.25" x="33.75" y="277.4084">numberOfEnergyGenerators</text><rect fill="none" height="7.5" style="stroke:#C82930;stroke-width:1.25;" width="7.5" x="18.75" y="285.4297"/><text fill="#000000" font-family="sans-serif" font-size="13.75" lengthAdjust="spacing" textLength="146.25" x="33.75" y="294.7034">generatorsPowerOutput</text><rect fill="none" height="7.5" style="stroke:#C82930;stroke-width:1.25;" width="7.5" x="18.75" y="302.7246"/><text fill="#000000" font-family="sans-serif" font-size="13.75" lengthAdjust="spacing" textLength="46.25" x="33.75" y="311.9983">callSign</text><rect fill="none" height="7.5" style="stroke:#C82930;stroke-width:1.25;" width="7.5" x="18.75" y="320.0195"/><text fill="#000000" font-family="sans-serif" font-size="13.75" lengthAdjust="spacing" textLength="70" x="33.75" y="329.2932">vesselType</text><rect fill="none" height="7.5" style="stroke:#C82930;stroke-width:1.25;" width="7.5" x="18.75" y="337.3145"/><text fill="#000000" font-family="sans-serif" font-size="13.75" lengthAdjust="spacing" textLength="36.25" x="33.75" y="346.5881">lenght</text><rect fill="none" height="7.5" style="stroke:#C82930;stroke-width:1.25;" width="7.5" x="18.75" y="354.6094"/><text fill="#000000" font-family="sans-serif" font-size="13.75" lengthAdjust="spacing" textLength="33.75" x="33.75" y="363.8831">width</text><rect fill="none" height="7.5" style="stroke:#C82930;stroke-width:1.25;" width="7.5" x="18.75" y="371.9043"/><text fill="#000000" font-family="sans-serif" font-size="13.75" lengthAdjust="spacing" textLength="51.25" x="33.75" y="381.178">capacity</text><rect fill="none" height="7.5" style="stroke:#C82930;stroke-width:1.25;" width="7.5" x="18.75" y="389.1992"/><text fill="#000000" font-family="sans-serif" font-size="13.75" lengthAdjust="spacing" textLength="28.75" x="33.75" y="398.4729">draft</text><line style="stroke:#A80036;stroke-width:1.875;" x1="10" x2="211.25" y1="406.4941" y2="406.4941"/><!--MD5=[a3093aa9f96b7df9aab31d8715601ff6]
class Containers--><rect codeLine="17" fill="#FEFECE" filter="url(#f1ifdu91190pfz)" height="232.9492" id="Containers" style="stroke:#A80036;stroke-width:1.875;" width="116.25" x="52.5" y="513.75"/><ellipse cx="71.25" cy="533.75" fill="#ADD1B2" rx="13.75" ry="13.75" style="stroke:#A80036;stroke-width:1.25;"/><path d="M73.75,529.375 Q74.0039,528.75 74.2969,528.4375 Q74.5898,528.125 74.9219,528.125 Q75.5078,528.125 75.8789,528.4766 Q76.25,528.8281 76.25,529.6484 L76.25,531.6016 Q76.25,532.4219 75.8984,532.7734 Q75.5469,533.125 75,533.125 Q74.5117,533.125 74.1992,532.9102 Q73.8867,532.6953 73.75,532.1289 Q73.6914,531.7383 73.4766,531.5234 Q73.0859,531.1133 72.3828,530.8789 Q71.6797,530.625 70.9766,530.625 Q70.0977,530.625 69.3555,530.9766 Q68.6328,531.3281 68.0664,532.1094 Q67.5,532.8906 67.5,533.9648 L67.5,535.1172 Q67.5,536.4063 68.5547,537.2656 Q69.6094,538.125 71.4844,538.125 Q72.5977,538.125 73.3789,537.8711 Q73.8281,537.7344 74.3359,537.2852 Q74.668,537.0313 74.8438,536.9531 Q75.0195,536.875 75.2344,536.875 Q75.6445,536.875 75.9375,537.207 Q76.25,537.5195 76.25,537.9688 Q76.25,538.3984 75.8203,538.9063 Q75.1953,539.6484 74.1992,540.0586 Q72.8906,540.625 71.2891,540.625 Q69.4141,540.625 67.9102,539.8828 Q66.6992,539.2969 65.8398,538.0273 Q65,536.7578 65,535.2539 L65,533.8867 Q65,532.3242 65.7422,530.957 Q66.5039,529.5898 67.8125,528.8672 Q69.1406,528.125 70.625,528.125 Q71.5234,528.125 72.3047,528.4375 Q73.0859,528.75 73.75,529.375 Z " fill="#000000"/><text fill="#000000" font-family="sans-serif" font-size="15" lengthAdjust="spacing" textLength="76.25" x="88.75" y="539.8877">Containers</text><line style="stroke:#A80036;stroke-width:1.875;" x1="53.75" x2="167.5" y1="553.75" y2="553.75"/><rect fill="none" height="7.5" style="stroke:#C82930;stroke-width:1.25;" width="7.5" x="62.5" y="563.75"/><text fill="#000000" font-family="sans-serif" font-size="13.75" lengthAdjust="spacing" textLength="75" x="77.5" y="573.0237">identification</text><rect fill="none" height="7.5" style="stroke:#C82930;stroke-width:1.25;" width="7.5" x="62.5" y="581.0449"/><text fill="#000000" font-family="sans-serif" font-size="13.75" lengthAdjust="spacing" textLength="47.5" x="77.5" y="590.3186">payload</text><rect fill="none" height="7.5" style="stroke:#C82930;stroke-width:1.25;" width="7.5" x="62.5" y="598.3398"/><text fill="#000000" font-family="sans-serif" font-size="13.75" lengthAdjust="spacing" textLength="23.75" x="77.5" y="607.6135">tare</text><rect fill="none" height="7.5" style="stroke:#C82930;stroke-width:1.25;" width="7.5" x="62.5" y="615.6348"/><text fill="#000000" font-family="sans-serif" font-size="13.75" lengthAdjust="spacing" textLength="35" x="77.5" y="624.9084">gross</text><rect fill="none" height="7.5" style="stroke:#C82930;stroke-width:1.25;" width="7.5" x="62.5" y="632.9297"/><text fill="#000000" font-family="sans-serif" font-size="13.75" lengthAdjust="spacing" textLength="48.75" x="77.5" y="642.2034">isoCode</text><rect fill="none" height="7.5" style="stroke:#C82930;stroke-width:1.25;" width="7.5" x="62.5" y="650.2246"/><text fill="#000000" font-family="sans-serif" font-size="13.75" lengthAdjust="spacing" textLength="36.25" x="77.5" y="659.4983">lenght</text><rect fill="none" height="7.5" style="stroke:#C82930;stroke-width:1.25;" width="7.5" x="62.5" y="667.5195"/><text fill="#000000" font-family="sans-serif" font-size="13.75" lengthAdjust="spacing" textLength="33.75" x="77.5" y="676.7932">width</text><rect fill="none" height="7.5" style="stroke:#C82930;stroke-width:1.25;" width="7.5" x="62.5" y="684.8145"/><text fill="#000000" font-family="sans-serif" font-size="13.75" lengthAdjust="spacing" textLength="36.25" x="77.5" y="694.0881">height</text><rect fill="none" height="7.5" style="stroke:#C82930;stroke-width:1.25;" width="7.5" x="62.5" y="702.1094"/><text fill="#000000" font-family="sans-serif" font-size="13.75" lengthAdjust="spacing" textLength="72.5" x="77.5" y="711.3831">temperature</text><rect fill="none" height="7.5" style="stroke:#C82930;stroke-width:1.25;" width="7.5" x="62.5" y="719.4043"/><text fill="#000000" font-family="sans-serif" font-size="13.75" lengthAdjust="spacing" textLength="71.25" x="77.5" y="728.678">coordinates</text><line style="stroke:#A80036;stroke-width:1.875;" x1="53.75" x2="167.5" y1="736.6992" y2="736.6992"/><!--MD5=[a0e14dc1c5f22798a4d68a7546a0e1d4]
class PortStaff--><rect fill="#FEFECE" filter="url(#f1ifdu91190pfz)" height="60" id="PortStaff" style="stroke:#A80036;stroke-width:1.875;" width="97.5" x="61.875" y="8.75"/><ellipse cx="80.625" cy="28.75" fill="#ADD1B2" rx="13.75" ry="13.75" style="stroke:#A80036;stroke-width:1.25;"/><path d="M83.125,24.375 Q83.3789,23.75 83.6719,23.4375 Q83.9648,23.125 84.2969,23.125 Q84.8828,23.125 85.2539,23.4766 Q85.625,23.8281 85.625,24.6484 L85.625,26.6016 Q85.625,27.4219 85.2734,27.7734 Q84.9219,28.125 84.375,28.125 Q83.8867,28.125 83.5742,27.9102 Q83.2617,27.6953 83.125,27.1289 Q83.0664,26.7383 82.8516,26.5234 Q82.4609,26.1133 81.7578,25.8789 Q81.0547,25.625 80.3516,25.625 Q79.4727,25.625 78.7305,25.9766 Q78.0078,26.3281 77.4414,27.1094 Q76.875,27.8906 76.875,28.9648 L76.875,30.1172 Q76.875,31.4063 77.9297,32.2656 Q78.9844,33.125 80.8594,33.125 Q81.9727,33.125 82.7539,32.8711 Q83.2031,32.7344 83.7109,32.2852 Q84.043,32.0313 84.2188,31.9531 Q84.3945,31.875 84.6094,31.875 Q85.0195,31.875 85.3125,32.207 Q85.625,32.5195 85.625,32.9688 Q85.625,33.3984 85.1953,33.9063 Q84.5703,34.6484 83.5742,35.0586 Q82.2656,35.625 80.6641,35.625 Q78.7891,35.625 77.2852,34.8828 Q76.0742,34.2969 75.2148,33.0273 Q74.375,31.7578 74.375,30.2539 L74.375,28.8867 Q74.375,27.3242 75.1172,25.957 Q75.8789,24.5898 77.1875,23.8672 Q78.5156,23.125 80,23.125 Q80.8984,23.125 81.6797,23.4375 Q82.4609,23.75 83.125,24.375 Z " fill="#000000"/><text fill="#000000" font-family="sans-serif" font-size="15" lengthAdjust="spacing" textLength="57.5" x="98.125" y="34.8877">PortStaff</text><line style="stroke:#A80036;stroke-width:1.875;" x1="63.125" x2="158.125" y1="48.75" y2="48.75"/><line style="stroke:#A80036;stroke-width:1.875;" x1="63.125" x2="158.125" y1="58.75" y2="58.75"/><!--MD5=[48d901b645b583b24981c41ea2f4fedc]
link PortStaff to Ship--><path codeLine="34" d="M110.625,69.1625 C110.625,93.3875 110.625,129.5875 110.625,165.7125 " fill="none" id="PortStaff-Ship" style="stroke:#A80036;stroke-width:1.25;"/><polygon fill="#000000" points="116.875,123.9697,120.5487,112.6634,113.2013,112.6634,116.875,123.9697" style="stroke:#000000;stroke-width:1.25;"/><text fill="#000000" font-family="sans-serif" font-size="16.25" lengthAdjust="spacing" textLength="42.5" x="128.125" y="124.3689">works</text><text fill="#000000" font-family="sans-serif" font-size="16.25" lengthAdjust="spacing" textLength="8.75" x="100.8633" y="95.4276">1</text><text fill="#000000" font-family="sans-serif" font-size="16.25" lengthAdjust="spacing" textLength="25" x="84.707" y="152.635">1..*</text><!--MD5=[cff4e3c6ede03364cf99bd3378be6b6a]
link Ship to Containers--><path codeLine="35" d="M110.625,416.275 C110.625,448.1125 110.625,482.225 110.625,513.6 " fill="none" id="Ship-Containers" style="stroke:#A80036;stroke-width:1.25;"/><polygon fill="#000000" points="116.875,471.4697,120.5487,460.1634,113.2013,460.1634,116.875,471.4697" style="stroke:#000000;stroke-width:1.25;"/><text fill="#000000" font-family="sans-serif" font-size="16.25" lengthAdjust="spacing" textLength="26.25" x="128.125" y="471.8689">has</text><text fill="#000000" font-family="sans-serif" font-size="16.25" lengthAdjust="spacing" textLength="8.75" x="101.54" y="443.4892">1</text><text fill="#000000" font-family="sans-serif" font-size="16.25" lengthAdjust="spacing" textLength="25" x="84.5898" y="500.001">1..*</text><!--MD5=[80ba8936d349665023e5ffce11f3588f]
@startuml


class Ship {
 - mmsi
 - shipName
 - imoId
 - numberOfEnergyGenerators
 - generatorsPowerOutput
 - callSign
 - vesselType
 - lenght
 - width
 - capacity
 - draft
}

class Containers {
- identification
- payload
- tare
- gross
- isoCode
- lenght
- width
- height
- temperature
- coordinates
}





PortStaff"1" -down- "1..*"Ship : > works
Ship "1" -down- "1..*"Containers  : > has

@enduml

PlantUML version 1.2021.7(Sun May 23 13:40:07 BST 2021)
(GPL source distribution)
Java Runtime: OpenJDK Runtime Environment
JVM: OpenJDK 64-Bit Server VM
Default Encoding: Cp1252
Language: pt
Country: PT
--></g></svg>