<?xml version="1.0" encoding="UTF-8" standalone="no"?><svg xmlns="http://www.w3.org/2000/svg" xmlns:xlink="http://www.w3.org/1999/xlink" contentScriptType="application/ecmascript" contentStyleType="text/css" height="673.75px" preserveAspectRatio="none" style="width:505px;height:673px;background:#FFFFFF;" version="1.1" viewBox="0 0 505 673" width="505px" zoomAndPan="magnify"><defs><filter height="300%" id="farqhr2glai09" width="300%" x="-1" y="-1"><feGaussianBlur result="blurOut" stdDeviation="2.5"/><feColorMatrix in="blurOut" result="blurOut2" type="matrix" values="0 0 0 0 0 0 0 0 0 0 0 0 0 0 0 0 0 0 .4 0"/><feOffset dx="5.0" dy="5.0" in="blurOut2" result="blurOut3"/><feBlend in="SourceGraphic" in2="blurOut3" mode="normal"/></filter></defs><g><!--MD5=[640871566440a127c944d01368d78a10]
class SummaryUI--><rect codeLine="3" fill="#FEFECE" filter="url(#farqhr2glai09)" height="60" id="SummaryUI" style="stroke:#A80036;stroke-width:1.875;" width="121.25" x="187.5" y="8.75"/><ellipse cx="206.25" cy="28.75" fill="#ADD1B2" rx="13.75" ry="13.75" style="stroke:#A80036;stroke-width:1.25;"/><path d="M208.75,24.375 Q209.0039,23.75 209.2969,23.4375 Q209.5898,23.125 209.9219,23.125 Q210.5078,23.125 210.8789,23.4766 Q211.25,23.8281 211.25,24.6484 L211.25,26.6016 Q211.25,27.4219 210.8984,27.7734 Q210.5469,28.125 210,28.125 Q209.5117,28.125 209.1992,27.9102 Q208.8867,27.6953 208.75,27.1289 Q208.6914,26.7383 208.4766,26.5234 Q208.0859,26.1133 207.3828,25.8789 Q206.6797,25.625 205.9766,25.625 Q205.0977,25.625 204.3555,25.9766 Q203.6328,26.3281 203.0664,27.1094 Q202.5,27.8906 202.5,28.9648 L202.5,30.1172 Q202.5,31.4063 203.5547,32.2656 Q204.6094,33.125 206.4844,33.125 Q207.5977,33.125 208.3789,32.8711 Q208.8281,32.7344 209.3359,32.2852 Q209.668,32.0313 209.8438,31.9531 Q210.0195,31.875 210.2344,31.875 Q210.6445,31.875 210.9375,32.207 Q211.25,32.5195 211.25,32.9688 Q211.25,33.3984 210.8203,33.9063 Q210.1953,34.6484 209.1992,35.0586 Q207.8906,35.625 206.2891,35.625 Q204.4141,35.625 202.9102,34.8828 Q201.6992,34.2969 200.8398,33.0273 Q200,31.7578 200,30.2539 L200,28.8867 Q200,27.3242 200.7422,25.957 Q201.5039,24.5898 202.8125,23.8672 Q204.1406,23.125 205.625,23.125 Q206.5234,23.125 207.3047,23.4375 Q208.0859,23.75 208.75,24.375 Z " fill="#000000"/><text fill="#000000" font-family="sans-serif" font-size="15" lengthAdjust="spacing" textLength="81.25" x="223.75" y="34.8877">SummaryUI</text><line style="stroke:#A80036;stroke-width:1.875;" x1="188.75" x2="307.5" y1="48.75" y2="48.75"/><line style="stroke:#A80036;stroke-width:1.875;" x1="188.75" x2="307.5" y1="58.75" y2="58.75"/><!--MD5=[3f1cb4dd8ebfe3438cbc60657ade16a6]
class ShipDistanceController--><rect codeLine="6" fill="#FEFECE" filter="url(#farqhr2glai09)" height="77.2949" id="ShipDistanceController" style="stroke:#A80036;stroke-width:1.875;" width="478.75" x="8.75" y="145"/><ellipse cx="162.8125" cy="165" fill="#ADD1B2" rx="13.75" ry="13.75" style="stroke:#A80036;stroke-width:1.25;"/><path d="M165.3125,160.625 Q165.5664,160 165.8594,159.6875 Q166.1523,159.375 166.4844,159.375 Q167.0703,159.375 167.4414,159.7266 Q167.8125,160.0781 167.8125,160.8984 L167.8125,162.8516 Q167.8125,163.6719 167.4609,164.0234 Q167.1094,164.375 166.5625,164.375 Q166.0742,164.375 165.7617,164.1602 Q165.4492,163.9453 165.3125,163.3789 Q165.2539,162.9883 165.0391,162.7734 Q164.6484,162.3633 163.9453,162.1289 Q163.2422,161.875 162.5391,161.875 Q161.6602,161.875 160.918,162.2266 Q160.1953,162.5781 159.6289,163.3594 Q159.0625,164.1406 159.0625,165.2148 L159.0625,166.3672 Q159.0625,167.6563 160.1172,168.5156 Q161.1719,169.375 163.0469,169.375 Q164.1602,169.375 164.9414,169.1211 Q165.3906,168.9844 165.8984,168.5352 Q166.2305,168.2813 166.4063,168.2031 Q166.582,168.125 166.7969,168.125 Q167.207,168.125 167.5,168.457 Q167.8125,168.7695 167.8125,169.2188 Q167.8125,169.6484 167.3828,170.1563 Q166.7578,170.8984 165.7617,171.3086 Q164.4531,171.875 162.8516,171.875 Q160.9766,171.875 159.4727,171.1328 Q158.2617,170.5469 157.4023,169.2773 Q156.5625,168.0078 156.5625,166.5039 L156.5625,165.1367 Q156.5625,163.5742 157.3047,162.207 Q158.0664,160.8398 159.375,160.1172 Q160.7031,159.375 162.1875,159.375 Q163.0859,159.375 163.8672,159.6875 Q164.6484,160 165.3125,160.625 Z " fill="#000000"/><text fill="#000000" font-family="sans-serif" font-size="15" lengthAdjust="spacing" textLength="160" x="188.4375" y="171.1377">ShipDistanceController</text><line style="stroke:#A80036;stroke-width:1.875;" x1="10" x2="486.25" y1="185" y2="185"/><line style="stroke:#A80036;stroke-width:1.875;" x1="10" x2="486.25" y1="195" y2="195"/><ellipse cx="22.5" cy="208.75" fill="#84BE84" rx="3.75" ry="3.75" style="stroke:#038048;stroke-width:1.25;"/><text fill="#000000" font-family="sans-serif" font-size="13.75" lengthAdjust="spacing" textLength="446.25" x="33.75" y="214.2737">shipDistCalc(int mmsi, HashMap&lt;Ship, List&lt;ShipDynamicFields&gt;&gt; shipMap)</text><!--MD5=[ac7de62ce9384a92b5e95b1a406bc87c]
class ShipDistance--><rect codeLine="10" fill="#FEFECE" filter="url(#farqhr2glai09)" height="336.7188" id="ShipDistance" style="stroke:#A80036;stroke-width:1.875;" width="455" x="20.625" y="320"/><ellipse cx="196.5625" cy="340" fill="#ADD1B2" rx="13.75" ry="13.75" style="stroke:#A80036;stroke-width:1.25;"/><path d="M199.0625,335.625 Q199.3164,335 199.6094,334.6875 Q199.9023,334.375 200.2344,334.375 Q200.8203,334.375 201.1914,334.7266 Q201.5625,335.0781 201.5625,335.8984 L201.5625,337.8516 Q201.5625,338.6719 201.2109,339.0234 Q200.8594,339.375 200.3125,339.375 Q199.8242,339.375 199.5117,339.1602 Q199.1992,338.9453 199.0625,338.3789 Q199.0039,337.9883 198.7891,337.7734 Q198.3984,337.3633 197.6953,337.1289 Q196.9922,336.875 196.2891,336.875 Q195.4102,336.875 194.668,337.2266 Q193.9453,337.5781 193.3789,338.3594 Q192.8125,339.1406 192.8125,340.2148 L192.8125,341.3672 Q192.8125,342.6563 193.8672,343.5156 Q194.9219,344.375 196.7969,344.375 Q197.9102,344.375 198.6914,344.1211 Q199.1406,343.9844 199.6484,343.5352 Q199.9805,343.2813 200.1563,343.2031 Q200.332,343.125 200.5469,343.125 Q200.957,343.125 201.25,343.457 Q201.5625,343.7695 201.5625,344.2188 Q201.5625,344.6484 201.1328,345.1563 Q200.5078,345.8984 199.5117,346.3086 Q198.2031,346.875 196.6016,346.875 Q194.7266,346.875 193.2227,346.1328 Q192.0117,345.5469 191.1523,344.2773 Q190.3125,343.0078 190.3125,341.5039 L190.3125,340.1367 Q190.3125,338.5742 191.0547,337.207 Q191.8164,335.8398 193.125,335.1172 Q194.4531,334.375 195.9375,334.375 Q196.8359,334.375 197.6172,334.6875 Q198.3984,335 199.0625,335.625 Z " fill="#000000"/><text fill="#000000" font-family="sans-serif" font-size="15" lengthAdjust="spacing" textLength="92.5" x="222.1875" y="346.1377">ShipDistance</text><line style="stroke:#A80036;stroke-width:1.875;" x1="21.875" x2="474.375" y1="360" y2="360"/><line style="stroke:#A80036;stroke-width:1.875;" x1="21.875" x2="474.375" y1="370" y2="370"/><ellipse cx="34.375" cy="383.75" fill="#84BE84" rx="3.75" ry="3.75" style="stroke:#038048;stroke-width:1.25;"/><text fill="#000000" font-family="sans-serif" font-size="13.75" lengthAdjust="spacing" textLength="92.5" x="45.625" y="389.2737">setMmsi (mmsi)</text><ellipse cx="34.375" cy="401.0449" fill="#84BE84" rx="3.75" ry="3.75" style="stroke:#038048;stroke-width:1.25;"/><text fill="#000000" font-family="sans-serif" font-size="13.75" lengthAdjust="spacing" textLength="422.5" x="45.625" y="406.5686">setTotalMovements(ShipDistance.getTotalMovements(mmsi, shipMap))</text><ellipse cx="34.375" cy="418.3398" fill="#84BE84" rx="3.75" ry="3.75" style="stroke:#038048;stroke-width:1.25;"/><text fill="#000000" font-family="sans-serif" font-size="13.75" lengthAdjust="spacing" textLength="340" x="45.625" y="423.8635">setTotalTime(ShipDistance.getTotalTime(mmsi, shipMap))</text><ellipse cx="34.375" cy="435.6348" fill="#84BE84" rx="3.75" ry="3.75" style="stroke:#038048;stroke-width:1.25;"/><text fill="#000000" font-family="sans-serif" font-size="13.75" lengthAdjust="spacing" textLength="306.25" x="45.625" y="441.1584">setMaxCog(ShipDistance.maxCog(mmsi, shipMap))</text><ellipse cx="34.375" cy="452.9297" fill="#84BE84" rx="3.75" ry="3.75" style="stroke:#038048;stroke-width:1.25;"/><text fill="#000000" font-family="sans-serif" font-size="13.75" lengthAdjust="spacing" textLength="306.25" x="45.625" y="458.4534">setMaxSog(ShipDistance.maxSog(mmsi, shipMap))</text><ellipse cx="34.375" cy="470.2246" fill="#84BE84" rx="3.75" ry="3.75" style="stroke:#038048;stroke-width:1.25;"/><text fill="#000000" font-family="sans-serif" font-size="13.75" lengthAdjust="spacing" textLength="400" x="45.625" y="475.7483">setStartTime(ShipDistance.minTime(mmsi, shipMap).getDateTime())</text><ellipse cx="34.375" cy="487.5195" fill="#84BE84" rx="3.75" ry="3.75" style="stroke:#038048;stroke-width:1.25;"/><text fill="#000000" font-family="sans-serif" font-size="13.75" lengthAdjust="spacing" textLength="398.75" x="45.625" y="493.0432">setEndTime(ShipDistance.maxTime(mmsi, shipMap).getDateTime())</text><ellipse cx="34.375" cy="504.8145" fill="#84BE84" rx="3.75" ry="3.75" style="stroke:#038048;stroke-width:1.25;"/><text fill="#000000" font-family="sans-serif" font-size="13.75" lengthAdjust="spacing" textLength="378.75" x="45.625" y="510.3381">setDepLatitude(ShipDistance.minTime(mmsi, shipMap).getLat())</text><ellipse cx="34.375" cy="522.1094" fill="#84BE84" rx="3.75" ry="3.75" style="stroke:#038048;stroke-width:1.25;"/><text fill="#000000" font-family="sans-serif" font-size="13.75" lengthAdjust="spacing" textLength="365" x="45.625" y="527.6331">setDepLong(ShipDistance.minTime(mmsi, shipMap).getLon())</text><ellipse cx="34.375" cy="539.4043" fill="#84BE84" rx="3.75" ry="3.75" style="stroke:#038048;stroke-width:1.25;"/><text fill="#000000" font-family="sans-serif" font-size="13.75" lengthAdjust="spacing" textLength="380" x="45.625" y="544.928">setArrLatitude(ShipDistance.maxTime(mmsi, shipMap).getLat())</text><ellipse cx="34.375" cy="556.6992" fill="#84BE84" rx="3.75" ry="3.75" style="stroke:#038048;stroke-width:1.25;"/><text fill="#000000" font-family="sans-serif" font-size="13.75" lengthAdjust="spacing" textLength="366.25" x="45.625" y="562.2229">setArrLong(ShipDistance.maxTime(mmsi, shipMap).getLon())</text><ellipse cx="34.375" cy="573.9941" fill="#84BE84" rx="3.75" ry="3.75" style="stroke:#038048;stroke-width:1.25;"/><text fill="#000000" font-family="sans-serif" font-size="13.75" lengthAdjust="spacing" textLength="321.25" x="45.625" y="579.5178">setMeanCog(ShipDistance.meanCog(mmsi, shipMap))</text><ellipse cx="34.375" cy="591.2891" fill="#84BE84" rx="3.75" ry="3.75" style="stroke:#038048;stroke-width:1.25;"/><text fill="#000000" font-family="sans-serif" font-size="13.75" lengthAdjust="spacing" textLength="321.25" x="45.625" y="596.8127">setMeanSog(ShipDistance.meanSog(mmsi, shipMap))</text><ellipse cx="34.375" cy="608.584" fill="#84BE84" rx="3.75" ry="3.75" style="stroke:#038048;stroke-width:1.25;"/><text fill="#000000" font-family="sans-serif" font-size="13.75" lengthAdjust="spacing" textLength="301.25" x="45.625" y="614.1077">setDeltDis(ShipDistance.distDelta(mmsi, shipMap))</text><ellipse cx="34.375" cy="625.8789" fill="#84BE84" rx="3.75" ry="3.75" style="stroke:#038048;stroke-width:1.25;"/><text fill="#000000" font-family="sans-serif" font-size="13.75" lengthAdjust="spacing" textLength="332.5" x="45.625" y="631.4026">setTravDis(ShipDistance.totalDistance(mmsi, shipMap))</text><ellipse cx="34.375" cy="643.1738" fill="#84BE84" rx="3.75" ry="3.75" style="stroke:#038048;stroke-width:1.25;"/><text fill="#000000" font-family="sans-serif" font-size="13.75" lengthAdjust="spacing" textLength="241.25" x="45.625" y="648.6975">setVesselName(ship1.getVesselName()</text><!--MD5=[728119b5ecbddc3cfc1163b4bdd74e89]
link SummaryUI to ShipDistanceController--><path codeLine="29" d="M248.125,68.8375 C248.125,88.7625 248.125,115.6375 248.125,138.25 " fill="none" id="SummaryUI-to-ShipDistanceController" style="stroke:#A80036;stroke-width:1.25;stroke-dasharray:7.0,7.0;"/><polygon fill="#A80036" points="248.125,144.5125,253.125,133.2625,248.125,138.2625,243.125,133.2625,248.125,144.5125" style="stroke:#A80036;stroke-width:1.25;"/><!--MD5=[10b4a9574b603e086d31abf134959c8f]
link ShipDistanceController to ShipDistance--><path codeLine="30" d="M248.125,222.625 C248.125,247.9125 248.125,283.2 248.125,319.775 " fill="none" id="ShipDistanceController-ShipDistance" style="stroke:#A80036;stroke-width:1.25;"/><polygon fill="#000000" points="254.375,277.7197,258.0487,266.4134,250.7013,266.4134,254.375,277.7197" style="stroke:#000000;stroke-width:1.25;"/><text fill="#000000" font-family="sans-serif" font-size="16.25" lengthAdjust="spacing" textLength="35" x="265.625" y="278.1189">uses</text><!--MD5=[a42ba683e5ef623eb04b3045669aaef2]
@startuml
'https://plantuml.com/use-case-diagram

class SummaryUI {
}

class ShipDistanceController {
+ shipDistCalc(int mmsi, HashMap<Ship, List<ShipDynamicFields>> shipMap)
}

class ShipDistance {
+setMmsi (mmsi)
+setTotalMovements(ShipDistance.getTotalMovements(mmsi, shipMap))
+setTotalTime(ShipDistance.getTotalTime(mmsi, shipMap))
+setMaxCog(ShipDistance.maxCog(mmsi, shipMap))
+setMaxSog(ShipDistance.maxSog(mmsi, shipMap))
+setStartTime(ShipDistance.minTime(mmsi, shipMap).getDateTime())
+setEndTime(ShipDistance.maxTime(mmsi, shipMap).getDateTime())
+setDepLatitude(ShipDistance.minTime(mmsi, shipMap).getLat())
+setDepLong(ShipDistance.minTime(mmsi, shipMap).getLon())
+setArrLatitude(ShipDistance.maxTime(mmsi, shipMap).getLat())
+setArrLong(ShipDistance.maxTime(mmsi, shipMap).getLon())
+setMeanCog(ShipDistance.meanCog(mmsi, shipMap))
+setMeanSog(ShipDistance.meanSog(mmsi, shipMap))
+setDeltDis(ShipDistance.distDelta(mmsi, shipMap))
+setTravDis(ShipDistance.totalDistance(mmsi, shipMap))
+setVesselName(ship1.getVesselName()
}

SummaryUI ..> ShipDistanceController
ShipDistanceController -down- ShipDistance :> uses
@enduml

@startuml

class SummaryUI {
}

class ShipDistanceController {
+ shipDistCalc(int mmsi, HashMap<Ship, List<ShipDynamicFields>> shipMap)
}

class ShipDistance {
+setMmsi (mmsi)
+setTotalMovements(ShipDistance.getTotalMovements(mmsi, shipMap))
+setTotalTime(ShipDistance.getTotalTime(mmsi, shipMap))
+setMaxCog(ShipDistance.maxCog(mmsi, shipMap))
+setMaxSog(ShipDistance.maxSog(mmsi, shipMap))
+setStartTime(ShipDistance.minTime(mmsi, shipMap).getDateTime())
+setEndTime(ShipDistance.maxTime(mmsi, shipMap).getDateTime())
+setDepLatitude(ShipDistance.minTime(mmsi, shipMap).getLat())
+setDepLong(ShipDistance.minTime(mmsi, shipMap).getLon())
+setArrLatitude(ShipDistance.maxTime(mmsi, shipMap).getLat())
+setArrLong(ShipDistance.maxTime(mmsi, shipMap).getLon())
+setMeanCog(ShipDistance.meanCog(mmsi, shipMap))
+setMeanSog(ShipDistance.meanSog(mmsi, shipMap))
+setDeltDis(ShipDistance.distDelta(mmsi, shipMap))
+setTravDis(ShipDistance.totalDistance(mmsi, shipMap))
+setVesselName(ship1.getVesselName()
}

SummaryUI ..> ShipDistanceController
ShipDistanceController -down- ShipDistance :> uses
@enduml

PlantUML version 1.2021.7(Sun May 23 13:40:07 BST 2021)
(GPL source distribution)
Java Runtime: OpenJDK Runtime Environment
JVM: OpenJDK 64-Bit Server VM
Default Encoding: Cp1252
Language: pt
Country: PT
--></g></svg>