<?xml version="1.0" encoding="UTF-8" standalone="no"?><svg xmlns="http://www.w3.org/2000/svg" xmlns:xlink="http://www.w3.org/1999/xlink" contentScriptType="application/ecmascript" contentStyleType="text/css" height="606.25px" preserveAspectRatio="none" style="width:795px;height:606px;background:#FFFFFF;" version="1.1" viewBox="0 0 795 606" width="795px" zoomAndPan="magnify"><defs><filter height="300%" id="f1tdu45hstyn02" width="300%" x="-1" y="-1"><feGaussianBlur result="blurOut" stdDeviation="2.5"/><feColorMatrix in="blurOut" result="blurOut2" type="matrix" values="0 0 0 0 0 0 0 0 0 0 0 0 0 0 0 0 0 0 .4 0"/><feOffset dx="5.0" dy="5.0" in="blurOut2" result="blurOut3"/><feBlend in="SourceGraphic" in2="blurOut3" mode="normal"/></filter></defs><g><!--MD5=[da26650d403578a5409da5c6e211dccb]
class OccupancyShipUI--><rect codeLine="3" fill="#FEFECE" filter="url(#f1tdu45hstyn02)" height="60" id="OccupancyShipUI" style="stroke:#A80036;stroke-width:1.875;" width="161.25" x="138.75" y="8.75"/><ellipse cx="157.5" cy="28.75" fill="#ADD1B2" rx="13.75" ry="13.75" style="stroke:#A80036;stroke-width:1.25;"/><path d="M160,24.375 Q160.2539,23.75 160.5469,23.4375 Q160.8398,23.125 161.1719,23.125 Q161.7578,23.125 162.1289,23.4766 Q162.5,23.8281 162.5,24.6484 L162.5,26.6016 Q162.5,27.4219 162.1484,27.7734 Q161.7969,28.125 161.25,28.125 Q160.7617,28.125 160.4492,27.9102 Q160.1367,27.6953 160,27.1289 Q159.9414,26.7383 159.7266,26.5234 Q159.3359,26.1133 158.6328,25.8789 Q157.9297,25.625 157.2266,25.625 Q156.3477,25.625 155.6055,25.9766 Q154.8828,26.3281 154.3164,27.1094 Q153.75,27.8906 153.75,28.9648 L153.75,30.1172 Q153.75,31.4063 154.8047,32.2656 Q155.8594,33.125 157.7344,33.125 Q158.8477,33.125 159.6289,32.8711 Q160.0781,32.7344 160.5859,32.2852 Q160.918,32.0313 161.0938,31.9531 Q161.2695,31.875 161.4844,31.875 Q161.8945,31.875 162.1875,32.207 Q162.5,32.5195 162.5,32.9688 Q162.5,33.3984 162.0703,33.9063 Q161.4453,34.6484 160.4492,35.0586 Q159.1406,35.625 157.5391,35.625 Q155.6641,35.625 154.1602,34.8828 Q152.9492,34.2969 152.0898,33.0273 Q151.25,31.7578 151.25,30.2539 L151.25,28.8867 Q151.25,27.3242 151.9922,25.957 Q152.7539,24.5898 154.0625,23.8672 Q155.3906,23.125 156.875,23.125 Q157.7734,23.125 158.5547,23.4375 Q159.3359,23.75 160,24.375 Z " fill="#000000"/><text fill="#000000" font-family="sans-serif" font-size="15" lengthAdjust="spacing" textLength="121.25" x="175" y="34.8877">OccupancyShipUI</text><line style="stroke:#A80036;stroke-width:1.875;" x1="140" x2="298.75" y1="48.75" y2="48.75"/><line style="stroke:#A80036;stroke-width:1.875;" x1="140" x2="298.75" y1="58.75" y2="58.75"/><!--MD5=[b876ef1f37e0d8b9b6a40127fe5975bb]
class ShipOccupancyController--><rect codeLine="6" fill="#FEFECE" filter="url(#f1tdu45hstyn02)" height="77.2949" id="ShipOccupancyController" style="stroke:#A80036;stroke-width:1.875;" width="320" x="59.375" y="145"/><ellipse cx="127.1875" cy="165" fill="#ADD1B2" rx="13.75" ry="13.75" style="stroke:#A80036;stroke-width:1.25;"/><path d="M129.6875,160.625 Q129.9414,160 130.2344,159.6875 Q130.5273,159.375 130.8594,159.375 Q131.4453,159.375 131.8164,159.7266 Q132.1875,160.0781 132.1875,160.8984 L132.1875,162.8516 Q132.1875,163.6719 131.8359,164.0234 Q131.4844,164.375 130.9375,164.375 Q130.4492,164.375 130.1367,164.1602 Q129.8242,163.9453 129.6875,163.3789 Q129.6289,162.9883 129.4141,162.7734 Q129.0234,162.3633 128.3203,162.1289 Q127.6172,161.875 126.9141,161.875 Q126.0352,161.875 125.293,162.2266 Q124.5703,162.5781 124.0039,163.3594 Q123.4375,164.1406 123.4375,165.2148 L123.4375,166.3672 Q123.4375,167.6563 124.4922,168.5156 Q125.5469,169.375 127.4219,169.375 Q128.5352,169.375 129.3164,169.1211 Q129.7656,168.9844 130.2734,168.5352 Q130.6055,168.2813 130.7813,168.2031 Q130.957,168.125 131.1719,168.125 Q131.582,168.125 131.875,168.457 Q132.1875,168.7695 132.1875,169.2188 Q132.1875,169.6484 131.7578,170.1563 Q131.1328,170.8984 130.1367,171.3086 Q128.8281,171.875 127.2266,171.875 Q125.3516,171.875 123.8477,171.1328 Q122.6367,170.5469 121.7773,169.2773 Q120.9375,168.0078 120.9375,166.5039 L120.9375,165.1367 Q120.9375,163.5742 121.6797,162.207 Q122.4414,160.8398 123.75,160.1172 Q125.0781,159.375 126.5625,159.375 Q127.4609,159.375 128.2422,159.6875 Q129.0234,160 129.6875,160.625 Z " fill="#000000"/><text fill="#000000" font-family="sans-serif" font-size="15" lengthAdjust="spacing" textLength="173.75" x="152.8125" y="171.1377">ShipOccupancyController</text><line style="stroke:#A80036;stroke-width:1.875;" x1="60.625" x2="378.125" y1="185" y2="185"/><line style="stroke:#A80036;stroke-width:1.875;" x1="60.625" x2="378.125" y1="195" y2="195"/><text fill="#000000" font-family="sans-serif" font-size="13.75" lengthAdjust="spacing" textLength="305" x="66.875" y="214.2737">+shipCapacityCalcByMoment(int MMSI, String date)</text><!--MD5=[0b8a0869bb17c5d05015d74abb8e1141]
class ConnectionFactory--><rect codeLine="10" fill="#FEFECE" filter="url(#f1tdu45hstyn02)" height="94.5898" id="ConnectionFactory" style="stroke:#A80036;stroke-width:1.875;" width="176.25" x="8.75" y="320"/><ellipse cx="31.4375" cy="340" fill="#ADD1B2" rx="13.75" ry="13.75" style="stroke:#A80036;stroke-width:1.25;"/><path d="M33.9375,335.625 Q34.1914,335 34.4844,334.6875 Q34.7773,334.375 35.1094,334.375 Q35.6953,334.375 36.0664,334.7266 Q36.4375,335.0781 36.4375,335.8984 L36.4375,337.8516 Q36.4375,338.6719 36.0859,339.0234 Q35.7344,339.375 35.1875,339.375 Q34.6992,339.375 34.3867,339.1602 Q34.0742,338.9453 33.9375,338.3789 Q33.8789,337.9883 33.6641,337.7734 Q33.2734,337.3633 32.5703,337.1289 Q31.8672,336.875 31.1641,336.875 Q30.2852,336.875 29.543,337.2266 Q28.8203,337.5781 28.2539,338.3594 Q27.6875,339.1406 27.6875,340.2148 L27.6875,341.3672 Q27.6875,342.6563 28.7422,343.5156 Q29.7969,344.375 31.6719,344.375 Q32.7852,344.375 33.5664,344.1211 Q34.0156,343.9844 34.5234,343.5352 Q34.8555,343.2813 35.0313,343.2031 Q35.207,343.125 35.4219,343.125 Q35.832,343.125 36.125,343.457 Q36.4375,343.7695 36.4375,344.2188 Q36.4375,344.6484 36.0078,345.1563 Q35.3828,345.8984 34.3867,346.3086 Q33.0781,346.875 31.4766,346.875 Q29.6016,346.875 28.0977,346.1328 Q26.8867,345.5469 26.0273,344.2773 Q25.1875,343.0078 25.1875,341.5039 L25.1875,340.1367 Q25.1875,338.5742 25.9297,337.207 Q26.6914,335.8398 28,335.1172 Q29.3281,334.375 30.8125,334.375 Q31.7109,334.375 32.4922,334.6875 Q33.2734,335 33.9375,335.625 Z " fill="#000000"/><text fill="#000000" font-family="sans-serif" font-size="15" lengthAdjust="spacing" textLength="127.5" x="49.8125" y="346.1377">ConnectionFactory</text><line style="stroke:#A80036;stroke-width:1.875;" x1="10" x2="183.75" y1="360" y2="360"/><line style="stroke:#A80036;stroke-width:1.875;" x1="10" x2="183.75" y1="370" y2="370"/><text fill="#000000" font-family="sans-serif" font-size="13.75" lengthAdjust="spacing" textLength="87.5" x="16.25" y="389.2737">+getInstance()</text><text fill="#000000" font-family="sans-serif" font-size="13.75" lengthAdjust="spacing" textLength="161.25" x="16.25" y="406.5686">+getDatabaseConnection()</text><!--MD5=[4ebfed50a2843d6810d5f28a3ed1348c]
class CargoManifestStore--><rect codeLine="15" fill="#FEFECE" filter="url(#f1tdu45hstyn02)" height="77.2949" id="CargoManifestStore" style="stroke:#A80036;stroke-width:1.875;" width="548.75" x="228.75" y="328.75"/><ellipse cx="429.6875" cy="348.75" fill="#ADD1B2" rx="13.75" ry="13.75" style="stroke:#A80036;stroke-width:1.25;"/><path d="M432.1875,344.375 Q432.4414,343.75 432.7344,343.4375 Q433.0273,343.125 433.3594,343.125 Q433.9453,343.125 434.3164,343.4766 Q434.6875,343.8281 434.6875,344.6484 L434.6875,346.6016 Q434.6875,347.4219 434.3359,347.7734 Q433.9844,348.125 433.4375,348.125 Q432.9492,348.125 432.6367,347.9102 Q432.3242,347.6953 432.1875,347.1289 Q432.1289,346.7383 431.9141,346.5234 Q431.5234,346.1133 430.8203,345.8789 Q430.1172,345.625 429.4141,345.625 Q428.5352,345.625 427.793,345.9766 Q427.0703,346.3281 426.5039,347.1094 Q425.9375,347.8906 425.9375,348.9648 L425.9375,350.1172 Q425.9375,351.4063 426.9922,352.2656 Q428.0469,353.125 429.9219,353.125 Q431.0352,353.125 431.8164,352.8711 Q432.2656,352.7344 432.7734,352.2852 Q433.1055,352.0313 433.2813,351.9531 Q433.457,351.875 433.6719,351.875 Q434.082,351.875 434.375,352.207 Q434.6875,352.5195 434.6875,352.9688 Q434.6875,353.3984 434.2578,353.9063 Q433.6328,354.6484 432.6367,355.0586 Q431.3281,355.625 429.7266,355.625 Q427.8516,355.625 426.3477,354.8828 Q425.1367,354.2969 424.2773,353.0273 Q423.4375,351.7578 423.4375,350.2539 L423.4375,348.8867 Q423.4375,347.3242 424.1797,345.957 Q424.9414,344.5898 426.25,343.8672 Q427.5781,343.125 429.0625,343.125 Q429.9609,343.125 430.7422,343.4375 Q431.5234,343.75 432.1875,344.375 Z " fill="#000000"/><text fill="#000000" font-family="sans-serif" font-size="15" lengthAdjust="spacing" textLength="136.25" x="455.3125" y="354.8877">CargoManifestStore</text><line style="stroke:#A80036;stroke-width:1.875;" x1="230" x2="776.25" y1="368.75" y2="368.75"/><line style="stroke:#A80036;stroke-width:1.875;" x1="230" x2="776.25" y1="378.75" y2="378.75"/><text fill="#000000" font-family="sans-serif" font-size="13.75" lengthAdjust="spacing" textLength="533.75" x="236.25" y="398.0237">+shipOccupancyByDate(DatabaseConnection databaseConnection, int MMSI,String date)</text><!--MD5=[8aa441cdd93a4e2944eff58bc06cd78a]
class DatabaseConnection--><rect codeLine="19" fill="#FEFECE" filter="url(#f1tdu45hstyn02)" height="77.2949" id="DatabaseConnection" style="stroke:#A80036;stroke-width:1.875;" width="186.25" x="410" y="512.5"/><ellipse cx="428.75" cy="532.5" fill="#ADD1B2" rx="13.75" ry="13.75" style="stroke:#A80036;stroke-width:1.25;"/><path d="M431.25,528.125 Q431.5039,527.5 431.7969,527.1875 Q432.0898,526.875 432.4219,526.875 Q433.0078,526.875 433.3789,527.2266 Q433.75,527.5781 433.75,528.3984 L433.75,530.3516 Q433.75,531.1719 433.3984,531.5234 Q433.0469,531.875 432.5,531.875 Q432.0117,531.875 431.6992,531.6602 Q431.3867,531.4453 431.25,530.8789 Q431.1914,530.4883 430.9766,530.2734 Q430.5859,529.8633 429.8828,529.6289 Q429.1797,529.375 428.4766,529.375 Q427.5977,529.375 426.8555,529.7266 Q426.1328,530.0781 425.5664,530.8594 Q425,531.6406 425,532.7148 L425,533.8672 Q425,535.1563 426.0547,536.0156 Q427.1094,536.875 428.9844,536.875 Q430.0977,536.875 430.8789,536.6211 Q431.3281,536.4844 431.8359,536.0352 Q432.168,535.7813 432.3438,535.7031 Q432.5195,535.625 432.7344,535.625 Q433.1445,535.625 433.4375,535.957 Q433.75,536.2695 433.75,536.7188 Q433.75,537.1484 433.3203,537.6563 Q432.6953,538.3984 431.6992,538.8086 Q430.3906,539.375 428.7891,539.375 Q426.9141,539.375 425.4102,538.6328 Q424.1992,538.0469 423.3398,536.7773 Q422.5,535.5078 422.5,534.0039 L422.5,532.6367 Q422.5,531.0742 423.2422,529.707 Q424.0039,528.3398 425.3125,527.6172 Q426.6406,526.875 428.125,526.875 Q429.0234,526.875 429.8047,527.1875 Q430.5859,527.5 431.25,528.125 Z " fill="#000000"/><text fill="#000000" font-family="sans-serif" font-size="15" lengthAdjust="spacing" textLength="146.25" x="446.25" y="538.6377">DatabaseConnection</text><line style="stroke:#A80036;stroke-width:1.875;" x1="411.25" x2="595" y1="552.5" y2="552.5"/><line style="stroke:#A80036;stroke-width:1.875;" x1="411.25" x2="595" y1="562.5" y2="562.5"/><text fill="#000000" font-family="sans-serif" font-size="13.75" lengthAdjust="spacing" textLength="103.75" x="417.5" y="581.7737">+getConnection()</text><!--MD5=[1b897f23295f349290012519b31ce2ff]
link OccupancyShipUI to ShipOccupancyController--><path codeLine="23" d="M219.375,68.8375 C219.375,88.7625 219.375,115.6375 219.375,138.25 " fill="none" id="OccupancyShipUI-to-ShipOccupancyController" style="stroke:#A80036;stroke-width:1.25;stroke-dasharray:7.0,7.0;"/><polygon fill="#A80036" points="219.375,144.5125,224.375,133.2625,219.375,138.2625,214.375,133.2625,219.375,144.5125" style="stroke:#A80036;stroke-width:1.25;"/><!--MD5=[db3ede84a5da24a8a10015c57a5e0170]
link ShipOccupancyController to ConnectionFactory--><path codeLine="24" d="M193.9875,222.55 C176.05,249.1 151.7625,285.0375 131.9625,314.3375 " fill="none" id="ShipOccupancyController-to-ConnectionFactory" style="stroke:#A80036;stroke-width:1.25;"/><polygon fill="#A80036" points="128.325,319.725,138.7672,313.204,131.8248,314.5468,130.482,307.6044,128.325,319.725" style="stroke:#A80036;stroke-width:1.25;"/><text fill="#000000" font-family="sans-serif" font-size="16.25" lengthAdjust="spacing" textLength="35" x="165.625" y="278.1189">uses</text><text fill="#000000" font-family="sans-serif" font-size="16.25" lengthAdjust="spacing" textLength="8.75" x="179.378" y="249.0898">1</text><text fill="#000000" font-family="sans-serif" font-size="16.25" lengthAdjust="spacing" textLength="25" x="106.7005" y="306.3784">1..*</text><!--MD5=[4ce7c33a460dca2f82d701c7d6ea0b75]
link ShipOccupancyController to CargoManifestStore--><path codeLine="25" d="M278.1625,222.55 C324.9625,252.45 390.375,294.2375 438.6125,325.0375 " fill="none" id="ShipOccupancyController-to-CargoManifestStore" style="stroke:#A80036;stroke-width:1.25;"/><polygon fill="#A80036" points="444.4125,328.7375,437.6124,318.4749,439.1418,325.3786,432.2381,326.908,444.4125,328.7375" style="stroke:#A80036;stroke-width:1.25;"/><text fill="#000000" font-family="sans-serif" font-size="16.25" lengthAdjust="spacing" textLength="35" x="370.625" y="278.1189">uses</text><text fill="#000000" font-family="sans-serif" font-size="16.25" lengthAdjust="spacing" textLength="8.75" x="280.125" y="249.0898">1</text><text fill="#000000" font-family="sans-serif" font-size="16.25" lengthAdjust="spacing" textLength="8.75" x="421.8621" y="315.0101">1</text><!--MD5=[2116ab72117c1937cd431dde115995d9]
link CargoManifestStore to DatabaseConnection--><path codeLine="26" d="M503.125,406.3 C503.125,435.35 503.125,475.6125 503.125,506.1375 " fill="none" id="CargoManifestStore-to-DatabaseConnection" style="stroke:#A80036;stroke-width:1.25;"/><polygon fill="#A80036" points="503.125,512.4875,508.125,501.2375,503.125,506.2375,498.125,501.2375,503.125,512.4875" style="stroke:#A80036;stroke-width:1.25;"/><text fill="#000000" font-family="sans-serif" font-size="16.25" lengthAdjust="spacing" textLength="35" x="504.375" y="470.6189">uses</text><text fill="#000000" font-family="sans-serif" font-size="16.25" lengthAdjust="spacing" textLength="8.75" x="493.5137" y="432.8398">1</text><text fill="#000000" font-family="sans-serif" font-size="16.25" lengthAdjust="spacing" textLength="25" x="475.3906" y="498.7601">1..*</text><!--MD5=[72d2765789740bc0cb637a7673b62b18]
@startuml
skinparam classAttributeIconSize 0

class OccupancyShipUI{
}

class ShipOccupancyController {
+ shipCapacityCalcByMoment(int MMSI, String date)
}

class ConnectionFactory {
+ getInstance()
+ getDatabaseConnection()
}

class CargoManifestStore {
+ shipOccupancyByDate(DatabaseConnection databaseConnection, int MMSI,String date)
}

class DatabaseConnection {
+ getConnection()
}

ShipOccupancyController <.up. OccupancyShipUI
ShipOccupancyController "1" - -> "1..*" ConnectionFactory : uses
ShipOccupancyController "1" - -> "1" CargoManifestStore : uses
CargoManifestStore "1" - -> "1..*" DatabaseConnection : uses



@enduml

PlantUML version 1.2021.7(Sun May 23 13:40:07 BST 2021)
(GPL source distribution)
Java Runtime: OpenJDK Runtime Environment
JVM: OpenJDK 64-Bit Server VM
Default Encoding: Cp1252
Language: pt
Country: PT
--></g></svg>