<?xml version="1.0" encoding="UTF-8" standalone="no"?><svg xmlns="http://www.w3.org/2000/svg" xmlns:xlink="http://www.w3.org/1999/xlink" contentScriptType="application/ecmascript" contentStyleType="text/css" height="1266.25px" preserveAspectRatio="none" style="width:5440px;height:1266px;background:#FFFFFF;" version="1.1" viewBox="0 0 5440 1266" width="5440px" zoomAndPan="magnify"><defs><filter height="300%" id="f3bf0muh1srxz" width="300%" x="-1" y="-1"><feGaussianBlur result="blurOut" stdDeviation="2.5"/><feColorMatrix in="blurOut" result="blurOut2" type="matrix" values="0 0 0 0 0 0 0 0 0 0 0 0 0 0 0 0 0 0 .4 0"/><feOffset dx="5.0" dy="5.0" in="blurOut2" result="blurOut3"/><feBlend in="SourceGraphic" in2="blurOut3" mode="normal"/></filter></defs><g><!--MD5=[96d6729f41b54a4fedeb3b1c9a8daab8]
class LoadShipUI--><rect codeLine="3" fill="#FEFECE" filter="url(#f3bf0muh1srxz)" height="60" id="LoadShipUI" style="stroke:#A80036;stroke-width:1.875;" width="121.25" x="1734.375" y="8.75"/><ellipse cx="1753.125" cy="28.75" fill="#ADD1B2" rx="13.75" ry="13.75" style="stroke:#A80036;stroke-width:1.25;"/><path d="M1755.625,24.375 Q1755.8789,23.75 1756.1719,23.4375 Q1756.4648,23.125 1756.7969,23.125 Q1757.3828,23.125 1757.7539,23.4766 Q1758.125,23.8281 1758.125,24.6484 L1758.125,26.6016 Q1758.125,27.4219 1757.7734,27.7734 Q1757.4219,28.125 1756.875,28.125 Q1756.3867,28.125 1756.0742,27.9102 Q1755.7617,27.6953 1755.625,27.1289 Q1755.5664,26.7383 1755.3516,26.5234 Q1754.9609,26.1133 1754.2578,25.8789 Q1753.5547,25.625 1752.8516,25.625 Q1751.9727,25.625 1751.2305,25.9766 Q1750.5078,26.3281 1749.9414,27.1094 Q1749.375,27.8906 1749.375,28.9648 L1749.375,30.1172 Q1749.375,31.4063 1750.4297,32.2656 Q1751.4844,33.125 1753.3594,33.125 Q1754.4727,33.125 1755.2539,32.8711 Q1755.7031,32.7344 1756.2109,32.2852 Q1756.543,32.0313 1756.7188,31.9531 Q1756.8945,31.875 1757.1094,31.875 Q1757.5195,31.875 1757.8125,32.207 Q1758.125,32.5195 1758.125,32.9688 Q1758.125,33.3984 1757.6953,33.9063 Q1757.0703,34.6484 1756.0742,35.0586 Q1754.7656,35.625 1753.1641,35.625 Q1751.2891,35.625 1749.7852,34.8828 Q1748.5742,34.2969 1747.7148,33.0273 Q1746.875,31.7578 1746.875,30.2539 L1746.875,28.8867 Q1746.875,27.3242 1747.6172,25.957 Q1748.3789,24.5898 1749.6875,23.8672 Q1751.0156,23.125 1752.5,23.125 Q1753.3984,23.125 1754.1797,23.4375 Q1754.9609,23.75 1755.625,24.375 Z " fill="#000000"/><text fill="#000000" font-family="sans-serif" font-size="15" lengthAdjust="spacing" textLength="81.25" x="1770.625" y="34.8877">LoadShipUI</text><line style="stroke:#A80036;stroke-width:1.875;" x1="1735.625" x2="1854.375" y1="48.75" y2="48.75"/><line style="stroke:#A80036;stroke-width:1.875;" x1="1735.625" x2="1854.375" y1="58.75" y2="58.75"/><!--MD5=[18836893423980a014ccfe5d6fd84c3b]
class LoaderController--><rect codeLine="6" fill="#FEFECE" filter="url(#f3bf0muh1srxz)" height="111.8848" id="LoaderController" style="stroke:#A80036;stroke-width:1.875;" width="245" x="1672.5" y="283.125"/><ellipse cx="1731.5625" cy="303.125" fill="#ADD1B2" rx="13.75" ry="13.75" style="stroke:#A80036;stroke-width:1.25;"/><path d="M1734.0625,298.75 Q1734.3164,298.125 1734.6094,297.8125 Q1734.9023,297.5 1735.2344,297.5 Q1735.8203,297.5 1736.1914,297.8516 Q1736.5625,298.2031 1736.5625,299.0234 L1736.5625,300.9766 Q1736.5625,301.7969 1736.2109,302.1484 Q1735.8594,302.5 1735.3125,302.5 Q1734.8242,302.5 1734.5117,302.2852 Q1734.1992,302.0703 1734.0625,301.5039 Q1734.0039,301.1133 1733.7891,300.8984 Q1733.3984,300.4883 1732.6953,300.2539 Q1731.9922,300 1731.2891,300 Q1730.4102,300 1729.668,300.3516 Q1728.9453,300.7031 1728.3789,301.4844 Q1727.8125,302.2656 1727.8125,303.3398 L1727.8125,304.4922 Q1727.8125,305.7813 1728.8672,306.6406 Q1729.9219,307.5 1731.7969,307.5 Q1732.9102,307.5 1733.6914,307.2461 Q1734.1406,307.1094 1734.6484,306.6602 Q1734.9805,306.4063 1735.1563,306.3281 Q1735.332,306.25 1735.5469,306.25 Q1735.957,306.25 1736.25,306.582 Q1736.5625,306.8945 1736.5625,307.3438 Q1736.5625,307.7734 1736.1328,308.2813 Q1735.5078,309.0234 1734.5117,309.4336 Q1733.2031,310 1731.6016,310 Q1729.7266,310 1728.2227,309.2578 Q1727.0117,308.6719 1726.1523,307.4023 Q1725.3125,306.1328 1725.3125,304.6289 L1725.3125,303.2617 Q1725.3125,301.6992 1726.0547,300.332 Q1726.8164,298.9648 1728.125,298.2422 Q1729.4531,297.5 1730.9375,297.5 Q1731.8359,297.5 1732.6172,297.8125 Q1733.3984,298.125 1734.0625,298.75 Z " fill="#000000"/><text fill="#000000" font-family="sans-serif" font-size="15" lengthAdjust="spacing" textLength="116.25" x="1757.1875" y="309.2627">LoaderController</text><line style="stroke:#A80036;stroke-width:1.875;" x1="1673.75" x2="1916.25" y1="323.125" y2="323.125"/><line style="stroke:#A80036;stroke-width:1.875;" x1="1673.75" x2="1916.25" y1="333.125" y2="333.125"/><text fill="#000000" font-family="sans-serif" font-size="13.75" lengthAdjust="spacing" textLength="212.5" x="1680" y="352.3987">+loadShipsByMmsi(String fileName)</text><text fill="#000000" font-family="sans-serif" font-size="13.75" lengthAdjust="spacing" textLength="205" x="1680" y="369.6936">+loadShipsByIMO(String fileName)</text><text fill="#000000" font-family="sans-serif" font-size="13.75" lengthAdjust="spacing" textLength="230" x="1680" y="386.9885">+loadShipsByCallSign(String fileName)</text><!--MD5=[0dc7f2ddb409b58bcf52b12238c25399]
class Ship--><rect codeLine="99" fill="#FEFECE" filter="url(#f3bf0muh1srxz)" height="111.8848" id="Ship" style="stroke:#A80036;stroke-width:1.875;" width="747.5" x="2845" y="1137.5"/><ellipse cx="3197.8125" cy="1157.5" fill="#ADD1B2" rx="13.75" ry="13.75" style="stroke:#A80036;stroke-width:1.25;"/><path d="M3200.3125,1153.125 Q3200.5664,1152.5 3200.8594,1152.1875 Q3201.1523,1151.875 3201.4844,1151.875 Q3202.0703,1151.875 3202.4414,1152.2266 Q3202.8125,1152.5781 3202.8125,1153.3984 L3202.8125,1155.3516 Q3202.8125,1156.1719 3202.4609,1156.5234 Q3202.1094,1156.875 3201.5625,1156.875 Q3201.0742,1156.875 3200.7617,1156.6602 Q3200.4492,1156.4453 3200.3125,1155.8789 Q3200.2539,1155.4883 3200.0391,1155.2734 Q3199.6484,1154.8633 3198.9453,1154.6289 Q3198.2422,1154.375 3197.5391,1154.375 Q3196.6602,1154.375 3195.918,1154.7266 Q3195.1953,1155.0781 3194.6289,1155.8594 Q3194.0625,1156.6406 3194.0625,1157.7148 L3194.0625,1158.8672 Q3194.0625,1160.1563 3195.1172,1161.0156 Q3196.1719,1161.875 3198.0469,1161.875 Q3199.1602,1161.875 3199.9414,1161.6211 Q3200.3906,1161.4844 3200.8984,1161.0352 Q3201.2305,1160.7813 3201.4063,1160.7031 Q3201.582,1160.625 3201.7969,1160.625 Q3202.207,1160.625 3202.5,1160.957 Q3202.8125,1161.2695 3202.8125,1161.7188 Q3202.8125,1162.1484 3202.3828,1162.6563 Q3201.7578,1163.3984 3200.7617,1163.8086 Q3199.4531,1164.375 3197.8516,1164.375 Q3195.9766,1164.375 3194.4727,1163.6328 Q3193.2617,1163.0469 3192.4023,1161.7773 Q3191.5625,1160.5078 3191.5625,1159.0039 L3191.5625,1157.6367 Q3191.5625,1156.0742 3192.3047,1154.707 Q3193.0664,1153.3398 3194.375,1152.6172 Q3195.7031,1151.875 3197.1875,1151.875 Q3198.0859,1151.875 3198.8672,1152.1875 Q3199.6484,1152.5 3200.3125,1153.125 Z " fill="#000000"/><text fill="#000000" font-family="sans-serif" font-size="15" lengthAdjust="spacing" textLength="31.25" x="3223.4375" y="1163.6377">Ship</text><line style="stroke:#A80036;stroke-width:1.875;" x1="2846.25" x2="3591.25" y1="1177.5" y2="1177.5"/><line style="stroke:#A80036;stroke-width:1.875;" x1="2846.25" x2="3591.25" y1="1187.5" y2="1187.5"/><text fill="#000000" font-family="sans-serif" font-size="13.75" lengthAdjust="spacing" textLength="732.5" x="2852.5" y="1206.7737">+Ship(int mmsi, String vesselName, String imo, String callSign, int vesselType, int length, int width, float draft, String cargo)</text><text fill="#000000" font-family="sans-serif" font-size="13.75" lengthAdjust="spacing" textLength="170" x="2852.5" y="1224.0686">+findShip(AVL avl, int mmsi)</text><text fill="#000000" font-family="sans-serif" font-size="13.75" lengthAdjust="spacing" textLength="56.25" x="2852.5" y="1241.3635">+getMsi()</text><!--MD5=[76c64cf519b79fd01de2fb03066f8d81]
class AVL--><rect codeLine="95" fill="#FEFECE" filter="url(#f3bf0muh1srxz)" height="129.1797" id="AVL" style="stroke:#A80036;stroke-width:1.875;" width="218.75" x="2248.125" y="876.25"/><ellipse cx="2339.0625" cy="896.25" fill="#ADD1B2" rx="13.75" ry="13.75" style="stroke:#A80036;stroke-width:1.25;"/><path d="M2341.5625,891.875 Q2341.8164,891.25 2342.1094,890.9375 Q2342.4023,890.625 2342.7344,890.625 Q2343.3203,890.625 2343.6914,890.9766 Q2344.0625,891.3281 2344.0625,892.1484 L2344.0625,894.1016 Q2344.0625,894.9219 2343.7109,895.2734 Q2343.3594,895.625 2342.8125,895.625 Q2342.3242,895.625 2342.0117,895.4102 Q2341.6992,895.1953 2341.5625,894.6289 Q2341.5039,894.2383 2341.2891,894.0234 Q2340.8984,893.6133 2340.1953,893.3789 Q2339.4922,893.125 2338.7891,893.125 Q2337.9102,893.125 2337.168,893.4766 Q2336.4453,893.8281 2335.8789,894.6094 Q2335.3125,895.3906 2335.3125,896.4648 L2335.3125,897.6172 Q2335.3125,898.9063 2336.3672,899.7656 Q2337.4219,900.625 2339.2969,900.625 Q2340.4102,900.625 2341.1914,900.3711 Q2341.6406,900.2344 2342.1484,899.7852 Q2342.4805,899.5313 2342.6563,899.4531 Q2342.832,899.375 2343.0469,899.375 Q2343.457,899.375 2343.75,899.707 Q2344.0625,900.0195 2344.0625,900.4688 Q2344.0625,900.8984 2343.6328,901.4063 Q2343.0078,902.1484 2342.0117,902.5586 Q2340.7031,903.125 2339.1016,903.125 Q2337.2266,903.125 2335.7227,902.3828 Q2334.5117,901.7969 2333.6523,900.5273 Q2332.8125,899.2578 2332.8125,897.7539 L2332.8125,896.3867 Q2332.8125,894.8242 2333.5547,893.457 Q2334.3164,892.0898 2335.625,891.3672 Q2336.9531,890.625 2338.4375,890.625 Q2339.3359,890.625 2340.1172,890.9375 Q2340.8984,891.25 2341.5625,891.875 Z " fill="#000000"/><text fill="#000000" font-family="sans-serif" font-size="15" lengthAdjust="spacing" textLength="26.25" x="2364.6875" y="902.3877">AVL</text><line style="stroke:#A80036;stroke-width:1.875;" x1="2249.375" x2="2465.625" y1="916.25" y2="916.25"/><line style="stroke:#A80036;stroke-width:1.875;" x1="2249.375" x2="2465.625" y1="926.25" y2="926.25"/><text fill="#000000" font-family="sans-serif" font-size="13.75" lengthAdjust="spacing" textLength="203.75" x="2255.625" y="945.5237">+insert(E element, Node&lt;E&gt; node)</text><text fill="#000000" font-family="sans-serif" font-size="13.75" lengthAdjust="spacing" textLength="63.75" x="2255.625" y="962.8186">+isEmpty()</text><text fill="#000000" font-family="sans-serif" font-size="13.75" lengthAdjust="spacing" textLength="72.5" x="2255.625" y="980.1135">+preOrder()</text><text fill="#000000" font-family="sans-serif" font-size="13.75" lengthAdjust="spacing" textLength="108.75" x="2255.625" y="997.4084">+insert(E element)</text><!--MD5=[ddb21f07467a5cf6167a2813fcce3334]
class ShipOrderedByIMO--><rect codeLine="56" fill="#FEFECE" filter="url(#f3bf0muh1srxz)" height="94.5898" id="ShipOrderedByIMO" style="stroke:#A80036;stroke-width:1.875;" width="836.25" x="2401.875" y="640"/><ellipse cx="2749.6875" cy="660" fill="#ADD1B2" rx="13.75" ry="13.75" style="stroke:#A80036;stroke-width:1.25;"/><path d="M2752.1875,655.625 Q2752.4414,655 2752.7344,654.6875 Q2753.0273,654.375 2753.3594,654.375 Q2753.9453,654.375 2754.3164,654.7266 Q2754.6875,655.0781 2754.6875,655.8984 L2754.6875,657.8516 Q2754.6875,658.6719 2754.3359,659.0234 Q2753.9844,659.375 2753.4375,659.375 Q2752.9492,659.375 2752.6367,659.1602 Q2752.3242,658.9453 2752.1875,658.3789 Q2752.1289,657.9883 2751.9141,657.7734 Q2751.5234,657.3633 2750.8203,657.1289 Q2750.1172,656.875 2749.4141,656.875 Q2748.5352,656.875 2747.793,657.2266 Q2747.0703,657.5781 2746.5039,658.3594 Q2745.9375,659.1406 2745.9375,660.2148 L2745.9375,661.3672 Q2745.9375,662.6563 2746.9922,663.5156 Q2748.0469,664.375 2749.9219,664.375 Q2751.0352,664.375 2751.8164,664.1211 Q2752.2656,663.9844 2752.7734,663.5352 Q2753.1055,663.2813 2753.2813,663.2031 Q2753.457,663.125 2753.6719,663.125 Q2754.082,663.125 2754.375,663.457 Q2754.6875,663.7695 2754.6875,664.2188 Q2754.6875,664.6484 2754.2578,665.1563 Q2753.6328,665.8984 2752.6367,666.3086 Q2751.3281,666.875 2749.7266,666.875 Q2747.8516,666.875 2746.3477,666.1328 Q2745.1367,665.5469 2744.2773,664.2773 Q2743.4375,663.0078 2743.4375,661.5039 L2743.4375,660.1367 Q2743.4375,658.5742 2744.1797,657.207 Q2744.9414,655.8398 2746.25,655.1172 Q2747.5781,654.375 2749.0625,654.375 Q2749.9609,654.375 2750.7422,654.6875 Q2751.5234,655 2752.1875,655.625 Z " fill="#000000"/><text fill="#000000" font-family="sans-serif" font-size="15" lengthAdjust="spacing" textLength="130" x="2775.3125" y="666.1377">ShipOrderedByIMO</text><line style="stroke:#A80036;stroke-width:1.875;" x1="2403.125" x2="3236.875" y1="680" y2="680"/><line style="stroke:#A80036;stroke-width:1.875;" x1="2403.125" x2="3236.875" y1="690" y2="690"/><text fill="#000000" font-family="sans-serif" font-size="13.75" lengthAdjust="spacing" textLength="821.25" x="2409.375" y="709.2737">+ShipOrderedByIMO(int mmsi, String vesselName, String imo, String callSign, int vesselType, int length, int width, float draft, String cargo)</text><text fill="#000000" font-family="sans-serif" font-size="13.75" lengthAdjust="spacing" textLength="223.75" x="2409.375" y="726.5686">+findShipByIMO(AVL avl , String imo)</text><!--MD5=[64839cff583bef17601c839798f5d0e2]
class ShipOrderedByCallSign--><rect codeLine="60" fill="#FEFECE" filter="url(#f3bf0muh1srxz)" height="94.5898" id="ShipOrderedByCallSign" style="stroke:#A80036;stroke-width:1.875;" width="861.25" x="1496.875" y="640"/><ellipse cx="1840.9375" cy="660" fill="#ADD1B2" rx="13.75" ry="13.75" style="stroke:#A80036;stroke-width:1.25;"/><path d="M1843.4375,655.625 Q1843.6914,655 1843.9844,654.6875 Q1844.2773,654.375 1844.6094,654.375 Q1845.1953,654.375 1845.5664,654.7266 Q1845.9375,655.0781 1845.9375,655.8984 L1845.9375,657.8516 Q1845.9375,658.6719 1845.5859,659.0234 Q1845.2344,659.375 1844.6875,659.375 Q1844.1992,659.375 1843.8867,659.1602 Q1843.5742,658.9453 1843.4375,658.3789 Q1843.3789,657.9883 1843.1641,657.7734 Q1842.7734,657.3633 1842.0703,657.1289 Q1841.3672,656.875 1840.6641,656.875 Q1839.7852,656.875 1839.043,657.2266 Q1838.3203,657.5781 1837.7539,658.3594 Q1837.1875,659.1406 1837.1875,660.2148 L1837.1875,661.3672 Q1837.1875,662.6563 1838.2422,663.5156 Q1839.2969,664.375 1841.1719,664.375 Q1842.2852,664.375 1843.0664,664.1211 Q1843.5156,663.9844 1844.0234,663.5352 Q1844.3555,663.2813 1844.5313,663.2031 Q1844.707,663.125 1844.9219,663.125 Q1845.332,663.125 1845.625,663.457 Q1845.9375,663.7695 1845.9375,664.2188 Q1845.9375,664.6484 1845.5078,665.1563 Q1844.8828,665.8984 1843.8867,666.3086 Q1842.5781,666.875 1840.9766,666.875 Q1839.1016,666.875 1837.5977,666.1328 Q1836.3867,665.5469 1835.5273,664.2773 Q1834.6875,663.0078 1834.6875,661.5039 L1834.6875,660.1367 Q1834.6875,658.5742 1835.4297,657.207 Q1836.1914,655.8398 1837.5,655.1172 Q1838.8281,654.375 1840.3125,654.375 Q1841.2109,654.375 1841.9922,654.6875 Q1842.7734,655 1843.4375,655.625 Z " fill="#000000"/><text fill="#000000" font-family="sans-serif" font-size="15" lengthAdjust="spacing" textLength="162.5" x="1866.5625" y="666.1377">ShipOrderedByCallSign</text><line style="stroke:#A80036;stroke-width:1.875;" x1="1498.125" x2="2356.875" y1="680" y2="680"/><line style="stroke:#A80036;stroke-width:1.875;" x1="1498.125" x2="2356.875" y1="690" y2="690"/><text fill="#000000" font-family="sans-serif" font-size="13.75" lengthAdjust="spacing" textLength="846.25" x="1504.375" y="709.2737">+ShipOrderedByCallSign(int mmsi, String vesselName, String imo, String callSign, int vesselType, int length, int width, float draft, String cargo)</text><text fill="#000000" font-family="sans-serif" font-size="13.75" lengthAdjust="spacing" textLength="275" x="1504.375" y="726.5686">+findShipByCallSign(AVL avl , String callSign)</text><!--MD5=[d36829bcc8660c08f1e67793461de28f]
class FindShipUI--><rect codeLine="38" fill="#FEFECE" filter="url(#f3bf0muh1srxz)" height="60" id="FindShipUI" style="stroke:#A80036;stroke-width:1.875;" width="116.25" x="2761.875" y="8.75"/><ellipse cx="2780.625" cy="28.75" fill="#ADD1B2" rx="13.75" ry="13.75" style="stroke:#A80036;stroke-width:1.25;"/><path d="M2783.125,24.375 Q2783.3789,23.75 2783.6719,23.4375 Q2783.9648,23.125 2784.2969,23.125 Q2784.8828,23.125 2785.2539,23.4766 Q2785.625,23.8281 2785.625,24.6484 L2785.625,26.6016 Q2785.625,27.4219 2785.2734,27.7734 Q2784.9219,28.125 2784.375,28.125 Q2783.8867,28.125 2783.5742,27.9102 Q2783.2617,27.6953 2783.125,27.1289 Q2783.0664,26.7383 2782.8516,26.5234 Q2782.4609,26.1133 2781.7578,25.8789 Q2781.0547,25.625 2780.3516,25.625 Q2779.4727,25.625 2778.7305,25.9766 Q2778.0078,26.3281 2777.4414,27.1094 Q2776.875,27.8906 2776.875,28.9648 L2776.875,30.1172 Q2776.875,31.4063 2777.9297,32.2656 Q2778.9844,33.125 2780.8594,33.125 Q2781.9727,33.125 2782.7539,32.8711 Q2783.2031,32.7344 2783.7109,32.2852 Q2784.043,32.0313 2784.2188,31.9531 Q2784.3945,31.875 2784.6094,31.875 Q2785.0195,31.875 2785.3125,32.207 Q2785.625,32.5195 2785.625,32.9688 Q2785.625,33.3984 2785.1953,33.9063 Q2784.5703,34.6484 2783.5742,35.0586 Q2782.2656,35.625 2780.6641,35.625 Q2778.7891,35.625 2777.2852,34.8828 Q2776.0742,34.2969 2775.2148,33.0273 Q2774.375,31.7578 2774.375,30.2539 L2774.375,28.8867 Q2774.375,27.3242 2775.1172,25.957 Q2775.8789,24.5898 2777.1875,23.8672 Q2778.5156,23.125 2780,23.125 Q2780.8984,23.125 2781.6797,23.4375 Q2782.4609,23.75 2783.125,24.375 Z " fill="#000000"/><text fill="#000000" font-family="sans-serif" font-size="15" lengthAdjust="spacing" textLength="76.25" x="2798.125" y="34.8877">FindShipUI</text><line style="stroke:#A80036;stroke-width:1.875;" x1="2763.125" x2="2876.875" y1="48.75" y2="48.75"/><line style="stroke:#A80036;stroke-width:1.875;" x1="2763.125" x2="2876.875" y1="58.75" y2="58.75"/><!--MD5=[59e2da46e2cdf18754cc13dcc9d2f517]
class FindShipController--><rect codeLine="41" fill="#FEFECE" filter="url(#f3bf0muh1srxz)" height="111.8848" id="FindShipController" style="stroke:#A80036;stroke-width:1.875;" width="286.25" x="2676.875" y="283.125"/><ellipse cx="2750.3125" cy="303.125" fill="#ADD1B2" rx="13.75" ry="13.75" style="stroke:#A80036;stroke-width:1.25;"/><path d="M2752.8125,298.75 Q2753.0664,298.125 2753.3594,297.8125 Q2753.6523,297.5 2753.9844,297.5 Q2754.5703,297.5 2754.9414,297.8516 Q2755.3125,298.2031 2755.3125,299.0234 L2755.3125,300.9766 Q2755.3125,301.7969 2754.9609,302.1484 Q2754.6094,302.5 2754.0625,302.5 Q2753.5742,302.5 2753.2617,302.2852 Q2752.9492,302.0703 2752.8125,301.5039 Q2752.7539,301.1133 2752.5391,300.8984 Q2752.1484,300.4883 2751.4453,300.2539 Q2750.7422,300 2750.0391,300 Q2749.1602,300 2748.418,300.3516 Q2747.6953,300.7031 2747.1289,301.4844 Q2746.5625,302.2656 2746.5625,303.3398 L2746.5625,304.4922 Q2746.5625,305.7813 2747.6172,306.6406 Q2748.6719,307.5 2750.5469,307.5 Q2751.6602,307.5 2752.4414,307.2461 Q2752.8906,307.1094 2753.3984,306.6602 Q2753.7305,306.4063 2753.9063,306.3281 Q2754.082,306.25 2754.2969,306.25 Q2754.707,306.25 2755,306.582 Q2755.3125,306.8945 2755.3125,307.3438 Q2755.3125,307.7734 2754.8828,308.2813 Q2754.2578,309.0234 2753.2617,309.4336 Q2751.9531,310 2750.3516,310 Q2748.4766,310 2746.9727,309.2578 Q2745.7617,308.6719 2744.9023,307.4023 Q2744.0625,306.1328 2744.0625,304.6289 L2744.0625,303.2617 Q2744.0625,301.6992 2744.8047,300.332 Q2745.5664,298.9648 2746.875,298.2422 Q2748.2031,297.5 2749.6875,297.5 Q2750.5859,297.5 2751.3672,297.8125 Q2752.1484,298.125 2752.8125,298.75 Z " fill="#000000"/><text fill="#000000" font-family="sans-serif" font-size="15" lengthAdjust="spacing" textLength="128.75" x="2775.9375" y="309.2627">FindShipController</text><line style="stroke:#A80036;stroke-width:1.875;" x1="2678.125" x2="2961.875" y1="323.125" y2="323.125"/><line style="stroke:#A80036;stroke-width:1.875;" x1="2678.125" x2="2961.875" y1="333.125" y2="333.125"/><text fill="#000000" font-family="sans-serif" font-size="13.75" lengthAdjust="spacing" textLength="216.25" x="2684.375" y="352.3987">+findShipByMmsi(AVL avl, int mmsi)</text><text fill="#000000" font-family="sans-serif" font-size="13.75" lengthAdjust="spacing" textLength="220" x="2684.375" y="369.6936">+findShipByIMO(AVL avl, String imo)</text><text fill="#000000" font-family="sans-serif" font-size="13.75" lengthAdjust="spacing" textLength="271.25" x="2684.375" y="386.9885">+findShipByCallSign(AVL avl, String callSign)</text><!--MD5=[4835bd3bbaaa72dc09abd68a286609d8]
class PositionsUI--><rect codeLine="75" fill="#FEFECE" filter="url(#f3bf0muh1srxz)" height="60" id="PositionsUI" style="stroke:#A80036;stroke-width:1.875;" width="120" x="3816.25" y="657.5"/><ellipse cx="3835" cy="677.5" fill="#ADD1B2" rx="13.75" ry="13.75" style="stroke:#A80036;stroke-width:1.25;"/><path d="M3837.5,673.125 Q3837.7539,672.5 3838.0469,672.1875 Q3838.3398,671.875 3838.6719,671.875 Q3839.2578,671.875 3839.6289,672.2266 Q3840,672.5781 3840,673.3984 L3840,675.3516 Q3840,676.1719 3839.6484,676.5234 Q3839.2969,676.875 3838.75,676.875 Q3838.2617,676.875 3837.9492,676.6602 Q3837.6367,676.4453 3837.5,675.8789 Q3837.4414,675.4883 3837.2266,675.2734 Q3836.8359,674.8633 3836.1328,674.6289 Q3835.4297,674.375 3834.7266,674.375 Q3833.8477,674.375 3833.1055,674.7266 Q3832.3828,675.0781 3831.8164,675.8594 Q3831.25,676.6406 3831.25,677.7148 L3831.25,678.8672 Q3831.25,680.1563 3832.3047,681.0156 Q3833.3594,681.875 3835.2344,681.875 Q3836.3477,681.875 3837.1289,681.6211 Q3837.5781,681.4844 3838.0859,681.0352 Q3838.418,680.7813 3838.5938,680.7031 Q3838.7695,680.625 3838.9844,680.625 Q3839.3945,680.625 3839.6875,680.957 Q3840,681.2695 3840,681.7188 Q3840,682.1484 3839.5703,682.6563 Q3838.9453,683.3984 3837.9492,683.8086 Q3836.6406,684.375 3835.0391,684.375 Q3833.1641,684.375 3831.6602,683.6328 Q3830.4492,683.0469 3829.5898,681.7773 Q3828.75,680.5078 3828.75,679.0039 L3828.75,677.6367 Q3828.75,676.0742 3829.4922,674.707 Q3830.2539,673.3398 3831.5625,672.6172 Q3832.8906,671.875 3834.375,671.875 Q3835.2734,671.875 3836.0547,672.1875 Q3836.8359,672.5 3837.5,673.125 Z " fill="#000000"/><text fill="#000000" font-family="sans-serif" font-size="15" lengthAdjust="spacing" textLength="80" x="3852.5" y="683.6377">PositionsUI</text><line style="stroke:#A80036;stroke-width:1.875;" x1="3817.5" x2="3935" y1="697.5" y2="697.5"/><line style="stroke:#A80036;stroke-width:1.875;" x1="3817.5" x2="3935" y1="707.5" y2="707.5"/><!--MD5=[8d2d464217693e6a7c4d65b284a69667]
class ShipPositionsController--><rect codeLine="78" fill="#FEFECE" filter="url(#f3bf0muh1srxz)" height="94.5898" id="ShipPositionsController" style="stroke:#A80036;stroke-width:1.875;" width="1008.75" x="3371.875" y="893.125"/><ellipse cx="3789.0625" cy="913.125" fill="#ADD1B2" rx="13.75" ry="13.75" style="stroke:#A80036;stroke-width:1.25;"/><path d="M3791.5625,908.75 Q3791.8164,908.125 3792.1094,907.8125 Q3792.4023,907.5 3792.7344,907.5 Q3793.3203,907.5 3793.6914,907.8516 Q3794.0625,908.2031 3794.0625,909.0234 L3794.0625,910.9766 Q3794.0625,911.7969 3793.7109,912.1484 Q3793.3594,912.5 3792.8125,912.5 Q3792.3242,912.5 3792.0117,912.2852 Q3791.6992,912.0703 3791.5625,911.5039 Q3791.5039,911.1133 3791.2891,910.8984 Q3790.8984,910.4883 3790.1953,910.2539 Q3789.4922,910 3788.7891,910 Q3787.9102,910 3787.168,910.3516 Q3786.4453,910.7031 3785.8789,911.4844 Q3785.3125,912.2656 3785.3125,913.3398 L3785.3125,914.4922 Q3785.3125,915.7813 3786.3672,916.6406 Q3787.4219,917.5 3789.2969,917.5 Q3790.4102,917.5 3791.1914,917.2461 Q3791.6406,917.1094 3792.1484,916.6602 Q3792.4805,916.4063 3792.6563,916.3281 Q3792.832,916.25 3793.0469,916.25 Q3793.457,916.25 3793.75,916.582 Q3794.0625,916.8945 3794.0625,917.3438 Q3794.0625,917.7734 3793.6328,918.2813 Q3793.0078,919.0234 3792.0117,919.4336 Q3790.7031,920 3789.1016,920 Q3787.2266,920 3785.7227,919.2578 Q3784.5117,918.6719 3783.6523,917.4023 Q3782.8125,916.1328 3782.8125,914.6289 L3782.8125,913.2617 Q3782.8125,911.6992 3783.5547,910.332 Q3784.3164,908.9648 3785.625,908.2422 Q3786.9531,907.5 3788.4375,907.5 Q3789.3359,907.5 3790.1172,907.8125 Q3790.8984,908.125 3791.5625,908.75 Z " fill="#000000"/><text fill="#000000" font-family="sans-serif" font-size="15" lengthAdjust="spacing" textLength="163.75" x="3814.6875" y="919.2627">ShipPositionsController</text><line style="stroke:#A80036;stroke-width:1.875;" x1="3373.125" x2="4379.375" y1="933.125" y2="933.125"/><line style="stroke:#A80036;stroke-width:1.875;" x1="3373.125" x2="4379.375" y1="943.125" y2="943.125"/><text fill="#000000" font-family="sans-serif" font-size="13.75" lengthAdjust="spacing" textLength="651.25" x="3379.375" y="962.3987">+checkPositions(String dateOfCheck, String hourCheck, HashMap&lt;Ship, List&lt;ShipDynamicFields&gt;&gt; shipMap)</text><text fill="#000000" font-family="sans-serif" font-size="13.75" lengthAdjust="spacing" textLength="993.75" x="3379.375" y="979.6936">+checkPositionsBetweenDates(String dateOfCheck, String hourCheck, String DateOfCheck2, String hourCheck2, HashMap&lt;Ship, List&lt;ShipDynamicFields&gt;&gt; shipMap)</text><!--MD5=[a8ffbd38daa8a369450c487507013c0d]
class ShipDynamicFields--><rect codeLine="84" fill="#FEFECE" filter="url(#f3bf0muh1srxz)" height="198.3594" id="ShipDynamicFields" style="stroke:#A80036;stroke-width:1.875;" width="945" x="4477.5" y="841.25"/><ellipse cx="4877.8125" cy="861.25" fill="#ADD1B2" rx="13.75" ry="13.75" style="stroke:#A80036;stroke-width:1.25;"/><path d="M4880.3125,856.875 Q4880.5664,856.25 4880.8594,855.9375 Q4881.1523,855.625 4881.4844,855.625 Q4882.0703,855.625 4882.4414,855.9766 Q4882.8125,856.3281 4882.8125,857.1484 L4882.8125,859.1016 Q4882.8125,859.9219 4882.4609,860.2734 Q4882.1094,860.625 4881.5625,860.625 Q4881.0742,860.625 4880.7617,860.4102 Q4880.4492,860.1953 4880.3125,859.6289 Q4880.2539,859.2383 4880.0391,859.0234 Q4879.6484,858.6133 4878.9453,858.3789 Q4878.2422,858.125 4877.5391,858.125 Q4876.6602,858.125 4875.918,858.4766 Q4875.1953,858.8281 4874.6289,859.6094 Q4874.0625,860.3906 4874.0625,861.4648 L4874.0625,862.6172 Q4874.0625,863.9063 4875.1172,864.7656 Q4876.1719,865.625 4878.0469,865.625 Q4879.1602,865.625 4879.9414,865.3711 Q4880.3906,865.2344 4880.8984,864.7852 Q4881.2305,864.5313 4881.4063,864.4531 Q4881.582,864.375 4881.7969,864.375 Q4882.207,864.375 4882.5,864.707 Q4882.8125,865.0195 4882.8125,865.4688 Q4882.8125,865.8984 4882.3828,866.4063 Q4881.7578,867.1484 4880.7617,867.5586 Q4879.4531,868.125 4877.8516,868.125 Q4875.9766,868.125 4874.4727,867.3828 Q4873.2617,866.7969 4872.4023,865.5273 Q4871.5625,864.2578 4871.5625,862.7539 L4871.5625,861.3867 Q4871.5625,859.8242 4872.3047,858.457 Q4873.0664,857.0898 4874.375,856.3672 Q4875.7031,855.625 4877.1875,855.625 Q4878.0859,855.625 4878.8672,855.9375 Q4879.6484,856.25 4880.3125,856.875 Z " fill="#000000"/><text fill="#000000" font-family="sans-serif" font-size="15" lengthAdjust="spacing" textLength="133.75" x="4903.4375" y="867.3877">ShipDynamicFields</text><line style="stroke:#A80036;stroke-width:1.875;" x1="4478.75" x2="5421.25" y1="881.25" y2="881.25"/><line style="stroke:#A80036;stroke-width:1.875;" x1="4478.75" x2="5421.25" y1="891.25" y2="891.25"/><text fill="#000000" font-family="sans-serif" font-size="13.75" lengthAdjust="spacing" textLength="612.5" x="4485" y="910.5237">+checkLastPosition(int mmsi, int hour, int minutes, HashMap&lt;Ship, List&lt;ShipDynamicFields&gt;&gt; shipMap)</text><text fill="#000000" font-family="sans-serif" font-size="13.75" lengthAdjust="spacing" textLength="930" x="4485" y="927.8186">+new ShipDynamicFields(ship.getMmsi(), diaAno + hora, din.getLat(),din.getLon(), din.getSog(), din.getCog(), din.getHeading(), din.getTransceiverClass());</text><text fill="#000000" font-family="sans-serif" font-size="13.75" lengthAdjust="spacing" textLength="55" x="4485" y="945.1135">+getLat()</text><text fill="#000000" font-family="sans-serif" font-size="13.75" lengthAdjust="spacing" textLength="58.75" x="4485" y="962.4084">+getLon()</text><text fill="#000000" font-family="sans-serif" font-size="13.75" lengthAdjust="spacing" textLength="60" x="4485" y="979.7034">+getSog()</text><text fill="#000000" font-family="sans-serif" font-size="13.75" lengthAdjust="spacing" textLength="60" x="4485" y="996.9983">+getCog()</text><text fill="#000000" font-family="sans-serif" font-size="13.75" lengthAdjust="spacing" textLength="85" x="4485" y="1014.2932">+getHeading()</text><text fill="#000000" font-family="sans-serif" font-size="13.75" lengthAdjust="spacing" textLength="142.5" x="4485" y="1031.5881">+getTransceiverClass()</text><!--MD5=[640871566440a127c944d01368d78a10]
class SummaryUI--><rect codeLine="108" fill="#FEFECE" filter="url(#f3bf0muh1srxz)" height="60" id="SummaryUI" style="stroke:#A80036;stroke-width:1.875;" width="121.25" x="3348.125" y="8.75"/><ellipse cx="3366.875" cy="28.75" fill="#ADD1B2" rx="13.75" ry="13.75" style="stroke:#A80036;stroke-width:1.25;"/><path d="M3369.375,24.375 Q3369.6289,23.75 3369.9219,23.4375 Q3370.2148,23.125 3370.5469,23.125 Q3371.1328,23.125 3371.5039,23.4766 Q3371.875,23.8281 3371.875,24.6484 L3371.875,26.6016 Q3371.875,27.4219 3371.5234,27.7734 Q3371.1719,28.125 3370.625,28.125 Q3370.1367,28.125 3369.8242,27.9102 Q3369.5117,27.6953 3369.375,27.1289 Q3369.3164,26.7383 3369.1016,26.5234 Q3368.7109,26.1133 3368.0078,25.8789 Q3367.3047,25.625 3366.6016,25.625 Q3365.7227,25.625 3364.9805,25.9766 Q3364.2578,26.3281 3363.6914,27.1094 Q3363.125,27.8906 3363.125,28.9648 L3363.125,30.1172 Q3363.125,31.4063 3364.1797,32.2656 Q3365.2344,33.125 3367.1094,33.125 Q3368.2227,33.125 3369.0039,32.8711 Q3369.4531,32.7344 3369.9609,32.2852 Q3370.293,32.0313 3370.4688,31.9531 Q3370.6445,31.875 3370.8594,31.875 Q3371.2695,31.875 3371.5625,32.207 Q3371.875,32.5195 3371.875,32.9688 Q3371.875,33.3984 3371.4453,33.9063 Q3370.8203,34.6484 3369.8242,35.0586 Q3368.5156,35.625 3366.9141,35.625 Q3365.0391,35.625 3363.5352,34.8828 Q3362.3242,34.2969 3361.4648,33.0273 Q3360.625,31.7578 3360.625,30.2539 L3360.625,28.8867 Q3360.625,27.3242 3361.3672,25.957 Q3362.1289,24.5898 3363.4375,23.8672 Q3364.7656,23.125 3366.25,23.125 Q3367.1484,23.125 3367.9297,23.4375 Q3368.7109,23.75 3369.375,24.375 Z " fill="#000000"/><text fill="#000000" font-family="sans-serif" font-size="15" lengthAdjust="spacing" textLength="81.25" x="3384.375" y="34.8877">SummaryUI</text><line style="stroke:#A80036;stroke-width:1.875;" x1="3349.375" x2="3468.125" y1="48.75" y2="48.75"/><line style="stroke:#A80036;stroke-width:1.875;" x1="3349.375" x2="3468.125" y1="58.75" y2="58.75"/><!--MD5=[3f1cb4dd8ebfe3438cbc60657ade16a6]
class ShipDistanceController--><rect codeLine="156" fill="#FEFECE" filter="url(#f3bf0muh1srxz)" height="111.8848" id="ShipDistanceController" style="stroke:#A80036;stroke-width:1.875;" width="1145" x="3007.5" y="283.125"/><ellipse cx="3494.6875" cy="303.125" fill="#ADD1B2" rx="13.75" ry="13.75" style="stroke:#A80036;stroke-width:1.25;"/><path d="M3497.1875,298.75 Q3497.4414,298.125 3497.7344,297.8125 Q3498.0273,297.5 3498.3594,297.5 Q3498.9453,297.5 3499.3164,297.8516 Q3499.6875,298.2031 3499.6875,299.0234 L3499.6875,300.9766 Q3499.6875,301.7969 3499.3359,302.1484 Q3498.9844,302.5 3498.4375,302.5 Q3497.9492,302.5 3497.6367,302.2852 Q3497.3242,302.0703 3497.1875,301.5039 Q3497.1289,301.1133 3496.9141,300.8984 Q3496.5234,300.4883 3495.8203,300.2539 Q3495.1172,300 3494.4141,300 Q3493.5352,300 3492.793,300.3516 Q3492.0703,300.7031 3491.5039,301.4844 Q3490.9375,302.2656 3490.9375,303.3398 L3490.9375,304.4922 Q3490.9375,305.7813 3491.9922,306.6406 Q3493.0469,307.5 3494.9219,307.5 Q3496.0352,307.5 3496.8164,307.2461 Q3497.2656,307.1094 3497.7734,306.6602 Q3498.1055,306.4063 3498.2813,306.3281 Q3498.457,306.25 3498.6719,306.25 Q3499.082,306.25 3499.375,306.582 Q3499.6875,306.8945 3499.6875,307.3438 Q3499.6875,307.7734 3499.2578,308.2813 Q3498.6328,309.0234 3497.6367,309.4336 Q3496.3281,310 3494.7266,310 Q3492.8516,310 3491.3477,309.2578 Q3490.1367,308.6719 3489.2773,307.4023 Q3488.4375,306.1328 3488.4375,304.6289 L3488.4375,303.2617 Q3488.4375,301.6992 3489.1797,300.332 Q3489.9414,298.9648 3491.25,298.2422 Q3492.5781,297.5 3494.0625,297.5 Q3494.9609,297.5 3495.7422,297.8125 Q3496.5234,298.125 3497.1875,298.75 Z " fill="#000000"/><text fill="#000000" font-family="sans-serif" font-size="15" lengthAdjust="spacing" textLength="160" x="3520.3125" y="309.2627">ShipDistanceController</text><line style="stroke:#A80036;stroke-width:1.875;" x1="3008.75" x2="4151.25" y1="323.125" y2="323.125"/><line style="stroke:#A80036;stroke-width:1.875;" x1="3008.75" x2="4151.25" y1="333.125" y2="333.125"/><text fill="#000000" font-family="sans-serif" font-size="13.75" lengthAdjust="spacing" textLength="453.75" x="3015" y="352.3987">+shipDistCalc(int mmsi, HashMap&lt;Ship, List&lt;ShipDynamicFields&gt;&gt; shipMap)</text><text fill="#000000" font-family="sans-serif" font-size="13.75" lengthAdjust="spacing" textLength="511.25" x="3015" y="369.6936">+orderShipsByTdOrNumbOfMov(HashMap&lt;Ship, List&lt;ShipDynamicFields&gt;&gt; shipMap)</text><text fill="#000000" font-family="sans-serif" font-size="13.75" lengthAdjust="spacing" textLength="1130" x="3015" y="386.9885">+shipsOrderByMostKmFastShips (String dateOfCheck, String hourCheck,String dateOfCheck2, String hourCheck2, int numberOfResults, HashMap&lt;Ship,List&lt;ShipDynamicFields&gt;&gt; shipMap)</text><!--MD5=[ac7de62ce9384a92b5e95b1a406bc87c]
class ShipDistance--><rect codeLine="160" fill="#FEFECE" filter="url(#f3bf0muh1srxz)" height="388.6035" id="ShipDistance" style="stroke:#A80036;stroke-width:1.875;" width="1057.5" x="4250" y="145"/><ellipse cx="4727.1875" cy="165" fill="#ADD1B2" rx="13.75" ry="13.75" style="stroke:#A80036;stroke-width:1.25;"/><path d="M4729.6875,160.625 Q4729.9414,160 4730.2344,159.6875 Q4730.5273,159.375 4730.8594,159.375 Q4731.4453,159.375 4731.8164,159.7266 Q4732.1875,160.0781 4732.1875,160.8984 L4732.1875,162.8516 Q4732.1875,163.6719 4731.8359,164.0234 Q4731.4844,164.375 4730.9375,164.375 Q4730.4492,164.375 4730.1367,164.1602 Q4729.8242,163.9453 4729.6875,163.3789 Q4729.6289,162.9883 4729.4141,162.7734 Q4729.0234,162.3633 4728.3203,162.1289 Q4727.6172,161.875 4726.9141,161.875 Q4726.0352,161.875 4725.293,162.2266 Q4724.5703,162.5781 4724.0039,163.3594 Q4723.4375,164.1406 4723.4375,165.2148 L4723.4375,166.3672 Q4723.4375,167.6563 4724.4922,168.5156 Q4725.5469,169.375 4727.4219,169.375 Q4728.5352,169.375 4729.3164,169.1211 Q4729.7656,168.9844 4730.2734,168.5352 Q4730.6055,168.2813 4730.7813,168.2031 Q4730.957,168.125 4731.1719,168.125 Q4731.582,168.125 4731.875,168.457 Q4732.1875,168.7695 4732.1875,169.2188 Q4732.1875,169.6484 4731.7578,170.1563 Q4731.1328,170.8984 4730.1367,171.3086 Q4728.8281,171.875 4727.2266,171.875 Q4725.3516,171.875 4723.8477,171.1328 Q4722.6367,170.5469 4721.7773,169.2773 Q4720.9375,168.0078 4720.9375,166.5039 L4720.9375,165.1367 Q4720.9375,163.5742 4721.6797,162.207 Q4722.4414,160.8398 4723.75,160.1172 Q4725.0781,159.375 4726.5625,159.375 Q4727.4609,159.375 4728.2422,159.6875 Q4729.0234,160 4729.6875,160.625 Z " fill="#000000"/><text fill="#000000" font-family="sans-serif" font-size="15" lengthAdjust="spacing" textLength="92.5" x="4752.8125" y="171.1377">ShipDistance</text><line style="stroke:#A80036;stroke-width:1.875;" x1="4251.25" x2="5306.25" y1="185" y2="185"/><line style="stroke:#A80036;stroke-width:1.875;" x1="4251.25" x2="5306.25" y1="195" y2="195"/><text fill="#000000" font-family="sans-serif" font-size="13.75" lengthAdjust="spacing" textLength="100" x="4257.5" y="214.2737">+setMmsi (mmsi)</text><text fill="#000000" font-family="sans-serif" font-size="13.75" lengthAdjust="spacing" textLength="430" x="4257.5" y="231.5686">+setTotalMovements(ShipDistance.getTotalMovements(mmsi, shipMap))</text><text fill="#000000" font-family="sans-serif" font-size="13.75" lengthAdjust="spacing" textLength="347.5" x="4257.5" y="248.8635">+setTotalTime(ShipDistance.getTotalTime(mmsi, shipMap))</text><text fill="#000000" font-family="sans-serif" font-size="13.75" lengthAdjust="spacing" textLength="313.75" x="4257.5" y="266.1584">+setMaxCog(ShipDistance.maxCog(mmsi, shipMap))</text><text fill="#000000" font-family="sans-serif" font-size="13.75" lengthAdjust="spacing" textLength="313.75" x="4257.5" y="283.4534">+setMaxSog(ShipDistance.maxSog(mmsi, shipMap))</text><text fill="#000000" font-family="sans-serif" font-size="13.75" lengthAdjust="spacing" textLength="407.5" x="4257.5" y="300.7483">+setStartTime(ShipDistance.minTime(mmsi, shipMap).getDateTime())</text><text fill="#000000" font-family="sans-serif" font-size="13.75" lengthAdjust="spacing" textLength="406.25" x="4257.5" y="318.0432">+setEndTime(ShipDistance.maxTime(mmsi, shipMap).getDateTime())</text><text fill="#000000" font-family="sans-serif" font-size="13.75" lengthAdjust="spacing" textLength="386.25" x="4257.5" y="335.3381">+setDepLatitude(ShipDistance.minTime(mmsi, shipMap).getLat())</text><text fill="#000000" font-family="sans-serif" font-size="13.75" lengthAdjust="spacing" textLength="372.5" x="4257.5" y="352.6331">+setDepLong(ShipDistance.minTime(mmsi, shipMap).getLon())</text><text fill="#000000" font-family="sans-serif" font-size="13.75" lengthAdjust="spacing" textLength="387.5" x="4257.5" y="369.928">+setArrLatitude(ShipDistance.maxTime(mmsi, shipMap).getLat())</text><text fill="#000000" font-family="sans-serif" font-size="13.75" lengthAdjust="spacing" textLength="373.75" x="4257.5" y="387.2229">+setArrLong(ShipDistance.maxTime(mmsi, shipMap).getLon())</text><text fill="#000000" font-family="sans-serif" font-size="13.75" lengthAdjust="spacing" textLength="328.75" x="4257.5" y="404.5178">+setMeanCog(ShipDistance.meanCog(mmsi, shipMap))</text><text fill="#000000" font-family="sans-serif" font-size="13.75" lengthAdjust="spacing" textLength="328.75" x="4257.5" y="421.8127">+setMeanSog(ShipDistance.meanSog(mmsi, shipMap))</text><text fill="#000000" font-family="sans-serif" font-size="13.75" lengthAdjust="spacing" textLength="308.75" x="4257.5" y="439.1077">+setDeltDis(ShipDistance.distDelta(mmsi, shipMap))</text><text fill="#000000" font-family="sans-serif" font-size="13.75" lengthAdjust="spacing" textLength="340" x="4257.5" y="456.4026">+setTravDis(ShipDistance.totalDistance(mmsi, shipMap))</text><text fill="#000000" font-family="sans-serif" font-size="13.75" lengthAdjust="spacing" textLength="248.75" x="4257.5" y="473.6975">+setVesselName(ship1.getVesselName()</text><text fill="#000000" font-family="sans-serif" font-size="13.75" lengthAdjust="spacing" textLength="387.5" x="4257.5" y="490.9924">+orderShips(HashMap&lt;Ship,List&lt;ShipDynamicFields&gt;&gt; shipMap)</text><text fill="#000000" font-family="sans-serif" font-size="13.75" lengthAdjust="spacing" textLength="1042.5" x="4257.5" y="508.2874">+mostKmFastShips(String dateOfCheck, String hourCheck,String dateOfCheck2, String hourCheck2, int numberOfResults, HashMap&lt;Ship,List&lt;ShipDynamicFields&gt;&gt; shipMap)</text><text fill="#000000" font-family="sans-serif" font-size="13.75" lengthAdjust="spacing" textLength="272.5" x="4257.5" y="525.5823">+compare(ShipDistance p1, ShipDistance p2)</text><!--MD5=[f83c21593eaf922254cc0f6c975dae32]
class OrderShipsUI--><rect codeLine="138" fill="#FEFECE" filter="url(#f3bf0muh1srxz)" height="60" id="OrderShipsUI" style="stroke:#A80036;stroke-width:1.875;" width="133.75" x="3513.125" y="8.75"/><ellipse cx="3531.875" cy="28.75" fill="#ADD1B2" rx="13.75" ry="13.75" style="stroke:#A80036;stroke-width:1.25;"/><path d="M3534.375,24.375 Q3534.6289,23.75 3534.9219,23.4375 Q3535.2148,23.125 3535.5469,23.125 Q3536.1328,23.125 3536.5039,23.4766 Q3536.875,23.8281 3536.875,24.6484 L3536.875,26.6016 Q3536.875,27.4219 3536.5234,27.7734 Q3536.1719,28.125 3535.625,28.125 Q3535.1367,28.125 3534.8242,27.9102 Q3534.5117,27.6953 3534.375,27.1289 Q3534.3164,26.7383 3534.1016,26.5234 Q3533.7109,26.1133 3533.0078,25.8789 Q3532.3047,25.625 3531.6016,25.625 Q3530.7227,25.625 3529.9805,25.9766 Q3529.2578,26.3281 3528.6914,27.1094 Q3528.125,27.8906 3528.125,28.9648 L3528.125,30.1172 Q3528.125,31.4063 3529.1797,32.2656 Q3530.2344,33.125 3532.1094,33.125 Q3533.2227,33.125 3534.0039,32.8711 Q3534.4531,32.7344 3534.9609,32.2852 Q3535.293,32.0313 3535.4688,31.9531 Q3535.6445,31.875 3535.8594,31.875 Q3536.2695,31.875 3536.5625,32.207 Q3536.875,32.5195 3536.875,32.9688 Q3536.875,33.3984 3536.4453,33.9063 Q3535.8203,34.6484 3534.8242,35.0586 Q3533.5156,35.625 3531.9141,35.625 Q3530.0391,35.625 3528.5352,34.8828 Q3527.3242,34.2969 3526.4648,33.0273 Q3525.625,31.7578 3525.625,30.2539 L3525.625,28.8867 Q3525.625,27.3242 3526.3672,25.957 Q3527.1289,24.5898 3528.4375,23.8672 Q3529.7656,23.125 3531.25,23.125 Q3532.1484,23.125 3532.9297,23.4375 Q3533.7109,23.75 3534.375,24.375 Z " fill="#000000"/><text fill="#000000" font-family="sans-serif" font-size="15" lengthAdjust="spacing" textLength="93.75" x="3549.375" y="34.8877">OrderShipsUI</text><line style="stroke:#A80036;stroke-width:1.875;" x1="3514.375" x2="3645.625" y1="48.75" y2="48.75"/><line style="stroke:#A80036;stroke-width:1.875;" x1="3514.375" x2="3645.625" y1="58.75" y2="58.75"/><!--MD5=[bce8401af9072f2b56d0cb541f08e41a]
class GetTopNShipsByMostKmFastShipsUI--><rect codeLine="153" fill="#FEFECE" filter="url(#f3bf0muh1srxz)" height="60" id="GetTopNShipsByMostKmFastShipsUI" style="stroke:#A80036;stroke-width:1.875;" width="298.75" x="3690.625" y="8.75"/><ellipse cx="3709.375" cy="28.75" fill="#ADD1B2" rx="13.75" ry="13.75" style="stroke:#A80036;stroke-width:1.25;"/><path d="M3711.875,24.375 Q3712.1289,23.75 3712.4219,23.4375 Q3712.7148,23.125 3713.0469,23.125 Q3713.6328,23.125 3714.0039,23.4766 Q3714.375,23.8281 3714.375,24.6484 L3714.375,26.6016 Q3714.375,27.4219 3714.0234,27.7734 Q3713.6719,28.125 3713.125,28.125 Q3712.6367,28.125 3712.3242,27.9102 Q3712.0117,27.6953 3711.875,27.1289 Q3711.8164,26.7383 3711.6016,26.5234 Q3711.2109,26.1133 3710.5078,25.8789 Q3709.8047,25.625 3709.1016,25.625 Q3708.2227,25.625 3707.4805,25.9766 Q3706.7578,26.3281 3706.1914,27.1094 Q3705.625,27.8906 3705.625,28.9648 L3705.625,30.1172 Q3705.625,31.4063 3706.6797,32.2656 Q3707.7344,33.125 3709.6094,33.125 Q3710.7227,33.125 3711.5039,32.8711 Q3711.9531,32.7344 3712.4609,32.2852 Q3712.793,32.0313 3712.9688,31.9531 Q3713.1445,31.875 3713.3594,31.875 Q3713.7695,31.875 3714.0625,32.207 Q3714.375,32.5195 3714.375,32.9688 Q3714.375,33.3984 3713.9453,33.9063 Q3713.3203,34.6484 3712.3242,35.0586 Q3711.0156,35.625 3709.4141,35.625 Q3707.5391,35.625 3706.0352,34.8828 Q3704.8242,34.2969 3703.9648,33.0273 Q3703.125,31.7578 3703.125,30.2539 L3703.125,28.8867 Q3703.125,27.3242 3703.8672,25.957 Q3704.6289,24.5898 3705.9375,23.8672 Q3707.2656,23.125 3708.75,23.125 Q3709.6484,23.125 3710.4297,23.4375 Q3711.2109,23.75 3711.875,24.375 Z " fill="#000000"/><text fill="#000000" font-family="sans-serif" font-size="15" lengthAdjust="spacing" textLength="258.75" x="3726.875" y="34.8877">GetTopNShipsByMostKmFastShipsUI</text><line style="stroke:#A80036;stroke-width:1.875;" x1="3691.875" x2="3988.125" y1="48.75" y2="48.75"/><line style="stroke:#A80036;stroke-width:1.875;" x1="3691.875" x2="3988.125" y1="58.75" y2="58.75"/><!--MD5=[da509a96dcbbdd2bfb40c2056dd07919]
class ShipRouteUI--><rect codeLine="169" fill="#FEFECE" filter="url(#f3bf0muh1srxz)" height="60" id="ShipRouteUI" style="stroke:#A80036;stroke-width:1.875;" width="127.5" x="592.5" y="8.75"/><ellipse cx="611.25" cy="28.75" fill="#ADD1B2" rx="13.75" ry="13.75" style="stroke:#A80036;stroke-width:1.25;"/><path d="M613.75,24.375 Q614.0039,23.75 614.2969,23.4375 Q614.5898,23.125 614.9219,23.125 Q615.5078,23.125 615.8789,23.4766 Q616.25,23.8281 616.25,24.6484 L616.25,26.6016 Q616.25,27.4219 615.8984,27.7734 Q615.5469,28.125 615,28.125 Q614.5117,28.125 614.1992,27.9102 Q613.8867,27.6953 613.75,27.1289 Q613.6914,26.7383 613.4766,26.5234 Q613.0859,26.1133 612.3828,25.8789 Q611.6797,25.625 610.9766,25.625 Q610.0977,25.625 609.3555,25.9766 Q608.6328,26.3281 608.0664,27.1094 Q607.5,27.8906 607.5,28.9648 L607.5,30.1172 Q607.5,31.4063 608.5547,32.2656 Q609.6094,33.125 611.4844,33.125 Q612.5977,33.125 613.3789,32.8711 Q613.8281,32.7344 614.3359,32.2852 Q614.668,32.0313 614.8438,31.9531 Q615.0195,31.875 615.2344,31.875 Q615.6445,31.875 615.9375,32.207 Q616.25,32.5195 616.25,32.9688 Q616.25,33.3984 615.8203,33.9063 Q615.1953,34.6484 614.1992,35.0586 Q612.8906,35.625 611.2891,35.625 Q609.4141,35.625 607.9102,34.8828 Q606.6992,34.2969 605.8398,33.0273 Q605,31.7578 605,30.2539 L605,28.8867 Q605,27.3242 605.7422,25.957 Q606.5039,24.5898 607.8125,23.8672 Q609.1406,23.125 610.625,23.125 Q611.5234,23.125 612.3047,23.4375 Q613.0859,23.75 613.75,24.375 Z " fill="#000000"/><text fill="#000000" font-family="sans-serif" font-size="15" lengthAdjust="spacing" textLength="87.5" x="628.75" y="34.8877">ShipRouteUI</text><line style="stroke:#A80036;stroke-width:1.875;" x1="593.75" x2="718.75" y1="48.75" y2="48.75"/><line style="stroke:#A80036;stroke-width:1.875;" x1="593.75" x2="718.75" y1="58.75" y2="58.75"/><!--MD5=[bf1993748864f2e03c2c349208fc9c5a]
class ShipRouteController--><rect codeLine="172" fill="#FEFECE" filter="url(#f3bf0muh1srxz)" height="129.1797" id="ShipRouteController" style="stroke:#A80036;stroke-width:1.875;" width="551.25" x="380.625" y="275"/><ellipse cx="580.9375" cy="295" fill="#ADD1B2" rx="13.75" ry="13.75" style="stroke:#A80036;stroke-width:1.25;"/><path d="M583.4375,290.625 Q583.6914,290 583.9844,289.6875 Q584.2773,289.375 584.6094,289.375 Q585.1953,289.375 585.5664,289.7266 Q585.9375,290.0781 585.9375,290.8984 L585.9375,292.8516 Q585.9375,293.6719 585.5859,294.0234 Q585.2344,294.375 584.6875,294.375 Q584.1992,294.375 583.8867,294.1602 Q583.5742,293.9453 583.4375,293.3789 Q583.3789,292.9883 583.1641,292.7734 Q582.7734,292.3633 582.0703,292.1289 Q581.3672,291.875 580.6641,291.875 Q579.7852,291.875 579.043,292.2266 Q578.3203,292.5781 577.7539,293.3594 Q577.1875,294.1406 577.1875,295.2148 L577.1875,296.3672 Q577.1875,297.6563 578.2422,298.5156 Q579.2969,299.375 581.1719,299.375 Q582.2852,299.375 583.0664,299.1211 Q583.5156,298.9844 584.0234,298.5352 Q584.3555,298.2813 584.5313,298.2031 Q584.707,298.125 584.9219,298.125 Q585.332,298.125 585.625,298.457 Q585.9375,298.7695 585.9375,299.2188 Q585.9375,299.6484 585.5078,300.1563 Q584.8828,300.8984 583.8867,301.3086 Q582.5781,301.875 580.9766,301.875 Q579.1016,301.875 577.5977,301.1328 Q576.3867,300.5469 575.5273,299.2773 Q574.6875,298.0078 574.6875,296.5039 L574.6875,295.1367 Q574.6875,293.5742 575.4297,292.207 Q576.1914,290.8398 577.5,290.1172 Q578.8281,289.375 580.3125,289.375 Q581.2109,289.375 581.9922,289.6875 Q582.7734,290 583.4375,290.625 Z " fill="#000000"/><text fill="#000000" font-family="sans-serif" font-size="15" lengthAdjust="spacing" textLength="140" x="606.5625" y="301.1377">ShipRouteController</text><line style="stroke:#A80036;stroke-width:1.875;" x1="381.875" x2="930.625" y1="315" y2="315"/><line style="stroke:#A80036;stroke-width:1.875;" x1="381.875" x2="930.625" y1="325" y2="325"/><text fill="#000000" font-family="sans-serif" font-size="13.75" lengthAdjust="spacing" textLength="197.5" x="388.125" y="344.2737">+loadCsvFile(final String filePath)</text><text fill="#000000" font-family="sans-serif" font-size="13.75" lengthAdjust="spacing" textLength="367.5" x="388.125" y="361.5686">+calculateShipRoute(List&lt;ShipMovement&gt; shipMovementList)</text><text fill="#000000" font-family="sans-serif" font-size="13.75" lengthAdjust="spacing" textLength="536.25" x="388.125" y="378.8635">+filterShipRoutesByTravelDistance(List&lt;ShipRoute&gt; shipRouteList, int minTravelDistance)</text><text fill="#000000" font-family="sans-serif" font-size="13.75" lengthAdjust="spacing" textLength="502.5" x="388.125" y="396.1584">+filterShipRoutesByPairs(List&lt;ShipRoute&gt; shipRouteList, int minDistanceDifference)</text><!--MD5=[a44ad20d45cac02e8c33cdd4602627cf]
class ShipRoute--><rect codeLine="179" fill="#FEFECE" filter="url(#f3bf0muh1srxz)" height="215.6543" id="ShipRoute" style="stroke:#A80036;stroke-width:1.875;" width="422.5" x="1028.75" y="231.25"/><ellipse cx="1198.4375" cy="251.25" fill="#ADD1B2" rx="13.75" ry="13.75" style="stroke:#A80036;stroke-width:1.25;"/><path d="M1200.9375,246.875 Q1201.1914,246.25 1201.4844,245.9375 Q1201.7773,245.625 1202.1094,245.625 Q1202.6953,245.625 1203.0664,245.9766 Q1203.4375,246.3281 1203.4375,247.1484 L1203.4375,249.1016 Q1203.4375,249.9219 1203.0859,250.2734 Q1202.7344,250.625 1202.1875,250.625 Q1201.6992,250.625 1201.3867,250.4102 Q1201.0742,250.1953 1200.9375,249.6289 Q1200.8789,249.2383 1200.6641,249.0234 Q1200.2734,248.6133 1199.5703,248.3789 Q1198.8672,248.125 1198.1641,248.125 Q1197.2852,248.125 1196.543,248.4766 Q1195.8203,248.8281 1195.2539,249.6094 Q1194.6875,250.3906 1194.6875,251.4648 L1194.6875,252.6172 Q1194.6875,253.9063 1195.7422,254.7656 Q1196.7969,255.625 1198.6719,255.625 Q1199.7852,255.625 1200.5664,255.3711 Q1201.0156,255.2344 1201.5234,254.7852 Q1201.8555,254.5313 1202.0313,254.4531 Q1202.207,254.375 1202.4219,254.375 Q1202.832,254.375 1203.125,254.707 Q1203.4375,255.0195 1203.4375,255.4688 Q1203.4375,255.8984 1203.0078,256.4063 Q1202.3828,257.1484 1201.3867,257.5586 Q1200.0781,258.125 1198.4766,258.125 Q1196.6016,258.125 1195.0977,257.3828 Q1193.8867,256.7969 1193.0273,255.5273 Q1192.1875,254.2578 1192.1875,252.7539 L1192.1875,251.3867 Q1192.1875,249.8242 1192.9297,248.457 Q1193.6914,247.0898 1195,246.3672 Q1196.3281,245.625 1197.8125,245.625 Q1198.7109,245.625 1199.4922,245.9375 Q1200.2734,246.25 1200.9375,246.875 Z " fill="#000000"/><text fill="#000000" font-family="sans-serif" font-size="15" lengthAdjust="spacing" textLength="72.5" x="1224.0625" y="257.3877">ShipRoute</text><line style="stroke:#A80036;stroke-width:1.875;" x1="1030" x2="1450" y1="271.25" y2="271.25"/><line style="stroke:#A80036;stroke-width:1.875;" x1="1030" x2="1450" y1="281.25" y2="281.25"/><text fill="#000000" font-family="sans-serif" font-size="13.75" lengthAdjust="spacing" textLength="407.5" x="1036.25" y="300.5237">+calculateShipRouteDetails(List&lt;ShipMovement&gt; shipMovementList)</text><text fill="#000000" font-family="sans-serif" font-size="13.75" lengthAdjust="spacing" textLength="126.25" x="1036.25" y="317.8186">+getTravelDistance()</text><text fill="#000000" font-family="sans-serif" font-size="13.75" lengthAdjust="spacing" textLength="358.75" x="1036.25" y="335.1135">+distance(double lat1, double lat2, double lon1, double lon2)</text><text fill="#000000" font-family="sans-serif" font-size="13.75" lengthAdjust="spacing" textLength="66.25" x="1036.25" y="352.4084">+getMmsi()</text><text fill="#000000" font-family="sans-serif" font-size="13.75" lengthAdjust="spacing" textLength="115" x="1036.25" y="369.7034">+getDepartureLat()</text><text fill="#000000" font-family="sans-serif" font-size="13.75" lengthAdjust="spacing" textLength="126.25" x="1036.25" y="386.9983">+getDepartureLong()</text><text fill="#000000" font-family="sans-serif" font-size="13.75" lengthAdjust="spacing" textLength="95" x="1036.25" y="404.2932">+getArrivalLat()</text><text fill="#000000" font-family="sans-serif" font-size="13.75" lengthAdjust="spacing" textLength="106.25" x="1036.25" y="421.5881">+getArrivalLong()</text><text fill="#000000" font-family="sans-serif" font-size="13.75" lengthAdjust="spacing" textLength="126.25" x="1036.25" y="438.8831">+getTravelDistance()</text><!--MD5=[e7ad894f8331fa852791ac292f7e8a32]
class ShipPair--><rect codeLine="191" fill="#FEFECE" filter="url(#f3bf0muh1srxz)" height="198.3594" id="ShipPair" style="stroke:#A80036;stroke-width:1.875;" width="275" x="8.75" y="240"/><ellipse cx="111.5625" cy="260" fill="#ADD1B2" rx="13.75" ry="13.75" style="stroke:#A80036;stroke-width:1.25;"/><path d="M114.0625,255.625 Q114.3164,255 114.6094,254.6875 Q114.9023,254.375 115.2344,254.375 Q115.8203,254.375 116.1914,254.7266 Q116.5625,255.0781 116.5625,255.8984 L116.5625,257.8516 Q116.5625,258.6719 116.2109,259.0234 Q115.8594,259.375 115.3125,259.375 Q114.8242,259.375 114.5117,259.1602 Q114.1992,258.9453 114.0625,258.3789 Q114.0039,257.9883 113.7891,257.7734 Q113.3984,257.3633 112.6953,257.1289 Q111.9922,256.875 111.2891,256.875 Q110.4102,256.875 109.668,257.2266 Q108.9453,257.5781 108.3789,258.3594 Q107.8125,259.1406 107.8125,260.2148 L107.8125,261.3672 Q107.8125,262.6563 108.8672,263.5156 Q109.9219,264.375 111.7969,264.375 Q112.9102,264.375 113.6914,264.1211 Q114.1406,263.9844 114.6484,263.5352 Q114.9805,263.2813 115.1563,263.2031 Q115.332,263.125 115.5469,263.125 Q115.957,263.125 116.25,263.457 Q116.5625,263.7695 116.5625,264.2188 Q116.5625,264.6484 116.1328,265.1563 Q115.5078,265.8984 114.5117,266.3086 Q113.2031,266.875 111.6016,266.875 Q109.7266,266.875 108.2227,266.1328 Q107.0117,265.5469 106.1523,264.2773 Q105.3125,263.0078 105.3125,261.5039 L105.3125,260.1367 Q105.3125,258.5742 106.0547,257.207 Q106.8164,255.8398 108.125,255.1172 Q109.4531,254.375 110.9375,254.375 Q111.8359,254.375 112.6172,254.6875 Q113.3984,255 114.0625,255.625 Z " fill="#000000"/><text fill="#000000" font-family="sans-serif" font-size="15" lengthAdjust="spacing" textLength="58.75" x="137.1875" y="266.1377">ShipPair</text><line style="stroke:#A80036;stroke-width:1.875;" x1="10" x2="282.5" y1="280" y2="280"/><line style="stroke:#A80036;stroke-width:1.875;" x1="10" x2="282.5" y1="290" y2="290"/><text fill="#000000" font-family="sans-serif" font-size="13.75" lengthAdjust="spacing" textLength="132.5" x="16.25" y="309.2737">+setMmsi1(getMmsi())</text><text fill="#000000" font-family="sans-serif" font-size="13.75" lengthAdjust="spacing" textLength="132.5" x="16.25" y="326.5686">+setMmsi2(getMmsi())</text><text fill="#000000" font-family="sans-serif" font-size="13.75" lengthAdjust="spacing" textLength="252.5" x="16.25" y="343.8635">+setTravelDistance1(getTravelDistance())</text><text fill="#000000" font-family="sans-serif" font-size="13.75" lengthAdjust="spacing" textLength="252.5" x="16.25" y="361.1584">+setTravelDistance2(getTravelDistance())</text><text fill="#000000" font-family="sans-serif" font-size="13.75" lengthAdjust="spacing" textLength="218.75" x="16.25" y="378.4534">+setArrivalDistance(arrivalDistance)</text><text fill="#000000" font-family="sans-serif" font-size="13.75" lengthAdjust="spacing" textLength="260" x="16.25" y="395.7483">+setDepartureDistance(departureDistance)</text><text fill="#000000" font-family="sans-serif" font-size="13.75" lengthAdjust="spacing" textLength="207.5" x="16.25" y="413.0432">+order(List&lt;ShipPair&gt; shipPairList)</text><text fill="#000000" font-family="sans-serif" font-size="13.75" lengthAdjust="spacing" textLength="192.5" x="16.25" y="430.3381">+compare(Object o1, Object o2)</text><!--MD5=[f6b3929c0540a43527d6df01ce8c04ff]
class ShipMovement--><rect codeLine="202" fill="#FEFECE" filter="url(#f3bf0muh1srxz)" height="111.8848" id="ShipMovement" style="stroke:#A80036;stroke-width:1.875;" width="141.25" x="1020.625" y="631.25"/><ellipse cx="1039.375" cy="651.25" fill="#ADD1B2" rx="13.75" ry="13.75" style="stroke:#A80036;stroke-width:1.25;"/><path d="M1041.875,646.875 Q1042.1289,646.25 1042.4219,645.9375 Q1042.7148,645.625 1043.0469,645.625 Q1043.6328,645.625 1044.0039,645.9766 Q1044.375,646.3281 1044.375,647.1484 L1044.375,649.1016 Q1044.375,649.9219 1044.0234,650.2734 Q1043.6719,650.625 1043.125,650.625 Q1042.6367,650.625 1042.3242,650.4102 Q1042.0117,650.1953 1041.875,649.6289 Q1041.8164,649.2383 1041.6016,649.0234 Q1041.2109,648.6133 1040.5078,648.3789 Q1039.8047,648.125 1039.1016,648.125 Q1038.2227,648.125 1037.4805,648.4766 Q1036.7578,648.8281 1036.1914,649.6094 Q1035.625,650.3906 1035.625,651.4648 L1035.625,652.6172 Q1035.625,653.9063 1036.6797,654.7656 Q1037.7344,655.625 1039.6094,655.625 Q1040.7227,655.625 1041.5039,655.3711 Q1041.9531,655.2344 1042.4609,654.7852 Q1042.793,654.5313 1042.9688,654.4531 Q1043.1445,654.375 1043.3594,654.375 Q1043.7695,654.375 1044.0625,654.707 Q1044.375,655.0195 1044.375,655.4688 Q1044.375,655.8984 1043.9453,656.4063 Q1043.3203,657.1484 1042.3242,657.5586 Q1041.0156,658.125 1039.4141,658.125 Q1037.5391,658.125 1036.0352,657.3828 Q1034.8242,656.7969 1033.9648,655.5273 Q1033.125,654.2578 1033.125,652.7539 L1033.125,651.3867 Q1033.125,649.8242 1033.8672,648.457 Q1034.6289,647.0898 1035.9375,646.3672 Q1037.2656,645.625 1038.75,645.625 Q1039.6484,645.625 1040.4297,645.9375 Q1041.2109,646.25 1041.875,646.875 Z " fill="#000000"/><text fill="#000000" font-family="sans-serif" font-size="15" lengthAdjust="spacing" textLength="101.25" x="1056.875" y="657.3877">ShipMovement</text><line style="stroke:#A80036;stroke-width:1.875;" x1="1021.875" x2="1160.625" y1="671.25" y2="671.25"/><line style="stroke:#A80036;stroke-width:1.875;" x1="1021.875" x2="1160.625" y1="681.25" y2="681.25"/><text fill="#000000" font-family="sans-serif" font-size="13.75" lengthAdjust="spacing" textLength="122.5" x="1028.125" y="700.5237">+getBaseDateTime()</text><text fill="#000000" font-family="sans-serif" font-size="13.75" lengthAdjust="spacing" textLength="55" x="1028.125" y="717.8186">+getLat()</text><text fill="#000000" font-family="sans-serif" font-size="13.75" lengthAdjust="spacing" textLength="58.75" x="1028.125" y="735.1135">+getLon()</text><!--MD5=[f2cdb1321c71a84e3b1c799534f1bd01]
link LoadShipUI to LoaderController--><path codeLine="29" d="M1795,69.125 C1795,116.8625 1795,212.775 1795,276.2125 " fill="none" id="LoadShipUI-to-LoaderController" style="stroke:#A80036;stroke-width:1.25;stroke-dasharray:7.0,7.0;"/><polygon fill="#A80036" points="1795,282.6375,1800,271.3875,1795,276.3875,1790,271.3875,1795,282.6375" style="stroke:#A80036;stroke-width:1.25;"/><!--MD5=[b6ab3f1c0d9977b0dbf0c724aa7107ec]
link LoaderController to Ship--><path codeLine="30" d="M1700.675,395.675 C1598.4,455.975 1446.9125,547.3125 1426.25,571.25 C1358.6125,649.6 1356.8125,742.15 1440,803.75 C1658.175,965.2875 2384.3125,1085.0625 2838.575,1146.4 " fill="none" id="LoaderController-to-Ship" style="stroke:#A80036;stroke-width:1.25;"/><polygon fill="#A80036" points="2844.9125,1147.25,2834.4354,1140.7853,2838.7191,1146.4111,2833.0932,1150.6948,2844.9125,1147.25" style="stroke:#A80036;stroke-width:1.25;"/><text fill="#000000" font-family="sans-serif" font-size="16.25" lengthAdjust="spacing" textLength="35" x="1441.25" y="799.3689">uses</text><text fill="#000000" font-family="sans-serif" font-size="16.25" lengthAdjust="spacing" textLength="8.75" x="1678.0453" y="421.9415">1</text><text fill="#000000" font-family="sans-serif" font-size="16.25" lengthAdjust="spacing" textLength="25" x="2809.6504" y="1142.6321">1..*</text><!--MD5=[2796f3206bdec97f00435bd0885ff3bb]
link LoaderController to AVL--><path codeLine="31" d="M1683.5125,395.6625 C1543.5,472.025 1333.45,615.25 1437.5,743.75 C1537.475,867.2125 2016.975,916.0125 2241.3125,932.3125 " fill="none" id="LoaderController-to-AVL" style="stroke:#A80036;stroke-width:1.25;"/><polygon fill="#A80036" points="2247.8625,932.7875,2236.9985,926.9965,2241.6285,932.3409,2236.284,936.9709,2247.8625,932.7875" style="stroke:#A80036;stroke-width:1.25;"/><text fill="#000000" font-family="sans-serif" font-size="16.25" lengthAdjust="spacing" textLength="35" x="1438.75" y="694.3689">uses</text><text fill="#000000" font-family="sans-serif" font-size="16.25" lengthAdjust="spacing" textLength="8.75" x="1658.4693" y="421.9272">1</text><text fill="#000000" font-family="sans-serif" font-size="16.25" lengthAdjust="spacing" textLength="8.75" x="2229.3146" y="928.1239">1</text><!--MD5=[678e471b45e49465b5d5c2f9450f4843]
link LoaderController to ShipOrderedByIMO--><path codeLine="32" d="M1881.9375,395.8125 C1977.425,453.9 2137.075,543.7 2286.25,593.75 C2340.45,611.9375 2399,626.7 2456.7875,638.6375 " fill="none" id="LoaderController-to-ShipOrderedByIMO" style="stroke:#A80036;stroke-width:1.25;"/><polygon fill="#A80036" points="2463.1,639.9375,2453.077,632.7889,2456.9762,638.6877,2451.0774,642.587,2463.1,639.9375" style="stroke:#A80036;stroke-width:1.25;"/><text fill="#000000" font-family="sans-serif" font-size="16.25" lengthAdjust="spacing" textLength="35" x="2287.5" y="589.3689">uses</text><text fill="#000000" font-family="sans-serif" font-size="16.25" lengthAdjust="spacing" textLength="8.75" x="1884.2818" y="421.6798">1</text><text fill="#000000" font-family="sans-serif" font-size="16.25" lengthAdjust="spacing" textLength="8.75" x="2387.7399" y="626.2716">1</text><!--MD5=[b9f18cfb65ccce231bda3c2a03902379]
link LoaderController to ShipOrderedByCallSign--><path codeLine="33" d="M1816.1375,395.775 C1841.2,461.125 1882.65,569.25 1907.2875,633.525 " fill="none" id="LoaderController-to-ShipOrderedByCallSign" style="stroke:#A80036;stroke-width:1.25;"/><polygon fill="#A80036" points="1909.625,639.6125,1910.2457,627.3171,1907.3778,633.7805,1900.9144,630.9126,1909.625,639.6125" style="stroke:#A80036;stroke-width:1.25;"/><text fill="#000000" font-family="sans-serif" font-size="16.25" lengthAdjust="spacing" textLength="35" x="1893.75" y="589.3689">uses</text><text fill="#000000" font-family="sans-serif" font-size="16.25" lengthAdjust="spacing" textLength="8.75" x="1809.7447" y="422.0556">1</text><text fill="#000000" font-family="sans-serif" font-size="16.25" lengthAdjust="spacing" textLength="8.75" x="1897.0508" y="626.605">1</text><!--MD5=[e5694e0cd3b07d24131cd6550559be08]
link FindShipUI to FindShipController--><path codeLine="65" d="M2820,69.125 C2820,116.8625 2820,212.775 2820,276.2125 " fill="none" id="FindShipUI-to-FindShipController" style="stroke:#A80036;stroke-width:1.25;stroke-dasharray:7.0,7.0;"/><polygon fill="#A80036" points="2820,282.6375,2825,271.3875,2820,276.3875,2815,271.3875,2820,282.6375" style="stroke:#A80036;stroke-width:1.25;"/><!--MD5=[ba157c86b5e52948408130c88f43b898]
link FindShipController to Ship--><path codeLine="66" d="M2855.2125,395.875 C2885.1,438.8 2931.575,497.025 2985,533.75 C3091.8625,607.2125 3185.175,525.3375 3260,631.25 C3367.575,783.5375 3291.85,1020.6625 3246.325,1131.5125 " fill="none" id="FindShipController-to-Ship" style="stroke:#A80036;stroke-width:1.25;"/><polygon fill="#A80036" points="3243.9,1137.35,3252.8293,1128.8747,3246.295,1131.5771,3243.5926,1125.0428,3243.9,1137.35" style="stroke:#A80036;stroke-width:1.25;"/><text fill="#000000" font-family="sans-serif" font-size="16.25" lengthAdjust="spacing" textLength="35" x="3316.25" y="799.3689">uses</text><text fill="#000000" font-family="sans-serif" font-size="16.25" lengthAdjust="spacing" textLength="8.75" x="2850.6063" y="421.7507">1</text><text fill="#000000" font-family="sans-serif" font-size="16.25" lengthAdjust="spacing" textLength="25" x="3220.837" y="1124.1321">1..*</text><!--MD5=[eaf0156fbcf49eb69057481b7d87de29]
link FindShipController to ShipOrderedByIMO--><path codeLine="67" d="M2820,395.775 C2820,461 2820,568.8125 2820,633.1375 " fill="none" id="FindShipController-to-ShipOrderedByIMO" style="stroke:#A80036;stroke-width:1.25;"/><polygon fill="#A80036" points="2820,639.6125,2825,628.3625,2820,633.3625,2815,628.3625,2820,639.6125" style="stroke:#A80036;stroke-width:1.25;"/><text fill="#000000" font-family="sans-serif" font-size="16.25" lengthAdjust="spacing" textLength="35" x="2821.25" y="589.3689">uses</text><text fill="#000000" font-family="sans-serif" font-size="16.25" lengthAdjust="spacing" textLength="8.75" x="2810.6348" y="422.0556">1</text><text fill="#000000" font-family="sans-serif" font-size="16.25" lengthAdjust="spacing" textLength="25" x="2792.8516" y="626.605">1..*</text><!--MD5=[7efaaa889c5aae270d98bf2685e56aca]
link FindShipController to ShipOrderedByCallSign--><path codeLine="68" d="M2731.325,395.6625 C2636.2,452.55 2479.15,540.3625 2333.75,593.75 C2286.1125,611.2375 2234.0875,626.0875 2183.6375,638.4375 " fill="none" id="FindShipController-to-ShipOrderedByCallSign" style="stroke:#A80036;stroke-width:1.25;"/><polygon fill="#A80036" points="2177.5,639.925,2189.6087,642.148,2183.5758,638.4597,2187.2642,632.4268,2177.5,639.925" style="stroke:#A80036;stroke-width:1.25;"/><text fill="#000000" font-family="sans-serif" font-size="16.25" lengthAdjust="spacing" textLength="35" x="2391.25" y="589.3689">uses</text><text fill="#000000" font-family="sans-serif" font-size="16.25" lengthAdjust="spacing" textLength="8.75" x="2709.4898" y="421.9272">1</text><text fill="#000000" font-family="sans-serif" font-size="16.25" lengthAdjust="spacing" textLength="8.75" x="2214.0371" y="626.2568">1</text><!--MD5=[2a70cd94f1622fe57e1173f0e4cda925]
link Ship to AVL--><path codeLine="69" d="M3029.3625,1137.3875 C2859.525,1087.9625 2615.75,1017.025 2473.3,975.575 " fill="none" id="Ship-to-AVL" style="stroke:#A80036;stroke-width:1.25;"/><polygon fill="#A80036" points="2467.0125,973.75,2476.4125,981.7,2473.0125,975.5,2479.2125,972.1,2467.0125,973.75" style="stroke:#A80036;stroke-width:1.25;"/><text fill="#000000" font-family="sans-serif" font-size="16.25" lengthAdjust="spacing" textLength="35" x="2892.5" y="1095.6189">uses</text><text fill="#000000" font-family="sans-serif" font-size="16.25" lengthAdjust="spacing" textLength="8.75" x="2989.7316" y="1123.7639">1</text><text fill="#000000" font-family="sans-serif" font-size="16.25" lengthAdjust="spacing" textLength="8.75" x="2476.7997" y="972.6066">1</text><!--MD5=[c767dd5a98881ffbb1ee885f6fd5ee36]
link ShipOrderedByIMO to AVL--><path codeLine="70" d="M2734.6375,735.0125 C2660.9625,774.925 2553.925,832.9375 2472.6875,876.9625 " fill="none" id="ShipOrderedByIMO-to-AVL" style="stroke:#A80036;stroke-width:1.25;"/><polygon fill="#A80036" points="2466.875,880.1,2479.148,879.1331,2472.3693,877.1209,2474.3815,870.3422,2466.875,880.1" style="stroke:#A80036;stroke-width:1.25;"/><text fill="#000000" font-family="sans-serif" font-size="16.25" lengthAdjust="spacing" textLength="35" x="2646.25" y="799.3689">uses</text><text fill="#000000" font-family="sans-serif" font-size="16.25" lengthAdjust="spacing" textLength="8.75" x="2711.0247" y="761.4773">1</text><text fill="#000000" font-family="sans-serif" font-size="16.25" lengthAdjust="spacing" textLength="8.75" x="2477.0059" y="870.6882">1</text><!--MD5=[82c9009a558eb16d54d7d92daf644268]
link ShipOrderedByCallSign to AVL--><path codeLine="71" d="M2006.875,735.0125 C2073.2125,773.675 2168.675,829.3125 2243.2375,872.775 " fill="none" id="ShipOrderedByCallSign-to-AVL" style="stroke:#A80036;stroke-width:1.25;"/><polygon fill="#A80036" points="2249.025,876.15,2241.8227,866.1655,2243.6251,873.003,2236.7876,874.8054,2249.025,876.15" style="stroke:#A80036;stroke-width:1.25;"/><text fill="#000000" font-family="sans-serif" font-size="16.25" lengthAdjust="spacing" textLength="35" x="2118.75" y="799.3689">uses</text><text fill="#000000" font-family="sans-serif" font-size="16.25" lengthAdjust="spacing" textLength="8.75" x="2010.5469" y="761.4773">1</text><text fill="#000000" font-family="sans-serif" font-size="16.25" lengthAdjust="spacing" textLength="8.75" x="2229.519" y="865.921">1</text><!--MD5=[18ced1f122dde2629f6a84a53ddef6a4]
link PositionsUI to ShipPositionsController--><path codeLine="102" d="M3876.25,717.9875 C3876.25,759.225 3876.25,835.15 3876.25,886.4375 " fill="none" id="PositionsUI-to-ShipPositionsController" style="stroke:#A80036;stroke-width:1.25;stroke-dasharray:7.0,7.0;"/><polygon fill="#A80036" points="3876.25,892.8875,3881.25,881.6375,3876.25,886.6375,3871.25,881.6375,3876.25,892.8875" style="stroke:#A80036;stroke-width:1.25;"/><!--MD5=[64cdaa4ccba7ac8c0f376fb336174ae5]
link ShipPositionsController to ShipDynamicFields--><path codeLine="103" d="M4380.9,940.625 C4410.8875,940.625 4441.0125,940.625 4470.8875,940.625 " fill="none" id="ShipPositionsController-to-ShipDynamicFields" style="stroke:#A80036;stroke-width:1.25;"/><polygon fill="#A80036" points="4477.2625,940.625,4466.0125,935.625,4471.0125,940.625,4466.0125,945.625,4477.2625,940.625" style="stroke:#A80036;stroke-width:1.25;"/><polygon fill="#000000" points="4414.6875,925.8447,4403.3811,922.1711,4403.3811,929.5184,4414.6875,925.8447" style="stroke:#000000;stroke-width:1.25;"/><text fill="#000000" font-family="sans-serif" font-size="16.25" lengthAdjust="spacing" textLength="35" x="4419.6875" y="932.4939">uses</text><!--MD5=[f08b964160f07a2bd05daddcac221954]
link AVL to ShipPositionsController--><path codeLine="104" d="M2467.3375,940.625 C2654.975,940.625 3048.325,940.625 3371.85,940.625 " fill="none" id="AVL-ShipPositionsController" style="stroke:#A80036;stroke-width:1.25;"/><polygon fill="#000000" points="2892.5,925.8447,2903.8064,929.5184,2903.8064,922.1711,2892.5,925.8447" style="stroke:#000000;stroke-width:1.25;"/><text fill="#000000" font-family="sans-serif" font-size="16.25" lengthAdjust="spacing" textLength="35" x="2910" y="932.4939">uses</text><!--MD5=[da16e35af7741c14da64ed720416ad9d]
link ShipPositionsController to Ship--><path codeLine="105" d="M3754.8875,988.1375 C3644.3125,1030.2875 3480.8375,1092.6 3363.4875,1137.325 " fill="none" id="ShipPositionsController-Ship" style="stroke:#A80036;stroke-width:1.25;"/><polygon fill="#000000" points="3509.1599,1091.1958,3521.0332,1090.6016,3518.4163,1083.7361,3509.1599,1091.1958" style="stroke:#000000;stroke-width:1.25;"/><text fill="#000000" font-family="sans-serif" font-size="16.25" lengthAdjust="spacing" textLength="35" x="3526.25" y="1095.6189">uses</text><!--MD5=[728119b5ecbddc3cfc1163b4bdd74e89]
link SummaryUI to ShipDistanceController--><path codeLine="134" d="M3425.4875,69.125 C3453.0125,117.0625 3508.4375,213.55 3544.875,276.9875 " fill="none" id="SummaryUI-to-ShipDistanceController" style="stroke:#A80036;stroke-width:1.25;stroke-dasharray:7.0,7.0;"/><polygon fill="#A80036" points="3548.125,282.6375,3546.876,270.39,3545.0203,277.2132,3538.1971,275.3575,3548.125,282.6375" style="stroke:#A80036;stroke-width:1.25;"/><!--MD5=[10b4a9574b603e086d31abf134959c8f]
link ShipDistanceController to ShipDistance--><path codeLine="135" d="M4152.5,312.2 C4178.0625,312.2375 4203.3625,312.5375 4228.125,313.125 C4235.3,313.3 4242.525,313.475 4249.8,313.675 " fill="none" id="ShipDistanceController-ShipDistance" style="stroke:#A80036;stroke-width:1.25;"/><polygon fill="#000000" points="4186.8743,294.6895,4175.6249,290.8448,4175.5135,298.1913,4186.8743,294.6895" style="stroke:#000000;stroke-width:1.25;"/><text fill="#000000" font-family="sans-serif" font-size="16.25" lengthAdjust="spacing" textLength="35" x="4191.875" y="301.2439">uses</text><!--MD5=[10b4a9574b603e086d31abf134959c8f]
link ShipDistanceController to ShipDistance--><path codeLine="150" d="M4152.6,339.375 C4182.825,339.375 4213.1375,339.375 4243.225,339.375 " fill="none" id="ShipDistanceController-to-ShipDistance" style="stroke:#A80036;stroke-width:1.25;"/><polygon fill="#A80036" points="4249.65,339.375,4238.4,334.375,4243.4,339.375,4238.4,344.375,4249.65,339.375" style="stroke:#A80036;stroke-width:1.25;"/><polygon fill="#000000" points="4186.875,324.5947,4175.5686,320.9211,4175.5686,328.2684,4186.875,324.5947" style="stroke:#000000;stroke-width:1.25;"/><text fill="#000000" font-family="sans-serif" font-size="16.25" lengthAdjust="spacing" textLength="35" x="4191.875" y="331.2439">uses</text><!--MD5=[10b4a9574b603e086d31abf134959c8f]
link ShipDistanceController to ShipDistance--><path codeLine="166" d="M4152.5,366.55 C4178.0625,366.5125 4203.3625,366.2125 4228.125,365.625 C4233.175,365.5 4238.2375,365.375 4243.3375,365.25 " fill="none" id="ShipDistanceController-to-ShipDistance-1" style="stroke:#A80036;stroke-width:1.25;"/><polygon fill="#A80036" points="4249.8,365.075,4238.4252,360.3658,4243.5521,365.2357,4238.6822,370.3625,4249.8,365.075" style="stroke:#A80036;stroke-width:1.25;"/><polygon fill="#000000" points="4186.8744,354.5053,4175.5166,350.9938,4175.6217,358.3404,4186.8744,354.5053" style="stroke:#000000;stroke-width:1.25;"/><text fill="#000000" font-family="sans-serif" font-size="16.25" lengthAdjust="spacing" textLength="35" x="4191.875" y="361.2439">uses</text><!--MD5=[d40dfcd657ab216cf98656aa636823d2]
link OrderShipsUI to ShipDistanceController--><path codeLine="149" d="M3580,69.125 C3580,116.8625 3580,212.775 3580,276.2125 " fill="none" id="OrderShipsUI-to-ShipDistanceController" style="stroke:#A80036;stroke-width:1.25;stroke-dasharray:7.0,7.0;"/><polygon fill="#A80036" points="3580,282.6375,3585,271.3875,3580,276.3875,3575,271.3875,3580,282.6375" style="stroke:#A80036;stroke-width:1.25;"/><!--MD5=[61dc1a5a2e279f2a02f331ea22280564]
link GetTopNShipsByMostKmFastShipsUI to ShipDistanceController--><path codeLine="165" d="M3814.6,69.125 C3772.625,117.25 3687.9625,214.325 3632.65,277.75 " fill="none" id="GetTopNShipsByMostKmFastShipsUI-to-ShipDistanceController" style="stroke:#A80036;stroke-width:1.25;stroke-dasharray:7.0,7.0;"/><polygon fill="#A80036" points="3628.3875,282.6375,3639.5474,277.4395,3632.493,277.9251,3632.0075,270.8707,3628.3875,282.6375" style="stroke:#A80036;stroke-width:1.25;"/><!--MD5=[e88ecf3c03db225c125258f283243c1b]
link ShipRouteUI to ShipRouteController--><path codeLine="208" d="M656.25,69.125 C656.25,114.8875 656.25,204.8875 656.25,268.15 " fill="none" id="ShipRouteUI-to-ShipRouteController" style="stroke:#A80036;stroke-width:1.25;stroke-dasharray:7.0,7.0;"/><polygon fill="#A80036" points="656.25,274.5625,661.25,263.3125,656.25,268.3125,651.25,263.3125,656.25,274.5625" style="stroke:#A80036;stroke-width:1.25;"/><!--MD5=[f428a699295f9184aaed8c34776de385]
link ShipRouteController to ShipRoute--><path codeLine="209" d="M931.8875,339.375 C962.2,339.375 992.75,339.375 1022.225,339.375 " fill="none" id="ShipRouteController-to-ShipRoute" style="stroke:#A80036;stroke-width:1.25;"/><polygon fill="#A80036" points="1028.5,339.375,1017.25,334.375,1022.25,339.375,1017.25,344.375,1028.5,339.375" style="stroke:#A80036;stroke-width:1.25;"/><polygon fill="#000000" points="965.9375,324.5947,954.6311,320.9211,954.6311,328.2684,965.9375,324.5947" style="stroke:#000000;stroke-width:1.25;"/><text fill="#000000" font-family="sans-serif" font-size="16.25" lengthAdjust="spacing" textLength="35" x="970.9375" y="331.2439">uses</text><!--MD5=[6486165f5c1eb80a733b438d60e13a20]
link ShipPair to ShipRouteController--><path codeLine="210" d="M283.925,339.375 C314.0125,339.375 346.9,339.375 380.2625,339.375 " fill="none" id="ShipPair-ShipRouteController" style="stroke:#A80036;stroke-width:1.25;"/><polygon fill="#000000" points="305.3125,324.5947,316.6189,328.2684,316.6189,320.9211,305.3125,324.5947" style="stroke:#000000;stroke-width:1.25;"/><text fill="#000000" font-family="sans-serif" font-size="16.25" lengthAdjust="spacing" textLength="35" x="322.8125" y="331.2439">uses</text><!--MD5=[7d801bd41bf49c8ba7e70b1633c8af18]
link ShipRouteController to ShipMovement--><path codeLine="211" d="M736.0375,404.0125 C817.9625,469.1125 944.1625,569.375 1022.0125,631.2375 " fill="none" id="ShipRouteController-ShipMovement" style="stroke:#A80036;stroke-width:1.25;"/><polygon fill="#000000" points="986.1434,586.6078,979.5765,576.6979,975.0058,582.4504,986.1434,586.6078" style="stroke:#000000;stroke-width:1.25;"/><text fill="#000000" font-family="sans-serif" font-size="16.25" lengthAdjust="spacing" textLength="35" x="992.5" y="589.3689">uses</text><!--MD5=[a6359eb7ec068d41b0b249c8a04fe6a1]
link ShipRoute to ShipMovement--><path codeLine="212" d="M1193.95,447.6125 C1167.85,508.2875 1136.2625,581.675 1115.0625,630.9125 " fill="none" id="ShipRoute-ShipMovement" style="stroke:#A80036;stroke-width:1.25;"/><polygon fill="#000000" points="1143.7793,588.4606,1151.6233,579.5275,1144.8744,576.623,1143.7793,588.4606" style="stroke:#000000;stroke-width:1.25;"/><text fill="#000000" font-family="sans-serif" font-size="16.25" lengthAdjust="spacing" textLength="35" x="1157.5" y="589.3689">uses</text><!--MD5=[e5961123a5ba45628a72ebec92146e46]
@startuml
skinparam classAttributeIconSize 0

class LoadShipUI{
}

class LoaderController{
+ loadShipsByMmsi(String fileName)
+ loadShipsByIMO(String fileName)
+ loadShipsByCallSign(String fileName)
}

class Ship{
+ Ship(int mmsi, String vesselName, String imo, String callSign, int vesselType, int length, int width, float draft, String cargo)
}

class AVL{
+ insert(E element, Node<E> node)
}

class ShipOrderedByIMO{
+ ShipOrderedByIMO(int mmsi, String vesselName, String imo, String callSign, int vesselType, int length, int width, float draft, String cargo)
}

class ShipOrderedByCallSign{
+ ShipOrderedByCallSign(int mmsi, String vesselName, String imo, String callSign, int vesselType, int length, int width, float draft, String cargo)
}


LoaderController <.up. LoadShipUI
LoaderController "1" - -> "1..*" Ship : uses
LoaderController "1" - -> "1" AVL : uses
LoaderController "1" - -> "1" ShipOrderedByIMO : uses
LoaderController "1" - -> "1" ShipOrderedByCallSign : uses




class FindShipUI{
}

class FindShipController{
+ findShipByMmsi(AVL avl, int mmsi)
+ findShipByIMO(AVL avl, String imo)
+ findShipByCallSign(AVL avl, String callSign)
}

class Ship{
+ findShip(AVL avl, int mmsi)
}

class AVL{
+ isEmpty()
+ preOrder()
}

class ShipOrderedByIMO{
+ findShipByIMO(AVL avl , String imo)
}

class ShipOrderedByCallSign{
+ findShipByCallSign(AVL avl , String callSign)
}


FindShipController <.up. FindShipUI
FindShipController "1" - -> "1..*" Ship : uses
FindShipController "1" - -> "1..*" ShipOrderedByIMO : uses
FindShipController "1" - -> "1" ShipOrderedByCallSign : uses
Ship "1" - -> "1" AVL : uses
ShipOrderedByIMO "1" - -> "1" AVL : uses
ShipOrderedByCallSign "1" - -> "1" AVL : uses



class PositionsUI{
}

class ShipPositionsController{
+ checkPositions(String dateOfCheck, String hourCheck, HashMap<Ship, List<ShipDynamicFields>> shipMap)
+checkPositionsBetweenDates(String dateOfCheck, String hourCheck, String DateOfCheck2, String hourCheck2, HashMap<Ship, List<ShipDynamicFields>> shipMap)
}


class ShipDynamicFields{
+checkLastPosition(int mmsi, int hour, int minutes, HashMap<Ship, List<ShipDynamicFields>> shipMap)
+new ShipDynamicFields(ship.getMmsi(), diaAno + hora, din.getLat(),din.getLon(), din.getSog(), din.getCog(), din.getHeading(), din.getTransceiverClass());
+ getLat()
+ getLon()
+ getSog()
+ getCog()
+ getHeading()
+ getTransceiverClass()
}

class AVL{
+ insert(E element)
}

 class Ship{
+ getMsi()
}
PositionsUI ..> ShipPositionsController
ShipPositionsController -> ShipDynamicFields :> uses
ShipPositionsController -left- AVL :> uses
ShipPositionsController -right- Ship :> uses


class SummaryUI {
}

class ShipDistanceController {
+ shipDistCalc(int mmsi, HashMap<Ship, List<ShipDynamicFields>> shipMap)
}

class ShipDistance {
+setMmsi (mmsi)
+setTotalMovements(ShipDistance.getTotalMovements(mmsi, shipMap))
+setTotalTime(ShipDistance.getTotalTime(mmsi, shipMap))
+setMaxCog(ShipDistance.maxCog(mmsi, shipMap))
+setMaxSog(ShipDistance.maxSog(mmsi, shipMap))
+setStartTime(ShipDistance.minTime(mmsi, shipMap).getDateTime())
+setEndTime(ShipDistance.maxTime(mmsi, shipMap).getDateTime())
+setDepLatitude(ShipDistance.minTime(mmsi, shipMap).getLat())
+setDepLong(ShipDistance.minTime(mmsi, shipMap).getLon())
+setArrLatitude(ShipDistance.maxTime(mmsi, shipMap).getLat())
+setArrLong(ShipDistance.maxTime(mmsi, shipMap).getLon())
+setMeanCog(ShipDistance.meanCog(mmsi, shipMap))
+setMeanSog(ShipDistance.meanSog(mmsi, shipMap))
+setDeltDis(ShipDistance.distDelta(mmsi, shipMap))
+setTravDis(ShipDistance.totalDistance(mmsi, shipMap))
+setVesselName(ship1.getVesselName()
}

SummaryUI ..> ShipDistanceController
ShipDistanceController -down- ShipDistance :> uses


class OrderShipsUI {
}

class ShipDistanceController {
+ orderShipsByTdOrNumbOfMov(HashMap<Ship, List<ShipDynamicFields>> shipMap)
}

class ShipDistance {
+ orderShips(HashMap<Ship,List<ShipDynamicFields>> shipMap)
}

OrderShipsUI ..> ShipDistanceController
ShipDistanceController -> ShipDistance :> uses


class GetTopNShipsByMostKmFastShipsUI {
}

class ShipDistanceController {
+ shipsOrderByMostKmFastShips (String dateOfCheck, String hourCheck,String dateOfCheck2, String hourCheck2, int numberOfResults, HashMap<Ship,List<ShipDynamicFields>> shipMap)
}

class ShipDistance {
+ mostKmFastShips(String dateOfCheck, String hourCheck,String dateOfCheck2, String hourCheck2, int numberOfResults, HashMap<Ship,List<ShipDynamicFields>> shipMap)
+ compare(ShipDistance p1, ShipDistance p2)
}

GetTopNShipsByMostKmFastShipsUI ..> ShipDistanceController
ShipDistanceController -> ShipDistance :> uses


class ShipRouteUI {
}

class ShipRouteController {
+ loadCsvFile(final String filePath)
+ calculateShipRoute(List<ShipMovement> shipMovementList)
+ filterShipRoutesByTravelDistance(List<ShipRoute> shipRouteList, int minTravelDistance)
+ filterShipRoutesByPairs(List<ShipRoute> shipRouteList, int minDistanceDifference)
}

class ShipRoute {
+ calculateShipRouteDetails(List<ShipMovement> shipMovementList)
+ getTravelDistance()
+ distance(double lat1, double lat2, double lon1, double lon2)
+ getMmsi()
+ getDepartureLat()
+ getDepartureLong()
+ getArrivalLat()
+ getArrivalLong()
+ getTravelDistance()
}

class ShipPair {
+ setMmsi1(getMmsi())
+ setMmsi2(getMmsi())
+ setTravelDistance1(getTravelDistance())
+ setTravelDistance2(getTravelDistance())
+ setArrivalDistance(arrivalDistance)
+ setDepartureDistance(departureDistance)
+ order(List<ShipPair> shipPairList)
+ compare(Object o1, Object o2)
}

class ShipMovement {
+ getBaseDateTime()
+ getLat()
+ getLon()
}

ShipRouteUI ..> ShipRouteController
ShipRouteController -> ShipRoute :> uses
ShipRouteController -left- ShipPair :> uses
ShipRouteController -down-  ShipMovement :> uses
ShipRoute -down-  ShipMovement :> uses

@enduml

PlantUML version 1.2021.7(Sun May 23 13:40:07 BST 2021)
(GPL source distribution)
Java Runtime: OpenJDK Runtime Environment
JVM: OpenJDK 64-Bit Server VM
Default Encoding: Cp1252
Language: pt
Country: PT
--></g></svg>