<?xml version="1.0" encoding="UTF-8" standalone="no"?><svg xmlns="http://www.w3.org/2000/svg" xmlns:xlink="http://www.w3.org/1999/xlink" contentScriptType="application/ecmascript" contentStyleType="text/css" height="1433.75px" preserveAspectRatio="none" style="width:1570px;height:1433px;background:#FFFFFF;" version="1.1" viewBox="0 0 1570 1433" width="1570px" zoomAndPan="magnify"><defs><filter height="300%" id="f1m5bo6c7lfz10" width="300%" x="-1" y="-1"><feGaussianBlur result="blurOut" stdDeviation="2.5"/><feColorMatrix in="blurOut" result="blurOut2" type="matrix" values="0 0 0 0 0 0 0 0 0 0 0 0 0 0 0 0 0 0 .4 0"/><feOffset dx="5.0" dy="5.0" in="blurOut2" result="blurOut3"/><feBlend in="SourceGraphic" in2="blurOut3" mode="normal"/></filter></defs><g><!--MD5=[ddaf6f62b0bc30921877ec9fb9463c9f]
class TrafficManager--><rect codeLine="4" fill="#FEFECE" filter="url(#f1m5bo6c7lfz10)" height="50" id="TrafficManager" style="stroke:#A80036;stroke-width:1.875;" width="141.25" x="8.75" y="848"/><ellipse cx="27.5" cy="868" fill="#ADD1B2" rx="13.75" ry="13.75" style="stroke:#A80036;stroke-width:1.25;"/><path d="M30,863.625 Q30.2539,863 30.5469,862.6875 Q30.8398,862.375 31.1719,862.375 Q31.7578,862.375 32.1289,862.7266 Q32.5,863.0781 32.5,863.8984 L32.5,865.8516 Q32.5,866.6719 32.1484,867.0234 Q31.7969,867.375 31.25,867.375 Q30.7617,867.375 30.4492,867.1602 Q30.1367,866.9453 30,866.3789 Q29.9414,865.9883 29.7266,865.7734 Q29.3359,865.3633 28.6328,865.1289 Q27.9297,864.875 27.2266,864.875 Q26.3477,864.875 25.6055,865.2266 Q24.8828,865.5781 24.3164,866.3594 Q23.75,867.1406 23.75,868.2148 L23.75,869.3672 Q23.75,870.6563 24.8047,871.5156 Q25.8594,872.375 27.7344,872.375 Q28.8477,872.375 29.6289,872.1211 Q30.0781,871.9844 30.5859,871.5352 Q30.918,871.2813 31.0938,871.2031 Q31.2695,871.125 31.4844,871.125 Q31.8945,871.125 32.1875,871.457 Q32.5,871.7695 32.5,872.2188 Q32.5,872.6484 32.0703,873.1563 Q31.4453,873.8984 30.4492,874.3086 Q29.1406,874.875 27.5391,874.875 Q25.6641,874.875 24.1602,874.1328 Q22.9492,873.5469 22.0898,872.2773 Q21.25,871.0078 21.25,869.5039 L21.25,868.1367 Q21.25,866.5742 21.9922,865.207 Q22.7539,863.8398 24.0625,863.1172 Q25.3906,862.375 26.875,862.375 Q27.7734,862.375 28.5547,862.6875 Q29.3359,863 30,863.625 Z " fill="#000000"/><text fill="#000000" font-family="sans-serif" font-size="15" lengthAdjust="spacing" textLength="101.25" x="45" y="874.1377">TrafficManager</text><line style="stroke:#A80036;stroke-width:1.875;" x1="10" x2="148.75" y1="888" y2="888"/><!--MD5=[0dc7f2ddb409b58bcf52b12238c25399]
class Ship--><rect codeLine="7" fill="#FEFECE" filter="url(#f1m5bo6c7lfz10)" height="240.2441" id="Ship" style="stroke:#A80036;stroke-width:1.875;" width="203.75" x="531.25" y="753"/><ellipse cx="612.1875" cy="773" fill="#ADD1B2" rx="13.75" ry="13.75" style="stroke:#A80036;stroke-width:1.25;"/><path d="M614.6875,768.625 Q614.9414,768 615.2344,767.6875 Q615.5273,767.375 615.8594,767.375 Q616.4453,767.375 616.8164,767.7266 Q617.1875,768.0781 617.1875,768.8984 L617.1875,770.8516 Q617.1875,771.6719 616.8359,772.0234 Q616.4844,772.375 615.9375,772.375 Q615.4492,772.375 615.1367,772.1602 Q614.8242,771.9453 614.6875,771.3789 Q614.6289,770.9883 614.4141,770.7734 Q614.0234,770.3633 613.3203,770.1289 Q612.6172,769.875 611.9141,769.875 Q611.0352,769.875 610.293,770.2266 Q609.5703,770.5781 609.0039,771.3594 Q608.4375,772.1406 608.4375,773.2148 L608.4375,774.3672 Q608.4375,775.6563 609.4922,776.5156 Q610.5469,777.375 612.4219,777.375 Q613.5352,777.375 614.3164,777.1211 Q614.7656,776.9844 615.2734,776.5352 Q615.6055,776.2813 615.7813,776.2031 Q615.957,776.125 616.1719,776.125 Q616.582,776.125 616.875,776.457 Q617.1875,776.7695 617.1875,777.2188 Q617.1875,777.6484 616.7578,778.1563 Q616.1328,778.8984 615.1367,779.3086 Q613.8281,779.875 612.2266,779.875 Q610.3516,779.875 608.8477,779.1328 Q607.6367,778.5469 606.7773,777.2773 Q605.9375,776.0078 605.9375,774.5039 L605.9375,773.1367 Q605.9375,771.5742 606.6797,770.207 Q607.4414,768.8398 608.75,768.1172 Q610.0781,767.375 611.5625,767.375 Q612.4609,767.375 613.2422,767.6875 Q614.0234,768 614.6875,768.625 Z " fill="#000000"/><text fill="#000000" font-family="sans-serif" font-size="15" lengthAdjust="spacing" textLength="31.25" x="637.8125" y="779.1377">Ship</text><line style="stroke:#A80036;stroke-width:1.875;" x1="532.5" x2="733.75" y1="793" y2="793"/><rect fill="none" height="7.5" style="stroke:#C82930;stroke-width:1.25;" width="7.5" x="541.25" y="803"/><text fill="#000000" font-family="sans-serif" font-size="13.75" lengthAdjust="spacing" textLength="30" x="556.25" y="812.2737">mmsi</text><rect fill="none" height="7.5" style="stroke:#C82930;stroke-width:1.25;" width="7.5" x="541.25" y="820.2949"/><text fill="#000000" font-family="sans-serif" font-size="13.75" lengthAdjust="spacing" textLength="58.75" x="556.25" y="829.5686">shipName</text><rect fill="none" height="7.5" style="stroke:#C82930;stroke-width:1.25;" width="7.5" x="541.25" y="837.5898"/><text fill="#000000" font-family="sans-serif" font-size="13.75" lengthAdjust="spacing" textLength="30" x="556.25" y="846.8635">imoId</text><rect fill="none" height="7.5" style="stroke:#C82930;stroke-width:1.25;" width="7.5" x="541.25" y="854.8848"/><text fill="#000000" font-family="sans-serif" font-size="13.75" lengthAdjust="spacing" textLength="171.25" x="556.25" y="864.1584">numberOfEnergyGenerators</text><rect fill="none" height="7.5" style="stroke:#C82930;stroke-width:1.25;" width="7.5" x="541.25" y="872.1797"/><text fill="#000000" font-family="sans-serif" font-size="13.75" lengthAdjust="spacing" textLength="146.25" x="556.25" y="881.4534">generatorsPowerOutput</text><rect fill="none" height="7.5" style="stroke:#C82930;stroke-width:1.25;" width="7.5" x="541.25" y="889.4746"/><text fill="#000000" font-family="sans-serif" font-size="13.75" lengthAdjust="spacing" textLength="46.25" x="556.25" y="898.7483">callSign</text><rect fill="none" height="7.5" style="stroke:#C82930;stroke-width:1.25;" width="7.5" x="541.25" y="906.7695"/><text fill="#000000" font-family="sans-serif" font-size="13.75" lengthAdjust="spacing" textLength="70" x="556.25" y="916.0432">vesselType</text><rect fill="none" height="7.5" style="stroke:#C82930;stroke-width:1.25;" width="7.5" x="541.25" y="924.0645"/><text fill="#000000" font-family="sans-serif" font-size="13.75" lengthAdjust="spacing" textLength="36.25" x="556.25" y="933.3381">lenght</text><rect fill="none" height="7.5" style="stroke:#C82930;stroke-width:1.25;" width="7.5" x="541.25" y="941.3594"/><text fill="#000000" font-family="sans-serif" font-size="13.75" lengthAdjust="spacing" textLength="33.75" x="556.25" y="950.6331">width</text><rect fill="none" height="7.5" style="stroke:#C82930;stroke-width:1.25;" width="7.5" x="541.25" y="958.6543"/><text fill="#000000" font-family="sans-serif" font-size="13.75" lengthAdjust="spacing" textLength="51.25" x="556.25" y="967.928">capacity</text><rect fill="none" height="7.5" style="stroke:#C82930;stroke-width:1.25;" width="7.5" x="541.25" y="975.9492"/><text fill="#000000" font-family="sans-serif" font-size="13.75" lengthAdjust="spacing" textLength="28.75" x="556.25" y="985.2229">draft</text><!--MD5=[a8ffbd38daa8a369450c487507013c0d]
class ShipDynamicFields--><rect codeLine="21" fill="#FEFECE" filter="url(#f1m5bo6c7lfz10)" height="188.3594" id="ShipDynamicFields" style="stroke:#A80036;stroke-width:1.875;" width="173.75" x="352.5" y="1159.25"/><ellipse cx="371.25" cy="1179.25" fill="#ADD1B2" rx="13.75" ry="13.75" style="stroke:#A80036;stroke-width:1.25;"/><path d="M373.75,1174.875 Q374.0039,1174.25 374.2969,1173.9375 Q374.5898,1173.625 374.9219,1173.625 Q375.5078,1173.625 375.8789,1173.9766 Q376.25,1174.3281 376.25,1175.1484 L376.25,1177.1016 Q376.25,1177.9219 375.8984,1178.2734 Q375.5469,1178.625 375,1178.625 Q374.5117,1178.625 374.1992,1178.4102 Q373.8867,1178.1953 373.75,1177.6289 Q373.6914,1177.2383 373.4766,1177.0234 Q373.0859,1176.6133 372.3828,1176.3789 Q371.6797,1176.125 370.9766,1176.125 Q370.0977,1176.125 369.3555,1176.4766 Q368.6328,1176.8281 368.0664,1177.6094 Q367.5,1178.3906 367.5,1179.4648 L367.5,1180.6172 Q367.5,1181.9063 368.5547,1182.7656 Q369.6094,1183.625 371.4844,1183.625 Q372.5977,1183.625 373.3789,1183.3711 Q373.8281,1183.2344 374.3359,1182.7852 Q374.668,1182.5313 374.8438,1182.4531 Q375.0195,1182.375 375.2344,1182.375 Q375.6445,1182.375 375.9375,1182.707 Q376.25,1183.0195 376.25,1183.4688 Q376.25,1183.8984 375.8203,1184.4063 Q375.1953,1185.1484 374.1992,1185.5586 Q372.8906,1186.125 371.2891,1186.125 Q369.4141,1186.125 367.9102,1185.3828 Q366.6992,1184.7969 365.8398,1183.5273 Q365,1182.2578 365,1180.7539 L365,1179.3867 Q365,1177.8242 365.7422,1176.457 Q366.5039,1175.0898 367.8125,1174.3672 Q369.1406,1173.625 370.625,1173.625 Q371.5234,1173.625 372.3047,1173.9375 Q373.0859,1174.25 373.75,1174.875 Z " fill="#000000"/><text fill="#000000" font-family="sans-serif" font-size="15" lengthAdjust="spacing" textLength="133.75" x="388.75" y="1185.3877">ShipDynamicFields</text><line style="stroke:#A80036;stroke-width:1.875;" x1="353.75" x2="525" y1="1199.25" y2="1199.25"/><rect fill="none" height="7.5" style="stroke:#C82930;stroke-width:1.25;" width="7.5" x="362.5" y="1209.25"/><text fill="#000000" font-family="sans-serif" font-size="13.75" lengthAdjust="spacing" textLength="53.75" x="377.5" y="1218.5237">dateTime</text><rect fill="none" height="7.5" style="stroke:#C82930;stroke-width:1.25;" width="7.5" x="362.5" y="1226.5449"/><text fill="#000000" font-family="sans-serif" font-size="13.75" lengthAdjust="spacing" textLength="25" x="377.5" y="1235.8186">long</text><rect fill="none" height="7.5" style="stroke:#C82930;stroke-width:1.25;" width="7.5" x="362.5" y="1243.8398"/><text fill="#000000" font-family="sans-serif" font-size="13.75" lengthAdjust="spacing" textLength="13.75" x="377.5" y="1253.1135">lat</text><rect fill="none" height="7.5" style="stroke:#C82930;stroke-width:1.25;" width="7.5" x="362.5" y="1261.1348"/><text fill="#000000" font-family="sans-serif" font-size="13.75" lengthAdjust="spacing" textLength="22.5" x="377.5" y="1270.4084">sog</text><rect fill="none" height="7.5" style="stroke:#C82930;stroke-width:1.25;" width="7.5" x="362.5" y="1278.4297"/><text fill="#000000" font-family="sans-serif" font-size="13.75" lengthAdjust="spacing" textLength="22.5" x="377.5" y="1287.7034">cog</text><rect fill="none" height="7.5" style="stroke:#C82930;stroke-width:1.25;" width="7.5" x="362.5" y="1295.7246"/><text fill="#000000" font-family="sans-serif" font-size="13.75" lengthAdjust="spacing" textLength="47.5" x="377.5" y="1304.9983">heading</text><rect fill="none" height="7.5" style="stroke:#C82930;stroke-width:1.25;" width="7.5" x="362.5" y="1313.0195"/><text fill="#000000" font-family="sans-serif" font-size="13.75" lengthAdjust="spacing" textLength="46.25" x="377.5" y="1322.2932">position</text><rect fill="none" height="7.5" style="stroke:#C82930;stroke-width:1.25;" width="7.5" x="362.5" y="1330.3145"/><text fill="#000000" font-family="sans-serif" font-size="13.75" lengthAdjust="spacing" textLength="102.5" x="377.5" y="1339.5881">transceiverClass</text><!--MD5=[a0bfe97ac0a38e6e74cc1c7c7b744b71]
class Port--><rect codeLine="32" fill="#FEFECE" filter="url(#f1m5bo6c7lfz10)" height="153.7695" id="Port" style="stroke:#A80036;stroke-width:1.875;" width="107.5" x="1445.625" y="796.125"/><ellipse cx="1482.375" cy="816.125" fill="#ADD1B2" rx="13.75" ry="13.75" style="stroke:#A80036;stroke-width:1.25;"/><path d="M1484.875,811.75 Q1485.1289,811.125 1485.4219,810.8125 Q1485.7148,810.5 1486.0469,810.5 Q1486.6328,810.5 1487.0039,810.8516 Q1487.375,811.2031 1487.375,812.0234 L1487.375,813.9766 Q1487.375,814.7969 1487.0234,815.1484 Q1486.6719,815.5 1486.125,815.5 Q1485.6367,815.5 1485.3242,815.2852 Q1485.0117,815.0703 1484.875,814.5039 Q1484.8164,814.1133 1484.6016,813.8984 Q1484.2109,813.4883 1483.5078,813.2539 Q1482.8047,813 1482.1016,813 Q1481.2227,813 1480.4805,813.3516 Q1479.7578,813.7031 1479.1914,814.4844 Q1478.625,815.2656 1478.625,816.3398 L1478.625,817.4922 Q1478.625,818.7813 1479.6797,819.6406 Q1480.7344,820.5 1482.6094,820.5 Q1483.7227,820.5 1484.5039,820.2461 Q1484.9531,820.1094 1485.4609,819.6602 Q1485.793,819.4063 1485.9688,819.3281 Q1486.1445,819.25 1486.3594,819.25 Q1486.7695,819.25 1487.0625,819.582 Q1487.375,819.8945 1487.375,820.3438 Q1487.375,820.7734 1486.9453,821.2813 Q1486.3203,822.0234 1485.3242,822.4336 Q1484.0156,823 1482.4141,823 Q1480.5391,823 1479.0352,822.2578 Q1477.8242,821.6719 1476.9648,820.4023 Q1476.125,819.1328 1476.125,817.6289 L1476.125,816.2617 Q1476.125,814.6992 1476.8672,813.332 Q1477.6289,811.9648 1478.9375,811.2422 Q1480.2656,810.5 1481.75,810.5 Q1482.6484,810.5 1483.4297,810.8125 Q1484.2109,811.125 1484.875,811.75 Z " fill="#000000"/><text fill="#000000" font-family="sans-serif" font-size="15" lengthAdjust="spacing" textLength="27.5" x="1503.875" y="822.2627">Port</text><line style="stroke:#A80036;stroke-width:1.875;" x1="1446.875" x2="1551.875" y1="836.125" y2="836.125"/><rect fill="none" height="7.5" style="stroke:#C82930;stroke-width:1.25;" width="7.5" x="1455.625" y="846.125"/><text fill="#000000" font-family="sans-serif" font-size="13.75" lengthAdjust="spacing" textLength="75" x="1470.625" y="855.3987">identification</text><rect fill="none" height="7.5" style="stroke:#C82930;stroke-width:1.25;" width="7.5" x="1455.625" y="863.4199"/><text fill="#000000" font-family="sans-serif" font-size="13.75" lengthAdjust="spacing" textLength="32.5" x="1470.625" y="872.6936">name</text><rect fill="none" height="7.5" style="stroke:#C82930;stroke-width:1.25;" width="7.5" x="1455.625" y="880.7148"/><text fill="#000000" font-family="sans-serif" font-size="13.75" lengthAdjust="spacing" textLength="55" x="1470.625" y="889.9885">continent</text><rect fill="none" height="7.5" style="stroke:#C82930;stroke-width:1.25;" width="7.5" x="1455.625" y="898.0098"/><text fill="#000000" font-family="sans-serif" font-size="13.75" lengthAdjust="spacing" textLength="46.25" x="1470.625" y="907.2834">country</text><rect fill="none" height="7.5" style="stroke:#C82930;stroke-width:1.25;" width="7.5" x="1455.625" y="915.3047"/><text fill="#000000" font-family="sans-serif" font-size="13.75" lengthAdjust="spacing" textLength="13.75" x="1470.625" y="924.5784">lat</text><rect fill="none" height="7.5" style="stroke:#C82930;stroke-width:1.25;" width="7.5" x="1455.625" y="932.5996"/><text fill="#000000" font-family="sans-serif" font-size="13.75" lengthAdjust="spacing" textLength="25" x="1470.625" y="941.8733">long</text><!--MD5=[c5149b4909ffd2688ff51a939867f774]
class Warehouse--><rect codeLine="41" fill="#FEFECE" filter="url(#f1m5bo6c7lfz10)" height="153.7695" id="Warehouse" style="stroke:#A80036;stroke-width:1.875;" width="120" x="373.125" y="78"/><ellipse cx="391.875" cy="98" fill="#ADD1B2" rx="13.75" ry="13.75" style="stroke:#A80036;stroke-width:1.25;"/><path d="M394.375,93.625 Q394.6289,93 394.9219,92.6875 Q395.2148,92.375 395.5469,92.375 Q396.1328,92.375 396.5039,92.7266 Q396.875,93.0781 396.875,93.8984 L396.875,95.8516 Q396.875,96.6719 396.5234,97.0234 Q396.1719,97.375 395.625,97.375 Q395.1367,97.375 394.8242,97.1602 Q394.5117,96.9453 394.375,96.3789 Q394.3164,95.9883 394.1016,95.7734 Q393.7109,95.3633 393.0078,95.1289 Q392.3047,94.875 391.6016,94.875 Q390.7227,94.875 389.9805,95.2266 Q389.2578,95.5781 388.6914,96.3594 Q388.125,97.1406 388.125,98.2148 L388.125,99.3672 Q388.125,100.6563 389.1797,101.5156 Q390.2344,102.375 392.1094,102.375 Q393.2227,102.375 394.0039,102.1211 Q394.4531,101.9844 394.9609,101.5352 Q395.293,101.2813 395.4688,101.2031 Q395.6445,101.125 395.8594,101.125 Q396.2695,101.125 396.5625,101.457 Q396.875,101.7695 396.875,102.2188 Q396.875,102.6484 396.4453,103.1563 Q395.8203,103.8984 394.8242,104.3086 Q393.5156,104.875 391.9141,104.875 Q390.0391,104.875 388.5352,104.1328 Q387.3242,103.5469 386.4648,102.2773 Q385.625,101.0078 385.625,99.5039 L385.625,98.1367 Q385.625,96.5742 386.3672,95.207 Q387.1289,93.8398 388.4375,93.1172 Q389.7656,92.375 391.25,92.375 Q392.1484,92.375 392.9297,92.6875 Q393.7109,93 394.375,93.625 Z " fill="#000000"/><text fill="#000000" font-family="sans-serif" font-size="15" lengthAdjust="spacing" textLength="80" x="409.375" y="104.1377">Warehouse</text><line style="stroke:#A80036;stroke-width:1.875;" x1="374.375" x2="491.875" y1="118" y2="118"/><rect fill="none" height="7.5" style="stroke:#C82930;stroke-width:1.25;" width="7.5" x="383.125" y="128"/><text fill="#000000" font-family="sans-serif" font-size="13.75" lengthAdjust="spacing" textLength="75" x="398.125" y="137.2737">identification</text><rect fill="none" height="7.5" style="stroke:#C82930;stroke-width:1.25;" width="7.5" x="383.125" y="145.2949"/><text fill="#000000" font-family="sans-serif" font-size="13.75" lengthAdjust="spacing" textLength="32.5" x="398.125" y="154.5686">name</text><rect fill="none" height="7.5" style="stroke:#C82930;stroke-width:1.25;" width="7.5" x="383.125" y="162.5898"/><text fill="#000000" font-family="sans-serif" font-size="13.75" lengthAdjust="spacing" textLength="55" x="398.125" y="171.8635">continent</text><rect fill="none" height="7.5" style="stroke:#C82930;stroke-width:1.25;" width="7.5" x="383.125" y="179.8848"/><text fill="#000000" font-family="sans-serif" font-size="13.75" lengthAdjust="spacing" textLength="46.25" x="398.125" y="189.1584">country</text><rect fill="none" height="7.5" style="stroke:#C82930;stroke-width:1.25;" width="7.5" x="383.125" y="197.1797"/><text fill="#000000" font-family="sans-serif" font-size="13.75" lengthAdjust="spacing" textLength="13.75" x="398.125" y="206.4534">lat</text><rect fill="none" height="7.5" style="stroke:#C82930;stroke-width:1.25;" width="7.5" x="383.125" y="214.4746"/><text fill="#000000" font-family="sans-serif" font-size="13.75" lengthAdjust="spacing" textLength="25" x="398.125" y="223.7483">long</text><!--MD5=[a3093aa9f96b7df9aab31d8715601ff6]
class Containers--><rect codeLine="50" fill="#FEFECE" filter="url(#f1m5bo6c7lfz10)" height="222.9492" id="Containers" style="stroke:#A80036;stroke-width:1.875;" width="116.25" x="1012.5" y="381.125"/><ellipse cx="1031.25" cy="401.125" fill="#ADD1B2" rx="13.75" ry="13.75" style="stroke:#A80036;stroke-width:1.25;"/><path d="M1033.75,396.75 Q1034.0039,396.125 1034.2969,395.8125 Q1034.5898,395.5 1034.9219,395.5 Q1035.5078,395.5 1035.8789,395.8516 Q1036.25,396.2031 1036.25,397.0234 L1036.25,398.9766 Q1036.25,399.7969 1035.8984,400.1484 Q1035.5469,400.5 1035,400.5 Q1034.5117,400.5 1034.1992,400.2852 Q1033.8867,400.0703 1033.75,399.5039 Q1033.6914,399.1133 1033.4766,398.8984 Q1033.0859,398.4883 1032.3828,398.2539 Q1031.6797,398 1030.9766,398 Q1030.0977,398 1029.3555,398.3516 Q1028.6328,398.7031 1028.0664,399.4844 Q1027.5,400.2656 1027.5,401.3398 L1027.5,402.4922 Q1027.5,403.7813 1028.5547,404.6406 Q1029.6094,405.5 1031.4844,405.5 Q1032.5977,405.5 1033.3789,405.2461 Q1033.8281,405.1094 1034.3359,404.6602 Q1034.668,404.4063 1034.8438,404.3281 Q1035.0195,404.25 1035.2344,404.25 Q1035.6445,404.25 1035.9375,404.582 Q1036.25,404.8945 1036.25,405.3438 Q1036.25,405.7734 1035.8203,406.2813 Q1035.1953,407.0234 1034.1992,407.4336 Q1032.8906,408 1031.2891,408 Q1029.4141,408 1027.9102,407.2578 Q1026.6992,406.6719 1025.8398,405.4023 Q1025,404.1328 1025,402.6289 L1025,401.2617 Q1025,399.6992 1025.7422,398.332 Q1026.5039,396.9648 1027.8125,396.2422 Q1029.1406,395.5 1030.625,395.5 Q1031.5234,395.5 1032.3047,395.8125 Q1033.0859,396.125 1033.75,396.75 Z " fill="#000000"/><text fill="#000000" font-family="sans-serif" font-size="15" lengthAdjust="spacing" textLength="76.25" x="1048.75" y="407.2627">Containers</text><line style="stroke:#A80036;stroke-width:1.875;" x1="1013.75" x2="1127.5" y1="421.125" y2="421.125"/><rect fill="none" height="7.5" style="stroke:#C82930;stroke-width:1.25;" width="7.5" x="1022.5" y="431.125"/><text fill="#000000" font-family="sans-serif" font-size="13.75" lengthAdjust="spacing" textLength="75" x="1037.5" y="440.3987">identification</text><rect fill="none" height="7.5" style="stroke:#C82930;stroke-width:1.25;" width="7.5" x="1022.5" y="448.4199"/><text fill="#000000" font-family="sans-serif" font-size="13.75" lengthAdjust="spacing" textLength="47.5" x="1037.5" y="457.6936">payload</text><rect fill="none" height="7.5" style="stroke:#C82930;stroke-width:1.25;" width="7.5" x="1022.5" y="465.7148"/><text fill="#000000" font-family="sans-serif" font-size="13.75" lengthAdjust="spacing" textLength="23.75" x="1037.5" y="474.9885">tare</text><rect fill="none" height="7.5" style="stroke:#C82930;stroke-width:1.25;" width="7.5" x="1022.5" y="483.0098"/><text fill="#000000" font-family="sans-serif" font-size="13.75" lengthAdjust="spacing" textLength="35" x="1037.5" y="492.2834">gross</text><rect fill="none" height="7.5" style="stroke:#C82930;stroke-width:1.25;" width="7.5" x="1022.5" y="500.3047"/><text fill="#000000" font-family="sans-serif" font-size="13.75" lengthAdjust="spacing" textLength="48.75" x="1037.5" y="509.5784">isoCode</text><rect fill="none" height="7.5" style="stroke:#C82930;stroke-width:1.25;" width="7.5" x="1022.5" y="517.5996"/><text fill="#000000" font-family="sans-serif" font-size="13.75" lengthAdjust="spacing" textLength="36.25" x="1037.5" y="526.8733">lenght</text><rect fill="none" height="7.5" style="stroke:#C82930;stroke-width:1.25;" width="7.5" x="1022.5" y="534.8945"/><text fill="#000000" font-family="sans-serif" font-size="13.75" lengthAdjust="spacing" textLength="33.75" x="1037.5" y="544.1682">width</text><rect fill="none" height="7.5" style="stroke:#C82930;stroke-width:1.25;" width="7.5" x="1022.5" y="552.1895"/><text fill="#000000" font-family="sans-serif" font-size="13.75" lengthAdjust="spacing" textLength="36.25" x="1037.5" y="561.4631">height</text><rect fill="none" height="7.5" style="stroke:#C82930;stroke-width:1.25;" width="7.5" x="1022.5" y="569.4844"/><text fill="#000000" font-family="sans-serif" font-size="13.75" lengthAdjust="spacing" textLength="72.5" x="1037.5" y="578.7581">temperature</text><rect fill="none" height="7.5" style="stroke:#C82930;stroke-width:1.25;" width="7.5" x="1022.5" y="586.7793"/><text fill="#000000" font-family="sans-serif" font-size="13.75" lengthAdjust="spacing" textLength="71.25" x="1037.5" y="596.053">coordinates</text><!--MD5=[76562047389981627aea27c31a97aff5]
class CargoManifest--><rect codeLine="64" fill="#FEFECE" filter="url(#f1m5bo6c7lfz10)" height="101.8848" id="CargoManifest" style="stroke:#A80036;stroke-width:1.875;" width="167.5" x="725.625" y="441.125"/><ellipse cx="756.75" cy="461.125" fill="#ADD1B2" rx="13.75" ry="13.75" style="stroke:#A80036;stroke-width:1.25;"/><path d="M759.25,456.75 Q759.5039,456.125 759.7969,455.8125 Q760.0898,455.5 760.4219,455.5 Q761.0078,455.5 761.3789,455.8516 Q761.75,456.2031 761.75,457.0234 L761.75,458.9766 Q761.75,459.7969 761.3984,460.1484 Q761.0469,460.5 760.5,460.5 Q760.0117,460.5 759.6992,460.2852 Q759.3867,460.0703 759.25,459.5039 Q759.1914,459.1133 758.9766,458.8984 Q758.5859,458.4883 757.8828,458.2539 Q757.1797,458 756.4766,458 Q755.5977,458 754.8555,458.3516 Q754.1328,458.7031 753.5664,459.4844 Q753,460.2656 753,461.3398 L753,462.4922 Q753,463.7813 754.0547,464.6406 Q755.1094,465.5 756.9844,465.5 Q758.0977,465.5 758.8789,465.2461 Q759.3281,465.1094 759.8359,464.6602 Q760.168,464.4063 760.3438,464.3281 Q760.5195,464.25 760.7344,464.25 Q761.1445,464.25 761.4375,464.582 Q761.75,464.8945 761.75,465.3438 Q761.75,465.7734 761.3203,466.2813 Q760.6953,467.0234 759.6992,467.4336 Q758.3906,468 756.7891,468 Q754.9141,468 753.4102,467.2578 Q752.1992,466.6719 751.3398,465.4023 Q750.5,464.1328 750.5,462.6289 L750.5,461.2617 Q750.5,459.6992 751.2422,458.332 Q752.0039,456.9648 753.3125,456.2422 Q754.6406,455.5 756.125,455.5 Q757.0234,455.5 757.8047,455.8125 Q758.5859,456.125 759.25,456.75 Z " fill="#000000"/><text fill="#000000" font-family="sans-serif" font-size="15" lengthAdjust="spacing" textLength="100" x="777" y="467.2627">CargoManifest</text><line style="stroke:#A80036;stroke-width:1.875;" x1="726.875" x2="891.875" y1="481.125" y2="481.125"/><rect fill="none" height="7.5" style="stroke:#C82930;stroke-width:1.25;" width="7.5" x="735.625" y="491.125"/><text fill="#000000" font-family="sans-serif" font-size="13.75" lengthAdjust="spacing" textLength="66.25" x="750.625" y="500.3987">containerId</text><rect fill="none" height="7.5" style="stroke:#C82930;stroke-width:1.25;" width="7.5" x="735.625" y="508.4199"/><text fill="#000000" font-family="sans-serif" font-size="13.75" lengthAdjust="spacing" textLength="78.75" x="750.625" y="517.6936">containerPos</text><rect fill="none" height="7.5" style="stroke:#C82930;stroke-width:1.25;" width="7.5" x="735.625" y="525.7148"/><text fill="#000000" font-family="sans-serif" font-size="13.75" lengthAdjust="spacing" textLength="135" x="750.625" y="534.9885">containerGrossWeight</text><!--MD5=[f2ba7f6ab60af8dd0d3e354f91729b14]
class Truck--><rect codeLine="70" fill="#FEFECE" filter="url(#f1m5bo6c7lfz10)" height="50" id="Truck" style="stroke:#A80036;stroke-width:1.875;" width="77.5" x="1259.375" y="129.875"/><ellipse cx="1278.125" cy="149.875" fill="#ADD1B2" rx="13.75" ry="13.75" style="stroke:#A80036;stroke-width:1.25;"/><path d="M1280.625,145.5 Q1280.8789,144.875 1281.1719,144.5625 Q1281.4648,144.25 1281.7969,144.25 Q1282.3828,144.25 1282.7539,144.6016 Q1283.125,144.9531 1283.125,145.7734 L1283.125,147.7266 Q1283.125,148.5469 1282.7734,148.8984 Q1282.4219,149.25 1281.875,149.25 Q1281.3867,149.25 1281.0742,149.0352 Q1280.7617,148.8203 1280.625,148.2539 Q1280.5664,147.8633 1280.3516,147.6484 Q1279.9609,147.2383 1279.2578,147.0039 Q1278.5547,146.75 1277.8516,146.75 Q1276.9727,146.75 1276.2305,147.1016 Q1275.5078,147.4531 1274.9414,148.2344 Q1274.375,149.0156 1274.375,150.0898 L1274.375,151.2422 Q1274.375,152.5313 1275.4297,153.3906 Q1276.4844,154.25 1278.3594,154.25 Q1279.4727,154.25 1280.2539,153.9961 Q1280.7031,153.8594 1281.2109,153.4102 Q1281.543,153.1563 1281.7188,153.0781 Q1281.8945,153 1282.1094,153 Q1282.5195,153 1282.8125,153.332 Q1283.125,153.6445 1283.125,154.0938 Q1283.125,154.5234 1282.6953,155.0313 Q1282.0703,155.7734 1281.0742,156.1836 Q1279.7656,156.75 1278.1641,156.75 Q1276.2891,156.75 1274.7852,156.0078 Q1273.5742,155.4219 1272.7148,154.1523 Q1271.875,152.8828 1271.875,151.3789 L1271.875,150.0117 Q1271.875,148.4492 1272.6172,147.082 Q1273.3789,145.7148 1274.6875,144.9922 Q1276.0156,144.25 1277.5,144.25 Q1278.3984,144.25 1279.1797,144.5625 Q1279.9609,144.875 1280.625,145.5 Z " fill="#000000"/><text fill="#000000" font-family="sans-serif" font-size="15" lengthAdjust="spacing" textLength="37.5" x="1295.625" y="156.0127">Truck</text><line style="stroke:#A80036;stroke-width:1.875;" x1="1260.625" x2="1335.625" y1="169.875" y2="169.875"/><!--MD5=[019a73386217e12d5bb8e34bf0b46b9e]
class FleetManager--><rect codeLine="73" fill="#FEFECE" filter="url(#f1m5bo6c7lfz10)" height="50" id="FleetManager" style="stroke:#A80036;stroke-width:1.875;" width="133.75" x="1011.25" y="848"/><ellipse cx="1030" cy="868" fill="#ADD1B2" rx="13.75" ry="13.75" style="stroke:#A80036;stroke-width:1.25;"/><path d="M1032.5,863.625 Q1032.7539,863 1033.0469,862.6875 Q1033.3398,862.375 1033.6719,862.375 Q1034.2578,862.375 1034.6289,862.7266 Q1035,863.0781 1035,863.8984 L1035,865.8516 Q1035,866.6719 1034.6484,867.0234 Q1034.2969,867.375 1033.75,867.375 Q1033.2617,867.375 1032.9492,867.1602 Q1032.6367,866.9453 1032.5,866.3789 Q1032.4414,865.9883 1032.2266,865.7734 Q1031.8359,865.3633 1031.1328,865.1289 Q1030.4297,864.875 1029.7266,864.875 Q1028.8477,864.875 1028.1055,865.2266 Q1027.3828,865.5781 1026.8164,866.3594 Q1026.25,867.1406 1026.25,868.2148 L1026.25,869.3672 Q1026.25,870.6563 1027.3047,871.5156 Q1028.3594,872.375 1030.2344,872.375 Q1031.3477,872.375 1032.1289,872.1211 Q1032.5781,871.9844 1033.0859,871.5352 Q1033.418,871.2813 1033.5938,871.2031 Q1033.7695,871.125 1033.9844,871.125 Q1034.3945,871.125 1034.6875,871.457 Q1035,871.7695 1035,872.2188 Q1035,872.6484 1034.5703,873.1563 Q1033.9453,873.8984 1032.9492,874.3086 Q1031.6406,874.875 1030.0391,874.875 Q1028.1641,874.875 1026.6602,874.1328 Q1025.4492,873.5469 1024.5898,872.2773 Q1023.75,871.0078 1023.75,869.5039 L1023.75,868.1367 Q1023.75,866.5742 1024.4922,865.207 Q1025.2539,863.8398 1026.5625,863.1172 Q1027.8906,862.375 1029.375,862.375 Q1030.2734,862.375 1031.0547,862.6875 Q1031.8359,863 1032.5,863.625 Z " fill="#000000"/><text fill="#000000" font-family="sans-serif" font-size="15" lengthAdjust="spacing" textLength="93.75" x="1047.5" y="874.1377">FleetManager</text><line style="stroke:#A80036;stroke-width:1.875;" x1="1012.5" x2="1143.75" y1="888" y2="888"/><!--MD5=[7fcbedb88579745280c367cebf31fce2]
class WarehouseStaff--><rect codeLine="76" fill="#FEFECE" filter="url(#f1m5bo6c7lfz10)" height="50" id="WarehouseStaff" style="stroke:#A80036;stroke-width:1.875;" width="150" x="598.125" y="129.875"/><ellipse cx="616.875" cy="149.875" fill="#ADD1B2" rx="13.75" ry="13.75" style="stroke:#A80036;stroke-width:1.25;"/><path d="M619.375,145.5 Q619.6289,144.875 619.9219,144.5625 Q620.2148,144.25 620.5469,144.25 Q621.1328,144.25 621.5039,144.6016 Q621.875,144.9531 621.875,145.7734 L621.875,147.7266 Q621.875,148.5469 621.5234,148.8984 Q621.1719,149.25 620.625,149.25 Q620.1367,149.25 619.8242,149.0352 Q619.5117,148.8203 619.375,148.2539 Q619.3164,147.8633 619.1016,147.6484 Q618.7109,147.2383 618.0078,147.0039 Q617.3047,146.75 616.6016,146.75 Q615.7227,146.75 614.9805,147.1016 Q614.2578,147.4531 613.6914,148.2344 Q613.125,149.0156 613.125,150.0898 L613.125,151.2422 Q613.125,152.5313 614.1797,153.3906 Q615.2344,154.25 617.1094,154.25 Q618.2227,154.25 619.0039,153.9961 Q619.4531,153.8594 619.9609,153.4102 Q620.293,153.1563 620.4688,153.0781 Q620.6445,153 620.8594,153 Q621.2695,153 621.5625,153.332 Q621.875,153.6445 621.875,154.0938 Q621.875,154.5234 621.4453,155.0313 Q620.8203,155.7734 619.8242,156.1836 Q618.5156,156.75 616.9141,156.75 Q615.0391,156.75 613.5352,156.0078 Q612.3242,155.4219 611.4648,154.1523 Q610.625,152.8828 610.625,151.3789 L610.625,150.0117 Q610.625,148.4492 611.3672,147.082 Q612.1289,145.7148 613.4375,144.9922 Q614.7656,144.25 616.25,144.25 Q617.1484,144.25 617.9297,144.5625 Q618.7109,144.875 619.375,145.5 Z " fill="#000000"/><text fill="#000000" font-family="sans-serif" font-size="15" lengthAdjust="spacing" textLength="110" x="634.375" y="156.0127">WarehouseStaff</text><line style="stroke:#A80036;stroke-width:1.875;" x1="599.375" x2="746.875" y1="169.875" y2="169.875"/><!--MD5=[5e1deb958606d83ef5f4988eb2b8f966]
class WarehouseManager--><rect codeLine="79" fill="#FEFECE" filter="url(#f1m5bo6c7lfz10)" height="50" id="WarehouseManager" style="stroke:#A80036;stroke-width:1.875;" width="180" x="791.875" y="129.875"/><ellipse cx="810.625" cy="149.875" fill="#ADD1B2" rx="13.75" ry="13.75" style="stroke:#A80036;stroke-width:1.25;"/><path d="M813.125,145.5 Q813.3789,144.875 813.6719,144.5625 Q813.9648,144.25 814.2969,144.25 Q814.8828,144.25 815.2539,144.6016 Q815.625,144.9531 815.625,145.7734 L815.625,147.7266 Q815.625,148.5469 815.2734,148.8984 Q814.9219,149.25 814.375,149.25 Q813.8867,149.25 813.5742,149.0352 Q813.2617,148.8203 813.125,148.2539 Q813.0664,147.8633 812.8516,147.6484 Q812.4609,147.2383 811.7578,147.0039 Q811.0547,146.75 810.3516,146.75 Q809.4727,146.75 808.7305,147.1016 Q808.0078,147.4531 807.4414,148.2344 Q806.875,149.0156 806.875,150.0898 L806.875,151.2422 Q806.875,152.5313 807.9297,153.3906 Q808.9844,154.25 810.8594,154.25 Q811.9727,154.25 812.7539,153.9961 Q813.2031,153.8594 813.7109,153.4102 Q814.043,153.1563 814.2188,153.0781 Q814.3945,153 814.6094,153 Q815.0195,153 815.3125,153.332 Q815.625,153.6445 815.625,154.0938 Q815.625,154.5234 815.1953,155.0313 Q814.5703,155.7734 813.5742,156.1836 Q812.2656,156.75 810.6641,156.75 Q808.7891,156.75 807.2852,156.0078 Q806.0742,155.4219 805.2148,154.1523 Q804.375,152.8828 804.375,151.3789 L804.375,150.0117 Q804.375,148.4492 805.1172,147.082 Q805.8789,145.7148 807.1875,144.9922 Q808.5156,144.25 810,144.25 Q810.8984,144.25 811.6797,144.5625 Q812.4609,144.875 813.125,145.5 Z " fill="#000000"/><text fill="#000000" font-family="sans-serif" font-size="15" lengthAdjust="spacing" textLength="140" x="828.125" y="156.0127">WarehouseManager</text><line style="stroke:#A80036;stroke-width:1.875;" x1="793.125" x2="970.625" y1="169.875" y2="169.875"/><!--MD5=[a0e14dc1c5f22798a4d68a7546a0e1d4]
class PortStaff--><rect codeLine="82" fill="#FEFECE" filter="url(#f1m5bo6c7lfz10)" height="50" id="PortStaff" style="stroke:#A80036;stroke-width:1.875;" width="97.5" x="584.375" y="467.375"/><ellipse cx="603.125" cy="487.375" fill="#ADD1B2" rx="13.75" ry="13.75" style="stroke:#A80036;stroke-width:1.25;"/><path d="M605.625,483 Q605.8789,482.375 606.1719,482.0625 Q606.4648,481.75 606.7969,481.75 Q607.3828,481.75 607.7539,482.1016 Q608.125,482.4531 608.125,483.2734 L608.125,485.2266 Q608.125,486.0469 607.7734,486.3984 Q607.4219,486.75 606.875,486.75 Q606.3867,486.75 606.0742,486.5352 Q605.7617,486.3203 605.625,485.7539 Q605.5664,485.3633 605.3516,485.1484 Q604.9609,484.7383 604.2578,484.5039 Q603.5547,484.25 602.8516,484.25 Q601.9727,484.25 601.2305,484.6016 Q600.5078,484.9531 599.9414,485.7344 Q599.375,486.5156 599.375,487.5898 L599.375,488.7422 Q599.375,490.0313 600.4297,490.8906 Q601.4844,491.75 603.3594,491.75 Q604.4727,491.75 605.2539,491.4961 Q605.7031,491.3594 606.2109,490.9102 Q606.543,490.6563 606.7188,490.5781 Q606.8945,490.5 607.1094,490.5 Q607.5195,490.5 607.8125,490.832 Q608.125,491.1445 608.125,491.5938 Q608.125,492.0234 607.6953,492.5313 Q607.0703,493.2734 606.0742,493.6836 Q604.7656,494.25 603.1641,494.25 Q601.2891,494.25 599.7852,493.5078 Q598.5742,492.9219 597.7148,491.6523 Q596.875,490.3828 596.875,488.8789 L596.875,487.5117 Q596.875,485.9492 597.6172,484.582 Q598.3789,483.2148 599.6875,482.4922 Q601.0156,481.75 602.5,481.75 Q603.3984,481.75 604.1797,482.0625 Q604.9609,482.375 605.625,483 Z " fill="#000000"/><text fill="#000000" font-family="sans-serif" font-size="15" lengthAdjust="spacing" textLength="57.5" x="620.625" y="493.5127">PortStaff</text><line style="stroke:#A80036;stroke-width:1.875;" x1="585.625" x2="680.625" y1="507.375" y2="507.375"/><!--MD5=[99d8f1361a72f685c413d1fd21efef1c]
class PortManager--><rect codeLine="85" fill="#FEFECE" filter="url(#f1m5bo6c7lfz10)" height="50" id="PortManager" style="stroke:#A80036;stroke-width:1.875;" width="127.5" x="1189.375" y="848"/><ellipse cx="1208.125" cy="868" fill="#ADD1B2" rx="13.75" ry="13.75" style="stroke:#A80036;stroke-width:1.25;"/><path d="M1210.625,863.625 Q1210.8789,863 1211.1719,862.6875 Q1211.4648,862.375 1211.7969,862.375 Q1212.3828,862.375 1212.7539,862.7266 Q1213.125,863.0781 1213.125,863.8984 L1213.125,865.8516 Q1213.125,866.6719 1212.7734,867.0234 Q1212.4219,867.375 1211.875,867.375 Q1211.3867,867.375 1211.0742,867.1602 Q1210.7617,866.9453 1210.625,866.3789 Q1210.5664,865.9883 1210.3516,865.7734 Q1209.9609,865.3633 1209.2578,865.1289 Q1208.5547,864.875 1207.8516,864.875 Q1206.9727,864.875 1206.2305,865.2266 Q1205.5078,865.5781 1204.9414,866.3594 Q1204.375,867.1406 1204.375,868.2148 L1204.375,869.3672 Q1204.375,870.6563 1205.4297,871.5156 Q1206.4844,872.375 1208.3594,872.375 Q1209.4727,872.375 1210.2539,872.1211 Q1210.7031,871.9844 1211.2109,871.5352 Q1211.543,871.2813 1211.7188,871.2031 Q1211.8945,871.125 1212.1094,871.125 Q1212.5195,871.125 1212.8125,871.457 Q1213.125,871.7695 1213.125,872.2188 Q1213.125,872.6484 1212.6953,873.1563 Q1212.0703,873.8984 1211.0742,874.3086 Q1209.7656,874.875 1208.1641,874.875 Q1206.2891,874.875 1204.7852,874.1328 Q1203.5742,873.5469 1202.7148,872.2773 Q1201.875,871.0078 1201.875,869.5039 L1201.875,868.1367 Q1201.875,866.5742 1202.6172,865.207 Q1203.3789,863.8398 1204.6875,863.1172 Q1206.0156,862.375 1207.5,862.375 Q1208.3984,862.375 1209.1797,862.6875 Q1209.9609,863 1210.625,863.625 Z " fill="#000000"/><text fill="#000000" font-family="sans-serif" font-size="15" lengthAdjust="spacing" textLength="87.5" x="1225.625" y="874.1377">PortManager</text><line style="stroke:#A80036;stroke-width:1.875;" x1="1190.625" x2="1315.625" y1="888" y2="888"/><!--MD5=[e6b394b930674b2255938b8afe6bb7b4]
class ShipCaptain--><rect codeLine="88" fill="#FEFECE" filter="url(#f1m5bo6c7lfz10)" height="50" id="ShipCaptain" style="stroke:#A80036;stroke-width:1.875;" width="125" x="570.625" y="1228.625"/><ellipse cx="589.375" cy="1248.625" fill="#ADD1B2" rx="13.75" ry="13.75" style="stroke:#A80036;stroke-width:1.25;"/><path d="M591.875,1244.25 Q592.1289,1243.625 592.4219,1243.3125 Q592.7148,1243 593.0469,1243 Q593.6328,1243 594.0039,1243.3516 Q594.375,1243.7031 594.375,1244.5234 L594.375,1246.4766 Q594.375,1247.2969 594.0234,1247.6484 Q593.6719,1248 593.125,1248 Q592.6367,1248 592.3242,1247.7852 Q592.0117,1247.5703 591.875,1247.0039 Q591.8164,1246.6133 591.6016,1246.3984 Q591.2109,1245.9883 590.5078,1245.7539 Q589.8047,1245.5 589.1016,1245.5 Q588.2227,1245.5 587.4805,1245.8516 Q586.7578,1246.2031 586.1914,1246.9844 Q585.625,1247.7656 585.625,1248.8398 L585.625,1249.9922 Q585.625,1251.2813 586.6797,1252.1406 Q587.7344,1253 589.6094,1253 Q590.7227,1253 591.5039,1252.7461 Q591.9531,1252.6094 592.4609,1252.1602 Q592.793,1251.9063 592.9688,1251.8281 Q593.1445,1251.75 593.3594,1251.75 Q593.7695,1251.75 594.0625,1252.082 Q594.375,1252.3945 594.375,1252.8438 Q594.375,1253.2734 593.9453,1253.7813 Q593.3203,1254.5234 592.3242,1254.9336 Q591.0156,1255.5 589.4141,1255.5 Q587.5391,1255.5 586.0352,1254.7578 Q584.8242,1254.1719 583.9648,1252.9023 Q583.125,1251.6328 583.125,1250.1289 L583.125,1248.7617 Q583.125,1247.1992 583.8672,1245.832 Q584.6289,1244.4648 585.9375,1243.7422 Q587.2656,1243 588.75,1243 Q589.6484,1243 590.4297,1243.3125 Q591.2109,1243.625 591.875,1244.25 Z " fill="#000000"/><text fill="#000000" font-family="sans-serif" font-size="15" lengthAdjust="spacing" textLength="85" x="606.875" y="1254.7627">ShipCaptain</text><line style="stroke:#A80036;stroke-width:1.875;" x1="571.875" x2="694.375" y1="1268.625" y2="1268.625"/><!--MD5=[d14076b1fa5ff6fc34e7abc31c5e1daa]
class ShipChiefElectricalEngineer--><rect codeLine="91" fill="#FEFECE" filter="url(#f1m5bo6c7lfz10)" height="50" id="ShipChiefElectricalEngineer" style="stroke:#A80036;stroke-width:1.875;" width="232.5" x="194.375" y="848"/><ellipse cx="213.125" cy="868" fill="#ADD1B2" rx="13.75" ry="13.75" style="stroke:#A80036;stroke-width:1.25;"/><path d="M215.625,863.625 Q215.8789,863 216.1719,862.6875 Q216.4648,862.375 216.7969,862.375 Q217.3828,862.375 217.7539,862.7266 Q218.125,863.0781 218.125,863.8984 L218.125,865.8516 Q218.125,866.6719 217.7734,867.0234 Q217.4219,867.375 216.875,867.375 Q216.3867,867.375 216.0742,867.1602 Q215.7617,866.9453 215.625,866.3789 Q215.5664,865.9883 215.3516,865.7734 Q214.9609,865.3633 214.2578,865.1289 Q213.5547,864.875 212.8516,864.875 Q211.9727,864.875 211.2305,865.2266 Q210.5078,865.5781 209.9414,866.3594 Q209.375,867.1406 209.375,868.2148 L209.375,869.3672 Q209.375,870.6563 210.4297,871.5156 Q211.4844,872.375 213.3594,872.375 Q214.4727,872.375 215.2539,872.1211 Q215.7031,871.9844 216.2109,871.5352 Q216.543,871.2813 216.7188,871.2031 Q216.8945,871.125 217.1094,871.125 Q217.5195,871.125 217.8125,871.457 Q218.125,871.7695 218.125,872.2188 Q218.125,872.6484 217.6953,873.1563 Q217.0703,873.8984 216.0742,874.3086 Q214.7656,874.875 213.1641,874.875 Q211.2891,874.875 209.7852,874.1328 Q208.5742,873.5469 207.7148,872.2773 Q206.875,871.0078 206.875,869.5039 L206.875,868.1367 Q206.875,866.5742 207.6172,865.207 Q208.3789,863.8398 209.6875,863.1172 Q211.0156,862.375 212.5,862.375 Q213.3984,862.375 214.1797,862.6875 Q214.9609,863 215.625,863.625 Z " fill="#000000"/><text fill="#000000" font-family="sans-serif" font-size="15" lengthAdjust="spacing" textLength="192.5" x="230.625" y="874.1377">ShipChiefElectricalEngineer</text><line style="stroke:#A80036;stroke-width:1.875;" x1="195.625" x2="425.625" y1="888" y2="888"/><!--MD5=[a93a86a91abc8796b23cdcc7cc3b17ff]
class TruckDriver--><rect codeLine="94" fill="#FEFECE" filter="url(#f1m5bo6c7lfz10)" height="50" id="TruckDriver" style="stroke:#A80036;stroke-width:1.875;" width="117.5" x="1015.625" y="129.875"/><ellipse cx="1034.375" cy="149.875" fill="#ADD1B2" rx="13.75" ry="13.75" style="stroke:#A80036;stroke-width:1.25;"/><path d="M1036.875,145.5 Q1037.1289,144.875 1037.4219,144.5625 Q1037.7148,144.25 1038.0469,144.25 Q1038.6328,144.25 1039.0039,144.6016 Q1039.375,144.9531 1039.375,145.7734 L1039.375,147.7266 Q1039.375,148.5469 1039.0234,148.8984 Q1038.6719,149.25 1038.125,149.25 Q1037.6367,149.25 1037.3242,149.0352 Q1037.0117,148.8203 1036.875,148.2539 Q1036.8164,147.8633 1036.6016,147.6484 Q1036.2109,147.2383 1035.5078,147.0039 Q1034.8047,146.75 1034.1016,146.75 Q1033.2227,146.75 1032.4805,147.1016 Q1031.7578,147.4531 1031.1914,148.2344 Q1030.625,149.0156 1030.625,150.0898 L1030.625,151.2422 Q1030.625,152.5313 1031.6797,153.3906 Q1032.7344,154.25 1034.6094,154.25 Q1035.7227,154.25 1036.5039,153.9961 Q1036.9531,153.8594 1037.4609,153.4102 Q1037.793,153.1563 1037.9688,153.0781 Q1038.1445,153 1038.3594,153 Q1038.7695,153 1039.0625,153.332 Q1039.375,153.6445 1039.375,154.0938 Q1039.375,154.5234 1038.9453,155.0313 Q1038.3203,155.7734 1037.3242,156.1836 Q1036.0156,156.75 1034.4141,156.75 Q1032.5391,156.75 1031.0352,156.0078 Q1029.8242,155.4219 1028.9648,154.1523 Q1028.125,152.8828 1028.125,151.3789 L1028.125,150.0117 Q1028.125,148.4492 1028.8672,147.082 Q1029.6289,145.7148 1030.9375,144.9922 Q1032.2656,144.25 1033.75,144.25 Q1034.6484,144.25 1035.4297,144.5625 Q1036.2109,144.875 1036.875,145.5 Z " fill="#000000"/><text fill="#000000" font-family="sans-serif" font-size="15" lengthAdjust="spacing" textLength="77.5" x="1051.875" y="156.0127">TruckDriver</text><line style="stroke:#A80036;stroke-width:1.875;" x1="1016.875" x2="1131.875" y1="169.875" y2="169.875"/><!--MD5=[ac7de62ce9384a92b5e95b1a406bc87c]
class ShipDistance--><rect codeLine="97" fill="#FEFECE" filter="url(#f1m5bo6c7lfz10)" height="326.7188" id="ShipDistance" style="stroke:#A80036;stroke-width:1.875;" width="132.5" x="739.375" y="1090.5"/><ellipse cx="758.125" cy="1110.5" fill="#ADD1B2" rx="13.75" ry="13.75" style="stroke:#A80036;stroke-width:1.25;"/><path d="M760.625,1106.125 Q760.8789,1105.5 761.1719,1105.1875 Q761.4648,1104.875 761.7969,1104.875 Q762.3828,1104.875 762.7539,1105.2266 Q763.125,1105.5781 763.125,1106.3984 L763.125,1108.3516 Q763.125,1109.1719 762.7734,1109.5234 Q762.4219,1109.875 761.875,1109.875 Q761.3867,1109.875 761.0742,1109.6602 Q760.7617,1109.4453 760.625,1108.8789 Q760.5664,1108.4883 760.3516,1108.2734 Q759.9609,1107.8633 759.2578,1107.6289 Q758.5547,1107.375 757.8516,1107.375 Q756.9727,1107.375 756.2305,1107.7266 Q755.5078,1108.0781 754.9414,1108.8594 Q754.375,1109.6406 754.375,1110.7148 L754.375,1111.8672 Q754.375,1113.1563 755.4297,1114.0156 Q756.4844,1114.875 758.3594,1114.875 Q759.4727,1114.875 760.2539,1114.6211 Q760.7031,1114.4844 761.2109,1114.0352 Q761.543,1113.7813 761.7188,1113.7031 Q761.8945,1113.625 762.1094,1113.625 Q762.5195,1113.625 762.8125,1113.957 Q763.125,1114.2695 763.125,1114.7188 Q763.125,1115.1484 762.6953,1115.6563 Q762.0703,1116.3984 761.0742,1116.8086 Q759.7656,1117.375 758.1641,1117.375 Q756.2891,1117.375 754.7852,1116.6328 Q753.5742,1116.0469 752.7148,1114.7773 Q751.875,1113.5078 751.875,1112.0039 L751.875,1110.6367 Q751.875,1109.0742 752.6172,1107.707 Q753.3789,1106.3398 754.6875,1105.6172 Q756.0156,1104.875 757.5,1104.875 Q758.3984,1104.875 759.1797,1105.1875 Q759.9609,1105.5 760.625,1106.125 Z " fill="#000000"/><text fill="#000000" font-family="sans-serif" font-size="15" lengthAdjust="spacing" textLength="92.5" x="775.625" y="1116.6377">ShipDistance</text><line style="stroke:#A80036;stroke-width:1.875;" x1="740.625" x2="870.625" y1="1130.5" y2="1130.5"/><rect fill="none" height="7.5" style="stroke:#C82930;stroke-width:1.25;" width="7.5" x="749.375" y="1140.5"/><text fill="#000000" font-family="sans-serif" font-size="13.75" lengthAdjust="spacing" textLength="30" x="764.375" y="1149.7737">mmsi</text><rect fill="none" height="7.5" style="stroke:#C82930;stroke-width:1.25;" width="7.5" x="749.375" y="1157.7949"/><text fill="#000000" font-family="sans-serif" font-size="13.75" lengthAdjust="spacing" textLength="73.75" x="764.375" y="1167.0686">vesselName</text><rect fill="none" height="7.5" style="stroke:#C82930;stroke-width:1.25;" width="7.5" x="749.375" y="1175.0898"/><text fill="#000000" font-family="sans-serif" font-size="13.75" lengthAdjust="spacing" textLength="55" x="764.375" y="1184.3635">startTime</text><rect fill="none" height="7.5" style="stroke:#C82930;stroke-width:1.25;" width="7.5" x="749.375" y="1192.3848"/><text fill="#000000" font-family="sans-serif" font-size="13.75" lengthAdjust="spacing" textLength="50" x="764.375" y="1201.6584">endTime</text><rect fill="none" height="7.5" style="stroke:#C82930;stroke-width:1.25;" width="7.5" x="749.375" y="1209.6797"/><text fill="#000000" font-family="sans-serif" font-size="13.75" lengthAdjust="spacing" textLength="93.75" x="764.375" y="1218.9534">totalMovements</text><rect fill="none" height="7.5" style="stroke:#C82930;stroke-width:1.25;" width="7.5" x="749.375" y="1226.9746"/><text fill="#000000" font-family="sans-serif" font-size="13.75" lengthAdjust="spacing" textLength="52.5" x="764.375" y="1236.2483">totalTime</text><rect fill="none" height="7.5" style="stroke:#C82930;stroke-width:1.25;" width="7.5" x="749.375" y="1244.2695"/><text fill="#000000" font-family="sans-serif" font-size="13.75" lengthAdjust="spacing" textLength="48.75" x="764.375" y="1253.5432">maxSog</text><rect fill="none" height="7.5" style="stroke:#C82930;stroke-width:1.25;" width="7.5" x="749.375" y="1261.5645"/><text fill="#000000" font-family="sans-serif" font-size="13.75" lengthAdjust="spacing" textLength="56.25" x="764.375" y="1270.8381">meanSog</text><rect fill="none" height="7.5" style="stroke:#C82930;stroke-width:1.25;" width="7.5" x="749.375" y="1278.8594"/><text fill="#000000" font-family="sans-serif" font-size="13.75" lengthAdjust="spacing" textLength="48.75" x="764.375" y="1288.1331">maxCog</text><rect fill="none" height="7.5" style="stroke:#C82930;stroke-width:1.25;" width="7.5" x="749.375" y="1296.1543"/><text fill="#000000" font-family="sans-serif" font-size="13.75" lengthAdjust="spacing" textLength="56.25" x="764.375" y="1305.428">meanCog</text><rect fill="none" height="7.5" style="stroke:#C82930;stroke-width:1.25;" width="7.5" x="749.375" y="1313.4492"/><text fill="#000000" font-family="sans-serif" font-size="13.75" lengthAdjust="spacing" textLength="70" x="764.375" y="1322.7229">depLatitude</text><rect fill="none" height="7.5" style="stroke:#C82930;stroke-width:1.25;" width="7.5" x="749.375" y="1330.7441"/><text fill="#000000" font-family="sans-serif" font-size="13.75" lengthAdjust="spacing" textLength="65" x="764.375" y="1340.0178">arrLatitude</text><rect fill="none" height="7.5" style="stroke:#C82930;stroke-width:1.25;" width="7.5" x="749.375" y="1348.0391"/><text fill="#000000" font-family="sans-serif" font-size="13.75" lengthAdjust="spacing" textLength="52.5" x="764.375" y="1357.3127">depLong</text><rect fill="none" height="7.5" style="stroke:#C82930;stroke-width:1.25;" width="7.5" x="749.375" y="1365.334"/><text fill="#000000" font-family="sans-serif" font-size="13.75" lengthAdjust="spacing" textLength="47.5" x="764.375" y="1374.6077">arrLong</text><rect fill="none" height="7.5" style="stroke:#C82930;stroke-width:1.25;" width="7.5" x="749.375" y="1382.6289"/><text fill="#000000" font-family="sans-serif" font-size="13.75" lengthAdjust="spacing" textLength="46.25" x="764.375" y="1391.9026">travDist</text><rect fill="none" height="7.5" style="stroke:#C82930;stroke-width:1.25;" width="7.5" x="749.375" y="1399.9238"/><text fill="#000000" font-family="sans-serif" font-size="13.75" lengthAdjust="spacing" textLength="43.75" x="764.375" y="1409.1975">deltDist</text><!--MD5=[f6b3929c0540a43527d6df01ce8c04ff]
class ShipMovement--><rect codeLine="117" fill="#FEFECE" filter="url(#f1m5bo6c7lfz10)" height="326.7188" id="ShipMovement" style="stroke:#A80036;stroke-width:1.875;" width="141.25" x="398.75" y="329.25"/><ellipse cx="417.5" cy="349.25" fill="#ADD1B2" rx="13.75" ry="13.75" style="stroke:#A80036;stroke-width:1.25;"/><path d="M420,344.875 Q420.2539,344.25 420.5469,343.9375 Q420.8398,343.625 421.1719,343.625 Q421.7578,343.625 422.1289,343.9766 Q422.5,344.3281 422.5,345.1484 L422.5,347.1016 Q422.5,347.9219 422.1484,348.2734 Q421.7969,348.625 421.25,348.625 Q420.7617,348.625 420.4492,348.4102 Q420.1367,348.1953 420,347.6289 Q419.9414,347.2383 419.7266,347.0234 Q419.3359,346.6133 418.6328,346.3789 Q417.9297,346.125 417.2266,346.125 Q416.3477,346.125 415.6055,346.4766 Q414.8828,346.8281 414.3164,347.6094 Q413.75,348.3906 413.75,349.4648 L413.75,350.6172 Q413.75,351.9063 414.8047,352.7656 Q415.8594,353.625 417.7344,353.625 Q418.8477,353.625 419.6289,353.3711 Q420.0781,353.2344 420.5859,352.7852 Q420.918,352.5313 421.0938,352.4531 Q421.2695,352.375 421.4844,352.375 Q421.8945,352.375 422.1875,352.707 Q422.5,353.0195 422.5,353.4688 Q422.5,353.8984 422.0703,354.4063 Q421.4453,355.1484 420.4492,355.5586 Q419.1406,356.125 417.5391,356.125 Q415.6641,356.125 414.1602,355.3828 Q412.9492,354.7969 412.0898,353.5273 Q411.25,352.2578 411.25,350.7539 L411.25,349.3867 Q411.25,347.8242 411.9922,346.457 Q412.7539,345.0898 414.0625,344.3672 Q415.3906,343.625 416.875,343.625 Q417.7734,343.625 418.5547,343.9375 Q419.3359,344.25 420,344.875 Z " fill="#000000"/><text fill="#000000" font-family="sans-serif" font-size="15" lengthAdjust="spacing" textLength="101.25" x="435" y="355.3877">ShipMovement</text><line style="stroke:#A80036;stroke-width:1.875;" x1="400" x2="538.75" y1="369.25" y2="369.25"/><rect fill="none" height="7.5" style="stroke:#C82930;stroke-width:1.25;" width="7.5" x="408.75" y="379.25"/><text fill="#000000" font-family="sans-serif" font-size="13.75" lengthAdjust="spacing" textLength="30" x="423.75" y="388.5237">mmsi</text><rect fill="none" height="7.5" style="stroke:#C82930;stroke-width:1.25;" width="7.5" x="408.75" y="396.5449"/><text fill="#000000" font-family="sans-serif" font-size="13.75" lengthAdjust="spacing" textLength="85" x="423.75" y="405.8186">baseDateTime</text><rect fill="none" height="7.5" style="stroke:#C82930;stroke-width:1.25;" width="7.5" x="408.75" y="413.8398"/><text fill="#000000" font-family="sans-serif" font-size="13.75" lengthAdjust="spacing" textLength="13.75" x="423.75" y="423.1135">lat</text><rect fill="none" height="7.5" style="stroke:#C82930;stroke-width:1.25;" width="7.5" x="408.75" y="431.1348"/><text fill="#000000" font-family="sans-serif" font-size="13.75" lengthAdjust="spacing" textLength="17.5" x="423.75" y="440.4084">lon</text><rect fill="none" height="7.5" style="stroke:#C82930;stroke-width:1.25;" width="7.5" x="408.75" y="448.4297"/><text fill="#000000" font-family="sans-serif" font-size="13.75" lengthAdjust="spacing" textLength="22.5" x="423.75" y="457.7034">sog</text><rect fill="none" height="7.5" style="stroke:#C82930;stroke-width:1.25;" width="7.5" x="408.75" y="465.7246"/><text fill="#000000" font-family="sans-serif" font-size="13.75" lengthAdjust="spacing" textLength="22.5" x="423.75" y="474.9983">cog</text><rect fill="none" height="7.5" style="stroke:#C82930;stroke-width:1.25;" width="7.5" x="408.75" y="483.0195"/><text fill="#000000" font-family="sans-serif" font-size="13.75" lengthAdjust="spacing" textLength="47.5" x="423.75" y="492.2932">heading</text><rect fill="none" height="7.5" style="stroke:#C82930;stroke-width:1.25;" width="7.5" x="408.75" y="500.3145"/><text fill="#000000" font-family="sans-serif" font-size="13.75" lengthAdjust="spacing" textLength="73.75" x="423.75" y="509.5881">vesselName</text><rect fill="none" height="7.5" style="stroke:#C82930;stroke-width:1.25;" width="7.5" x="408.75" y="517.6094"/><text fill="#000000" font-family="sans-serif" font-size="13.75" lengthAdjust="spacing" textLength="20" x="423.75" y="526.8831">imo</text><rect fill="none" height="7.5" style="stroke:#C82930;stroke-width:1.25;" width="7.5" x="408.75" y="534.9043"/><text fill="#000000" font-family="sans-serif" font-size="13.75" lengthAdjust="spacing" textLength="46.25" x="423.75" y="544.178">callSign</text><rect fill="none" height="7.5" style="stroke:#C82930;stroke-width:1.25;" width="7.5" x="408.75" y="552.1992"/><text fill="#000000" font-family="sans-serif" font-size="13.75" lengthAdjust="spacing" textLength="70" x="423.75" y="561.4729">vesselType</text><rect fill="none" height="7.5" style="stroke:#C82930;stroke-width:1.25;" width="7.5" x="408.75" y="569.4941"/><text fill="#000000" font-family="sans-serif" font-size="13.75" lengthAdjust="spacing" textLength="36.25" x="423.75" y="578.7678">lenght</text><rect fill="none" height="7.5" style="stroke:#C82930;stroke-width:1.25;" width="7.5" x="408.75" y="586.7891"/><text fill="#000000" font-family="sans-serif" font-size="13.75" lengthAdjust="spacing" textLength="33.75" x="423.75" y="596.0627">width</text><rect fill="none" height="7.5" style="stroke:#C82930;stroke-width:1.25;" width="7.5" x="408.75" y="604.084"/><text fill="#000000" font-family="sans-serif" font-size="13.75" lengthAdjust="spacing" textLength="28.75" x="423.75" y="613.3577">draft</text><rect fill="none" height="7.5" style="stroke:#C82930;stroke-width:1.25;" width="7.5" x="408.75" y="621.3789"/><text fill="#000000" font-family="sans-serif" font-size="13.75" lengthAdjust="spacing" textLength="35" x="423.75" y="630.6526">cargo</text><rect fill="none" height="7.5" style="stroke:#C82930;stroke-width:1.25;" width="7.5" x="408.75" y="638.6738"/><text fill="#000000" font-family="sans-serif" font-size="13.75" lengthAdjust="spacing" textLength="102.5" x="423.75" y="647.9475">transceiverClass</text><!--MD5=[e7ad894f8331fa852791ac292f7e8a32]
class ShipPair--><rect codeLine="136" fill="#FEFECE" filter="url(#f1m5bo6c7lfz10)" height="136.4746" id="ShipPair" style="stroke:#A80036;stroke-width:1.875;" width="143.75" x="823.75" y="804.875"/><ellipse cx="862.75" cy="824.875" fill="#ADD1B2" rx="13.75" ry="13.75" style="stroke:#A80036;stroke-width:1.25;"/><path d="M865.25,820.5 Q865.5039,819.875 865.7969,819.5625 Q866.0898,819.25 866.4219,819.25 Q867.0078,819.25 867.3789,819.6016 Q867.75,819.9531 867.75,820.7734 L867.75,822.7266 Q867.75,823.5469 867.3984,823.8984 Q867.0469,824.25 866.5,824.25 Q866.0117,824.25 865.6992,824.0352 Q865.3867,823.8203 865.25,823.2539 Q865.1914,822.8633 864.9766,822.6484 Q864.5859,822.2383 863.8828,822.0039 Q863.1797,821.75 862.4766,821.75 Q861.5977,821.75 860.8555,822.1016 Q860.1328,822.4531 859.5664,823.2344 Q859,824.0156 859,825.0898 L859,826.2422 Q859,827.5313 860.0547,828.3906 Q861.1094,829.25 862.9844,829.25 Q864.0977,829.25 864.8789,828.9961 Q865.3281,828.8594 865.8359,828.4102 Q866.168,828.1563 866.3438,828.0781 Q866.5195,828 866.7344,828 Q867.1445,828 867.4375,828.332 Q867.75,828.6445 867.75,829.0938 Q867.75,829.5234 867.3203,830.0313 Q866.6953,830.7734 865.6992,831.1836 Q864.3906,831.75 862.7891,831.75 Q860.9141,831.75 859.4102,831.0078 Q858.1992,830.4219 857.3398,829.1523 Q856.5,827.8828 856.5,826.3789 L856.5,825.0117 Q856.5,823.4492 857.2422,822.082 Q858.0039,820.7148 859.3125,819.9922 Q860.6406,819.25 862.125,819.25 Q863.0234,819.25 863.8047,819.5625 Q864.5859,819.875 865.25,820.5 Z " fill="#000000"/><text fill="#000000" font-family="sans-serif" font-size="15" lengthAdjust="spacing" textLength="58.75" x="884.75" y="831.0127">ShipPair</text><line style="stroke:#A80036;stroke-width:1.875;" x1="825" x2="966.25" y1="844.875" y2="844.875"/><rect fill="none" height="7.5" style="stroke:#C82930;stroke-width:1.25;" width="7.5" x="833.75" y="854.875"/><text fill="#000000" font-family="sans-serif" font-size="13.75" lengthAdjust="spacing" textLength="37.5" x="848.75" y="864.1487">mmsi1</text><rect fill="none" height="7.5" style="stroke:#C82930;stroke-width:1.25;" width="7.5" x="833.75" y="872.1699"/><text fill="#000000" font-family="sans-serif" font-size="13.75" lengthAdjust="spacing" textLength="37.5" x="848.75" y="881.4436">mmsi2</text><rect fill="none" height="7.5" style="stroke:#C82930;stroke-width:1.25;" width="7.5" x="833.75" y="889.4648"/><text fill="#000000" font-family="sans-serif" font-size="13.75" lengthAdjust="spacing" textLength="111.25" x="848.75" y="898.7385">departureDistance</text><rect fill="none" height="7.5" style="stroke:#C82930;stroke-width:1.25;" width="7.5" x="833.75" y="906.7598"/><text fill="#000000" font-family="sans-serif" font-size="13.75" lengthAdjust="spacing" textLength="90" x="848.75" y="916.0334">arrivalDistance</text><rect fill="none" height="7.5" style="stroke:#C82930;stroke-width:1.25;" width="7.5" x="833.75" y="924.0547"/><text fill="#000000" font-family="sans-serif" font-size="13.75" lengthAdjust="spacing" textLength="93.75" x="848.75" y="933.3284">travelDistance1</text><!--MD5=[a44ad20d45cac02e8c33cdd4602627cf]
class ShipRoute--><rect codeLine="144" fill="#FEFECE" filter="url(#f1m5bo6c7lfz10)" height="153.7695" id="ShipRoute" style="stroke:#A80036;stroke-width:1.875;" width="121.25" x="231.25" y="415.5"/><ellipse cx="253.9375" cy="435.5" fill="#ADD1B2" rx="13.75" ry="13.75" style="stroke:#A80036;stroke-width:1.25;"/><path d="M256.4375,431.125 Q256.6914,430.5 256.9844,430.1875 Q257.2773,429.875 257.6094,429.875 Q258.1953,429.875 258.5664,430.2266 Q258.9375,430.5781 258.9375,431.3984 L258.9375,433.3516 Q258.9375,434.1719 258.5859,434.5234 Q258.2344,434.875 257.6875,434.875 Q257.1992,434.875 256.8867,434.6602 Q256.5742,434.4453 256.4375,433.8789 Q256.3789,433.4883 256.1641,433.2734 Q255.7734,432.8633 255.0703,432.6289 Q254.3672,432.375 253.6641,432.375 Q252.7852,432.375 252.043,432.7266 Q251.3203,433.0781 250.7539,433.8594 Q250.1875,434.6406 250.1875,435.7148 L250.1875,436.8672 Q250.1875,438.1563 251.2422,439.0156 Q252.2969,439.875 254.1719,439.875 Q255.2852,439.875 256.0664,439.6211 Q256.5156,439.4844 257.0234,439.0352 Q257.3555,438.7813 257.5313,438.7031 Q257.707,438.625 257.9219,438.625 Q258.332,438.625 258.625,438.957 Q258.9375,439.2695 258.9375,439.7188 Q258.9375,440.1484 258.5078,440.6563 Q257.8828,441.3984 256.8867,441.8086 Q255.5781,442.375 253.9766,442.375 Q252.1016,442.375 250.5977,441.6328 Q249.3867,441.0469 248.5273,439.7773 Q247.6875,438.5078 247.6875,437.0039 L247.6875,435.6367 Q247.6875,434.0742 248.4297,432.707 Q249.1914,431.3398 250.5,430.6172 Q251.8281,429.875 253.3125,429.875 Q254.2109,429.875 254.9922,430.1875 Q255.7734,430.5 256.4375,431.125 Z " fill="#000000"/><text fill="#000000" font-family="sans-serif" font-size="15" lengthAdjust="spacing" textLength="72.5" x="272.3125" y="441.6377">ShipRoute</text><line style="stroke:#A80036;stroke-width:1.875;" x1="232.5" x2="351.25" y1="455.5" y2="455.5"/><rect fill="none" height="7.5" style="stroke:#C82930;stroke-width:1.25;" width="7.5" x="241.25" y="465.5"/><text fill="#000000" font-family="sans-serif" font-size="13.75" lengthAdjust="spacing" textLength="30" x="256.25" y="474.7737">mmsi</text><rect fill="none" height="7.5" style="stroke:#C82930;stroke-width:1.25;" width="7.5" x="241.25" y="482.7949"/><text fill="#000000" font-family="sans-serif" font-size="13.75" lengthAdjust="spacing" textLength="77.5" x="256.25" y="492.0686">departureLat</text><rect fill="none" height="7.5" style="stroke:#C82930;stroke-width:1.25;" width="7.5" x="241.25" y="500.0898"/><text fill="#000000" font-family="sans-serif" font-size="13.75" lengthAdjust="spacing" textLength="56.25" x="256.25" y="509.3635">arrivalLat</text><rect fill="none" height="7.5" style="stroke:#C82930;stroke-width:1.25;" width="7.5" x="241.25" y="517.3848"/><text fill="#000000" font-family="sans-serif" font-size="13.75" lengthAdjust="spacing" textLength="88.75" x="256.25" y="526.6584">departureLong</text><rect fill="none" height="7.5" style="stroke:#C82930;stroke-width:1.25;" width="7.5" x="241.25" y="534.6797"/><text fill="#000000" font-family="sans-serif" font-size="13.75" lengthAdjust="spacing" textLength="67.5" x="256.25" y="543.9534">arrivalLong</text><rect fill="none" height="7.5" style="stroke:#C82930;stroke-width:1.25;" width="7.5" x="241.25" y="551.9746"/><text fill="#000000" font-family="sans-serif" font-size="13.75" lengthAdjust="spacing" textLength="86.25" x="256.25" y="561.2483">travelDistance</text><!--MD5=[40e2b5717560220ad35e84810a8f1b44]
link TrafficManager to Ship--><path codeLine="154" d="M91.5625,847.9 C106.475,820.05 134.4375,775.975 171.875,753 C266.6625,694.825 314.1,686.5125 420,720.5 C459.425,733.15 497.75,756.075 530.775,780.375 " fill="none" id="TrafficManager-Ship" style="stroke:#A80036;stroke-width:1.25;"/><polygon fill="#000000" points="356.1774,703.52,344.4441,701.6071,345.5606,708.8691,356.1774,703.52" style="stroke:#000000;stroke-width:1.25;"/><text fill="#000000" font-family="sans-serif" font-size="16.25" lengthAdjust="spacing" textLength="57.5" x="361.25" y="711.1189">controls</text><text fill="#000000" font-family="sans-serif" font-size="16.25" lengthAdjust="spacing" textLength="8.75" x="85.1074" y="834.5228">1</text><text fill="#000000" font-family="sans-serif" font-size="16.25" lengthAdjust="spacing" textLength="25" x="496.264" y="768.7534">1..*</text><!--MD5=[8304bc5289f627c52f3048b7211fb80c]
link Ship to FleetManager--><path codeLine="155" d="M735.1375,791.275 C756.325,776.975 779.15,763.3875 801.875,753 C857.2625,727.675 874.5375,727.775 935,720.5 C968.65,716.45 982.875,701.9625 1011.25,720.5 C1054.575,748.8 1070,812.0875 1075.375,847.5875 " fill="none" id="Ship-FleetManager" style="stroke:#A80036;stroke-width:1.25;"/><polygon fill="#000000" points="935.0839,703.4492,945.6386,708.9197,946.8384,701.671,935.0839,703.4492" style="stroke:#000000;stroke-width:1.25;"/><text fill="#000000" font-family="sans-serif" font-size="16.25" lengthAdjust="spacing" textLength="57.5" x="952.5" y="711.1189">controls</text><text fill="#000000" font-family="sans-serif" font-size="16.25" lengthAdjust="spacing" textLength="25" x="744.9784" y="801.9884">1..*</text><text fill="#000000" font-family="sans-serif" font-size="16.25" lengthAdjust="spacing" textLength="8.75" x="1064.6211" y="834.5584">1</text><!--MD5=[641af49703b38e745c9a3976df66996b]
link WarehouseManager to Warehouse--><path codeLine="156" d="M854.7875,129.85 C805.1375,87.1125 695.775,7.5 599.375,38 C560.525,50.2875 522.8875,75.275 493.275,99.0125 " fill="none" id="WarehouseManager-Warehouse" style="stroke:#A80036;stroke-width:1.25;"/><polygon fill="#000000" points="599.3976,28.9385,610.3508,33.5598,610.9753,26.2391,599.3976,28.9385" style="stroke:#000000;stroke-width:1.25;"/><text fill="#000000" font-family="sans-serif" font-size="16.25" lengthAdjust="spacing" textLength="66.25" x="616.875" y="36.1189">manages</text><text fill="#000000" font-family="sans-serif" font-size="16.25" lengthAdjust="spacing" textLength="8.75" x="836.7954" y="116.4948">1</text><text fill="#000000" font-family="sans-serif" font-size="16.25" lengthAdjust="spacing" textLength="25" x="503.0373" y="87.0593">1..*</text><!--MD5=[0190973f8c5de701e926b865ec575606]
link Warehouse to WarehouseStaff--><path codeLine="157" d="M493.6875,154.875 C525.35,154.875 564.4,154.875 597.975,154.875 " fill="none" id="Warehouse-WarehouseStaff" style="stroke:#A80036;stroke-width:1.25;"/><polygon fill="#000000" points="515,140.0947,526.3064,143.7684,526.3064,136.4211,515,140.0947" style="stroke:#000000;stroke-width:1.25;"/><text fill="#000000" font-family="sans-serif" font-size="16.25" lengthAdjust="spacing" textLength="42.5" x="532.5" y="146.7439">works</text><text fill="#000000" font-family="sans-serif" font-size="16.25" lengthAdjust="spacing" textLength="25" x="503.0486" y="173.052">1..*</text><text fill="#000000" font-family="sans-serif" font-size="16.25" lengthAdjust="spacing" textLength="8.75" x="579.5329" y="150.5519">1</text><!--MD5=[48d901b645b583b24981c41ea2f4fedc]
link PortStaff to Ship--><path codeLine="158" d="M633.125,517.85 C633.125,564.3875 633.125,669.0625 633.125,752.575 " fill="none" id="PortStaff-Ship" style="stroke:#A80036;stroke-width:1.25;"/><polygon fill="#000000" points="639.375,710.7197,643.0487,699.4134,635.7013,699.4134,639.375,710.7197" style="stroke:#000000;stroke-width:1.25;"/><text fill="#000000" font-family="sans-serif" font-size="16.25" lengthAdjust="spacing" textLength="42.5" x="650.625" y="711.1189">works</text><text fill="#000000" font-family="sans-serif" font-size="16.25" lengthAdjust="spacing" textLength="8.75" x="623.1992" y="544.3119">1</text><text fill="#000000" font-family="sans-serif" font-size="16.25" lengthAdjust="spacing" textLength="25" x="607.168" y="739.4657">1..*</text><!--MD5=[9eb8cece74e91f217f5849e8308bf70d]
link PortManager to Port--><path codeLine="159" d="M1317.1875,873 C1356.9375,873 1407.475,873 1445.225,873 " fill="none" id="PortManager-Port" style="stroke:#A80036;stroke-width:1.25;"/><polygon fill="#000000" points="1351.25,858.2197,1339.9436,854.5461,1339.9436,861.8934,1351.25,858.2197" style="stroke:#000000;stroke-width:1.25;"/><text fill="#000000" font-family="sans-serif" font-size="16.25" lengthAdjust="spacing" textLength="66.25" x="1356.25" y="864.8689">manages</text><text fill="#000000" font-family="sans-serif" font-size="16.25" lengthAdjust="spacing" textLength="8.75" x="1326.8115" y="868.4935">1</text><text fill="#000000" font-family="sans-serif" font-size="16.25" lengthAdjust="spacing" textLength="25" x="1410.4358" y="891.3685">1..*</text><!--MD5=[a5b2d7054789f86100b09c2b7a7f0a67]
link Ship to ShipCaptain--><path codeLine="160" d="M633.125,993.375 C633.125,1077.15 633.125,1182.25 633.125,1228.575 " fill="none" id="Ship-ShipCaptain" style="stroke:#A80036;stroke-width:1.25;"/><polygon fill="#000000" points="639.375,1035.7197,635.7013,1047.0261,643.0487,1047.0261,639.375,1035.7197" style="stroke:#000000;stroke-width:1.25;"/><text fill="#000000" font-family="sans-serif" font-size="16.25" lengthAdjust="spacing" textLength="63.75" x="650.625" y="1048.6189">oversees</text><text fill="#000000" font-family="sans-serif" font-size="16.25" lengthAdjust="spacing" textLength="25" x="607.168" y="1020.2332">1..*</text><text fill="#000000" font-family="sans-serif" font-size="16.25" lengthAdjust="spacing" textLength="8.75" x="623.0898" y="1215.2125">1</text><!--MD5=[c5ef8141e8a198f4a84e54199c61ab67]
link ShipChiefElectricalEngineer to Ship--><path codeLine="161" d="M427.05,873 C460.975,873 497.7625,873 530.75,873 " fill="none" id="ShipChiefElectricalEngineer-Ship" style="stroke:#A80036;stroke-width:1.25;"/><polygon fill="#000000" points="460.9375,858.2197,449.6311,854.5461,449.6311,861.8934,460.9375,858.2197" style="stroke:#000000;stroke-width:1.25;"/><text fill="#000000" font-family="sans-serif" font-size="16.25" lengthAdjust="spacing" textLength="42.5" x="465.9375" y="864.8689">works</text><text fill="#000000" font-family="sans-serif" font-size="16.25" lengthAdjust="spacing" textLength="8.75" x="437.0538" y="869.059">1</text><text fill="#000000" font-family="sans-serif" font-size="16.25" lengthAdjust="spacing" textLength="25" x="496.2369" y="890.7051">1..*</text><!--MD5=[6254345fd9dacb1857d22b54f9e53236]
link TruckDriver to Truck--><path codeLine="162" d="M1133.1625,154.875 C1172.9125,154.875 1224.3,154.875 1259.0875,154.875 " fill="none" id="TruckDriver-Truck" style="stroke:#A80036;stroke-width:1.25;"/><polygon fill="#000000" points="1167.5,140.0947,1156.1936,136.4211,1156.1936,143.7684,1167.5,140.0947" style="stroke:#000000;stroke-width:1.25;"/><text fill="#000000" font-family="sans-serif" font-size="16.25" lengthAdjust="spacing" textLength="63.75" x="1172.5" y="146.7439">oversees</text><text fill="#000000" font-family="sans-serif" font-size="16.25" lengthAdjust="spacing" textLength="8.75" x="1143.229" y="150.1852">1</text><text fill="#000000" font-family="sans-serif" font-size="16.25" lengthAdjust="spacing" textLength="8.75" x="1240.841" y="149.6045">1</text><!--MD5=[f91b227e93aeebda0e6138e5b2e7fc8a]
link Ship to ShipDynamicFields--><path codeLine="163" d="M572.0875,993.375 C544.6875,1046.8375 512.8375,1109 487.2125,1159.0125 " fill="none" id="Ship-ShipDynamicFields" style="stroke:#A80036;stroke-width:1.25;"/><polygon fill="#000000" points="551.5248,1047.532,559.9503,1039.145,553.4114,1035.7945,551.5248,1047.532" style="stroke:#000000;stroke-width:1.25;"/><text fill="#000000" font-family="sans-serif" font-size="16.25" lengthAdjust="spacing" textLength="26.25" x="565.625" y="1048.6189">has</text><text fill="#000000" font-family="sans-serif" font-size="16.25" lengthAdjust="spacing" textLength="8.75" x="558.3294" y="1020.2332">1</text><text fill="#000000" font-family="sans-serif" font-size="16.25" lengthAdjust="spacing" textLength="8.75" x="482.7408" y="1145.6245">1</text><!--MD5=[50fc424ec4382fd1ba2dc7184d539476]
link Containers to Ship--><path codeLine="164" d="M1012.425,558.9 C984.225,589.3375 949.25,625.4 915.625,655.5 C858.45,706.6875 790.225,759.125 735.15,799.55 " fill="none" id="Containers-Ship" style="stroke:#A80036;stroke-width:1.25;"/><polygon fill="#000000" points="881.5951,700.3731,870.6484,705.0096,875.4643,710.5584,881.5951,700.3731" style="stroke:#000000;stroke-width:1.25;"/><text fill="#000000" font-family="sans-serif" font-size="16.25" lengthAdjust="spacing" textLength="26.25" x="888.125" y="711.1189">has</text><text fill="#000000" font-family="sans-serif" font-size="16.25" lengthAdjust="spacing" textLength="25" x="977.4828" y="563.717">1..*</text><text fill="#000000" font-family="sans-serif" font-size="16.25" lengthAdjust="spacing" textLength="8.75" x="744.9588" y="788.7349">1</text><!--MD5=[9f5a09a616509cd3e7b114149642c3c0]
link CargoManifest to Containers--><path codeLine="165" d="M893.475,492.375 C932.2625,492.375 977.3375,492.375 1012.3125,492.375 " fill="none" id="CargoManifest-Containers" style="stroke:#A80036;stroke-width:1.25;"/><polygon fill="#000000" points="927.1875,477.5947,915.8811,473.9211,915.8811,481.2684,927.1875,477.5947" style="stroke:#000000;stroke-width:1.25;"/><text fill="#000000" font-family="sans-serif" font-size="16.25" lengthAdjust="spacing" textLength="57.5" x="932.1875" y="484.2439">controls</text><text fill="#000000" font-family="sans-serif" font-size="16.25" lengthAdjust="spacing" textLength="8.75" x="903.152" y="488.2078">1</text><text fill="#000000" font-family="sans-serif" font-size="16.25" lengthAdjust="spacing" textLength="25" x="977.3545" y="510.6495">1..*</text><!--MD5=[8cef3b8bb432fdc493768abc58cade76]
link Truck to Containers--><path codeLine="166" d="M1281.7625,180.2125 C1250.225,226.65 1179.6625,330.55 1128.7875,405.4875 " fill="none" id="Truck-Containers" style="stroke:#A80036;stroke-width:1.25;"/><polygon fill="#000000" points="1219.6139,285.8903,1229.0047,278.6004,1222.9264,274.4729,1219.6139,285.8903" style="stroke:#000000;stroke-width:1.25;"/><text fill="#000000" font-family="sans-serif" font-size="16.25" lengthAdjust="spacing" textLength="26.25" x="1234.375" y="287.3689">has</text><text fill="#000000" font-family="sans-serif" font-size="16.25" lengthAdjust="spacing" textLength="8.75" x="1267.4393" y="206.6374">1</text><text fill="#000000" font-family="sans-serif" font-size="16.25" lengthAdjust="spacing" textLength="25" x="1138.7244" y="388.7309">1..*</text><!--MD5=[47296211a5450e6030aae792427ae68d]
link CargoManifest to Port--><path codeLine="167" d="M776.0125,543.9375 C747.4875,593.825 717.3375,669.3125 760.625,715.5 C804.6875,762.5125 1278.875,730.8125 1339.375,753 C1378.675,767.4125 1416.5625,794.7375 1445.6,819.5375 " fill="none" id="CargoManifest-Port" style="stroke:#A80036;stroke-width:1.25;"/><polygon fill="#000000" points="761.0954,702.0909,770.1525,709.7914,772.949,702.9971,761.0954,702.0909" style="stroke:#000000;stroke-width:1.25;"/><text fill="#000000" font-family="sans-serif" font-size="16.25" lengthAdjust="spacing" textLength="58.75" x="778.125" y="711.1189">receives</text><text fill="#000000" font-family="sans-serif" font-size="16.25" lengthAdjust="spacing" textLength="25" x="744.2764" y="569.9258">1..*</text><text fill="#000000" font-family="sans-serif" font-size="16.25" lengthAdjust="spacing" textLength="8.75" x="1426.8555" y="805.5349">1</text><!--MD5=[02d60c65ef718087735e668531e1ff2c]
link Warehouse to CargoManifest--><path codeLine="168" d="M493.6,190.6375 C562.75,230.8125 670.775,295.9 704.375,329.25 C737.3,361.9375 765.3375,406.6375 784.125,440.775 " fill="none" id="Warehouse-CargoManifest" style="stroke:#A80036;stroke-width:1.25;"/><polygon fill="#000000" points="660.3614,284.7977,654.1902,274.6367,649.3963,280.2046,660.3614,284.7977" style="stroke:#000000;stroke-width:1.25;"/><text fill="#000000" font-family="sans-serif" font-size="16.25" lengthAdjust="spacing" textLength="58.75" x="666.875" y="287.3689">receives</text><text fill="#000000" font-family="sans-serif" font-size="16.25" lengthAdjust="spacing" textLength="8.75" x="503.1248" y="191.3211">1</text><text fill="#000000" font-family="sans-serif" font-size="16.25" lengthAdjust="spacing" textLength="25" x="752.8727" y="427.5287">1..*</text><!--MD5=[df7146deb5cdd8fd100e886f9e413029]
link Ship to ShipDistance--><path codeLine="169" d="M706.675,993.2875 C713.4,1005.6875 719.85,1018.2375 725.625,1030.5 C734.6125,1049.575 743.225,1069.9625 751.2375,1090.35 " fill="none" id="Ship-ShipDistance" style="stroke:#A80036;stroke-width:1.25;"/><polygon fill="#000000" points="741.9827,1047.6497,740.6039,1035.8417,733.9267,1038.9073,741.9827,1047.6497" style="stroke:#000000;stroke-width:1.25;"/><text fill="#000000" font-family="sans-serif" font-size="16.25" lengthAdjust="spacing" textLength="26.25" x="750.625" y="1048.6189">has</text><text fill="#000000" font-family="sans-serif" font-size="16.25" lengthAdjust="spacing" textLength="8.75" x="703.2212" y="1020.139">1</text><text fill="#000000" font-family="sans-serif" font-size="16.25" lengthAdjust="spacing" textLength="25" x="722.1615" y="1076.6591">1..*</text><!--MD5=[605362cf8b5a21fe6106423976ae528f]
link ShipMovement to Ship--><path codeLine="170" d="M539.5375,655.625 C553.6875,688.3 568.3125,722.075 581.675,752.9375 " fill="none" id="ShipMovement-Ship" style="stroke:#A80036;stroke-width:1.25;"/><polygon fill="#000000" points="565.6415,698.7343,566.763,710.5695,573.5054,707.65,565.6415,698.7343" style="stroke:#000000;stroke-width:1.25;"/><text fill="#000000" font-family="sans-serif" font-size="16.25" lengthAdjust="spacing" textLength="26.25" x="579.375" y="711.1189">has</text><text fill="#000000" font-family="sans-serif" font-size="16.25" lengthAdjust="spacing" textLength="25" x="518.0513" y="683.0504">1..*</text><text fill="#000000" font-family="sans-serif" font-size="16.25" lengthAdjust="spacing" textLength="8.75" x="568.4764" y="739.4498">1</text><!--MD5=[2d872f8942380604ce9fd7ae4b6eccb1]
link Ship to ShipPair--><path codeLine="171" d="M735.3625,873 C764.875,873 796.45,873 823.7,873 " fill="none" id="Ship-ShipPair" style="stroke:#A80036;stroke-width:1.25;"/><polygon fill="#000000" points="769.375,858.2197,758.0686,854.5461,758.0686,861.8934,769.375,858.2197" style="stroke:#000000;stroke-width:1.25;"/><text fill="#000000" font-family="sans-serif" font-size="16.25" lengthAdjust="spacing" textLength="26.25" x="774.375" y="864.8689">has</text><text fill="#000000" font-family="sans-serif" font-size="16.25" lengthAdjust="spacing" textLength="8.75" x="744.8577" y="868.987">1</text><text fill="#000000" font-family="sans-serif" font-size="16.25" lengthAdjust="spacing" textLength="25" x="788.9384" y="891.0376">1..*</text><!--MD5=[1398f0e8a62f3b3a5b114dcac4794fca]
link ShipRoute to Ship--><path codeLine="172" d="M268.175,569.725 C258.5625,616.5875 256.175,675.2 288.125,715.5 C333.5,772.7375 380.8625,724.525 448.125,753 C476.2375,764.9 504.85,780.9625 530.9,797.425 " fill="none" id="ShipRoute-Ship" style="stroke:#A80036;stroke-width:1.25;"/><polygon fill="#000000" points="289.652,700.3764,295.79,710.5574,300.602,705.0052,289.652,700.3764" style="stroke:#000000;stroke-width:1.25;"/><text fill="#000000" font-family="sans-serif" font-size="16.25" lengthAdjust="spacing" textLength="26.25" x="305.625" y="711.1189">has</text><text fill="#000000" font-family="sans-serif" font-size="16.25" lengthAdjust="spacing" textLength="25" x="239.2156" y="596.1708">1..*</text><text fill="#000000" font-family="sans-serif" font-size="16.25" lengthAdjust="spacing" textLength="8.75" x="512.6559" y="808.4623">1</text><!--MD5=[478af38e5c57cf28e6a034b55f4c7a94]
@startuml

hide methods

class TrafficManager{
}

class Ship {
 - mmsi
 - shipName
 - imoId
 - numberOfEnergyGenerators
 - generatorsPowerOutput
 - callSign
 - vesselType
 - lenght
 - width
 - capacity
 - draft
}

class ShipDynamicFields {
 - dateTime
 - long
 -lat
 -sog
 -cog
 -heading
 -position
 -transceiverClass
}

class Port {
 - identification
 - name
 - continent
 - country
 - lat
 - long
}

class Warehouse {
 - identification
 - name
 - continent
 - country
 - lat
 - long
}

class Containers {
- identification
- payload
- tare
- gross
- isoCode
- lenght
- width
- height
- temperature
- coordinates
}


class CargoManifest {
- containerId
- containerPos
- containerGrossWeight
}

class Truck {
}

class FleetManager {
}

class WarehouseStaff {
}

class WarehouseManager {
}

class PortStaff {
}

class PortManager {
}

class ShipCaptain {
}

class ShipChiefElectricalEngineer {
}

class TruckDriver {
}

class ShipDistance {
- mmsi
- vesselName
- startTime
- endTime
- totalMovements
- totalTime
- maxSog
- meanSog
- maxCog
- meanCog
- depLatitude
- arrLatitude
- depLong
- arrLong
- travDist
- deltDist
}


class ShipMovement {
- mmsi
- baseDateTime
- lat
- lon
- sog
- cog
- heading
- vesselName
- imo
- callSign
- vesselType
- lenght
- width
- draft
- cargo
- transceiverClass
}

class ShipPair {
- mmsi1
- mmsi2
- departureDistance
- arrivalDistance
- travelDistance1
}

class ShipRoute {
- mmsi
- departureLat
- arrivalLat
- departureLong
- arrivalLong
- travelDistance
}


TrafficManager"1" -right- "1..*"Ship : > controls
FleetManager"1" -left- "1..*"Ship : > controls
WarehouseManager"1" -right- "1..*"Warehouse : > manages
WarehouseStaff"1" -left- "1..*"Warehouse : > works
PortStaff"1" -down- "1..*"Ship : > works
PortManager "1" -right- "1..*"Port : > manages
ShipCaptain "1" -up- "1..*"Ship : > oversees
ShipChiefElectricalEngineer "1" -right- "1..*"Ship : > works
TruckDriver "1" -right- "1"Truck : > oversees
Ship "1" -down- "1"ShipDynamicFields : > has
Ship "1" -up- "1..*"Containers  : > has
CargoManifest "1" -right- "1..*"Containers : > controls
Truck "1" -down- "1..*"Containers : > has
Port"1" -up- "1..*"CargoManifest : > receives
Warehouse"1" -down- "1..*"CargoManifest :> receives
Ship "1" -down- "1..*"ShipDistance :> has
Ship "1" -up- "1..*"ShipMovement :> has
Ship "1" -right- "1..*"ShipPair :> has
Ship "1" -up- "1..*"ShipRoute :> has


@enduml

PlantUML version 1.2021.7(Sun May 23 13:40:07 BST 2021)
(GPL source distribution)
Java Runtime: OpenJDK Runtime Environment
JVM: OpenJDK 64-Bit Server VM
Default Encoding: Cp1252
Language: pt
Country: PT
--></g></svg>