<?xml version="1.0" encoding="UTF-8" standalone="no"?><svg xmlns="http://www.w3.org/2000/svg" xmlns:xlink="http://www.w3.org/1999/xlink" contentScriptType="application/ecmascript" contentStyleType="text/css" height="641.25px" preserveAspectRatio="none" style="width:828px;height:641px;background:#FFFFFF;" version="1.1" viewBox="0 0 828 641" width="828.75px" zoomAndPan="magnify"><defs><filter height="300%" id="f1pq5lfe5116b6" width="300%" x="-1" y="-1"><feGaussianBlur result="blurOut" stdDeviation="2.5"/><feColorMatrix in="blurOut" result="blurOut2" type="matrix" values="0 0 0 0 0 0 0 0 0 0 0 0 0 0 0 0 0 0 .4 0"/><feOffset dx="5.0" dy="5.0" in="blurOut2" result="blurOut3"/><feBlend in="SourceGraphic" in2="blurOut3" mode="normal"/></filter></defs><g><!--MD5=[d36829bcc8660c08f1e67793461de28f]
class FindShipUI--><rect codeLine="3" fill="#FEFECE" filter="url(#f1pq5lfe5116b6)" height="60" id="FindShipUI" style="stroke:#A80036;stroke-width:1.875;" width="116.25" x="299.375" y="8.75"/><ellipse cx="318.125" cy="28.75" fill="#ADD1B2" rx="13.75" ry="13.75" style="stroke:#A80036;stroke-width:1.25;"/><path d="M320.625,24.375 Q320.8789,23.75 321.1719,23.4375 Q321.4648,23.125 321.7969,23.125 Q322.3828,23.125 322.7539,23.4766 Q323.125,23.8281 323.125,24.6484 L323.125,26.6016 Q323.125,27.4219 322.7734,27.7734 Q322.4219,28.125 321.875,28.125 Q321.3867,28.125 321.0742,27.9102 Q320.7617,27.6953 320.625,27.1289 Q320.5664,26.7383 320.3516,26.5234 Q319.9609,26.1133 319.2578,25.8789 Q318.5547,25.625 317.8516,25.625 Q316.9727,25.625 316.2305,25.9766 Q315.5078,26.3281 314.9414,27.1094 Q314.375,27.8906 314.375,28.9648 L314.375,30.1172 Q314.375,31.4063 315.4297,32.2656 Q316.4844,33.125 318.3594,33.125 Q319.4727,33.125 320.2539,32.8711 Q320.7031,32.7344 321.2109,32.2852 Q321.543,32.0313 321.7188,31.9531 Q321.8945,31.875 322.1094,31.875 Q322.5195,31.875 322.8125,32.207 Q323.125,32.5195 323.125,32.9688 Q323.125,33.3984 322.6953,33.9063 Q322.0703,34.6484 321.0742,35.0586 Q319.7656,35.625 318.1641,35.625 Q316.2891,35.625 314.7852,34.8828 Q313.5742,34.2969 312.7148,33.0273 Q311.875,31.7578 311.875,30.2539 L311.875,28.8867 Q311.875,27.3242 312.6172,25.957 Q313.3789,24.5898 314.6875,23.8672 Q316.0156,23.125 317.5,23.125 Q318.3984,23.125 319.1797,23.4375 Q319.9609,23.75 320.625,24.375 Z " fill="#000000"/><text fill="#000000" font-family="sans-serif" font-size="15" lengthAdjust="spacing" textLength="76.25" x="335.625" y="34.8877">FindShipUI</text><line style="stroke:#A80036;stroke-width:1.875;" x1="300.625" x2="414.375" y1="48.75" y2="48.75"/><line style="stroke:#A80036;stroke-width:1.875;" x1="300.625" x2="414.375" y1="58.75" y2="58.75"/><!--MD5=[59e2da46e2cdf18754cc13dcc9d2f517]
class FindShipController--><rect codeLine="6" fill="#FEFECE" filter="url(#f1pq5lfe5116b6)" height="111.8848" id="FindShipController" style="stroke:#A80036;stroke-width:1.875;" width="286.25" x="214.375" y="145"/><ellipse cx="287.8125" cy="165" fill="#ADD1B2" rx="13.75" ry="13.75" style="stroke:#A80036;stroke-width:1.25;"/><path d="M290.3125,160.625 Q290.5664,160 290.8594,159.6875 Q291.1523,159.375 291.4844,159.375 Q292.0703,159.375 292.4414,159.7266 Q292.8125,160.0781 292.8125,160.8984 L292.8125,162.8516 Q292.8125,163.6719 292.4609,164.0234 Q292.1094,164.375 291.5625,164.375 Q291.0742,164.375 290.7617,164.1602 Q290.4492,163.9453 290.3125,163.3789 Q290.2539,162.9883 290.0391,162.7734 Q289.6484,162.3633 288.9453,162.1289 Q288.2422,161.875 287.5391,161.875 Q286.6602,161.875 285.918,162.2266 Q285.1953,162.5781 284.6289,163.3594 Q284.0625,164.1406 284.0625,165.2148 L284.0625,166.3672 Q284.0625,167.6563 285.1172,168.5156 Q286.1719,169.375 288.0469,169.375 Q289.1602,169.375 289.9414,169.1211 Q290.3906,168.9844 290.8984,168.5352 Q291.2305,168.2813 291.4063,168.2031 Q291.582,168.125 291.7969,168.125 Q292.207,168.125 292.5,168.457 Q292.8125,168.7695 292.8125,169.2188 Q292.8125,169.6484 292.3828,170.1563 Q291.7578,170.8984 290.7617,171.3086 Q289.4531,171.875 287.8516,171.875 Q285.9766,171.875 284.4727,171.1328 Q283.2617,170.5469 282.4023,169.2773 Q281.5625,168.0078 281.5625,166.5039 L281.5625,165.1367 Q281.5625,163.5742 282.3047,162.207 Q283.0664,160.8398 284.375,160.1172 Q285.7031,159.375 287.1875,159.375 Q288.0859,159.375 288.8672,159.6875 Q289.6484,160 290.3125,160.625 Z " fill="#000000"/><text fill="#000000" font-family="sans-serif" font-size="15" lengthAdjust="spacing" textLength="128.75" x="313.4375" y="171.1377">FindShipController</text><line style="stroke:#A80036;stroke-width:1.875;" x1="215.625" x2="499.375" y1="185" y2="185"/><line style="stroke:#A80036;stroke-width:1.875;" x1="215.625" x2="499.375" y1="195" y2="195"/><text fill="#000000" font-family="sans-serif" font-size="13.75" lengthAdjust="spacing" textLength="216.25" x="221.875" y="214.2737">+findShipByMmsi(AVL avl, int mmsi)</text><text fill="#000000" font-family="sans-serif" font-size="13.75" lengthAdjust="spacing" textLength="220" x="221.875" y="231.5686">+findShipByIMO(AVL avl, String imo)</text><text fill="#000000" font-family="sans-serif" font-size="13.75" lengthAdjust="spacing" textLength="271.25" x="221.875" y="248.8635">+findShipByCallSign(AVL avl, String callSign)</text><!--MD5=[0dc7f2ddb409b58bcf52b12238c25399]
class Ship--><rect codeLine="12" fill="#FEFECE" filter="url(#f1pq5lfe5116b6)" height="77.2949" id="Ship" style="stroke:#A80036;stroke-width:1.875;" width="185" x="8.75" y="355"/><ellipse cx="80.3125" cy="375" fill="#ADD1B2" rx="13.75" ry="13.75" style="stroke:#A80036;stroke-width:1.25;"/><path d="M82.8125,370.625 Q83.0664,370 83.3594,369.6875 Q83.6523,369.375 83.9844,369.375 Q84.5703,369.375 84.9414,369.7266 Q85.3125,370.0781 85.3125,370.8984 L85.3125,372.8516 Q85.3125,373.6719 84.9609,374.0234 Q84.6094,374.375 84.0625,374.375 Q83.5742,374.375 83.2617,374.1602 Q82.9492,373.9453 82.8125,373.3789 Q82.7539,372.9883 82.5391,372.7734 Q82.1484,372.3633 81.4453,372.1289 Q80.7422,371.875 80.0391,371.875 Q79.1602,371.875 78.418,372.2266 Q77.6953,372.5781 77.1289,373.3594 Q76.5625,374.1406 76.5625,375.2148 L76.5625,376.3672 Q76.5625,377.6563 77.6172,378.5156 Q78.6719,379.375 80.5469,379.375 Q81.6602,379.375 82.4414,379.1211 Q82.8906,378.9844 83.3984,378.5352 Q83.7305,378.2813 83.9063,378.2031 Q84.082,378.125 84.2969,378.125 Q84.707,378.125 85,378.457 Q85.3125,378.7695 85.3125,379.2188 Q85.3125,379.6484 84.8828,380.1563 Q84.2578,380.8984 83.2617,381.3086 Q81.9531,381.875 80.3516,381.875 Q78.4766,381.875 76.9727,381.1328 Q75.7617,380.5469 74.9023,379.2773 Q74.0625,378.0078 74.0625,376.5039 L74.0625,375.1367 Q74.0625,373.5742 74.8047,372.207 Q75.5664,370.8398 76.875,370.1172 Q78.2031,369.375 79.6875,369.375 Q80.5859,369.375 81.3672,369.6875 Q82.1484,370 82.8125,370.625 Z " fill="#000000"/><text fill="#000000" font-family="sans-serif" font-size="15" lengthAdjust="spacing" textLength="31.25" x="105.9375" y="381.1377">Ship</text><line style="stroke:#A80036;stroke-width:1.875;" x1="10" x2="192.5" y1="395" y2="395"/><line style="stroke:#A80036;stroke-width:1.875;" x1="10" x2="192.5" y1="405" y2="405"/><text fill="#000000" font-family="sans-serif" font-size="13.75" lengthAdjust="spacing" textLength="170" x="16.25" y="424.2737">+findShip(AVL avl, int mmsi)</text><!--MD5=[76c64cf519b79fd01de2fb03066f8d81]
class AVL--><rect codeLine="16" fill="#FEFECE" filter="url(#f1pq5lfe5116b6)" height="94.5898" id="AVL" style="stroke:#A80036;stroke-width:1.875;" width="87.5" x="313.75" y="530"/><ellipse cx="342.0625" cy="550" fill="#ADD1B2" rx="13.75" ry="13.75" style="stroke:#A80036;stroke-width:1.25;"/><path d="M344.5625,545.625 Q344.8164,545 345.1094,544.6875 Q345.4023,544.375 345.7344,544.375 Q346.3203,544.375 346.6914,544.7266 Q347.0625,545.0781 347.0625,545.8984 L347.0625,547.8516 Q347.0625,548.6719 346.7109,549.0234 Q346.3594,549.375 345.8125,549.375 Q345.3242,549.375 345.0117,549.1602 Q344.6992,548.9453 344.5625,548.3789 Q344.5039,547.9883 344.2891,547.7734 Q343.8984,547.3633 343.1953,547.1289 Q342.4922,546.875 341.7891,546.875 Q340.9102,546.875 340.168,547.2266 Q339.4453,547.5781 338.8789,548.3594 Q338.3125,549.1406 338.3125,550.2148 L338.3125,551.3672 Q338.3125,552.6563 339.3672,553.5156 Q340.4219,554.375 342.2969,554.375 Q343.4102,554.375 344.1914,554.1211 Q344.6406,553.9844 345.1484,553.5352 Q345.4805,553.2813 345.6563,553.2031 Q345.832,553.125 346.0469,553.125 Q346.457,553.125 346.75,553.457 Q347.0625,553.7695 347.0625,554.2188 Q347.0625,554.6484 346.6328,555.1563 Q346.0078,555.8984 345.0117,556.3086 Q343.7031,556.875 342.1016,556.875 Q340.2266,556.875 338.7227,556.1328 Q337.5117,555.5469 336.6523,554.2773 Q335.8125,553.0078 335.8125,551.5039 L335.8125,550.1367 Q335.8125,548.5742 336.5547,547.207 Q337.3164,545.8398 338.625,545.1172 Q339.9531,544.375 341.4375,544.375 Q342.3359,544.375 343.1172,544.6875 Q343.8984,545 344.5625,545.625 Z " fill="#000000"/><text fill="#000000" font-family="sans-serif" font-size="15" lengthAdjust="spacing" textLength="26.25" x="361.6875" y="556.1377">AVL</text><line style="stroke:#A80036;stroke-width:1.875;" x1="315" x2="400" y1="570" y2="570"/><line style="stroke:#A80036;stroke-width:1.875;" x1="315" x2="400" y1="580" y2="580"/><text fill="#000000" font-family="sans-serif" font-size="13.75" lengthAdjust="spacing" textLength="63.75" x="321.25" y="599.2737">+isEmpty()</text><text fill="#000000" font-family="sans-serif" font-size="13.75" lengthAdjust="spacing" textLength="72.5" x="321.25" y="616.5686">+preOrder()</text><!--MD5=[ddb21f07467a5cf6167a2813fcce3334]
class ShipOrderedByIMO--><rect codeLine="21" fill="#FEFECE" filter="url(#f1pq5lfe5116b6)" height="77.2949" id="ShipOrderedByIMO" style="stroke:#A80036;stroke-width:1.875;" width="238.75" x="238.125" y="355"/><ellipse cx="287.8125" cy="375" fill="#ADD1B2" rx="13.75" ry="13.75" style="stroke:#A80036;stroke-width:1.25;"/><path d="M290.3125,370.625 Q290.5664,370 290.8594,369.6875 Q291.1523,369.375 291.4844,369.375 Q292.0703,369.375 292.4414,369.7266 Q292.8125,370.0781 292.8125,370.8984 L292.8125,372.8516 Q292.8125,373.6719 292.4609,374.0234 Q292.1094,374.375 291.5625,374.375 Q291.0742,374.375 290.7617,374.1602 Q290.4492,373.9453 290.3125,373.3789 Q290.2539,372.9883 290.0391,372.7734 Q289.6484,372.3633 288.9453,372.1289 Q288.2422,371.875 287.5391,371.875 Q286.6602,371.875 285.918,372.2266 Q285.1953,372.5781 284.6289,373.3594 Q284.0625,374.1406 284.0625,375.2148 L284.0625,376.3672 Q284.0625,377.6563 285.1172,378.5156 Q286.1719,379.375 288.0469,379.375 Q289.1602,379.375 289.9414,379.1211 Q290.3906,378.9844 290.8984,378.5352 Q291.2305,378.2813 291.4063,378.2031 Q291.582,378.125 291.7969,378.125 Q292.207,378.125 292.5,378.457 Q292.8125,378.7695 292.8125,379.2188 Q292.8125,379.6484 292.3828,380.1563 Q291.7578,380.8984 290.7617,381.3086 Q289.4531,381.875 287.8516,381.875 Q285.9766,381.875 284.4727,381.1328 Q283.2617,380.5469 282.4023,379.2773 Q281.5625,378.0078 281.5625,376.5039 L281.5625,375.1367 Q281.5625,373.5742 282.3047,372.207 Q283.0664,370.8398 284.375,370.1172 Q285.7031,369.375 287.1875,369.375 Q288.0859,369.375 288.8672,369.6875 Q289.6484,370 290.3125,370.625 Z " fill="#000000"/><text fill="#000000" font-family="sans-serif" font-size="15" lengthAdjust="spacing" textLength="130" x="312.1875" y="381.1377">ShipOrderedByIMO</text><line style="stroke:#A80036;stroke-width:1.875;" x1="239.375" x2="475.625" y1="395" y2="395"/><line style="stroke:#A80036;stroke-width:1.875;" x1="239.375" x2="475.625" y1="405" y2="405"/><text fill="#000000" font-family="sans-serif" font-size="13.75" lengthAdjust="spacing" textLength="223.75" x="245.625" y="424.2737">+findShipByIMO(AVL avl , String imo)</text><!--MD5=[64839cff583bef17601c839798f5d0e2]
class ShipOrderedByCallSign--><rect codeLine="25" fill="#FEFECE" filter="url(#f1pq5lfe5116b6)" height="77.2949" id="ShipOrderedByCallSign" style="stroke:#A80036;stroke-width:1.875;" width="290" x="521.25" y="355"/><ellipse cx="579.6875" cy="375" fill="#ADD1B2" rx="13.75" ry="13.75" style="stroke:#A80036;stroke-width:1.25;"/><path d="M582.1875,370.625 Q582.4414,370 582.7344,369.6875 Q583.0273,369.375 583.3594,369.375 Q583.9453,369.375 584.3164,369.7266 Q584.6875,370.0781 584.6875,370.8984 L584.6875,372.8516 Q584.6875,373.6719 584.3359,374.0234 Q583.9844,374.375 583.4375,374.375 Q582.9492,374.375 582.6367,374.1602 Q582.3242,373.9453 582.1875,373.3789 Q582.1289,372.9883 581.9141,372.7734 Q581.5234,372.3633 580.8203,372.1289 Q580.1172,371.875 579.4141,371.875 Q578.5352,371.875 577.793,372.2266 Q577.0703,372.5781 576.5039,373.3594 Q575.9375,374.1406 575.9375,375.2148 L575.9375,376.3672 Q575.9375,377.6563 576.9922,378.5156 Q578.0469,379.375 579.9219,379.375 Q581.0352,379.375 581.8164,379.1211 Q582.2656,378.9844 582.7734,378.5352 Q583.1055,378.2813 583.2813,378.2031 Q583.457,378.125 583.6719,378.125 Q584.082,378.125 584.375,378.457 Q584.6875,378.7695 584.6875,379.2188 Q584.6875,379.6484 584.2578,380.1563 Q583.6328,380.8984 582.6367,381.3086 Q581.3281,381.875 579.7266,381.875 Q577.8516,381.875 576.3477,381.1328 Q575.1367,380.5469 574.2773,379.2773 Q573.4375,378.0078 573.4375,376.5039 L573.4375,375.1367 Q573.4375,373.5742 574.1797,372.207 Q574.9414,370.8398 576.25,370.1172 Q577.5781,369.375 579.0625,369.375 Q579.9609,369.375 580.7422,369.6875 Q581.5234,370 582.1875,370.625 Z " fill="#000000"/><text fill="#000000" font-family="sans-serif" font-size="15" lengthAdjust="spacing" textLength="162.5" x="605.3125" y="381.1377">ShipOrderedByCallSign</text><line style="stroke:#A80036;stroke-width:1.875;" x1="522.5" x2="810" y1="395" y2="395"/><line style="stroke:#A80036;stroke-width:1.875;" x1="522.5" x2="810" y1="405" y2="405"/><text fill="#000000" font-family="sans-serif" font-size="13.75" lengthAdjust="spacing" textLength="275" x="528.75" y="424.2737">+findShipByCallSign(AVL avl , String callSign)</text><!--MD5=[e5694e0cd3b07d24131cd6550559be08]
link FindShipUI to FindShipController--><path codeLine="30" d="M357.5,68.975 C357.5,88.2375 357.5,114.275 357.5,138.0625 " fill="none" id="FindShipUI-to-FindShipController" style="stroke:#A80036;stroke-width:1.25;stroke-dasharray:7.0,7.0;"/><polygon fill="#A80036" points="357.5,144.7,362.5,133.45,357.5,138.45,352.5,133.45,357.5,144.7" style="stroke:#A80036;stroke-width:1.25;"/><!--MD5=[ba157c86b5e52948408130c88f43b898]
link FindShipController to Ship--><path codeLine="31" d="M283.0375,257.7125 C242.9,287.475 194.175,323.6 157.2875,350.95 " fill="none" id="FindShipController-to-Ship" style="stroke:#A80036;stroke-width:1.25;"/><polygon fill="#A80036" points="151.925,354.925,163.9466,352.271,156.9548,351.2151,158.0107,344.2233,151.925,354.925" style="stroke:#A80036;stroke-width:1.25;"/><text fill="#000000" font-family="sans-serif" font-size="16.25" lengthAdjust="spacing" textLength="35" x="231.25" y="313.1189">uses</text><text fill="#000000" font-family="sans-serif" font-size="16.25" lengthAdjust="spacing" textLength="8.75" x="263.6937" y="283.5832">1</text><text fill="#000000" font-family="sans-serif" font-size="16.25" lengthAdjust="spacing" textLength="25" x="135.2758" y="341.1839">1..*</text><!--MD5=[eaf0156fbcf49eb69057481b7d87de29]
link FindShipController to ShipOrderedByIMO--><path codeLine="32" d="M357.5,257.9625 C357.5,286.7625 357.5,321.4625 357.5,348.4125 " fill="none" id="FindShipController-to-ShipOrderedByIMO" style="stroke:#A80036;stroke-width:1.25;"/><polygon fill="#A80036" points="357.5,354.7375,362.5,343.4875,357.5,348.4875,352.5,343.4875,357.5,354.7375" style="stroke:#A80036;stroke-width:1.25;"/><text fill="#000000" font-family="sans-serif" font-size="16.25" lengthAdjust="spacing" textLength="35" x="358.75" y="313.1189">uses</text><text fill="#000000" font-family="sans-serif" font-size="16.25" lengthAdjust="spacing" textLength="8.75" x="348.1621" y="283.8668">1</text><text fill="#000000" font-family="sans-serif" font-size="16.25" lengthAdjust="spacing" textLength="25" x="329.9219" y="341.564">1..*</text><!--MD5=[7efaaa889c5aae270d98bf2685e56aca]
link FindShipController to ShipOrderedByCallSign--><path codeLine="33" d="M447.2125,257.7125 C495.975,287.7125 555.25,324.1875 599.825,351.625 " fill="none" id="FindShipController-to-ShipOrderedByCallSign" style="stroke:#A80036;stroke-width:1.25;"/><polygon fill="#A80036" points="605.1875,354.925,598.242,344.7602,599.8695,351.6414,592.9883,353.2689,605.1875,354.925" style="stroke:#A80036;stroke-width:1.25;"/><text fill="#000000" font-family="sans-serif" font-size="16.25" lengthAdjust="spacing" textLength="35" x="541.25" y="313.1189">uses</text><text fill="#000000" font-family="sans-serif" font-size="16.25" lengthAdjust="spacing" textLength="8.75" x="449.9297" y="283.5832">1</text><text fill="#000000" font-family="sans-serif" font-size="16.25" lengthAdjust="spacing" textLength="8.75" x="582.123" y="341.1839">1</text><!--MD5=[2a70cd94f1622fe57e1173f0e4cda925]
link Ship to AVL--><path codeLine="34" d="M154.35,432.55 C199.5625,464.5375 264.0375,510.1375 308.15,541.3375 " fill="none" id="Ship-to-AVL" style="stroke:#A80036;stroke-width:1.25;"/><polygon fill="#A80036" points="313.425,545.075,307.1204,534.5007,308.3199,541.4693,301.3514,542.6688,313.425,545.075" style="stroke:#A80036;stroke-width:1.25;"/><text fill="#000000" font-family="sans-serif" font-size="16.25" lengthAdjust="spacing" textLength="35" x="238.75" y="488.1189">uses</text><text fill="#000000" font-family="sans-serif" font-size="16.25" lengthAdjust="spacing" textLength="8.75" x="155.1927" y="459.0898">1</text><text fill="#000000" font-family="sans-serif" font-size="16.25" lengthAdjust="spacing" textLength="8.75" x="295.1364" y="533.6751">1</text><!--MD5=[c767dd5a98881ffbb1ee885f6fd5ee36]
link ShipOrderedByIMO to AVL--><path codeLine="35" d="M357.5,432.55 C357.5,458.775 357.5,494.15 357.5,523.2375 " fill="none" id="ShipOrderedByIMO-to-AVL" style="stroke:#A80036;stroke-width:1.25;"/><polygon fill="#A80036" points="357.5,529.725,362.5,518.475,357.5,523.475,352.5,518.475,357.5,529.725" style="stroke:#A80036;stroke-width:1.25;"/><text fill="#000000" font-family="sans-serif" font-size="16.25" lengthAdjust="spacing" textLength="35" x="358.75" y="488.1189">uses</text><text fill="#000000" font-family="sans-serif" font-size="16.25" lengthAdjust="spacing" textLength="8.75" x="347.8887" y="459.0898">1</text><text fill="#000000" font-family="sans-serif" font-size="16.25" lengthAdjust="spacing" textLength="8.75" x="347.9707" y="516.3784">1</text><!--MD5=[82c9009a558eb16d54d7d92daf644268]
link ShipOrderedByCallSign to AVL--><path codeLine="36" d="M602.275,432.55 C544.3375,466.575 460.15,515.9875 407.15,547.1 " fill="none" id="ShipOrderedByCallSign-to-AVL" style="stroke:#A80036;stroke-width:1.25;"/><polygon fill="#A80036" points="401.475,550.4375,413.7091,549.0627,406.8671,547.2772,408.6526,540.4353,401.475,550.4375" style="stroke:#A80036;stroke-width:1.25;"/><text fill="#000000" font-family="sans-serif" font-size="16.25" lengthAdjust="spacing" textLength="35" x="532.5" y="488.1189">uses</text><text fill="#000000" font-family="sans-serif" font-size="16.25" lengthAdjust="spacing" textLength="8.75" x="580.0686" y="459.0898">1</text><text fill="#000000" font-family="sans-serif" font-size="16.25" lengthAdjust="spacing" textLength="8.75" x="411.4472" y="539.7499">1</text><!--MD5=[e632f8a978802eef3051c2a76aab4e7f]
@startuml
skinparam classAttributeIconSize 0

class FindShipUI{
}

class FindShipController{
+ findShipByMmsi(AVL avl, int mmsi)
+ findShipByIMO(AVL avl, String imo)
+ findShipByCallSign(AVL avl, String callSign)
}

class Ship{
+ findShip(AVL avl, int mmsi)
}

class AVL{
+ isEmpty()
+ preOrder()
}

class ShipOrderedByIMO{
+ findShipByIMO(AVL avl , String imo)
}

class ShipOrderedByCallSign{
+ findShipByCallSign(AVL avl , String callSign)
}


FindShipController <.up. FindShipUI
FindShipController "1" - -> "1..*" Ship : uses
FindShipController "1" - -> "1..*" ShipOrderedByIMO : uses
FindShipController "1" - -> "1" ShipOrderedByCallSign : uses
Ship "1" - -> "1" AVL : uses
ShipOrderedByIMO "1" - -> "1" AVL : uses
ShipOrderedByCallSign "1" - -> "1" AVL : uses



@enduml

PlantUML version 1.2021.7(Sun May 23 13:40:07 BST 2021)
(GPL source distribution)
Java Runtime: OpenJDK Runtime Environment
JVM: OpenJDK 64-Bit Server VM
Default Encoding: Cp1252
Language: pt
Country: PT
--></g></svg>