<?xml version="1.0" encoding="UTF-8" standalone="no"?><svg xmlns="http://www.w3.org/2000/svg" xmlns:xlink="http://www.w3.org/1999/xlink" contentScriptType="application/ecmascript" contentStyleType="text/css" height="486.25px" preserveAspectRatio="none" style="width:486px;height:486px;background:#FFFFFF;" version="1.1" viewBox="0 0 486 486" width="486.25px" zoomAndPan="magnify"><defs><filter height="300%" id="fo4ouqi67opsg" width="300%" x="-1" y="-1"><feGaussianBlur result="blurOut" stdDeviation="2.5"/><feColorMatrix in="blurOut" result="blurOut2" type="matrix" values="0 0 0 0 0 0 0 0 0 0 0 0 0 0 0 0 0 0 .4 0"/><feOffset dx="5.0" dy="5.0" in="blurOut2" result="blurOut3"/><feBlend in="SourceGraphic" in2="blurOut3" mode="normal"/></filter></defs><g><!--MD5=[a0bfe97ac0a38e6e74cc1c7c7b744b71]
class Port--><rect codeLine="1" fill="#FEFECE" filter="url(#fo4ouqi67opsg)" height="163.7695" id="Port" style="stroke:#A80036;stroke-width:1.875;" width="87.5" x="195" y="305"/><ellipse cx="222.75" cy="325" fill="#ADD1B2" rx="13.75" ry="13.75" style="stroke:#A80036;stroke-width:1.25;"/><path d="M225.25,320.625 Q225.5039,320 225.7969,319.6875 Q226.0898,319.375 226.4219,319.375 Q227.0078,319.375 227.3789,319.7266 Q227.75,320.0781 227.75,320.8984 L227.75,322.8516 Q227.75,323.6719 227.3984,324.0234 Q227.0469,324.375 226.5,324.375 Q226.0117,324.375 225.6992,324.1602 Q225.3867,323.9453 225.25,323.3789 Q225.1914,322.9883 224.9766,322.7734 Q224.5859,322.3633 223.8828,322.1289 Q223.1797,321.875 222.4766,321.875 Q221.5977,321.875 220.8555,322.2266 Q220.1328,322.5781 219.5664,323.3594 Q219,324.1406 219,325.2148 L219,326.3672 Q219,327.6563 220.0547,328.5156 Q221.1094,329.375 222.9844,329.375 Q224.0977,329.375 224.8789,329.1211 Q225.3281,328.9844 225.8359,328.5352 Q226.168,328.2813 226.3438,328.2031 Q226.5195,328.125 226.7344,328.125 Q227.1445,328.125 227.4375,328.457 Q227.75,328.7695 227.75,329.2188 Q227.75,329.6484 227.3203,330.1563 Q226.6953,330.8984 225.6992,331.3086 Q224.3906,331.875 222.7891,331.875 Q220.9141,331.875 219.4102,331.1328 Q218.1992,330.5469 217.3398,329.2773 Q216.5,328.0078 216.5,326.5039 L216.5,325.1367 Q216.5,323.5742 217.2422,322.207 Q218.0039,320.8398 219.3125,320.1172 Q220.6406,319.375 222.125,319.375 Q223.0234,319.375 223.8047,319.6875 Q224.5859,320 225.25,320.625 Z " fill="#000000"/><text fill="#000000" font-family="sans-serif" font-size="15" lengthAdjust="spacing" textLength="27.5" x="242.25" y="331.1377">Port</text><line style="stroke:#A80036;stroke-width:1.875;" x1="196.25" x2="281.25" y1="345" y2="345"/><rect fill="none" height="7.5" style="stroke:#C82930;stroke-width:1.25;" width="7.5" x="205" y="355"/><text fill="#000000" font-family="sans-serif" font-size="13.75" lengthAdjust="spacing" textLength="30" x="220" y="364.2737">code</text><rect fill="none" height="7.5" style="stroke:#C82930;stroke-width:1.25;" width="7.5" x="205" y="372.2949"/><text fill="#000000" font-family="sans-serif" font-size="13.75" lengthAdjust="spacing" textLength="23.75" x="220" y="381.5686">port</text><rect fill="none" height="7.5" style="stroke:#C82930;stroke-width:1.25;" width="7.5" x="205" y="389.5898"/><text fill="#000000" font-family="sans-serif" font-size="13.75" lengthAdjust="spacing" textLength="55" x="220" y="398.8635">continent</text><rect fill="none" height="7.5" style="stroke:#C82930;stroke-width:1.25;" width="7.5" x="205" y="406.8848"/><text fill="#000000" font-family="sans-serif" font-size="13.75" lengthAdjust="spacing" textLength="46.25" x="220" y="416.1584">country</text><rect fill="none" height="7.5" style="stroke:#C82930;stroke-width:1.25;" width="7.5" x="205" y="424.1797"/><text fill="#000000" font-family="sans-serif" font-size="13.75" lengthAdjust="spacing" textLength="13.75" x="220" y="433.4534">lat</text><rect fill="none" height="7.5" style="stroke:#C82930;stroke-width:1.25;" width="7.5" x="205" y="441.4746"/><text fill="#000000" font-family="sans-serif" font-size="13.75" lengthAdjust="spacing" textLength="25" x="220" y="450.7483">long</text><line style="stroke:#A80036;stroke-width:1.875;" x1="196.25" x2="281.25" y1="458.7695" y2="458.7695"/><!--MD5=[deb4e1f6eb1e3c1256fdb830f96abfbb]
class Country--><rect codeLine="10" fill="#FEFECE" filter="url(#fo4ouqi67opsg)" height="198.3594" id="Country" style="stroke:#A80036;stroke-width:1.875;" width="92.5" x="192.5" y="8.75"/><ellipse cx="211.25" cy="28.75" fill="#ADD1B2" rx="13.75" ry="13.75" style="stroke:#A80036;stroke-width:1.25;"/><path d="M213.75,24.375 Q214.0039,23.75 214.2969,23.4375 Q214.5898,23.125 214.9219,23.125 Q215.5078,23.125 215.8789,23.4766 Q216.25,23.8281 216.25,24.6484 L216.25,26.6016 Q216.25,27.4219 215.8984,27.7734 Q215.5469,28.125 215,28.125 Q214.5117,28.125 214.1992,27.9102 Q213.8867,27.6953 213.75,27.1289 Q213.6914,26.7383 213.4766,26.5234 Q213.0859,26.1133 212.3828,25.8789 Q211.6797,25.625 210.9766,25.625 Q210.0977,25.625 209.3555,25.9766 Q208.6328,26.3281 208.0664,27.1094 Q207.5,27.8906 207.5,28.9648 L207.5,30.1172 Q207.5,31.4063 208.5547,32.2656 Q209.6094,33.125 211.4844,33.125 Q212.5977,33.125 213.3789,32.8711 Q213.8281,32.7344 214.3359,32.2852 Q214.668,32.0313 214.8438,31.9531 Q215.0195,31.875 215.2344,31.875 Q215.6445,31.875 215.9375,32.207 Q216.25,32.5195 216.25,32.9688 Q216.25,33.3984 215.8203,33.9063 Q215.1953,34.6484 214.1992,35.0586 Q212.8906,35.625 211.2891,35.625 Q209.4141,35.625 207.9102,34.8828 Q206.6992,34.2969 205.8398,33.0273 Q205,31.7578 205,30.2539 L205,28.8867 Q205,27.3242 205.7422,25.957 Q206.5039,24.5898 207.8125,23.8672 Q209.1406,23.125 210.625,23.125 Q211.5234,23.125 212.3047,23.4375 Q213.0859,23.75 213.75,24.375 Z " fill="#000000"/><text fill="#000000" font-family="sans-serif" font-size="15" lengthAdjust="spacing" textLength="52.5" x="228.75" y="34.8877">Country</text><line style="stroke:#A80036;stroke-width:1.875;" x1="193.75" x2="283.75" y1="48.75" y2="48.75"/><rect fill="none" height="7.5" style="stroke:#C82930;stroke-width:1.25;" width="7.5" x="202.5" y="58.75"/><text fill="#000000" font-family="sans-serif" font-size="13.75" lengthAdjust="spacing" textLength="55" x="217.5" y="68.0237">continent</text><rect fill="none" height="7.5" style="stroke:#C82930;stroke-width:1.25;" width="7.5" x="202.5" y="76.0449"/><text fill="#000000" font-family="sans-serif" font-size="13.75" lengthAdjust="spacing" textLength="15" x="217.5" y="85.3186">a2</text><rect fill="none" height="7.5" style="stroke:#C82930;stroke-width:1.25;" width="7.5" x="202.5" y="93.3398"/><text fill="#000000" font-family="sans-serif" font-size="13.75" lengthAdjust="spacing" textLength="15" x="217.5" y="102.6135">a3</text><rect fill="none" height="7.5" style="stroke:#C82930;stroke-width:1.25;" width="7.5" x="202.5" y="110.6348"/><text fill="#000000" font-family="sans-serif" font-size="13.75" lengthAdjust="spacing" textLength="32.5" x="217.5" y="119.9084">name</text><rect fill="none" height="7.5" style="stroke:#C82930;stroke-width:1.25;" width="7.5" x="202.5" y="127.9297"/><text fill="#000000" font-family="sans-serif" font-size="13.75" lengthAdjust="spacing" textLength="22.5" x="217.5" y="137.2034">pop</text><rect fill="none" height="7.5" style="stroke:#C82930;stroke-width:1.25;" width="7.5" x="202.5" y="145.2246"/><text fill="#000000" font-family="sans-serif" font-size="13.75" lengthAdjust="spacing" textLength="22.5" x="217.5" y="154.4983">cap</text><rect fill="none" height="7.5" style="stroke:#C82930;stroke-width:1.25;" width="7.5" x="202.5" y="162.5195"/><text fill="#000000" font-family="sans-serif" font-size="13.75" lengthAdjust="spacing" textLength="13.75" x="217.5" y="171.7932">lat</text><rect fill="none" height="7.5" style="stroke:#C82930;stroke-width:1.25;" width="7.5" x="202.5" y="179.8145"/><text fill="#000000" font-family="sans-serif" font-size="13.75" lengthAdjust="spacing" textLength="27.5" x="217.5" y="189.0881">longi</text><line style="stroke:#A80036;stroke-width:1.875;" x1="193.75" x2="283.75" y1="197.1094" y2="197.1094"/><!--MD5=[dfbe5b5b3f161c49668938220e8b8432]
class SeaDist--><rect codeLine="21" fill="#FEFECE" filter="url(#fo4ouqi67opsg)" height="181.0645" id="SeaDist" style="stroke:#A80036;stroke-width:1.875;" width="95" x="373.75" y="17.5"/><ellipse cx="392.5" cy="37.5" fill="#ADD1B2" rx="13.75" ry="13.75" style="stroke:#A80036;stroke-width:1.25;"/><path d="M395,33.125 Q395.2539,32.5 395.5469,32.1875 Q395.8398,31.875 396.1719,31.875 Q396.7578,31.875 397.1289,32.2266 Q397.5,32.5781 397.5,33.3984 L397.5,35.3516 Q397.5,36.1719 397.1484,36.5234 Q396.7969,36.875 396.25,36.875 Q395.7617,36.875 395.4492,36.6602 Q395.1367,36.4453 395,35.8789 Q394.9414,35.4883 394.7266,35.2734 Q394.3359,34.8633 393.6328,34.6289 Q392.9297,34.375 392.2266,34.375 Q391.3477,34.375 390.6055,34.7266 Q389.8828,35.0781 389.3164,35.8594 Q388.75,36.6406 388.75,37.7148 L388.75,38.8672 Q388.75,40.1563 389.8047,41.0156 Q390.8594,41.875 392.7344,41.875 Q393.8477,41.875 394.6289,41.6211 Q395.0781,41.4844 395.5859,41.0352 Q395.918,40.7813 396.0938,40.7031 Q396.2695,40.625 396.4844,40.625 Q396.8945,40.625 397.1875,40.957 Q397.5,41.2695 397.5,41.7188 Q397.5,42.1484 397.0703,42.6563 Q396.4453,43.3984 395.4492,43.8086 Q394.1406,44.375 392.5391,44.375 Q390.6641,44.375 389.1602,43.6328 Q387.9492,43.0469 387.0898,41.7773 Q386.25,40.5078 386.25,39.0039 L386.25,37.6367 Q386.25,36.0742 386.9922,34.707 Q387.7539,33.3398 389.0625,32.6172 Q390.3906,31.875 391.875,31.875 Q392.7734,31.875 393.5547,32.1875 Q394.3359,32.5 395,33.125 Z " fill="#000000"/><text fill="#000000" font-family="sans-serif" font-size="15" lengthAdjust="spacing" textLength="55" x="410" y="43.6377">SeaDist</text><line style="stroke:#A80036;stroke-width:1.875;" x1="375" x2="467.5" y1="57.5" y2="57.5"/><rect fill="none" height="7.5" style="stroke:#C82930;stroke-width:1.25;" width="7.5" x="383.75" y="67.5"/><text fill="#000000" font-family="sans-serif" font-size="13.75" lengthAdjust="spacing" textLength="52.5" x="398.75" y="76.7737">fCountry</text><rect fill="none" height="7.5" style="stroke:#C82930;stroke-width:1.25;" width="7.5" x="383.75" y="84.7949"/><text fill="#000000" font-family="sans-serif" font-size="13.75" lengthAdjust="spacing" textLength="38.75" x="398.75" y="94.0686">fPortId</text><rect fill="none" height="7.5" style="stroke:#C82930;stroke-width:1.25;" width="7.5" x="383.75" y="102.0898"/><text fill="#000000" font-family="sans-serif" font-size="13.75" lengthAdjust="spacing" textLength="28.75" x="398.75" y="111.3635">fPort</text><rect fill="none" height="7.5" style="stroke:#C82930;stroke-width:1.25;" width="7.5" x="383.75" y="119.3848"/><text fill="#000000" font-family="sans-serif" font-size="13.75" lengthAdjust="spacing" textLength="51.25" x="398.75" y="128.6584">tCountry</text><rect fill="none" height="7.5" style="stroke:#C82930;stroke-width:1.25;" width="7.5" x="383.75" y="136.6797"/><text fill="#000000" font-family="sans-serif" font-size="13.75" lengthAdjust="spacing" textLength="37.5" x="398.75" y="145.9534">tPortId</text><rect fill="none" height="7.5" style="stroke:#C82930;stroke-width:1.25;" width="7.5" x="383.75" y="153.9746"/><text fill="#000000" font-family="sans-serif" font-size="13.75" lengthAdjust="spacing" textLength="27.5" x="398.75" y="163.2483">tPort</text><rect fill="none" height="7.5" style="stroke:#C82930;stroke-width:1.25;" width="7.5" x="383.75" y="171.2695"/><text fill="#000000" font-family="sans-serif" font-size="13.75" lengthAdjust="spacing" textLength="21.25" x="398.75" y="180.5432">dist</text><line style="stroke:#A80036;stroke-width:1.875;" x1="375" x2="467.5" y1="188.5645" y2="188.5645"/><!--MD5=[066037a53202b7407297f1cd0d8196d4]
class Borders--><rect codeLine="31" fill="#FEFECE" filter="url(#fo4ouqi67opsg)" height="60" id="Borders" style="stroke:#A80036;stroke-width:1.875;" width="95" x="8.75" y="78.125"/><ellipse cx="27.5" cy="98.125" fill="#ADD1B2" rx="13.75" ry="13.75" style="stroke:#A80036;stroke-width:1.25;"/><path d="M30,93.75 Q30.2539,93.125 30.5469,92.8125 Q30.8398,92.5 31.1719,92.5 Q31.7578,92.5 32.1289,92.8516 Q32.5,93.2031 32.5,94.0234 L32.5,95.9766 Q32.5,96.7969 32.1484,97.1484 Q31.7969,97.5 31.25,97.5 Q30.7617,97.5 30.4492,97.2852 Q30.1367,97.0703 30,96.5039 Q29.9414,96.1133 29.7266,95.8984 Q29.3359,95.4883 28.6328,95.2539 Q27.9297,95 27.2266,95 Q26.3477,95 25.6055,95.3516 Q24.8828,95.7031 24.3164,96.4844 Q23.75,97.2656 23.75,98.3398 L23.75,99.4922 Q23.75,100.7813 24.8047,101.6406 Q25.8594,102.5 27.7344,102.5 Q28.8477,102.5 29.6289,102.2461 Q30.0781,102.1094 30.5859,101.6602 Q30.918,101.4063 31.0938,101.3281 Q31.2695,101.25 31.4844,101.25 Q31.8945,101.25 32.1875,101.582 Q32.5,101.8945 32.5,102.3438 Q32.5,102.7734 32.0703,103.2813 Q31.4453,104.0234 30.4492,104.4336 Q29.1406,105 27.5391,105 Q25.6641,105 24.1602,104.2578 Q22.9492,103.6719 22.0898,102.4023 Q21.25,101.1328 21.25,99.6289 L21.25,98.2617 Q21.25,96.6992 21.9922,95.332 Q22.7539,93.9648 24.0625,93.2422 Q25.3906,92.5 26.875,92.5 Q27.7734,92.5 28.5547,92.8125 Q29.3359,93.125 30,93.75 Z " fill="#000000"/><text fill="#000000" font-family="sans-serif" font-size="15" lengthAdjust="spacing" textLength="55" x="45" y="104.2627">Borders</text><line style="stroke:#A80036;stroke-width:1.875;" x1="10" x2="102.5" y1="118.125" y2="118.125"/><line style="stroke:#A80036;stroke-width:1.875;" x1="10" x2="102.5" y1="128.125" y2="128.125"/><!--MD5=[1c49245d7a7e90fcfb9bb62e49d927d2]
link Country to Port--><path codeLine="34" d="M238.75,207.55 C238.75,239.3375 238.75,274.225 238.75,304.625 " fill="none" id="Country-Port" style="stroke:#A80036;stroke-width:1.25;"/><polygon fill="#000000" points="245,250.2197,241.3263,261.5261,248.6737,261.5261,245,250.2197" style="stroke:#000000;stroke-width:1.25;"/><text fill="#000000" font-family="sans-serif" font-size="16.25" lengthAdjust="spacing" textLength="26.25" x="256.25" y="263.1189">has</text><text fill="#000000" font-family="sans-serif" font-size="16.25" lengthAdjust="spacing" textLength="25" x="212.6758" y="233.8583">1..*</text><text fill="#000000" font-family="sans-serif" font-size="16.25" lengthAdjust="spacing" textLength="8.75" x="229.5215" y="291.427">1</text><!--MD5=[77af34214d877ef99f13fad4964590e9]
link Borders to Country--><path codeLine="35" d="M104.2,108.125 C131.45,108.125 165.4,108.125 192.375,108.125 " fill="none" id="Borders-Country" style="stroke:#A80036;stroke-width:1.25;"/><polygon fill="#000000" points="125.625,93.3447,136.9314,97.0184,136.9314,89.6711,125.625,93.3447" style="stroke:#000000;stroke-width:1.25;"/><text fill="#000000" font-family="sans-serif" font-size="16.25" lengthAdjust="spacing" textLength="26.25" x="143.125" y="99.9939">has</text><text fill="#000000" font-family="sans-serif" font-size="16.25" lengthAdjust="spacing" textLength="25" x="113.8342" y="126.6227">1..*</text><text fill="#000000" font-family="sans-serif" font-size="16.25" lengthAdjust="spacing" textLength="8.75" x="173.6336" y="103.1069">1</text><!--MD5=[6e00bc214f0f2ea1746544669627ee08]
link Country to SeaDist--><path codeLine="36" d="M285.275,108.125 C312.3125,108.125 346.3,108.125 373.5375,108.125 " fill="none" id="Country-SeaDist" style="stroke:#A80036;stroke-width:1.25;"/><polygon fill="#000000" points="319.375,93.3447,308.0686,89.6711,308.0686,97.0184,319.375,93.3447" style="stroke:#000000;stroke-width:1.25;"/><text fill="#000000" font-family="sans-serif" font-size="16.25" lengthAdjust="spacing" textLength="26.25" x="324.375" y="99.9939">has</text><text fill="#000000" font-family="sans-serif" font-size="16.25" lengthAdjust="spacing" textLength="8.75" x="294.9778" y="103.1668">1</text><text fill="#000000" font-family="sans-serif" font-size="16.25" lengthAdjust="spacing" textLength="25" x="338.5648" y="126.7019">1..*</text><!--MD5=[dc8503930b84d3d85dfd8274be294580]
@startuml
class Port {
 - code
 - port
 - continent
 - country
 - lat
 - long
}

class Country {
- continent
- a2
- a3
- name
- pop
- cap
- lat
- longi
}

class SeaDist {
- fCountry
- fPortId
- fPort
- tCountry
- tPortId
- tPort
- dist
}

class Borders {
}

Port "1" -up- "1..*"Country :> has
Country "1" -left- "1..*" Borders:> has
Country "1" -right- "1..*" SeaDist :> has

@enduml

PlantUML version 1.2021.7(Sun May 23 13:40:07 BST 2021)
(GPL source distribution)
Java Runtime: OpenJDK Runtime Environment
JVM: OpenJDK 64-Bit Server VM
Default Encoding: Cp1252
Language: pt
Country: PT
--></g></svg>