<?xml version="1.0" encoding="UTF-8" standalone="no"?><svg xmlns="http://www.w3.org/2000/svg" xmlns:xlink="http://www.w3.org/1999/xlink" contentScriptType="application/ecmascript" contentStyleType="text/css" height="431.25px" preserveAspectRatio="none" style="width:1011px;height:431px;background:#FFFFFF;" version="1.1" viewBox="0 0 1011 431" width="1011.25px" zoomAndPan="magnify"><defs><filter height="300%" id="ft0ub83y7tche" width="300%" x="-1" y="-1"><feGaussianBlur result="blurOut" stdDeviation="2.5"/><feColorMatrix in="blurOut" result="blurOut2" type="matrix" values="0 0 0 0 0 0 0 0 0 0 0 0 0 0 0 0 0 0 .4 0"/><feOffset dx="5.0" dy="5.0" in="blurOut2" result="blurOut3"/><feBlend in="SourceGraphic" in2="blurOut3" mode="normal"/></filter></defs><g><!--MD5=[fa5993aaaae4dea17a93af6b58445d04]
class BuildGraphUI--><rect codeLine="3" fill="#FEFECE" filter="url(#ft0ub83y7tche)" height="60" id="BuildGraphUI" style="stroke:#A80036;stroke-width:1.875;" width="132.5" x="290" y="8.75"/><ellipse cx="308.75" cy="28.75" fill="#ADD1B2" rx="13.75" ry="13.75" style="stroke:#A80036;stroke-width:1.25;"/><path d="M311.25,24.375 Q311.5039,23.75 311.7969,23.4375 Q312.0898,23.125 312.4219,23.125 Q313.0078,23.125 313.3789,23.4766 Q313.75,23.8281 313.75,24.6484 L313.75,26.6016 Q313.75,27.4219 313.3984,27.7734 Q313.0469,28.125 312.5,28.125 Q312.0117,28.125 311.6992,27.9102 Q311.3867,27.6953 311.25,27.1289 Q311.1914,26.7383 310.9766,26.5234 Q310.5859,26.1133 309.8828,25.8789 Q309.1797,25.625 308.4766,25.625 Q307.5977,25.625 306.8555,25.9766 Q306.1328,26.3281 305.5664,27.1094 Q305,27.8906 305,28.9648 L305,30.1172 Q305,31.4063 306.0547,32.2656 Q307.1094,33.125 308.9844,33.125 Q310.0977,33.125 310.8789,32.8711 Q311.3281,32.7344 311.8359,32.2852 Q312.168,32.0313 312.3438,31.9531 Q312.5195,31.875 312.7344,31.875 Q313.1445,31.875 313.4375,32.207 Q313.75,32.5195 313.75,32.9688 Q313.75,33.3984 313.3203,33.9063 Q312.6953,34.6484 311.6992,35.0586 Q310.3906,35.625 308.7891,35.625 Q306.9141,35.625 305.4102,34.8828 Q304.1992,34.2969 303.3398,33.0273 Q302.5,31.7578 302.5,30.2539 L302.5,28.8867 Q302.5,27.3242 303.2422,25.957 Q304.0039,24.5898 305.3125,23.8672 Q306.6406,23.125 308.125,23.125 Q309.0234,23.125 309.8047,23.4375 Q310.5859,23.75 311.25,24.375 Z " fill="#000000"/><text fill="#000000" font-family="sans-serif" font-size="15" lengthAdjust="spacing" textLength="92.5" x="326.25" y="34.8877">BuildGraphUI</text><line style="stroke:#A80036;stroke-width:1.875;" x1="291.25" x2="421.25" y1="48.75" y2="48.75"/><line style="stroke:#A80036;stroke-width:1.875;" x1="291.25" x2="421.25" y1="58.75" y2="58.75"/><!--MD5=[18128de1fe664899f0e69258e7bde033]
class CountryController--><rect codeLine="6" fill="#FEFECE" filter="url(#ft0ub83y7tche)" height="77.2949" id="CountryController" style="stroke:#A80036;stroke-width:1.875;" width="206.25" x="253.125" y="145"/><ellipse cx="292.6875" cy="165" fill="#ADD1B2" rx="13.75" ry="13.75" style="stroke:#A80036;stroke-width:1.25;"/><path d="M295.1875,160.625 Q295.4414,160 295.7344,159.6875 Q296.0273,159.375 296.3594,159.375 Q296.9453,159.375 297.3164,159.7266 Q297.6875,160.0781 297.6875,160.8984 L297.6875,162.8516 Q297.6875,163.6719 297.3359,164.0234 Q296.9844,164.375 296.4375,164.375 Q295.9492,164.375 295.6367,164.1602 Q295.3242,163.9453 295.1875,163.3789 Q295.1289,162.9883 294.9141,162.7734 Q294.5234,162.3633 293.8203,162.1289 Q293.1172,161.875 292.4141,161.875 Q291.5352,161.875 290.793,162.2266 Q290.0703,162.5781 289.5039,163.3594 Q288.9375,164.1406 288.9375,165.2148 L288.9375,166.3672 Q288.9375,167.6563 289.9922,168.5156 Q291.0469,169.375 292.9219,169.375 Q294.0352,169.375 294.8164,169.1211 Q295.2656,168.9844 295.7734,168.5352 Q296.1055,168.2813 296.2813,168.2031 Q296.457,168.125 296.6719,168.125 Q297.082,168.125 297.375,168.457 Q297.6875,168.7695 297.6875,169.2188 Q297.6875,169.6484 297.2578,170.1563 Q296.6328,170.8984 295.6367,171.3086 Q294.3281,171.875 292.7266,171.875 Q290.8516,171.875 289.3477,171.1328 Q288.1367,170.5469 287.2773,169.2773 Q286.4375,168.0078 286.4375,166.5039 L286.4375,165.1367 Q286.4375,163.5742 287.1797,162.207 Q287.9414,160.8398 289.25,160.1172 Q290.5781,159.375 292.0625,159.375 Q292.9609,159.375 293.7422,159.6875 Q294.5234,160 295.1875,160.625 Z " fill="#000000"/><text fill="#000000" font-family="sans-serif" font-size="15" lengthAdjust="spacing" textLength="120" x="314.8125" y="171.1377">CountryController</text><line style="stroke:#A80036;stroke-width:1.875;" x1="254.375" x2="458.125" y1="185" y2="185"/><line style="stroke:#A80036;stroke-width:1.875;" x1="254.375" x2="458.125" y1="195" y2="195"/><text fill="#000000" font-family="sans-serif" font-size="13.75" lengthAdjust="spacing" textLength="191.25" x="260.625" y="214.2737">+buildGraph(int numberOfPorts)</text><!--MD5=[b7b072196a724e538165319251b4d539]
class MatrixGraph--><rect codeLine="10" fill="#FEFECE" filter="url(#ft0ub83y7tche)" height="94.5898" id="MatrixGraph" style="stroke:#A80036;stroke-width:1.875;" width="247.5" x="8.75" y="320"/><ellipse cx="86.5625" cy="340" fill="#ADD1B2" rx="13.75" ry="13.75" style="stroke:#A80036;stroke-width:1.25;"/><path d="M89.0625,335.625 Q89.3164,335 89.6094,334.6875 Q89.9023,334.375 90.2344,334.375 Q90.8203,334.375 91.1914,334.7266 Q91.5625,335.0781 91.5625,335.8984 L91.5625,337.8516 Q91.5625,338.6719 91.2109,339.0234 Q90.8594,339.375 90.3125,339.375 Q89.8242,339.375 89.5117,339.1602 Q89.1992,338.9453 89.0625,338.3789 Q89.0039,337.9883 88.7891,337.7734 Q88.3984,337.3633 87.6953,337.1289 Q86.9922,336.875 86.2891,336.875 Q85.4102,336.875 84.668,337.2266 Q83.9453,337.5781 83.3789,338.3594 Q82.8125,339.1406 82.8125,340.2148 L82.8125,341.3672 Q82.8125,342.6563 83.8672,343.5156 Q84.9219,344.375 86.7969,344.375 Q87.9102,344.375 88.6914,344.1211 Q89.1406,343.9844 89.6484,343.5352 Q89.9805,343.2813 90.1563,343.2031 Q90.332,343.125 90.5469,343.125 Q90.957,343.125 91.25,343.457 Q91.5625,343.7695 91.5625,344.2188 Q91.5625,344.6484 91.1328,345.1563 Q90.5078,345.8984 89.5117,346.3086 Q88.2031,346.875 86.6016,346.875 Q84.7266,346.875 83.2227,346.1328 Q82.0117,345.5469 81.1523,344.2773 Q80.3125,343.0078 80.3125,341.5039 L80.3125,340.1367 Q80.3125,338.5742 81.0547,337.207 Q81.8164,335.8398 83.125,335.1172 Q84.4531,334.375 85.9375,334.375 Q86.8359,334.375 87.6172,334.6875 Q88.3984,335 89.0625,335.625 Z " fill="#000000"/><text fill="#000000" font-family="sans-serif" font-size="15" lengthAdjust="spacing" textLength="81.25" x="112.1875" y="346.1377">MatrixGraph</text><line style="stroke:#A80036;stroke-width:1.875;" x1="10" x2="255" y1="360" y2="360"/><line style="stroke:#A80036;stroke-width:1.875;" x1="10" x2="255" y1="370" y2="370"/><text fill="#000000" font-family="sans-serif" font-size="13.75" lengthAdjust="spacing" textLength="118.75" x="16.25" y="389.2737">+addVertex(V vert)</text><text fill="#000000" font-family="sans-serif" font-size="13.75" lengthAdjust="spacing" textLength="232.5" x="16.25" y="406.5686">+addEdge(V vOrig, V vDest, E weight)</text><!--MD5=[deb4e1f6eb1e3c1256fdb830f96abfbb]
class Country--><rect codeLine="15" fill="#FEFECE" filter="url(#ft0ub83y7tche)" height="77.2949" id="Country" style="stroke:#A80036;stroke-width:1.875;" width="112.5" x="300" y="328.75"/><ellipse cx="327.75" cy="348.75" fill="#ADD1B2" rx="13.75" ry="13.75" style="stroke:#A80036;stroke-width:1.25;"/><path d="M330.25,344.375 Q330.5039,343.75 330.7969,343.4375 Q331.0898,343.125 331.4219,343.125 Q332.0078,343.125 332.3789,343.4766 Q332.75,343.8281 332.75,344.6484 L332.75,346.6016 Q332.75,347.4219 332.3984,347.7734 Q332.0469,348.125 331.5,348.125 Q331.0117,348.125 330.6992,347.9102 Q330.3867,347.6953 330.25,347.1289 Q330.1914,346.7383 329.9766,346.5234 Q329.5859,346.1133 328.8828,345.8789 Q328.1797,345.625 327.4766,345.625 Q326.5977,345.625 325.8555,345.9766 Q325.1328,346.3281 324.5664,347.1094 Q324,347.8906 324,348.9648 L324,350.1172 Q324,351.4063 325.0547,352.2656 Q326.1094,353.125 327.9844,353.125 Q329.0977,353.125 329.8789,352.8711 Q330.3281,352.7344 330.8359,352.2852 Q331.168,352.0313 331.3438,351.9531 Q331.5195,351.875 331.7344,351.875 Q332.1445,351.875 332.4375,352.207 Q332.75,352.5195 332.75,352.9688 Q332.75,353.3984 332.3203,353.9063 Q331.6953,354.6484 330.6992,355.0586 Q329.3906,355.625 327.7891,355.625 Q325.9141,355.625 324.4102,354.8828 Q323.1992,354.2969 322.3398,353.0273 Q321.5,351.7578 321.5,350.2539 L321.5,348.8867 Q321.5,347.3242 322.2422,345.957 Q323.0039,344.5898 324.3125,343.8672 Q325.6406,343.125 327.125,343.125 Q328.0234,343.125 328.8047,343.4375 Q329.5859,343.75 330.25,344.375 Z " fill="#000000"/><text fill="#000000" font-family="sans-serif" font-size="15" lengthAdjust="spacing" textLength="52.5" x="347.25" y="354.8877">Country</text><line style="stroke:#A80036;stroke-width:1.875;" x1="301.25" x2="411.25" y1="368.75" y2="368.75"/><line style="stroke:#A80036;stroke-width:1.875;" x1="301.25" x2="411.25" y1="378.75" y2="378.75"/><text fill="#000000" font-family="sans-serif" font-size="13.75" lengthAdjust="spacing" textLength="97.5" x="307.5" y="398.0237">+getFronteiras()</text><!--MD5=[d66f0bc35a4401165692cb71d5fbb22a]
class GPS--><rect codeLine="19" fill="#FEFECE" filter="url(#ft0ub83y7tche)" height="77.2949" id="GPS" style="stroke:#A80036;stroke-width:1.875;" width="537.5" x="456.25" y="328.75"/><ellipse cx="704.0625" cy="348.75" fill="#ADD1B2" rx="13.75" ry="13.75" style="stroke:#A80036;stroke-width:1.25;"/><path d="M706.5625,344.375 Q706.8164,343.75 707.1094,343.4375 Q707.4023,343.125 707.7344,343.125 Q708.3203,343.125 708.6914,343.4766 Q709.0625,343.8281 709.0625,344.6484 L709.0625,346.6016 Q709.0625,347.4219 708.7109,347.7734 Q708.3594,348.125 707.8125,348.125 Q707.3242,348.125 707.0117,347.9102 Q706.6992,347.6953 706.5625,347.1289 Q706.5039,346.7383 706.2891,346.5234 Q705.8984,346.1133 705.1953,345.8789 Q704.4922,345.625 703.7891,345.625 Q702.9102,345.625 702.168,345.9766 Q701.4453,346.3281 700.8789,347.1094 Q700.3125,347.8906 700.3125,348.9648 L700.3125,350.1172 Q700.3125,351.4063 701.3672,352.2656 Q702.4219,353.125 704.2969,353.125 Q705.4102,353.125 706.1914,352.8711 Q706.6406,352.7344 707.1484,352.2852 Q707.4805,352.0313 707.6563,351.9531 Q707.832,351.875 708.0469,351.875 Q708.457,351.875 708.75,352.207 Q709.0625,352.5195 709.0625,352.9688 Q709.0625,353.3984 708.6328,353.9063 Q708.0078,354.6484 707.0117,355.0586 Q705.7031,355.625 704.1016,355.625 Q702.2266,355.625 700.7227,354.8828 Q699.5117,354.2969 698.6523,353.0273 Q697.8125,351.7578 697.8125,350.2539 L697.8125,348.8867 Q697.8125,347.3242 698.5547,345.957 Q699.3164,344.5898 700.625,343.8672 Q701.9531,343.125 703.4375,343.125 Q704.3359,343.125 705.1172,343.4375 Q705.8984,343.75 706.5625,344.375 Z " fill="#000000"/><text fill="#000000" font-family="sans-serif" font-size="15" lengthAdjust="spacing" textLength="31.25" x="729.6875" y="354.8877">GPS</text><line style="stroke:#A80036;stroke-width:1.875;" x1="457.5" x2="992.5" y1="368.75" y2="368.75"/><line style="stroke:#A80036;stroke-width:1.875;" x1="457.5" x2="992.5" y1="378.75" y2="378.75"/><text fill="#000000" font-family="sans-serif" font-size="13.75" lengthAdjust="spacing" textLength="522.5" x="463.75" y="398.0237">+dist = distanceBetweenCoordinates(double lat1, double lon1, double lat2, double lon2)</text><!--MD5=[6b1c9a12fb5bf30ca29060d8abdebcdd]
link BuildGraphUI to CountryController--><path codeLine="25" d="M356.25,68.8375 C356.25,88.7625 356.25,115.6375 356.25,138.25 " fill="none" id="BuildGraphUI-to-CountryController" style="stroke:#A80036;stroke-width:1.25;stroke-dasharray:7.0,7.0;"/><polygon fill="#A80036" points="356.25,144.5125,361.25,133.2625,356.25,138.2625,351.25,133.2625,356.25,144.5125" style="stroke:#A80036;stroke-width:1.25;"/><!--MD5=[c7ad7d43e3e2ae0f7dacaa78710acd86]
link CountryController to MatrixGraph--><path codeLine="26" d="M309.8875,222.55 C276.5625,249.55 231.275,286.2375 194.8,315.7875 " fill="none" id="CountryController-to-MatrixGraph" style="stroke:#A80036;stroke-width:1.25;"/><polygon fill="#A80036" points="189.9375,319.725,201.8288,316.5378,194.7969,315.7946,195.5402,308.7627,189.9375,319.725" style="stroke:#A80036;stroke-width:1.25;"/><text fill="#000000" font-family="sans-serif" font-size="16.25" lengthAdjust="spacing" textLength="35" x="260" y="278.1189">uses</text><text fill="#000000" font-family="sans-serif" font-size="16.25" lengthAdjust="spacing" textLength="8.75" x="291.1486" y="249.0898">1</text><text fill="#000000" font-family="sans-serif" font-size="16.25" lengthAdjust="spacing" textLength="25" x="172.942" y="306.3784">1..*</text><!--MD5=[d4ec7cb2eb63972c4aacd65f2df80a86]
link CountryController to Country--><path codeLine="27" d="M356.25,222.55 C356.25,251.6 356.25,291.8625 356.25,322.3875 " fill="none" id="CountryController-to-Country" style="stroke:#A80036;stroke-width:1.25;"/><polygon fill="#A80036" points="356.25,328.7375,361.25,317.4875,356.25,322.4875,351.25,317.4875,356.25,328.7375" style="stroke:#A80036;stroke-width:1.25;"/><text fill="#000000" font-family="sans-serif" font-size="16.25" lengthAdjust="spacing" textLength="35" x="357.5" y="278.1189">uses</text><text fill="#000000" font-family="sans-serif" font-size="16.25" lengthAdjust="spacing" textLength="8.75" x="346.6387" y="249.0898">1</text><text fill="#000000" font-family="sans-serif" font-size="16.25" lengthAdjust="spacing" textLength="25" x="328.5156" y="315.0101">1..*</text><!--MD5=[21f469cf54b90f8541be05e52dcad45f]
link CountryController to GPS--><path codeLine="28" d="M432.65,222.55 C494.0875,252.75 580.2125,295.0875 643.0625,325.975 " fill="none" id="CountryController-to-GPS" style="stroke:#A80036;stroke-width:1.25;"/><polygon fill="#A80036" points="648.6875,328.7375,640.8128,319.2743,643.0831,325.971,636.3864,328.2413,648.6875,328.7375" style="stroke:#A80036;stroke-width:1.25;"/><text fill="#000000" font-family="sans-serif" font-size="16.25" lengthAdjust="spacing" textLength="35" x="552.5" y="278.1189">uses</text><text fill="#000000" font-family="sans-serif" font-size="16.25" lengthAdjust="spacing" textLength="8.75" x="438.0799" y="249.0898">1</text><text fill="#000000" font-family="sans-serif" font-size="16.25" lengthAdjust="spacing" textLength="25" x="604.2598" y="315.0101">1..*</text><!--MD5=[2c55ad7f5ef0860d0d246db67b25f9d5]
@startuml
skinparam classAttributeIconSize 0

class BuildGraphUI{
}

class CountryController {
+ buildGraph(int numberOfPorts)
}

class MatrixGraph {
+ addVertex(V vert)
+ addEdge(V vOrig, V vDest, E weight)
}

class Country {
+ getFronteiras()
}

class GPS {
+ dist = distanceBetweenCoordinates(double lat1, double lon1, double lat2, double lon2)
}



CountryController <.up. BuildGraphUI
CountryController "1" - -> "1..*" MatrixGraph : uses
CountryController "1" - -> "1..*" Country : uses
CountryController "1" - -> "1..*" GPS : uses
@enduml

PlantUML version 1.2021.7(Sun May 23 13:40:07 BST 2021)
(GPL source distribution)
Java Runtime: OpenJDK Runtime Environment
JVM: OpenJDK 64-Bit Server VM
Default Encoding: Cp1252
Language: pt
Country: PT
--></g></svg>