<?xml version="1.0" encoding="UTF-8" standalone="no"?><svg xmlns="http://www.w3.org/2000/svg" xmlns:xlink="http://www.w3.org/1999/xlink" contentScriptType="application/ecmascript" contentStyleType="text/css" height="381.25px" preserveAspectRatio="none" style="width:2453px;height:381px;background:#FFFFFF;" version="1.1" viewBox="0 0 2453 381" width="2453.75px" zoomAndPan="magnify"><defs><filter height="300%" id="fkotmpcayu7hv" width="300%" x="-1" y="-1"><feGaussianBlur result="blurOut" stdDeviation="2.5"/><feColorMatrix in="blurOut" result="blurOut2" type="matrix" values="0 0 0 0 0 0 0 0 0 0 0 0 0 0 0 0 0 0 .4 0"/><feOffset dx="5.0" dy="5.0" in="blurOut2" result="blurOut3"/><feBlend in="SourceGraphic" in2="blurOut3" mode="normal"/></filter></defs><g><!--MD5=[4835bd3bbaaa72dc09abd68a286609d8]
class PositionsUI--><rect codeLine="3" fill="#FEFECE" filter="url(#fkotmpcayu7hv)" height="60" id="PositionsUI" style="stroke:#A80036;stroke-width:1.875;" width="120" x="689.375" y="8.75"/><ellipse cx="708.125" cy="28.75" fill="#ADD1B2" rx="13.75" ry="13.75" style="stroke:#A80036;stroke-width:1.25;"/><path d="M710.625,24.375 Q710.8789,23.75 711.1719,23.4375 Q711.4648,23.125 711.7969,23.125 Q712.3828,23.125 712.7539,23.4766 Q713.125,23.8281 713.125,24.6484 L713.125,26.6016 Q713.125,27.4219 712.7734,27.7734 Q712.4219,28.125 711.875,28.125 Q711.3867,28.125 711.0742,27.9102 Q710.7617,27.6953 710.625,27.1289 Q710.5664,26.7383 710.3516,26.5234 Q709.9609,26.1133 709.2578,25.8789 Q708.5547,25.625 707.8516,25.625 Q706.9727,25.625 706.2305,25.9766 Q705.5078,26.3281 704.9414,27.1094 Q704.375,27.8906 704.375,28.9648 L704.375,30.1172 Q704.375,31.4063 705.4297,32.2656 Q706.4844,33.125 708.3594,33.125 Q709.4727,33.125 710.2539,32.8711 Q710.7031,32.7344 711.2109,32.2852 Q711.543,32.0313 711.7188,31.9531 Q711.8945,31.875 712.1094,31.875 Q712.5195,31.875 712.8125,32.207 Q713.125,32.5195 713.125,32.9688 Q713.125,33.3984 712.6953,33.9063 Q712.0703,34.6484 711.0742,35.0586 Q709.7656,35.625 708.1641,35.625 Q706.2891,35.625 704.7852,34.8828 Q703.5742,34.2969 702.7148,33.0273 Q701.875,31.7578 701.875,30.2539 L701.875,28.8867 Q701.875,27.3242 702.6172,25.957 Q703.3789,24.5898 704.6875,23.8672 Q706.0156,23.125 707.5,23.125 Q708.3984,23.125 709.1797,23.4375 Q709.9609,23.75 710.625,24.375 Z " fill="#000000"/><text fill="#000000" font-family="sans-serif" font-size="15" lengthAdjust="spacing" textLength="80" x="725.625" y="34.8877">PositionsUI</text><line style="stroke:#A80036;stroke-width:1.875;" x1="690.625" x2="808.125" y1="48.75" y2="48.75"/><line style="stroke:#A80036;stroke-width:1.875;" x1="690.625" x2="808.125" y1="58.75" y2="58.75"/><!--MD5=[8d2d464217693e6a7c4d65b284a69667]
class ShipPositionsController--><rect codeLine="6" fill="#FEFECE" filter="url(#fkotmpcayu7hv)" height="94.5898" id="ShipPositionsController" style="stroke:#A80036;stroke-width:1.875;" width="1018.75" x="240" y="218.125"/><ellipse cx="662.1875" cy="238.125" fill="#ADD1B2" rx="13.75" ry="13.75" style="stroke:#A80036;stroke-width:1.25;"/><path d="M664.6875,233.75 Q664.9414,233.125 665.2344,232.8125 Q665.5273,232.5 665.8594,232.5 Q666.4453,232.5 666.8164,232.8516 Q667.1875,233.2031 667.1875,234.0234 L667.1875,235.9766 Q667.1875,236.7969 666.8359,237.1484 Q666.4844,237.5 665.9375,237.5 Q665.4492,237.5 665.1367,237.2852 Q664.8242,237.0703 664.6875,236.5039 Q664.6289,236.1133 664.4141,235.8984 Q664.0234,235.4883 663.3203,235.2539 Q662.6172,235 661.9141,235 Q661.0352,235 660.293,235.3516 Q659.5703,235.7031 659.0039,236.4844 Q658.4375,237.2656 658.4375,238.3398 L658.4375,239.4922 Q658.4375,240.7813 659.4922,241.6406 Q660.5469,242.5 662.4219,242.5 Q663.5352,242.5 664.3164,242.2461 Q664.7656,242.1094 665.2734,241.6602 Q665.6055,241.4063 665.7813,241.3281 Q665.957,241.25 666.1719,241.25 Q666.582,241.25 666.875,241.582 Q667.1875,241.8945 667.1875,242.3438 Q667.1875,242.7734 666.7578,243.2813 Q666.1328,244.0234 665.1367,244.4336 Q663.8281,245 662.2266,245 Q660.3516,245 658.8477,244.2578 Q657.6367,243.6719 656.7773,242.4023 Q655.9375,241.1328 655.9375,239.6289 L655.9375,238.2617 Q655.9375,236.6992 656.6797,235.332 Q657.4414,233.9648 658.75,233.2422 Q660.0781,232.5 661.5625,232.5 Q662.4609,232.5 663.2422,232.8125 Q664.0234,233.125 664.6875,233.75 Z " fill="#000000"/><text fill="#000000" font-family="sans-serif" font-size="15" lengthAdjust="spacing" textLength="163.75" x="687.8125" y="244.2627">ShipPositionsController</text><line style="stroke:#A80036;stroke-width:1.875;" x1="241.25" x2="1257.5" y1="258.125" y2="258.125"/><line style="stroke:#A80036;stroke-width:1.875;" x1="241.25" x2="1257.5" y1="268.125" y2="268.125"/><ellipse cx="253.75" cy="281.875" fill="#84BE84" rx="3.75" ry="3.75" style="stroke:#038048;stroke-width:1.25;"/><text fill="#000000" font-family="sans-serif" font-size="13.75" lengthAdjust="spacing" textLength="643.75" x="265" y="287.3987">checkPositions(String dateOfCheck, String hourCheck, HashMap&lt;Ship, List&lt;ShipDynamicFields&gt;&gt; shipMap)</text><ellipse cx="253.75" cy="299.1699" fill="#84BE84" rx="3.75" ry="3.75" style="stroke:#038048;stroke-width:1.25;"/><text fill="#000000" font-family="sans-serif" font-size="13.75" lengthAdjust="spacing" textLength="986.25" x="265" y="304.6936">checkPositionsBetweenDates(String dateOfCheck, String hourCheck, String DateOfCheck2, String hourCheck2, HashMap&lt;Ship, List&lt;ShipDynamicFields&gt;&gt; shipMap)</text><!--MD5=[a8ffbd38daa8a369450c487507013c0d]
class ShipDynamicFields--><rect codeLine="12" fill="#FEFECE" filter="url(#fkotmpcayu7hv)" height="198.3594" id="ShipDynamicFields" style="stroke:#A80036;stroke-width:1.875;" width="955" x="1481.875" y="166.25"/><ellipse cx="1887.1875" cy="186.25" fill="#ADD1B2" rx="13.75" ry="13.75" style="stroke:#A80036;stroke-width:1.25;"/><path d="M1889.6875,181.875 Q1889.9414,181.25 1890.2344,180.9375 Q1890.5273,180.625 1890.8594,180.625 Q1891.4453,180.625 1891.8164,180.9766 Q1892.1875,181.3281 1892.1875,182.1484 L1892.1875,184.1016 Q1892.1875,184.9219 1891.8359,185.2734 Q1891.4844,185.625 1890.9375,185.625 Q1890.4492,185.625 1890.1367,185.4102 Q1889.8242,185.1953 1889.6875,184.6289 Q1889.6289,184.2383 1889.4141,184.0234 Q1889.0234,183.6133 1888.3203,183.3789 Q1887.6172,183.125 1886.9141,183.125 Q1886.0352,183.125 1885.293,183.4766 Q1884.5703,183.8281 1884.0039,184.6094 Q1883.4375,185.3906 1883.4375,186.4648 L1883.4375,187.6172 Q1883.4375,188.9063 1884.4922,189.7656 Q1885.5469,190.625 1887.4219,190.625 Q1888.5352,190.625 1889.3164,190.3711 Q1889.7656,190.2344 1890.2734,189.7852 Q1890.6055,189.5313 1890.7813,189.4531 Q1890.957,189.375 1891.1719,189.375 Q1891.582,189.375 1891.875,189.707 Q1892.1875,190.0195 1892.1875,190.4688 Q1892.1875,190.8984 1891.7578,191.4063 Q1891.1328,192.1484 1890.1367,192.5586 Q1888.8281,193.125 1887.2266,193.125 Q1885.3516,193.125 1883.8477,192.3828 Q1882.6367,191.7969 1881.7773,190.5273 Q1880.9375,189.2578 1880.9375,187.7539 L1880.9375,186.3867 Q1880.9375,184.8242 1881.6797,183.457 Q1882.4414,182.0898 1883.75,181.3672 Q1885.0781,180.625 1886.5625,180.625 Q1887.4609,180.625 1888.2422,180.9375 Q1889.0234,181.25 1889.6875,181.875 Z " fill="#000000"/><text fill="#000000" font-family="sans-serif" font-size="15" lengthAdjust="spacing" textLength="133.75" x="1912.8125" y="192.3877">ShipDynamicFields</text><line style="stroke:#A80036;stroke-width:1.875;" x1="1483.125" x2="2435.625" y1="206.25" y2="206.25"/><line style="stroke:#A80036;stroke-width:1.875;" x1="1483.125" x2="2435.625" y1="216.25" y2="216.25"/><ellipse cx="1495.625" cy="230" fill="#84BE84" rx="3.75" ry="3.75" style="stroke:#038048;stroke-width:1.25;"/><text fill="#000000" font-family="sans-serif" font-size="13.75" lengthAdjust="spacing" textLength="605" x="1506.875" y="235.5237">checkLastPosition(int mmsi, int hour, int minutes, HashMap&lt;Ship, List&lt;ShipDynamicFields&gt;&gt; shipMap)</text><ellipse cx="1495.625" cy="247.2949" fill="#84BE84" rx="3.75" ry="3.75" style="stroke:#038048;stroke-width:1.25;"/><text fill="#000000" font-family="sans-serif" font-size="13.75" lengthAdjust="spacing" textLength="922.5" x="1506.875" y="252.8186">new ShipDynamicFields(ship.getMmsi(), diaAno + hora, din.getLat(),din.getLon(), din.getSog(), din.getCog(), din.getHeading(), din.getTransceiverClass());</text><ellipse cx="1495.625" cy="264.5898" fill="#84BE84" rx="3.75" ry="3.75" style="stroke:#038048;stroke-width:1.25;"/><text fill="#000000" font-family="sans-serif" font-size="13.75" lengthAdjust="spacing" textLength="47.5" x="1506.875" y="270.1135">getLat()</text><ellipse cx="1495.625" cy="281.8848" fill="#84BE84" rx="3.75" ry="3.75" style="stroke:#038048;stroke-width:1.25;"/><text fill="#000000" font-family="sans-serif" font-size="13.75" lengthAdjust="spacing" textLength="51.25" x="1506.875" y="287.4084">getLon()</text><ellipse cx="1495.625" cy="299.1797" fill="#84BE84" rx="3.75" ry="3.75" style="stroke:#038048;stroke-width:1.25;"/><text fill="#000000" font-family="sans-serif" font-size="13.75" lengthAdjust="spacing" textLength="52.5" x="1506.875" y="304.7034">getSog()</text><ellipse cx="1495.625" cy="316.4746" fill="#84BE84" rx="3.75" ry="3.75" style="stroke:#038048;stroke-width:1.25;"/><text fill="#000000" font-family="sans-serif" font-size="13.75" lengthAdjust="spacing" textLength="52.5" x="1506.875" y="321.9983">getCog()</text><ellipse cx="1495.625" cy="333.7695" fill="#84BE84" rx="3.75" ry="3.75" style="stroke:#038048;stroke-width:1.25;"/><text fill="#000000" font-family="sans-serif" font-size="13.75" lengthAdjust="spacing" textLength="77.5" x="1506.875" y="339.2932">getHeading()</text><ellipse cx="1495.625" cy="351.0645" fill="#84BE84" rx="3.75" ry="3.75" style="stroke:#038048;stroke-width:1.25;"/><text fill="#000000" font-family="sans-serif" font-size="13.75" lengthAdjust="spacing" textLength="135" x="1506.875" y="356.5881">getTransceiverClass()</text><!--MD5=[76c64cf519b79fd01de2fb03066f8d81]
class AVL--><rect codeLine="23" fill="#FEFECE" filter="url(#fkotmpcayu7hv)" height="77.2949" id="AVL" style="stroke:#A80036;stroke-width:1.875;" width="133.75" x="8.75" y="226.875"/><ellipse cx="57.875" cy="246.875" fill="#ADD1B2" rx="13.75" ry="13.75" style="stroke:#A80036;stroke-width:1.25;"/><path d="M60.375,242.5 Q60.6289,241.875 60.9219,241.5625 Q61.2148,241.25 61.5469,241.25 Q62.1328,241.25 62.5039,241.6016 Q62.875,241.9531 62.875,242.7734 L62.875,244.7266 Q62.875,245.5469 62.5234,245.8984 Q62.1719,246.25 61.625,246.25 Q61.1367,246.25 60.8242,246.0352 Q60.5117,245.8203 60.375,245.2539 Q60.3164,244.8633 60.1016,244.6484 Q59.7109,244.2383 59.0078,244.0039 Q58.3047,243.75 57.6016,243.75 Q56.7227,243.75 55.9805,244.1016 Q55.2578,244.4531 54.6914,245.2344 Q54.125,246.0156 54.125,247.0898 L54.125,248.2422 Q54.125,249.5313 55.1797,250.3906 Q56.2344,251.25 58.1094,251.25 Q59.2227,251.25 60.0039,250.9961 Q60.4531,250.8594 60.9609,250.4102 Q61.293,250.1563 61.4688,250.0781 Q61.6445,250 61.8594,250 Q62.2695,250 62.5625,250.332 Q62.875,250.6445 62.875,251.0938 Q62.875,251.5234 62.4453,252.0313 Q61.8203,252.7734 60.8242,253.1836 Q59.5156,253.75 57.9141,253.75 Q56.0391,253.75 54.5352,253.0078 Q53.3242,252.4219 52.4648,251.1523 Q51.625,249.8828 51.625,248.3789 L51.625,247.0117 Q51.625,245.4492 52.3672,244.082 Q53.1289,242.7148 54.4375,241.9922 Q55.7656,241.25 57.25,241.25 Q58.1484,241.25 58.9297,241.5625 Q59.7109,241.875 60.375,242.5 Z " fill="#000000"/><text fill="#000000" font-family="sans-serif" font-size="15" lengthAdjust="spacing" textLength="26.25" x="82.125" y="253.0127">AVL</text><line style="stroke:#A80036;stroke-width:1.875;" x1="10" x2="141.25" y1="266.875" y2="266.875"/><line style="stroke:#A80036;stroke-width:1.875;" x1="10" x2="141.25" y1="276.875" y2="276.875"/><ellipse cx="22.5" cy="290.625" fill="#84BE84" rx="3.75" ry="3.75" style="stroke:#038048;stroke-width:1.25;"/><text fill="#000000" font-family="sans-serif" font-size="13.75" lengthAdjust="spacing" textLength="101.25" x="33.75" y="296.1487">insert(E element)</text><!--MD5=[0dc7f2ddb409b58bcf52b12238c25399]
class Ship--><rect codeLine="27" fill="#FEFECE" filter="url(#fkotmpcayu7hv)" height="77.2949" id="Ship" style="stroke:#A80036;stroke-width:1.875;" width="81.25" x="1356.25" y="226.875"/><ellipse cx="1379.5" cy="246.875" fill="#ADD1B2" rx="13.75" ry="13.75" style="stroke:#A80036;stroke-width:1.25;"/><path d="M1382,242.5 Q1382.2539,241.875 1382.5469,241.5625 Q1382.8398,241.25 1383.1719,241.25 Q1383.7578,241.25 1384.1289,241.6016 Q1384.5,241.9531 1384.5,242.7734 L1384.5,244.7266 Q1384.5,245.5469 1384.1484,245.8984 Q1383.7969,246.25 1383.25,246.25 Q1382.7617,246.25 1382.4492,246.0352 Q1382.1367,245.8203 1382,245.2539 Q1381.9414,244.8633 1381.7266,244.6484 Q1381.3359,244.2383 1380.6328,244.0039 Q1379.9297,243.75 1379.2266,243.75 Q1378.3477,243.75 1377.6055,244.1016 Q1376.8828,244.4531 1376.3164,245.2344 Q1375.75,246.0156 1375.75,247.0898 L1375.75,248.2422 Q1375.75,249.5313 1376.8047,250.3906 Q1377.8594,251.25 1379.7344,251.25 Q1380.8477,251.25 1381.6289,250.9961 Q1382.0781,250.8594 1382.5859,250.4102 Q1382.918,250.1563 1383.0938,250.0781 Q1383.2695,250 1383.4844,250 Q1383.8945,250 1384.1875,250.332 Q1384.5,250.6445 1384.5,251.0938 Q1384.5,251.5234 1384.0703,252.0313 Q1383.4453,252.7734 1382.4492,253.1836 Q1381.1406,253.75 1379.5391,253.75 Q1377.6641,253.75 1376.1602,253.0078 Q1374.9492,252.4219 1374.0898,251.1523 Q1373.25,249.8828 1373.25,248.3789 L1373.25,247.0117 Q1373.25,245.4492 1373.9922,244.082 Q1374.7539,242.7148 1376.0625,241.9922 Q1377.3906,241.25 1378.875,241.25 Q1379.7734,241.25 1380.5547,241.5625 Q1381.3359,241.875 1382,242.5 Z " fill="#000000"/><text fill="#000000" font-family="sans-serif" font-size="15" lengthAdjust="spacing" textLength="31.25" x="1398" y="253.0127">Ship</text><line style="stroke:#A80036;stroke-width:1.875;" x1="1357.5" x2="1436.25" y1="266.875" y2="266.875"/><line style="stroke:#A80036;stroke-width:1.875;" x1="1357.5" x2="1436.25" y1="276.875" y2="276.875"/><ellipse cx="1370" cy="290.625" fill="#84BE84" rx="3.75" ry="3.75" style="stroke:#038048;stroke-width:1.25;"/><text fill="#000000" font-family="sans-serif" font-size="13.75" lengthAdjust="spacing" textLength="48.75" x="1381.25" y="296.1487">getMsi()</text><!--MD5=[18ced1f122dde2629f6a84a53ddef6a4]
link PositionsUI to ShipPositionsController--><path codeLine="30" d="M749.375,68.875 C749.375,104.8625 749.375,167.05 749.375,211.625 " fill="none" id="PositionsUI-to-ShipPositionsController" style="stroke:#A80036;stroke-width:1.25;stroke-dasharray:7.0,7.0;"/><polygon fill="#A80036" points="749.375,218.075,754.375,206.825,749.375,211.825,744.375,206.825,749.375,218.075" style="stroke:#A80036;stroke-width:1.25;"/><!--MD5=[64cdaa4ccba7ac8c0f376fb336174ae5]
link ShipPositionsController to ShipDynamicFields--><path codeLine="31" d="M864.85,218.1125 C993.7,170.6 1208.8625,107.55 1397.5,130 C1462.5375,137.7375 1530.9375,150.35 1596.75,164.8375 " fill="none" id="ShipPositionsController-to-ShipDynamicFields" style="stroke:#A80036;stroke-width:1.25;"/><polygon fill="#A80036" points="1603.1125,166.25,1593.215,158.9286,1597.0113,164.8942,1591.0457,168.6905,1603.1125,166.25" style="stroke:#A80036;stroke-width:1.25;"/><polygon fill="#000000" points="1356.2335,117.266,1344.6903,114.4228,1345.2237,121.7508,1356.2335,117.266" style="stroke:#000000;stroke-width:1.25;"/><text fill="#000000" font-family="sans-serif" font-size="16.25" lengthAdjust="spacing" textLength="35" x="1361.25" y="124.3689">uses</text><!--MD5=[f08b964160f07a2bd05daddcac221954]
link AVL to ShipPositionsController--><path codeLine="32" d="M142.6875,265.625 C169.4,265.625 202.6375,265.625 239.7125,265.625 " fill="none" id="AVL-ShipPositionsController" style="stroke:#A80036;stroke-width:1.25;"/><polygon fill="#000000" points="164.375,250.8447,175.6814,254.5184,175.6814,247.1711,164.375,250.8447" style="stroke:#000000;stroke-width:1.25;"/><text fill="#000000" font-family="sans-serif" font-size="16.25" lengthAdjust="spacing" textLength="35" x="181.875" y="257.4939">uses</text><!--MD5=[da16e35af7741c14da64ed720416ad9d]
link ShipPositionsController to Ship--><path codeLine="33" d="M1258.7625,265.625 C1297.8375,265.625 1331.4625,265.625 1355.75,265.625 " fill="none" id="ShipPositionsController-Ship" style="stroke:#A80036;stroke-width:1.25;"/><polygon fill="#000000" points="1293.125,250.8447,1281.8186,247.1711,1281.8186,254.5184,1293.125,250.8447" style="stroke:#000000;stroke-width:1.25;"/><text fill="#000000" font-family="sans-serif" font-size="16.25" lengthAdjust="spacing" textLength="35" x="1298.125" y="257.4939">uses</text><!--MD5=[19e4f953fe4e731c183b06d58116aa45]
@startuml
'https://plantuml.com/use-case-diagram

class PositionsUI{
}

class ShipPositionsController{
+ checkPositions(String dateOfCheck, String hourCheck, HashMap<Ship, List<ShipDynamicFields>> shipMap)
+checkPositionsBetweenDates(String dateOfCheck, String hourCheck, String DateOfCheck2, String hourCheck2, HashMap<Ship, List<ShipDynamicFields>> shipMap)
}


class ShipDynamicFields{
+checkLastPosition(int mmsi, int hour, int minutes, HashMap<Ship, List<ShipDynamicFields>> shipMap)
+new ShipDynamicFields(ship.getMmsi(), diaAno + hora, din.getLat(),din.getLon(), din.getSog(), din.getCog(), din.getHeading(), din.getTransceiverClass());
+ getLat()
+ getLon()
+ getSog()
+ getCog()
+ getHeading()
+ getTransceiverClass()
}

class AVL{
+ insert(E element)
}

 class Ship{
+ getMsi()
}
PositionsUI ..> ShipPositionsController
ShipPositionsController -> ShipDynamicFields :> uses
ShipPositionsController -left- AVL :> uses
ShipPositionsController -right- Ship :> uses
@enduml

@startuml

class PositionsUI{
}

class ShipPositionsController{
+ checkPositions(String dateOfCheck, String hourCheck, HashMap<Ship, List<ShipDynamicFields>> shipMap)
+checkPositionsBetweenDates(String dateOfCheck, String hourCheck, String DateOfCheck2, String hourCheck2, HashMap<Ship, List<ShipDynamicFields>> shipMap)
}


class ShipDynamicFields{
+checkLastPosition(int mmsi, int hour, int minutes, HashMap<Ship, List<ShipDynamicFields>> shipMap)
+new ShipDynamicFields(ship.getMmsi(), diaAno + hora, din.getLat(),din.getLon(), din.getSog(), din.getCog(), din.getHeading(), din.getTransceiverClass());
+ getLat()
+ getLon()
+ getSog()
+ getCog()
+ getHeading()
+ getTransceiverClass()
}

class AVL{
+ insert(E element)
}

 class Ship{
+ getMsi()
}
PositionsUI ..> ShipPositionsController
ShipPositionsController -> ShipDynamicFields :> uses
ShipPositionsController -left- AVL :> uses
ShipPositionsController -right- Ship :> uses
@enduml

PlantUML version 1.2021.7(Sun May 23 13:40:07 BST 2021)
(GPL source distribution)
Java Runtime: OpenJDK Runtime Environment
JVM: OpenJDK 64-Bit Server VM
Default Encoding: Cp1252
Language: pt
Country: PT
--></g></svg>