<?xml version="1.0" encoding="UTF-8" standalone="no"?><svg xmlns="http://www.w3.org/2000/svg" xmlns:xlink="http://www.w3.org/1999/xlink" contentScriptType="application/ecmascript" contentStyleType="text/css" height="293.75px" preserveAspectRatio="none" style="width:488px;height:293px;background:#FFFFFF;" version="1.1" viewBox="0 0 488 293" width="488.75px" zoomAndPan="magnify"><defs><filter height="300%" id="f1e9g7o987jkgr" width="300%" x="-1" y="-1"><feGaussianBlur result="blurOut" stdDeviation="2.5"/><feColorMatrix in="blurOut" result="blurOut2" type="matrix" values="0 0 0 0 0 0 0 0 0 0 0 0 0 0 0 0 0 0 .4 0"/><feOffset dx="5.0" dy="5.0" in="blurOut2" result="blurOut3"/><feBlend in="SourceGraphic" in2="blurOut3" mode="normal"/></filter></defs><g><!--MD5=[a2eef0b84d3b6c891bdcb3ede2b90dab]
cluster position--><polygon fill="#FFFFFF" filter="url(#f1e9g7o987jkgr)" points="20,7.5,98.75,7.5,107.5,37.0117,467.5,37.0117,467.5,285,20,285,20,7.5" style="stroke:#000000;stroke-width:1.875;"/><line style="stroke:#000000;stroke-width:1.875;" x1="20" x2="107.5" y1="37.0117" y2="37.0117"/><text fill="#000000" font-family="sans-serif" font-size="17.5" font-weight="bold" lengthAdjust="spacing" textLength="71.25" x="25" y="28.1665">position</text><!--MD5=[e5ee713e4f9d24c2536c36ee547ac3ea]
class position.c--><rect codeLine="3" fill="#FEFECE" filter="url(#f1e9g7o987jkgr)" height="60" id="position.c" style="stroke:#A80036;stroke-width:1.875;" width="47.5" x="220" y="52.5"/><ellipse cx="238.75" cy="72.5" fill="#ADD1B2" rx="13.75" ry="13.75" style="stroke:#A80036;stroke-width:1.25;"/><path d="M241.25,68.125 Q241.5039,67.5 241.7969,67.1875 Q242.0898,66.875 242.4219,66.875 Q243.0078,66.875 243.3789,67.2266 Q243.75,67.5781 243.75,68.3984 L243.75,70.3516 Q243.75,71.1719 243.3984,71.5234 Q243.0469,71.875 242.5,71.875 Q242.0117,71.875 241.6992,71.6602 Q241.3867,71.4453 241.25,70.8789 Q241.1914,70.4883 240.9766,70.2734 Q240.5859,69.8633 239.8828,69.6289 Q239.1797,69.375 238.4766,69.375 Q237.5977,69.375 236.8555,69.7266 Q236.1328,70.0781 235.5664,70.8594 Q235,71.6406 235,72.7148 L235,73.8672 Q235,75.1563 236.0547,76.0156 Q237.1094,76.875 238.9844,76.875 Q240.0977,76.875 240.8789,76.6211 Q241.3281,76.4844 241.8359,76.0352 Q242.168,75.7813 242.3438,75.7031 Q242.5195,75.625 242.7344,75.625 Q243.1445,75.625 243.4375,75.957 Q243.75,76.2695 243.75,76.7188 Q243.75,77.1484 243.3203,77.6563 Q242.6953,78.3984 241.6992,78.8086 Q240.3906,79.375 238.7891,79.375 Q236.9141,79.375 235.4102,78.6328 Q234.1992,78.0469 233.3398,76.7773 Q232.5,75.5078 232.5,74.0039 L232.5,72.6367 Q232.5,71.0742 233.2422,69.707 Q234.0039,68.3398 235.3125,67.6172 Q236.6406,66.875 238.125,66.875 Q239.0234,66.875 239.8047,67.1875 Q240.5859,67.5 241.25,68.125 Z " fill="#000000"/><text fill="#000000" font-family="sans-serif" font-size="15" lengthAdjust="spacing" textLength="7.5" x="256.25" y="78.6377">c</text><line style="stroke:#A80036;stroke-width:1.875;" x1="221.25" x2="266.25" y1="92.5" y2="92.5"/><line style="stroke:#A80036;stroke-width:1.875;" x1="221.25" x2="266.25" y1="102.5" y2="102.5"/><!--MD5=[ada9787215c8b0250ab7f7b65981001d]
class position.s--><rect codeLine="6" fill="#FEFECE" filter="url(#f1e9g7o987jkgr)" height="77.2949" id="position.s" style="stroke:#A80036;stroke-width:1.875;" width="407.5" x="40" y="187.5"/><ellipse cx="234.0625" cy="207.5" fill="#ADD1B2" rx="13.75" ry="13.75" style="stroke:#A80036;stroke-width:1.25;"/><path d="M236.5625,203.125 Q236.8164,202.5 237.1094,202.1875 Q237.4023,201.875 237.7344,201.875 Q238.3203,201.875 238.6914,202.2266 Q239.0625,202.5781 239.0625,203.3984 L239.0625,205.3516 Q239.0625,206.1719 238.7109,206.5234 Q238.3594,206.875 237.8125,206.875 Q237.3242,206.875 237.0117,206.6602 Q236.6992,206.4453 236.5625,205.8789 Q236.5039,205.4883 236.2891,205.2734 Q235.8984,204.8633 235.1953,204.6289 Q234.4922,204.375 233.7891,204.375 Q232.9102,204.375 232.168,204.7266 Q231.4453,205.0781 230.8789,205.8594 Q230.3125,206.6406 230.3125,207.7148 L230.3125,208.8672 Q230.3125,210.1563 231.3672,211.0156 Q232.4219,211.875 234.2969,211.875 Q235.4102,211.875 236.1914,211.6211 Q236.6406,211.4844 237.1484,211.0352 Q237.4805,210.7813 237.6563,210.7031 Q237.832,210.625 238.0469,210.625 Q238.457,210.625 238.75,210.957 Q239.0625,211.2695 239.0625,211.7188 Q239.0625,212.1484 238.6328,212.6563 Q238.0078,213.3984 237.0117,213.8086 Q235.7031,214.375 234.1016,214.375 Q232.2266,214.375 230.7227,213.6328 Q229.5117,213.0469 228.6523,211.7773 Q227.8125,210.5078 227.8125,209.0039 L227.8125,207.6367 Q227.8125,206.0742 228.5547,204.707 Q229.3164,203.3398 230.625,202.6172 Q231.9531,201.875 233.4375,201.875 Q234.3359,201.875 235.1172,202.1875 Q235.8984,202.5 236.5625,203.125 Z " fill="#000000"/><text fill="#000000" font-family="sans-serif" font-size="15" lengthAdjust="spacing" textLength="8.75" x="259.6875" y="213.6377">s</text><line style="stroke:#A80036;stroke-width:1.875;" x1="41.25" x2="446.25" y1="227.5" y2="227.5"/><line style="stroke:#A80036;stroke-width:1.875;" x1="41.25" x2="446.25" y1="237.5" y2="237.5"/><text fill="#000000" font-family="sans-serif" font-size="13.75" lengthAdjust="spacing" textLength="392.5" x="47.5" y="256.7737">+int verifyContainer(short x,short y,short z,int containers[8][8][8])</text><!--MD5=[9be3749695574738042d06ed6e7637ea]
link position.c to position.s--><path codeLine="10" d="M243.75,112.675 C243.75,132.1375 243.75,158.1625 243.75,180.275 " fill="none" id="position.c-to-position.s" style="stroke:#A80036;stroke-width:1.25;stroke-dasharray:7.0,7.0;"/><polygon fill="#A80036" points="243.75,187,248.75,175.75,243.75,180.75,238.75,175.75,243.75,187" style="stroke:#A80036;stroke-width:1.25;"/><!--MD5=[0b0bc307e43a7ea0aa776821b5b21ba3]
@startuml
skinparam classAttributeIconSize 0

class position.c{
}

class position.s {
+ int verifyContainer(short x,short y,short z,int containers[8][8][8])
}

position.s <.up. position.c

@enduml

PlantUML version 1.2021.7(Sun May 23 13:40:07 BST 2021)
(GPL source distribution)
Java Runtime: OpenJDK Runtime Environment
JVM: OpenJDK 64-Bit Server VM
Default Encoding: Cp1252
Language: pt
Country: PT
--></g></svg>