<?xml version="1.0" encoding="UTF-8" standalone="no"?><svg xmlns="http://www.w3.org/2000/svg" xmlns:xlink="http://www.w3.org/1999/xlink" contentScriptType="application/ecmascript" contentStyleType="text/css" height="416.25px" preserveAspectRatio="none" style="width:142px;height:416px;background:#FFFFFF;" version="1.1" viewBox="0 0 142 416" width="142.5px" zoomAndPan="magnify"><defs><filter height="300%" id="f1dqdnksntrfwg" width="300%" x="-1" y="-1"><feGaussianBlur result="blurOut" stdDeviation="2.5"/><feColorMatrix in="blurOut" result="blurOut2" type="matrix" values="0 0 0 0 0 0 0 0 0 0 0 0 0 0 0 0 0 0 .4 0"/><feOffset dx="5.0" dy="5.0" in="blurOut2" result="blurOut3"/><feBlend in="SourceGraphic" in2="blurOut3" mode="normal"/></filter></defs><g><!--MD5=[a0e14dc1c5f22798a4d68a7546a0e1d4]
class PortStaff--><rect codeLine="1" fill="#FEFECE" filter="url(#f1dqdnksntrfwg)" height="60" id="PortStaff" style="stroke:#A80036;stroke-width:1.875;" width="97.5" x="18.125" y="8.75"/><ellipse cx="36.875" cy="28.75" fill="#ADD1B2" rx="13.75" ry="13.75" style="stroke:#A80036;stroke-width:1.25;"/><path d="M39.375,24.375 Q39.6289,23.75 39.9219,23.4375 Q40.2148,23.125 40.5469,23.125 Q41.1328,23.125 41.5039,23.4766 Q41.875,23.8281 41.875,24.6484 L41.875,26.6016 Q41.875,27.4219 41.5234,27.7734 Q41.1719,28.125 40.625,28.125 Q40.1367,28.125 39.8242,27.9102 Q39.5117,27.6953 39.375,27.1289 Q39.3164,26.7383 39.1016,26.5234 Q38.7109,26.1133 38.0078,25.8789 Q37.3047,25.625 36.6016,25.625 Q35.7227,25.625 34.9805,25.9766 Q34.2578,26.3281 33.6914,27.1094 Q33.125,27.8906 33.125,28.9648 L33.125,30.1172 Q33.125,31.4063 34.1797,32.2656 Q35.2344,33.125 37.1094,33.125 Q38.2227,33.125 39.0039,32.8711 Q39.4531,32.7344 39.9609,32.2852 Q40.293,32.0313 40.4688,31.9531 Q40.6445,31.875 40.8594,31.875 Q41.2695,31.875 41.5625,32.207 Q41.875,32.5195 41.875,32.9688 Q41.875,33.3984 41.4453,33.9063 Q40.8203,34.6484 39.8242,35.0586 Q38.5156,35.625 36.9141,35.625 Q35.0391,35.625 33.5352,34.8828 Q32.3242,34.2969 31.4648,33.0273 Q30.625,31.7578 30.625,30.2539 L30.625,28.8867 Q30.625,27.3242 31.3672,25.957 Q32.1289,24.5898 33.4375,23.8672 Q34.7656,23.125 36.25,23.125 Q37.1484,23.125 37.9297,23.4375 Q38.7109,23.75 39.375,24.375 Z " fill="#000000"/><text fill="#000000" font-family="sans-serif" font-size="15" lengthAdjust="spacing" textLength="57.5" x="54.375" y="34.8877">PortStaff</text><line style="stroke:#A80036;stroke-width:1.875;" x1="19.375" x2="114.375" y1="48.75" y2="48.75"/><line style="stroke:#A80036;stroke-width:1.875;" x1="19.375" x2="114.375" y1="58.75" y2="58.75"/><!--MD5=[a3093aa9f96b7df9aab31d8715601ff6]
class Containers--><rect codeLine="4" fill="#FEFECE" filter="url(#f1dqdnksntrfwg)" height="232.9492" id="Containers" style="stroke:#A80036;stroke-width:1.875;" width="116.25" x="8.75" y="166.25"/><ellipse cx="27.5" cy="186.25" fill="#ADD1B2" rx="13.75" ry="13.75" style="stroke:#A80036;stroke-width:1.25;"/><path d="M30,181.875 Q30.2539,181.25 30.5469,180.9375 Q30.8398,180.625 31.1719,180.625 Q31.7578,180.625 32.1289,180.9766 Q32.5,181.3281 32.5,182.1484 L32.5,184.1016 Q32.5,184.9219 32.1484,185.2734 Q31.7969,185.625 31.25,185.625 Q30.7617,185.625 30.4492,185.4102 Q30.1367,185.1953 30,184.6289 Q29.9414,184.2383 29.7266,184.0234 Q29.3359,183.6133 28.6328,183.3789 Q27.9297,183.125 27.2266,183.125 Q26.3477,183.125 25.6055,183.4766 Q24.8828,183.8281 24.3164,184.6094 Q23.75,185.3906 23.75,186.4648 L23.75,187.6172 Q23.75,188.9063 24.8047,189.7656 Q25.8594,190.625 27.7344,190.625 Q28.8477,190.625 29.6289,190.3711 Q30.0781,190.2344 30.5859,189.7852 Q30.918,189.5313 31.0938,189.4531 Q31.2695,189.375 31.4844,189.375 Q31.8945,189.375 32.1875,189.707 Q32.5,190.0195 32.5,190.4688 Q32.5,190.8984 32.0703,191.4063 Q31.4453,192.1484 30.4492,192.5586 Q29.1406,193.125 27.5391,193.125 Q25.6641,193.125 24.1602,192.3828 Q22.9492,191.7969 22.0898,190.5273 Q21.25,189.2578 21.25,187.7539 L21.25,186.3867 Q21.25,184.8242 21.9922,183.457 Q22.7539,182.0898 24.0625,181.3672 Q25.3906,180.625 26.875,180.625 Q27.7734,180.625 28.5547,180.9375 Q29.3359,181.25 30,181.875 Z " fill="#000000"/><text fill="#000000" font-family="sans-serif" font-size="15" lengthAdjust="spacing" textLength="76.25" x="45" y="192.3877">Containers</text><line style="stroke:#A80036;stroke-width:1.875;" x1="10" x2="123.75" y1="206.25" y2="206.25"/><rect fill="none" height="7.5" style="stroke:#C82930;stroke-width:1.25;" width="7.5" x="18.75" y="216.25"/><text fill="#000000" font-family="sans-serif" font-size="13.75" lengthAdjust="spacing" textLength="75" x="33.75" y="225.5237">identification</text><rect fill="none" height="7.5" style="stroke:#C82930;stroke-width:1.25;" width="7.5" x="18.75" y="233.5449"/><text fill="#000000" font-family="sans-serif" font-size="13.75" lengthAdjust="spacing" textLength="47.5" x="33.75" y="242.8186">payload</text><rect fill="none" height="7.5" style="stroke:#C82930;stroke-width:1.25;" width="7.5" x="18.75" y="250.8398"/><text fill="#000000" font-family="sans-serif" font-size="13.75" lengthAdjust="spacing" textLength="23.75" x="33.75" y="260.1135">tare</text><rect fill="none" height="7.5" style="stroke:#C82930;stroke-width:1.25;" width="7.5" x="18.75" y="268.1348"/><text fill="#000000" font-family="sans-serif" font-size="13.75" lengthAdjust="spacing" textLength="35" x="33.75" y="277.4084">gross</text><rect fill="none" height="7.5" style="stroke:#C82930;stroke-width:1.25;" width="7.5" x="18.75" y="285.4297"/><text fill="#000000" font-family="sans-serif" font-size="13.75" lengthAdjust="spacing" textLength="48.75" x="33.75" y="294.7034">isoCode</text><rect fill="none" height="7.5" style="stroke:#C82930;stroke-width:1.25;" width="7.5" x="18.75" y="302.7246"/><text fill="#000000" font-family="sans-serif" font-size="13.75" lengthAdjust="spacing" textLength="36.25" x="33.75" y="311.9983">lenght</text><rect fill="none" height="7.5" style="stroke:#C82930;stroke-width:1.25;" width="7.5" x="18.75" y="320.0195"/><text fill="#000000" font-family="sans-serif" font-size="13.75" lengthAdjust="spacing" textLength="33.75" x="33.75" y="329.2932">width</text><rect fill="none" height="7.5" style="stroke:#C82930;stroke-width:1.25;" width="7.5" x="18.75" y="337.3145"/><text fill="#000000" font-family="sans-serif" font-size="13.75" lengthAdjust="spacing" textLength="36.25" x="33.75" y="346.5881">height</text><rect fill="none" height="7.5" style="stroke:#C82930;stroke-width:1.25;" width="7.5" x="18.75" y="354.6094"/><text fill="#000000" font-family="sans-serif" font-size="13.75" lengthAdjust="spacing" textLength="72.5" x="33.75" y="363.8831">temperature</text><rect fill="none" height="7.5" style="stroke:#C82930;stroke-width:1.25;" width="7.5" x="18.75" y="371.9043"/><text fill="#000000" font-family="sans-serif" font-size="13.75" lengthAdjust="spacing" textLength="71.25" x="33.75" y="381.178">coordinates</text><line style="stroke:#A80036;stroke-width:1.875;" x1="10" x2="123.75" y1="389.1992" y2="389.1992"/><!--MD5=[3406cb103c72a7041928545446b836e0]
link PortStaff to Containers--><path codeLine="17" d="M66.875,69.1 C66.875,93.5375 66.875,130.1375 66.875,166.0875 " fill="none" id="PortStaff-Containers" style="stroke:#A80036;stroke-width:1.25;"/><polygon fill="#000000" points="73.125,123.9697,76.7987,112.6634,69.4513,112.6634,73.125,123.9697" style="stroke:#000000;stroke-width:1.25;"/><text fill="#000000" font-family="sans-serif" font-size="16.25" lengthAdjust="spacing" textLength="46.25" x="84.375" y="124.3689">knows</text><text fill="#000000" font-family="sans-serif" font-size="16.25" lengthAdjust="spacing" textLength="8.75" x="57.0586" y="95.8578">1</text><text fill="#000000" font-family="sans-serif" font-size="16.25" lengthAdjust="spacing" textLength="25" x="40.8398" y="152.4875">1..*</text><!--MD5=[88a18b3f5bbc7669fc70126ace26930b]
@startuml
class PortStaff {
}

class Containers {
- identification
- payload
- tare
- gross
- isoCode
- lenght
- width
- height
- temperature
- coordinates
}

PortStaff"1" -down- "1..*" Containers :> knows



@enduml

PlantUML version 1.2021.7(Sun May 23 13:40:07 BST 2021)
(GPL source distribution)
Java Runtime: OpenJDK Runtime Environment
JVM: OpenJDK 64-Bit Server VM
Default Encoding: Cp1252
Language: pt
Country: PT
--></g></svg>