<?xml version="1.0" encoding="UTF-8" standalone="no"?><svg xmlns="http://www.w3.org/2000/svg" xmlns:xlink="http://www.w3.org/1999/xlink" contentScriptType="application/ecmascript" contentStyleType="text/css" height="537.5px" preserveAspectRatio="none" style="width:491px;height:537px;background:#FFFFFF;" version="1.1" viewBox="0 0 491 537" width="491.25px" zoomAndPan="magnify"><defs><filter height="300%" id="f57ffey8arque" width="300%" x="-1" y="-1"><feGaussianBlur result="blurOut" stdDeviation="2.5"/><feColorMatrix in="blurOut" result="blurOut2" type="matrix" values="0 0 0 0 0 0 0 0 0 0 0 0 0 0 0 0 0 0 .4 0"/><feOffset dx="5.0" dy="5.0" in="blurOut2" result="blurOut3"/><feBlend in="SourceGraphic" in2="blurOut3" mode="normal"/></filter></defs><g><!--MD5=[a0bfe97ac0a38e6e74cc1c7c7b744b71]
class Port--><rect codeLine="2" fill="#FEFECE" filter="url(#f57ffey8arque)" height="163.7695" id="Port" style="stroke:#A80036;stroke-width:1.875;" width="87.5" x="328.125" y="8.75"/><ellipse cx="355.875" cy="28.75" fill="#ADD1B2" rx="13.75" ry="13.75" style="stroke:#A80036;stroke-width:1.25;"/><path d="M358.375,24.375 Q358.6289,23.75 358.9219,23.4375 Q359.2148,23.125 359.5469,23.125 Q360.1328,23.125 360.5039,23.4766 Q360.875,23.8281 360.875,24.6484 L360.875,26.6016 Q360.875,27.4219 360.5234,27.7734 Q360.1719,28.125 359.625,28.125 Q359.1367,28.125 358.8242,27.9102 Q358.5117,27.6953 358.375,27.1289 Q358.3164,26.7383 358.1016,26.5234 Q357.7109,26.1133 357.0078,25.8789 Q356.3047,25.625 355.6016,25.625 Q354.7227,25.625 353.9805,25.9766 Q353.2578,26.3281 352.6914,27.1094 Q352.125,27.8906 352.125,28.9648 L352.125,30.1172 Q352.125,31.4063 353.1797,32.2656 Q354.2344,33.125 356.1094,33.125 Q357.2227,33.125 358.0039,32.8711 Q358.4531,32.7344 358.9609,32.2852 Q359.293,32.0313 359.4688,31.9531 Q359.6445,31.875 359.8594,31.875 Q360.2695,31.875 360.5625,32.207 Q360.875,32.5195 360.875,32.9688 Q360.875,33.3984 360.4453,33.9063 Q359.8203,34.6484 358.8242,35.0586 Q357.5156,35.625 355.9141,35.625 Q354.0391,35.625 352.5352,34.8828 Q351.3242,34.2969 350.4648,33.0273 Q349.625,31.7578 349.625,30.2539 L349.625,28.8867 Q349.625,27.3242 350.3672,25.957 Q351.1289,24.5898 352.4375,23.8672 Q353.7656,23.125 355.25,23.125 Q356.1484,23.125 356.9297,23.4375 Q357.7109,23.75 358.375,24.375 Z " fill="#000000"/><text fill="#000000" font-family="sans-serif" font-size="15" lengthAdjust="spacing" textLength="27.5" x="375.375" y="34.8877">Port</text><line style="stroke:#A80036;stroke-width:1.875;" x1="329.375" x2="414.375" y1="48.75" y2="48.75"/><rect fill="none" height="7.5" style="stroke:#C82930;stroke-width:1.25;" width="7.5" x="338.125" y="58.75"/><text fill="#000000" font-family="sans-serif" font-size="13.75" lengthAdjust="spacing" textLength="30" x="353.125" y="68.0237">code</text><rect fill="none" height="7.5" style="stroke:#C82930;stroke-width:1.25;" width="7.5" x="338.125" y="76.0449"/><text fill="#000000" font-family="sans-serif" font-size="13.75" lengthAdjust="spacing" textLength="23.75" x="353.125" y="85.3186">port</text><rect fill="none" height="7.5" style="stroke:#C82930;stroke-width:1.25;" width="7.5" x="338.125" y="93.3398"/><text fill="#000000" font-family="sans-serif" font-size="13.75" lengthAdjust="spacing" textLength="55" x="353.125" y="102.6135">continent</text><rect fill="none" height="7.5" style="stroke:#C82930;stroke-width:1.25;" width="7.5" x="338.125" y="110.6348"/><text fill="#000000" font-family="sans-serif" font-size="13.75" lengthAdjust="spacing" textLength="46.25" x="353.125" y="119.9084">country</text><rect fill="none" height="7.5" style="stroke:#C82930;stroke-width:1.25;" width="7.5" x="338.125" y="127.9297"/><text fill="#000000" font-family="sans-serif" font-size="13.75" lengthAdjust="spacing" textLength="13.75" x="353.125" y="137.2034">lat</text><rect fill="none" height="7.5" style="stroke:#C82930;stroke-width:1.25;" width="7.5" x="338.125" y="145.2246"/><text fill="#000000" font-family="sans-serif" font-size="13.75" lengthAdjust="spacing" textLength="25" x="353.125" y="154.4983">long</text><line style="stroke:#A80036;stroke-width:1.875;" x1="329.375" x2="414.375" y1="162.5195" y2="162.5195"/><!--MD5=[0dc7f2ddb409b58bcf52b12238c25399]
class Ship--><rect codeLine="11" fill="#FEFECE" filter="url(#f57ffey8arque)" height="250.2441" id="Ship" style="stroke:#A80036;stroke-width:1.875;" width="203.75" x="270" y="270"/><ellipse cx="350.9375" cy="290" fill="#ADD1B2" rx="13.75" ry="13.75" style="stroke:#A80036;stroke-width:1.25;"/><path d="M353.4375,285.625 Q353.6914,285 353.9844,284.6875 Q354.2773,284.375 354.6094,284.375 Q355.1953,284.375 355.5664,284.7266 Q355.9375,285.0781 355.9375,285.8984 L355.9375,287.8516 Q355.9375,288.6719 355.5859,289.0234 Q355.2344,289.375 354.6875,289.375 Q354.1992,289.375 353.8867,289.1602 Q353.5742,288.9453 353.4375,288.3789 Q353.3789,287.9883 353.1641,287.7734 Q352.7734,287.3633 352.0703,287.1289 Q351.3672,286.875 350.6641,286.875 Q349.7852,286.875 349.043,287.2266 Q348.3203,287.5781 347.7539,288.3594 Q347.1875,289.1406 347.1875,290.2148 L347.1875,291.3672 Q347.1875,292.6563 348.2422,293.5156 Q349.2969,294.375 351.1719,294.375 Q352.2852,294.375 353.0664,294.1211 Q353.5156,293.9844 354.0234,293.5352 Q354.3555,293.2813 354.5313,293.2031 Q354.707,293.125 354.9219,293.125 Q355.332,293.125 355.625,293.457 Q355.9375,293.7695 355.9375,294.2188 Q355.9375,294.6484 355.5078,295.1563 Q354.8828,295.8984 353.8867,296.3086 Q352.5781,296.875 350.9766,296.875 Q349.1016,296.875 347.5977,296.1328 Q346.3867,295.5469 345.5273,294.2773 Q344.6875,293.0078 344.6875,291.5039 L344.6875,290.1367 Q344.6875,288.5742 345.4297,287.207 Q346.1914,285.8398 347.5,285.1172 Q348.8281,284.375 350.3125,284.375 Q351.2109,284.375 351.9922,284.6875 Q352.7734,285 353.4375,285.625 Z " fill="#000000"/><text fill="#000000" font-family="sans-serif" font-size="15" lengthAdjust="spacing" textLength="31.25" x="376.5625" y="296.1377">Ship</text><line style="stroke:#A80036;stroke-width:1.875;" x1="271.25" x2="472.5" y1="310" y2="310"/><rect fill="none" height="7.5" style="stroke:#C82930;stroke-width:1.25;" width="7.5" x="280" y="320"/><text fill="#000000" font-family="sans-serif" font-size="13.75" lengthAdjust="spacing" textLength="30" x="295" y="329.2737">mmsi</text><rect fill="none" height="7.5" style="stroke:#C82930;stroke-width:1.25;" width="7.5" x="280" y="337.2949"/><text fill="#000000" font-family="sans-serif" font-size="13.75" lengthAdjust="spacing" textLength="58.75" x="295" y="346.5686">shipName</text><rect fill="none" height="7.5" style="stroke:#C82930;stroke-width:1.25;" width="7.5" x="280" y="354.5898"/><text fill="#000000" font-family="sans-serif" font-size="13.75" lengthAdjust="spacing" textLength="30" x="295" y="363.8635">imoId</text><rect fill="none" height="7.5" style="stroke:#C82930;stroke-width:1.25;" width="7.5" x="280" y="371.8848"/><text fill="#000000" font-family="sans-serif" font-size="13.75" lengthAdjust="spacing" textLength="171.25" x="295" y="381.1584">numberOfEnergyGenerators</text><rect fill="none" height="7.5" style="stroke:#C82930;stroke-width:1.25;" width="7.5" x="280" y="389.1797"/><text fill="#000000" font-family="sans-serif" font-size="13.75" lengthAdjust="spacing" textLength="146.25" x="295" y="398.4534">generatorsPowerOutput</text><rect fill="none" height="7.5" style="stroke:#C82930;stroke-width:1.25;" width="7.5" x="280" y="406.4746"/><text fill="#000000" font-family="sans-serif" font-size="13.75" lengthAdjust="spacing" textLength="46.25" x="295" y="415.7483">callSign</text><rect fill="none" height="7.5" style="stroke:#C82930;stroke-width:1.25;" width="7.5" x="280" y="423.7695"/><text fill="#000000" font-family="sans-serif" font-size="13.75" lengthAdjust="spacing" textLength="70" x="295" y="433.0432">vesselType</text><rect fill="none" height="7.5" style="stroke:#C82930;stroke-width:1.25;" width="7.5" x="280" y="441.0645"/><text fill="#000000" font-family="sans-serif" font-size="13.75" lengthAdjust="spacing" textLength="36.25" x="295" y="450.3381">lenght</text><rect fill="none" height="7.5" style="stroke:#C82930;stroke-width:1.25;" width="7.5" x="280" y="458.3594"/><text fill="#000000" font-family="sans-serif" font-size="13.75" lengthAdjust="spacing" textLength="33.75" x="295" y="467.6331">width</text><rect fill="none" height="7.5" style="stroke:#C82930;stroke-width:1.25;" width="7.5" x="280" y="475.6543"/><text fill="#000000" font-family="sans-serif" font-size="13.75" lengthAdjust="spacing" textLength="51.25" x="295" y="484.928">capacity</text><rect fill="none" height="7.5" style="stroke:#C82930;stroke-width:1.25;" width="7.5" x="280" y="492.9492"/><text fill="#000000" font-family="sans-serif" font-size="13.75" lengthAdjust="spacing" textLength="28.75" x="295" y="502.2229">draft</text><line style="stroke:#A80036;stroke-width:1.875;" x1="271.25" x2="472.5" y1="510.2441" y2="510.2441"/><!--MD5=[ddaf6f62b0bc30921877ec9fb9463c9f]
class TrafficManager--><rect fill="#FEFECE" filter="url(#f57ffey8arque)" height="60" id="TrafficManager" style="stroke:#A80036;stroke-width:1.875;" width="141.25" x="8.75" y="365"/><ellipse cx="27.5" cy="385" fill="#ADD1B2" rx="13.75" ry="13.75" style="stroke:#A80036;stroke-width:1.25;"/><path d="M30,380.625 Q30.2539,380 30.5469,379.6875 Q30.8398,379.375 31.1719,379.375 Q31.7578,379.375 32.1289,379.7266 Q32.5,380.0781 32.5,380.8984 L32.5,382.8516 Q32.5,383.6719 32.1484,384.0234 Q31.7969,384.375 31.25,384.375 Q30.7617,384.375 30.4492,384.1602 Q30.1367,383.9453 30,383.3789 Q29.9414,382.9883 29.7266,382.7734 Q29.3359,382.3633 28.6328,382.1289 Q27.9297,381.875 27.2266,381.875 Q26.3477,381.875 25.6055,382.2266 Q24.8828,382.5781 24.3164,383.3594 Q23.75,384.1406 23.75,385.2148 L23.75,386.3672 Q23.75,387.6563 24.8047,388.5156 Q25.8594,389.375 27.7344,389.375 Q28.8477,389.375 29.6289,389.1211 Q30.0781,388.9844 30.5859,388.5352 Q30.918,388.2813 31.0938,388.2031 Q31.2695,388.125 31.4844,388.125 Q31.8945,388.125 32.1875,388.457 Q32.5,388.7695 32.5,389.2188 Q32.5,389.6484 32.0703,390.1563 Q31.4453,390.8984 30.4492,391.3086 Q29.1406,391.875 27.5391,391.875 Q25.6641,391.875 24.1602,391.1328 Q22.9492,390.5469 22.0898,389.2773 Q21.25,388.0078 21.25,386.5039 L21.25,385.1367 Q21.25,383.5742 21.9922,382.207 Q22.7539,380.8398 24.0625,380.1172 Q25.3906,379.375 26.875,379.375 Q27.7734,379.375 28.5547,379.6875 Q29.3359,380 30,380.625 Z " fill="#000000"/><text fill="#000000" font-family="sans-serif" font-size="15" lengthAdjust="spacing" textLength="101.25" x="45" y="391.1377">TrafficManager</text><line style="stroke:#A80036;stroke-width:1.875;" x1="10" x2="148.75" y1="405" y2="405"/><line style="stroke:#A80036;stroke-width:1.875;" x1="10" x2="148.75" y1="415" y2="415"/><!--MD5=[40e2b5717560220ad35e84810a8f1b44]
link TrafficManager to Ship--><path codeLine="27" d="M150.175,395 C186.025,395 230.2,395 269.65,395 " fill="none" id="TrafficManager-Ship" style="stroke:#A80036;stroke-width:1.25;"/><polygon fill="#000000" points="184.375,380.2197,173.0686,376.5461,173.0686,383.8934,184.375,380.2197" style="stroke:#000000;stroke-width:1.25;"/><text fill="#000000" font-family="sans-serif" font-size="16.25" lengthAdjust="spacing" textLength="57.5" x="189.375" y="386.8689">controls</text><text fill="#000000" font-family="sans-serif" font-size="16.25" lengthAdjust="spacing" textLength="8.75" x="159.8068" y="390.6158">1</text><text fill="#000000" font-family="sans-serif" font-size="16.25" lengthAdjust="spacing" textLength="25" x="235.1493" y="412.7051">1..*</text><!--MD5=[81746cb93c90cbb95bfeb7ee7cddfbe5]
link Port to Ship--><path codeLine="28" d="M371.875,172.775 C371.875,202.6375 371.875,237.2 371.875,270 " fill="none" id="Port-Ship" style="stroke:#A80036;stroke-width:1.25;"/><polygon fill="#000000" points="378.125,227.7197,381.7987,216.4134,374.4513,216.4134,378.125,227.7197" style="stroke:#000000;stroke-width:1.25;"/><text fill="#000000" font-family="sans-serif" font-size="16.25" lengthAdjust="spacing" textLength="61.25" x="389.375" y="228.1189">contains</text><text fill="#000000" font-family="sans-serif" font-size="16.25" lengthAdjust="spacing" textLength="8.75" x="362.6738" y="199.1685">1</text><text fill="#000000" font-family="sans-serif" font-size="16.25" lengthAdjust="spacing" textLength="25" x="345.918" y="256.5404">1..*</text><!--MD5=[4d56dca9e8b5ef74167271bd4d393584]
@startuml

class Port {
 - code
 - port
 - continent
 - country
 - lat
 - long
}

class Ship {
 - mmsi
 - shipName
 - imoId
 - numberOfEnergyGenerators
 - generatorsPowerOutput
 - callSign
 - vesselType
 - lenght
 - width
 - capacity
 - draft
}



TrafficManager"1" -right- "1..*"Ship : > controls
Port "1" -down- "1..*"Ship :> contains


@enduml

PlantUML version 1.2021.7(Sun May 23 13:40:07 BST 2021)
(GPL source distribution)
Java Runtime: OpenJDK Runtime Environment
JVM: OpenJDK 64-Bit Server VM
Default Encoding: Cp1252
Language: pt
Country: PT
--></g></svg>