<?xml version="1.0" encoding="UTF-8" standalone="no"?><svg xmlns="http://www.w3.org/2000/svg" xmlns:xlink="http://www.w3.org/1999/xlink" contentScriptType="application/ecmascript" contentStyleType="text/css" height="1745px" preserveAspectRatio="none" style="width:1357px;height:1745px;background:#FFFFFF;" version="1.1" viewBox="0 0 1357 1745" width="1357.5px" zoomAndPan="magnify"><defs><filter height="300%" id="fbz3x959fremq" width="300%" x="-1" y="-1"><feGaussianBlur result="blurOut" stdDeviation="2.5"/><feColorMatrix in="blurOut" result="blurOut2" type="matrix" values="0 0 0 0 0 0 0 0 0 0 0 0 0 0 0 0 0 0 .4 0"/><feOffset dx="5.0" dy="5.0" in="blurOut2" result="blurOut3"/><feBlend in="SourceGraphic" in2="blurOut3" mode="normal"/></filter></defs><g><!--MD5=[ddaf6f62b0bc30921877ec9fb9463c9f]
class TrafficManager--><rect codeLine="4" fill="#FEFECE" filter="url(#fbz3x959fremq)" height="50" id="TrafficManager" style="stroke:#A80036;stroke-width:1.875;" width="141.25" x="204.375" y="1158.925"/><ellipse cx="223.125" cy="1178.925" fill="#ADD1B2" rx="13.75" ry="13.75" style="stroke:#A80036;stroke-width:1.25;"/><path d="M225.625,1174.55 Q225.8789,1173.925 226.1719,1173.6125 Q226.4648,1173.3 226.7969,1173.3 Q227.3828,1173.3 227.7539,1173.6516 Q228.125,1174.0031 228.125,1174.8234 L228.125,1176.7766 Q228.125,1177.5969 227.7734,1177.9484 Q227.4219,1178.3 226.875,1178.3 Q226.3867,1178.3 226.0742,1178.0852 Q225.7617,1177.8703 225.625,1177.3039 Q225.5664,1176.9133 225.3516,1176.6984 Q224.9609,1176.2883 224.2578,1176.0539 Q223.5547,1175.8 222.8516,1175.8 Q221.9727,1175.8 221.2305,1176.1516 Q220.5078,1176.5031 219.9414,1177.2844 Q219.375,1178.0656 219.375,1179.1398 L219.375,1180.2922 Q219.375,1181.5813 220.4297,1182.4406 Q221.4844,1183.3 223.3594,1183.3 Q224.4727,1183.3 225.2539,1183.0461 Q225.7031,1182.9094 226.2109,1182.4602 Q226.543,1182.2063 226.7188,1182.1281 Q226.8945,1182.05 227.1094,1182.05 Q227.5195,1182.05 227.8125,1182.382 Q228.125,1182.6945 228.125,1183.1438 Q228.125,1183.5734 227.6953,1184.0813 Q227.0703,1184.8234 226.0742,1185.2336 Q224.7656,1185.8 223.1641,1185.8 Q221.2891,1185.8 219.7852,1185.0578 Q218.5742,1184.4719 217.7148,1183.2023 Q216.875,1181.9328 216.875,1180.4289 L216.875,1179.0617 Q216.875,1177.4992 217.6172,1176.132 Q218.3789,1174.7648 219.6875,1174.0422 Q221.0156,1173.3 222.5,1173.3 Q223.3984,1173.3 224.1797,1173.6125 Q224.9609,1173.925 225.625,1174.55 Z " fill="#000000"/><text fill="#000000" font-family="sans-serif" font-size="15" lengthAdjust="spacing" textLength="101.25" x="240.625" y="1185.0627">TrafficManager</text><line style="stroke:#A80036;stroke-width:1.875;" x1="205.625" x2="344.375" y1="1198.925" y2="1198.925"/><!--MD5=[0dc7f2ddb409b58bcf52b12238c25399]
class Ship--><rect codeLine="7" fill="#FEFECE" filter="url(#fbz3x959fremq)" height="240.2441" id="Ship" style="stroke:#A80036;stroke-width:1.875;" width="203.75" x="726.875" y="1063.925"/><ellipse cx="807.8125" cy="1083.925" fill="#ADD1B2" rx="13.75" ry="13.75" style="stroke:#A80036;stroke-width:1.25;"/><path d="M810.3125,1079.55 Q810.5664,1078.925 810.8594,1078.6125 Q811.1523,1078.3 811.4844,1078.3 Q812.0703,1078.3 812.4414,1078.6516 Q812.8125,1079.0031 812.8125,1079.8234 L812.8125,1081.7766 Q812.8125,1082.5969 812.4609,1082.9484 Q812.1094,1083.3 811.5625,1083.3 Q811.0742,1083.3 810.7617,1083.0852 Q810.4492,1082.8703 810.3125,1082.3039 Q810.2539,1081.9133 810.0391,1081.6984 Q809.6484,1081.2883 808.9453,1081.0539 Q808.2422,1080.8 807.5391,1080.8 Q806.6602,1080.8 805.918,1081.1516 Q805.1953,1081.5031 804.6289,1082.2844 Q804.0625,1083.0656 804.0625,1084.1398 L804.0625,1085.2922 Q804.0625,1086.5813 805.1172,1087.4406 Q806.1719,1088.3 808.0469,1088.3 Q809.1602,1088.3 809.9414,1088.0461 Q810.3906,1087.9094 810.8984,1087.4602 Q811.2305,1087.2063 811.4063,1087.1281 Q811.582,1087.05 811.7969,1087.05 Q812.207,1087.05 812.5,1087.382 Q812.8125,1087.6945 812.8125,1088.1438 Q812.8125,1088.5734 812.3828,1089.0813 Q811.7578,1089.8234 810.7617,1090.2336 Q809.4531,1090.8 807.8516,1090.8 Q805.9766,1090.8 804.4727,1090.0578 Q803.2617,1089.4719 802.4023,1088.2023 Q801.5625,1086.9328 801.5625,1085.4289 L801.5625,1084.0617 Q801.5625,1082.4992 802.3047,1081.132 Q803.0664,1079.7648 804.375,1079.0422 Q805.7031,1078.3 807.1875,1078.3 Q808.0859,1078.3 808.8672,1078.6125 Q809.6484,1078.925 810.3125,1079.55 Z " fill="#000000"/><text fill="#000000" font-family="sans-serif" font-size="15" lengthAdjust="spacing" textLength="31.25" x="833.4375" y="1090.0627">Ship</text><line style="stroke:#A80036;stroke-width:1.875;" x1="728.125" x2="929.375" y1="1103.925" y2="1103.925"/><rect fill="none" height="7.5" style="stroke:#C82930;stroke-width:1.25;" width="7.5" x="736.875" y="1113.925"/><text fill="#000000" font-family="sans-serif" font-size="13.75" lengthAdjust="spacing" textLength="30" x="751.875" y="1123.1987">mmsi</text><rect fill="none" height="7.5" style="stroke:#C82930;stroke-width:1.25;" width="7.5" x="736.875" y="1131.2199"/><text fill="#000000" font-family="sans-serif" font-size="13.75" lengthAdjust="spacing" textLength="58.75" x="751.875" y="1140.4936">shipName</text><rect fill="none" height="7.5" style="stroke:#C82930;stroke-width:1.25;" width="7.5" x="736.875" y="1148.5148"/><text fill="#000000" font-family="sans-serif" font-size="13.75" lengthAdjust="spacing" textLength="30" x="751.875" y="1157.7885">imoId</text><rect fill="none" height="7.5" style="stroke:#C82930;stroke-width:1.25;" width="7.5" x="736.875" y="1165.8098"/><text fill="#000000" font-family="sans-serif" font-size="13.75" lengthAdjust="spacing" textLength="171.25" x="751.875" y="1175.0834">numberOfEnergyGenerators</text><rect fill="none" height="7.5" style="stroke:#C82930;stroke-width:1.25;" width="7.5" x="736.875" y="1183.1047"/><text fill="#000000" font-family="sans-serif" font-size="13.75" lengthAdjust="spacing" textLength="146.25" x="751.875" y="1192.3784">generatorsPowerOutput</text><rect fill="none" height="7.5" style="stroke:#C82930;stroke-width:1.25;" width="7.5" x="736.875" y="1200.3996"/><text fill="#000000" font-family="sans-serif" font-size="13.75" lengthAdjust="spacing" textLength="46.25" x="751.875" y="1209.6733">callSign</text><rect fill="none" height="7.5" style="stroke:#C82930;stroke-width:1.25;" width="7.5" x="736.875" y="1217.6945"/><text fill="#000000" font-family="sans-serif" font-size="13.75" lengthAdjust="spacing" textLength="70" x="751.875" y="1226.9682">vesselType</text><rect fill="none" height="7.5" style="stroke:#C82930;stroke-width:1.25;" width="7.5" x="736.875" y="1234.9895"/><text fill="#000000" font-family="sans-serif" font-size="13.75" lengthAdjust="spacing" textLength="36.25" x="751.875" y="1244.2631">lenght</text><rect fill="none" height="7.5" style="stroke:#C82930;stroke-width:1.25;" width="7.5" x="736.875" y="1252.2844"/><text fill="#000000" font-family="sans-serif" font-size="13.75" lengthAdjust="spacing" textLength="33.75" x="751.875" y="1261.5581">width</text><rect fill="none" height="7.5" style="stroke:#C82930;stroke-width:1.25;" width="7.5" x="736.875" y="1269.5793"/><text fill="#000000" font-family="sans-serif" font-size="13.75" lengthAdjust="spacing" textLength="51.25" x="751.875" y="1278.853">capacity</text><rect fill="none" height="7.5" style="stroke:#C82930;stroke-width:1.25;" width="7.5" x="736.875" y="1286.8742"/><text fill="#000000" font-family="sans-serif" font-size="13.75" lengthAdjust="spacing" textLength="28.75" x="751.875" y="1296.1479">draft</text><!--MD5=[a8ffbd38daa8a369450c487507013c0d]
class ShipDynamicFields--><rect codeLine="21" fill="#FEFECE" filter="url(#fbz3x959fremq)" height="188.3594" id="ShipDynamicFields" style="stroke:#A80036;stroke-width:1.875;" width="173.75" x="548.125" y="1470.175"/><ellipse cx="566.875" cy="1490.175" fill="#ADD1B2" rx="13.75" ry="13.75" style="stroke:#A80036;stroke-width:1.25;"/><path d="M569.375,1485.8 Q569.6289,1485.175 569.9219,1484.8625 Q570.2148,1484.55 570.5469,1484.55 Q571.1328,1484.55 571.5039,1484.9016 Q571.875,1485.2531 571.875,1486.0734 L571.875,1488.0266 Q571.875,1488.8469 571.5234,1489.1984 Q571.1719,1489.55 570.625,1489.55 Q570.1367,1489.55 569.8242,1489.3352 Q569.5117,1489.1203 569.375,1488.5539 Q569.3164,1488.1633 569.1016,1487.9484 Q568.7109,1487.5383 568.0078,1487.3039 Q567.3047,1487.05 566.6016,1487.05 Q565.7227,1487.05 564.9805,1487.4016 Q564.2578,1487.7531 563.6914,1488.5344 Q563.125,1489.3156 563.125,1490.3898 L563.125,1491.5422 Q563.125,1492.8313 564.1797,1493.6906 Q565.2344,1494.55 567.1094,1494.55 Q568.2227,1494.55 569.0039,1494.2961 Q569.4531,1494.1594 569.9609,1493.7102 Q570.293,1493.4563 570.4688,1493.3781 Q570.6445,1493.3 570.8594,1493.3 Q571.2695,1493.3 571.5625,1493.632 Q571.875,1493.9445 571.875,1494.3938 Q571.875,1494.8234 571.4453,1495.3313 Q570.8203,1496.0734 569.8242,1496.4836 Q568.5156,1497.05 566.9141,1497.05 Q565.0391,1497.05 563.5352,1496.3078 Q562.3242,1495.7219 561.4648,1494.4523 Q560.625,1493.1828 560.625,1491.6789 L560.625,1490.3117 Q560.625,1488.7492 561.3672,1487.382 Q562.1289,1486.0148 563.4375,1485.2922 Q564.7656,1484.55 566.25,1484.55 Q567.1484,1484.55 567.9297,1484.8625 Q568.7109,1485.175 569.375,1485.8 Z " fill="#000000"/><text fill="#000000" font-family="sans-serif" font-size="15" lengthAdjust="spacing" textLength="133.75" x="584.375" y="1496.3127">ShipDynamicFields</text><line style="stroke:#A80036;stroke-width:1.875;" x1="549.375" x2="720.625" y1="1510.175" y2="1510.175"/><rect fill="none" height="7.5" style="stroke:#C82930;stroke-width:1.25;" width="7.5" x="558.125" y="1520.175"/><text fill="#000000" font-family="sans-serif" font-size="13.75" lengthAdjust="spacing" textLength="53.75" x="573.125" y="1529.4487">dateTime</text><rect fill="none" height="7.5" style="stroke:#C82930;stroke-width:1.25;" width="7.5" x="558.125" y="1537.4699"/><text fill="#000000" font-family="sans-serif" font-size="13.75" lengthAdjust="spacing" textLength="25" x="573.125" y="1546.7436">long</text><rect fill="none" height="7.5" style="stroke:#C82930;stroke-width:1.25;" width="7.5" x="558.125" y="1554.7648"/><text fill="#000000" font-family="sans-serif" font-size="13.75" lengthAdjust="spacing" textLength="13.75" x="573.125" y="1564.0385">lat</text><rect fill="none" height="7.5" style="stroke:#C82930;stroke-width:1.25;" width="7.5" x="558.125" y="1572.0598"/><text fill="#000000" font-family="sans-serif" font-size="13.75" lengthAdjust="spacing" textLength="22.5" x="573.125" y="1581.3334">sog</text><rect fill="none" height="7.5" style="stroke:#C82930;stroke-width:1.25;" width="7.5" x="558.125" y="1589.3547"/><text fill="#000000" font-family="sans-serif" font-size="13.75" lengthAdjust="spacing" textLength="22.5" x="573.125" y="1598.6284">cog</text><rect fill="none" height="7.5" style="stroke:#C82930;stroke-width:1.25;" width="7.5" x="558.125" y="1606.6496"/><text fill="#000000" font-family="sans-serif" font-size="13.75" lengthAdjust="spacing" textLength="47.5" x="573.125" y="1615.9233">heading</text><rect fill="none" height="7.5" style="stroke:#C82930;stroke-width:1.25;" width="7.5" x="558.125" y="1623.9445"/><text fill="#000000" font-family="sans-serif" font-size="13.75" lengthAdjust="spacing" textLength="46.25" x="573.125" y="1633.2182">position</text><rect fill="none" height="7.5" style="stroke:#C82930;stroke-width:1.25;" width="7.5" x="558.125" y="1641.2395"/><text fill="#000000" font-family="sans-serif" font-size="13.75" lengthAdjust="spacing" textLength="102.5" x="573.125" y="1650.5131">transceiverClass</text><!--MD5=[a0bfe97ac0a38e6e74cc1c7c7b744b71]
class Port--><rect codeLine="32" fill="#FEFECE" filter="url(#fbz3x959fremq)" height="153.7695" id="Port" style="stroke:#A80036;stroke-width:1.875;" width="87.5" x="260" y="726.425"/><ellipse cx="287.75" cy="746.425" fill="#ADD1B2" rx="13.75" ry="13.75" style="stroke:#A80036;stroke-width:1.25;"/><path d="M290.25,742.05 Q290.5039,741.425 290.7969,741.1125 Q291.0898,740.8 291.4219,740.8 Q292.0078,740.8 292.3789,741.1516 Q292.75,741.5031 292.75,742.3234 L292.75,744.2766 Q292.75,745.0969 292.3984,745.4484 Q292.0469,745.8 291.5,745.8 Q291.0117,745.8 290.6992,745.5852 Q290.3867,745.3703 290.25,744.8039 Q290.1914,744.4133 289.9766,744.1984 Q289.5859,743.7883 288.8828,743.5539 Q288.1797,743.3 287.4766,743.3 Q286.5977,743.3 285.8555,743.6516 Q285.1328,744.0031 284.5664,744.7844 Q284,745.5656 284,746.6398 L284,747.7922 Q284,749.0813 285.0547,749.9406 Q286.1094,750.8 287.9844,750.8 Q289.0977,750.8 289.8789,750.5461 Q290.3281,750.4094 290.8359,749.9602 Q291.168,749.7063 291.3438,749.6281 Q291.5195,749.55 291.7344,749.55 Q292.1445,749.55 292.4375,749.882 Q292.75,750.1945 292.75,750.6438 Q292.75,751.0734 292.3203,751.5813 Q291.6953,752.3234 290.6992,752.7336 Q289.3906,753.3 287.7891,753.3 Q285.9141,753.3 284.4102,752.5578 Q283.1992,751.9719 282.3398,750.7023 Q281.5,749.4328 281.5,747.9289 L281.5,746.5617 Q281.5,744.9992 282.2422,743.632 Q283.0039,742.2648 284.3125,741.5422 Q285.6406,740.8 287.125,740.8 Q288.0234,740.8 288.8047,741.1125 Q289.5859,741.425 290.25,742.05 Z " fill="#000000"/><text fill="#000000" font-family="sans-serif" font-size="15" lengthAdjust="spacing" textLength="27.5" x="307.25" y="752.5627">Port</text><line style="stroke:#A80036;stroke-width:1.875;" x1="261.25" x2="346.25" y1="766.425" y2="766.425"/><rect fill="none" height="7.5" style="stroke:#C82930;stroke-width:1.25;" width="7.5" x="270" y="776.425"/><text fill="#000000" font-family="sans-serif" font-size="13.75" lengthAdjust="spacing" textLength="30" x="285" y="785.6987">code</text><rect fill="none" height="7.5" style="stroke:#C82930;stroke-width:1.25;" width="7.5" x="270" y="793.7199"/><text fill="#000000" font-family="sans-serif" font-size="13.75" lengthAdjust="spacing" textLength="23.75" x="285" y="802.9936">port</text><rect fill="none" height="7.5" style="stroke:#C82930;stroke-width:1.25;" width="7.5" x="270" y="811.0148"/><text fill="#000000" font-family="sans-serif" font-size="13.75" lengthAdjust="spacing" textLength="55" x="285" y="820.2885">continent</text><rect fill="none" height="7.5" style="stroke:#C82930;stroke-width:1.25;" width="7.5" x="270" y="828.3098"/><text fill="#000000" font-family="sans-serif" font-size="13.75" lengthAdjust="spacing" textLength="46.25" x="285" y="837.5834">country</text><rect fill="none" height="7.5" style="stroke:#C82930;stroke-width:1.25;" width="7.5" x="270" y="845.6047"/><text fill="#000000" font-family="sans-serif" font-size="13.75" lengthAdjust="spacing" textLength="13.75" x="285" y="854.8784">lat</text><rect fill="none" height="7.5" style="stroke:#C82930;stroke-width:1.25;" width="7.5" x="270" y="862.8996"/><text fill="#000000" font-family="sans-serif" font-size="13.75" lengthAdjust="spacing" textLength="25" x="285" y="872.1733">long</text><!--MD5=[c5149b4909ffd2688ff51a939867f774]
class Warehouse--><rect codeLine="41" fill="#FEFECE" filter="url(#fbz3x959fremq)" height="153.7695" id="Warehouse" style="stroke:#A80036;stroke-width:1.875;" width="120" x="8.75" y="68.925"/><ellipse cx="27.5" cy="88.925" fill="#ADD1B2" rx="13.75" ry="13.75" style="stroke:#A80036;stroke-width:1.25;"/><path d="M30,84.55 Q30.2539,83.925 30.5469,83.6125 Q30.8398,83.3 31.1719,83.3 Q31.7578,83.3 32.1289,83.6516 Q32.5,84.0031 32.5,84.8234 L32.5,86.7766 Q32.5,87.5969 32.1484,87.9484 Q31.7969,88.3 31.25,88.3 Q30.7617,88.3 30.4492,88.0852 Q30.1367,87.8703 30,87.3039 Q29.9414,86.9133 29.7266,86.6984 Q29.3359,86.2883 28.6328,86.0539 Q27.9297,85.8 27.2266,85.8 Q26.3477,85.8 25.6055,86.1516 Q24.8828,86.5031 24.3164,87.2844 Q23.75,88.0656 23.75,89.1398 L23.75,90.2922 Q23.75,91.5813 24.8047,92.4406 Q25.8594,93.3 27.7344,93.3 Q28.8477,93.3 29.6289,93.0461 Q30.0781,92.9094 30.5859,92.4602 Q30.918,92.2063 31.0938,92.1281 Q31.2695,92.05 31.4844,92.05 Q31.8945,92.05 32.1875,92.382 Q32.5,92.6945 32.5,93.1438 Q32.5,93.5734 32.0703,94.0813 Q31.4453,94.8234 30.4492,95.2336 Q29.1406,95.8 27.5391,95.8 Q25.6641,95.8 24.1602,95.0578 Q22.9492,94.4719 22.0898,93.2023 Q21.25,91.9328 21.25,90.4289 L21.25,89.0617 Q21.25,87.4992 21.9922,86.132 Q22.7539,84.7648 24.0625,84.0422 Q25.3906,83.3 26.875,83.3 Q27.7734,83.3 28.5547,83.6125 Q29.3359,83.925 30,84.55 Z " fill="#000000"/><text fill="#000000" font-family="sans-serif" font-size="15" lengthAdjust="spacing" textLength="80" x="45" y="95.0627">Warehouse</text><line style="stroke:#A80036;stroke-width:1.875;" x1="10" x2="127.5" y1="108.925" y2="108.925"/><rect fill="none" height="7.5" style="stroke:#C82930;stroke-width:1.25;" width="7.5" x="18.75" y="118.925"/><text fill="#000000" font-family="sans-serif" font-size="13.75" lengthAdjust="spacing" textLength="75" x="33.75" y="128.1987">identification</text><rect fill="none" height="7.5" style="stroke:#C82930;stroke-width:1.25;" width="7.5" x="18.75" y="136.2199"/><text fill="#000000" font-family="sans-serif" font-size="13.75" lengthAdjust="spacing" textLength="32.5" x="33.75" y="145.4936">name</text><rect fill="none" height="7.5" style="stroke:#C82930;stroke-width:1.25;" width="7.5" x="18.75" y="153.5148"/><text fill="#000000" font-family="sans-serif" font-size="13.75" lengthAdjust="spacing" textLength="55" x="33.75" y="162.7885">continent</text><rect fill="none" height="7.5" style="stroke:#C82930;stroke-width:1.25;" width="7.5" x="18.75" y="170.8098"/><text fill="#000000" font-family="sans-serif" font-size="13.75" lengthAdjust="spacing" textLength="46.25" x="33.75" y="180.0834">country</text><rect fill="none" height="7.5" style="stroke:#C82930;stroke-width:1.25;" width="7.5" x="18.75" y="188.1047"/><text fill="#000000" font-family="sans-serif" font-size="13.75" lengthAdjust="spacing" textLength="13.75" x="33.75" y="197.3784">lat</text><rect fill="none" height="7.5" style="stroke:#C82930;stroke-width:1.25;" width="7.5" x="18.75" y="205.3996"/><text fill="#000000" font-family="sans-serif" font-size="13.75" lengthAdjust="spacing" textLength="25" x="33.75" y="214.6733">long</text><!--MD5=[a3093aa9f96b7df9aab31d8715601ff6]
class Containers--><rect codeLine="50" fill="#FEFECE" filter="url(#fbz3x959fremq)" height="222.9492" id="Containers" style="stroke:#A80036;stroke-width:1.875;" width="116.25" x="899.375" y="320.175"/><ellipse cx="918.125" cy="340.175" fill="#ADD1B2" rx="13.75" ry="13.75" style="stroke:#A80036;stroke-width:1.25;"/><path d="M920.625,335.8 Q920.8789,335.175 921.1719,334.8625 Q921.4648,334.55 921.7969,334.55 Q922.3828,334.55 922.7539,334.9016 Q923.125,335.2531 923.125,336.0734 L923.125,338.0266 Q923.125,338.8469 922.7734,339.1984 Q922.4219,339.55 921.875,339.55 Q921.3867,339.55 921.0742,339.3352 Q920.7617,339.1203 920.625,338.5539 Q920.5664,338.1633 920.3516,337.9484 Q919.9609,337.5383 919.2578,337.3039 Q918.5547,337.05 917.8516,337.05 Q916.9727,337.05 916.2305,337.4016 Q915.5078,337.7531 914.9414,338.5344 Q914.375,339.3156 914.375,340.3898 L914.375,341.5422 Q914.375,342.8313 915.4297,343.6906 Q916.4844,344.55 918.3594,344.55 Q919.4727,344.55 920.2539,344.2961 Q920.7031,344.1594 921.2109,343.7102 Q921.543,343.4563 921.7188,343.3781 Q921.8945,343.3 922.1094,343.3 Q922.5195,343.3 922.8125,343.632 Q923.125,343.9445 923.125,344.3938 Q923.125,344.8234 922.6953,345.3313 Q922.0703,346.0734 921.0742,346.4836 Q919.7656,347.05 918.1641,347.05 Q916.2891,347.05 914.7852,346.3078 Q913.5742,345.7219 912.7148,344.4523 Q911.875,343.1828 911.875,341.6789 L911.875,340.3117 Q911.875,338.7492 912.6172,337.382 Q913.3789,336.0148 914.6875,335.2922 Q916.0156,334.55 917.5,334.55 Q918.3984,334.55 919.1797,334.8625 Q919.9609,335.175 920.625,335.8 Z " fill="#000000"/><text fill="#000000" font-family="sans-serif" font-size="15" lengthAdjust="spacing" textLength="76.25" x="935.625" y="346.3127">Containers</text><line style="stroke:#A80036;stroke-width:1.875;" x1="900.625" x2="1014.375" y1="360.175" y2="360.175"/><rect fill="none" height="7.5" style="stroke:#C82930;stroke-width:1.25;" width="7.5" x="909.375" y="370.175"/><text fill="#000000" font-family="sans-serif" font-size="13.75" lengthAdjust="spacing" textLength="75" x="924.375" y="379.4487">identification</text><rect fill="none" height="7.5" style="stroke:#C82930;stroke-width:1.25;" width="7.5" x="909.375" y="387.4699"/><text fill="#000000" font-family="sans-serif" font-size="13.75" lengthAdjust="spacing" textLength="47.5" x="924.375" y="396.7436">payload</text><rect fill="none" height="7.5" style="stroke:#C82930;stroke-width:1.25;" width="7.5" x="909.375" y="404.7648"/><text fill="#000000" font-family="sans-serif" font-size="13.75" lengthAdjust="spacing" textLength="23.75" x="924.375" y="414.0385">tare</text><rect fill="none" height="7.5" style="stroke:#C82930;stroke-width:1.25;" width="7.5" x="909.375" y="422.0598"/><text fill="#000000" font-family="sans-serif" font-size="13.75" lengthAdjust="spacing" textLength="35" x="924.375" y="431.3334">gross</text><rect fill="none" height="7.5" style="stroke:#C82930;stroke-width:1.25;" width="7.5" x="909.375" y="439.3547"/><text fill="#000000" font-family="sans-serif" font-size="13.75" lengthAdjust="spacing" textLength="48.75" x="924.375" y="448.6284">isoCode</text><rect fill="none" height="7.5" style="stroke:#C82930;stroke-width:1.25;" width="7.5" x="909.375" y="456.6496"/><text fill="#000000" font-family="sans-serif" font-size="13.75" lengthAdjust="spacing" textLength="36.25" x="924.375" y="465.9233">lenght</text><rect fill="none" height="7.5" style="stroke:#C82930;stroke-width:1.25;" width="7.5" x="909.375" y="473.9445"/><text fill="#000000" font-family="sans-serif" font-size="13.75" lengthAdjust="spacing" textLength="33.75" x="924.375" y="483.2182">width</text><rect fill="none" height="7.5" style="stroke:#C82930;stroke-width:1.25;" width="7.5" x="909.375" y="491.2395"/><text fill="#000000" font-family="sans-serif" font-size="13.75" lengthAdjust="spacing" textLength="36.25" x="924.375" y="500.5131">height</text><rect fill="none" height="7.5" style="stroke:#C82930;stroke-width:1.25;" width="7.5" x="909.375" y="508.5344"/><text fill="#000000" font-family="sans-serif" font-size="13.75" lengthAdjust="spacing" textLength="72.5" x="924.375" y="517.8081">temperature</text><rect fill="none" height="7.5" style="stroke:#C82930;stroke-width:1.25;" width="7.5" x="909.375" y="525.8293"/><text fill="#000000" font-family="sans-serif" font-size="13.75" lengthAdjust="spacing" textLength="71.25" x="924.375" y="535.103">coordinates</text><!--MD5=[ed6624c6556d5e7b1bd23032162d20b7]
class Client--><rect codeLine="63" fill="#FEFECE" filter="url(#fbz3x959fremq)" height="50" id="Client" style="stroke:#A80036;stroke-width:1.875;" width="80" x="1040" y="120.8"/><ellipse cx="1058.75" cy="140.8" fill="#ADD1B2" rx="13.75" ry="13.75" style="stroke:#A80036;stroke-width:1.25;"/><path d="M1061.25,136.425 Q1061.5039,135.8 1061.7969,135.4875 Q1062.0898,135.175 1062.4219,135.175 Q1063.0078,135.175 1063.3789,135.5266 Q1063.75,135.8781 1063.75,136.6984 L1063.75,138.6516 Q1063.75,139.4719 1063.3984,139.8234 Q1063.0469,140.175 1062.5,140.175 Q1062.0117,140.175 1061.6992,139.9602 Q1061.3867,139.7453 1061.25,139.1789 Q1061.1914,138.7883 1060.9766,138.5734 Q1060.5859,138.1633 1059.8828,137.9289 Q1059.1797,137.675 1058.4766,137.675 Q1057.5977,137.675 1056.8555,138.0266 Q1056.1328,138.3781 1055.5664,139.1594 Q1055,139.9406 1055,141.0148 L1055,142.1672 Q1055,143.4563 1056.0547,144.3156 Q1057.1094,145.175 1058.9844,145.175 Q1060.0977,145.175 1060.8789,144.9211 Q1061.3281,144.7844 1061.8359,144.3352 Q1062.168,144.0813 1062.3438,144.0031 Q1062.5195,143.925 1062.7344,143.925 Q1063.1445,143.925 1063.4375,144.257 Q1063.75,144.5695 1063.75,145.0188 Q1063.75,145.4484 1063.3203,145.9563 Q1062.6953,146.6984 1061.6992,147.1086 Q1060.3906,147.675 1058.7891,147.675 Q1056.9141,147.675 1055.4102,146.9328 Q1054.1992,146.3469 1053.3398,145.0773 Q1052.5,143.8078 1052.5,142.3039 L1052.5,140.9367 Q1052.5,139.3742 1053.2422,138.007 Q1054.0039,136.6398 1055.3125,135.9172 Q1056.6406,135.175 1058.125,135.175 Q1059.0234,135.175 1059.8047,135.4875 Q1060.5859,135.8 1061.25,136.425 Z " fill="#000000"/><text fill="#000000" font-family="sans-serif" font-size="15" lengthAdjust="spacing" textLength="40" x="1076.25" y="146.9377">Client</text><line style="stroke:#A80036;stroke-width:1.875;" x1="1041.25" x2="1118.75" y1="160.8" y2="160.8"/><!--MD5=[76562047389981627aea27c31a97aff5]
class CargoManifest--><rect codeLine="67" fill="#FEFECE" filter="url(#fbz3x959fremq)" height="101.8848" id="CargoManifest" style="stroke:#A80036;stroke-width:1.875;" width="167.5" x="220" y="380.175"/><ellipse cx="251.125" cy="400.175" fill="#ADD1B2" rx="13.75" ry="13.75" style="stroke:#A80036;stroke-width:1.25;"/><path d="M253.625,395.8 Q253.8789,395.175 254.1719,394.8625 Q254.4648,394.55 254.7969,394.55 Q255.3828,394.55 255.7539,394.9016 Q256.125,395.2531 256.125,396.0734 L256.125,398.0266 Q256.125,398.8469 255.7734,399.1984 Q255.4219,399.55 254.875,399.55 Q254.3867,399.55 254.0742,399.3352 Q253.7617,399.1203 253.625,398.5539 Q253.5664,398.1633 253.3516,397.9484 Q252.9609,397.5383 252.2578,397.3039 Q251.5547,397.05 250.8516,397.05 Q249.9727,397.05 249.2305,397.4016 Q248.5078,397.7531 247.9414,398.5344 Q247.375,399.3156 247.375,400.3898 L247.375,401.5422 Q247.375,402.8313 248.4297,403.6906 Q249.4844,404.55 251.3594,404.55 Q252.4727,404.55 253.2539,404.2961 Q253.7031,404.1594 254.2109,403.7102 Q254.543,403.4563 254.7188,403.3781 Q254.8945,403.3 255.1094,403.3 Q255.5195,403.3 255.8125,403.632 Q256.125,403.9445 256.125,404.3938 Q256.125,404.8234 255.6953,405.3313 Q255.0703,406.0734 254.0742,406.4836 Q252.7656,407.05 251.1641,407.05 Q249.2891,407.05 247.7852,406.3078 Q246.5742,405.7219 245.7148,404.4523 Q244.875,403.1828 244.875,401.6789 L244.875,400.3117 Q244.875,398.7492 245.6172,397.382 Q246.3789,396.0148 247.6875,395.2922 Q249.0156,394.55 250.5,394.55 Q251.3984,394.55 252.1797,394.8625 Q252.9609,395.175 253.625,395.8 Z " fill="#000000"/><text fill="#000000" font-family="sans-serif" font-size="15" lengthAdjust="spacing" textLength="100" x="271.375" y="406.3127">CargoManifest</text><line style="stroke:#A80036;stroke-width:1.875;" x1="221.25" x2="386.25" y1="420.175" y2="420.175"/><rect fill="none" height="7.5" style="stroke:#C82930;stroke-width:1.25;" width="7.5" x="230" y="430.175"/><text fill="#000000" font-family="sans-serif" font-size="13.75" lengthAdjust="spacing" textLength="66.25" x="245" y="439.4487">containerId</text><rect fill="none" height="7.5" style="stroke:#C82930;stroke-width:1.25;" width="7.5" x="230" y="447.4699"/><text fill="#000000" font-family="sans-serif" font-size="13.75" lengthAdjust="spacing" textLength="78.75" x="245" y="456.7436">containerPos</text><rect fill="none" height="7.5" style="stroke:#C82930;stroke-width:1.25;" width="7.5" x="230" y="464.7648"/><text fill="#000000" font-family="sans-serif" font-size="13.75" lengthAdjust="spacing" textLength="135" x="245" y="474.0385">containerGrossWeight</text><!--MD5=[f2ba7f6ab60af8dd0d3e354f91729b14]
class Truck--><rect codeLine="73" fill="#FEFECE" filter="url(#fbz3x959fremq)" height="50" id="Truck" style="stroke:#A80036;stroke-width:1.875;" width="77.5" x="918.75" y="120.8"/><ellipse cx="937.5" cy="140.8" fill="#ADD1B2" rx="13.75" ry="13.75" style="stroke:#A80036;stroke-width:1.25;"/><path d="M940,136.425 Q940.2539,135.8 940.5469,135.4875 Q940.8398,135.175 941.1719,135.175 Q941.7578,135.175 942.1289,135.5266 Q942.5,135.8781 942.5,136.6984 L942.5,138.6516 Q942.5,139.4719 942.1484,139.8234 Q941.7969,140.175 941.25,140.175 Q940.7617,140.175 940.4492,139.9602 Q940.1367,139.7453 940,139.1789 Q939.9414,138.7883 939.7266,138.5734 Q939.3359,138.1633 938.6328,137.9289 Q937.9297,137.675 937.2266,137.675 Q936.3477,137.675 935.6055,138.0266 Q934.8828,138.3781 934.3164,139.1594 Q933.75,139.9406 933.75,141.0148 L933.75,142.1672 Q933.75,143.4563 934.8047,144.3156 Q935.8594,145.175 937.7344,145.175 Q938.8477,145.175 939.6289,144.9211 Q940.0781,144.7844 940.5859,144.3352 Q940.918,144.0813 941.0938,144.0031 Q941.2695,143.925 941.4844,143.925 Q941.8945,143.925 942.1875,144.257 Q942.5,144.5695 942.5,145.0188 Q942.5,145.4484 942.0703,145.9563 Q941.4453,146.6984 940.4492,147.1086 Q939.1406,147.675 937.5391,147.675 Q935.6641,147.675 934.1602,146.9328 Q932.9492,146.3469 932.0898,145.0773 Q931.25,143.8078 931.25,142.3039 L931.25,140.9367 Q931.25,139.3742 931.9922,138.007 Q932.7539,136.6398 934.0625,135.9172 Q935.3906,135.175 936.875,135.175 Q937.7734,135.175 938.5547,135.4875 Q939.3359,135.8 940,136.425 Z " fill="#000000"/><text fill="#000000" font-family="sans-serif" font-size="15" lengthAdjust="spacing" textLength="37.5" x="955" y="146.9377">Truck</text><line style="stroke:#A80036;stroke-width:1.875;" x1="920" x2="995" y1="160.8" y2="160.8"/><!--MD5=[019a73386217e12d5bb8e34bf0b46b9e]
class FleetManager--><rect codeLine="76" fill="#FEFECE" filter="url(#fbz3x959fremq)" height="50" id="FleetManager" style="stroke:#A80036;stroke-width:1.875;" width="133.75" x="1206.875" y="1158.925"/><ellipse cx="1225.625" cy="1178.925" fill="#ADD1B2" rx="13.75" ry="13.75" style="stroke:#A80036;stroke-width:1.25;"/><path d="M1228.125,1174.55 Q1228.3789,1173.925 1228.6719,1173.6125 Q1228.9648,1173.3 1229.2969,1173.3 Q1229.8828,1173.3 1230.2539,1173.6516 Q1230.625,1174.0031 1230.625,1174.8234 L1230.625,1176.7766 Q1230.625,1177.5969 1230.2734,1177.9484 Q1229.9219,1178.3 1229.375,1178.3 Q1228.8867,1178.3 1228.5742,1178.0852 Q1228.2617,1177.8703 1228.125,1177.3039 Q1228.0664,1176.9133 1227.8516,1176.6984 Q1227.4609,1176.2883 1226.7578,1176.0539 Q1226.0547,1175.8 1225.3516,1175.8 Q1224.4727,1175.8 1223.7305,1176.1516 Q1223.0078,1176.5031 1222.4414,1177.2844 Q1221.875,1178.0656 1221.875,1179.1398 L1221.875,1180.2922 Q1221.875,1181.5813 1222.9297,1182.4406 Q1223.9844,1183.3 1225.8594,1183.3 Q1226.9727,1183.3 1227.7539,1183.0461 Q1228.2031,1182.9094 1228.7109,1182.4602 Q1229.043,1182.2063 1229.2188,1182.1281 Q1229.3945,1182.05 1229.6094,1182.05 Q1230.0195,1182.05 1230.3125,1182.382 Q1230.625,1182.6945 1230.625,1183.1438 Q1230.625,1183.5734 1230.1953,1184.0813 Q1229.5703,1184.8234 1228.5742,1185.2336 Q1227.2656,1185.8 1225.6641,1185.8 Q1223.7891,1185.8 1222.2852,1185.0578 Q1221.0742,1184.4719 1220.2148,1183.2023 Q1219.375,1181.9328 1219.375,1180.4289 L1219.375,1179.0617 Q1219.375,1177.4992 1220.1172,1176.132 Q1220.8789,1174.7648 1222.1875,1174.0422 Q1223.5156,1173.3 1225,1173.3 Q1225.8984,1173.3 1226.6797,1173.6125 Q1227.4609,1173.925 1228.125,1174.55 Z " fill="#000000"/><text fill="#000000" font-family="sans-serif" font-size="15" lengthAdjust="spacing" textLength="93.75" x="1243.125" y="1185.0627">FleetManager</text><line style="stroke:#A80036;stroke-width:1.875;" x1="1208.125" x2="1339.375" y1="1198.925" y2="1198.925"/><!--MD5=[7fcbedb88579745280c367cebf31fce2]
class WarehouseStaff--><rect codeLine="79" fill="#FEFECE" filter="url(#fbz3x959fremq)" height="50" id="WarehouseStaff" style="stroke:#A80036;stroke-width:1.875;" width="150" x="481.25" y="120.8"/><ellipse cx="500" cy="140.8" fill="#ADD1B2" rx="13.75" ry="13.75" style="stroke:#A80036;stroke-width:1.25;"/><path d="M502.5,136.425 Q502.7539,135.8 503.0469,135.4875 Q503.3398,135.175 503.6719,135.175 Q504.2578,135.175 504.6289,135.5266 Q505,135.8781 505,136.6984 L505,138.6516 Q505,139.4719 504.6484,139.8234 Q504.2969,140.175 503.75,140.175 Q503.2617,140.175 502.9492,139.9602 Q502.6367,139.7453 502.5,139.1789 Q502.4414,138.7883 502.2266,138.5734 Q501.8359,138.1633 501.1328,137.9289 Q500.4297,137.675 499.7266,137.675 Q498.8477,137.675 498.1055,138.0266 Q497.3828,138.3781 496.8164,139.1594 Q496.25,139.9406 496.25,141.0148 L496.25,142.1672 Q496.25,143.4563 497.3047,144.3156 Q498.3594,145.175 500.2344,145.175 Q501.3477,145.175 502.1289,144.9211 Q502.5781,144.7844 503.0859,144.3352 Q503.418,144.0813 503.5938,144.0031 Q503.7695,143.925 503.9844,143.925 Q504.3945,143.925 504.6875,144.257 Q505,144.5695 505,145.0188 Q505,145.4484 504.5703,145.9563 Q503.9453,146.6984 502.9492,147.1086 Q501.6406,147.675 500.0391,147.675 Q498.1641,147.675 496.6602,146.9328 Q495.4492,146.3469 494.5898,145.0773 Q493.75,143.8078 493.75,142.3039 L493.75,140.9367 Q493.75,139.3742 494.4922,138.007 Q495.2539,136.6398 496.5625,135.9172 Q497.8906,135.175 499.375,135.175 Q500.2734,135.175 501.0547,135.4875 Q501.8359,135.8 502.5,136.425 Z " fill="#000000"/><text fill="#000000" font-family="sans-serif" font-size="15" lengthAdjust="spacing" textLength="110" x="517.5" y="146.9377">WarehouseStaff</text><line style="stroke:#A80036;stroke-width:1.875;" x1="482.5" x2="630" y1="160.8" y2="160.8"/><!--MD5=[5e1deb958606d83ef5f4988eb2b8f966]
class WarehouseManager--><rect codeLine="82" fill="#FEFECE" filter="url(#fbz3x959fremq)" height="50" id="WarehouseManager" style="stroke:#A80036;stroke-width:1.875;" width="180" x="257.5" y="120.8"/><ellipse cx="276.25" cy="140.8" fill="#ADD1B2" rx="13.75" ry="13.75" style="stroke:#A80036;stroke-width:1.25;"/><path d="M278.75,136.425 Q279.0039,135.8 279.2969,135.4875 Q279.5898,135.175 279.9219,135.175 Q280.5078,135.175 280.8789,135.5266 Q281.25,135.8781 281.25,136.6984 L281.25,138.6516 Q281.25,139.4719 280.8984,139.8234 Q280.5469,140.175 280,140.175 Q279.5117,140.175 279.1992,139.9602 Q278.8867,139.7453 278.75,139.1789 Q278.6914,138.7883 278.4766,138.5734 Q278.0859,138.1633 277.3828,137.9289 Q276.6797,137.675 275.9766,137.675 Q275.0977,137.675 274.3555,138.0266 Q273.6328,138.3781 273.0664,139.1594 Q272.5,139.9406 272.5,141.0148 L272.5,142.1672 Q272.5,143.4563 273.5547,144.3156 Q274.6094,145.175 276.4844,145.175 Q277.5977,145.175 278.3789,144.9211 Q278.8281,144.7844 279.3359,144.3352 Q279.668,144.0813 279.8438,144.0031 Q280.0195,143.925 280.2344,143.925 Q280.6445,143.925 280.9375,144.257 Q281.25,144.5695 281.25,145.0188 Q281.25,145.4484 280.8203,145.9563 Q280.1953,146.6984 279.1992,147.1086 Q277.8906,147.675 276.2891,147.675 Q274.4141,147.675 272.9102,146.9328 Q271.6992,146.3469 270.8398,145.0773 Q270,143.8078 270,142.3039 L270,140.9367 Q270,139.3742 270.7422,138.007 Q271.5039,136.6398 272.8125,135.9172 Q274.1406,135.175 275.625,135.175 Q276.5234,135.175 277.3047,135.4875 Q278.0859,135.8 278.75,136.425 Z " fill="#000000"/><text fill="#000000" font-family="sans-serif" font-size="15" lengthAdjust="spacing" textLength="140" x="293.75" y="146.9377">WarehouseManager</text><line style="stroke:#A80036;stroke-width:1.875;" x1="258.75" x2="436.25" y1="160.8" y2="160.8"/><!--MD5=[a0e14dc1c5f22798a4d68a7546a0e1d4]
class PortStaff--><rect codeLine="85" fill="#FEFECE" filter="url(#fbz3x959fremq)" height="50" id="PortStaff" style="stroke:#A80036;stroke-width:1.875;" width="97.5" x="1046.25" y="778.3"/><ellipse cx="1065" cy="798.3" fill="#ADD1B2" rx="13.75" ry="13.75" style="stroke:#A80036;stroke-width:1.25;"/><path d="M1067.5,793.925 Q1067.7539,793.3 1068.0469,792.9875 Q1068.3398,792.675 1068.6719,792.675 Q1069.2578,792.675 1069.6289,793.0266 Q1070,793.3781 1070,794.1984 L1070,796.1516 Q1070,796.9719 1069.6484,797.3234 Q1069.2969,797.675 1068.75,797.675 Q1068.2617,797.675 1067.9492,797.4602 Q1067.6367,797.2453 1067.5,796.6789 Q1067.4414,796.2883 1067.2266,796.0734 Q1066.8359,795.6633 1066.1328,795.4289 Q1065.4297,795.175 1064.7266,795.175 Q1063.8477,795.175 1063.1055,795.5266 Q1062.3828,795.8781 1061.8164,796.6594 Q1061.25,797.4406 1061.25,798.5148 L1061.25,799.6672 Q1061.25,800.9563 1062.3047,801.8156 Q1063.3594,802.675 1065.2344,802.675 Q1066.3477,802.675 1067.1289,802.4211 Q1067.5781,802.2844 1068.0859,801.8352 Q1068.418,801.5813 1068.5938,801.5031 Q1068.7695,801.425 1068.9844,801.425 Q1069.3945,801.425 1069.6875,801.757 Q1070,802.0695 1070,802.5188 Q1070,802.9484 1069.5703,803.4563 Q1068.9453,804.1984 1067.9492,804.6086 Q1066.6406,805.175 1065.0391,805.175 Q1063.1641,805.175 1061.6602,804.4328 Q1060.4492,803.8469 1059.5898,802.5773 Q1058.75,801.3078 1058.75,799.8039 L1058.75,798.4367 Q1058.75,796.8742 1059.4922,795.507 Q1060.2539,794.1398 1061.5625,793.4172 Q1062.8906,792.675 1064.375,792.675 Q1065.2734,792.675 1066.0547,792.9875 Q1066.8359,793.3 1067.5,793.925 Z " fill="#000000"/><text fill="#000000" font-family="sans-serif" font-size="15" lengthAdjust="spacing" textLength="57.5" x="1082.5" y="804.4377">PortStaff</text><line style="stroke:#A80036;stroke-width:1.875;" x1="1047.5" x2="1142.5" y1="818.3" y2="818.3"/><!--MD5=[99d8f1361a72f685c413d1fd21efef1c]
class PortManager--><rect codeLine="88" fill="#FEFECE" filter="url(#fbz3x959fremq)" height="50" id="PortManager" style="stroke:#A80036;stroke-width:1.875;" width="127.5" x="742.5" y="778.3"/><ellipse cx="761.25" cy="798.3" fill="#ADD1B2" rx="13.75" ry="13.75" style="stroke:#A80036;stroke-width:1.25;"/><path d="M763.75,793.925 Q764.0039,793.3 764.2969,792.9875 Q764.5898,792.675 764.9219,792.675 Q765.5078,792.675 765.8789,793.0266 Q766.25,793.3781 766.25,794.1984 L766.25,796.1516 Q766.25,796.9719 765.8984,797.3234 Q765.5469,797.675 765,797.675 Q764.5117,797.675 764.1992,797.4602 Q763.8867,797.2453 763.75,796.6789 Q763.6914,796.2883 763.4766,796.0734 Q763.0859,795.6633 762.3828,795.4289 Q761.6797,795.175 760.9766,795.175 Q760.0977,795.175 759.3555,795.5266 Q758.6328,795.8781 758.0664,796.6594 Q757.5,797.4406 757.5,798.5148 L757.5,799.6672 Q757.5,800.9563 758.5547,801.8156 Q759.6094,802.675 761.4844,802.675 Q762.5977,802.675 763.3789,802.4211 Q763.8281,802.2844 764.3359,801.8352 Q764.668,801.5813 764.8438,801.5031 Q765.0195,801.425 765.2344,801.425 Q765.6445,801.425 765.9375,801.757 Q766.25,802.0695 766.25,802.5188 Q766.25,802.9484 765.8203,803.4563 Q765.1953,804.1984 764.1992,804.6086 Q762.8906,805.175 761.2891,805.175 Q759.4141,805.175 757.9102,804.4328 Q756.6992,803.8469 755.8398,802.5773 Q755,801.3078 755,799.8039 L755,798.4367 Q755,796.8742 755.7422,795.507 Q756.5039,794.1398 757.8125,793.4172 Q759.1406,792.675 760.625,792.675 Q761.5234,792.675 762.3047,792.9875 Q763.0859,793.3 763.75,793.925 Z " fill="#000000"/><text fill="#000000" font-family="sans-serif" font-size="15" lengthAdjust="spacing" textLength="87.5" x="778.75" y="804.4377">PortManager</text><line style="stroke:#A80036;stroke-width:1.875;" x1="743.75" x2="868.75" y1="818.3" y2="818.3"/><!--MD5=[e6b394b930674b2255938b8afe6bb7b4]
class ShipCaptain--><rect codeLine="91" fill="#FEFECE" filter="url(#fbz3x959fremq)" height="50" id="ShipCaptain" style="stroke:#A80036;stroke-width:1.875;" width="125" x="766.25" y="1539.55"/><ellipse cx="785" cy="1559.55" fill="#ADD1B2" rx="13.75" ry="13.75" style="stroke:#A80036;stroke-width:1.25;"/><path d="M787.5,1555.175 Q787.7539,1554.55 788.0469,1554.2375 Q788.3398,1553.925 788.6719,1553.925 Q789.2578,1553.925 789.6289,1554.2766 Q790,1554.6281 790,1555.4484 L790,1557.4016 Q790,1558.2219 789.6484,1558.5734 Q789.2969,1558.925 788.75,1558.925 Q788.2617,1558.925 787.9492,1558.7102 Q787.6367,1558.4953 787.5,1557.9289 Q787.4414,1557.5383 787.2266,1557.3234 Q786.8359,1556.9133 786.1328,1556.6789 Q785.4297,1556.425 784.7266,1556.425 Q783.8477,1556.425 783.1055,1556.7766 Q782.3828,1557.1281 781.8164,1557.9094 Q781.25,1558.6906 781.25,1559.7648 L781.25,1560.9172 Q781.25,1562.2063 782.3047,1563.0656 Q783.3594,1563.925 785.2344,1563.925 Q786.3477,1563.925 787.1289,1563.6711 Q787.5781,1563.5344 788.0859,1563.0852 Q788.418,1562.8313 788.5938,1562.7531 Q788.7695,1562.675 788.9844,1562.675 Q789.3945,1562.675 789.6875,1563.007 Q790,1563.3195 790,1563.7688 Q790,1564.1984 789.5703,1564.7063 Q788.9453,1565.4484 787.9492,1565.8586 Q786.6406,1566.425 785.0391,1566.425 Q783.1641,1566.425 781.6602,1565.6828 Q780.4492,1565.0969 779.5898,1563.8273 Q778.75,1562.5578 778.75,1561.0539 L778.75,1559.6867 Q778.75,1558.1242 779.4922,1556.757 Q780.2539,1555.3898 781.5625,1554.6672 Q782.8906,1553.925 784.375,1553.925 Q785.2734,1553.925 786.0547,1554.2375 Q786.8359,1554.55 787.5,1555.175 Z " fill="#000000"/><text fill="#000000" font-family="sans-serif" font-size="15" lengthAdjust="spacing" textLength="85" x="802.5" y="1565.6877">ShipCaptain</text><line style="stroke:#A80036;stroke-width:1.875;" x1="767.5" x2="890" y1="1579.55" y2="1579.55"/><!--MD5=[d14076b1fa5ff6fc34e7abc31c5e1daa]
class ShipChiefElectricalEngineer--><rect codeLine="94" fill="#FEFECE" filter="url(#fbz3x959fremq)" height="50" id="ShipChiefElectricalEngineer" style="stroke:#A80036;stroke-width:1.875;" width="232.5" x="390" y="1158.925"/><ellipse cx="408.75" cy="1178.925" fill="#ADD1B2" rx="13.75" ry="13.75" style="stroke:#A80036;stroke-width:1.25;"/><path d="M411.25,1174.55 Q411.5039,1173.925 411.7969,1173.6125 Q412.0898,1173.3 412.4219,1173.3 Q413.0078,1173.3 413.3789,1173.6516 Q413.75,1174.0031 413.75,1174.8234 L413.75,1176.7766 Q413.75,1177.5969 413.3984,1177.9484 Q413.0469,1178.3 412.5,1178.3 Q412.0117,1178.3 411.6992,1178.0852 Q411.3867,1177.8703 411.25,1177.3039 Q411.1914,1176.9133 410.9766,1176.6984 Q410.5859,1176.2883 409.8828,1176.0539 Q409.1797,1175.8 408.4766,1175.8 Q407.5977,1175.8 406.8555,1176.1516 Q406.1328,1176.5031 405.5664,1177.2844 Q405,1178.0656 405,1179.1398 L405,1180.2922 Q405,1181.5813 406.0547,1182.4406 Q407.1094,1183.3 408.9844,1183.3 Q410.0977,1183.3 410.8789,1183.0461 Q411.3281,1182.9094 411.8359,1182.4602 Q412.168,1182.2063 412.3438,1182.1281 Q412.5195,1182.05 412.7344,1182.05 Q413.1445,1182.05 413.4375,1182.382 Q413.75,1182.6945 413.75,1183.1438 Q413.75,1183.5734 413.3203,1184.0813 Q412.6953,1184.8234 411.6992,1185.2336 Q410.3906,1185.8 408.7891,1185.8 Q406.9141,1185.8 405.4102,1185.0578 Q404.1992,1184.4719 403.3398,1183.2023 Q402.5,1181.9328 402.5,1180.4289 L402.5,1179.0617 Q402.5,1177.4992 403.2422,1176.132 Q404.0039,1174.7648 405.3125,1174.0422 Q406.6406,1173.3 408.125,1173.3 Q409.0234,1173.3 409.8047,1173.6125 Q410.5859,1173.925 411.25,1174.55 Z " fill="#000000"/><text fill="#000000" font-family="sans-serif" font-size="15" lengthAdjust="spacing" textLength="192.5" x="426.25" y="1185.0627">ShipChiefElectricalEngineer</text><line style="stroke:#A80036;stroke-width:1.875;" x1="391.25" x2="621.25" y1="1198.925" y2="1198.925"/><!--MD5=[a93a86a91abc8796b23cdcc7cc3b17ff]
class TruckDriver--><rect codeLine="97" fill="#FEFECE" filter="url(#fbz3x959fremq)" height="50" id="TruckDriver" style="stroke:#A80036;stroke-width:1.875;" width="117.5" x="675" y="120.8"/><ellipse cx="693.75" cy="140.8" fill="#ADD1B2" rx="13.75" ry="13.75" style="stroke:#A80036;stroke-width:1.25;"/><path d="M696.25,136.425 Q696.5039,135.8 696.7969,135.4875 Q697.0898,135.175 697.4219,135.175 Q698.0078,135.175 698.3789,135.5266 Q698.75,135.8781 698.75,136.6984 L698.75,138.6516 Q698.75,139.4719 698.3984,139.8234 Q698.0469,140.175 697.5,140.175 Q697.0117,140.175 696.6992,139.9602 Q696.3867,139.7453 696.25,139.1789 Q696.1914,138.7883 695.9766,138.5734 Q695.5859,138.1633 694.8828,137.9289 Q694.1797,137.675 693.4766,137.675 Q692.5977,137.675 691.8555,138.0266 Q691.1328,138.3781 690.5664,139.1594 Q690,139.9406 690,141.0148 L690,142.1672 Q690,143.4563 691.0547,144.3156 Q692.1094,145.175 693.9844,145.175 Q695.0977,145.175 695.8789,144.9211 Q696.3281,144.7844 696.8359,144.3352 Q697.168,144.0813 697.3438,144.0031 Q697.5195,143.925 697.7344,143.925 Q698.1445,143.925 698.4375,144.257 Q698.75,144.5695 698.75,145.0188 Q698.75,145.4484 698.3203,145.9563 Q697.6953,146.6984 696.6992,147.1086 Q695.3906,147.675 693.7891,147.675 Q691.9141,147.675 690.4102,146.9328 Q689.1992,146.3469 688.3398,145.0773 Q687.5,143.8078 687.5,142.3039 L687.5,140.9367 Q687.5,139.3742 688.2422,138.007 Q689.0039,136.6398 690.3125,135.9172 Q691.6406,135.175 693.125,135.175 Q694.0234,135.175 694.8047,135.4875 Q695.5859,135.8 696.25,136.425 Z " fill="#000000"/><text fill="#000000" font-family="sans-serif" font-size="15" lengthAdjust="spacing" textLength="77.5" x="711.25" y="146.9377">TruckDriver</text><line style="stroke:#A80036;stroke-width:1.875;" x1="676.25" x2="791.25" y1="160.8" y2="160.8"/><!--MD5=[ac7de62ce9384a92b5e95b1a406bc87c]
class ShipDistance--><rect codeLine="100" fill="#FEFECE" filter="url(#fbz3x959fremq)" height="326.7188" id="ShipDistance" style="stroke:#A80036;stroke-width:1.875;" width="132.5" x="935" y="1401.425"/><ellipse cx="953.75" cy="1421.425" fill="#ADD1B2" rx="13.75" ry="13.75" style="stroke:#A80036;stroke-width:1.25;"/><path d="M956.25,1417.05 Q956.5039,1416.425 956.7969,1416.1125 Q957.0898,1415.8 957.4219,1415.8 Q958.0078,1415.8 958.3789,1416.1516 Q958.75,1416.5031 958.75,1417.3234 L958.75,1419.2766 Q958.75,1420.0969 958.3984,1420.4484 Q958.0469,1420.8 957.5,1420.8 Q957.0117,1420.8 956.6992,1420.5852 Q956.3867,1420.3703 956.25,1419.8039 Q956.1914,1419.4133 955.9766,1419.1984 Q955.5859,1418.7883 954.8828,1418.5539 Q954.1797,1418.3 953.4766,1418.3 Q952.5977,1418.3 951.8555,1418.6516 Q951.1328,1419.0031 950.5664,1419.7844 Q950,1420.5656 950,1421.6398 L950,1422.7922 Q950,1424.0813 951.0547,1424.9406 Q952.1094,1425.8 953.9844,1425.8 Q955.0977,1425.8 955.8789,1425.5461 Q956.3281,1425.4094 956.8359,1424.9602 Q957.168,1424.7063 957.3438,1424.6281 Q957.5195,1424.55 957.7344,1424.55 Q958.1445,1424.55 958.4375,1424.882 Q958.75,1425.1945 958.75,1425.6438 Q958.75,1426.0734 958.3203,1426.5813 Q957.6953,1427.3234 956.6992,1427.7336 Q955.3906,1428.3 953.7891,1428.3 Q951.9141,1428.3 950.4102,1427.5578 Q949.1992,1426.9719 948.3398,1425.7023 Q947.5,1424.4328 947.5,1422.9289 L947.5,1421.5617 Q947.5,1419.9992 948.2422,1418.632 Q949.0039,1417.2648 950.3125,1416.5422 Q951.6406,1415.8 953.125,1415.8 Q954.0234,1415.8 954.8047,1416.1125 Q955.5859,1416.425 956.25,1417.05 Z " fill="#000000"/><text fill="#000000" font-family="sans-serif" font-size="15" lengthAdjust="spacing" textLength="92.5" x="971.25" y="1427.5627">ShipDistance</text><line style="stroke:#A80036;stroke-width:1.875;" x1="936.25" x2="1066.25" y1="1441.425" y2="1441.425"/><rect fill="none" height="7.5" style="stroke:#C82930;stroke-width:1.25;" width="7.5" x="945" y="1451.425"/><text fill="#000000" font-family="sans-serif" font-size="13.75" lengthAdjust="spacing" textLength="30" x="960" y="1460.6987">mmsi</text><rect fill="none" height="7.5" style="stroke:#C82930;stroke-width:1.25;" width="7.5" x="945" y="1468.7199"/><text fill="#000000" font-family="sans-serif" font-size="13.75" lengthAdjust="spacing" textLength="73.75" x="960" y="1477.9936">vesselName</text><rect fill="none" height="7.5" style="stroke:#C82930;stroke-width:1.25;" width="7.5" x="945" y="1486.0148"/><text fill="#000000" font-family="sans-serif" font-size="13.75" lengthAdjust="spacing" textLength="55" x="960" y="1495.2885">startTime</text><rect fill="none" height="7.5" style="stroke:#C82930;stroke-width:1.25;" width="7.5" x="945" y="1503.3098"/><text fill="#000000" font-family="sans-serif" font-size="13.75" lengthAdjust="spacing" textLength="50" x="960" y="1512.5834">endTime</text><rect fill="none" height="7.5" style="stroke:#C82930;stroke-width:1.25;" width="7.5" x="945" y="1520.6047"/><text fill="#000000" font-family="sans-serif" font-size="13.75" lengthAdjust="spacing" textLength="93.75" x="960" y="1529.8784">totalMovements</text><rect fill="none" height="7.5" style="stroke:#C82930;stroke-width:1.25;" width="7.5" x="945" y="1537.8996"/><text fill="#000000" font-family="sans-serif" font-size="13.75" lengthAdjust="spacing" textLength="52.5" x="960" y="1547.1733">totalTime</text><rect fill="none" height="7.5" style="stroke:#C82930;stroke-width:1.25;" width="7.5" x="945" y="1555.1945"/><text fill="#000000" font-family="sans-serif" font-size="13.75" lengthAdjust="spacing" textLength="48.75" x="960" y="1564.4682">maxSog</text><rect fill="none" height="7.5" style="stroke:#C82930;stroke-width:1.25;" width="7.5" x="945" y="1572.4895"/><text fill="#000000" font-family="sans-serif" font-size="13.75" lengthAdjust="spacing" textLength="56.25" x="960" y="1581.7631">meanSog</text><rect fill="none" height="7.5" style="stroke:#C82930;stroke-width:1.25;" width="7.5" x="945" y="1589.7844"/><text fill="#000000" font-family="sans-serif" font-size="13.75" lengthAdjust="spacing" textLength="48.75" x="960" y="1599.0581">maxCog</text><rect fill="none" height="7.5" style="stroke:#C82930;stroke-width:1.25;" width="7.5" x="945" y="1607.0793"/><text fill="#000000" font-family="sans-serif" font-size="13.75" lengthAdjust="spacing" textLength="56.25" x="960" y="1616.353">meanCog</text><rect fill="none" height="7.5" style="stroke:#C82930;stroke-width:1.25;" width="7.5" x="945" y="1624.3742"/><text fill="#000000" font-family="sans-serif" font-size="13.75" lengthAdjust="spacing" textLength="70" x="960" y="1633.6479">depLatitude</text><rect fill="none" height="7.5" style="stroke:#C82930;stroke-width:1.25;" width="7.5" x="945" y="1641.6691"/><text fill="#000000" font-family="sans-serif" font-size="13.75" lengthAdjust="spacing" textLength="65" x="960" y="1650.9428">arrLatitude</text><rect fill="none" height="7.5" style="stroke:#C82930;stroke-width:1.25;" width="7.5" x="945" y="1658.9641"/><text fill="#000000" font-family="sans-serif" font-size="13.75" lengthAdjust="spacing" textLength="52.5" x="960" y="1668.2377">depLong</text><rect fill="none" height="7.5" style="stroke:#C82930;stroke-width:1.25;" width="7.5" x="945" y="1676.259"/><text fill="#000000" font-family="sans-serif" font-size="13.75" lengthAdjust="spacing" textLength="47.5" x="960" y="1685.5327">arrLong</text><rect fill="none" height="7.5" style="stroke:#C82930;stroke-width:1.25;" width="7.5" x="945" y="1693.5539"/><text fill="#000000" font-family="sans-serif" font-size="13.75" lengthAdjust="spacing" textLength="46.25" x="960" y="1702.8276">travDist</text><rect fill="none" height="7.5" style="stroke:#C82930;stroke-width:1.25;" width="7.5" x="945" y="1710.8488"/><text fill="#000000" font-family="sans-serif" font-size="13.75" lengthAdjust="spacing" textLength="43.75" x="960" y="1720.1225">deltDist</text><!--MD5=[f6b3929c0540a43527d6df01ce8c04ff]
class ShipMovement--><rect codeLine="120" fill="#FEFECE" filter="url(#fbz3x959fremq)" height="326.7188" id="ShipMovement" style="stroke:#A80036;stroke-width:1.875;" width="141.25" x="556.875" y="640.175"/><ellipse cx="575.625" cy="660.175" fill="#ADD1B2" rx="13.75" ry="13.75" style="stroke:#A80036;stroke-width:1.25;"/><path d="M578.125,655.8 Q578.3789,655.175 578.6719,654.8625 Q578.9648,654.55 579.2969,654.55 Q579.8828,654.55 580.2539,654.9016 Q580.625,655.2531 580.625,656.0734 L580.625,658.0266 Q580.625,658.8469 580.2734,659.1984 Q579.9219,659.55 579.375,659.55 Q578.8867,659.55 578.5742,659.3352 Q578.2617,659.1203 578.125,658.5539 Q578.0664,658.1633 577.8516,657.9484 Q577.4609,657.5383 576.7578,657.3039 Q576.0547,657.05 575.3516,657.05 Q574.4727,657.05 573.7305,657.4016 Q573.0078,657.7531 572.4414,658.5344 Q571.875,659.3156 571.875,660.3898 L571.875,661.5422 Q571.875,662.8313 572.9297,663.6906 Q573.9844,664.55 575.8594,664.55 Q576.9727,664.55 577.7539,664.2961 Q578.2031,664.1594 578.7109,663.7102 Q579.043,663.4563 579.2188,663.3781 Q579.3945,663.3 579.6094,663.3 Q580.0195,663.3 580.3125,663.632 Q580.625,663.9445 580.625,664.3938 Q580.625,664.8234 580.1953,665.3313 Q579.5703,666.0734 578.5742,666.4836 Q577.2656,667.05 575.6641,667.05 Q573.7891,667.05 572.2852,666.3078 Q571.0742,665.7219 570.2148,664.4523 Q569.375,663.1828 569.375,661.6789 L569.375,660.3117 Q569.375,658.7492 570.1172,657.382 Q570.8789,656.0148 572.1875,655.2922 Q573.5156,654.55 575,654.55 Q575.8984,654.55 576.6797,654.8625 Q577.4609,655.175 578.125,655.8 Z " fill="#000000"/><text fill="#000000" font-family="sans-serif" font-size="15" lengthAdjust="spacing" textLength="101.25" x="593.125" y="666.3127">ShipMovement</text><line style="stroke:#A80036;stroke-width:1.875;" x1="558.125" x2="696.875" y1="680.175" y2="680.175"/><rect fill="none" height="7.5" style="stroke:#C82930;stroke-width:1.25;" width="7.5" x="566.875" y="690.175"/><text fill="#000000" font-family="sans-serif" font-size="13.75" lengthAdjust="spacing" textLength="30" x="581.875" y="699.4487">mmsi</text><rect fill="none" height="7.5" style="stroke:#C82930;stroke-width:1.25;" width="7.5" x="566.875" y="707.4699"/><text fill="#000000" font-family="sans-serif" font-size="13.75" lengthAdjust="spacing" textLength="85" x="581.875" y="716.7436">baseDateTime</text><rect fill="none" height="7.5" style="stroke:#C82930;stroke-width:1.25;" width="7.5" x="566.875" y="724.7648"/><text fill="#000000" font-family="sans-serif" font-size="13.75" lengthAdjust="spacing" textLength="13.75" x="581.875" y="734.0385">lat</text><rect fill="none" height="7.5" style="stroke:#C82930;stroke-width:1.25;" width="7.5" x="566.875" y="742.0598"/><text fill="#000000" font-family="sans-serif" font-size="13.75" lengthAdjust="spacing" textLength="17.5" x="581.875" y="751.3334">lon</text><rect fill="none" height="7.5" style="stroke:#C82930;stroke-width:1.25;" width="7.5" x="566.875" y="759.3547"/><text fill="#000000" font-family="sans-serif" font-size="13.75" lengthAdjust="spacing" textLength="22.5" x="581.875" y="768.6284">sog</text><rect fill="none" height="7.5" style="stroke:#C82930;stroke-width:1.25;" width="7.5" x="566.875" y="776.6496"/><text fill="#000000" font-family="sans-serif" font-size="13.75" lengthAdjust="spacing" textLength="22.5" x="581.875" y="785.9233">cog</text><rect fill="none" height="7.5" style="stroke:#C82930;stroke-width:1.25;" width="7.5" x="566.875" y="793.9445"/><text fill="#000000" font-family="sans-serif" font-size="13.75" lengthAdjust="spacing" textLength="47.5" x="581.875" y="803.2182">heading</text><rect fill="none" height="7.5" style="stroke:#C82930;stroke-width:1.25;" width="7.5" x="566.875" y="811.2395"/><text fill="#000000" font-family="sans-serif" font-size="13.75" lengthAdjust="spacing" textLength="73.75" x="581.875" y="820.5131">vesselName</text><rect fill="none" height="7.5" style="stroke:#C82930;stroke-width:1.25;" width="7.5" x="566.875" y="828.5344"/><text fill="#000000" font-family="sans-serif" font-size="13.75" lengthAdjust="spacing" textLength="20" x="581.875" y="837.8081">imo</text><rect fill="none" height="7.5" style="stroke:#C82930;stroke-width:1.25;" width="7.5" x="566.875" y="845.8293"/><text fill="#000000" font-family="sans-serif" font-size="13.75" lengthAdjust="spacing" textLength="46.25" x="581.875" y="855.103">callSign</text><rect fill="none" height="7.5" style="stroke:#C82930;stroke-width:1.25;" width="7.5" x="566.875" y="863.1242"/><text fill="#000000" font-family="sans-serif" font-size="13.75" lengthAdjust="spacing" textLength="70" x="581.875" y="872.3979">vesselType</text><rect fill="none" height="7.5" style="stroke:#C82930;stroke-width:1.25;" width="7.5" x="566.875" y="880.4191"/><text fill="#000000" font-family="sans-serif" font-size="13.75" lengthAdjust="spacing" textLength="36.25" x="581.875" y="889.6928">lenght</text><rect fill="none" height="7.5" style="stroke:#C82930;stroke-width:1.25;" width="7.5" x="566.875" y="897.7141"/><text fill="#000000" font-family="sans-serif" font-size="13.75" lengthAdjust="spacing" textLength="33.75" x="581.875" y="906.9877">width</text><rect fill="none" height="7.5" style="stroke:#C82930;stroke-width:1.25;" width="7.5" x="566.875" y="915.009"/><text fill="#000000" font-family="sans-serif" font-size="13.75" lengthAdjust="spacing" textLength="28.75" x="581.875" y="924.2827">draft</text><rect fill="none" height="7.5" style="stroke:#C82930;stroke-width:1.25;" width="7.5" x="566.875" y="932.3039"/><text fill="#000000" font-family="sans-serif" font-size="13.75" lengthAdjust="spacing" textLength="35" x="581.875" y="941.5776">cargo</text><rect fill="none" height="7.5" style="stroke:#C82930;stroke-width:1.25;" width="7.5" x="566.875" y="949.5988"/><text fill="#000000" font-family="sans-serif" font-size="13.75" lengthAdjust="spacing" textLength="102.5" x="581.875" y="958.8725">transceiverClass</text><!--MD5=[e7ad894f8331fa852791ac292f7e8a32]
class ShipPair--><rect codeLine="139" fill="#FEFECE" filter="url(#fbz3x959fremq)" height="136.4746" id="ShipPair" style="stroke:#A80036;stroke-width:1.875;" width="143.75" x="1019.375" y="1115.8"/><ellipse cx="1058.375" cy="1135.8" fill="#ADD1B2" rx="13.75" ry="13.75" style="stroke:#A80036;stroke-width:1.25;"/><path d="M1060.875,1131.425 Q1061.1289,1130.8 1061.4219,1130.4875 Q1061.7148,1130.175 1062.0469,1130.175 Q1062.6328,1130.175 1063.0039,1130.5266 Q1063.375,1130.8781 1063.375,1131.6984 L1063.375,1133.6516 Q1063.375,1134.4719 1063.0234,1134.8234 Q1062.6719,1135.175 1062.125,1135.175 Q1061.6367,1135.175 1061.3242,1134.9602 Q1061.0117,1134.7453 1060.875,1134.1789 Q1060.8164,1133.7883 1060.6016,1133.5734 Q1060.2109,1133.1633 1059.5078,1132.9289 Q1058.8047,1132.675 1058.1016,1132.675 Q1057.2227,1132.675 1056.4805,1133.0266 Q1055.7578,1133.3781 1055.1914,1134.1594 Q1054.625,1134.9406 1054.625,1136.0148 L1054.625,1137.1672 Q1054.625,1138.4563 1055.6797,1139.3156 Q1056.7344,1140.175 1058.6094,1140.175 Q1059.7227,1140.175 1060.5039,1139.9211 Q1060.9531,1139.7844 1061.4609,1139.3352 Q1061.793,1139.0813 1061.9688,1139.0031 Q1062.1445,1138.925 1062.3594,1138.925 Q1062.7695,1138.925 1063.0625,1139.257 Q1063.375,1139.5695 1063.375,1140.0188 Q1063.375,1140.4484 1062.9453,1140.9563 Q1062.3203,1141.6984 1061.3242,1142.1086 Q1060.0156,1142.675 1058.4141,1142.675 Q1056.5391,1142.675 1055.0352,1141.9328 Q1053.8242,1141.3469 1052.9648,1140.0773 Q1052.125,1138.8078 1052.125,1137.3039 L1052.125,1135.9367 Q1052.125,1134.3742 1052.8672,1133.007 Q1053.6289,1131.6398 1054.9375,1130.9172 Q1056.2656,1130.175 1057.75,1130.175 Q1058.6484,1130.175 1059.4297,1130.4875 Q1060.2109,1130.8 1060.875,1131.425 Z " fill="#000000"/><text fill="#000000" font-family="sans-serif" font-size="15" lengthAdjust="spacing" textLength="58.75" x="1080.375" y="1141.9377">ShipPair</text><line style="stroke:#A80036;stroke-width:1.875;" x1="1020.625" x2="1161.875" y1="1155.8" y2="1155.8"/><rect fill="none" height="7.5" style="stroke:#C82930;stroke-width:1.25;" width="7.5" x="1029.375" y="1165.8"/><text fill="#000000" font-family="sans-serif" font-size="13.75" lengthAdjust="spacing" textLength="37.5" x="1044.375" y="1175.0737">mmsi1</text><rect fill="none" height="7.5" style="stroke:#C82930;stroke-width:1.25;" width="7.5" x="1029.375" y="1183.0949"/><text fill="#000000" font-family="sans-serif" font-size="13.75" lengthAdjust="spacing" textLength="37.5" x="1044.375" y="1192.3686">mmsi2</text><rect fill="none" height="7.5" style="stroke:#C82930;stroke-width:1.25;" width="7.5" x="1029.375" y="1200.3898"/><text fill="#000000" font-family="sans-serif" font-size="13.75" lengthAdjust="spacing" textLength="111.25" x="1044.375" y="1209.6635">departureDistance</text><rect fill="none" height="7.5" style="stroke:#C82930;stroke-width:1.25;" width="7.5" x="1029.375" y="1217.6848"/><text fill="#000000" font-family="sans-serif" font-size="13.75" lengthAdjust="spacing" textLength="90" x="1044.375" y="1226.9584">arrivalDistance</text><rect fill="none" height="7.5" style="stroke:#C82930;stroke-width:1.25;" width="7.5" x="1029.375" y="1234.9797"/><text fill="#000000" font-family="sans-serif" font-size="13.75" lengthAdjust="spacing" textLength="93.75" x="1044.375" y="1244.2534">travelDistance1</text><!--MD5=[a44ad20d45cac02e8c33cdd4602627cf]
class ShipRoute--><rect codeLine="147" fill="#FEFECE" filter="url(#fbz3x959fremq)" height="153.7695" id="ShipRoute" style="stroke:#A80036;stroke-width:1.875;" width="121.25" x="391.875" y="726.425"/><ellipse cx="414.5625" cy="746.425" fill="#ADD1B2" rx="13.75" ry="13.75" style="stroke:#A80036;stroke-width:1.25;"/><path d="M417.0625,742.05 Q417.3164,741.425 417.6094,741.1125 Q417.9023,740.8 418.2344,740.8 Q418.8203,740.8 419.1914,741.1516 Q419.5625,741.5031 419.5625,742.3234 L419.5625,744.2766 Q419.5625,745.0969 419.2109,745.4484 Q418.8594,745.8 418.3125,745.8 Q417.8242,745.8 417.5117,745.5852 Q417.1992,745.3703 417.0625,744.8039 Q417.0039,744.4133 416.7891,744.1984 Q416.3984,743.7883 415.6953,743.5539 Q414.9922,743.3 414.2891,743.3 Q413.4102,743.3 412.668,743.6516 Q411.9453,744.0031 411.3789,744.7844 Q410.8125,745.5656 410.8125,746.6398 L410.8125,747.7922 Q410.8125,749.0813 411.8672,749.9406 Q412.9219,750.8 414.7969,750.8 Q415.9102,750.8 416.6914,750.5461 Q417.1406,750.4094 417.6484,749.9602 Q417.9805,749.7063 418.1563,749.6281 Q418.332,749.55 418.5469,749.55 Q418.957,749.55 419.25,749.882 Q419.5625,750.1945 419.5625,750.6438 Q419.5625,751.0734 419.1328,751.5813 Q418.5078,752.3234 417.5117,752.7336 Q416.2031,753.3 414.6016,753.3 Q412.7266,753.3 411.2227,752.5578 Q410.0117,751.9719 409.1523,750.7023 Q408.3125,749.4328 408.3125,747.9289 L408.3125,746.5617 Q408.3125,744.9992 409.0547,743.632 Q409.8164,742.2648 411.125,741.5422 Q412.4531,740.8 413.9375,740.8 Q414.8359,740.8 415.6172,741.1125 Q416.3984,741.425 417.0625,742.05 Z " fill="#000000"/><text fill="#000000" font-family="sans-serif" font-size="15" lengthAdjust="spacing" textLength="72.5" x="432.9375" y="752.5627">ShipRoute</text><line style="stroke:#A80036;stroke-width:1.875;" x1="393.125" x2="511.875" y1="766.425" y2="766.425"/><rect fill="none" height="7.5" style="stroke:#C82930;stroke-width:1.25;" width="7.5" x="401.875" y="776.425"/><text fill="#000000" font-family="sans-serif" font-size="13.75" lengthAdjust="spacing" textLength="30" x="416.875" y="785.6987">mmsi</text><rect fill="none" height="7.5" style="stroke:#C82930;stroke-width:1.25;" width="7.5" x="401.875" y="793.7199"/><text fill="#000000" font-family="sans-serif" font-size="13.75" lengthAdjust="spacing" textLength="77.5" x="416.875" y="802.9936">departureLat</text><rect fill="none" height="7.5" style="stroke:#C82930;stroke-width:1.25;" width="7.5" x="401.875" y="811.0148"/><text fill="#000000" font-family="sans-serif" font-size="13.75" lengthAdjust="spacing" textLength="56.25" x="416.875" y="820.2885">arrivalLat</text><rect fill="none" height="7.5" style="stroke:#C82930;stroke-width:1.25;" width="7.5" x="401.875" y="828.3098"/><text fill="#000000" font-family="sans-serif" font-size="13.75" lengthAdjust="spacing" textLength="88.75" x="416.875" y="837.5834">departureLong</text><rect fill="none" height="7.5" style="stroke:#C82930;stroke-width:1.25;" width="7.5" x="401.875" y="845.6047"/><text fill="#000000" font-family="sans-serif" font-size="13.75" lengthAdjust="spacing" textLength="67.5" x="416.875" y="854.8784">arrivalLong</text><rect fill="none" height="7.5" style="stroke:#C82930;stroke-width:1.25;" width="7.5" x="401.875" y="862.8996"/><text fill="#000000" font-family="sans-serif" font-size="13.75" lengthAdjust="spacing" textLength="86.25" x="416.875" y="872.1733">travelDistance</text><!--MD5=[40e2b5717560220ad35e84810a8f1b44]
link TrafficManager to Ship--><path codeLine="157" d="M285.3625,1158.6125 C301.6625,1122.6125 337.0625,1058.025 390.625,1031.425 C500.9875,976.6 635.925,1041.7875 726.65,1103.1125 " fill="none" id="TrafficManager-Ship" style="stroke:#A80036;stroke-width:1.25;"/><polygon fill="#000000" points="403.0761,1014.6148,391.3997,1012.3807,392.3166,1019.6706,403.0761,1014.6148" style="stroke:#000000;stroke-width:1.25;"/><text fill="#000000" font-family="sans-serif" font-size="16.25" lengthAdjust="spacing" textLength="57.5" x="408.125" y="1022.0439">controls</text><text fill="#000000" font-family="sans-serif" font-size="16.25" lengthAdjust="spacing" textLength="8.75" x="278.3713" y="1145.1729">1</text><text fill="#000000" font-family="sans-serif" font-size="16.25" lengthAdjust="spacing" textLength="25" x="691.8016" y="1092.1856">1..*</text><!--MD5=[8304bc5289f627c52f3048b7211fb80c]
link Ship to FleetManager--><path codeLine="158" d="M930.7625,1102.2 C951.95,1087.9 974.775,1074.3125 997.5,1063.925 C1052.8875,1038.6 1070.1625,1038.7 1130.625,1031.425 C1164.275,1027.375 1178.5,1012.8875 1206.875,1031.425 C1250.2,1059.725 1265.625,1123.0125 1271,1158.5125 " fill="none" id="Ship-FleetManager" style="stroke:#A80036;stroke-width:1.25;"/><polygon fill="#000000" points="1130.7089,1014.3742,1141.2636,1019.8447,1142.4634,1012.596,1130.7089,1014.3742" style="stroke:#000000;stroke-width:1.25;"/><text fill="#000000" font-family="sans-serif" font-size="16.25" lengthAdjust="spacing" textLength="57.5" x="1148.125" y="1022.0439">controls</text><text fill="#000000" font-family="sans-serif" font-size="16.25" lengthAdjust="spacing" textLength="25" x="940.6034" y="1091.1947">1..*</text><text fill="#000000" font-family="sans-serif" font-size="16.25" lengthAdjust="spacing" textLength="8.75" x="1260.2461" y="1145.4834">1</text><!--MD5=[641af49703b38e745c9a3976df66996b]
link WarehouseManager to Warehouse--><path codeLine="159" d="M257.2625,145.8 C215.225,145.8 166.3375,145.8 128.8875,145.8 " fill="none" id="WarehouseManager-Warehouse" style="stroke:#A80036;stroke-width:1.25;"/><polygon fill="#000000" points="150.625,131.0197,161.9314,134.6934,161.9314,127.3461,150.625,131.0197" style="stroke:#000000;stroke-width:1.25;"/><text fill="#000000" font-family="sans-serif" font-size="16.25" lengthAdjust="spacing" textLength="66.25" x="168.125" y="137.6689">manages</text><text fill="#000000" font-family="sans-serif" font-size="16.25" lengthAdjust="spacing" textLength="8.75" x="238.7556" y="141.6603">1</text><text fill="#000000" font-family="sans-serif" font-size="16.25" lengthAdjust="spacing" textLength="25" x="138.6482" y="164.0409">1..*</text><!--MD5=[0190973f8c5de701e926b865ec575606]
link Warehouse to WarehouseStaff--><path codeLine="160" d="M128.975,100.45 C168.1375,73.8875 221.575,42.8875 274.375,28.925 C355.4375,7.5 384.8,29.4 458.75,68.925 C484.9875,82.95 511.2625,104.1875 529.925,120.8 " fill="none" id="Warehouse-WarehouseStaff" style="stroke:#A80036;stroke-width:1.25;"/><polygon fill="#000000" points="274.383,20.0779,285.4886,24.32,285.8611,16.9821,274.383,20.0779" style="stroke:#000000;stroke-width:1.25;"/><text fill="#000000" font-family="sans-serif" font-size="16.25" lengthAdjust="spacing" textLength="42.5" x="291.875" y="27.0439">works</text><text fill="#000000" font-family="sans-serif" font-size="16.25" lengthAdjust="spacing" textLength="25" x="138.7474" y="89.9095">1..*</text><text fill="#000000" font-family="sans-serif" font-size="16.25" lengthAdjust="spacing" textLength="8.75" x="511.7731" y="107.0174">1</text><!--MD5=[48d901b645b583b24981c41ea2f4fedc]
link PortStaff to Ship--><path codeLine="161" d="M1086.95,828.4 C1071.9625,870.7375 1037.025,960.775 990,1026.425 C972.8625,1050.35 951.8125,1073.75 930.6375,1094.8625 " fill="none" id="PortStaff-Ship" style="stroke:#A80036;stroke-width:1.25;"/><polygon fill="#000000" points="1006.8376,1020.7856,1015.7271,1012.8922,1009.3898,1009.1746,1006.8376,1020.7856" style="stroke:#000000;stroke-width:1.25;"/><text fill="#000000" font-family="sans-serif" font-size="16.25" lengthAdjust="spacing" textLength="42.5" x="1021.25" y="1022.0439">works</text><text fill="#000000" font-family="sans-serif" font-size="16.25" lengthAdjust="spacing" textLength="8.75" x="1074.7055" y="855.2026">1</text><text fill="#000000" font-family="sans-serif" font-size="16.25" lengthAdjust="spacing" textLength="25" x="940.4677" y="1104.9454">1..*</text><!--MD5=[9eb8cece74e91f217f5849e8308bf70d]
link PortManager to Port--><path codeLine="162" d="M800.0875,777.95 C789.8625,741.5875 765.85,675.1375 720,640.175 C679.275,609.1125 658.4125,620.7625 607.5,615.175 C502,603.5875 452.95,573.95 370,640.175 C343.3625,661.4375 327.3625,695.125 317.7875,726.375 " fill="none" id="PortManager-Port" style="stroke:#A80036;stroke-width:1.25;"/><polygon fill="#000000" points="522.5354,590.9802,533.3871,595.8352,534.1683,588.5295,522.5354,590.9802" style="stroke:#000000;stroke-width:1.25;"/><text fill="#000000" font-family="sans-serif" font-size="16.25" lengthAdjust="spacing" textLength="66.25" x="540" y="598.2939">manages</text><text fill="#000000" font-family="sans-serif" font-size="16.25" lengthAdjust="spacing" textLength="8.75" x="788.3738" y="764.9385">1</text><text fill="#000000" font-family="sans-serif" font-size="16.25" lengthAdjust="spacing" textLength="25" x="321.0218" y="712.6755">1..*</text><!--MD5=[a5b2d7054789f86100b09c2b7a7f0a67]
link Ship to ShipCaptain--><path codeLine="163" d="M828.75,1304.3 C828.75,1388.075 828.75,1493.175 828.75,1539.5 " fill="none" id="Ship-ShipCaptain" style="stroke:#A80036;stroke-width:1.25;"/><polygon fill="#000000" points="835,1346.6447,831.3263,1357.9511,838.6737,1357.9511,835,1346.6447" style="stroke:#000000;stroke-width:1.25;"/><text fill="#000000" font-family="sans-serif" font-size="16.25" lengthAdjust="spacing" textLength="66.25" x="846.25" y="1359.5439">manages</text><text fill="#000000" font-family="sans-serif" font-size="16.25" lengthAdjust="spacing" textLength="25" x="802.793" y="1331.1582">1..*</text><text fill="#000000" font-family="sans-serif" font-size="16.25" lengthAdjust="spacing" textLength="8.75" x="818.7148" y="1526.1375">1</text><!--MD5=[c5ef8141e8a198f4a84e54199c61ab67]
link ShipChiefElectricalEngineer to Ship--><path codeLine="164" d="M622.675,1183.925 C656.6,1183.925 693.3875,1183.925 726.375,1183.925 " fill="none" id="ShipChiefElectricalEngineer-Ship" style="stroke:#A80036;stroke-width:1.25;"/><polygon fill="#000000" points="656.5625,1169.1447,645.2561,1165.4711,645.2561,1172.8184,656.5625,1169.1447" style="stroke:#000000;stroke-width:1.25;"/><text fill="#000000" font-family="sans-serif" font-size="16.25" lengthAdjust="spacing" textLength="42.5" x="661.5625" y="1175.7939">works</text><text fill="#000000" font-family="sans-serif" font-size="16.25" lengthAdjust="spacing" textLength="8.75" x="632.6787" y="1179.984">1</text><text fill="#000000" font-family="sans-serif" font-size="16.25" lengthAdjust="spacing" textLength="25" x="691.8619" y="1201.6301">1..*</text><!--MD5=[6254345fd9dacb1857d22b54f9e53236]
link TruckDriver to Truck--><path codeLine="165" d="M792.5375,145.8 C832.2875,145.8 883.675,145.8 918.4625,145.8 " fill="none" id="TruckDriver-Truck" style="stroke:#A80036;stroke-width:1.25;"/><polygon fill="#000000" points="826.875,131.0197,815.5686,127.3461,815.5686,134.6934,826.875,131.0197" style="stroke:#000000;stroke-width:1.25;"/><text fill="#000000" font-family="sans-serif" font-size="16.25" lengthAdjust="spacing" textLength="63.75" x="831.875" y="137.6689">oversees</text><text fill="#000000" font-family="sans-serif" font-size="16.25" lengthAdjust="spacing" textLength="8.75" x="802.604" y="141.1102">1</text><text fill="#000000" font-family="sans-serif" font-size="16.25" lengthAdjust="spacing" textLength="8.75" x="900.216" y="140.5295">1</text><!--MD5=[f91b227e93aeebda0e6138e5b2e7fc8a]
link Ship to ShipDynamicFields--><path codeLine="166" d="M767.7125,1304.3 C740.3125,1357.7625 708.4625,1419.925 682.8375,1469.9375 " fill="none" id="Ship-ShipDynamicFields" style="stroke:#A80036;stroke-width:1.25;"/><polygon fill="#000000" points="747.1498,1358.457,755.5753,1350.07,749.0364,1346.7195,747.1498,1358.457" style="stroke:#000000;stroke-width:1.25;"/><text fill="#000000" font-family="sans-serif" font-size="16.25" lengthAdjust="spacing" textLength="26.25" x="761.25" y="1359.5439">has</text><text fill="#000000" font-family="sans-serif" font-size="16.25" lengthAdjust="spacing" textLength="8.75" x="753.9544" y="1331.1582">1</text><text fill="#000000" font-family="sans-serif" font-size="16.25" lengthAdjust="spacing" textLength="8.75" x="678.3658" y="1456.5495">1</text><!--MD5=[50fc424ec4382fd1ba2dc7184d539476]
link Containers to Ship--><path codeLine="167" d="M948.9375,542.875 C939.3125,651.3875 921,821.45 891.25,966.425 C884.725,998.2 875.8625,1032.1 866.8625,1063.4125 " fill="none" id="Containers-Ship" style="stroke:#A80036;stroke-width:1.25;"/><polygon fill="#000000" points="947.2234,797.346,941.8336,807.9422,949.0913,809.0865,947.2234,797.346" style="stroke:#000000;stroke-width:1.25;"/><text fill="#000000" font-family="sans-serif" font-size="16.25" lengthAdjust="spacing" textLength="26.25" x="957.5" y="810.1689">has</text><text fill="#000000" font-family="sans-serif" font-size="16.25" lengthAdjust="spacing" textLength="25" x="922.1274" y="570.1806">1..*</text><text fill="#000000" font-family="sans-serif" font-size="16.25" lengthAdjust="spacing" textLength="8.75" x="860.6955" y="1050.2965">1</text><!--MD5=[9f5a09a616509cd3e7b114149642c3c0]
link CargoManifest to Containers--><path codeLine="168" d="M387.55,431.425 C522.0875,431.425 782.95,431.425 899.175,431.425 " fill="none" id="CargoManifest-Containers" style="stroke:#A80036;stroke-width:1.25;"/><polygon fill="#000000" points="617.8125,416.6447,606.5061,412.9711,606.5061,420.3184,617.8125,416.6447" style="stroke:#000000;stroke-width:1.25;"/><text fill="#000000" font-family="sans-serif" font-size="16.25" lengthAdjust="spacing" textLength="57.5" x="622.8125" y="423.2939">controls</text><text fill="#000000" font-family="sans-serif" font-size="16.25" lengthAdjust="spacing" textLength="8.75" x="397.7452" y="427.1986">1</text><text fill="#000000" font-family="sans-serif" font-size="16.25" lengthAdjust="spacing" textLength="25" x="864.2152" y="426.887">1..*</text><!--MD5=[8cef3b8bb432fdc493768abc58cade76]
link Truck to Containers--><path codeLine="169" d="M957.5,171.1875 C957.5,204.15 957.5,265.4 957.5,320.0625 " fill="none" id="Truck-Containers" style="stroke:#A80036;stroke-width:1.25;"/><polygon fill="#000000" points="963.75,277.8947,967.4237,266.5884,960.0763,266.5884,963.75,277.8947" style="stroke:#000000;stroke-width:1.25;"/><text fill="#000000" font-family="sans-serif" font-size="16.25" lengthAdjust="spacing" textLength="26.25" x="975" y="278.2939">has</text><text fill="#000000" font-family="sans-serif" font-size="16.25" lengthAdjust="spacing" textLength="8.75" x="947.5742" y="197.6258">1</text><text fill="#000000" font-family="sans-serif" font-size="16.25" lengthAdjust="spacing" textLength="25" x="931.4258" y="306.5014">1..*</text><!--MD5=[47296211a5450e6030aae792427ae68d]
link CargoManifest to Port--><path codeLine="170" d="M303.75,482.875 C303.75,545.6 303.75,653.5375 303.75,726.325 " fill="none" id="CargoManifest-Port" style="stroke:#A80036;stroke-width:1.25;"/><polygon fill="#000000" points="310,585.3947,306.3263,596.7011,313.6737,596.7011,310,585.3947" style="stroke:#000000;stroke-width:1.25;"/><text fill="#000000" font-family="sans-serif" font-size="16.25" lengthAdjust="spacing" textLength="58.75" x="321.25" y="598.2939">receives</text><text fill="#000000" font-family="sans-serif" font-size="16.25" lengthAdjust="spacing" textLength="25" x="276.9141" y="508.8468">1..*</text><text fill="#000000" font-family="sans-serif" font-size="16.25" lengthAdjust="spacing" textLength="8.75" x="294.4668" y="712.6194">1</text><!--MD5=[02d60c65ef718087735e668531e1ff2c]
link Warehouse to CargoManifest--><path codeLine="171" d="M128.9625,219.6 C170.7125,269.8875 225.2375,335.5875 262.2,380.125 " fill="none" id="Warehouse-CargoManifest" style="stroke:#A80036;stroke-width:1.25;"/><polygon fill="#000000" points="190.2417,276.454,185.8474,265.4077,180.1938,270.1002,190.2417,276.454" style="stroke:#000000;stroke-width:1.25;"/><text fill="#000000" font-family="sans-serif" font-size="16.25" lengthAdjust="spacing" textLength="58.75" x="197.5" y="278.2939">receives</text><text fill="#000000" font-family="sans-serif" font-size="16.25" lengthAdjust="spacing" textLength="8.75" x="138.8525" y="226.2704">1</text><text fill="#000000" font-family="sans-serif" font-size="16.25" lengthAdjust="spacing" textLength="25" x="227.9102" y="366.5486">1..*</text><!--MD5=[df7146deb5cdd8fd100e886f9e413029]
link Ship to ShipDistance--><path codeLine="172" d="M904.5,1304.05 C911.375,1316.475 917.925,1329.075 923.75,1341.425 C932.725,1360.425 941.225,1380.7625 949.075,1401.125 " fill="none" id="Ship-ShipDistance" style="stroke:#A80036;stroke-width:1.25;"/><polygon fill="#000000" points="941.3581,1358.5746,939.9785,1346.7667,933.3015,1349.8326,941.3581,1358.5746" style="stroke:#000000;stroke-width:1.25;"/><text fill="#000000" font-family="sans-serif" font-size="16.25" lengthAdjust="spacing" textLength="26.25" x="950" y="1359.5439">has</text><text fill="#000000" font-family="sans-serif" font-size="16.25" lengthAdjust="spacing" textLength="8.75" x="901.2146" y="1330.8891">1</text><text fill="#000000" font-family="sans-serif" font-size="16.25" lengthAdjust="spacing" textLength="25" x="920.336" y="1387.9669">1..*</text><!--MD5=[605362cf8b5a21fe6106423976ae528f]
link ShipMovement to Ship--><path codeLine="173" d="M698.175,937.325 C720.025,978.4 743.9625,1023.375 765.3,1063.4625 " fill="none" id="ShipMovement-Ship" style="stroke:#A80036;stroke-width:1.25;"/><polygon fill="#000000" points="744.5639,1009.8773,746.6323,1021.5842,753.1184,1018.1326,744.5639,1009.8773" style="stroke:#000000;stroke-width:1.25;"/><text fill="#000000" font-family="sans-serif" font-size="16.25" lengthAdjust="spacing" textLength="26.25" x="758.75" y="1022.0439">has</text><text fill="#000000" font-family="sans-serif" font-size="16.25" lengthAdjust="spacing" textLength="25" x="708.312" y="949.3077">1..*</text><text fill="#000000" font-family="sans-serif" font-size="16.25" lengthAdjust="spacing" textLength="8.75" x="751.3571" y="1050.3503">1</text><!--MD5=[2d872f8942380604ce9fd7ae4b6eccb1]
link Ship to ShipPair--><path codeLine="174" d="M930.9875,1183.925 C960.5,1183.925 992.075,1183.925 1019.325,1183.925 " fill="none" id="Ship-ShipPair" style="stroke:#A80036;stroke-width:1.25;"/><polygon fill="#000000" points="965,1169.1447,953.6936,1165.4711,953.6936,1172.8184,965,1169.1447" style="stroke:#000000;stroke-width:1.25;"/><text fill="#000000" font-family="sans-serif" font-size="16.25" lengthAdjust="spacing" textLength="26.25" x="970" y="1175.7939">has</text><text fill="#000000" font-family="sans-serif" font-size="16.25" lengthAdjust="spacing" textLength="8.75" x="940.4827" y="1179.912">1</text><text fill="#000000" font-family="sans-serif" font-size="16.25" lengthAdjust="spacing" textLength="25" x="984.5634" y="1201.9626">1..*</text><!--MD5=[1398f0e8a62f3b3a5b114dcac4794fca]
link ShipRoute to Ship--><path codeLine="175" d="M482.1875,880.3 C495.675,909.1 513.4625,941.05 535,966.425 C564.55,1001.25 654.075,1065.4875 726.5875,1114.9375 " fill="none" id="ShipRoute-Ship" style="stroke:#A80036;stroke-width:1.25;"/><polygon fill="#000000" points="601.7415,1011.0663,607.3533,1021.5466,612.4417,1016.2465,601.7415,1011.0663" style="stroke:#000000;stroke-width:1.25;"/><text fill="#000000" font-family="sans-serif" font-size="16.25" lengthAdjust="spacing" textLength="26.25" x="617.5" y="1022.0439">has</text><text fill="#000000" font-family="sans-serif" font-size="16.25" lengthAdjust="spacing" textLength="25" x="459.1748" y="907.2525">1..*</text><text fill="#000000" font-family="sans-serif" font-size="16.25" lengthAdjust="spacing" textLength="8.75" x="708.0161" y="1126.3775">1</text><!--MD5=[81746cb93c90cbb95bfeb7ee7cddfbe5]
link Port to Ship--><path codeLine="176" d="M278.75,880.45 C268.2125,928.125 265.275,987.7 300,1026.425 C351.3,1083.625 571.3,1038.325 643.75,1063.925 C672.175,1073.975 700.675,1089.125 726.5,1105.275 " fill="none" id="Port-Ship" style="stroke:#A80036;stroke-width:1.25;"/><polygon fill="#000000" points="311.8354,1018.1993,303.3798,1009.8428,300.0828,1016.4088,311.8354,1018.1993" style="stroke:#000000;stroke-width:1.25;"/><text fill="#000000" font-family="sans-serif" font-size="16.25" lengthAdjust="spacing" textLength="61.25" x="317.5" y="1022.0439">contains</text><text fill="#000000" font-family="sans-serif" font-size="16.25" lengthAdjust="spacing" textLength="8.75" x="266.7871" y="906.8739">1</text><text fill="#000000" font-family="sans-serif" font-size="16.25" lengthAdjust="spacing" textLength="25" x="691.9973" y="1116.4669">1..*</text><!--MD5=[2a654a65145d4d768472c66eea17ac36]
link Client to Containers--><path codeLine="177" d="M1069.55,171.1875 C1055.2875,204.15 1028.7875,265.4 1005.1375,320.0625 " fill="none" id="Client-Containers" style="stroke:#A80036;stroke-width:1.25;"/><polygon fill="#000000" points="1037.4818,265.9086,1029.6206,274.8266,1036.3638,277.7441,1037.4818,265.9086" style="stroke:#000000;stroke-width:1.25;"/><text fill="#000000" font-family="sans-serif" font-size="16.25" lengthAdjust="spacing" textLength="26.25" x="1046.25" y="278.2939">has</text><text fill="#000000" font-family="sans-serif" font-size="16.25" lengthAdjust="spacing" textLength="25" x="1038.3822" y="197.6258">1..*</text><text fill="#000000" font-family="sans-serif" font-size="16.25" lengthAdjust="spacing" textLength="8.75" x="1000.1054" y="306.5014">1</text><!--MD5=[a3c3dccf8032a7ec008a65ee08fd383f]
@startuml

hide methods

class TrafficManager{
}

class Ship {
 - mmsi
 - shipName
 - imoId
 - numberOfEnergyGenerators
 - generatorsPowerOutput
 - callSign
 - vesselType
 - lenght
 - width
 - capacity
 - draft
}

class ShipDynamicFields {
 - dateTime
 - long
 -lat
 -sog
 -cog
 -heading
 -position
 -transceiverClass
}

class Port {
 - code
 - port
 - continent
 - country
 - lat
 - long
}

class Warehouse {
 - identification
 - name
 - continent
 - country
 - lat
 - long
}

class Containers {
- identification
- payload
- tare
- gross
- isoCode
- lenght
- width
- height
- temperature
- coordinates
}

class Client {
}


class CargoManifest {
- containerId
- containerPos
- containerGrossWeight
}

class Truck {
}

class FleetManager {
}

class WarehouseStaff {
}

class WarehouseManager {
}

class PortStaff {
}

class PortManager {
}

class ShipCaptain {
}

class ShipChiefElectricalEngineer {
}

class TruckDriver {
}

class ShipDistance {
- mmsi
- vesselName
- startTime
- endTime
- totalMovements
- totalTime
- maxSog
- meanSog
- maxCog
- meanCog
- depLatitude
- arrLatitude
- depLong
- arrLong
- travDist
- deltDist
}


class ShipMovement {
- mmsi
- baseDateTime
- lat
- lon
- sog
- cog
- heading
- vesselName
- imo
- callSign
- vesselType
- lenght
- width
- draft
- cargo
- transceiverClass
}

class ShipPair {
- mmsi1
- mmsi2
- departureDistance
- arrivalDistance
- travelDistance1
}

class ShipRoute {
- mmsi
- departureLat
- arrivalLat
- departureLong
- arrivalLong
- travelDistance
}


TrafficManager"1" -right- "1..*"Ship : > controls
FleetManager"1" -left- "1..*"Ship : > controls
WarehouseManager"1" -right- "1..*"Warehouse : > manages
WarehouseStaff"1" -left- "1..*"Warehouse : > works
PortStaff"1" -down- "1..*"Ship : > works
PortManager "1" -right- "1..*"Port : > manages
ShipCaptain "1" -up- "1..*"Ship : > manages
ShipChiefElectricalEngineer "1" -right- "1..*"Ship : > works
TruckDriver "1" -right- "1"Truck : > oversees
Ship "1" -down- "1"ShipDynamicFields : > has
Ship "1" -up- "1..*"Containers  : > has
CargoManifest "1" -right- "1..*"Containers : > controls
Truck "1" -down- "1..*"Containers : > has
Port"1" -up- "1..*"CargoManifest : > receives
Warehouse"1" -down- "1..*"CargoManifest :> receives
Ship "1" -down- "1..*"ShipDistance :> has
Ship "1" -up- "1..*"ShipMovement :> has
Ship "1" -right- "1..*"ShipPair :> has
Ship "1" -up- "1..*"ShipRoute :> has
Port "1" -down- "1..*"Ship :> contains
Containers "1" -up- "1..*"Client :> has



@enduml

PlantUML version 1.2021.7(Sun May 23 13:40:07 BST 2021)
(GPL source distribution)
Java Runtime: OpenJDK Runtime Environment
JVM: OpenJDK 64-Bit Server VM
Default Encoding: Cp1252
Language: pt
Country: PT
--></g></svg>