<?xml version="1.0" encoding="UTF-8" standalone="no"?><svg xmlns="http://www.w3.org/2000/svg" xmlns:xlink="http://www.w3.org/1999/xlink" contentScriptType="application/ecmascript" contentStyleType="text/css" height="4646.25px" preserveAspectRatio="none" style="width:1823px;height:4646px;background:#FFFFFF;" version="1.1" viewBox="0 0 1823 4646" width="1823.75px" zoomAndPan="magnify"><defs><filter height="300%" id="fmrjjfpu9rea2" width="300%" x="-1" y="-1"><feGaussianBlur result="blurOut" stdDeviation="2.5"/><feColorMatrix in="blurOut" result="blurOut2" type="matrix" values="0 0 0 0 0 0 0 0 0 0 0 0 0 0 0 0 0 0 .4 0"/><feOffset dx="5.0" dy="5.0" in="blurOut2" result="blurOut3"/><feBlend in="SourceGraphic" in2="blurOut3" mode="normal"/></filter></defs><g><!--MD5=[5e659b6272380f9df0bb941f285a2aee]
entity Traffic manager--><ellipse cx="72.5" cy="3887.5" fill="#FEFECE" filter="url(#fmrjjfpu9rea2)" rx="10" ry="10" style="stroke:#A80036;stroke-width:1.875;"/><path d="M72.5,3897.5 L72.5,3931.25 M56.25,3907.5 L88.75,3907.5 M72.5,3931.25 L56.25,3950 M72.5,3931.25 L88.75,3950 " fill="none" filter="url(#fmrjjfpu9rea2)" style="stroke:#A80036;stroke-width:1.875;"/><text fill="#000000" font-family="sans-serif" font-size="17.5" lengthAdjust="spacing" textLength="125" x="10" y="3975.0415">Traffic manager</text><ellipse cx="1010.8845" cy="3394.8019" fill="#FEFECE" filter="url(#fmrjjfpu9rea2)" rx="202.7595" ry="43.5519" style="stroke:#A80036;stroke-width:1.875;"/><text fill="#000000" font-family="sans-serif" font-size="17.5" lengthAdjust="spacing" textLength="367.5" x="827.1345" y="3399.4625">UC101 - Import ships from a text file into a BST</text><ellipse cx="1010.7314" cy="3554.8963" fill="#FEFECE" filter="url(#fmrjjfpu9rea2)" rx="343.8564" ry="71.7713" style="stroke:#A80036;stroke-width:1.875;"/><text fill="#000000" font-family="sans-serif" font-size="17.5" lengthAdjust="spacing" textLength="656.25" x="682.6064" y="3559.5569">UC102 - Search the details of a ship using any of its codes: MMSI, IMO or  Call Sign</text><ellipse cx="1010.6898" cy="3754.763" fill="#FEFECE" filter="url(#fmrjjfpu9rea2)" rx="402.5648" ry="83.513" style="stroke:#A80036;stroke-width:1.875;"/><text fill="#000000" font-family="sans-serif" font-size="17.5" lengthAdjust="spacing" textLength="775" x="623.1898" y="3759.4236">UC103 - Have the positional messages temporally organised and associated with each of the ships</text><ellipse cx="1010.6942" cy="3927.6388" fill="#FEFECE" filter="url(#fmrjjfpu9rea2)" rx="207.5692" ry="44.5138" style="stroke:#A80036;stroke-width:1.875;"/><text fill="#000000" font-family="sans-serif" font-size="17.5" lengthAdjust="spacing" textLength="377.5" x="821.9442" y="3932.2995">UC104 - Make a summary of a ship´s movement</text><ellipse cx="1010.4176" cy="4105.2085" fill="#FEFECE" filter="url(#fmrjjfpu9rea2)" rx="432.9176" ry="89.5835" style="stroke:#A80036;stroke-width:1.875;"/><text fill="#000000" font-family="sans-serif" font-size="17.5" lengthAdjust="spacing" textLength="836.25" x="592.2926" y="4109.8692">UC105 - List for all ships the MMSI, the total number of movements, Travelled Distance and Delta Distance</text><ellipse cx="1010.5421" cy="4313.4834" fill="#FEFECE" filter="url(#fmrjjfpu9rea2)" rx="358.6671" ry="74.7334" style="stroke:#A80036;stroke-width:1.875;"/><text fill="#000000" font-family="sans-serif" font-size="17.5" lengthAdjust="spacing" textLength="686.25" x="667.4171" y="4318.1441">UC106 - Get the top-N ships with the most kilometres travelled and their average speed</text><ellipse cx="1010.6728" cy="4532.6346" fill="#FEFECE" filter="url(#fmrjjfpu9rea2)" rx="482.5478" ry="99.5096" style="stroke:#A80036;stroke-width:1.875;"/><text fill="#000000" font-family="sans-serif" font-size="17.5" lengthAdjust="spacing" textLength="936.25" x="542.5478" y="4537.2952">UC107 - Return pairs of ships with routes with close departure/arrival coordinates  and with different Travelled Distance</text><!--MD5=[419f214fad51d37fe8053ebb18d17f75]
entity Project manager--><ellipse cx="72.5" cy="2721.25" fill="#FEFECE" filter="url(#fmrjjfpu9rea2)" rx="10" ry="10" style="stroke:#A80036;stroke-width:1.875;"/><path d="M72.5,2731.25 L72.5,2765 M56.25,2741.25 L88.75,2741.25 M72.5,2765 L56.25,2783.75 M72.5,2765 L88.75,2783.75 " fill="none" filter="url(#fmrjjfpu9rea2)" style="stroke:#A80036;stroke-width:1.875;"/><text fill="#000000" font-family="sans-serif" font-size="17.5" lengthAdjust="spacing" textLength="130" x="7.5" y="2808.7915">Project manager</text><ellipse cx="1010.8742" cy="2288.5498" fill="#FEFECE" filter="url(#fmrjjfpu9rea2)" rx="555.8742" ry="114.1748" style="stroke:#A80036;stroke-width:1.875;"/><text fill="#000000" font-family="sans-serif" font-size="17.5" lengthAdjust="spacing" textLength="1083.75" x="468.9992" y="2293.2105">UC108 - Have a team to develop the data model required to support all the functionality and to fulfill the purpose of the system to develop.</text><ellipse cx="1010.6583" cy="2610.1317" fill="#FEFECE" filter="url(#fmrjjfpu9rea2)" rx="798.1583" ry="162.6317" style="stroke:#A80036;stroke-width:1.875;"/><text fill="#000000" font-family="sans-serif" font-size="17.5" lengthAdjust="spacing" textLength="1570" x="225.6583" y="2614.7923">UC109 - A team to draft an SQL script to test whether the database verifies all the data integrity restrictions that are required to fulfil the purpose of the system and the business constraints of the UoD.</text><ellipse cx="1010.7754" cy="2912.7801" fill="#FEFECE" filter="url(#fmrjjfpu9rea2)" rx="467.6504" ry="96.5301" style="stroke:#A80036;stroke-width:1.875;"/><text fill="#000000" font-family="sans-serif" font-size="17.5" lengthAdjust="spacing" textLength="906.25" x="557.6504" y="2917.4407">UC110 - A team to define the naming conventions to apply when defining identifiers or writing SQL or PL/SQL code.</text><ellipse cx="1010.5821" cy="3179.7414" fill="#FEFECE" filter="url(#fmrjjfpu9rea2)" rx="621.2071" ry="127.2414" style="stroke:#A80036;stroke-width:1.875;"/><text fill="#000000" font-family="sans-serif" font-size="17.5" lengthAdjust="spacing" textLength="1215" x="403.0821" y="3184.4021">UC111 - A team to create a SQL script to load the database with a minimum set of data sufficient to carry out data integrity verification and function testing.</text><!--MD5=[f9c57c0c524dc8b8ac943d4b81f101b1]
entity Port Manager--><ellipse cx="72.5" cy="2023.75" fill="#FEFECE" filter="url(#fmrjjfpu9rea2)" rx="10" ry="10" style="stroke:#A80036;stroke-width:1.875;"/><path d="M72.5,2033.75 L72.5,2067.5 M56.25,2043.75 L88.75,2043.75 M72.5,2067.5 L56.25,2086.25 M72.5,2067.5 L88.75,2086.25 " fill="none" filter="url(#fmrjjfpu9rea2)" style="stroke:#A80036;stroke-width:1.875;"/><text fill="#000000" font-family="sans-serif" font-size="17.5" lengthAdjust="spacing" textLength="107.5" x="18.75" y="2111.2915">Port Manager</text><ellipse cx="1010.5101" cy="2063.727" fill="#FEFECE" filter="url(#fmrjjfpu9rea2)" rx="316.1351" ry="66.227" style="stroke:#A80036;stroke-width:1.875;"/><text fill="#000000" font-family="sans-serif" font-size="17.5" lengthAdjust="spacing" textLength="600" x="710.5101" y="2068.3877">UC201 - Import ports from a text file and create a 2D-tree with port locations.</text><!--MD5=[e6b1ef28d51ecb13cd98d3ee9ef632de]
entity Traffic Manager--><ellipse cx="72.5" cy="1748.75" fill="#FEFECE" filter="url(#fmrjjfpu9rea2)" rx="10" ry="10" style="stroke:#A80036;stroke-width:1.875;"/><path d="M72.5,1758.75 L72.5,1792.5 M56.25,1768.75 L88.75,1768.75 M72.5,1792.5 L56.25,1811.25 M72.5,1792.5 L88.75,1811.25 " fill="none" filter="url(#fmrjjfpu9rea2)" style="stroke:#A80036;stroke-width:1.875;"/><text fill="#000000" font-family="sans-serif" font-size="17.5" lengthAdjust="spacing" textLength="125" x="10" y="1836.2915">Traffic Manager</text><ellipse cx="1010.3403" cy="1695.9431" fill="#FEFECE" filter="url(#fmrjjfpu9rea2)" rx="327.2153" ry="68.4431" style="stroke:#A80036;stroke-width:1.875;"/><text fill="#000000" font-family="sans-serif" font-size="17.5" lengthAdjust="spacing" textLength="622.5" x="699.0903" y="1700.6037">UC202 - find the closest port of a ship given its CallSign, on a certain DateTime</text><!--MD5=[a54c9b5f731a079a876247d2d3e76dc1]
entity Project Manager--><ellipse cx="72.5" cy="1410" fill="#FEFECE" filter="url(#fmrjjfpu9rea2)" rx="10" ry="10" style="stroke:#A80036;stroke-width:1.875;"/><path d="M72.5,1420 L72.5,1453.75 M56.25,1430 L88.75,1430 M72.5,1453.75 L56.25,1472.5 M72.5,1453.75 L88.75,1472.5 " fill="none" filter="url(#fmrjjfpu9rea2)" style="stroke:#A80036;stroke-width:1.875;"/><text fill="#000000" font-family="sans-serif" font-size="17.5" lengthAdjust="spacing" textLength="130" x="7.5" y="1497.5415">Project Manager</text><ellipse cx="1010.4637" cy="1449.7177" fill="#FEFECE" filter="url(#fmrjjfpu9rea2)" rx="652.3387" ry="133.4677" style="stroke:#A80036;stroke-width:1.875;"/><text fill="#000000" font-family="sans-serif" font-size="17.5" lengthAdjust="spacing" textLength="1272.5" x="371.7137" y="1454.3784">UC203 - Review the relational data model in view of the new user stories so it can support all the requirements to fulfil the purpose of the system being developed.</text><!--MD5=[0ba5ee7700168656dc1b457c6fe9fdac]
entity Client--><ellipse cx="72.5" cy="1153.75" fill="#FEFECE" filter="url(#fmrjjfpu9rea2)" rx="10" ry="10" style="stroke:#A80036;stroke-width:1.875;"/><path d="M72.5,1163.75 L72.5,1197.5 M56.25,1173.75 L88.75,1173.75 M72.5,1197.5 L56.25,1216.25 M72.5,1197.5 L88.75,1216.25 " fill="none" filter="url(#fmrjjfpu9rea2)" style="stroke:#A80036;stroke-width:1.875;"/><text fill="#000000" font-family="sans-serif" font-size="17.5" lengthAdjust="spacing" textLength="45" x="50" y="1241.2915">Client</text><ellipse cx="1010.9313" cy="1193.8113" fill="#FEFECE" filter="url(#fmrjjfpu9rea2)" rx="379.0563" ry="78.8113" style="stroke:#A80036;stroke-width:1.875;"/><text fill="#000000" font-family="sans-serif" font-size="17.5" lengthAdjust="spacing" textLength="727.5" x="647.1813" y="1198.4719">UC204 - Know the current situation of a specific container being used to transport my goods.</text><!--MD5=[f4cde1cbd61dee9d06b607becd6d3edc]
entity Ship Captain--><ellipse cx="72.5" cy="558.75" fill="#FEFECE" filter="url(#fmrjjfpu9rea2)" rx="10" ry="10" style="stroke:#A80036;stroke-width:1.875;"/><path d="M72.5,568.75 L72.5,602.5 M56.25,578.75 L88.75,578.75 M72.5,602.5 L56.25,621.25 M72.5,602.5 L88.75,621.25 " fill="none" filter="url(#fmrjjfpu9rea2)" style="stroke:#A80036;stroke-width:1.875;"/><text fill="#000000" font-family="sans-serif" font-size="17.5" lengthAdjust="spacing" textLength="101.25" x="21.875" y="646.2915">Ship Captain</text><ellipse cx="1010.6239" cy="108.4998" fill="#FEFECE" filter="url(#fmrjjfpu9rea2)" rx="489.9989" ry="100.9998" style="stroke:#A80036;stroke-width:1.875;"/><text fill="#000000" font-family="sans-serif" font-size="17.5" lengthAdjust="spacing" textLength="951.25" x="534.9989" y="113.1604">UC205 - Want the list of containers to be offloaded in the next port, including container identifier, type, position, and load.</text><ellipse cx="1010.3222" cy="346.3144" fill="#FEFECE" filter="url(#fmrjjfpu9rea2)" rx="444.6972" ry="91.9394" style="stroke:#A80036;stroke-width:1.875;"/><text fill="#000000" font-family="sans-serif" font-size="17.5" lengthAdjust="spacing" textLength="860" x="580.3222" y="350.9751">UC206 - Want the list of containers to be loaded in the next port, including container identifier, type, and load.</text><ellipse cx="1010.8074" cy="598.7865" fill="#FEFECE" filter="url(#fmrjjfpu9rea2)" rx="569.5574" ry="116.9115" style="stroke:#A80036;stroke-width:1.875;"/><text fill="#000000" font-family="sans-serif" font-size="17.5" lengthAdjust="spacing" textLength="1111.25" x="455.1824" y="603.4471">UC207 - Want to know how many cargo manifests I have transported during a given year and the average number of containers per manifest.</text><ellipse cx="1010.6585" cy="832.2567" fill="#FEFECE" filter="url(#fmrjjfpu9rea2)" rx="349.4085" ry="72.8817" style="stroke:#A80036;stroke-width:1.875;"/><text fill="#000000" font-family="sans-serif" font-size="17.5" lengthAdjust="spacing" textLength="667.5" x="676.9085" y="836.9173">UC208 - Want to know the occupancy rate of a given ship for a given cargo manifest.</text><ellipse cx="1010.3681" cy="1010.0736" fill="#FEFECE" filter="url(#fmrjjfpu9rea2)" rx="288.4931" ry="60.6986" style="stroke:#A80036;stroke-width:1.875;"/><text fill="#000000" font-family="sans-serif" font-size="17.5" lengthAdjust="spacing" textLength="543.75" x="738.4931" y="1014.7343">UC209 - Know the occupancy rate of a given ship at a given moment.</text><ellipse cx="1010.7314" cy="1881.1463" fill="#FEFECE" filter="url(#fmrjjfpu9rea2)" rx="343.8564" ry="71.7713" style="stroke:#A80036;stroke-width:1.875;"/><text fill="#000000" font-family="sans-serif" font-size="17.5" lengthAdjust="spacing" textLength="656.25" x="682.6064" y="1885.8069">UC210 - Know which ships will be available on Monday next week and their location.</text><!--MD5=[8b8cbdb83b94a94a28ef2b7d1b35b1af]
link Traffic manager to UC101 - Import ships from a text file into a BST--><path d="M81.7625,3875.5 C99.85,3765.3125 147.4375,3514.1 212.5,3461.25 C396.325,3311.9125 689.0375,3332.2 863.875,3362.35 " fill="none" id="Traffic manager-to-UC101 - Import ships from a text file into a BST" style="stroke:#A80036;stroke-width:1.25;"/><polygon fill="#A80036" points="870.05,3363.425,859.8231,3356.5714,863.8924,3362.3541,858.1097,3366.4235,870.05,3363.425" style="stroke:#A80036;stroke-width:1.25;"/><!--MD5=[591f6e61e9786e6685cdd20ee9d3daa1]
link Traffic manager to UC102 - Search the details of a ship using any of its codes: MMSI, IMO or  Call Sign--><path d="M84.15,3875.25 C99.925,3810.8625 136.5,3703.45 212.5,3650 C349.6375,3553.5625 533.9125,3526.7875 690.725,3525.5 " fill="none" id="Traffic manager-to-UC102 - Search the details of a ship using any of its codes: MMSI, IMO or  Call Sign" style="stroke:#A80036;stroke-width:1.25;"/><polygon fill="#A80036" points="697.225,3525.4625,685.9466,3520.5269,690.9751,3525.4982,686.0038,3530.5267,697.225,3525.4625" style="stroke:#A80036;stroke-width:1.25;"/><!--MD5=[7783800ad132566f847976e52093466b]
link Traffic manager to UC103 - Have the positional messages temporally organised and associated with each of the ships--><path d="M135.3,3893.0125 C158.8,3881.225 186.275,3869.05 212.5,3861.25 C343.2,3822.3875 490.2125,3797.7125 622.0375,3782.0625 " fill="none" id="Traffic manager-to-UC103 - Have the positional messages temporally organised and associated with each of the ships" style="stroke:#A80036;stroke-width:1.25;"/><polygon fill="#A80036" points="628.3,3781.3125,616.5422,3777.6632,622.0929,3782.0438,617.7123,3787.5945,628.3,3781.3125" style="stroke:#A80036;stroke-width:1.25;"/><!--MD5=[6b6a67dd9576890cea35c051890a543e]
link Traffic manager to UC104 - Make a summary of a ship´s movement--><path d="M135.1375,3927.5 C267.0875,3927.5 583.025,3927.5 796.6875,3927.5 " fill="none" id="Traffic manager-to-UC104 - Make a summary of a ship´s movement" style="stroke:#A80036;stroke-width:1.25;"/><polygon fill="#A80036" points="802.975,3927.5,791.725,3922.5,796.725,3927.5,791.725,3932.5,802.975,3927.5" style="stroke:#A80036;stroke-width:1.25;"/><!--MD5=[1fe70f1a0eb8b360793a043d1a965ce3]
link Traffic manager to UC105 - List for all ships the MMSI, the total number of movements, Travelled Distance and Delta Distance--><path d="M135.325,3961.9 C158.8375,3973.675 186.3,3985.875 212.5,3993.75 C335.825,4030.8375 473.675,4055.6375 599.6,4072.1875 " fill="none" id="Traffic manager-to-UC105 - List for all ships the MMSI, the total number of movements, Travelled Distance and Delta Distance" style="stroke:#A80036;stroke-width:1.25;"/><polygon fill="#A80036" points="605.9625,4073.025,595.449,4066.6197,599.7644,4072.2212,594.1629,4076.5367,605.9625,4073.025" style="stroke:#A80036;stroke-width:1.25;"/><!--MD5=[be8003ef6233da47264bf79ff03a177c]
link Traffic manager to UC106 - Get the top-N ships with the most kilometres travelled and their average speed--><path d="M83.0125,3979.4625 C97.825,4046.0625 133.6375,4159.675 212.5,4216.25 C344.025,4310.6125 520.225,4339.4125 673.5,4342.7375 " fill="none" id="Traffic manager-to-UC106 - Get the top-N ships with the most kilometres travelled and their average speed" style="stroke:#A80036;stroke-width:1.25;"/><polygon fill="#A80036" points="679.85,4342.8625,668.7022,4337.6385,673.6012,4342.7375,668.5023,4347.6365,679.85,4342.8625" style="stroke:#A80036;stroke-width:1.25;"/><!--MD5=[8bde709369ea4bfb2d7a6b6f2eba8208]
link Traffic manager to UC107 - Return pairs of ships with routes with close departure/arrival coordinates  and with different Travelled Distance--><path d="M81.475,3979.375 C99.35,4092.0625 147.05,4353.7 212.5,4411.25 C299.1375,4487.425 412.625,4527.1125 526.6625,4545.9125 " fill="none" id="Traffic manager-to-UC107 - Return pairs of ships with routes with close departure/arrival coordinates  and with different Travelled Distance" style="stroke:#A80036;stroke-width:1.25;"/><polygon fill="#A80036" points="533.1375,4546.9625,522.8309,4540.2293,526.9678,4545.9639,521.2332,4550.1009,533.1375,4546.9625" style="stroke:#A80036;stroke-width:1.25;"/><!--MD5=[bfd7ea2d5b72576c9216523df952d7d0]
link Project manager to UC108 - Have a team to develop the data model required to support all the functionality and to fulfill the purpose of the system to develop.--><path d="M79.775,2708.9125 C91.3625,2633.8875 124,2497.0125 212.5,2426.25 C282.9,2369.95 368.125,2333.25 456.2875,2309.85 " fill="none" id="Project manager-to-UC108 - Have a team to develop the data model required to support all the functionality and to fulfill the purpose of the system to develop." style="stroke:#A80036;stroke-width:1.25;"/><polygon fill="#A80036" points="462.65,2308.1875,450.5046,2306.1746,456.6005,2309.7579,453.0172,2315.8538,462.65,2308.1875" style="stroke:#A80036;stroke-width:1.25;"/><!--MD5=[d31d8e5fca455d23b57d6090e8d722db]
link Project manager to UC109 - A team to draft an SQL script to test whether the database verifies all the data integrity restrictions that are required to fulfil the purpose of the system and the business constraints of the UoD.--><path d="M137.6875,2750.9125 C193.3375,2741.9125 280.2625,2727.8625 378.1,2712.05 " fill="none" id="Project manager-to-UC109 - A team to draft an SQL script to test whether the database verifies all the data integrity restrictions that are required to fulfil the purpose of the system and the business constraints of the UoD." style="stroke:#A80036;stroke-width:1.25;"/><polygon fill="#A80036" points="384.5625,2711,372.6582,2707.8616,378.3928,2711.9986,374.2559,2717.7332,384.5625,2711" style="stroke:#A80036;stroke-width:1.25;"/><!--MD5=[7621caa15f159ce65615aad327f7b727]
link Project manager to UC110 - A team to define the naming conventions to apply when defining identifiers or writing SQL or PL/SQL code.--><path d="M137.725,2778.1125 C161.1375,2783.95 187.925,2790.2125 212.5,2795 C340.4,2819.925 480.75,2842.275 607.5625,2860.625 " fill="none" id="Project manager-to-UC110 - A team to define the naming conventions to apply when defining identifiers or writing SQL or PL/SQL code." style="stroke:#A80036;stroke-width:1.25;"/><polygon fill="#A80036" points="613.975,2861.55,603.5558,2854.9924,607.7893,2860.6561,602.1255,2864.8896,613.975,2861.55" style="stroke:#A80036;stroke-width:1.25;"/><!--MD5=[e5a4ff1cd890cb3b2e7439bcb666f42f]
link Project manager to UC111 - A team to create a SQL script to load the database with a minimum set of data sufficient to carry out data integrity verification and function testing.--><path d="M85.725,2813.525 C102.825,2875.625 140.4375,2977.5625 212.5,3031.25 C274.25,3077.25 346,3110.3875 420.6625,3134.05 " fill="none" id="Project manager-to-UC111 - A team to create a SQL script to load the database with a minimum set of data sufficient to carry out data integrity verification and function testing." style="stroke:#A80036;stroke-width:1.25;"/><polygon fill="#A80036" points="426.9625,3136.025,417.7298,3127.8813,421.0002,3134.1506,414.7308,3137.421,426.9625,3136.025" style="stroke:#A80036;stroke-width:1.25;"/><!--MD5=[47c5a741da62e019c1f705f283ce19c2]
link Port Manager to UC201 - Import ports from a text file and create a 2D-tree with port locations.--><path d="M126.4,2063.75 C232.85,2063.75 481.125,2063.75 687.375,2063.75 " fill="none" id="Port Manager-to-UC201 - Import ports from a text file and create a 2D-tree with port locations." style="stroke:#A80036;stroke-width:1.25;"/><polygon fill="#A80036" points="694.075,2063.75,682.825,2058.75,687.825,2063.75,682.825,2068.75,694.075,2063.75" style="stroke:#A80036;stroke-width:1.25;"/><!--MD5=[a57c724ec4e7d966cd4a5d5296a94929]
link Traffic Manager to UC202 - find the closest port of a ship given its CallSign, on a certain DateTime--><path d="M135.1375,1782.675 C249.6625,1771.3625 502.8,1746.3375 707.35,1726.1125 " fill="none" id="Traffic Manager-to-UC202 - find the closest port of a ship given its CallSign, on a certain DateTime" style="stroke:#A80036;stroke-width:1.25;"/><polygon fill="#A80036" points="714,1725.45,702.3072,1721.5975,707.7812,1726.0737,703.3051,1731.5476,714,1725.45" style="stroke:#A80036;stroke-width:1.25;"/><!--MD5=[8c5fdf0b1848129cbd2255cd2eb9b714]
link Project Manager to UC203 - Review the relational data model in view of the new user stories so it can support all the requirements to fulfil the purpose of the system being developed. --><path d="M137.6875,1450 C188.3,1450 264.775,1450 351.8,1450 " fill="none" id="Project Manager-to-UC203 - Review the relational data model in view of the new user stories so it can support all the requirements to fulfil the purpose of the system being developed. " style="stroke:#A80036;stroke-width:1.25;"/><polygon fill="#A80036" points="358.075,1450,346.825,1445,351.825,1450,346.825,1455,358.075,1450" style="stroke:#A80036;stroke-width:1.25;"/><!--MD5=[798acfba92e635bd505a1b17bfc3f889]
link Client to UC204 - Know the current situation of a specific container being used to transport my goods.--><path d="M95.05,1193.75 C166.9625,1193.75 408.425,1193.75 625.15,1193.75 " fill="none" id="Client-to-UC204 - Know the current situation of a specific container being used to transport my goods." style="stroke:#A80036;stroke-width:1.25;"/><polygon fill="#A80036" points="631.55,1193.75,620.3,1188.75,625.3,1193.75,620.3,1198.75,631.55,1193.75" style="stroke:#A80036;stroke-width:1.25;"/><!--MD5=[2603642be670df9e9d1afdd767d13b17]
link Ship Captain to UC205 - Want the list of containers to be offloaded in the next port, including container identifier, type, position, and load.--><path d="M77.4375,546.8375 C86.1625,466.025 115.325,311.3 212.5,232.5 C298.0125,163.15 406.1875,124.7375 515.025,104.7875 " fill="none" id="Ship Captain-to-UC205 - Want the list of containers to be offloaded in the next port, including container identifier, type, position, and load." style="stroke:#A80036;stroke-width:1.25;"/><polygon fill="#A80036" points="521.2,103.675,509.243,100.7437,515.0485,104.7805,511.0118,110.586,521.2,103.675" style="stroke:#A80036;stroke-width:1.25;"/><!--MD5=[f57f1c65f09c7d33ec7d01eb9b5fb8bd]
link Ship Captain to UC206 - Want the list of containers to be loaded in the next port, including container identifier, type, and load.--><path d="M111.5625,546.775 C136.65,516.375 172.275,480.1125 212.5,460 C319.65,406.4375 444.375,375.9875 562.9125,359.1875 " fill="none" id="Ship Captain-to-UC206 - Want the list of containers to be loaded in the next port, including container identifier, type, and load." style="stroke:#A80036;stroke-width:1.25;"/><polygon fill="#A80036" points="569.2625,358.2875,557.4335,354.8762,563.0715,359.1439,558.8037,364.7819,569.2625,358.2875" style="stroke:#A80036;stroke-width:1.25;"/><!--MD5=[86015d014aca338cb21bfc15cef9c942]
link Ship Captain to UC207 - Want to know how many cargo manifests I have transported during a given year and the average number of containers per manifest.--><path d="M123.3875,598.75 C187.1125,598.75 304.975,598.75 434.4125,598.75 " fill="none" id="Ship Captain-to-UC207 - Want to know how many cargo manifests I have transported during a given year and the average number of containers per manifest." style="stroke:#A80036;stroke-width:1.25;"/><polygon fill="#A80036" points="440.9875,598.75,429.7375,593.75,434.7375,598.75,429.7375,603.75,440.9875,598.75" style="stroke:#A80036;stroke-width:1.25;"/><!--MD5=[270167961d5756eac4b5597840fc9387]
link Ship Captain to UC208 - Want to know the occupancy rate of a given ship for a given cargo manifest.--><path d="M111.1125,650.7 C136.15,681.3125 171.9,717.7875 212.5,737.5 C348.65,803.6125 512.75,830.725 656.5625,840.025 " fill="none" id="Ship Captain-to-UC208 - Want to know the occupancy rate of a given ship for a given cargo manifest." style="stroke:#A80036;stroke-width:1.25;"/><polygon fill="#A80036" points="662.9625,840.425,652.0493,834.7271,656.7249,840.0318,651.4202,844.7073,662.9625,840.425" style="stroke:#A80036;stroke-width:1.25;"/><!--MD5=[b5497ab8752b964ea2c27e61dd0deffd]
link Ship Captain to UC209 - Know the occupancy rate of a given ship at a given moment.--><path d="M79.475,650.925 C90.6875,725.575 122.875,861.15 212.5,927.5 C370.6,1044.55 597.225,1057.45 768.4125,1045.55 " fill="none" id="Ship Captain-to-UC209 - Know the occupancy rate of a given ship at a given moment." style="stroke:#A80036;stroke-width:1.25;"/><polygon fill="#A80036" points="774.9875,1045.075,763.409,1040.8916,768.7535,1045.5216,764.1235,1050.866,774.9875,1045.075" style="stroke:#A80036;stroke-width:1.25;"/><!--MD5=[7a4142e792185aa3f623e77782b26c26]
link Traffic Manager to UC210 - Know which ships will be available on Monday next week and their location.--><path d="M135.1375,1794.825 C246.95,1805.875 490.875,1829.9875 692.725,1849.95 " fill="none" id="Traffic Manager-to-UC210 - Know which ships will be available on Monday next week and their location." style="stroke:#A80036;stroke-width:1.25;"/><polygon fill="#A80036" points="699.2875,1850.5875,688.5943,1844.4868,693.0689,1849.9621,687.5936,1854.4366,699.2875,1850.5875" style="stroke:#A80036;stroke-width:1.25;"/><!--MD5=[5417d7163ddc91643e1509c1caa1904d]
@startuml
left to right direction
:Traffic manager: - -> (UC101 - Import ships from a text file into a BST)
:Traffic manager: - -> (UC102 - Search the details of a ship using any of its codes: MMSI, IMO or  Call Sign)
:Traffic manager: - -> (UC103 - Have the positional messages temporally organised and associated with each of the ships)
:Traffic manager: - -> (UC104 - Make a summary of a ship´s movement)
:Traffic manager: - -> (UC105 - List for all ships the MMSI, the total number of movements, Travelled Distance and Delta Distance)
:Traffic manager: - -> (UC106 - Get the top-N ships with the most kilometres travelled and their average speed)
:Traffic manager: - -> (UC107 - Return pairs of ships with routes with close departure/arrival coordinates  and with different Travelled Distance)
:Project manager: - -> (UC108 - Have a team to develop the data model required to support all the functionality and to fulfill the purpose of the system to develop.)
:Project manager: - -> (UC109 - A team to draft an SQL script to test whether the database verifies all the data integrity restrictions that are required to fulfil the purpose of the system and the business constraints of the UoD.)
:Project manager: - -> (UC110 - A team to define the naming conventions to apply when defining identifiers or writing SQL or PL/SQL code.)
:Project manager: - -> (UC111 - A team to create a SQL script to load the database with a minimum set of data sufficient to carry out data integrity verification and function testing.)
:Port Manager: - -> (UC201 - Import ports from a text file and create a 2D-tree with port locations.)
:Traffic Manager: - -> (UC202 - find the closest port of a ship given its CallSign, on a certain DateTime)
:Project Manager: - -> (UC203 - Review the relational data model in view of the new user stories so it can support all the requirements to fulfil the purpose of the system being developed. )
:Client: - -> (UC204 - Know the current situation of a specific container being used to transport my goods.)
:Ship Captain: - -> (UC205 - Want the list of containers to be offloaded in the next port, including container identifier, type, position, and load.)
:Ship Captain: - -> (UC206 - Want the list of containers to be loaded in the next port, including container identifier, type, and load.)
:Ship Captain: - -> (UC207 - Want to know how many cargo manifests I have transported during a given year and the average number of containers per manifest.)
:Ship Captain: - -> (UC208 - Want to know the occupancy rate of a given ship for a given cargo manifest.)
:Ship Captain: - -> (UC209 - Know the occupancy rate of a given ship at a given moment.)
:Traffic Manager: - -> (UC210 - Know which ships will be available on Monday next week and their location.)
@enduml

PlantUML version 1.2021.7(Sun May 23 13:40:07 BST 2021)
(GPL source distribution)
Java Runtime: OpenJDK Runtime Environment
JVM: OpenJDK 64-Bit Server VM
Default Encoding: Cp1252
Language: pt
Country: PT
--></g></svg>