<?xml version="1.0" encoding="UTF-8" standalone="no"?><svg xmlns="http://www.w3.org/2000/svg" xmlns:xlink="http://www.w3.org/1999/xlink" contentScriptType="application/ecmascript" contentStyleType="text/css" height="238.75px" preserveAspectRatio="none" style="width:1071px;height:238px;background:#FFFFFF;" version="1.1" viewBox="0 0 1071 238" width="1071.25px" zoomAndPan="magnify"><defs><filter height="300%" id="f1udz7qug79g6v" width="300%" x="-1" y="-1"><feGaussianBlur result="blurOut" stdDeviation="2.5"/><feColorMatrix in="blurOut" result="blurOut2" type="matrix" values="0 0 0 0 0 0 0 0 0 0 0 0 0 0 0 0 0 0 .4 0"/><feOffset dx="5.0" dy="5.0" in="blurOut2" result="blurOut3"/><feBlend in="SourceGraphic" in2="blurOut3" mode="normal"/></filter></defs><g><!--MD5=[f83c21593eaf922254cc0f6c975dae32]
class OrderShipsUI--><rect codeLine="3" fill="#FEFECE" filter="url(#f1udz7qug79g6v)" height="60" id="OrderShipsUI" style="stroke:#A80036;stroke-width:1.875;" width="133.75" x="210" y="8.75"/><ellipse cx="228.75" cy="28.75" fill="#ADD1B2" rx="13.75" ry="13.75" style="stroke:#A80036;stroke-width:1.25;"/><path d="M231.25,24.375 Q231.5039,23.75 231.7969,23.4375 Q232.0898,23.125 232.4219,23.125 Q233.0078,23.125 233.3789,23.4766 Q233.75,23.8281 233.75,24.6484 L233.75,26.6016 Q233.75,27.4219 233.3984,27.7734 Q233.0469,28.125 232.5,28.125 Q232.0117,28.125 231.6992,27.9102 Q231.3867,27.6953 231.25,27.1289 Q231.1914,26.7383 230.9766,26.5234 Q230.5859,26.1133 229.8828,25.8789 Q229.1797,25.625 228.4766,25.625 Q227.5977,25.625 226.8555,25.9766 Q226.1328,26.3281 225.5664,27.1094 Q225,27.8906 225,28.9648 L225,30.1172 Q225,31.4063 226.0547,32.2656 Q227.1094,33.125 228.9844,33.125 Q230.0977,33.125 230.8789,32.8711 Q231.3281,32.7344 231.8359,32.2852 Q232.168,32.0313 232.3438,31.9531 Q232.5195,31.875 232.7344,31.875 Q233.1445,31.875 233.4375,32.207 Q233.75,32.5195 233.75,32.9688 Q233.75,33.3984 233.3203,33.9063 Q232.6953,34.6484 231.6992,35.0586 Q230.3906,35.625 228.7891,35.625 Q226.9141,35.625 225.4102,34.8828 Q224.1992,34.2969 223.3398,33.0273 Q222.5,31.7578 222.5,30.2539 L222.5,28.8867 Q222.5,27.3242 223.2422,25.957 Q224.0039,24.5898 225.3125,23.8672 Q226.6406,23.125 228.125,23.125 Q229.0234,23.125 229.8047,23.4375 Q230.5859,23.75 231.25,24.375 Z " fill="#000000"/><text fill="#000000" font-family="sans-serif" font-size="15" lengthAdjust="spacing" textLength="93.75" x="246.25" y="34.8877">OrderShipsUI</text><line style="stroke:#A80036;stroke-width:1.875;" x1="211.25" x2="342.5" y1="48.75" y2="48.75"/><line style="stroke:#A80036;stroke-width:1.875;" x1="211.25" x2="342.5" y1="58.75" y2="58.75"/><!--MD5=[3f1cb4dd8ebfe3438cbc60657ade16a6]
class ShipDistanceController--><rect codeLine="6" fill="#FEFECE" filter="url(#f1udz7qug79g6v)" height="77.2949" id="ShipDistanceController" style="stroke:#A80036;stroke-width:1.875;" width="536.25" x="8.75" y="145"/><ellipse cx="191.5625" cy="165" fill="#ADD1B2" rx="13.75" ry="13.75" style="stroke:#A80036;stroke-width:1.25;"/><path d="M194.0625,160.625 Q194.3164,160 194.6094,159.6875 Q194.9023,159.375 195.2344,159.375 Q195.8203,159.375 196.1914,159.7266 Q196.5625,160.0781 196.5625,160.8984 L196.5625,162.8516 Q196.5625,163.6719 196.2109,164.0234 Q195.8594,164.375 195.3125,164.375 Q194.8242,164.375 194.5117,164.1602 Q194.1992,163.9453 194.0625,163.3789 Q194.0039,162.9883 193.7891,162.7734 Q193.3984,162.3633 192.6953,162.1289 Q191.9922,161.875 191.2891,161.875 Q190.4102,161.875 189.668,162.2266 Q188.9453,162.5781 188.3789,163.3594 Q187.8125,164.1406 187.8125,165.2148 L187.8125,166.3672 Q187.8125,167.6563 188.8672,168.5156 Q189.9219,169.375 191.7969,169.375 Q192.9102,169.375 193.6914,169.1211 Q194.1406,168.9844 194.6484,168.5352 Q194.9805,168.2813 195.1563,168.2031 Q195.332,168.125 195.5469,168.125 Q195.957,168.125 196.25,168.457 Q196.5625,168.7695 196.5625,169.2188 Q196.5625,169.6484 196.1328,170.1563 Q195.5078,170.8984 194.5117,171.3086 Q193.2031,171.875 191.6016,171.875 Q189.7266,171.875 188.2227,171.1328 Q187.0117,170.5469 186.1523,169.2773 Q185.3125,168.0078 185.3125,166.5039 L185.3125,165.1367 Q185.3125,163.5742 186.0547,162.207 Q186.8164,160.8398 188.125,160.1172 Q189.4531,159.375 190.9375,159.375 Q191.8359,159.375 192.6172,159.6875 Q193.3984,160 194.0625,160.625 Z " fill="#000000"/><text fill="#000000" font-family="sans-serif" font-size="15" lengthAdjust="spacing" textLength="160" x="217.1875" y="171.1377">ShipDistanceController</text><line style="stroke:#A80036;stroke-width:1.875;" x1="10" x2="543.75" y1="185" y2="185"/><line style="stroke:#A80036;stroke-width:1.875;" x1="10" x2="543.75" y1="195" y2="195"/><ellipse cx="22.5" cy="208.75" fill="#84BE84" rx="3.75" ry="3.75" style="stroke:#038048;stroke-width:1.25;"/><text fill="#000000" font-family="sans-serif" font-size="13.75" lengthAdjust="spacing" textLength="503.75" x="33.75" y="214.2737">orderShipsByTdOrNumbOfMov(HashMap&lt;Ship, List&lt;ShipDynamicFields&gt;&gt; shipMap)</text><!--MD5=[ac7de62ce9384a92b5e95b1a406bc87c]
class ShipDistance--><rect codeLine="10" fill="#FEFECE" filter="url(#f1udz7qug79g6v)" height="77.2949" id="ShipDistance" style="stroke:#A80036;stroke-width:1.875;" width="412.5" x="641.875" y="145"/><ellipse cx="796.5625" cy="165" fill="#ADD1B2" rx="13.75" ry="13.75" style="stroke:#A80036;stroke-width:1.25;"/><path d="M799.0625,160.625 Q799.3164,160 799.6094,159.6875 Q799.9023,159.375 800.2344,159.375 Q800.8203,159.375 801.1914,159.7266 Q801.5625,160.0781 801.5625,160.8984 L801.5625,162.8516 Q801.5625,163.6719 801.2109,164.0234 Q800.8594,164.375 800.3125,164.375 Q799.8242,164.375 799.5117,164.1602 Q799.1992,163.9453 799.0625,163.3789 Q799.0039,162.9883 798.7891,162.7734 Q798.3984,162.3633 797.6953,162.1289 Q796.9922,161.875 796.2891,161.875 Q795.4102,161.875 794.668,162.2266 Q793.9453,162.5781 793.3789,163.3594 Q792.8125,164.1406 792.8125,165.2148 L792.8125,166.3672 Q792.8125,167.6563 793.8672,168.5156 Q794.9219,169.375 796.7969,169.375 Q797.9102,169.375 798.6914,169.1211 Q799.1406,168.9844 799.6484,168.5352 Q799.9805,168.2813 800.1563,168.2031 Q800.332,168.125 800.5469,168.125 Q800.957,168.125 801.25,168.457 Q801.5625,168.7695 801.5625,169.2188 Q801.5625,169.6484 801.1328,170.1563 Q800.5078,170.8984 799.5117,171.3086 Q798.2031,171.875 796.6016,171.875 Q794.7266,171.875 793.2227,171.1328 Q792.0117,170.5469 791.1523,169.2773 Q790.3125,168.0078 790.3125,166.5039 L790.3125,165.1367 Q790.3125,163.5742 791.0547,162.207 Q791.8164,160.8398 793.125,160.1172 Q794.4531,159.375 795.9375,159.375 Q796.8359,159.375 797.6172,159.6875 Q798.3984,160 799.0625,160.625 Z " fill="#000000"/><text fill="#000000" font-family="sans-serif" font-size="15" lengthAdjust="spacing" textLength="92.5" x="822.1875" y="171.1377">ShipDistance</text><line style="stroke:#A80036;stroke-width:1.875;" x1="643.125" x2="1053.125" y1="185" y2="185"/><line style="stroke:#A80036;stroke-width:1.875;" x1="643.125" x2="1053.125" y1="195" y2="195"/><ellipse cx="655.625" cy="208.75" fill="#84BE84" rx="3.75" ry="3.75" style="stroke:#038048;stroke-width:1.25;"/><text fill="#000000" font-family="sans-serif" font-size="13.75" lengthAdjust="spacing" textLength="380" x="666.875" y="214.2737">orderShips(HashMap&lt;Ship,List&lt;ShipDynamicFields&gt;&gt; shipMap)</text><!--MD5=[d40dfcd657ab216cf98656aa636823d2]
link OrderShipsUI to ShipDistanceController--><path codeLine="14" d="M276.875,68.8375 C276.875,88.7625 276.875,115.6375 276.875,138.25 " fill="none" id="OrderShipsUI-to-ShipDistanceController" style="stroke:#A80036;stroke-width:1.25;stroke-dasharray:7.0,7.0;"/><polygon fill="#A80036" points="276.875,144.5125,281.875,133.2625,276.875,138.2625,271.875,133.2625,276.875,144.5125" style="stroke:#A80036;stroke-width:1.25;"/><!--MD5=[10b4a9574b603e086d31abf134959c8f]
link ShipDistanceController to ShipDistance--><path codeLine="15" d="M545.35,183.75 C575.375,183.75 605.65,183.75 634.85,183.75 " fill="none" id="ShipDistanceController-to-ShipDistance" style="stroke:#A80036;stroke-width:1.25;"/><polygon fill="#A80036" points="641.4625,183.75,630.2125,178.75,635.2125,183.75,630.2125,188.75,641.4625,183.75" style="stroke:#A80036;stroke-width:1.25;"/><polygon fill="#000000" points="579.0625,168.9697,567.7561,165.2961,567.7561,172.6434,579.0625,168.9697" style="stroke:#000000;stroke-width:1.25;"/><text fill="#000000" font-family="sans-serif" font-size="16.25" lengthAdjust="spacing" textLength="35" x="584.0625" y="175.6189">uses</text><!--MD5=[7e8afa3d7e5a1cde84a2ede49f0eb44f]
@startuml
'https://plantuml.com/use-case-diagram

class OrderShipsUI {
}

class ShipDistanceController {
+ orderShipsByTdOrNumbOfMov(HashMap<Ship, List<ShipDynamicFields>> shipMap)
}

class ShipDistance {
+ orderShips(HashMap<Ship,List<ShipDynamicFields>> shipMap)
}

OrderShipsUI ..> ShipDistanceController
ShipDistanceController -> ShipDistance :> uses
@enduml

@startuml

class OrderShipsUI {
}

class ShipDistanceController {
+ orderShipsByTdOrNumbOfMov(HashMap<Ship, List<ShipDynamicFields>> shipMap)
}

class ShipDistance {
+ orderShips(HashMap<Ship,List<ShipDynamicFields>> shipMap)
}

OrderShipsUI ..> ShipDistanceController
ShipDistanceController -> ShipDistance :> uses
@enduml

PlantUML version 1.2021.7(Sun May 23 13:40:07 BST 2021)
(GPL source distribution)
Java Runtime: OpenJDK Runtime Environment
JVM: OpenJDK 64-Bit Server VM
Default Encoding: Cp1252
Language: pt
Country: PT
--></g></svg>