<?xml version="1.0" encoding="UTF-8" standalone="no"?><svg xmlns="http://www.w3.org/2000/svg" xmlns:xlink="http://www.w3.org/1999/xlink" contentScriptType="application/ecmascript" contentStyleType="text/css" height="832.5px" preserveAspectRatio="none" style="width:298px;height:832px;background:#FFFFFF;" version="1.1" viewBox="0 0 298 832" width="298.75px" zoomAndPan="magnify"><defs><filter height="300%" id="fpthhqzsbhsq" width="300%" x="-1" y="-1"><feGaussianBlur result="blurOut" stdDeviation="2.5"/><feColorMatrix in="blurOut" result="blurOut2" type="matrix" values="0 0 0 0 0 0 0 0 0 0 0 0 0 0 0 0 0 0 .4 0"/><feOffset dx="5.0" dy="5.0" in="blurOut2" result="blurOut3"/><feBlend in="SourceGraphic" in2="blurOut3" mode="normal"/></filter></defs><g><!--MD5=[ddaf6f62b0bc30921877ec9fb9463c9f]
class TrafficManager--><rect codeLine="3" fill="#FEFECE" filter="url(#fpthhqzsbhsq)" height="60" id="TrafficManager" style="stroke:#A80036;stroke-width:1.875;" width="141.25" x="8.75" y="60.625"/><ellipse cx="27.5" cy="80.625" fill="#ADD1B2" rx="13.75" ry="13.75" style="stroke:#A80036;stroke-width:1.25;"/><path d="M30,76.25 Q30.2539,75.625 30.5469,75.3125 Q30.8398,75 31.1719,75 Q31.7578,75 32.1289,75.3516 Q32.5,75.7031 32.5,76.5234 L32.5,78.4766 Q32.5,79.2969 32.1484,79.6484 Q31.7969,80 31.25,80 Q30.7617,80 30.4492,79.7852 Q30.1367,79.5703 30,79.0039 Q29.9414,78.6133 29.7266,78.3984 Q29.3359,77.9883 28.6328,77.7539 Q27.9297,77.5 27.2266,77.5 Q26.3477,77.5 25.6055,77.8516 Q24.8828,78.2031 24.3164,78.9844 Q23.75,79.7656 23.75,80.8398 L23.75,81.9922 Q23.75,83.2813 24.8047,84.1406 Q25.8594,85 27.7344,85 Q28.8477,85 29.6289,84.7461 Q30.0781,84.6094 30.5859,84.1602 Q30.918,83.9063 31.0938,83.8281 Q31.2695,83.75 31.4844,83.75 Q31.8945,83.75 32.1875,84.082 Q32.5,84.3945 32.5,84.8438 Q32.5,85.2734 32.0703,85.7813 Q31.4453,86.5234 30.4492,86.9336 Q29.1406,87.5 27.5391,87.5 Q25.6641,87.5 24.1602,86.7578 Q22.9492,86.1719 22.0898,84.9023 Q21.25,83.6328 21.25,82.1289 L21.25,80.7617 Q21.25,79.1992 21.9922,77.832 Q22.7539,76.4648 24.0625,75.7422 Q25.3906,75 26.875,75 Q27.7734,75 28.5547,75.3125 Q29.3359,75.625 30,76.25 Z " fill="#000000"/><text fill="#000000" font-family="sans-serif" font-size="15" lengthAdjust="spacing" textLength="101.25" x="45" y="86.7627">TrafficManager</text><line style="stroke:#A80036;stroke-width:1.875;" x1="10" x2="148.75" y1="100.625" y2="100.625"/><line style="stroke:#A80036;stroke-width:1.875;" x1="10" x2="148.75" y1="110.625" y2="110.625"/><!--MD5=[0dc7f2ddb409b58bcf52b12238c25399]
class Ship--><rect codeLine="6" fill="#FEFECE" filter="url(#fpthhqzsbhsq)" height="250.2441" id="Ship" style="stroke:#A80036;stroke-width:1.875;" width="203.75" x="56.25" y="270"/><ellipse cx="137.1875" cy="290" fill="#ADD1B2" rx="13.75" ry="13.75" style="stroke:#A80036;stroke-width:1.25;"/><path d="M139.6875,285.625 Q139.9414,285 140.2344,284.6875 Q140.5273,284.375 140.8594,284.375 Q141.4453,284.375 141.8164,284.7266 Q142.1875,285.0781 142.1875,285.8984 L142.1875,287.8516 Q142.1875,288.6719 141.8359,289.0234 Q141.4844,289.375 140.9375,289.375 Q140.4492,289.375 140.1367,289.1602 Q139.8242,288.9453 139.6875,288.3789 Q139.6289,287.9883 139.4141,287.7734 Q139.0234,287.3633 138.3203,287.1289 Q137.6172,286.875 136.9141,286.875 Q136.0352,286.875 135.293,287.2266 Q134.5703,287.5781 134.0039,288.3594 Q133.4375,289.1406 133.4375,290.2148 L133.4375,291.3672 Q133.4375,292.6563 134.4922,293.5156 Q135.5469,294.375 137.4219,294.375 Q138.5352,294.375 139.3164,294.1211 Q139.7656,293.9844 140.2734,293.5352 Q140.6055,293.2813 140.7813,293.2031 Q140.957,293.125 141.1719,293.125 Q141.582,293.125 141.875,293.457 Q142.1875,293.7695 142.1875,294.2188 Q142.1875,294.6484 141.7578,295.1563 Q141.1328,295.8984 140.1367,296.3086 Q138.8281,296.875 137.2266,296.875 Q135.3516,296.875 133.8477,296.1328 Q132.6367,295.5469 131.7773,294.2773 Q130.9375,293.0078 130.9375,291.5039 L130.9375,290.1367 Q130.9375,288.5742 131.6797,287.207 Q132.4414,285.8398 133.75,285.1172 Q135.0781,284.375 136.5625,284.375 Q137.4609,284.375 138.2422,284.6875 Q139.0234,285 139.6875,285.625 Z " fill="#000000"/><text fill="#000000" font-family="sans-serif" font-size="15" lengthAdjust="spacing" textLength="31.25" x="162.8125" y="296.1377">Ship</text><line style="stroke:#A80036;stroke-width:1.875;" x1="57.5" x2="258.75" y1="310" y2="310"/><rect fill="none" height="7.5" style="stroke:#C82930;stroke-width:1.25;" width="7.5" x="66.25" y="320"/><text fill="#000000" font-family="sans-serif" font-size="13.75" lengthAdjust="spacing" textLength="30" x="81.25" y="329.2737">mmsi</text><rect fill="none" height="7.5" style="stroke:#C82930;stroke-width:1.25;" width="7.5" x="66.25" y="337.2949"/><text fill="#000000" font-family="sans-serif" font-size="13.75" lengthAdjust="spacing" textLength="58.75" x="81.25" y="346.5686">shipName</text><rect fill="none" height="7.5" style="stroke:#C82930;stroke-width:1.25;" width="7.5" x="66.25" y="354.5898"/><text fill="#000000" font-family="sans-serif" font-size="13.75" lengthAdjust="spacing" textLength="30" x="81.25" y="363.8635">imoId</text><rect fill="none" height="7.5" style="stroke:#C82930;stroke-width:1.25;" width="7.5" x="66.25" y="371.8848"/><text fill="#000000" font-family="sans-serif" font-size="13.75" lengthAdjust="spacing" textLength="171.25" x="81.25" y="381.1584">numberOfEnergyGenerators</text><rect fill="none" height="7.5" style="stroke:#C82930;stroke-width:1.25;" width="7.5" x="66.25" y="389.1797"/><text fill="#000000" font-family="sans-serif" font-size="13.75" lengthAdjust="spacing" textLength="146.25" x="81.25" y="398.4534">generatorsPowerOutput</text><rect fill="none" height="7.5" style="stroke:#C82930;stroke-width:1.25;" width="7.5" x="66.25" y="406.4746"/><text fill="#000000" font-family="sans-serif" font-size="13.75" lengthAdjust="spacing" textLength="46.25" x="81.25" y="415.7483">callSign</text><rect fill="none" height="7.5" style="stroke:#C82930;stroke-width:1.25;" width="7.5" x="66.25" y="423.7695"/><text fill="#000000" font-family="sans-serif" font-size="13.75" lengthAdjust="spacing" textLength="70" x="81.25" y="433.0432">vesselType</text><rect fill="none" height="7.5" style="stroke:#C82930;stroke-width:1.25;" width="7.5" x="66.25" y="441.0645"/><text fill="#000000" font-family="sans-serif" font-size="13.75" lengthAdjust="spacing" textLength="36.25" x="81.25" y="450.3381">lenght</text><rect fill="none" height="7.5" style="stroke:#C82930;stroke-width:1.25;" width="7.5" x="66.25" y="458.3594"/><text fill="#000000" font-family="sans-serif" font-size="13.75" lengthAdjust="spacing" textLength="33.75" x="81.25" y="467.6331">width</text><rect fill="none" height="7.5" style="stroke:#C82930;stroke-width:1.25;" width="7.5" x="66.25" y="475.6543"/><text fill="#000000" font-family="sans-serif" font-size="13.75" lengthAdjust="spacing" textLength="51.25" x="81.25" y="484.928">capacity</text><rect fill="none" height="7.5" style="stroke:#C82930;stroke-width:1.25;" width="7.5" x="66.25" y="492.9492"/><text fill="#000000" font-family="sans-serif" font-size="13.75" lengthAdjust="spacing" textLength="28.75" x="81.25" y="502.2229">draft</text><line style="stroke:#A80036;stroke-width:1.875;" x1="57.5" x2="258.75" y1="510.2441" y2="510.2441"/><!--MD5=[a8ffbd38daa8a369450c487507013c0d]
class ShipDynamicFields--><rect codeLine="20" fill="#FEFECE" filter="url(#fpthhqzsbhsq)" height="198.3594" id="ShipDynamicFields" style="stroke:#A80036;stroke-width:1.875;" width="173.75" x="71.25" y="617.5"/><ellipse cx="90" cy="637.5" fill="#ADD1B2" rx="13.75" ry="13.75" style="stroke:#A80036;stroke-width:1.25;"/><path d="M92.5,633.125 Q92.7539,632.5 93.0469,632.1875 Q93.3398,631.875 93.6719,631.875 Q94.2578,631.875 94.6289,632.2266 Q95,632.5781 95,633.3984 L95,635.3516 Q95,636.1719 94.6484,636.5234 Q94.2969,636.875 93.75,636.875 Q93.2617,636.875 92.9492,636.6602 Q92.6367,636.4453 92.5,635.8789 Q92.4414,635.4883 92.2266,635.2734 Q91.8359,634.8633 91.1328,634.6289 Q90.4297,634.375 89.7266,634.375 Q88.8477,634.375 88.1055,634.7266 Q87.3828,635.0781 86.8164,635.8594 Q86.25,636.6406 86.25,637.7148 L86.25,638.8672 Q86.25,640.1563 87.3047,641.0156 Q88.3594,641.875 90.2344,641.875 Q91.3477,641.875 92.1289,641.6211 Q92.5781,641.4844 93.0859,641.0352 Q93.418,640.7813 93.5938,640.7031 Q93.7695,640.625 93.9844,640.625 Q94.3945,640.625 94.6875,640.957 Q95,641.2695 95,641.7188 Q95,642.1484 94.5703,642.6563 Q93.9453,643.3984 92.9492,643.8086 Q91.6406,644.375 90.0391,644.375 Q88.1641,644.375 86.6602,643.6328 Q85.4492,643.0469 84.5898,641.7773 Q83.75,640.5078 83.75,639.0039 L83.75,637.6367 Q83.75,636.0742 84.4922,634.707 Q85.2539,633.3398 86.5625,632.6172 Q87.8906,631.875 89.375,631.875 Q90.2734,631.875 91.0547,632.1875 Q91.8359,632.5 92.5,633.125 Z " fill="#000000"/><text fill="#000000" font-family="sans-serif" font-size="15" lengthAdjust="spacing" textLength="133.75" x="107.5" y="643.6377">ShipDynamicFields</text><line style="stroke:#A80036;stroke-width:1.875;" x1="72.5" x2="243.75" y1="657.5" y2="657.5"/><rect fill="none" height="7.5" style="stroke:#C82930;stroke-width:1.25;" width="7.5" x="81.25" y="667.5"/><text fill="#000000" font-family="sans-serif" font-size="13.75" lengthAdjust="spacing" textLength="53.75" x="96.25" y="676.7737">dateTime</text><rect fill="none" height="7.5" style="stroke:#C82930;stroke-width:1.25;" width="7.5" x="81.25" y="684.7949"/><text fill="#000000" font-family="sans-serif" font-size="13.75" lengthAdjust="spacing" textLength="25" x="96.25" y="694.0686">long</text><rect fill="none" height="7.5" style="stroke:#C82930;stroke-width:1.25;" width="7.5" x="81.25" y="702.0898"/><text fill="#000000" font-family="sans-serif" font-size="13.75" lengthAdjust="spacing" textLength="13.75" x="96.25" y="711.3635">lat</text><rect fill="none" height="7.5" style="stroke:#C82930;stroke-width:1.25;" width="7.5" x="81.25" y="719.3848"/><text fill="#000000" font-family="sans-serif" font-size="13.75" lengthAdjust="spacing" textLength="22.5" x="96.25" y="728.6584">sog</text><rect fill="none" height="7.5" style="stroke:#C82930;stroke-width:1.25;" width="7.5" x="81.25" y="736.6797"/><text fill="#000000" font-family="sans-serif" font-size="13.75" lengthAdjust="spacing" textLength="22.5" x="96.25" y="745.9534">cog</text><rect fill="none" height="7.5" style="stroke:#C82930;stroke-width:1.25;" width="7.5" x="81.25" y="753.9746"/><text fill="#000000" font-family="sans-serif" font-size="13.75" lengthAdjust="spacing" textLength="47.5" x="96.25" y="763.2483">heading</text><rect fill="none" height="7.5" style="stroke:#C82930;stroke-width:1.25;" width="7.5" x="81.25" y="771.2695"/><text fill="#000000" font-family="sans-serif" font-size="13.75" lengthAdjust="spacing" textLength="46.25" x="96.25" y="780.5432">position</text><rect fill="none" height="7.5" style="stroke:#C82930;stroke-width:1.25;" width="7.5" x="81.25" y="788.5645"/><text fill="#000000" font-family="sans-serif" font-size="13.75" lengthAdjust="spacing" textLength="102.5" x="96.25" y="797.8381">transceiverClass</text><line style="stroke:#A80036;stroke-width:1.875;" x1="72.5" x2="243.75" y1="805.8594" y2="805.8594"/><!--MD5=[a0bfe97ac0a38e6e74cc1c7c7b744b71]
class Port--><rect codeLine="31" fill="#FEFECE" filter="url(#fpthhqzsbhsq)" height="163.7695" id="Port" style="stroke:#A80036;stroke-width:1.875;" width="87.5" x="194.375" y="8.75"/><ellipse cx="222.125" cy="28.75" fill="#ADD1B2" rx="13.75" ry="13.75" style="stroke:#A80036;stroke-width:1.25;"/><path d="M224.625,24.375 Q224.8789,23.75 225.1719,23.4375 Q225.4648,23.125 225.7969,23.125 Q226.3828,23.125 226.7539,23.4766 Q227.125,23.8281 227.125,24.6484 L227.125,26.6016 Q227.125,27.4219 226.7734,27.7734 Q226.4219,28.125 225.875,28.125 Q225.3867,28.125 225.0742,27.9102 Q224.7617,27.6953 224.625,27.1289 Q224.5664,26.7383 224.3516,26.5234 Q223.9609,26.1133 223.2578,25.8789 Q222.5547,25.625 221.8516,25.625 Q220.9727,25.625 220.2305,25.9766 Q219.5078,26.3281 218.9414,27.1094 Q218.375,27.8906 218.375,28.9648 L218.375,30.1172 Q218.375,31.4063 219.4297,32.2656 Q220.4844,33.125 222.3594,33.125 Q223.4727,33.125 224.2539,32.8711 Q224.7031,32.7344 225.2109,32.2852 Q225.543,32.0313 225.7188,31.9531 Q225.8945,31.875 226.1094,31.875 Q226.5195,31.875 226.8125,32.207 Q227.125,32.5195 227.125,32.9688 Q227.125,33.3984 226.6953,33.9063 Q226.0703,34.6484 225.0742,35.0586 Q223.7656,35.625 222.1641,35.625 Q220.2891,35.625 218.7852,34.8828 Q217.5742,34.2969 216.7148,33.0273 Q215.875,31.7578 215.875,30.2539 L215.875,28.8867 Q215.875,27.3242 216.6172,25.957 Q217.3789,24.5898 218.6875,23.8672 Q220.0156,23.125 221.5,23.125 Q222.3984,23.125 223.1797,23.4375 Q223.9609,23.75 224.625,24.375 Z " fill="#000000"/><text fill="#000000" font-family="sans-serif" font-size="15" lengthAdjust="spacing" textLength="27.5" x="241.625" y="34.8877">Port</text><line style="stroke:#A80036;stroke-width:1.875;" x1="195.625" x2="280.625" y1="48.75" y2="48.75"/><rect fill="none" height="7.5" style="stroke:#C82930;stroke-width:1.25;" width="7.5" x="204.375" y="58.75"/><text fill="#000000" font-family="sans-serif" font-size="13.75" lengthAdjust="spacing" textLength="30" x="219.375" y="68.0237">code</text><rect fill="none" height="7.5" style="stroke:#C82930;stroke-width:1.25;" width="7.5" x="204.375" y="76.0449"/><text fill="#000000" font-family="sans-serif" font-size="13.75" lengthAdjust="spacing" textLength="23.75" x="219.375" y="85.3186">port</text><rect fill="none" height="7.5" style="stroke:#C82930;stroke-width:1.25;" width="7.5" x="204.375" y="93.3398"/><text fill="#000000" font-family="sans-serif" font-size="13.75" lengthAdjust="spacing" textLength="55" x="219.375" y="102.6135">continent</text><rect fill="none" height="7.5" style="stroke:#C82930;stroke-width:1.25;" width="7.5" x="204.375" y="110.6348"/><text fill="#000000" font-family="sans-serif" font-size="13.75" lengthAdjust="spacing" textLength="46.25" x="219.375" y="119.9084">country</text><rect fill="none" height="7.5" style="stroke:#C82930;stroke-width:1.25;" width="7.5" x="204.375" y="127.9297"/><text fill="#000000" font-family="sans-serif" font-size="13.75" lengthAdjust="spacing" textLength="13.75" x="219.375" y="137.2034">lat</text><rect fill="none" height="7.5" style="stroke:#C82930;stroke-width:1.25;" width="7.5" x="204.375" y="145.2246"/><text fill="#000000" font-family="sans-serif" font-size="13.75" lengthAdjust="spacing" textLength="25" x="219.375" y="154.4983">long</text><line style="stroke:#A80036;stroke-width:1.875;" x1="195.625" x2="280.625" y1="162.5195" y2="162.5195"/><!--MD5=[40e2b5717560220ad35e84810a8f1b44]
link TrafficManager to Ship--><path codeLine="40" d="M84.4875,121.15 C89.6875,149.7375 98.3375,194.3625 108.125,232.5 C111.2625,244.7125 114.75,257.3625 118.3875,269.975 " fill="none" id="TrafficManager-Ship" style="stroke:#A80036;stroke-width:1.25;"/><polygon fill="#000000" points="115.7631,227.5636,116.8339,215.7238,109.6701,217.3556,115.7631,227.5636" style="stroke:#000000;stroke-width:1.25;"/><text fill="#000000" font-family="sans-serif" font-size="16.25" lengthAdjust="spacing" textLength="57.5" x="125.625" y="228.1189">controls</text><text fill="#000000" font-family="sans-serif" font-size="16.25" lengthAdjust="spacing" textLength="8.75" x="75.908" y="147.4411">1</text><text fill="#000000" font-family="sans-serif" font-size="16.25" lengthAdjust="spacing" textLength="25" x="89.3881" y="256.5135">1..*</text><!--MD5=[f91b227e93aeebda0e6138e5b2e7fc8a]
link Ship to ShipDynamicFields--><path codeLine="41" d="M158.125,520.1875 C158.125,552.45 158.125,586.7625 158.125,617.4875 " fill="none" id="Ship-ShipDynamicFields" style="stroke:#A80036;stroke-width:1.25;"/><polygon fill="#000000" points="164.375,575.2197,168.0487,563.9134,160.7013,563.9134,164.375,575.2197" style="stroke:#000000;stroke-width:1.25;"/><text fill="#000000" font-family="sans-serif" font-size="16.25" lengthAdjust="spacing" textLength="26.25" x="175.625" y="575.6189">has</text><text fill="#000000" font-family="sans-serif" font-size="16.25" lengthAdjust="spacing" textLength="8.75" x="149.0537" y="546.9914">1</text><text fill="#000000" font-family="sans-serif" font-size="16.25" lengthAdjust="spacing" textLength="8.75" x="148.958" y="603.97">1</text><!--MD5=[81746cb93c90cbb95bfeb7ee7cddfbe5]
link Port to Ship--><path codeLine="42" d="M216.6875,172.775 C208.775,202.6375 199.6125,237.2 190.925,270 " fill="none" id="Port-Ship" style="stroke:#A80036;stroke-width:1.25;"/><polygon fill="#000000" points="209.0241,227.5112,215.4712,217.523,208.369,215.6411,209.0241,227.5112" style="stroke:#000000;stroke-width:1.25;"/><text fill="#000000" font-family="sans-serif" font-size="16.25" lengthAdjust="spacing" textLength="61.25" x="221.875" y="228.1189">contains</text><text fill="#000000" font-family="sans-serif" font-size="16.25" lengthAdjust="spacing" textLength="8.75" x="205.2756" y="199.1685">1</text><text fill="#000000" font-family="sans-serif" font-size="16.25" lengthAdjust="spacing" textLength="25" x="167.4792" y="256.5404">1..*</text><!--MD5=[60883446fa55dca9bd8f7403221f8e66]
@startuml
'https://plantuml.com/use-case-diagram

class TrafficManager {
}

class Ship {
 - mmsi
 - shipName
 - imoId
 - numberOfEnergyGenerators
 - generatorsPowerOutput
 - callSign
 - vesselType
 - lenght
 - width
 - capacity
 - draft
}

class ShipDynamicFields {
 - dateTime
 - long
 -lat
 -sog
 -cog
 -heading
 -position
 -transceiverClass
}

class Port {
 - code
 - port
 - continent
 - country
 - lat
 - long
}

TrafficManager"1" - - "1..*"Ship : > controls
Ship"1" - - "1"ShipDynamicFields :> has
Port"1" - - "1..*"Ship :> contains
@enduml

@startuml

class TrafficManager {
}

class Ship {
 - mmsi
 - shipName
 - imoId
 - numberOfEnergyGenerators
 - generatorsPowerOutput
 - callSign
 - vesselType
 - lenght
 - width
 - capacity
 - draft
}

class ShipDynamicFields {
 - dateTime
 - long
 -lat
 -sog
 -cog
 -heading
 -position
 -transceiverClass
}

class Port {
 - code
 - port
 - continent
 - country
 - lat
 - long
}

TrafficManager"1" - - "1..*"Ship : > controls
Ship"1" - - "1"ShipDynamicFields :> has
Port"1" - - "1..*"Ship :> contains
@enduml

PlantUML version 1.2021.7(Sun May 23 13:40:07 BST 2021)
(GPL source distribution)
Java Runtime: OpenJDK Runtime Environment
JVM: OpenJDK 64-Bit Server VM
Default Encoding: Cp1252
Language: pt
Country: PT
--></g></svg>