<?xml version="1.0" encoding="UTF-8" standalone="no"?><svg xmlns="http://www.w3.org/2000/svg" xmlns:xlink="http://www.w3.org/1999/xlink" contentScriptType="application/ecmascript" contentStyleType="text/css" height="623.75px" preserveAspectRatio="none" style="width:1142px;height:623px;background:#FFFFFF;" version="1.1" viewBox="0 0 1142 623" width="1142.5px" zoomAndPan="magnify"><defs><filter height="300%" id="f17jqujgqb8oqk" width="300%" x="-1" y="-1"><feGaussianBlur result="blurOut" stdDeviation="2.5"/><feColorMatrix in="blurOut" result="blurOut2" type="matrix" values="0 0 0 0 0 0 0 0 0 0 0 0 0 0 0 0 0 0 .4 0"/><feOffset dx="5.0" dy="5.0" in="blurOut2" result="blurOut3"/><feBlend in="SourceGraphic" in2="blurOut3" mode="normal"/></filter></defs><g><!--MD5=[b55b8e0215ad49e42aba217bb42f372e]
class FindPortsUI--><rect codeLine="3" fill="#FEFECE" filter="url(#f17jqujgqb8oqk)" height="60" id="FindPortsUI" style="stroke:#A80036;stroke-width:1.875;" width="121.25" x="366.25" y="8.75"/><ellipse cx="385" cy="28.75" fill="#ADD1B2" rx="13.75" ry="13.75" style="stroke:#A80036;stroke-width:1.25;"/><path d="M387.5,24.375 Q387.7539,23.75 388.0469,23.4375 Q388.3398,23.125 388.6719,23.125 Q389.2578,23.125 389.6289,23.4766 Q390,23.8281 390,24.6484 L390,26.6016 Q390,27.4219 389.6484,27.7734 Q389.2969,28.125 388.75,28.125 Q388.2617,28.125 387.9492,27.9102 Q387.6367,27.6953 387.5,27.1289 Q387.4414,26.7383 387.2266,26.5234 Q386.8359,26.1133 386.1328,25.8789 Q385.4297,25.625 384.7266,25.625 Q383.8477,25.625 383.1055,25.9766 Q382.3828,26.3281 381.8164,27.1094 Q381.25,27.8906 381.25,28.9648 L381.25,30.1172 Q381.25,31.4063 382.3047,32.2656 Q383.3594,33.125 385.2344,33.125 Q386.3477,33.125 387.1289,32.8711 Q387.5781,32.7344 388.0859,32.2852 Q388.418,32.0313 388.5938,31.9531 Q388.7695,31.875 388.9844,31.875 Q389.3945,31.875 389.6875,32.207 Q390,32.5195 390,32.9688 Q390,33.3984 389.5703,33.9063 Q388.9453,34.6484 387.9492,35.0586 Q386.6406,35.625 385.0391,35.625 Q383.1641,35.625 381.6602,34.8828 Q380.4492,34.2969 379.5898,33.0273 Q378.75,31.7578 378.75,30.2539 L378.75,28.8867 Q378.75,27.3242 379.4922,25.957 Q380.2539,24.5898 381.5625,23.8672 Q382.8906,23.125 384.375,23.125 Q385.2734,23.125 386.0547,23.4375 Q386.8359,23.75 387.5,24.375 Z " fill="#000000"/><text fill="#000000" font-family="sans-serif" font-size="15" lengthAdjust="spacing" textLength="81.25" x="402.5" y="34.8877">FindPortsUI</text><line style="stroke:#A80036;stroke-width:1.875;" x1="367.5" x2="486.25" y1="48.75" y2="48.75"/><line style="stroke:#A80036;stroke-width:1.875;" x1="367.5" x2="486.25" y1="58.75" y2="58.75"/><!--MD5=[9873d8a2c6cd70d1cc3a8ef9c0b4542c]
class PortController--><rect codeLine="6" fill="#FEFECE" filter="url(#f17jqujgqb8oqk)" height="77.2949" id="PortController" style="stroke:#A80036;stroke-width:1.875;" width="422.5" x="215.625" y="145"/><ellipse cx="374.0625" cy="165" fill="#ADD1B2" rx="13.75" ry="13.75" style="stroke:#A80036;stroke-width:1.25;"/><path d="M376.5625,160.625 Q376.8164,160 377.1094,159.6875 Q377.4023,159.375 377.7344,159.375 Q378.3203,159.375 378.6914,159.7266 Q379.0625,160.0781 379.0625,160.8984 L379.0625,162.8516 Q379.0625,163.6719 378.7109,164.0234 Q378.3594,164.375 377.8125,164.375 Q377.3242,164.375 377.0117,164.1602 Q376.6992,163.9453 376.5625,163.3789 Q376.5039,162.9883 376.2891,162.7734 Q375.8984,162.3633 375.1953,162.1289 Q374.4922,161.875 373.7891,161.875 Q372.9102,161.875 372.168,162.2266 Q371.4453,162.5781 370.8789,163.3594 Q370.3125,164.1406 370.3125,165.2148 L370.3125,166.3672 Q370.3125,167.6563 371.3672,168.5156 Q372.4219,169.375 374.2969,169.375 Q375.4102,169.375 376.1914,169.1211 Q376.6406,168.9844 377.1484,168.5352 Q377.4805,168.2813 377.6563,168.2031 Q377.832,168.125 378.0469,168.125 Q378.457,168.125 378.75,168.457 Q379.0625,168.7695 379.0625,169.2188 Q379.0625,169.6484 378.6328,170.1563 Q378.0078,170.8984 377.0117,171.3086 Q375.7031,171.875 374.1016,171.875 Q372.2266,171.875 370.7227,171.1328 Q369.5117,170.5469 368.6523,169.2773 Q367.8125,168.0078 367.8125,166.5039 L367.8125,165.1367 Q367.8125,163.5742 368.5547,162.207 Q369.3164,160.8398 370.625,160.1172 Q371.9531,159.375 373.4375,159.375 Q374.3359,159.375 375.1172,159.6875 Q375.8984,160 376.5625,160.625 Z " fill="#000000"/><text fill="#000000" font-family="sans-serif" font-size="15" lengthAdjust="spacing" textLength="95" x="399.6875" y="171.1377">PortController</text><line style="stroke:#A80036;stroke-width:1.875;" x1="216.875" x2="636.875" y1="185" y2="185"/><line style="stroke:#A80036;stroke-width:1.875;" x1="216.875" x2="636.875" y1="195" y2="195"/><text fill="#000000" font-family="sans-serif" font-size="13.75" lengthAdjust="spacing" textLength="407.5" x="223.125" y="214.2737">+findClosestPortToShip(String callSign, Date year, LocalTime hours)</text><!--MD5=[0dc7f2ddb409b58bcf52b12238c25399]
class Ship--><rect codeLine="10" fill="#FEFECE" filter="url(#f17jqujgqb8oqk)" height="94.5898" id="Ship" style="stroke:#A80036;stroke-width:1.875;" width="98.75" x="8.75" y="320"/><ellipse cx="39.875" cy="340" fill="#ADD1B2" rx="13.75" ry="13.75" style="stroke:#A80036;stroke-width:1.25;"/><path d="M42.375,335.625 Q42.6289,335 42.9219,334.6875 Q43.2148,334.375 43.5469,334.375 Q44.1328,334.375 44.5039,334.7266 Q44.875,335.0781 44.875,335.8984 L44.875,337.8516 Q44.875,338.6719 44.5234,339.0234 Q44.1719,339.375 43.625,339.375 Q43.1367,339.375 42.8242,339.1602 Q42.5117,338.9453 42.375,338.3789 Q42.3164,337.9883 42.1016,337.7734 Q41.7109,337.3633 41.0078,337.1289 Q40.3047,336.875 39.6016,336.875 Q38.7227,336.875 37.9805,337.2266 Q37.2578,337.5781 36.6914,338.3594 Q36.125,339.1406 36.125,340.2148 L36.125,341.3672 Q36.125,342.6563 37.1797,343.5156 Q38.2344,344.375 40.1094,344.375 Q41.2227,344.375 42.0039,344.1211 Q42.4531,343.9844 42.9609,343.5352 Q43.293,343.2813 43.4688,343.2031 Q43.6445,343.125 43.8594,343.125 Q44.2695,343.125 44.5625,343.457 Q44.875,343.7695 44.875,344.2188 Q44.875,344.6484 44.4453,345.1563 Q43.8203,345.8984 42.8242,346.3086 Q41.5156,346.875 39.9141,346.875 Q38.0391,346.875 36.5352,346.1328 Q35.3242,345.5469 34.4648,344.2773 Q33.625,343.0078 33.625,341.5039 L33.625,340.1367 Q33.625,338.5742 34.3672,337.207 Q35.1289,335.8398 36.4375,335.1172 Q37.7656,334.375 39.25,334.375 Q40.1484,334.375 40.9297,334.6875 Q41.7109,335 42.375,335.625 Z " fill="#000000"/><text fill="#000000" font-family="sans-serif" font-size="15" lengthAdjust="spacing" textLength="31.25" x="60.125" y="346.1377">Ship</text><line style="stroke:#A80036;stroke-width:1.875;" x1="10" x2="106.25" y1="360" y2="360"/><line style="stroke:#A80036;stroke-width:1.875;" x1="10" x2="106.25" y1="370" y2="370"/><text fill="#000000" font-family="sans-serif" font-size="13.75" lengthAdjust="spacing" textLength="43.75" x="16.25" y="389.2737">+Ship()</text><text fill="#000000" font-family="sans-serif" font-size="13.75" lengthAdjust="spacing" textLength="83.75" x="16.25" y="406.5686">+getCallSign()</text><!--MD5=[a8ffbd38daa8a369450c487507013c0d]
class ShipDynamicFields--><rect codeLine="15" fill="#FEFECE" filter="url(#f17jqujgqb8oqk)" height="77.2949" id="ShipDynamicFields" style="stroke:#A80036;stroke-width:1.875;" width="550" x="151.875" y="328.75"/><ellipse cx="354.6875" cy="348.75" fill="#ADD1B2" rx="13.75" ry="13.75" style="stroke:#A80036;stroke-width:1.25;"/><path d="M357.1875,344.375 Q357.4414,343.75 357.7344,343.4375 Q358.0273,343.125 358.3594,343.125 Q358.9453,343.125 359.3164,343.4766 Q359.6875,343.8281 359.6875,344.6484 L359.6875,346.6016 Q359.6875,347.4219 359.3359,347.7734 Q358.9844,348.125 358.4375,348.125 Q357.9492,348.125 357.6367,347.9102 Q357.3242,347.6953 357.1875,347.1289 Q357.1289,346.7383 356.9141,346.5234 Q356.5234,346.1133 355.8203,345.8789 Q355.1172,345.625 354.4141,345.625 Q353.5352,345.625 352.793,345.9766 Q352.0703,346.3281 351.5039,347.1094 Q350.9375,347.8906 350.9375,348.9648 L350.9375,350.1172 Q350.9375,351.4063 351.9922,352.2656 Q353.0469,353.125 354.9219,353.125 Q356.0352,353.125 356.8164,352.8711 Q357.2656,352.7344 357.7734,352.2852 Q358.1055,352.0313 358.2813,351.9531 Q358.457,351.875 358.6719,351.875 Q359.082,351.875 359.375,352.207 Q359.6875,352.5195 359.6875,352.9688 Q359.6875,353.3984 359.2578,353.9063 Q358.6328,354.6484 357.6367,355.0586 Q356.3281,355.625 354.7266,355.625 Q352.8516,355.625 351.3477,354.8828 Q350.1367,354.2969 349.2773,353.0273 Q348.4375,351.7578 348.4375,350.2539 L348.4375,348.8867 Q348.4375,347.3242 349.1797,345.957 Q349.9414,344.5898 351.25,343.8672 Q352.5781,343.125 354.0625,343.125 Q354.9609,343.125 355.7422,343.4375 Q356.5234,343.75 357.1875,344.375 Z " fill="#000000"/><text fill="#000000" font-family="sans-serif" font-size="15" lengthAdjust="spacing" textLength="133.75" x="380.3125" y="354.8877">ShipDynamicFields</text><line style="stroke:#A80036;stroke-width:1.875;" x1="153.125" x2="700.625" y1="368.75" y2="368.75"/><line style="stroke:#A80036;stroke-width:1.875;" x1="153.125" x2="700.625" y1="378.75" y2="378.75"/><text fill="#000000" font-family="sans-serif" font-size="13.75" lengthAdjust="spacing" textLength="535" x="159.375" y="398.0237">+checkLastPositionUpgrade(Date year, LocalTime hours, List&lt;ShipDynamicFields&gt; ships)</text><!--MD5=[8ea21eb34d8c2cb9ca2346ccb811dfc2]
class TwoDTree--><rect codeLine="19" fill="#FEFECE" filter="url(#f17jqujgqb8oqk)" height="94.5898" id="TwoDTree" style="stroke:#A80036;stroke-width:1.875;" width="380" x="745.625" y="320"/><ellipse cx="894.6875" cy="340" fill="#ADD1B2" rx="13.75" ry="13.75" style="stroke:#A80036;stroke-width:1.25;"/><path d="M897.1875,335.625 Q897.4414,335 897.7344,334.6875 Q898.0273,334.375 898.3594,334.375 Q898.9453,334.375 899.3164,334.7266 Q899.6875,335.0781 899.6875,335.8984 L899.6875,337.8516 Q899.6875,338.6719 899.3359,339.0234 Q898.9844,339.375 898.4375,339.375 Q897.9492,339.375 897.6367,339.1602 Q897.3242,338.9453 897.1875,338.3789 Q897.1289,337.9883 896.9141,337.7734 Q896.5234,337.3633 895.8203,337.1289 Q895.1172,336.875 894.4141,336.875 Q893.5352,336.875 892.793,337.2266 Q892.0703,337.5781 891.5039,338.3594 Q890.9375,339.1406 890.9375,340.2148 L890.9375,341.3672 Q890.9375,342.6563 891.9922,343.5156 Q893.0469,344.375 894.9219,344.375 Q896.0352,344.375 896.8164,344.1211 Q897.2656,343.9844 897.7734,343.5352 Q898.1055,343.2813 898.2813,343.2031 Q898.457,343.125 898.6719,343.125 Q899.082,343.125 899.375,343.457 Q899.6875,343.7695 899.6875,344.2188 Q899.6875,344.6484 899.2578,345.1563 Q898.6328,345.8984 897.6367,346.3086 Q896.3281,346.875 894.7266,346.875 Q892.8516,346.875 891.3477,346.1328 Q890.1367,345.5469 889.2773,344.2773 Q888.4375,343.0078 888.4375,341.5039 L888.4375,340.1367 Q888.4375,338.5742 889.1797,337.207 Q889.9414,335.8398 891.25,335.1172 Q892.5781,334.375 894.0625,334.375 Q894.9609,334.375 895.7422,334.6875 Q896.5234,335 897.1875,335.625 Z " fill="#000000"/><text fill="#000000" font-family="sans-serif" font-size="15" lengthAdjust="spacing" textLength="71.25" x="920.3125" y="346.1377">TwoDTree</text><line style="stroke:#A80036;stroke-width:1.875;" x1="746.875" x2="1124.375" y1="360" y2="360"/><line style="stroke:#A80036;stroke-width:1.875;" x1="746.875" x2="1124.375" y1="370" y2="370"/><text fill="#000000" font-family="sans-serif" font-size="13.75" lengthAdjust="spacing" textLength="258.75" x="753.125" y="389.2737">+findNearestNeighbour(double x, double y)</text><text fill="#000000" font-family="sans-serif" font-size="13.75" lengthAdjust="spacing" textLength="365" x="753.125" y="406.5686">+findNearestNeighbour(finalShip.getLat(), finalShip.getLon())</text><!--MD5=[3fee75583bb7a64f68d843a3c9534ab3]
class Node--><rect codeLine="24" fill="#FEFECE" filter="url(#f17jqujgqb8oqk)" height="94.5898" id="Node" style="stroke:#A80036;stroke-width:1.875;" width="155" x="778.125" y="512.5"/><ellipse cx="831.75" cy="532.5" fill="#ADD1B2" rx="13.75" ry="13.75" style="stroke:#A80036;stroke-width:1.25;"/><path d="M834.25,528.125 Q834.5039,527.5 834.7969,527.1875 Q835.0898,526.875 835.4219,526.875 Q836.0078,526.875 836.3789,527.2266 Q836.75,527.5781 836.75,528.3984 L836.75,530.3516 Q836.75,531.1719 836.3984,531.5234 Q836.0469,531.875 835.5,531.875 Q835.0117,531.875 834.6992,531.6602 Q834.3867,531.4453 834.25,530.8789 Q834.1914,530.4883 833.9766,530.2734 Q833.5859,529.8633 832.8828,529.6289 Q832.1797,529.375 831.4766,529.375 Q830.5977,529.375 829.8555,529.7266 Q829.1328,530.0781 828.5664,530.8594 Q828,531.6406 828,532.7148 L828,533.8672 Q828,535.1563 829.0547,536.0156 Q830.1094,536.875 831.9844,536.875 Q833.0977,536.875 833.8789,536.6211 Q834.3281,536.4844 834.8359,536.0352 Q835.168,535.7813 835.3438,535.7031 Q835.5195,535.625 835.7344,535.625 Q836.1445,535.625 836.4375,535.957 Q836.75,536.2695 836.75,536.7188 Q836.75,537.1484 836.3203,537.6563 Q835.6953,538.3984 834.6992,538.8086 Q833.3906,539.375 831.7891,539.375 Q829.9141,539.375 828.4102,538.6328 Q827.1992,538.0469 826.3398,536.7773 Q825.5,535.5078 825.5,534.0039 L825.5,532.6367 Q825.5,531.0742 826.2422,529.707 Q827.0039,528.3398 828.3125,527.6172 Q829.6406,526.875 831.125,526.875 Q832.0234,526.875 832.8047,527.1875 Q833.5859,527.5 834.25,528.125 Z " fill="#000000"/><text fill="#000000" font-family="sans-serif" font-size="15" lengthAdjust="spacing" textLength="37.5" x="857" y="538.6377">Node</text><line style="stroke:#A80036;stroke-width:1.875;" x1="779.375" x2="931.875" y1="552.5" y2="552.5"/><line style="stroke:#A80036;stroke-width:1.875;" x1="779.375" x2="931.875" y1="562.5" y2="562.5"/><text fill="#000000" font-family="sans-serif" font-size="13.75" lengthAdjust="spacing" textLength="58.75" x="785.625" y="581.7737">+getInfo()</text><text fill="#000000" font-family="sans-serif" font-size="13.75" lengthAdjust="spacing" textLength="140" x="785.625" y="599.0686">+setObject(Node node)</text><!--MD5=[a0bfe97ac0a38e6e74cc1c7c7b744b71]
class Port--><rect codeLine="29" fill="#FEFECE" filter="url(#f17jqujgqb8oqk)" height="94.5898" id="Port" style="stroke:#A80036;stroke-width:1.875;" width="73.75" x="977.5" y="512.5"/><ellipse cx="999.0625" cy="532.5" fill="#ADD1B2" rx="13.75" ry="13.75" style="stroke:#A80036;stroke-width:1.25;"/><path d="M1001.5625,528.125 Q1001.8164,527.5 1002.1094,527.1875 Q1002.4023,526.875 1002.7344,526.875 Q1003.3203,526.875 1003.6914,527.2266 Q1004.0625,527.5781 1004.0625,528.3984 L1004.0625,530.3516 Q1004.0625,531.1719 1003.7109,531.5234 Q1003.3594,531.875 1002.8125,531.875 Q1002.3242,531.875 1002.0117,531.6602 Q1001.6992,531.4453 1001.5625,530.8789 Q1001.5039,530.4883 1001.2891,530.2734 Q1000.8984,529.8633 1000.1953,529.6289 Q999.4922,529.375 998.7891,529.375 Q997.9102,529.375 997.168,529.7266 Q996.4453,530.0781 995.8789,530.8594 Q995.3125,531.6406 995.3125,532.7148 L995.3125,533.8672 Q995.3125,535.1563 996.3672,536.0156 Q997.4219,536.875 999.2969,536.875 Q1000.4102,536.875 1001.1914,536.6211 Q1001.6406,536.4844 1002.1484,536.0352 Q1002.4805,535.7813 1002.6563,535.7031 Q1002.832,535.625 1003.0469,535.625 Q1003.457,535.625 1003.75,535.957 Q1004.0625,536.2695 1004.0625,536.7188 Q1004.0625,537.1484 1003.6328,537.6563 Q1003.0078,538.3984 1002.0117,538.8086 Q1000.7031,539.375 999.1016,539.375 Q997.2266,539.375 995.7227,538.6328 Q994.5117,538.0469 993.6523,536.7773 Q992.8125,535.5078 992.8125,534.0039 L992.8125,532.6367 Q992.8125,531.0742 993.5547,529.707 Q994.3164,528.3398 995.625,527.6172 Q996.9531,526.875 998.4375,526.875 Q999.3359,526.875 1000.1172,527.1875 Q1000.8984,527.5 1001.5625,528.125 Z " fill="#000000"/><text fill="#000000" font-family="sans-serif" font-size="15" lengthAdjust="spacing" textLength="27.5" x="1017.1875" y="538.6377">Port</text><line style="stroke:#A80036;stroke-width:1.875;" x1="978.75" x2="1050" y1="552.5" y2="552.5"/><line style="stroke:#A80036;stroke-width:1.875;" x1="978.75" x2="1050" y1="562.5" y2="562.5"/><text fill="#000000" font-family="sans-serif" font-size="13.75" lengthAdjust="spacing" textLength="55" x="985" y="581.7737">+getLat()</text><text fill="#000000" font-family="sans-serif" font-size="13.75" lengthAdjust="spacing" textLength="58.75" x="985" y="599.0686">+getLon()</text><!--MD5=[addcd4a3ff5f248199886b4eb64f7ef7]
link FindPortsUI to PortController--><path codeLine="37" d="M426.875,68.8375 C426.875,88.7625 426.875,115.6375 426.875,138.25 " fill="none" id="FindPortsUI-to-PortController" style="stroke:#A80036;stroke-width:1.25;stroke-dasharray:7.0,7.0;"/><polygon fill="#A80036" points="426.875,144.5125,431.875,133.2625,426.875,138.2625,421.875,133.2625,426.875,144.5125" style="stroke:#A80036;stroke-width:1.25;"/><!--MD5=[709f0855fed19ee3a9aa085f5bb428ca]
link PortController to Ship--><path codeLine="38" d="M334.6625,222.6125 C275.0125,247.9625 196.2875,283.3625 129.375,320 C124.0375,322.925 118.575,326.1 113.1625,329.3875 " fill="none" id="PortController-to-Ship" style="stroke:#A80036;stroke-width:1.25;"/><polygon fill="#A80036" points="107.7625,332.6875,119.9657,331.0611,113.0884,329.4169,114.7327,322.5396,107.7625,332.6875" style="stroke:#A80036;stroke-width:1.25;"/><text fill="#000000" font-family="sans-serif" font-size="16.25" lengthAdjust="spacing" textLength="35" x="251.875" y="278.1189">uses</text><text fill="#000000" font-family="sans-serif" font-size="16.25" lengthAdjust="spacing" textLength="8.75" x="306.8968" y="249.1646">1</text><text fill="#000000" font-family="sans-serif" font-size="16.25" lengthAdjust="spacing" textLength="25" x="117.2021" y="322.4015">1..*</text><!--MD5=[b17ea49411e4ebb461bfd33a78ee7334]
link PortController to ShipDynamicFields--><path codeLine="39" d="M426.875,222.55 C426.875,251.6 426.875,291.8625 426.875,322.3875 " fill="none" id="PortController-to-ShipDynamicFields" style="stroke:#A80036;stroke-width:1.25;"/><polygon fill="#A80036" points="426.875,328.7375,431.875,317.4875,426.875,322.4875,421.875,317.4875,426.875,328.7375" style="stroke:#A80036;stroke-width:1.25;"/><text fill="#000000" font-family="sans-serif" font-size="16.25" lengthAdjust="spacing" textLength="35" x="428.125" y="278.1189">uses</text><text fill="#000000" font-family="sans-serif" font-size="16.25" lengthAdjust="spacing" textLength="8.75" x="417.2637" y="249.0898">1</text><text fill="#000000" font-family="sans-serif" font-size="16.25" lengthAdjust="spacing" textLength="25" x="399.1406" y="315.0101">1..*</text><!--MD5=[b6c3b7268ccb744f1a475ba9263579c0]
link PortController to TwoDTree--><path codeLine="40" d="M532.2875,222.55 C609.7375,250.15 715.6375,287.875 799.4875,317.75 " fill="none" id="PortController-to-TwoDTree" style="stroke:#A80036;stroke-width:1.25;"/><polygon fill="#A80036" points="805.4875,319.8875,796.5778,311.3916,799.6024,317.7831,793.2109,320.8077,805.4875,319.8875" style="stroke:#A80036;stroke-width:1.25;"/><text fill="#000000" font-family="sans-serif" font-size="16.25" lengthAdjust="spacing" textLength="35" x="698.125" y="278.1189">uses</text><text fill="#000000" font-family="sans-serif" font-size="16.25" lengthAdjust="spacing" textLength="8.75" x="543.4293" y="249.0898">1</text><text fill="#000000" font-family="sans-serif" font-size="16.25" lengthAdjust="spacing" textLength="8.75" x="772.7775" y="306.5698">1</text><!--MD5=[893b5a392b6da15e10af10b7f4f80701]
link TwoDTree to Port--><path codeLine="41" d="M954.8875,415.225 C966.325,442.825 980.85,477.875 992.6875,506.4375 " fill="none" id="TwoDTree-to-Port" style="stroke:#A80036;stroke-width:1.25;"/><polygon fill="#A80036" points="995.175,512.425,995.4824,500.1178,992.78,506.6521,986.2457,503.9497,995.175,512.425" style="stroke:#A80036;stroke-width:1.25;"/><text fill="#000000" font-family="sans-serif" font-size="16.25" lengthAdjust="spacing" textLength="35" x="978.125" y="470.6189">uses</text><text fill="#000000" font-family="sans-serif" font-size="16.25" lengthAdjust="spacing" textLength="8.75" x="948.5102" y="441.3615">1</text><text fill="#000000" font-family="sans-serif" font-size="16.25" lengthAdjust="spacing" textLength="25" x="964.3303" y="498.7568">1..*</text><!--MD5=[42d39431c5714514a1ca9f24fa3c12a3]
link TwoDTree to Node--><path codeLine="42" d="M916.05,415.225 C904.4375,442.825 889.675,477.875 877.65,506.4375 " fill="none" id="TwoDTree-to-Node" style="stroke:#A80036;stroke-width:1.25;"/><polygon fill="#A80036" points="875.1375,512.425,884.1113,503.9969,877.5629,506.6648,874.895,500.1163,875.1375,512.425" style="stroke:#A80036;stroke-width:1.25;"/><text fill="#000000" font-family="sans-serif" font-size="16.25" lengthAdjust="spacing" textLength="35" x="899.375" y="470.6189">uses</text><text fill="#000000" font-family="sans-serif" font-size="16.25" lengthAdjust="spacing" textLength="8.75" x="903.483" y="441.3615">1</text><text fill="#000000" font-family="sans-serif" font-size="16.25" lengthAdjust="spacing" textLength="25" x="851.4304" y="498.7568">1..*</text><!--MD5=[f3a3449521a192ec9ef041a05136d1ee]
@startuml
skinparam classAttributeIconSize 0

class FindPortsUI{
}

class PortController{
+ findClosestPortToShip(String callSign, Date year, LocalTime hours)
}

class Ship{
+ Ship()
+ getCallSign()
}

class ShipDynamicFields{
+ checkLastPositionUpgrade(Date year, LocalTime hours, List<ShipDynamicFields> ships)
}

class TwoDTree {
+ findNearestNeighbour(double x, double y)
+ findNearestNeighbour(finalShip.getLat(), finalShip.getLon())
}

class Node {
+ getInfo()
+ setObject(Node node)
}

class Port {
+ getLat()
+ getLon()
}




PortController <.up. FindPortsUI
PortController "1" - -> "1..*" Ship : uses
PortController "1" - -> "1..*" ShipDynamicFields : uses
PortController "1" - -> "1" TwoDTree : uses
TwoDTree "1" - -> "1..*" Port : uses
TwoDTree "1" - -> "1..*" Node : uses

@enduml

PlantUML version 1.2021.7(Sun May 23 13:40:07 BST 2021)
(GPL source distribution)
Java Runtime: OpenJDK Runtime Environment
JVM: OpenJDK 64-Bit Server VM
Default Encoding: Cp1252
Language: pt
Country: PT
--></g></svg>